<?xml version="1.0" encoding="UTF-8" standalone="no"?>
<!-- Created with Inkscape (http://www.inkscape.org/) -->

<svg
   width="210mm"
   height="297mm"
   viewBox="1 0 55 53"
   version="1.1"
   id="svg5"
   inkscape:version="1.1.2 (0a00cf5339, 2022-02-04)"
   sodipodi:docname="below-the-sun_logo.svg"
   xmlns:inkscape="http://www.inkscape.org/namespaces/inkscape"
   xmlns:sodipodi="http://sodipodi.sourceforge.net/DTD/sodipodi-0.dtd"
   xmlns="http://www.w3.org/2000/svg"
   xmlns:svg="http://www.w3.org/2000/svg">
  <sodipodi:namedview
     id="namedview7"
     pagecolor="#ffffff"
     bordercolor="#666666"
     borderopacity="1.0"
     inkscape:pageshadow="2"
     inkscape:pageopacity="0.0"
     inkscape:pagecheckerboard="0"
     inkscape:document-units="mm"
     showgrid="false"
     inkscape:snap-text-baseline="false"
     inkscape:zoom="1.897079"
     inkscape:cx="-8.4340189"
     inkscape:cy="133.89005"
     inkscape:window-width="1920"
     inkscape:window-height="1012"
     inkscape:window-x="0"
     inkscape:window-y="0"
     inkscape:window-maximized="1"
     inkscape:current-layer="layer1" />
  <defs
     id="defs2" />
  <g
     inkscape:label="Ebene 1"
     inkscape:groupmode="layer"
     id="layer1">
    <ellipse
       style="fill:#000000;fill-rule:evenodd;stroke-width:0.264583"
       id="path31"
       cx="30.171284"
       cy="24.558056"
       rx="25.34416"
       ry="23.786032" />
    <path
       style="fill:#ffffff;stroke:#000000;stroke-width:0.264583px;stroke-linecap:butt;stroke-linejoin:miter;stroke-opacity:1"
       d="m 1.5662827,49.186845 c 0,0 13.1072283,-13.15715 18.3510973,-20.191726 4.71827,-6.329503 11.244632,-19.9982958 11.244632,-19.9982958 0,0 5.252459,16.0044038 9.309522,23.3281018 4.08419,7.37268 14.938562,20.40031 14.938562,20.40031 0,0 -16.926369,-4.08261 -25.125963,-3.71357 -0.719977,0.0324 -1.469396,1.4503 -1.469396,1.4503 l 1.904977,-35.07638 -5.024021,35.53507 c 0,0 -0.681928,-1.20993 -1.272887,-1.48571 -6.904479,-3.22207 -22.8565233,-0.2481 -22.8565233,-0.2481 z"
       id="path107"
       sodipodi:nodetypes="cscscscccsc" />
  </g>
</svg>
