<?xml version="1.0" encoding="us-ascii" standalone="no"?><svg xmlns="http://www.w3.org/2000/svg" xmlns:xlink="http://www.w3.org/1999/xlink" contentStyleType="text/css" height="894px" preserveAspectRatio="none" style="width:4069px;height:894px;background:#FEFEFE;" version="1.1" viewBox="0 0 4069 894" width="4069px" zoomAndPan="magnify"><defs/><g><rect fill="#FEFEFE" height="894" style="stroke:none;stroke-width:1.0;" width="4069" x="0" y="0"/><!--cluster org--><g id="cluster_org"><path d="M8.5,526.0137 L33.5,526.0137 A3.75,3.75 0 0 1 36,528.5137 L43,550.6348 L1571.5,550.6348 A2.5,2.5 0 0 1 1574,553.1348 L1574,884.5137 A2.5,2.5 0 0 1 1571.5,887.0137 L8.5,887.0137 A2.5,2.5 0 0 1 6,884.5137 L6,528.5137 A2.5,2.5 0 0 1 8.5,526.0137 " fill="none" style="stroke:#000000;stroke-width:1.5;"/><line style="stroke:#000000;stroke-width:1.5;" x1="6" x2="43" y1="550.6348" y2="550.6348"/><text fill="#000000" font-family="sans-serif" font-size="14" font-weight="bold" lengthAdjust="spacing" textLength="24" x="10" y="543.1211">org</text></g><!--cluster springframework--><g id="cluster_springframework"><path d="M32.5,571.0137 L152.5,571.0137 A3.75,3.75 0 0 1 155,573.5137 L162,595.6348 L857.5,595.6348 A2.5,2.5 0 0 1 860,598.1348 L860,860.5137 A2.5,2.5 0 0 1 857.5,863.0137 L32.5,863.0137 A2.5,2.5 0 0 1 30,860.5137 L30,573.5137 A2.5,2.5 0 0 1 32.5,571.0137 " fill="none" style="stroke:#000000;stroke-width:1.5;"/><line style="stroke:#000000;stroke-width:1.5;" x1="30" x2="162" y1="595.6348" y2="595.6348"/><text fill="#000000" font-family="sans-serif" font-size="14" font-weight="bold" lengthAdjust="spacing" textLength="119" x="34" y="588.1211">springframework</text></g><!--cluster security--><g id="cluster_security"><path d="M56.5,616.0137 L113.5,616.0137 A3.75,3.75 0 0 1 116,618.5137 L123,640.6348 L293.5,640.6348 A2.5,2.5 0 0 1 296,643.1348 L296,836.5137 A2.5,2.5 0 0 1 293.5,839.0137 L56.5,839.0137 A2.5,2.5 0 0 1 54,836.5137 L54,618.5137 A2.5,2.5 0 0 1 56.5,616.0137 " fill="none" style="stroke:#000000;stroke-width:1.5;"/><line style="stroke:#000000;stroke-width:1.5;" x1="54" x2="123" y1="640.6348" y2="640.6348"/><text fill="#000000" font-family="sans-serif" font-size="14" font-weight="bold" lengthAdjust="spacing" textLength="56" x="58" y="633.1211">security</text></g><!--cluster access--><g id="cluster_access"><path d="M80.5,661.0137 L130.5,661.0137 A3.75,3.75 0 0 1 133,663.5137 L140,685.6348 L269.5,685.6348 A2.5,2.5 0 0 1 272,688.1348 L272,812.5137 A2.5,2.5 0 0 1 269.5,815.0137 L80.5,815.0137 A2.5,2.5 0 0 1 78,812.5137 L78,663.5137 A2.5,2.5 0 0 1 80.5,661.0137 " fill="none" style="stroke:#000000;stroke-width:1.5;"/><line style="stroke:#000000;stroke-width:1.5;" x1="78" x2="140" y1="685.6348" y2="685.6348"/><text fill="#000000" font-family="sans-serif" font-size="14" font-weight="bold" lengthAdjust="spacing" textLength="49" x="82" y="678.1211">access</text></g><!--cluster prepost--><g id="cluster_prepost"><path d="M104.5,706.0137 L160.5,706.0137 A3.75,3.75 0 0 1 163,708.5137 L170,730.6348 L245.5,730.6348 A2.5,2.5 0 0 1 248,733.1348 L248,788.5137 A2.5,2.5 0 0 1 245.5,791.0137 L104.5,791.0137 A2.5,2.5 0 0 1 102,788.5137 L102,708.5137 A2.5,2.5 0 0 1 104.5,706.0137 " fill="none" style="stroke:#000000;stroke-width:1.5;"/><line style="stroke:#000000;stroke-width:1.5;" x1="102" x2="170" y1="730.6348" y2="730.6348"/><text fill="#000000" font-family="sans-serif" font-size="14" font-weight="bold" lengthAdjust="spacing" textLength="55" x="106" y="723.1211">prepost</text></g><!--cluster stereotype--><g id="cluster_stereotype"><path d="M322.5,706.0137 L399.5,706.0137 A3.75,3.75 0 0 1 402,708.5137 L409,730.6348 L443.5,730.6348 A2.5,2.5 0 0 1 446,733.1348 L446,788.5137 A2.5,2.5 0 0 1 443.5,791.0137 L322.5,791.0137 A2.5,2.5 0 0 1 320,788.5137 L320,708.5137 A2.5,2.5 0 0 1 322.5,706.0137 " fill="none" style="stroke:#000000;stroke-width:1.5;"/><line style="stroke:#000000;stroke-width:1.5;" x1="320" x2="409" y1="730.6348" y2="730.6348"/><text fill="#000000" font-family="sans-serif" font-size="14" font-weight="bold" lengthAdjust="spacing" textLength="76" x="324" y="723.1211">stereotype</text></g><!--cluster ui--><g id="cluster_ui"><path d="M472.5,706.0137 L486.5,706.0137 A3.75,3.75 0 0 1 489,708.5137 L496,730.6348 L571.5,730.6348 A2.5,2.5 0 0 1 574,733.1348 L574,788.5137 A2.5,2.5 0 0 1 571.5,791.0137 L472.5,791.0137 A2.5,2.5 0 0 1 470,788.5137 L470,708.5137 A2.5,2.5 0 0 1 472.5,706.0137 " fill="none" style="stroke:#000000;stroke-width:1.5;"/><line style="stroke:#000000;stroke-width:1.5;" x1="470" x2="496" y1="730.6348" y2="730.6348"/><text fill="#000000" font-family="sans-serif" font-size="14" font-weight="bold" lengthAdjust="spacing" textLength="13" x="474" y="723.1211">ui</text></g><!--cluster web--><g id="cluster_web"><path d="M600.5,616.0137 L630.5,616.0137 A3.75,3.75 0 0 1 633,618.5137 L640,640.6348 L833.5,640.6348 A2.5,2.5 0 0 1 836,643.1348 L836,836.5137 A2.5,2.5 0 0 1 833.5,839.0137 L600.5,839.0137 A2.5,2.5 0 0 1 598,836.5137 L598,618.5137 A2.5,2.5 0 0 1 600.5,616.0137 " fill="none" style="stroke:#000000;stroke-width:1.5;"/><line style="stroke:#000000;stroke-width:1.5;" x1="598" x2="640" y1="640.6348" y2="640.6348"/><text fill="#000000" font-family="sans-serif" font-size="14" font-weight="bold" lengthAdjust="spacing" textLength="29" x="602" y="633.1211">web</text></g><!--cluster bind--><g id="cluster_bind"><path d="M624.5,661.0137 L656.5,661.0137 A3.75,3.75 0 0 1 659,663.5137 L666,685.6348 L809.5,685.6348 A2.5,2.5 0 0 1 812,688.1348 L812,812.5137 A2.5,2.5 0 0 1 809.5,815.0137 L624.5,815.0137 A2.5,2.5 0 0 1 622,812.5137 L622,663.5137 A2.5,2.5 0 0 1 624.5,661.0137 " fill="none" style="stroke:#000000;stroke-width:1.5;"/><line style="stroke:#000000;stroke-width:1.5;" x1="622" x2="666" y1="685.6348" y2="685.6348"/><text fill="#000000" font-family="sans-serif" font-size="14" font-weight="bold" lengthAdjust="spacing" textLength="31" x="626" y="678.1211">bind</text></g><!--cluster annotation--><g id="cluster_annotation"><path d="M648.5,706.0137 L724.5,706.0137 A3.75,3.75 0 0 1 727,708.5137 L734,730.6348 L785.5,730.6348 A2.5,2.5 0 0 1 788,733.1348 L788,788.5137 A2.5,2.5 0 0 1 785.5,791.0137 L648.5,791.0137 A2.5,2.5 0 0 1 646,788.5137 L646,708.5137 A2.5,2.5 0 0 1 648.5,706.0137 " fill="none" style="stroke:#000000;stroke-width:1.5;"/><line style="stroke:#000000;stroke-width:1.5;" x1="646" x2="734" y1="730.6348" y2="730.6348"/><text fill="#000000" font-family="sans-serif" font-size="14" font-weight="bold" lengthAdjust="spacing" textLength="75" x="650" y="723.1211">annotation</text></g><!--cluster salespointframework--><g id="cluster_salespointframework"><path d="M886.5,661.0137 L1034.5,661.0137 A3.75,3.75 0 0 1 1037,663.5137 L1044,685.6348 L1369.5,685.6348 A2.5,2.5 0 0 1 1372,688.1348 L1372,812.5137 A2.5,2.5 0 0 1 1369.5,815.0137 L886.5,815.0137 A2.5,2.5 0 0 1 884,812.5137 L884,663.5137 A2.5,2.5 0 0 1 886.5,661.0137 " fill="none" style="stroke:#000000;stroke-width:1.5;"/><line style="stroke:#000000;stroke-width:1.5;" x1="884" x2="1044" y1="685.6348" y2="685.6348"/><text fill="#000000" font-family="sans-serif" font-size="14" font-weight="bold" lengthAdjust="spacing" textLength="147" x="888" y="678.1211">salespointframework</text></g><!--cluster useraccount--><g id="cluster_useraccount"><path d="M1206.5,706.0137 L1295.5,706.0137 A3.75,3.75 0 0 1 1298,708.5137 L1305,730.6348 L1345.5,730.6348 A2.5,2.5 0 0 1 1348,733.1348 L1348,788.5137 A2.5,2.5 0 0 1 1345.5,791.0137 L1206.5,791.0137 A2.5,2.5 0 0 1 1204,788.5137 L1204,708.5137 A2.5,2.5 0 0 1 1206.5,706.0137 " fill="none" style="stroke:#000000;stroke-width:1.5;"/><line style="stroke:#000000;stroke-width:1.5;" x1="1204" x2="1305" y1="730.6348" y2="730.6348"/><text fill="#000000" font-family="sans-serif" font-size="14" font-weight="bold" lengthAdjust="spacing" textLength="88" x="1208" y="723.1211">useraccount</text></g><!--cluster catalog--><g id="cluster_catalog"><path d="M910.5,706.0137 L962.5,706.0137 A3.75,3.75 0 0 1 965,708.5137 L972,730.6348 L1019.5,730.6348 A2.5,2.5 0 0 1 1022,733.1348 L1022,788.5137 A2.5,2.5 0 0 1 1019.5,791.0137 L910.5,791.0137 A2.5,2.5 0 0 1 908,788.5137 L908,708.5137 A2.5,2.5 0 0 1 910.5,706.0137 " fill="none" style="stroke:#000000;stroke-width:1.5;"/><line style="stroke:#000000;stroke-width:1.5;" x1="908" x2="972" y1="730.6348" y2="730.6348"/><text fill="#000000" font-family="sans-serif" font-size="14" font-weight="bold" lengthAdjust="spacing" textLength="51" x="912" y="723.1211">catalog</text></g><!--cluster core--><g id="cluster_core"><path d="M1048.5,706.0137 L1081.5,706.0137 A3.75,3.75 0 0 1 1084,708.5137 L1091,730.6348 L1177.5,730.6348 A2.5,2.5 0 0 1 1180,733.1348 L1180,788.5137 A2.5,2.5 0 0 1 1177.5,791.0137 L1048.5,791.0137 A2.5,2.5 0 0 1 1046,788.5137 L1046,708.5137 A2.5,2.5 0 0 1 1048.5,706.0137 " fill="none" style="stroke:#000000;stroke-width:1.5;"/><line style="stroke:#000000;stroke-width:1.5;" x1="1046" x2="1091" y1="730.6348" y2="730.6348"/><text fill="#000000" font-family="sans-serif" font-size="14" font-weight="bold" lengthAdjust="spacing" textLength="32" x="1050" y="723.1211">core</text></g><!--cluster javamoney--><g id="cluster_javamoney"><path d="M1398.5,661.0137 L1474.5,661.0137 A3.75,3.75 0 0 1 1477,663.5137 L1484,685.6348 L1547.5,685.6348 A2.5,2.5 0 0 1 1550,688.1348 L1550,812.5137 A2.5,2.5 0 0 1 1547.5,815.0137 L1398.5,815.0137 A2.5,2.5 0 0 1 1396,812.5137 L1396,663.5137 A2.5,2.5 0 0 1 1398.5,661.0137 " fill="none" style="stroke:#000000;stroke-width:1.5;"/><line style="stroke:#000000;stroke-width:1.5;" x1="1396" x2="1484" y1="685.6348" y2="685.6348"/><text fill="#000000" font-family="sans-serif" font-size="14" font-weight="bold" lengthAdjust="spacing" textLength="75" x="1400" y="678.1211">javamoney</text></g><!--cluster moneta--><g id="cluster_moneta"><path d="M1422.5,706.0137 L1475.5,706.0137 A3.75,3.75 0 0 1 1478,708.5137 L1485,730.6348 L1523.5,730.6348 A2.5,2.5 0 0 1 1526,733.1348 L1526,788.5137 A2.5,2.5 0 0 1 1523.5,791.0137 L1422.5,791.0137 A2.5,2.5 0 0 1 1420,788.5137 L1420,708.5137 A2.5,2.5 0 0 1 1422.5,706.0137 " fill="none" style="stroke:#000000;stroke-width:1.5;"/><line style="stroke:#000000;stroke-width:1.5;" x1="1420" x2="1485" y1="730.6348" y2="730.6348"/><text fill="#000000" font-family="sans-serif" font-size="14" font-weight="bold" lengthAdjust="spacing" textLength="52" x="1424" y="723.1211">moneta</text></g><!--cluster javax--><g id="cluster_javax"><path d="M3844.5,661.0137 L3882.5,661.0137 A3.75,3.75 0 0 1 3885,663.5137 L3892,685.6348 L4059.5,685.6348 A2.5,2.5 0 0 1 4062,688.1348 L4062,812.5137 A2.5,2.5 0 0 1 4059.5,815.0137 L3844.5,815.0137 A2.5,2.5 0 0 1 3842,812.5137 L3842,663.5137 A2.5,2.5 0 0 1 3844.5,661.0137 " fill="none" style="stroke:#000000;stroke-width:1.5;"/><line style="stroke:#000000;stroke-width:1.5;" x1="3842" x2="3892" y1="685.6348" y2="685.6348"/><text fill="#000000" font-family="sans-serif" font-size="14" font-weight="bold" lengthAdjust="spacing" textLength="37" x="3846" y="678.1211">javax</text></g><!--cluster money--><g id="cluster_money"><path d="M3868.5,706.0137 L3915.5,706.0137 A3.75,3.75 0 0 1 3918,708.5137 L3925,730.6348 L4035.5,730.6348 A2.5,2.5 0 0 1 4038,733.1348 L4038,788.5137 A2.5,2.5 0 0 1 4035.5,791.0137 L3868.5,791.0137 A2.5,2.5 0 0 1 3866,788.5137 L3866,708.5137 A2.5,2.5 0 0 1 3868.5,706.0137 " fill="none" style="stroke:#000000;stroke-width:1.5;"/><line style="stroke:#000000;stroke-width:1.5;" x1="3866" x2="3925" y1="730.6348" y2="730.6348"/><text fill="#000000" font-family="sans-serif" font-size="14" font-weight="bold" lengthAdjust="spacing" textLength="46" x="3870" y="723.1211">money</text></g><!--cluster java--><g id="cluster_java"><path d="M3051.5,616.0137 L3081.5,616.0137 A3.75,3.75 0 0 1 3084,618.5137 L3091,640.6348 L3571.5,640.6348 A2.5,2.5 0 0 1 3574,643.1348 L3574,836.5137 A2.5,2.5 0 0 1 3571.5,839.0137 L3051.5,839.0137 A2.5,2.5 0 0 1 3049,836.5137 L3049,618.5137 A2.5,2.5 0 0 1 3051.5,616.0137 " fill="none" style="stroke:#000000;stroke-width:1.5;"/><line style="stroke:#000000;stroke-width:1.5;" x1="3049" x2="3091" y1="640.6348" y2="640.6348"/><text fill="#000000" font-family="sans-serif" font-size="14" font-weight="bold" lengthAdjust="spacing" textLength="29" x="3053" y="633.1211">java</text></g><!--cluster util--><g id="cluster_util"><path d="M3075.5,661.0137 L3098.5,661.0137 A3.75,3.75 0 0 1 3101,663.5137 L3108,685.6348 L3547.5,685.6348 A2.5,2.5 0 0 1 3550,688.1348 L3550,812.5137 A2.5,2.5 0 0 1 3547.5,815.0137 L3075.5,815.0137 A2.5,2.5 0 0 1 3073,812.5137 L3073,663.5137 A2.5,2.5 0 0 1 3075.5,661.0137 " fill="none" style="stroke:#000000;stroke-width:1.5;"/><line style="stroke:#000000;stroke-width:1.5;" x1="3073" x2="3108" y1="685.6348" y2="685.6348"/><text fill="#000000" font-family="sans-serif" font-size="14" font-weight="bold" lengthAdjust="spacing" textLength="22" x="3077" y="678.1211">util</text></g><!--cluster stream--><g id="cluster_stream"><path d="M3400.5,706.0137 L3449.5,706.0137 A3.75,3.75 0 0 1 3452,708.5137 L3459,730.6348 L3523.5,730.6348 A2.5,2.5 0 0 1 3526,733.1348 L3526,788.5137 A2.5,2.5 0 0 1 3523.5,791.0137 L3400.5,791.0137 A2.5,2.5 0 0 1 3398,788.5137 L3398,708.5137 A2.5,2.5 0 0 1 3400.5,706.0137 " fill="none" style="stroke:#000000;stroke-width:1.5;"/><line style="stroke:#000000;stroke-width:1.5;" x1="3398" x2="3459" y1="730.6348" y2="730.6348"/><text fill="#000000" font-family="sans-serif" font-size="14" font-weight="bold" lengthAdjust="spacing" textLength="48" x="3402" y="723.1211">stream</text></g><!--cluster campingplatz--><g id="cluster_campingplatz"><path d="M1600.5,6.0137 L1693.5,6.0137 A3.75,3.75 0 0 1 1696,8.5137 L1703,30.6348 L3022.5,30.6348 A2.5,2.5 0 0 1 3025,33.1348 L3025,812.5137 A2.5,2.5 0 0 1 3022.5,815.0137 L1600.5,815.0137 A2.5,2.5 0 0 1 1598,812.5137 L1598,8.5137 A2.5,2.5 0 0 1 1600.5,6.0137 " fill="none" style="stroke:#000000;stroke-width:1.5;"/><line style="stroke:#000000;stroke-width:1.5;" x1="1598" x2="1703" y1="30.6348" y2="30.6348"/><text fill="#000000" font-family="sans-serif" font-size="14" font-weight="bold" lengthAdjust="spacing" textLength="92" x="1602" y="23.1211">campingplatz</text></g><!--cluster reservation--><g id="cluster_reservation"><path d="M2605.5,706.0137 L2688.5,706.0137 A3.75,3.75 0 0 1 2691,708.5137 L2698,730.6348 L2917.5,730.6348 A2.5,2.5 0 0 1 2920,733.1348 L2920,788.5137 A2.5,2.5 0 0 1 2917.5,791.0137 L2605.5,791.0137 A2.5,2.5 0 0 1 2603,788.5137 L2603,708.5137 A2.5,2.5 0 0 1 2605.5,706.0137 " fill="none" style="stroke:#000000;stroke-width:1.5;"/><line style="stroke:#000000;stroke-width:1.5;" x1="2603" x2="2698" y1="730.6348" y2="730.6348"/><text fill="#000000" font-family="sans-serif" font-size="14" font-weight="bold" lengthAdjust="spacing" textLength="82" x="2607" y="723.1211">reservation</text></g><!--cluster utils--><g id="cluster_utils"><path d="M1624.5,51.0137 L1655.5,51.0137 A3.75,3.75 0 0 1 1658,53.5137 L1665,75.6348 L2998.5,75.6348 A2.5,2.5 0 0 1 3001,78.1348 L3001,499.5137 A2.5,2.5 0 0 1 2998.5,502.0137 L1624.5,502.0137 A2.5,2.5 0 0 1 1622,499.5137 L1622,53.5137 A2.5,2.5 0 0 1 1624.5,51.0137 " fill="none" style="stroke:#000000;stroke-width:1.5;"/><line style="stroke:#000000;stroke-width:1.5;" x1="1622" x2="1665" y1="75.6348" y2="75.6348"/><text fill="#000000" font-family="sans-serif" font-size="14" font-weight="bold" lengthAdjust="spacing" textLength="30" x="1626" y="68.1211">utils</text></g><!--cluster one--><g id="cluster_one"><path d="M3600.5,616.0137 L3628.5,616.0137 A3.75,3.75 0 0 1 3631,618.5137 L3638,640.6348 L3815.5,640.6348 A2.5,2.5 0 0 1 3818,643.1348 L3818,836.5137 A2.5,2.5 0 0 1 3815.5,839.0137 L3600.5,839.0137 A2.5,2.5 0 0 1 3598,836.5137 L3598,618.5137 A2.5,2.5 0 0 1 3600.5,616.0137 " fill="none" style="stroke:#000000;stroke-width:1.5;"/><line style="stroke:#000000;stroke-width:1.5;" x1="3598" x2="3638" y1="640.6348" y2="640.6348"/><text fill="#000000" font-family="sans-serif" font-size="14" font-weight="bold" lengthAdjust="spacing" textLength="27" x="3602" y="633.1211">one</text></g><!--cluster util--><g id="cluster_util"><path d="M3624.5,661.0137 L3647.5,661.0137 A3.75,3.75 0 0 1 3650,663.5137 L3657,685.6348 L3791.5,685.6348 A2.5,2.5 0 0 1 3794,688.1348 L3794,812.5137 A2.5,2.5 0 0 1 3791.5,815.0137 L3624.5,815.0137 A2.5,2.5 0 0 1 3622,812.5137 L3622,663.5137 A2.5,2.5 0 0 1 3624.5,661.0137 " fill="none" style="stroke:#000000;stroke-width:1.5;"/><line style="stroke:#000000;stroke-width:1.5;" x1="3622" x2="3657" y1="685.6348" y2="685.6348"/><text fill="#000000" font-family="sans-serif" font-size="14" font-weight="bold" lengthAdjust="spacing" textLength="22" x="3626" y="678.1211">util</text></g><!--cluster streamex--><g id="cluster_streamex"><path d="M3648.5,706.0137 L3714.5,706.0137 A3.75,3.75 0 0 1 3717,708.5137 L3724,730.6348 L3767.5,730.6348 A2.5,2.5 0 0 1 3770,733.1348 L3770,788.5137 A2.5,2.5 0 0 1 3767.5,791.0137 L3648.5,791.0137 A2.5,2.5 0 0 1 3646,788.5137 L3646,708.5137 A2.5,2.5 0 0 1 3648.5,706.0137 " fill="none" style="stroke:#000000;stroke-width:1.5;"/><line style="stroke:#000000;stroke-width:1.5;" x1="3646" x2="3724" y1="730.6348" y2="730.6348"/><text fill="#000000" font-family="sans-serif" font-size="14" font-weight="bold" lengthAdjust="spacing" textLength="65" x="3650" y="723.1211">streamex</text></g><!--class PreAuthorize--><g id="elem_PreAuthorize"><rect codeLine="8" fill="#F1F1F1" height="32" id="PreAuthorize" rx="2.5" ry="2.5" style="stroke:#181818;stroke-width:0.5;" width="114" x="118" y="743.0137"/><ellipse cx="133" cy="759.0137" fill="#B4A7E5" rx="11" ry="11" style="stroke:#181818;stroke-width:1.0;"/><path d="M133.9531,755.6543 L133.9531,762.3105 L135.6719,762.3105 Q136.2813,762.3105 136.5469,762.5449 Q136.8125,762.7793 136.8125,763.1699 Q136.8125,763.5449 136.5469,763.7793 Q136.2813,764.0137 135.6719,764.0137 L130.5313,764.0137 Q129.9219,764.0137 129.6563,763.7793 Q129.3906,763.5449 129.3906,763.1543 Q129.3906,762.7793 129.6563,762.5449 Q129.9219,762.3105 130.5313,762.3105 L132.25,762.3105 L132.25,755.6543 L130.5313,755.6543 Q129.9219,755.6543 129.6563,755.4199 Q129.3906,755.1855 129.3906,754.7949 Q129.3906,754.4199 129.6563,754.1855 Q129.9219,753.9512 130.5313,753.9512 L135.6719,753.9512 Q136.2813,753.9512 136.5469,754.1855 Q136.8125,754.4199 136.8125,754.7949 Q136.8125,755.1855 136.5469,755.4199 Q136.2813,755.6543 135.6719,755.6543 L133.9531,755.6543 Z " fill="#000000"/><text fill="#000000" font-family="sans-serif" font-size="14" font-style="italic" lengthAdjust="spacing" textLength="82" x="147" y="764.8105">PreAuthorize</text></g><!--class Controller--><g id="elem_Controller"><rect codeLine="11" fill="#F1F1F1" height="32" id="Controller" rx="2.5" ry="2.5" style="stroke:#181818;stroke-width:0.5;" width="94" x="336" y="743.0137"/><ellipse cx="351" cy="759.0137" fill="#B4A7E5" rx="11" ry="11" style="stroke:#181818;stroke-width:1.0;"/><path d="M351.9531,755.6543 L351.9531,762.3105 L353.6719,762.3105 Q354.2813,762.3105 354.5469,762.5449 Q354.8125,762.7793 354.8125,763.1699 Q354.8125,763.5449 354.5469,763.7793 Q354.2813,764.0137 353.6719,764.0137 L348.5313,764.0137 Q347.9219,764.0137 347.6563,763.7793 Q347.3906,763.5449 347.3906,763.1543 Q347.3906,762.7793 347.6563,762.5449 Q347.9219,762.3105 348.5313,762.3105 L350.25,762.3105 L350.25,755.6543 L348.5313,755.6543 Q347.9219,755.6543 347.6563,755.4199 Q347.3906,755.1855 347.3906,754.7949 Q347.3906,754.4199 347.6563,754.1855 Q347.9219,753.9512 348.5313,753.9512 L353.6719,753.9512 Q354.2813,753.9512 354.5469,754.1855 Q354.8125,754.4199 354.8125,754.7949 Q354.8125,755.1855 354.5469,755.4199 Q354.2813,755.6543 353.6719,755.6543 L351.9531,755.6543 Z " fill="#000000"/><text fill="#000000" font-family="sans-serif" font-size="14" font-style="italic" lengthAdjust="spacing" textLength="62" x="365" y="764.8105">Controller</text></g><!--class Model--><g id="elem_Model"><rect codeLine="15" fill="#F1F1F1" height="32" id="Model" rx="2.5" ry="2.5" style="stroke:#181818;stroke-width:0.5;" width="71" x="486.5" y="743.0137"/><ellipse cx="501.5" cy="759.0137" fill="#B4A7E5" rx="11" ry="11" style="stroke:#181818;stroke-width:1.0;"/><path d="M502.4531,755.6543 L502.4531,762.3105 L504.1719,762.3105 Q504.7813,762.3105 505.0469,762.5449 Q505.3125,762.7793 505.3125,763.1699 Q505.3125,763.5449 505.0469,763.7793 Q504.7813,764.0137 504.1719,764.0137 L499.0313,764.0137 Q498.4219,764.0137 498.1563,763.7793 Q497.8906,763.5449 497.8906,763.1543 Q497.8906,762.7793 498.1563,762.5449 Q498.4219,762.3105 499.0313,762.3105 L500.75,762.3105 L500.75,755.6543 L499.0313,755.6543 Q498.4219,755.6543 498.1563,755.4199 Q497.8906,755.1855 497.8906,754.7949 Q497.8906,754.4199 498.1563,754.1855 Q498.4219,753.9512 499.0313,753.9512 L504.1719,753.9512 Q504.7813,753.9512 505.0469,754.1855 Q505.3125,754.4199 505.3125,754.7949 Q505.3125,755.1855 505.0469,755.4199 Q504.7813,755.6543 504.1719,755.6543 L502.4531,755.6543 Z " fill="#000000"/><text fill="#000000" font-family="sans-serif" font-size="14" font-style="italic" lengthAdjust="spacing" textLength="39" x="515.5" y="764.8105">Model</text></g><!--class GetMapping--><g id="elem_GetMapping"><rect codeLine="19" fill="#F1F1F1" height="32" id="GetMapping" rx="2.5" ry="2.5" style="stroke:#181818;stroke-width:0.5;" width="110" x="662" y="743.0137"/><ellipse cx="677" cy="759.0137" fill="#B4A7E5" rx="11" ry="11" style="stroke:#181818;stroke-width:1.0;"/><path d="M677.9531,755.6543 L677.9531,762.3105 L679.6719,762.3105 Q680.2813,762.3105 680.5469,762.5449 Q680.8125,762.7793 680.8125,763.1699 Q680.8125,763.5449 680.5469,763.7793 Q680.2813,764.0137 679.6719,764.0137 L674.5313,764.0137 Q673.9219,764.0137 673.6563,763.7793 Q673.3906,763.5449 673.3906,763.1543 Q673.3906,762.7793 673.6563,762.5449 Q673.9219,762.3105 674.5313,762.3105 L676.25,762.3105 L676.25,755.6543 L674.5313,755.6543 Q673.9219,755.6543 673.6563,755.4199 Q673.3906,755.1855 673.3906,754.7949 Q673.3906,754.4199 673.6563,754.1855 Q673.9219,753.9512 674.5313,753.9512 L679.6719,753.9512 Q680.2813,753.9512 680.5469,754.1855 Q680.8125,754.4199 680.8125,754.7949 Q680.8125,755.1855 680.5469,755.4199 Q680.2813,755.6543 679.6719,755.6543 L677.9531,755.6543 Z " fill="#000000"/><text fill="#000000" font-family="sans-serif" font-size="14" font-style="italic" lengthAdjust="spacing" textLength="78" x="691" y="764.8105">GetMapping</text></g><!--class UserAccount--><g id="elem_UserAccount"><rect codeLine="23" fill="#F1F1F1" height="32" id="UserAccount" rx="2.5" ry="2.5" style="stroke:#181818;stroke-width:0.5;" width="112" x="1220" y="743.0137"/><ellipse cx="1235" cy="759.0137" fill="#ADD1B2" rx="11" ry="11" style="stroke:#181818;stroke-width:1.0;"/><path d="M1237.7656,754.8887 Q1237.9219,754.6699 1238.1094,754.5605 Q1238.2969,754.4512 1238.5156,754.4512 Q1238.8906,754.4512 1239.125,754.7168 Q1239.3594,754.9668 1239.3594,755.5762 L1239.3594,757.0293 Q1239.3594,757.6387 1239.125,757.9043 Q1238.8906,758.1699 1238.5156,758.1699 Q1238.1719,758.1699 1237.9688,757.9668 Q1237.7656,757.7793 1237.6563,757.2637 Q1237.6094,756.9043 1237.4219,756.7168 Q1237.0938,756.3418 1236.4844,756.123 Q1235.875,755.9043 1235.25,755.9043 Q1234.4844,755.9043 1233.8438,756.2324 Q1233.2188,756.5605 1232.7188,757.3105 Q1232.2344,758.0605 1232.2344,759.0918 L1232.2344,760.1855 Q1232.2344,761.4199 1233.125,762.248 Q1234.0156,763.0605 1235.6094,763.0605 Q1236.5469,763.0605 1237.2031,762.8105 Q1237.5938,762.6543 1238.0156,762.2168 Q1238.2813,761.9512 1238.4219,761.873 Q1238.5781,761.7949 1238.7813,761.7949 Q1239.1094,761.7949 1239.3594,762.0605 Q1239.625,762.3105 1239.625,762.6543 Q1239.625,762.998 1239.2813,763.4043 Q1238.7813,763.9824 1237.9844,764.3105 Q1236.9063,764.7637 1235.6094,764.7637 Q1234.0938,764.7637 1232.8906,764.1387 Q1231.9063,763.6387 1231.2188,762.5762 Q1230.5313,761.498 1230.5313,760.2168 L1230.5313,759.0605 Q1230.5313,757.7324 1231.1406,756.5918 Q1231.7656,755.4355 1232.8594,754.8262 Q1233.9531,754.2012 1235.1875,754.2012 Q1235.9219,754.2012 1236.5625,754.373 Q1237.2188,754.5293 1237.7656,754.8887 Z " fill="#000000"/><text fill="#000000" font-family="sans-serif" font-size="14" lengthAdjust="spacing" textLength="80" x="1249" y="764.8105">UserAccount</text></g><!--class Product--><g id="elem_Product"><rect codeLine="27" fill="#F1F1F1" height="32" id="Product" rx="2.5" ry="2.5" style="stroke:#181818;stroke-width:0.5;" width="81" x="924.5" y="743.0137"/><ellipse cx="939.5" cy="759.0137" fill="#ADD1B2" rx="11" ry="11" style="stroke:#181818;stroke-width:1.0;"/><path d="M942.2656,754.8887 Q942.4219,754.6699 942.6094,754.5605 Q942.7969,754.4512 943.0156,754.4512 Q943.3906,754.4512 943.625,754.7168 Q943.8594,754.9668 943.8594,755.5762 L943.8594,757.0293 Q943.8594,757.6387 943.625,757.9043 Q943.3906,758.1699 943.0156,758.1699 Q942.6719,758.1699 942.4688,757.9668 Q942.2656,757.7793 942.1563,757.2637 Q942.1094,756.9043 941.9219,756.7168 Q941.5938,756.3418 940.9844,756.123 Q940.375,755.9043 939.75,755.9043 Q938.9844,755.9043 938.3438,756.2324 Q937.7188,756.5605 937.2188,757.3105 Q936.7344,758.0605 936.7344,759.0918 L936.7344,760.1855 Q936.7344,761.4199 937.625,762.248 Q938.5156,763.0605 940.1094,763.0605 Q941.0469,763.0605 941.7031,762.8105 Q942.0938,762.6543 942.5156,762.2168 Q942.7813,761.9512 942.9219,761.873 Q943.0781,761.7949 943.2813,761.7949 Q943.6094,761.7949 943.8594,762.0605 Q944.125,762.3105 944.125,762.6543 Q944.125,762.998 943.7813,763.4043 Q943.2813,763.9824 942.4844,764.3105 Q941.4063,764.7637 940.1094,764.7637 Q938.5938,764.7637 937.3906,764.1387 Q936.4063,763.6387 935.7188,762.5762 Q935.0313,761.498 935.0313,760.2168 L935.0313,759.0605 Q935.0313,757.7324 935.6406,756.5918 Q936.2656,755.4355 937.3594,754.8262 Q938.4531,754.2012 939.6875,754.2012 Q940.4219,754.2012 941.0625,754.373 Q941.7188,754.5293 942.2656,754.8887 Z " fill="#000000"/><text fill="#000000" font-family="sans-serif" font-size="14" lengthAdjust="spacing" textLength="49" x="953.5" y="764.8105">Product</text></g><!--class Currencies--><g id="elem_Currencies"><rect codeLine="31" fill="#F1F1F1" height="32" id="Currencies" rx="2.5" ry="2.5" style="stroke:#181818;stroke-width:0.5;" width="101" x="1062.5" y="743.0137"/><ellipse cx="1077.5" cy="759.0137" fill="#B4A7E5" rx="11" ry="11" style="stroke:#181818;stroke-width:1.0;"/><path d="M1078.4531,755.6543 L1078.4531,762.3105 L1080.1719,762.3105 Q1080.7813,762.3105 1081.0469,762.5449 Q1081.3125,762.7793 1081.3125,763.1699 Q1081.3125,763.5449 1081.0469,763.7793 Q1080.7813,764.0137 1080.1719,764.0137 L1075.0313,764.0137 Q1074.4219,764.0137 1074.1563,763.7793 Q1073.8906,763.5449 1073.8906,763.1543 Q1073.8906,762.7793 1074.1563,762.5449 Q1074.4219,762.3105 1075.0313,762.3105 L1076.75,762.3105 L1076.75,755.6543 L1075.0313,755.6543 Q1074.4219,755.6543 1074.1563,755.4199 Q1073.8906,755.1855 1073.8906,754.7949 Q1073.8906,754.4199 1074.1563,754.1855 Q1074.4219,753.9512 1075.0313,753.9512 L1080.1719,753.9512 Q1080.7813,753.9512 1081.0469,754.1855 Q1081.3125,754.4199 1081.3125,754.7949 Q1081.3125,755.1855 1081.0469,755.4199 Q1080.7813,755.6543 1080.1719,755.6543 L1078.4531,755.6543 Z " fill="#000000"/><text fill="#000000" font-family="sans-serif" font-size="14" font-style="italic" lengthAdjust="spacing" textLength="69" x="1091.5" y="764.8105">Currencies</text></g><!--class Money--><g id="elem_Money"><rect codeLine="54" fill="#F1F1F1" height="32" id="Money" rx="2.5" ry="2.5" style="stroke:#181818;stroke-width:0.5;" width="74" x="1436" y="743.0137"/><ellipse cx="1451" cy="759.0137" fill="#ADD1B2" rx="11" ry="11" style="stroke:#181818;stroke-width:1.0;"/><path d="M1453.7656,754.8887 Q1453.9219,754.6699 1454.1094,754.5605 Q1454.2969,754.4512 1454.5156,754.4512 Q1454.8906,754.4512 1455.125,754.7168 Q1455.3594,754.9668 1455.3594,755.5762 L1455.3594,757.0293 Q1455.3594,757.6387 1455.125,757.9043 Q1454.8906,758.1699 1454.5156,758.1699 Q1454.1719,758.1699 1453.9688,757.9668 Q1453.7656,757.7793 1453.6563,757.2637 Q1453.6094,756.9043 1453.4219,756.7168 Q1453.0938,756.3418 1452.4844,756.123 Q1451.875,755.9043 1451.25,755.9043 Q1450.4844,755.9043 1449.8438,756.2324 Q1449.2188,756.5605 1448.7188,757.3105 Q1448.2344,758.0605 1448.2344,759.0918 L1448.2344,760.1855 Q1448.2344,761.4199 1449.125,762.248 Q1450.0156,763.0605 1451.6094,763.0605 Q1452.5469,763.0605 1453.2031,762.8105 Q1453.5938,762.6543 1454.0156,762.2168 Q1454.2813,761.9512 1454.4219,761.873 Q1454.5781,761.7949 1454.7813,761.7949 Q1455.1094,761.7949 1455.3594,762.0605 Q1455.625,762.3105 1455.625,762.6543 Q1455.625,762.998 1455.2813,763.4043 Q1454.7813,763.9824 1453.9844,764.3105 Q1452.9063,764.7637 1451.6094,764.7637 Q1450.0938,764.7637 1448.8906,764.1387 Q1447.9063,763.6387 1447.2188,762.5762 Q1446.5313,761.498 1446.5313,760.2168 L1446.5313,759.0605 Q1446.5313,757.7324 1447.1406,756.5918 Q1447.7656,755.4355 1448.8594,754.8262 Q1449.9531,754.2012 1451.1875,754.2012 Q1451.9219,754.2012 1452.5625,754.373 Q1453.2188,754.5293 1453.7656,754.8887 Z " fill="#000000"/><text fill="#000000" font-family="sans-serif" font-size="14" lengthAdjust="spacing" textLength="42" x="1465" y="764.8105">Money</text></g><!--class MonetaryAmount--><g id="elem_MonetaryAmount"><rect codeLine="35" fill="#F1F1F1" height="32" id="MonetaryAmount" rx="2.5" ry="2.5" style="stroke:#181818;stroke-width:0.5;" width="140" x="3882" y="743.0137"/><ellipse cx="3897" cy="759.0137" fill="#B4A7E5" rx="11" ry="11" style="stroke:#181818;stroke-width:1.0;"/><path d="M3897.9531,755.6543 L3897.9531,762.3105 L3899.6719,762.3105 Q3900.2813,762.3105 3900.5469,762.5449 Q3900.8125,762.7793 3900.8125,763.1699 Q3900.8125,763.5449 3900.5469,763.7793 Q3900.2813,764.0137 3899.6719,764.0137 L3894.5313,764.0137 Q3893.9219,764.0137 3893.6563,763.7793 Q3893.3906,763.5449 3893.3906,763.1543 Q3893.3906,762.7793 3893.6563,762.5449 Q3893.9219,762.3105 3894.5313,762.3105 L3896.25,762.3105 L3896.25,755.6543 L3894.5313,755.6543 Q3893.9219,755.6543 3893.6563,755.4199 Q3893.3906,755.1855 3893.3906,754.7949 Q3893.3906,754.4199 3893.6563,754.1855 Q3893.9219,753.9512 3894.5313,753.9512 L3899.6719,753.9512 Q3900.2813,753.9512 3900.5469,754.1855 Q3900.8125,754.4199 3900.8125,754.7949 Q3900.8125,755.1855 3900.5469,755.4199 Q3900.2813,755.6543 3899.6719,755.6543 L3897.9531,755.6543 Z " fill="#000000"/><text fill="#000000" font-family="sans-serif" font-size="14" font-style="italic" lengthAdjust="spacing" textLength="108" x="3911" y="764.8105">MonetaryAmount</text></g><!--class ArrayList--><g id="elem_ArrayList"><rect codeLine="39" fill="#F1F1F1" height="32" id="ArrayList" rx="2.5" ry="2.5" style="stroke:#181818;stroke-width:0.5;" width="88" x="3089" y="743.0137"/><ellipse cx="3104" cy="759.0137" fill="#ADD1B2" rx="11" ry="11" style="stroke:#181818;stroke-width:1.0;"/><path d="M3106.7656,754.8887 Q3106.9219,754.6699 3107.1094,754.5605 Q3107.2969,754.4512 3107.5156,754.4512 Q3107.8906,754.4512 3108.125,754.7168 Q3108.3594,754.9668 3108.3594,755.5762 L3108.3594,757.0293 Q3108.3594,757.6387 3108.125,757.9043 Q3107.8906,758.1699 3107.5156,758.1699 Q3107.1719,758.1699 3106.9688,757.9668 Q3106.7656,757.7793 3106.6563,757.2637 Q3106.6094,756.9043 3106.4219,756.7168 Q3106.0938,756.3418 3105.4844,756.123 Q3104.875,755.9043 3104.25,755.9043 Q3103.4844,755.9043 3102.8438,756.2324 Q3102.2188,756.5605 3101.7188,757.3105 Q3101.2344,758.0605 3101.2344,759.0918 L3101.2344,760.1855 Q3101.2344,761.4199 3102.125,762.248 Q3103.0156,763.0605 3104.6094,763.0605 Q3105.5469,763.0605 3106.2031,762.8105 Q3106.5938,762.6543 3107.0156,762.2168 Q3107.2813,761.9512 3107.4219,761.873 Q3107.5781,761.7949 3107.7813,761.7949 Q3108.1094,761.7949 3108.3594,762.0605 Q3108.625,762.3105 3108.625,762.6543 Q3108.625,762.998 3108.2813,763.4043 Q3107.7813,763.9824 3106.9844,764.3105 Q3105.9063,764.7637 3104.6094,764.7637 Q3103.0938,764.7637 3101.8906,764.1387 Q3100.9063,763.6387 3100.2188,762.5762 Q3099.5313,761.498 3099.5313,760.2168 L3099.5313,759.0605 Q3099.5313,757.7324 3100.1406,756.5918 Q3100.7656,755.4355 3101.8594,754.8262 Q3102.9531,754.2012 3104.1875,754.2012 Q3104.9219,754.2012 3105.5625,754.373 Q3106.2188,754.5293 3106.7656,754.8887 Z " fill="#000000"/><text fill="#000000" font-family="sans-serif" font-size="14" lengthAdjust="spacing" textLength="56" x="3118" y="764.8105">ArrayList</text></g><!--class Iterator--><g id="elem_Iterator"><rect codeLine="40" fill="#F1F1F1" height="32" id="Iterator" rx="2.5" ry="2.5" style="stroke:#181818;stroke-width:0.5;" width="78" x="3301" y="743.0137"/><ellipse cx="3316" cy="759.0137" fill="#B4A7E5" rx="11" ry="11" style="stroke:#181818;stroke-width:1.0;"/><path d="M3316.9531,755.6543 L3316.9531,762.3105 L3318.6719,762.3105 Q3319.2813,762.3105 3319.5469,762.5449 Q3319.8125,762.7793 3319.8125,763.1699 Q3319.8125,763.5449 3319.5469,763.7793 Q3319.2813,764.0137 3318.6719,764.0137 L3313.5313,764.0137 Q3312.9219,764.0137 3312.6563,763.7793 Q3312.3906,763.5449 3312.3906,763.1543 Q3312.3906,762.7793 3312.6563,762.5449 Q3312.9219,762.3105 3313.5313,762.3105 L3315.25,762.3105 L3315.25,755.6543 L3313.5313,755.6543 Q3312.9219,755.6543 3312.6563,755.4199 Q3312.3906,755.1855 3312.3906,754.7949 Q3312.3906,754.4199 3312.6563,754.1855 Q3312.9219,753.9512 3313.5313,753.9512 L3318.6719,753.9512 Q3319.2813,753.9512 3319.5469,754.1855 Q3319.8125,754.4199 3319.8125,754.7949 Q3319.8125,755.1855 3319.5469,755.4199 Q3319.2813,755.6543 3318.6719,755.6543 L3316.9531,755.6543 Z " fill="#000000"/><text fill="#000000" font-family="sans-serif" font-size="14" font-style="italic" lengthAdjust="spacing" textLength="46" x="3330" y="764.8105">Iterator</text></g><!--class List--><g id="elem_List"><rect codeLine="41" fill="#F1F1F1" height="32" id="List" rx="2.5" ry="2.5" style="stroke:#181818;stroke-width:0.5;" width="54" x="3212" y="743.0137"/><ellipse cx="3227" cy="759.0137" fill="#B4A7E5" rx="11" ry="11" style="stroke:#181818;stroke-width:1.0;"/><path d="M3227.9531,755.6543 L3227.9531,762.3105 L3229.6719,762.3105 Q3230.2813,762.3105 3230.5469,762.5449 Q3230.8125,762.7793 3230.8125,763.1699 Q3230.8125,763.5449 3230.5469,763.7793 Q3230.2813,764.0137 3229.6719,764.0137 L3224.5313,764.0137 Q3223.9219,764.0137 3223.6563,763.7793 Q3223.3906,763.5449 3223.3906,763.1543 Q3223.3906,762.7793 3223.6563,762.5449 Q3223.9219,762.3105 3224.5313,762.3105 L3226.25,762.3105 L3226.25,755.6543 L3224.5313,755.6543 Q3223.9219,755.6543 3223.6563,755.4199 Q3223.3906,755.1855 3223.3906,754.7949 Q3223.3906,754.4199 3223.6563,754.1855 Q3223.9219,753.9512 3224.5313,753.9512 L3229.6719,753.9512 Q3230.2813,753.9512 3230.5469,754.1855 Q3230.8125,754.4199 3230.8125,754.7949 Q3230.8125,755.1855 3230.5469,755.4199 Q3230.2813,755.6543 3229.6719,755.6543 L3227.9531,755.6543 Z " fill="#000000"/><text fill="#000000" font-family="sans-serif" font-size="14" font-style="italic" lengthAdjust="spacing" textLength="22" x="3241" y="764.8105">List</text></g><!--class Collectors--><g id="elem_Collectors"><rect codeLine="45" fill="#F1F1F1" height="32" id="Collectors" rx="2.5" ry="2.5" style="stroke:#181818;stroke-width:0.5;" width="95" x="3414.5" y="743.0137"/><ellipse cx="3429.5" cy="759.0137" fill="#ADD1B2" rx="11" ry="11" style="stroke:#181818;stroke-width:1.0;"/><path d="M3432.2656,754.8887 Q3432.4219,754.6699 3432.6094,754.5605 Q3432.7969,754.4512 3433.0156,754.4512 Q3433.3906,754.4512 3433.625,754.7168 Q3433.8594,754.9668 3433.8594,755.5762 L3433.8594,757.0293 Q3433.8594,757.6387 3433.625,757.9043 Q3433.3906,758.1699 3433.0156,758.1699 Q3432.6719,758.1699 3432.4688,757.9668 Q3432.2656,757.7793 3432.1563,757.2637 Q3432.1094,756.9043 3431.9219,756.7168 Q3431.5938,756.3418 3430.9844,756.123 Q3430.375,755.9043 3429.75,755.9043 Q3428.9844,755.9043 3428.3438,756.2324 Q3427.7188,756.5605 3427.2188,757.3105 Q3426.7344,758.0605 3426.7344,759.0918 L3426.7344,760.1855 Q3426.7344,761.4199 3427.625,762.248 Q3428.5156,763.0605 3430.1094,763.0605 Q3431.0469,763.0605 3431.7031,762.8105 Q3432.0938,762.6543 3432.5156,762.2168 Q3432.7813,761.9512 3432.9219,761.873 Q3433.0781,761.7949 3433.2813,761.7949 Q3433.6094,761.7949 3433.8594,762.0605 Q3434.125,762.3105 3434.125,762.6543 Q3434.125,762.998 3433.7813,763.4043 Q3433.2813,763.9824 3432.4844,764.3105 Q3431.4063,764.7637 3430.1094,764.7637 Q3428.5938,764.7637 3427.3906,764.1387 Q3426.4063,763.6387 3425.7188,762.5762 Q3425.0313,761.498 3425.0313,760.2168 L3425.0313,759.0605 Q3425.0313,757.7324 3425.6406,756.5918 Q3426.2656,755.4355 3427.3594,754.8262 Q3428.4531,754.2012 3429.6875,754.2012 Q3430.4219,754.2012 3431.0625,754.373 Q3431.7188,754.5293 3432.2656,754.8887 Z " fill="#000000"/><text fill="#000000" font-family="sans-serif" font-size="14" lengthAdjust="spacing" textLength="63" x="3443.5" y="764.8105">Collectors</text></g><!--class Reservation--><g id="elem_Reservation"><rect codeLine="49" fill="#F1F1F1" height="32" id="Reservation" rx="2.5" ry="2.5" style="stroke:#181818;stroke-width:0.5;" width="108" x="2796" y="743.0137"/><ellipse cx="2811" cy="759.0137" fill="#ADD1B2" rx="11" ry="11" style="stroke:#181818;stroke-width:1.0;"/><path d="M2813.7656,754.8887 Q2813.9219,754.6699 2814.1094,754.5605 Q2814.2969,754.4512 2814.5156,754.4512 Q2814.8906,754.4512 2815.125,754.7168 Q2815.3594,754.9668 2815.3594,755.5762 L2815.3594,757.0293 Q2815.3594,757.6387 2815.125,757.9043 Q2814.8906,758.1699 2814.5156,758.1699 Q2814.1719,758.1699 2813.9688,757.9668 Q2813.7656,757.7793 2813.6563,757.2637 Q2813.6094,756.9043 2813.4219,756.7168 Q2813.0938,756.3418 2812.4844,756.123 Q2811.875,755.9043 2811.25,755.9043 Q2810.4844,755.9043 2809.8438,756.2324 Q2809.2188,756.5605 2808.7188,757.3105 Q2808.2344,758.0605 2808.2344,759.0918 L2808.2344,760.1855 Q2808.2344,761.4199 2809.125,762.248 Q2810.0156,763.0605 2811.6094,763.0605 Q2812.5469,763.0605 2813.2031,762.8105 Q2813.5938,762.6543 2814.0156,762.2168 Q2814.2813,761.9512 2814.4219,761.873 Q2814.5781,761.7949 2814.7813,761.7949 Q2815.1094,761.7949 2815.3594,762.0605 Q2815.625,762.3105 2815.625,762.6543 Q2815.625,762.998 2815.2813,763.4043 Q2814.7813,763.9824 2813.9844,764.3105 Q2812.9063,764.7637 2811.6094,764.7637 Q2810.0938,764.7637 2808.8906,764.1387 Q2807.9063,763.6387 2807.2188,762.5762 Q2806.5313,761.498 2806.5313,760.2168 L2806.5313,759.0605 Q2806.5313,757.7324 2807.1406,756.5918 Q2807.7656,755.4355 2808.8594,754.8262 Q2809.9531,754.2012 2811.1875,754.2012 Q2811.9219,754.2012 2812.5625,754.373 Q2813.2188,754.5293 2813.7656,754.8887 Z " fill="#000000"/><text fill="#000000" font-family="sans-serif" font-size="14" lengthAdjust="spacing" textLength="76" x="2825" y="764.8105">Reservation</text></g><!--class ReservationEntry--><g id="elem_ReservationEntry"><rect codeLine="50" fill="#F1F1F1" height="32" id="ReservationEntry" rx="2.5" ry="2.5" style="stroke:#181818;stroke-width:0.5;" width="141" x="2619.5" y="743.0137"/><ellipse cx="2634.5" cy="759.0137" fill="#ADD1B2" rx="11" ry="11" style="stroke:#181818;stroke-width:1.0;"/><path d="M2637.2656,754.8887 Q2637.4219,754.6699 2637.6094,754.5605 Q2637.7969,754.4512 2638.0156,754.4512 Q2638.3906,754.4512 2638.625,754.7168 Q2638.8594,754.9668 2638.8594,755.5762 L2638.8594,757.0293 Q2638.8594,757.6387 2638.625,757.9043 Q2638.3906,758.1699 2638.0156,758.1699 Q2637.6719,758.1699 2637.4688,757.9668 Q2637.2656,757.7793 2637.1563,757.2637 Q2637.1094,756.9043 2636.9219,756.7168 Q2636.5938,756.3418 2635.9844,756.123 Q2635.375,755.9043 2634.75,755.9043 Q2633.9844,755.9043 2633.3438,756.2324 Q2632.7188,756.5605 2632.2188,757.3105 Q2631.7344,758.0605 2631.7344,759.0918 L2631.7344,760.1855 Q2631.7344,761.4199 2632.625,762.248 Q2633.5156,763.0605 2635.1094,763.0605 Q2636.0469,763.0605 2636.7031,762.8105 Q2637.0938,762.6543 2637.5156,762.2168 Q2637.7813,761.9512 2637.9219,761.873 Q2638.0781,761.7949 2638.2813,761.7949 Q2638.6094,761.7949 2638.8594,762.0605 Q2639.125,762.3105 2639.125,762.6543 Q2639.125,762.998 2638.7813,763.4043 Q2638.2813,763.9824 2637.4844,764.3105 Q2636.4063,764.7637 2635.1094,764.7637 Q2633.5938,764.7637 2632.3906,764.1387 Q2631.4063,763.6387 2630.7188,762.5762 Q2630.0313,761.498 2630.0313,760.2168 L2630.0313,759.0605 Q2630.0313,757.7324 2630.6406,756.5918 Q2631.2656,755.4355 2632.3594,754.8262 Q2633.4531,754.2012 2634.6875,754.2012 Q2635.4219,754.2012 2636.0625,754.373 Q2636.7188,754.5293 2637.2656,754.8887 Z " fill="#000000"/><text fill="#000000" font-family="sans-serif" font-size="14" lengthAdjust="spacing" textLength="109" x="2648.5" y="764.8105">ReservationEntry</text></g><!--class DetailedProduct--><g id="elem_DetailedProduct"><rect codeLine="62" fill="#F1F1F1" height="178.3477" id="DetailedProduct" rx="2.5" ry="2.5" style="stroke:#181818;stroke-width:0.5;" width="526" x="1638" y="88.0137"/><ellipse cx="1846.25" cy="104.0137" fill="#ADD1B2" rx="11" ry="11" style="stroke:#181818;stroke-width:1.0;"/><path d="M1849.0156,99.8887 Q1849.1719,99.6699 1849.3594,99.5605 Q1849.5469,99.4512 1849.7656,99.4512 Q1850.1406,99.4512 1850.375,99.7168 Q1850.6094,99.9668 1850.6094,100.5762 L1850.6094,102.0293 Q1850.6094,102.6387 1850.375,102.9043 Q1850.1406,103.1699 1849.7656,103.1699 Q1849.4219,103.1699 1849.2188,102.9668 Q1849.0156,102.7793 1848.9063,102.2637 Q1848.8594,101.9043 1848.6719,101.7168 Q1848.3438,101.3418 1847.7344,101.123 Q1847.125,100.9043 1846.5,100.9043 Q1845.7344,100.9043 1845.0938,101.2324 Q1844.4688,101.5605 1843.9688,102.3105 Q1843.4844,103.0605 1843.4844,104.0918 L1843.4844,105.1855 Q1843.4844,106.4199 1844.375,107.248 Q1845.2656,108.0605 1846.8594,108.0605 Q1847.7969,108.0605 1848.4531,107.8105 Q1848.8438,107.6543 1849.2656,107.2168 Q1849.5313,106.9512 1849.6719,106.873 Q1849.8281,106.7949 1850.0313,106.7949 Q1850.3594,106.7949 1850.6094,107.0605 Q1850.875,107.3105 1850.875,107.6543 Q1850.875,107.998 1850.5313,108.4043 Q1850.0313,108.9824 1849.2344,109.3105 Q1848.1563,109.7637 1846.8594,109.7637 Q1845.3438,109.7637 1844.1406,109.1387 Q1843.1563,108.6387 1842.4688,107.5762 Q1841.7813,106.498 1841.7813,105.2168 L1841.7813,104.0605 Q1841.7813,102.7324 1842.3906,101.5918 Q1843.0156,100.4355 1844.1094,99.8262 Q1845.2031,99.2012 1846.4375,99.2012 Q1847.1719,99.2012 1847.8125,99.373 Q1848.4688,99.5293 1849.0156,99.8887 Z " fill="#000000"/><text fill="#000000" font-family="sans-serif" font-size="14" lengthAdjust="spacing" textLength="101" x="1866.75" y="109.8105">DetailedProduct</text><line style="stroke:#181818;stroke-width:0.5;" x1="1639" x2="2163" y1="120.0137" y2="120.0137"/><text fill="#000000" font-family="sans-serif" font-size="14" lengthAdjust="spacing" textLength="117" x="1644" y="139.1211">-imagePath: String</text><text fill="#000000" font-family="sans-serif" font-size="14" lengthAdjust="spacing" textLength="80" x="1644" y="157.7422">-desc: String</text><line style="stroke:#181818;stroke-width:0.5;" x1="1639" x2="2163" y1="165.2559" y2="165.2559"/><text fill="#000000" font-family="sans-serif" font-size="14" lengthAdjust="spacing" textLength="514" x="1644" y="184.3633">+DetailedProduct(String name, Money price, String imagePath, String description)</text><text fill="#000000" font-family="sans-serif" font-size="14" lengthAdjust="spacing" textLength="150" x="1644" y="202.9844">+getImagePath(): String</text><text fill="#000000" font-family="sans-serif" font-size="14" lengthAdjust="spacing" textLength="138" x="1644" y="221.6055">+setImagePath(): void</text><text fill="#000000" font-family="sans-serif" font-size="14" lengthAdjust="spacing" textLength="115" x="1644" y="240.2266">+getDesc(): String</text><text fill="#000000" font-family="sans-serif" font-size="14" lengthAdjust="spacing" textLength="103" x="1644" y="258.8477">+setDesc(): void</text></g><!--class Cart--><g id="elem_Cart"><rect codeLine="71" fill="#F1F1F1" height="159.7266" id="Cart" rx="2.5" ry="2.5" style="stroke:#181818;stroke-width:0.5;" width="429" x="2555.5" y="326.0137"/><ellipse cx="2701.25" cy="342.0137" fill="#ADD1B2" rx="11" ry="11" style="stroke:#181818;stroke-width:1.0;"/><path d="M2704.0156,337.8887 Q2704.1719,337.6699 2704.3594,337.5605 Q2704.5469,337.4512 2704.7656,337.4512 Q2705.1406,337.4512 2705.375,337.7168 Q2705.6094,337.9668 2705.6094,338.5762 L2705.6094,340.0293 Q2705.6094,340.6387 2705.375,340.9043 Q2705.1406,341.1699 2704.7656,341.1699 Q2704.4219,341.1699 2704.2188,340.9668 Q2704.0156,340.7793 2703.9063,340.2637 Q2703.8594,339.9043 2703.6719,339.7168 Q2703.3438,339.3418 2702.7344,339.123 Q2702.125,338.9043 2701.5,338.9043 Q2700.7344,338.9043 2700.0938,339.2324 Q2699.4688,339.5605 2698.9688,340.3105 Q2698.4844,341.0605 2698.4844,342.0918 L2698.4844,343.1855 Q2698.4844,344.4199 2699.375,345.248 Q2700.2656,346.0605 2701.8594,346.0605 Q2702.7969,346.0605 2703.4531,345.8105 Q2703.8438,345.6543 2704.2656,345.2168 Q2704.5313,344.9512 2704.6719,344.873 Q2704.8281,344.7949 2705.0313,344.7949 Q2705.3594,344.7949 2705.6094,345.0605 Q2705.875,345.3105 2705.875,345.6543 Q2705.875,345.998 2705.5313,346.4043 Q2705.0313,346.9824 2704.2344,347.3105 Q2703.1563,347.7637 2701.8594,347.7637 Q2700.3438,347.7637 2699.1406,347.1387 Q2698.1563,346.6387 2697.4688,345.5762 Q2696.7813,344.498 2696.7813,343.2168 L2696.7813,342.0605 Q2696.7813,340.7324 2697.3906,339.5918 Q2698.0156,338.4355 2699.1094,337.8262 Q2700.2031,337.2012 2701.4375,337.2012 Q2702.1719,337.2012 2702.8125,337.373 Q2703.4688,337.5293 2704.0156,337.8887 Z " fill="#000000"/><text fill="#000000" font-family="sans-serif" font-size="14" lengthAdjust="spacing" textLength="27" x="2721.75" y="347.8105">Cart</text><rect fill="#FEFEFE" height="17.9609" style="stroke:#181818;stroke-width:1.0;stroke-dasharray:2.0,2.0;" width="100" x="2887.5" y="323.0137"/><text fill="#000000" font-family="sans-serif" font-size="12" font-style="italic" lengthAdjust="spacing" textLength="98" x="2888.5" y="336.9629">T extends Product</text><line style="stroke:#181818;stroke-width:0.5;" x1="2556.5" x2="2983.5" y1="358.0137" y2="358.0137"/><text fill="#000000" font-family="sans-serif" font-size="14" lengthAdjust="spacing" textLength="336" x="2561.5" y="377.1211">+reservationType: Class&lt;? extends Reservation&lt;T&gt;&gt;</text><line style="stroke:#181818;stroke-width:0.5;" x1="2556.5" x2="2983.5" y1="384.6348" y2="384.6348"/><text fill="#000000" font-family="sans-serif" font-size="14" lengthAdjust="spacing" textLength="417" x="2561.5" y="403.7422">+getReservationOfUser(UserAccount user): List&lt;Reservation&lt;T&gt;&gt;</text><text fill="#000000" font-family="sans-serif" font-size="14" lengthAdjust="spacing" textLength="277" x="2561.5" y="422.3633">+add(Reservation&lt;T&gt; reservation): boolean</text><text fill="#000000" font-family="sans-serif" font-size="14" lengthAdjust="spacing" textLength="266" x="2561.5" y="440.9844">+iterator(): Iterator&lt;ReservationEntry&lt;T&gt;&gt;</text><text fill="#000000" font-family="sans-serif" font-size="14" lengthAdjust="spacing" textLength="65" x="2561.5" y="459.6055">+size(): int</text><text fill="#000000" font-family="sans-serif" font-size="14" lengthAdjust="spacing" textLength="185" x="2561.5" y="478.2266">+getPrice(): MonetaryAmount</text></g><!--class Priced--><g id="elem_Priced"><rect codeLine="79" fill="#F1F1F1" height="58.6211" id="Priced" rx="2.5" ry="2.5" style="stroke:#181818;stroke-width:0.5;" width="206" x="2779" y="147.5137"/><ellipse cx="2857.75" cy="163.5137" fill="#B4A7E5" rx="11" ry="11" style="stroke:#181818;stroke-width:1.0;"/><path d="M2858.7031,160.1543 L2858.7031,166.8105 L2860.4219,166.8105 Q2861.0313,166.8105 2861.2969,167.0449 Q2861.5625,167.2793 2861.5625,167.6699 Q2861.5625,168.0449 2861.2969,168.2793 Q2861.0313,168.5137 2860.4219,168.5137 L2855.2813,168.5137 Q2854.6719,168.5137 2854.4063,168.2793 Q2854.1406,168.0449 2854.1406,167.6543 Q2854.1406,167.2793 2854.4063,167.0449 Q2854.6719,166.8105 2855.2813,166.8105 L2857,166.8105 L2857,160.1543 L2855.2813,160.1543 Q2854.6719,160.1543 2854.4063,159.9199 Q2854.1406,159.6855 2854.1406,159.2949 Q2854.1406,158.9199 2854.4063,158.6855 Q2854.6719,158.4512 2855.2813,158.4512 L2860.4219,158.4512 Q2861.0313,158.4512 2861.2969,158.6855 Q2861.5625,158.9199 2861.5625,159.2949 Q2861.5625,159.6855 2861.2969,159.9199 Q2861.0313,160.1543 2860.4219,160.1543 L2858.7031,160.1543 Z " fill="#000000"/><text fill="#000000" font-family="sans-serif" font-size="14" font-style="italic" lengthAdjust="spacing" textLength="40" x="2878.25" y="169.3105">Priced</text><line style="stroke:#181818;stroke-width:0.5;" x1="2780" x2="2984" y1="179.5137" y2="179.5137"/><text fill="#000000" font-family="sans-serif" font-size="14" lengthAdjust="spacing" textLength="194" x="2785" y="198.6211">+gerPriced(): MonetaryAmount</text></g><!--class Utils--><g id="elem_Utils"><rect codeLine="82" fill="#F1F1F1" height="77.2422" id="Utils" rx="2.5" ry="2.5" style="stroke:#181818;stroke-width:0.5;" width="250" x="2199" y="138.5137"/><ellipse cx="2306.75" cy="154.5137" fill="#ADD1B2" rx="11" ry="11" style="stroke:#181818;stroke-width:1.0;"/><path d="M2309.5156,150.3887 Q2309.6719,150.1699 2309.8594,150.0605 Q2310.0469,149.9512 2310.2656,149.9512 Q2310.6406,149.9512 2310.875,150.2168 Q2311.1094,150.4668 2311.1094,151.0762 L2311.1094,152.5293 Q2311.1094,153.1387 2310.875,153.4043 Q2310.6406,153.6699 2310.2656,153.6699 Q2309.9219,153.6699 2309.7188,153.4668 Q2309.5156,153.2793 2309.4063,152.7637 Q2309.3594,152.4043 2309.1719,152.2168 Q2308.8438,151.8418 2308.2344,151.623 Q2307.625,151.4043 2307,151.4043 Q2306.2344,151.4043 2305.5938,151.7324 Q2304.9688,152.0605 2304.4688,152.8105 Q2303.9844,153.5605 2303.9844,154.5918 L2303.9844,155.6855 Q2303.9844,156.9199 2304.875,157.748 Q2305.7656,158.5605 2307.3594,158.5605 Q2308.2969,158.5605 2308.9531,158.3105 Q2309.3438,158.1543 2309.7656,157.7168 Q2310.0313,157.4512 2310.1719,157.373 Q2310.3281,157.2949 2310.5313,157.2949 Q2310.8594,157.2949 2311.1094,157.5605 Q2311.375,157.8105 2311.375,158.1543 Q2311.375,158.498 2311.0313,158.9043 Q2310.5313,159.4824 2309.7344,159.8105 Q2308.6563,160.2637 2307.3594,160.2637 Q2305.8438,160.2637 2304.6406,159.6387 Q2303.6563,159.1387 2302.9688,158.0762 Q2302.2813,156.998 2302.2813,155.7168 L2302.2813,154.5605 Q2302.2813,153.2324 2302.8906,152.0918 Q2303.5156,150.9355 2304.6094,150.3262 Q2305.7031,149.7012 2306.9375,149.7012 Q2307.6719,149.7012 2308.3125,149.873 Q2308.9688,150.0293 2309.5156,150.3887 Z " fill="#000000"/><text fill="#000000" font-family="sans-serif" font-size="14" lengthAdjust="spacing" textLength="26" x="2327.25" y="160.3105">Utils</text><line style="stroke:#181818;stroke-width:0.5;" x1="2200" x2="2448" y1="170.5137" y2="170.5137"/><text fill="#000000" font-family="sans-serif" font-size="14" lengthAdjust="spacing" textLength="41" x="2205" y="189.6211">-Utils()</text><text fill="#000000" font-family="sans-serif" font-size="14" lengthAdjust="spacing" text-decoration="underline" textLength="238" x="2205" y="208.2422">+createInstance(Class&lt;T&gt; cls): &lt;T&gt; T</text></g><!--class DashboardController--><g id="elem_DashboardController"><rect codeLine="86" fill="#F1F1F1" height="58.6211" id="DashboardController" rx="2.5" ry="2.5" style="stroke:#181818;stroke-width:0.5;" width="260" x="2484" y="147.5137"/><ellipse cx="2543.75" cy="163.5137" fill="#ADD1B2" rx="11" ry="11" style="stroke:#181818;stroke-width:1.0;"/><path d="M2546.5156,159.3887 Q2546.6719,159.1699 2546.8594,159.0605 Q2547.0469,158.9512 2547.2656,158.9512 Q2547.6406,158.9512 2547.875,159.2168 Q2548.1094,159.4668 2548.1094,160.0762 L2548.1094,161.5293 Q2548.1094,162.1387 2547.875,162.4043 Q2547.6406,162.6699 2547.2656,162.6699 Q2546.9219,162.6699 2546.7188,162.4668 Q2546.5156,162.2793 2546.4063,161.7637 Q2546.3594,161.4043 2546.1719,161.2168 Q2545.8438,160.8418 2545.2344,160.623 Q2544.625,160.4043 2544,160.4043 Q2543.2344,160.4043 2542.5938,160.7324 Q2541.9688,161.0605 2541.4688,161.8105 Q2540.9844,162.5605 2540.9844,163.5918 L2540.9844,164.6855 Q2540.9844,165.9199 2541.875,166.748 Q2542.7656,167.5605 2544.3594,167.5605 Q2545.2969,167.5605 2545.9531,167.3105 Q2546.3438,167.1543 2546.7656,166.7168 Q2547.0313,166.4512 2547.1719,166.373 Q2547.3281,166.2949 2547.5313,166.2949 Q2547.8594,166.2949 2548.1094,166.5605 Q2548.375,166.8105 2548.375,167.1543 Q2548.375,167.498 2548.0313,167.9043 Q2547.5313,168.4824 2546.7344,168.8105 Q2545.6563,169.2637 2544.3594,169.2637 Q2542.8438,169.2637 2541.6406,168.6387 Q2540.6563,168.1387 2539.9688,167.0762 Q2539.2813,165.998 2539.2813,164.7168 L2539.2813,163.5605 Q2539.2813,162.2324 2539.8906,161.0918 Q2540.5156,159.9355 2541.6094,159.3262 Q2542.7031,158.7012 2543.9375,158.7012 Q2544.6719,158.7012 2545.3125,158.873 Q2545.9688,159.0293 2546.5156,159.3887 Z " fill="#000000"/><text fill="#000000" font-family="sans-serif" font-size="14" lengthAdjust="spacing" textLength="132" x="2564.25" y="169.3105">DashboardController</text><line style="stroke:#181818;stroke-width:0.5;" x1="2485" x2="2743" y1="179.5137" y2="179.5137"/><text fill="#000000" font-family="sans-serif" font-size="14" lengthAdjust="spacing" textLength="248" x="2490" y="198.6211">+sportsequipment(Model model): String</text></g><!--class StreamEx--><g id="elem_StreamEx"><rect codeLine="58" fill="#F1F1F1" height="32" id="StreamEx" rx="2.5" ry="2.5" style="stroke:#181818;stroke-width:0.5;" width="92" x="3662" y="743.0137"/><ellipse cx="3677" cy="759.0137" fill="#ADD1B2" rx="11" ry="11" style="stroke:#181818;stroke-width:1.0;"/><path d="M3679.7656,754.8887 Q3679.9219,754.6699 3680.1094,754.5605 Q3680.2969,754.4512 3680.5156,754.4512 Q3680.8906,754.4512 3681.125,754.7168 Q3681.3594,754.9668 3681.3594,755.5762 L3681.3594,757.0293 Q3681.3594,757.6387 3681.125,757.9043 Q3680.8906,758.1699 3680.5156,758.1699 Q3680.1719,758.1699 3679.9688,757.9668 Q3679.7656,757.7793 3679.6563,757.2637 Q3679.6094,756.9043 3679.4219,756.7168 Q3679.0938,756.3418 3678.4844,756.123 Q3677.875,755.9043 3677.25,755.9043 Q3676.4844,755.9043 3675.8438,756.2324 Q3675.2188,756.5605 3674.7188,757.3105 Q3674.2344,758.0605 3674.2344,759.0918 L3674.2344,760.1855 Q3674.2344,761.4199 3675.125,762.248 Q3676.0156,763.0605 3677.6094,763.0605 Q3678.5469,763.0605 3679.2031,762.8105 Q3679.5938,762.6543 3680.0156,762.2168 Q3680.2813,761.9512 3680.4219,761.873 Q3680.5781,761.7949 3680.7813,761.7949 Q3681.1094,761.7949 3681.3594,762.0605 Q3681.625,762.3105 3681.625,762.6543 Q3681.625,762.998 3681.2813,763.4043 Q3680.7813,763.9824 3679.9844,764.3105 Q3678.9063,764.7637 3677.6094,764.7637 Q3676.0938,764.7637 3674.8906,764.1387 Q3673.9063,763.6387 3673.2188,762.5762 Q3672.5313,761.498 3672.5313,760.2168 L3672.5313,759.0605 Q3672.5313,757.7324 3673.1406,756.5918 Q3673.7656,755.4355 3674.8594,754.8262 Q3675.9531,754.2012 3677.1875,754.2012 Q3677.9219,754.2012 3678.5625,754.373 Q3679.2188,754.5293 3679.7656,754.8887 Z " fill="#000000"/><text fill="#000000" font-family="sans-serif" font-size="14" lengthAdjust="spacing" textLength="60" x="3691" y="764.8105">StreamEx</text></g><!--reverse link Product to DetailedProduct--><g id="link_Product_DetailedProduct"><path d="M965,724.9837 C965,628.5837 965,148.0137 965,148.0137 C965,148.0137 1360.94,148.0137 1637.78,148.0137 " fill="none" id="Product-backto-DetailedProduct" style="stroke:#181818;stroke-width:1.0;"/><polygon fill="none" points="965,742.9837,971,724.9837,959,724.9837,965,742.9837" style="stroke:#181818;stroke-width:1.0;"/></g><!--reverse link ArrayList to Cart--><g id="link_ArrayList_Cart"><path d="M3070.75,759.0137 C3014.96,759.0137 2944.25,759.0137 2944.25,759.0137 C2944.25,759.0137 2944.25,590.2637 2944.25,486.1137 " fill="none" id="ArrayList-backto-Cart" style="stroke:#181818;stroke-width:1.0;"/><polygon fill="none" points="3088.75,759.0137,3070.75,753.0137,3070.75,765.0137,3088.75,759.0137" style="stroke:#181818;stroke-width:1.0;"/></g><!--reverse link Priced to Cart--><g id="link_Priced_Cart"><path d="M2881.75,224.9537 C2881.75,255.0137 2881.75,284.6637 2881.75,325.8037 " fill="none" id="Priced-backto-Cart" style="stroke:#181818;stroke-width:1.0;stroke-dasharray:7.0,7.0;"/><polygon fill="none" points="2881.75,206.9537,2875.75,224.9537,2887.75,224.9537,2881.75,206.9537" style="stroke:#181818;stroke-width:1.0;"/></g><!--link Cart to Reservation--><g id="link_Cart_Reservation"><path codeLine="92" d="M2850,486.1137 C2850,570.7337 2850,692.0037 2850,736.7537 " fill="none" id="Cart-to-Reservation" style="stroke:#181818;stroke-width:1.0;stroke-dasharray:7.0,7.0;"/><polygon fill="#181818" points="2850,742.7537,2854,733.7537,2850,737.7537,2846,733.7537,2850,742.7537" style="stroke:#181818;stroke-width:1.0;"/><text fill="#000000" font-family="sans-serif" font-size="13" lengthAdjust="spacing" textLength="35" x="2814" y="610.462">&#171;use&#187;</text></g><!--link Cart to ReservationEntry--><g id="link_Cart_ReservationEntry"><path codeLine="93" d="M2690,486.1137 C2690,570.7337 2690,692.0037 2690,736.7537 " fill="none" id="Cart-to-ReservationEntry" style="stroke:#181818;stroke-width:1.0;stroke-dasharray:7.0,7.0;"/><polygon fill="#181818" points="2690,742.7537,2694,733.7537,2690,737.7537,2686,733.7537,2690,742.7537" style="stroke:#181818;stroke-width:1.0;"/><text fill="#000000" font-family="sans-serif" font-size="13" lengthAdjust="spacing" textLength="35" x="2654" y="610.462">&#171;use&#187;</text></g><!--link Cart to MonetaryAmount--><g id="link_Cart_MonetaryAmount"><path codeLine="94" d="M2984.54,353.0137 C3319.48,353.0137 3928.67,353.0137 3928.67,353.0137 C3928.67,353.0137 3928.67,661.3337 3928.67,736.8437 " fill="none" id="Cart-to-MonetaryAmount" style="stroke:#181818;stroke-width:1.0;stroke-dasharray:7.0,7.0;"/><polygon fill="#181818" points="3928.67,742.8437,3932.67,733.8437,3928.67,737.8437,3924.67,733.8437,3928.67,742.8437" style="stroke:#181818;stroke-width:1.0;"/><text fill="#000000" font-family="sans-serif" font-size="13" lengthAdjust="spacing" textLength="35" x="3615.52" y="349.042">&#171;use&#187;</text></g><!--link Cart to Iterator--><g id="link_Cart_Iterator"><path codeLine="95" d="M2984.68,433.0137 C3146.26,433.0137 3340,433.0137 3340,433.0137 C3340,433.0137 3340,671.0637 3340,736.8437 " fill="none" id="Cart-to-Iterator" style="stroke:#181818;stroke-width:1.0;stroke-dasharray:7.0,7.0;"/><polygon fill="#181818" points="3340,742.8437,3344,733.8437,3340,737.8437,3336,733.8437,3340,742.8437" style="stroke:#181818;stroke-width:1.0;"/><text fill="#000000" font-family="sans-serif" font-size="13" lengthAdjust="spacing" textLength="35" x="3281.26" y="429.042">&#171;use&#187;</text></g><!--link Cart to List--><g id="link_Cart_List"><path codeLine="96" d="M2984.6,460.0137 C3108.09,460.0137 3239,460.0137 3239,460.0137 C3239,460.0137 3239,674.8337 3239,736.9337 " fill="none" id="Cart-to-List" style="stroke:#181818;stroke-width:1.0;stroke-dasharray:7.0,7.0;"/><polygon fill="#181818" points="3239,742.9337,3243,733.9337,3239,737.9337,3235,733.9337,3239,742.9337" style="stroke:#181818;stroke-width:1.0;"/><text fill="#000000" font-family="sans-serif" font-size="13" lengthAdjust="spacing" textLength="35" x="3203" y="470.302">&#171;use&#187;</text></g><!--link Cart to Collectors--><g id="link_Cart_Collectors"><path codeLine="97" d="M2984.69,406.0137 C3187.87,406.0137 3462,406.0137 3462,406.0137 C3462,406.0137 3462,667.8737 3462,736.9337 " fill="none" id="Cart-to-Collectors" style="stroke:#181818;stroke-width:1.0;stroke-dasharray:7.0,7.0;"/><polygon fill="#181818" points="3462,742.9337,3466,733.9337,3462,737.9337,3458,733.9337,3462,742.9337" style="stroke:#181818;stroke-width:1.0;"/><text fill="#000000" font-family="sans-serif" font-size="13" lengthAdjust="spacing" textLength="35" x="3355.8" y="402.042">&#171;use&#187;</text></g><!--link Cart to UserAccount--><g id="link_Cart_UserAccount"><path codeLine="98" d="M2555.15,433.0137 C2141.73,433.0137 1276,433.0137 1276,433.0137 C1276,433.0137 1276,671.0637 1276,736.8437 " fill="none" id="Cart-to-UserAccount" style="stroke:#181818;stroke-width:1.0;stroke-dasharray:7.0,7.0;"/><polygon fill="#181818" points="1276,742.8437,1280,733.8437,1276,737.8437,1272,733.8437,1276,742.8437" style="stroke:#181818;stroke-width:1.0;"/><text fill="#000000" font-family="sans-serif" font-size="13" lengthAdjust="spacing" textLength="35" x="1724.66" y="429.042">&#171;use&#187;</text></g><!--link Cart to Currencies--><g id="link_Cart_Currencies"><path codeLine="99" d="M2555.5,380.0137 C2107.36,380.0137 1113,380.0137 1113,380.0137 C1113,380.0137 1113,664.1837 1113,736.7237 " fill="none" id="Cart-to-Currencies" style="stroke:#181818;stroke-width:1.0;stroke-dasharray:7.0,7.0;"/><polygon fill="#181818" points="1113,742.7237,1117,733.7237,1113,737.7237,1109,733.7237,1113,742.7237" style="stroke:#181818;stroke-width:1.0;"/><text fill="#000000" font-family="sans-serif" font-size="13" lengthAdjust="spacing" textLength="35" x="1616.89" y="376.042">&#171;use&#187;</text></g><!--link Cart to StreamEx--><g id="link_Cart_StreamEx"><path codeLine="100" d="M2984.61,380.0137 C3261.49,380.0137 3708,380.0137 3708,380.0137 C3708,380.0137 3708,664.1837 3708,736.7237 " fill="none" id="Cart-to-StreamEx" style="stroke:#181818;stroke-width:1.0;stroke-dasharray:7.0,7.0;"/><polygon fill="#181818" points="3708,742.7237,3712,733.7237,3708,737.7237,3704,733.7237,3708,742.7237" style="stroke:#181818;stroke-width:1.0;"/><text fill="#000000" font-family="sans-serif" font-size="13" lengthAdjust="spacing" textLength="35" x="3491.66" y="376.042">&#171;use&#187;</text></g><!--link Cart to Money--><g id="link_Cart_Money"><path codeLine="101" d="M2587.5,486.1137 C2587.5,590.2637 2587.5,759.0137 2587.5,759.0137 C2587.5,759.0137 1709.46,759.0137 1516.08,759.0137 " fill="none" id="Cart-to-Money" style="stroke:#181818;stroke-width:1.0;stroke-dasharray:7.0,7.0;"/><polygon fill="#181818" points="1510.08,759.0137,1519.08,763.0137,1515.08,759.0137,1519.08,755.0137,1510.08,759.0137" style="stroke:#181818;stroke-width:1.0;"/><text fill="#000000" font-family="sans-serif" font-size="13" lengthAdjust="spacing" textLength="35" x="2149.24" y="755.042">&#171;use&#187;</text></g><!--link Priced to MonetaryAmount--><g id="link_Priced_MonetaryAmount"><path codeLine="103" d="M2985.35,177.0137 C3257.89,177.0137 3975.33,177.0137 3975.33,177.0137 C3975.33,177.0137 3975.33,642.8437 3975.33,736.8437 " fill="none" id="Priced-to-MonetaryAmount" style="stroke:#181818;stroke-width:1.0;stroke-dasharray:7.0,7.0;"/><polygon fill="#181818" points="3975.33,742.8437,3979.33,733.8437,3975.33,737.8437,3971.33,733.8437,3975.33,742.8437" style="stroke:#181818;stroke-width:1.0;"/><text fill="#000000" font-family="sans-serif" font-size="13" lengthAdjust="spacing" textLength="35" x="3727.26" y="173.042">&#171;use&#187;</text></g><!--link DetailedProduct to Money--><g id="link_DetailedProduct_Money"><path codeLine="105" d="M1637.86,207.0137 C1549.53,207.0137 1473,207.0137 1473,207.0137 C1473,207.0137 1473,645.6137 1473,736.7937 " fill="none" id="DetailedProduct-to-Money" style="stroke:#181818;stroke-width:1.0;stroke-dasharray:7.0,7.0;"/><polygon fill="#181818" points="1473,742.7937,1477,733.7937,1473,737.7937,1469,733.7937,1473,742.7937" style="stroke:#181818;stroke-width:1.0;"/><text fill="#000000" font-family="sans-serif" font-size="13" lengthAdjust="spacing" textLength="35" x="1437" y="388.502">&#171;use&#187;</text></g><!--link DashboardController to Model--><g id="link_DashboardController_Model"><path codeLine="107" d="M2526.9,206.6337 C2526.9,243.6037 2526.9,302.0137 2526.9,302.0137 C2526.9,302.0137 522,302.0137 522,302.0137 C522,302.0137 522,655.3437 522,736.7537 " fill="none" id="DashboardController-to-Model" style="stroke:#181818;stroke-width:1.0;stroke-dasharray:7.0,7.0;"/><polygon fill="#181818" points="522,742.7537,526,733.7537,522,737.7537,518,733.7537,522,742.7537" style="stroke:#181818;stroke-width:1.0;"/><text fill="#000000" font-family="sans-serif" font-size="13" lengthAdjust="spacing" textLength="35" x="1315.77" y="298.042">&#171;use&#187;</text></g><!--link DashboardController to Controller--><g id="link_DashboardController_Controller"><path codeLine="108" d="M2512.6,206.7037 C2512.6,240.1837 2512.6,290.0137 2512.6,290.0137 C2512.6,290.0137 383,290.0137 383,290.0137 C383,290.0137 383,654.4037 383,736.8737 " fill="none" id="DashboardController-to-Controller" style="stroke:#181818;stroke-width:1.0;stroke-dasharray:7.0,7.0;"/><polygon fill="#181818" points="383,742.8737,387,733.8737,383,737.8737,379,733.8737,383,742.8737" style="stroke:#181818;stroke-width:1.0;"/><text fill="#000000" font-family="sans-serif" font-size="13" lengthAdjust="spacing" textLength="35" x="1227.03" y="286.042">&#171;use&#187;</text></g><!--link DashboardController to PreAuthorize--><g id="link_DashboardController_PreAuthorize"><path codeLine="109" d="M2498.3,206.7737 C2498.3,236.5637 2498.3,278.0137 2498.3,278.0137 C2498.3,278.0137 175,278.0137 175,278.0137 C175,278.0137 175,653.5537 175,737.0137 " fill="none" id="DashboardController-to-PreAuthorize" style="stroke:#181818;stroke-width:1.0;stroke-dasharray:7.0,7.0;"/><polygon fill="#181818" points="175,743.0137,179,734.0137,175,738.0137,171,734.0137,175,743.0137" style="stroke:#181818;stroke-width:1.0;"/><text fill="#000000" font-family="sans-serif" font-size="13" lengthAdjust="spacing" textLength="35" x="1103.77" y="274.042">&#171;use&#187;</text></g><!--link DashboardController to GetMapping--><g id="link_DashboardController_GetMapping"><path codeLine="110" d="M2541.2,206.7437 C2541.2,247.0337 2541.2,314.0137 2541.2,314.0137 C2541.2,314.0137 717,314.0137 717,314.0137 C717,314.0137 717,657.1337 717,736.9137 " fill="none" id="DashboardController-to-GetMapping" style="stroke:#181818;stroke-width:1.0;stroke-dasharray:7.0,7.0;"/><polygon fill="#181818" points="717,742.9137,721,733.9137,717,737.9137,713,733.9137,717,742.9137" style="stroke:#181818;stroke-width:1.0;"/><text fill="#000000" font-family="sans-serif" font-size="13" lengthAdjust="spacing" textLength="35" x="1432.29" y="310.042">&#171;use&#187;</text></g><!--SRC=[ZLPTJzim57tlhx2qboAsQC-ewbGAcv26XaRt0rpdDlLmxEpQWGR4VzzrFXmdX9OYLSdrESVtk-nb2WpombLi9q6bThRlBJculI6JVP2wuCXp9XItTkKSoctfu4OOVI-VWNsD84fgS5K1p22neuDBBXuoDALErqOPP9- -N_k_sQoW0vvvGfRO0gNETeI79uCFYGLHedHLmeK0QvC2eJ3MlSoaTe0xBe3T8QnAkWh9azdhSJNYWAczYnNMHZiqIW4I_wX0AGV4MvE2EiLvWcsobJfDkDR6SIUD7eZy07VBYu8uRvIu0biOWaOUM43A1QNHaKfT3_Q7RAl6zX49mHrN9WlqEpHfAJv6DJXANOa8MaYmCVqlV-I793SQgb6-g3SuLgjyxAjd9AMJAdYrGkJLJsbTnB-X1-uCHgOQCIL4nKRWUIUtzlKLn1quAdZk4ryexfuJ1ChZOrsWZlMxDxsrN5FNLEEi-VlhmElm7G_n-DY7Q0snet08qFlQS7rurrDFimHdz6aeLtILL92sjMHmSA1JUwe7aXRVI7sHELrrnzt-mllWEx8sfs35m78-kcxUd35Dyf-RI1bDWQ2NzYGe1uiNHLduH9ureXcucmusFnjUQ4TdZqQcWNL5KXE4pXomhr72rXpTOXFor0Qo38Q-Zq8ZKX25WXoqytYABctITXurpePsomLR-oiMtu9Or3IBpN8P78_iltP-YkVHA3C_wkI-ltengS3JT3uyO94hHDqQeu3h1YtRuV4fwGPfCMxdNjpIElLGQflWRnsrDuu6kKzkl9QZ36M0pVjHShlDV7Et3La_pzl-UB5-UufN9cWywDT7qxicVvfiK_12MPBtJvitgbVSxhU6Ozel-zOt6Wrq5lwLil2rdTTBdUN-UzXJZPmVIjyyB4cMSM7fuWLLZD8tTLedTm8opCK4eAlKn95lZ0bpl-ac3gF-cgA6RJvns6sbTwA8efirjJuQu6oyiQPq9ehMugWuFUuzMFzw6Xl_5t4QtVzczzZ_]--></g></svg>