<?xml version="1.0" encoding="us-ascii" standalone="no"?><svg xmlns="http://www.w3.org/2000/svg" xmlns:xlink="http://www.w3.org/1999/xlink" contentStyleType="text/css" height="560px" preserveAspectRatio="none" style="width:2051px;height:560px;background:#FEFEFE;" version="1.1" viewBox="0 0 2051 560" width="2051px" zoomAndPan="magnify"><defs/><g><rect fill="#FEFEFE" height="560" style="stroke:none;stroke-width:1.0;" width="2051" x="0" y="0"/><!--cluster campingplatz--><g id="cluster_campingplatz"><rect fill="none" height="547" rx="2.5" ry="2.5" style="stroke:#000000;stroke-width:1.5;" width="1611" x="7" y="7"/><path d="M109,7 L109,18.6211 L99,28.6211 L7,28.6211 " fill="none" style="stroke:#000000;stroke-width:1.5;"/><text fill="#000000" font-family="sans-serif" font-size="14" font-weight="bold" lengthAdjust="spacing" textLength="92" x="10" y="23.1074">campingplatz</text></g><!--cluster utils--><g id="cluster_utils"><rect fill="none" height="478" rx="2.5" ry="2.5" style="stroke:#000000;stroke-width:1.5;" width="1563" x="31" y="52"/><path d="M71,52 L71,63.6211 L61,73.6211 L31,73.6211 " fill="none" style="stroke:#000000;stroke-width:1.5;"/><text fill="#000000" font-family="sans-serif" font-size="14" font-weight="bold" lengthAdjust="spacing" textLength="30" x="34" y="68.1074">utils</text></g><!--cluster org--><g id="cluster_org"><rect fill="none" height="223" rx="2.5" ry="2.5" style="stroke:#000000;stroke-width:1.5;" width="211" x="1642" y="313"/><path d="M1676,313 L1676,324.6211 L1666,334.6211 L1642,334.6211 " fill="none" style="stroke:#000000;stroke-width:1.5;"/><text fill="#000000" font-family="sans-serif" font-size="14" font-weight="bold" lengthAdjust="spacing" textLength="24" x="1645" y="329.1074">org</text></g><!--cluster salespointframework--><g id="cluster_salespointframework"><rect fill="none" height="154" rx="2.5" ry="2.5" style="stroke:#000000;stroke-width:1.5;" width="163" x="1666" y="358"/><path d="M1823,358 L1823,369.6211 L1813,379.6211 L1666,379.6211 " fill="none" style="stroke:#000000;stroke-width:1.5;"/><text fill="#000000" font-family="sans-serif" font-size="14" font-weight="bold" lengthAdjust="spacing" textLength="147" x="1669" y="374.1074">salespointframework</text></g><!--cluster catalog--><g id="cluster_catalog"><rect fill="none" height="85" rx="2.5" ry="2.5" style="stroke:#000000;stroke-width:1.5;" width="114" x="1690" y="403"/><path d="M1751,403 L1751,414.6211 L1741,424.6211 L1690,424.6211 " fill="none" style="stroke:#000000;stroke-width:1.5;"/><text fill="#000000" font-family="sans-serif" font-size="14" font-weight="bold" lengthAdjust="spacing" textLength="51" x="1693" y="419.1074">catalog</text></g><!--cluster java--><g id="cluster_java"><rect fill="none" height="154" rx="2.5" ry="2.5" style="stroke:#000000;stroke-width:1.5;" width="168" x="1877" y="358"/><path d="M1916,358 L1916,369.6211 L1906,379.6211 L1877,379.6211 " fill="none" style="stroke:#000000;stroke-width:1.5;"/><text fill="#000000" font-family="sans-serif" font-size="14" font-weight="bold" lengthAdjust="spacing" textLength="29" x="1880" y="374.1074">java</text></g><!--cluster util--><g id="cluster_util"><rect fill="none" height="85" rx="2.5" ry="2.5" style="stroke:#000000;stroke-width:1.5;" width="120" x="1901" y="403"/><path d="M1933,403 L1933,414.6211 L1923,424.6211 L1901,424.6211 " fill="none" style="stroke:#000000;stroke-width:1.5;"/><text fill="#000000" font-family="sans-serif" font-size="14" font-weight="bold" lengthAdjust="spacing" textLength="22" x="1904" y="419.1074">util</text></g><!--class DetailedProduct--><g id="elem_DetailedProduct"><rect codeLine="10" fill="#F1F1F1" height="178.3477" id="DetailedProduct" rx="2.5" ry="2.5" style="stroke:#181818;stroke-width:0.5;" width="526" x="1052" y="104"/><ellipse cx="1260.25" cy="120" fill="#ADD1B2" rx="11" ry="11" style="stroke:#181818;stroke-width:1.0;"/><path d="M1263.0156,115.875 Q1263.1719,115.6563 1263.3594,115.5469 Q1263.5469,115.4375 1263.7656,115.4375 Q1264.1406,115.4375 1264.375,115.7031 Q1264.6094,115.9531 1264.6094,116.5625 L1264.6094,118.0156 Q1264.6094,118.625 1264.375,118.8906 Q1264.1406,119.1563 1263.7656,119.1563 Q1263.4219,119.1563 1263.2188,118.9531 Q1263.0156,118.7656 1262.9063,118.25 Q1262.8594,117.8906 1262.6719,117.7031 Q1262.3438,117.3281 1261.7344,117.1094 Q1261.125,116.8906 1260.5,116.8906 Q1259.7344,116.8906 1259.0938,117.2188 Q1258.4688,117.5469 1257.9688,118.2969 Q1257.4844,119.0469 1257.4844,120.0781 L1257.4844,121.1719 Q1257.4844,122.4063 1258.375,123.2344 Q1259.2656,124.0469 1260.8594,124.0469 Q1261.7969,124.0469 1262.4531,123.7969 Q1262.8438,123.6406 1263.2656,123.2031 Q1263.5313,122.9375 1263.6719,122.8594 Q1263.8281,122.7813 1264.0313,122.7813 Q1264.3594,122.7813 1264.6094,123.0469 Q1264.875,123.2969 1264.875,123.6406 Q1264.875,123.9844 1264.5313,124.3906 Q1264.0313,124.9688 1263.2344,125.2969 Q1262.1563,125.75 1260.8594,125.75 Q1259.3438,125.75 1258.1406,125.125 Q1257.1563,124.625 1256.4688,123.5625 Q1255.7813,122.4844 1255.7813,121.2031 L1255.7813,120.0469 Q1255.7813,118.7188 1256.3906,117.5781 Q1257.0156,116.4219 1258.1094,115.8125 Q1259.2031,115.1875 1260.4375,115.1875 Q1261.1719,115.1875 1261.8125,115.3594 Q1262.4688,115.5156 1263.0156,115.875 Z " fill="#000000"/><text fill="#000000" font-family="sans-serif" font-size="14" lengthAdjust="spacing" textLength="101" x="1280.75" y="125.7969">DetailedProduct</text><line style="stroke:#181818;stroke-width:0.5;" x1="1053" x2="1577" y1="136" y2="136"/><text fill="#000000" font-family="sans-serif" font-size="14" lengthAdjust="spacing" textLength="117" x="1058" y="155.1074">-imagePath: String</text><text fill="#000000" font-family="sans-serif" font-size="14" lengthAdjust="spacing" textLength="80" x="1058" y="173.7285">-desc: String</text><line style="stroke:#181818;stroke-width:0.5;" x1="1053" x2="1577" y1="181.2422" y2="181.2422"/><text fill="#000000" font-family="sans-serif" font-size="14" lengthAdjust="spacing" textLength="514" x="1058" y="200.3496">+DetailedProduct(String name, Money price, String imagePath, String description)</text><text fill="#000000" font-family="sans-serif" font-size="14" lengthAdjust="spacing" textLength="150" x="1058" y="218.9707">+getImagePath(): String</text><text fill="#000000" font-family="sans-serif" font-size="14" lengthAdjust="spacing" textLength="213" x="1058" y="237.5918">+setImagePath(String value): void</text><text fill="#000000" font-family="sans-serif" font-size="14" lengthAdjust="spacing" textLength="115" x="1058" y="256.2129">+getDesc(): String</text><text fill="#000000" font-family="sans-serif" font-size="14" lengthAdjust="spacing" textLength="178" x="1058" y="274.834">+setDesc(String value): void</text></g><!--class Pair--><g id="elem_Pair"><rect codeLine="19" fill="#F1F1F1" height="178.3477" id="Pair" rx="2.5" ry="2.5" style="stroke:#181818;stroke-width:0.5;" width="186" x="47" y="104"/><ellipse cx="105.75" cy="120" fill="#ADD1B2" rx="11" ry="11" style="stroke:#181818;stroke-width:1.0;"/><path d="M108.5156,115.875 Q108.6719,115.6563 108.8594,115.5469 Q109.0469,115.4375 109.2656,115.4375 Q109.6406,115.4375 109.875,115.7031 Q110.1094,115.9531 110.1094,116.5625 L110.1094,118.0156 Q110.1094,118.625 109.875,118.8906 Q109.6406,119.1563 109.2656,119.1563 Q108.9219,119.1563 108.7188,118.9531 Q108.5156,118.7656 108.4063,118.25 Q108.3594,117.8906 108.1719,117.7031 Q107.8438,117.3281 107.2344,117.1094 Q106.625,116.8906 106,116.8906 Q105.2344,116.8906 104.5938,117.2188 Q103.9688,117.5469 103.4688,118.2969 Q102.9844,119.0469 102.9844,120.0781 L102.9844,121.1719 Q102.9844,122.4063 103.875,123.2344 Q104.7656,124.0469 106.3594,124.0469 Q107.2969,124.0469 107.9531,123.7969 Q108.3438,123.6406 108.7656,123.2031 Q109.0313,122.9375 109.1719,122.8594 Q109.3281,122.7813 109.5313,122.7813 Q109.8594,122.7813 110.1094,123.0469 Q110.375,123.2969 110.375,123.6406 Q110.375,123.9844 110.0313,124.3906 Q109.5313,124.9688 108.7344,125.2969 Q107.6563,125.75 106.3594,125.75 Q104.8438,125.75 103.6406,125.125 Q102.6563,124.625 101.9688,123.5625 Q101.2813,122.4844 101.2813,121.2031 L101.2813,120.0469 Q101.2813,118.7188 101.8906,117.5781 Q102.5156,116.4219 103.6094,115.8125 Q104.7031,115.1875 105.9375,115.1875 Q106.6719,115.1875 107.3125,115.3594 Q107.9688,115.5156 108.5156,115.875 Z " fill="#000000"/><text fill="#000000" font-family="sans-serif" font-size="14" lengthAdjust="spacing" textLength="25" x="126.25" y="125.7969">Pair</text><rect fill="#FEFEFE" height="17.9609" style="stroke:#181818;stroke-width:1.0;stroke-dasharray:2.0,2.0;" width="33" x="203" y="101"/><text fill="#000000" font-family="sans-serif" font-size="12" font-style="italic" lengthAdjust="spacing" textLength="31" x="204" y="114.9492">T1,T2</text><line style="stroke:#181818;stroke-width:0.5;" x1="48" x2="232" y1="136" y2="136"/><text fill="#000000" font-family="sans-serif" font-size="14" lengthAdjust="spacing" textLength="56" x="53" y="155.1074">+first: T1</text><text fill="#000000" font-family="sans-serif" font-size="14" lengthAdjust="spacing" textLength="79" x="53" y="173.7285">+second: T2</text><line style="stroke:#181818;stroke-width:0.5;" x1="48" x2="232" y1="181.2422" y2="181.2422"/><text fill="#000000" font-family="sans-serif" font-size="14" lengthAdjust="spacing" textLength="162" x="53" y="200.3496">+Pair(T1 first, T2 second)</text><text fill="#000000" font-family="sans-serif" font-size="14" lengthAdjust="spacing" textLength="91" x="53" y="218.9707">+getFirst(): T1</text><text fill="#000000" font-family="sans-serif" font-size="14" lengthAdjust="spacing" textLength="154" x="53" y="237.5918">+setFirst(T1 value): void</text><text fill="#000000" font-family="sans-serif" font-size="14" lengthAdjust="spacing" textLength="111" x="53" y="256.2129">+getSecond(): T2</text><text fill="#000000" font-family="sans-serif" font-size="14" lengthAdjust="spacing" textLength="174" x="53" y="274.834">+setSecond(T2 value): void</text></g><!--class Priced--><g id="elem_Priced"><rect codeLine="28" fill="#F1F1F1" height="95.8633" id="Priced" rx="2.5" ry="2.5" style="stroke:#181818;stroke-width:0.5;" width="274" x="743" y="408"/><ellipse cx="855.75" cy="424" fill="#B4A7E5" rx="11" ry="11" style="stroke:#181818;stroke-width:1.0;"/><path d="M856.7031,420.6406 L856.7031,427.2969 L858.4219,427.2969 Q859.0313,427.2969 859.2969,427.5313 Q859.5625,427.7656 859.5625,428.1563 Q859.5625,428.5313 859.2969,428.7656 Q859.0313,429 858.4219,429 L853.2813,429 Q852.6719,429 852.4063,428.7656 Q852.1406,428.5313 852.1406,428.1406 Q852.1406,427.7656 852.4063,427.5313 Q852.6719,427.2969 853.2813,427.2969 L855,427.2969 L855,420.6406 L853.2813,420.6406 Q852.6719,420.6406 852.4063,420.4063 Q852.1406,420.1719 852.1406,419.7813 Q852.1406,419.4063 852.4063,419.1719 Q852.6719,418.9375 853.2813,418.9375 L858.4219,418.9375 Q859.0313,418.9375 859.2969,419.1719 Q859.5625,419.4063 859.5625,419.7813 Q859.5625,420.1719 859.2969,420.4063 Q859.0313,420.6406 858.4219,420.6406 L856.7031,420.6406 Z " fill="#000000"/><text fill="#000000" font-family="sans-serif" font-size="14" font-style="italic" lengthAdjust="spacing" textLength="40" x="876.25" y="429.7969">Priced</text><line style="stroke:#181818;stroke-width:0.5;" x1="744" x2="1016" y1="440" y2="440"/><text fill="#000000" font-family="sans-serif" font-size="14" lengthAdjust="spacing" textLength="185" x="749" y="459.1074">+getPrice(): MonetaryAmount</text><text fill="#000000" font-family="sans-serif" font-size="14" lengthAdjust="spacing" textLength="262" x="749" y="477.7285">+getPreDiscountPrice(): MonetaryAmount</text><text fill="#000000" font-family="sans-serif" font-size="14" lengthAdjust="spacing" textLength="156" x="749" y="496.3496">+hasDiscount(): Boolean</text></g><!--class Utils--><g id="elem_Utils"><rect codeLine="33" fill="#F1F1F1" height="207.5898" id="Utils" rx="2.5" ry="2.5" style="stroke:#181818;stroke-width:0.5;" width="439" x="268.5" y="89"/><ellipse cx="470.75" cy="105" fill="#ADD1B2" rx="11" ry="11" style="stroke:#181818;stroke-width:1.0;"/><path d="M473.5156,100.875 Q473.6719,100.6563 473.8594,100.5469 Q474.0469,100.4375 474.2656,100.4375 Q474.6406,100.4375 474.875,100.7031 Q475.1094,100.9531 475.1094,101.5625 L475.1094,103.0156 Q475.1094,103.625 474.875,103.8906 Q474.6406,104.1563 474.2656,104.1563 Q473.9219,104.1563 473.7188,103.9531 Q473.5156,103.7656 473.4063,103.25 Q473.3594,102.8906 473.1719,102.7031 Q472.8438,102.3281 472.2344,102.1094 Q471.625,101.8906 471,101.8906 Q470.2344,101.8906 469.5938,102.2188 Q468.9688,102.5469 468.4688,103.2969 Q467.9844,104.0469 467.9844,105.0781 L467.9844,106.1719 Q467.9844,107.4063 468.875,108.2344 Q469.7656,109.0469 471.3594,109.0469 Q472.2969,109.0469 472.9531,108.7969 Q473.3438,108.6406 473.7656,108.2031 Q474.0313,107.9375 474.1719,107.8594 Q474.3281,107.7813 474.5313,107.7813 Q474.8594,107.7813 475.1094,108.0469 Q475.375,108.2969 475.375,108.6406 Q475.375,108.9844 475.0313,109.3906 Q474.5313,109.9688 473.7344,110.2969 Q472.6563,110.75 471.3594,110.75 Q469.8438,110.75 468.6406,110.125 Q467.6563,109.625 466.9688,108.5625 Q466.2813,107.4844 466.2813,106.2031 L466.2813,105.0469 Q466.2813,103.7188 466.8906,102.5781 Q467.5156,101.4219 468.6094,100.8125 Q469.7031,100.1875 470.9375,100.1875 Q471.6719,100.1875 472.3125,100.3594 Q472.9688,100.5156 473.5156,100.875 Z " fill="#000000"/><text fill="#000000" font-family="sans-serif" font-size="14" lengthAdjust="spacing" textLength="26" x="491.25" y="110.7969">Utils</text><line style="stroke:#181818;stroke-width:0.5;" x1="269.5" x2="706.5" y1="121" y2="121"/><text fill="#000000" font-family="sans-serif" font-size="14" lengthAdjust="spacing" textLength="41" x="274.5" y="140.1074">-Utils()</text><text fill="#000000" font-family="sans-serif" font-size="14" lengthAdjust="spacing" text-decoration="underline" textLength="209" x="274.5" y="158.7285">+createInstance(Class&lt;T&gt; cls): T</text><text fill="#000000" font-family="sans-serif" font-size="14" lengthAdjust="spacing" text-decoration="underline" textLength="418" x="274.5" y="177.3496">+min(LocalDateTime first, LocalDateTime second): LocalDateTime</text><text fill="#000000" font-family="sans-serif" font-size="14" lengthAdjust="spacing" text-decoration="underline" textLength="421" x="274.5" y="195.9707">+max(LocalDateTime first, LocalDateTime second): LocalDateTime</text><text fill="#000000" font-family="sans-serif" font-size="14" lengthAdjust="spacing" text-decoration="underline" textLength="260" x="274.5" y="214.5918">+formatDate(LocalDateTime date): String</text><text fill="#000000" font-family="sans-serif" font-size="14" lengthAdjust="spacing" text-decoration="underline" textLength="291" x="274.5" y="233.2129">+formatDateTime(LocalDateTime date): String</text><text fill="#000000" font-family="sans-serif" font-size="14" lengthAdjust="spacing" text-decoration="underline" textLength="427" x="274.5" y="251.834">+unitToTemporalAmount(ChronoUnit intervalUnit): TemporalAmount</text><text fill="#000000" font-family="sans-serif" font-size="14" lengthAdjust="spacing" text-decoration="underline" textLength="216" x="274.5" y="270.4551">+clampLength(String input): String</text><text fill="#000000" font-family="sans-serif" font-size="14" lengthAdjust="spacing" text-decoration="underline" textLength="214" x="274.5" y="289.0762">+clampPrice(Money input): Money</text></g><!--class ListOfPriced--><g id="elem_ListOfPriced"><rect codeLine="44" fill="#F1F1F1" height="77.2422" id="ListOfPriced" rx="2.5" ry="2.5" style="stroke:#181818;stroke-width:0.5;" width="274" x="743" y="154.5"/><ellipse cx="789.75" cy="170.5" fill="#ADD1B2" rx="11" ry="11" style="stroke:#181818;stroke-width:1.0;"/><path d="M792.5156,166.375 Q792.6719,166.1563 792.8594,166.0469 Q793.0469,165.9375 793.2656,165.9375 Q793.6406,165.9375 793.875,166.2031 Q794.1094,166.4531 794.1094,167.0625 L794.1094,168.5156 Q794.1094,169.125 793.875,169.3906 Q793.6406,169.6563 793.2656,169.6563 Q792.9219,169.6563 792.7188,169.4531 Q792.5156,169.2656 792.4063,168.75 Q792.3594,168.3906 792.1719,168.2031 Q791.8438,167.8281 791.2344,167.6094 Q790.625,167.3906 790,167.3906 Q789.2344,167.3906 788.5938,167.7188 Q787.9688,168.0469 787.4688,168.7969 Q786.9844,169.5469 786.9844,170.5781 L786.9844,171.6719 Q786.9844,172.9063 787.875,173.7344 Q788.7656,174.5469 790.3594,174.5469 Q791.2969,174.5469 791.9531,174.2969 Q792.3438,174.1406 792.7656,173.7031 Q793.0313,173.4375 793.1719,173.3594 Q793.3281,173.2813 793.5313,173.2813 Q793.8594,173.2813 794.1094,173.5469 Q794.375,173.7969 794.375,174.1406 Q794.375,174.4844 794.0313,174.8906 Q793.5313,175.4688 792.7344,175.7969 Q791.6563,176.25 790.3594,176.25 Q788.8438,176.25 787.6406,175.625 Q786.6563,175.125 785.9688,174.0625 Q785.2813,172.9844 785.2813,171.7031 L785.2813,170.5469 Q785.2813,169.2188 785.8906,168.0781 Q786.5156,166.9219 787.6094,166.3125 Q788.7031,165.6875 789.9375,165.6875 Q790.6719,165.6875 791.3125,165.8594 Q791.9688,166.0156 792.5156,166.375 Z " fill="#000000"/><text fill="#000000" font-family="sans-serif" font-size="14" lengthAdjust="spacing" textLength="77" x="810.25" y="176.2969">ListOfPriced</text><rect fill="#FEFEFE" height="17.9609" style="stroke:#181818;stroke-width:1.0;stroke-dasharray:2.0,2.0;" width="93" x="927" y="151.5"/><text fill="#000000" font-family="sans-serif" font-size="12" font-style="italic" lengthAdjust="spacing" textLength="91" x="928" y="165.4492">T extends Priced</text><line style="stroke:#181818;stroke-width:0.5;" x1="744" x2="1016" y1="186.5" y2="186.5"/><text fill="#000000" font-family="sans-serif" font-size="14" lengthAdjust="spacing" textLength="185" x="749" y="205.6074">+getPrice(): MonetaryAmount</text><text fill="#000000" font-family="sans-serif" font-size="14" lengthAdjust="spacing" textLength="262" x="749" y="224.2285">+getPreDiscountPrice(): MonetaryAmount</text></g><!--class BusinessTimeController--><g id="elem_BusinessTimeController"><rect codeLine="48" fill="#F1F1F1" height="116.4453" id="BusinessTimeController" rx="2.5" ry="2.5" style="stroke:#181818;stroke-width:0.5;" width="429" x="47.5" y="398"/><ellipse cx="182.75" cy="420.291" fill="#ADD1B2" rx="11" ry="11" style="stroke:#181818;stroke-width:1.0;"/><path d="M185.5156,416.166 Q185.6719,415.9473 185.8594,415.8379 Q186.0469,415.7285 186.2656,415.7285 Q186.6406,415.7285 186.875,415.9941 Q187.1094,416.2441 187.1094,416.8535 L187.1094,418.3066 Q187.1094,418.916 186.875,419.1816 Q186.6406,419.4473 186.2656,419.4473 Q185.9219,419.4473 185.7188,419.2441 Q185.5156,419.0566 185.4063,418.541 Q185.3594,418.1816 185.1719,417.9941 Q184.8438,417.6191 184.2344,417.4004 Q183.625,417.1816 183,417.1816 Q182.2344,417.1816 181.5938,417.5098 Q180.9688,417.8379 180.4688,418.5879 Q179.9844,419.3379 179.9844,420.3691 L179.9844,421.4629 Q179.9844,422.6973 180.875,423.5254 Q181.7656,424.3379 183.3594,424.3379 Q184.2969,424.3379 184.9531,424.0879 Q185.3438,423.9316 185.7656,423.4941 Q186.0313,423.2285 186.1719,423.1504 Q186.3281,423.0723 186.5313,423.0723 Q186.8594,423.0723 187.1094,423.3379 Q187.375,423.5879 187.375,423.9316 Q187.375,424.2754 187.0313,424.6816 Q186.5313,425.2598 185.7344,425.5879 Q184.6563,426.041 183.3594,426.041 Q181.8438,426.041 180.6406,425.416 Q179.6563,424.916 178.9688,423.8535 Q178.2813,422.7754 178.2813,421.4941 L178.2813,420.3379 Q178.2813,419.0098 178.8906,417.8691 Q179.5156,416.7129 180.6094,416.1035 Q181.7031,415.4785 182.9375,415.4785 Q183.6719,415.4785 184.3125,415.6504 Q184.9688,415.8066 185.5156,416.166 Z " fill="#000000"/><text fill="#000000" font-family="sans-serif" font-size="12" font-style="italic" lengthAdjust="spacing" textLength="68" x="244.25" y="415.9492">&#171;Controller&#187;</text><text fill="#000000" font-family="sans-serif" font-size="14" lengthAdjust="spacing" textLength="150" x="203.25" y="434.0684">BusinessTimeController</text><line style="stroke:#181818;stroke-width:0.5;" x1="48.5" x2="475.5" y1="442.582" y2="442.582"/><text fill="#000000" font-family="sans-serif" font-size="14" lengthAdjust="spacing" textLength="188" x="53.5" y="461.6895">-businessTime: BusinessTime</text><line style="stroke:#181818;stroke-width:0.5;" x1="48.5" x2="475.5" y1="469.2031" y2="469.2031"/><text fill="#000000" font-family="sans-serif" font-size="14" lengthAdjust="spacing" textLength="347" x="53.5" y="488.3105">+BusinessTimeController(BusinessTime businessTime)</text><text fill="#000000" font-family="sans-serif" font-size="14" lengthAdjust="spacing" textLength="417" x="53.5" y="506.9316">+fTime(Model model, int days, HttpServletRequest request): String</text></g><!--class Product--><g id="elem_Product"><rect fill="#F1F1F1" height="32" id="Product" rx="2.5" ry="2.5" style="stroke:#181818;stroke-width:0.5;" width="81" x="1706.5" y="440"/><ellipse cx="1721.5" cy="456" fill="#ADD1B2" rx="11" ry="11" style="stroke:#181818;stroke-width:1.0;"/><path d="M1724.2656,451.875 Q1724.4219,451.6563 1724.6094,451.5469 Q1724.7969,451.4375 1725.0156,451.4375 Q1725.3906,451.4375 1725.625,451.7031 Q1725.8594,451.9531 1725.8594,452.5625 L1725.8594,454.0156 Q1725.8594,454.625 1725.625,454.8906 Q1725.3906,455.1563 1725.0156,455.1563 Q1724.6719,455.1563 1724.4688,454.9531 Q1724.2656,454.7656 1724.1563,454.25 Q1724.1094,453.8906 1723.9219,453.7031 Q1723.5938,453.3281 1722.9844,453.1094 Q1722.375,452.8906 1721.75,452.8906 Q1720.9844,452.8906 1720.3438,453.2188 Q1719.7188,453.5469 1719.2188,454.2969 Q1718.7344,455.0469 1718.7344,456.0781 L1718.7344,457.1719 Q1718.7344,458.4063 1719.625,459.2344 Q1720.5156,460.0469 1722.1094,460.0469 Q1723.0469,460.0469 1723.7031,459.7969 Q1724.0938,459.6406 1724.5156,459.2031 Q1724.7813,458.9375 1724.9219,458.8594 Q1725.0781,458.7813 1725.2813,458.7813 Q1725.6094,458.7813 1725.8594,459.0469 Q1726.125,459.2969 1726.125,459.6406 Q1726.125,459.9844 1725.7813,460.3906 Q1725.2813,460.9688 1724.4844,461.2969 Q1723.4063,461.75 1722.1094,461.75 Q1720.5938,461.75 1719.3906,461.125 Q1718.4063,460.625 1717.7188,459.5625 Q1717.0313,458.4844 1717.0313,457.2031 L1717.0313,456.0469 Q1717.0313,454.7188 1717.6406,453.5781 Q1718.2656,452.4219 1719.3594,451.8125 Q1720.4531,451.1875 1721.6875,451.1875 Q1722.4219,451.1875 1723.0625,451.3594 Q1723.7188,451.5156 1724.2656,451.875 Z " fill="#000000"/><text fill="#000000" font-family="sans-serif" font-size="14" lengthAdjust="spacing" textLength="49" x="1735.5" y="461.7969">Product</text></g><!--class ArrayList--><g id="elem_ArrayList"><rect fill="#F1F1F1" height="32" id="ArrayList" rx="2.5" ry="2.5" style="stroke:#181818;stroke-width:0.5;" width="88" x="1917" y="440"/><ellipse cx="1932" cy="456" fill="#ADD1B2" rx="11" ry="11" style="stroke:#181818;stroke-width:1.0;"/><path d="M1934.7656,451.875 Q1934.9219,451.6563 1935.1094,451.5469 Q1935.2969,451.4375 1935.5156,451.4375 Q1935.8906,451.4375 1936.125,451.7031 Q1936.3594,451.9531 1936.3594,452.5625 L1936.3594,454.0156 Q1936.3594,454.625 1936.125,454.8906 Q1935.8906,455.1563 1935.5156,455.1563 Q1935.1719,455.1563 1934.9688,454.9531 Q1934.7656,454.7656 1934.6563,454.25 Q1934.6094,453.8906 1934.4219,453.7031 Q1934.0938,453.3281 1933.4844,453.1094 Q1932.875,452.8906 1932.25,452.8906 Q1931.4844,452.8906 1930.8438,453.2188 Q1930.2188,453.5469 1929.7188,454.2969 Q1929.2344,455.0469 1929.2344,456.0781 L1929.2344,457.1719 Q1929.2344,458.4063 1930.125,459.2344 Q1931.0156,460.0469 1932.6094,460.0469 Q1933.5469,460.0469 1934.2031,459.7969 Q1934.5938,459.6406 1935.0156,459.2031 Q1935.2813,458.9375 1935.4219,458.8594 Q1935.5781,458.7813 1935.7813,458.7813 Q1936.1094,458.7813 1936.3594,459.0469 Q1936.625,459.2969 1936.625,459.6406 Q1936.625,459.9844 1936.2813,460.3906 Q1935.7813,460.9688 1934.9844,461.2969 Q1933.9063,461.75 1932.6094,461.75 Q1931.0938,461.75 1929.8906,461.125 Q1928.9063,460.625 1928.2188,459.5625 Q1927.5313,458.4844 1927.5313,457.2031 L1927.5313,456.0469 Q1927.5313,454.7188 1928.1406,453.5781 Q1928.7656,452.4219 1929.8594,451.8125 Q1930.9531,451.1875 1932.1875,451.1875 Q1932.9219,451.1875 1933.5625,451.3594 Q1934.2188,451.5156 1934.7656,451.875 Z " fill="#000000"/><text fill="#000000" font-family="sans-serif" font-size="14" lengthAdjust="spacing" textLength="56" x="1946" y="461.7969">ArrayList</text></g><!--link DetailedProduct to Product--><g id="link_DetailedProduct_Product"><path codeLine="56" d="M1578.12,193 C1668.32,193 1747,193 1747,193 C1747,193 1747,364.84 1747,421.94 " fill="none" id="DetailedProduct-to-Product" style="stroke:#181818;stroke-width:1.0;"/><polygon fill="none" points="1747,439.94,1753,421.94,1741,421.94,1747,439.94" style="stroke:#181818;stroke-width:1.0;"/></g><!--link ListOfPriced to ArrayList--><g id="link_ListOfPriced_ArrayList"><path codeLine="57" d="M925.67,231.62 C925.67,258.67 925.67,290 925.67,290 C925.67,290 1961,290 1961,290 C1961,290 1961,380.01 1961,421.78 " fill="none" id="ListOfPriced-to-ArrayList" style="stroke:#181818;stroke-width:1.0;"/><polygon fill="none" points="1961,439.78,1967,421.78,1955,421.78,1961,439.78" style="stroke:#181818;stroke-width:1.0;"/><text fill="#000000" font-family="sans-serif" font-size="13" lengthAdjust="spacing" textLength="70" x="1418.03" y="305.0283">&lt;bind T-&gt;T&gt;</text></g><!--link ListOfPriced to Priced--><g id="link_ListOfPriced_Priced"><path codeLine="58" d="M834.33,231.52 C834.33,278.32 834.33,339.29 834.33,390 " fill="none" id="ListOfPriced-to-Priced" style="stroke:#181818;stroke-width:1.0;stroke-dasharray:7.0,7.0;"/><polygon fill="none" points="834.33,408,840.33,390,828.33,390,834.33,408" style="stroke:#181818;stroke-width:1.0;"/></g><!--SRC=[hLLXJzim4FsUNt7IlXJHHeEFLHK9sg4XWLQjuGUOv99wE7PcNu30-Eyx9scRX39f4ctLsk_UUxRlBkvMfWXOb5H39b6bBjWUa09fQnXo3rANmee24YMSko2oyhuYl4wCtiWNXAyzYf8QgIuHZ6LrBt0faeVScagdIwECXIzNt_mx44gPfq8-Ivtts2MpHOuRgXN25ICO11q6YIXAPfTAq4jOaLGENWFWLxCzM249gJ1TMvDM2RMXcInOkXQqdSE6zy-BDN2ABXaWfoFvf8s1vYrCuTPehA6qCk595zaxxn5lQcL9qkYJrZH7kjxH9YV31Lq_rZay2bKXynwDJFSEAxOz8cxWZtHllSIiXRIB-6mQdqTjKaupQHtD8JxRcN55KvwVjtClcCHdqD2c34FBE1pgoaVydWuM7SQoeuVOD0wDv7mlwK1Uu8C3I4reCv4Wh7tkqzUzNpFtThuq96nzKN2FKI-EA-aIZ_sJkXLkn_EKIsCK2lqkXtU-tRgMQiQJBXclZWJ9v0qIYuAV3SrppSijlMmHHwnt_j0ZTY7rvCOaGgrO5Ci2TyaUWbtUvqDux2MUFyqhCxOGv8CZovG7enuy8lBK_n1MMb9iOhvsZ1MgBSjakRL6cpiEjUNdrl0JdyG1SPn_nTV33Uhyy3JnfLBHHsit_BOrsgTxnsvcxnhWHZhwaRLT28iOy9bGfwxhomW-lJFxYrzMZgzNvtn2bqQJDKgXNImEusYtWzbzZpiVADiT7FUQz67eUtHzdZMblJKfAYZyzzHNXwjRkoby9oetN2c5z1D_L-W8RFixpFvR4F1dTDF2RFOduh-DF7H2eIiD-sR-vdyozY5C10bbyh0Z1uCwDCfVub4qVmVXXRMYzeGvBEwbJY6UHN4qb8GXIzfny1S0]--></g></svg>