<?xml version="1.0" encoding="us-ascii" standalone="no"?><svg xmlns="http://www.w3.org/2000/svg" xmlns:xlink="http://www.w3.org/1999/xlink" contentStyleType="text/css" height="1135px" preserveAspectRatio="none" style="width:6591px;height:1135px;background:#FEFEFE;" version="1.1" viewBox="0 0 6591 1135" width="6591px" zoomAndPan="magnify"><defs/><g><rect fill="#FEFEFE" height="1135" style="stroke:none;stroke-width:1.0;" width="6591" x="0" y="0"/><!--cluster campingplatz--><g id="cluster_campingplatz"><rect fill="none" height="1098" rx="2.5" ry="2.5" style="stroke:#000000;stroke-width:1.5;" width="6070" x="7" y="7"/><path d="M109,7 L109,18.6211 L99,28.6211 L7,28.6211 " fill="none" style="stroke:#000000;stroke-width:1.5;"/><text fill="#000000" font-family="sans-serif" font-size="14" font-weight="bold" lengthAdjust="spacing" textLength="92" x="10" y="23.1074">campingplatz</text></g><!--cluster utils--><g id="cluster_utils"><rect fill="none" height="85" rx="2.5" ry="2.5" style="stroke:#000000;stroke-width:1.5;" width="166" x="507" y="996"/><path d="M547,996 L547,1007.6211 L537,1017.6211 L507,1017.6211 " fill="none" style="stroke:#000000;stroke-width:1.5;"/><text fill="#000000" font-family="sans-serif" font-size="14" font-weight="bold" lengthAdjust="spacing" textLength="30" x="510" y="1012.1074">utils</text></g><!--cluster reservation--><g id="cluster_reservation"><rect fill="none" height="388.5" rx="2.5" ry="2.5" style="stroke:#000000;stroke-width:1.5;" width="807" x="5246" y="411"/><path d="M5338,411 L5338,422.6211 L5328,432.6211 L5246,432.6211 " fill="none" style="stroke:#000000;stroke-width:1.5;"/><text fill="#000000" font-family="sans-serif" font-size="14" font-weight="bold" lengthAdjust="spacing" textLength="82" x="5249" y="427.1074">reservation</text></g><!--cluster plots--><g id="cluster_plots"><rect fill="none" height="830" rx="2.5" ry="2.5" style="stroke:#000000;stroke-width:1.5;" width="5191" x="31" y="52"/><path d="M76,52 L76,63.6211 L66,73.6211 L31,73.6211 " fill="none" style="stroke:#000000;stroke-width:1.5;"/><text fill="#000000" font-family="sans-serif" font-size="14" font-weight="bold" lengthAdjust="spacing" textLength="35" x="34" y="68.1074">plots</text></g><!--cluster plotReservations--><g id="cluster_plotReservations"><rect fill="none" height="404" rx="2.5" ry="2.5" style="stroke:#000000;stroke-width:1.5;" width="700" x="3797" y="121"/><path d="M3928,121 L3928,132.6211 L3918,142.6211 L3797,142.6211 " fill="none" style="stroke:#000000;stroke-width:1.5;"/><text fill="#000000" font-family="sans-serif" font-size="14" font-weight="bold" lengthAdjust="spacing" textLength="121" x="3800" y="137.1074">plotReservations</text></g><!--cluster org--><g id="cluster_org"><rect fill="none" height="223" rx="2.5" ry="2.5" style="stroke:#000000;stroke-width:1.5;" width="484" x="6101" y="906"/><path d="M6135,906 L6135,917.6211 L6125,927.6211 L6101,927.6211 " fill="none" style="stroke:#000000;stroke-width:1.5;"/><text fill="#000000" font-family="sans-serif" font-size="14" font-weight="bold" lengthAdjust="spacing" textLength="24" x="6104" y="922.1074">org</text></g><!--cluster salespointframework--><g id="cluster_salespointframework"><rect fill="none" height="154" rx="2.5" ry="2.5" style="stroke:#000000;stroke-width:1.5;" width="436" x="6125" y="951"/><path d="M6282,951 L6282,962.6211 L6272,972.6211 L6125,972.6211 " fill="none" style="stroke:#000000;stroke-width:1.5;"/><text fill="#000000" font-family="sans-serif" font-size="14" font-weight="bold" lengthAdjust="spacing" textLength="147" x="6128" y="967.1074">salespointframework</text></g><!--cluster core--><g id="cluster_core"><rect fill="none" height="85" rx="2.5" ry="2.5" style="stroke:#000000;stroke-width:1.5;" width="148" x="6389" y="996"/><path d="M6431,996 L6431,1007.6211 L6421,1017.6211 L6389,1017.6211 " fill="none" style="stroke:#000000;stroke-width:1.5;"/><text fill="#000000" font-family="sans-serif" font-size="14" font-weight="bold" lengthAdjust="spacing" textLength="32" x="6392" y="1012.1074">core</text></g><!--cluster catalog--><g id="cluster_catalog"><rect fill="none" height="85" rx="2.5" ry="2.5" style="stroke:#000000;stroke-width:1.5;" width="216" x="6149" y="996"/><path d="M6210,996 L6210,1007.6211 L6200,1017.6211 L6149,1017.6211 " fill="none" style="stroke:#000000;stroke-width:1.5;"/><text fill="#000000" font-family="sans-serif" font-size="14" font-weight="bold" lengthAdjust="spacing" textLength="51" x="6152" y="1012.1074">catalog</text></g><!--class DetailedProduct--><g id="elem_DetailedProduct"><rect codeLine="9" fill="#F1F1F1" height="32" id="DetailedProduct" rx="2.5" ry="2.5" style="stroke:#181818;stroke-width:0.5;" width="133" x="523.5" y="1033"/><ellipse cx="538.5" cy="1049" fill="#ADD1B2" rx="11" ry="11" style="stroke:#181818;stroke-width:1.0;"/><path d="M541.2656,1044.875 Q541.4219,1044.6563 541.6094,1044.5469 Q541.7969,1044.4375 542.0156,1044.4375 Q542.3906,1044.4375 542.625,1044.7031 Q542.8594,1044.9531 542.8594,1045.5625 L542.8594,1047.0156 Q542.8594,1047.625 542.625,1047.8906 Q542.3906,1048.1563 542.0156,1048.1563 Q541.6719,1048.1563 541.4688,1047.9531 Q541.2656,1047.7656 541.1563,1047.25 Q541.1094,1046.8906 540.9219,1046.7031 Q540.5938,1046.3281 539.9844,1046.1094 Q539.375,1045.8906 538.75,1045.8906 Q537.9844,1045.8906 537.3438,1046.2188 Q536.7188,1046.5469 536.2188,1047.2969 Q535.7344,1048.0469 535.7344,1049.0781 L535.7344,1050.1719 Q535.7344,1051.4063 536.625,1052.2344 Q537.5156,1053.0469 539.1094,1053.0469 Q540.0469,1053.0469 540.7031,1052.7969 Q541.0938,1052.6406 541.5156,1052.2031 Q541.7813,1051.9375 541.9219,1051.8594 Q542.0781,1051.7813 542.2813,1051.7813 Q542.6094,1051.7813 542.8594,1052.0469 Q543.125,1052.2969 543.125,1052.6406 Q543.125,1052.9844 542.7813,1053.3906 Q542.2813,1053.9688 541.4844,1054.2969 Q540.4063,1054.75 539.1094,1054.75 Q537.5938,1054.75 536.3906,1054.125 Q535.4063,1053.625 534.7188,1052.5625 Q534.0313,1051.4844 534.0313,1050.2031 L534.0313,1049.0469 Q534.0313,1047.7188 534.6406,1046.5781 Q535.2656,1045.4219 536.3594,1044.8125 Q537.4531,1044.1875 538.6875,1044.1875 Q539.4219,1044.1875 540.0625,1044.3594 Q540.7188,1044.5156 541.2656,1044.875 Z " fill="#000000"/><text fill="#000000" font-family="sans-serif" font-size="14" lengthAdjust="spacing" textLength="101" x="552.5" y="1054.7969">DetailedProduct</text></g><!--class Cart--><g id="elem_Cart"><rect codeLine="13" fill="#F1F1F1" height="32" id="Cart" rx="2.5" ry="2.5" style="stroke:#181818;stroke-width:0.5;" width="312" x="5262" y="448"/><ellipse cx="5277" cy="464" fill="#ADD1B2" rx="11" ry="11" style="stroke:#181818;stroke-width:1.0;"/><path d="M5279.7656,459.875 Q5279.9219,459.6563 5280.1094,459.5469 Q5280.2969,459.4375 5280.5156,459.4375 Q5280.8906,459.4375 5281.125,459.7031 Q5281.3594,459.9531 5281.3594,460.5625 L5281.3594,462.0156 Q5281.3594,462.625 5281.125,462.8906 Q5280.8906,463.1563 5280.5156,463.1563 Q5280.1719,463.1563 5279.9688,462.9531 Q5279.7656,462.7656 5279.6563,462.25 Q5279.6094,461.8906 5279.4219,461.7031 Q5279.0938,461.3281 5278.4844,461.1094 Q5277.875,460.8906 5277.25,460.8906 Q5276.4844,460.8906 5275.8438,461.2188 Q5275.2188,461.5469 5274.7188,462.2969 Q5274.2344,463.0469 5274.2344,464.0781 L5274.2344,465.1719 Q5274.2344,466.4063 5275.125,467.2344 Q5276.0156,468.0469 5277.6094,468.0469 Q5278.5469,468.0469 5279.2031,467.7969 Q5279.5938,467.6406 5280.0156,467.2031 Q5280.2813,466.9375 5280.4219,466.8594 Q5280.5781,466.7813 5280.7813,466.7813 Q5281.1094,466.7813 5281.3594,467.0469 Q5281.625,467.2969 5281.625,467.6406 Q5281.625,467.9844 5281.2813,468.3906 Q5280.7813,468.9688 5279.9844,469.2969 Q5278.9063,469.75 5277.6094,469.75 Q5276.0938,469.75 5274.8906,469.125 Q5273.9063,468.625 5273.2188,467.5625 Q5272.5313,466.4844 5272.5313,465.2031 L5272.5313,464.0469 Q5272.5313,462.7188 5273.1406,461.5781 Q5273.7656,460.4219 5274.8594,459.8125 Q5275.9531,459.1875 5277.1875,459.1875 Q5277.9219,459.1875 5278.5625,459.3594 Q5279.2188,459.5156 5279.7656,459.875 Z " fill="#000000"/><text fill="#000000" font-family="sans-serif" font-size="14" lengthAdjust="spacing" textLength="27" x="5291" y="469.7969">Cart</text><rect fill="#FEFEFE" height="17.9609" style="stroke:#181818;stroke-width:1.0;stroke-dasharray:2.0,2.0;" width="251" x="5326" y="445"/><text fill="#000000" font-family="sans-serif" font-size="12" font-style="italic" lengthAdjust="spacing" textLength="249" x="5327" y="458.9492">T extends Product, U extends Reservation&lt;T&gt;</text></g><!--class Reservation--><g id="elem_Reservation"><rect codeLine="14" fill="#F1F1F1" height="32" id="Reservation" rx="2.5" ry="2.5" style="stroke:#181818;stroke-width:0.5;" width="210" x="5313" y="751.5"/><ellipse cx="5328" cy="767.5" fill="#ADD1B2" rx="11" ry="11" style="stroke:#181818;stroke-width:1.0;"/><path d="M5330.7656,763.375 Q5330.9219,763.1563 5331.1094,763.0469 Q5331.2969,762.9375 5331.5156,762.9375 Q5331.8906,762.9375 5332.125,763.2031 Q5332.3594,763.4531 5332.3594,764.0625 L5332.3594,765.5156 Q5332.3594,766.125 5332.125,766.3906 Q5331.8906,766.6563 5331.5156,766.6563 Q5331.1719,766.6563 5330.9688,766.4531 Q5330.7656,766.2656 5330.6563,765.75 Q5330.6094,765.3906 5330.4219,765.2031 Q5330.0938,764.8281 5329.4844,764.6094 Q5328.875,764.3906 5328.25,764.3906 Q5327.4844,764.3906 5326.8438,764.7188 Q5326.2188,765.0469 5325.7188,765.7969 Q5325.2344,766.5469 5325.2344,767.5781 L5325.2344,768.6719 Q5325.2344,769.9063 5326.125,770.7344 Q5327.0156,771.5469 5328.6094,771.5469 Q5329.5469,771.5469 5330.2031,771.2969 Q5330.5938,771.1406 5331.0156,770.7031 Q5331.2813,770.4375 5331.4219,770.3594 Q5331.5781,770.2813 5331.7813,770.2813 Q5332.1094,770.2813 5332.3594,770.5469 Q5332.625,770.7969 5332.625,771.1406 Q5332.625,771.4844 5332.2813,771.8906 Q5331.7813,772.4688 5330.9844,772.7969 Q5329.9063,773.25 5328.6094,773.25 Q5327.0938,773.25 5325.8906,772.625 Q5324.9063,772.125 5324.2188,771.0625 Q5323.5313,769.9844 5323.5313,768.7031 L5323.5313,767.5469 Q5323.5313,766.2188 5324.1406,765.0781 Q5324.7656,763.9219 5325.8594,763.3125 Q5326.9531,762.6875 5328.1875,762.6875 Q5328.9219,762.6875 5329.5625,762.8594 Q5330.2188,763.0156 5330.7656,763.375 Z " fill="#000000"/><text fill="#000000" font-family="sans-serif" font-size="14" lengthAdjust="spacing" textLength="76" x="5342" y="773.2969">Reservation</text><rect fill="#FEFEFE" height="17.9609" style="stroke:#181818;stroke-width:1.0;stroke-dasharray:2.0,2.0;" width="100" x="5426" y="748.5"/><text fill="#000000" font-family="sans-serif" font-size="12" font-style="italic" lengthAdjust="spacing" textLength="98" x="5427" y="762.4492">T extends Product</text></g><!--class ReservationRepository--><g id="elem_ReservationRepository"><rect codeLine="15" fill="#F1F1F1" height="32" id="ReservationRepository" rx="2.5" ry="2.5" style="stroke:#181818;stroke-width:0.5;" width="428" x="5609" y="448"/><ellipse cx="5624" cy="464" fill="#B4A7E5" rx="11" ry="11" style="stroke:#181818;stroke-width:1.0;"/><path d="M5624.9531,460.6406 L5624.9531,467.2969 L5626.6719,467.2969 Q5627.2813,467.2969 5627.5469,467.5313 Q5627.8125,467.7656 5627.8125,468.1563 Q5627.8125,468.5313 5627.5469,468.7656 Q5627.2813,469 5626.6719,469 L5621.5313,469 Q5620.9219,469 5620.6563,468.7656 Q5620.3906,468.5313 5620.3906,468.1406 Q5620.3906,467.7656 5620.6563,467.5313 Q5620.9219,467.2969 5621.5313,467.2969 L5623.25,467.2969 L5623.25,460.6406 L5621.5313,460.6406 Q5620.9219,460.6406 5620.6563,460.4063 Q5620.3906,460.1719 5620.3906,459.7813 Q5620.3906,459.4063 5620.6563,459.1719 Q5620.9219,458.9375 5621.5313,458.9375 L5626.6719,458.9375 Q5627.2813,458.9375 5627.5469,459.1719 Q5627.8125,459.4063 5627.8125,459.7813 Q5627.8125,460.1719 5627.5469,460.4063 Q5627.2813,460.6406 5626.6719,460.6406 L5624.9531,460.6406 Z " fill="#000000"/><text fill="#000000" font-family="sans-serif" font-size="14" font-style="italic" lengthAdjust="spacing" textLength="143" x="5638" y="469.7969">ReservationRepository</text><rect fill="#FEFEFE" height="17.9609" style="stroke:#181818;stroke-width:1.0;stroke-dasharray:2.0,2.0;" width="251" x="5789" y="445"/><text fill="#000000" font-family="sans-serif" font-size="12" font-style="italic" lengthAdjust="spacing" textLength="249" x="5790" y="458.9492">T extends Product, U extends Reservation&lt;T&gt;</text></g><!--class Config--><g id="elem_Config"><rect codeLine="28" fill="#F1F1F1" height="159.7266" id="Config" rx="2.5" ry="2.5" style="stroke:#181818;stroke-width:0.5;" width="321" x="4513.5" y="94"/><ellipse cx="4649.25" cy="110" fill="#ADD1B2" rx="11" ry="11" style="stroke:#181818;stroke-width:1.0;"/><path d="M4652.0156,105.875 Q4652.1719,105.6563 4652.3594,105.5469 Q4652.5469,105.4375 4652.7656,105.4375 Q4653.1406,105.4375 4653.375,105.7031 Q4653.6094,105.9531 4653.6094,106.5625 L4653.6094,108.0156 Q4653.6094,108.625 4653.375,108.8906 Q4653.1406,109.1563 4652.7656,109.1563 Q4652.4219,109.1563 4652.2188,108.9531 Q4652.0156,108.7656 4651.9063,108.25 Q4651.8594,107.8906 4651.6719,107.7031 Q4651.3438,107.3281 4650.7344,107.1094 Q4650.125,106.8906 4649.5,106.8906 Q4648.7344,106.8906 4648.0938,107.2188 Q4647.4688,107.5469 4646.9688,108.2969 Q4646.4844,109.0469 4646.4844,110.0781 L4646.4844,111.1719 Q4646.4844,112.4063 4647.375,113.2344 Q4648.2656,114.0469 4649.8594,114.0469 Q4650.7969,114.0469 4651.4531,113.7969 Q4651.8438,113.6406 4652.2656,113.2031 Q4652.5313,112.9375 4652.6719,112.8594 Q4652.8281,112.7813 4653.0313,112.7813 Q4653.3594,112.7813 4653.6094,113.0469 Q4653.875,113.2969 4653.875,113.6406 Q4653.875,113.9844 4653.5313,114.3906 Q4653.0313,114.9688 4652.2344,115.2969 Q4651.1563,115.75 4649.8594,115.75 Q4648.3438,115.75 4647.1406,115.125 Q4646.1563,114.625 4645.4688,113.5625 Q4644.7813,112.4844 4644.7813,111.2031 L4644.7813,110.0469 Q4644.7813,108.7188 4645.3906,107.5781 Q4646.0156,106.4219 4647.1094,105.8125 Q4648.2031,105.1875 4649.4375,105.1875 Q4650.1719,105.1875 4650.8125,105.3594 Q4651.4688,105.5156 4652.0156,105.875 Z " fill="#000000"/><text fill="#000000" font-family="sans-serif" font-size="14" lengthAdjust="spacing" textLength="41" x="4669.75" y="115.7969">Config</text><line style="stroke:#181818;stroke-width:0.5;" x1="4514.5" x2="4833.5" y1="126" y2="126"/><text fill="#000000" font-family="sans-serif" font-size="14" lengthAdjust="spacing" text-decoration="underline" textLength="195" x="4519.5" y="145.1074">-electricityCosts = 0.29: double</text><text fill="#000000" font-family="sans-serif" font-size="14" lengthAdjust="spacing" text-decoration="underline" textLength="170" x="4519.5" y="163.7285">-waterCosts = 2.59: double</text><line style="stroke:#181818;stroke-width:0.5;" x1="4514.5" x2="4833.5" y1="171.2422" y2="171.2422"/><text fill="#000000" font-family="sans-serif" font-size="14" lengthAdjust="spacing" text-decoration="underline" textLength="185" x="4519.5" y="190.3496">+getElectricityCosts(): double</text><text fill="#000000" font-family="sans-serif" font-size="14" lengthAdjust="spacing" text-decoration="underline" textLength="309" x="4519.5" y="208.9707">+setElectricityCosts(double electricityCosts): void</text><text fill="#000000" font-family="sans-serif" font-size="14" lengthAdjust="spacing" text-decoration="underline" textLength="163" x="4519.5" y="227.5918">+getWaterCosts(): double</text><text fill="#000000" font-family="sans-serif" font-size="14" lengthAdjust="spacing" text-decoration="underline" textLength="262" x="4519.5" y="246.2129">+setWaterCosts(double waterCosts): void</text></g><!--class Plot--><g id="elem_Plot"><rect codeLine="36" fill="#F1F1F1" height="190.9297" id="Plot" rx="2.5" ry="2.5" style="stroke:#181818;stroke-width:0.5;" width="439" x="370.5" y="672"/><ellipse cx="565.75" cy="694.291" fill="#ADD1B2" rx="11" ry="11" style="stroke:#181818;stroke-width:1.0;"/><path d="M568.5156,690.166 Q568.6719,689.9473 568.8594,689.8379 Q569.0469,689.7285 569.2656,689.7285 Q569.6406,689.7285 569.875,689.9941 Q570.1094,690.2441 570.1094,690.8535 L570.1094,692.3066 Q570.1094,692.916 569.875,693.1816 Q569.6406,693.4473 569.2656,693.4473 Q568.9219,693.4473 568.7188,693.2441 Q568.5156,693.0566 568.4063,692.541 Q568.3594,692.1816 568.1719,691.9941 Q567.8438,691.6191 567.2344,691.4004 Q566.625,691.1816 566,691.1816 Q565.2344,691.1816 564.5938,691.5098 Q563.9688,691.8379 563.4688,692.5879 Q562.9844,693.3379 562.9844,694.3691 L562.9844,695.4629 Q562.9844,696.6973 563.875,697.5254 Q564.7656,698.3379 566.3594,698.3379 Q567.2969,698.3379 567.9531,698.0879 Q568.3438,697.9316 568.7656,697.4941 Q569.0313,697.2285 569.1719,697.1504 Q569.3281,697.0723 569.5313,697.0723 Q569.8594,697.0723 570.1094,697.3379 Q570.375,697.5879 570.375,697.9316 Q570.375,698.2754 570.0313,698.6816 Q569.5313,699.2598 568.7344,699.5879 Q567.6563,700.041 566.3594,700.041 Q564.8438,700.041 563.6406,699.416 Q562.6563,698.916 561.9688,697.8535 Q561.2813,696.7754 561.2813,695.4941 L561.2813,694.3379 Q561.2813,693.0098 561.8906,691.8691 Q562.5156,690.7129 563.6094,690.1035 Q564.7031,689.4785 565.9375,689.4785 Q566.6719,689.4785 567.3125,689.6504 Q567.9688,689.8066 568.5156,690.166 Z " fill="#000000"/><text fill="#000000" font-family="sans-serif" font-size="12" font-style="italic" lengthAdjust="spacing" textLength="44" x="584.25" y="689.9492">&#171;Entity&#187;</text><text fill="#000000" font-family="sans-serif" font-size="14" lengthAdjust="spacing" textLength="24" x="594.25" y="708.0684">Plot</text><line style="stroke:#181818;stroke-width:0.5;" x1="371.5" x2="808.5" y1="716.582" y2="716.582"/><text fill="#000000" font-family="sans-serif" font-size="14" lengthAdjust="spacing" textLength="82" x="376.5" y="735.6895">-size: Double</text><text fill="#000000" font-family="sans-serif" font-size="14" lengthAdjust="spacing" textLength="128" x="376.5" y="754.3105">-parking: ParkingLot</text><line style="stroke:#181818;stroke-width:0.5;" x1="371.5" x2="808.5" y1="761.8242" y2="761.8242"/><text fill="#000000" font-family="sans-serif" font-size="14" lengthAdjust="spacing" textLength="427" x="376.5" y="780.9316">+Plot(name: String, size: Double, price: Money, parking: ParkingLot)</text><text fill="#000000" font-family="sans-serif" font-size="14" lengthAdjust="spacing" textLength="152" x="376.5" y="799.5527">+getPriceString(): String</text><text fill="#000000" font-family="sans-serif" font-size="14" lengthAdjust="spacing" textLength="162" x="376.5" y="818.1738">+getParking(): ParkingLot</text><text fill="#000000" font-family="sans-serif" font-size="14" lengthAdjust="spacing" textLength="117" x="376.5" y="836.7949">+getSize(): Double</text><text fill="#000000" font-family="sans-serif" font-size="14" lengthAdjust="spacing" textLength="146" x="376.5" y="855.416">+getSizeString(): String</text></g><!--class ParkingLot--><g id="elem_ParkingLot"><rect codeLine="45" fill="#F1F1F1" height="198.9297" id="ParkingLot" rx="2.5" ry="2.5" style="stroke:#181818;stroke-width:0.5;" width="257" x="47.5" y="364.5"/><ellipse cx="131.75" cy="386.791" fill="#EB937F" rx="11" ry="11" style="stroke:#181818;stroke-width:1.0;"/><path d="M130.6094,387.5879 L130.6094,390.0879 L134.9375,390.0879 L134.9375,389.166 Q134.9375,388.5566 135.1719,388.291 Q135.4219,388.0254 135.7969,388.0254 Q136.1719,388.0254 136.4063,388.291 Q136.6406,388.5566 136.6406,389.166 L136.6406,391.791 L128.6406,391.791 Q128.0156,391.791 127.75,391.5566 Q127.5,391.3223 127.5,390.9316 Q127.5,390.5566 127.7656,390.3223 Q128.0313,390.0879 128.6406,390.0879 L128.9063,390.0879 L128.9063,383.4316 L128.6406,383.4316 Q128.0156,383.4316 127.75,383.1973 Q127.5,382.9629 127.5,382.5723 Q127.5,382.1973 127.75,381.9629 Q128.0156,381.7285 128.6406,381.7285 L136.2656,381.7285 L136.2656,384.3223 Q136.2656,384.9316 136.0313,385.1973 Q135.8125,385.4473 135.4219,385.4473 Q135.0469,385.4473 134.8125,385.1973 Q134.5781,384.9316 134.5781,384.3223 L134.5781,383.4316 L130.6094,383.4316 L130.6094,385.8848 L132.0938,385.8848 Q132.0938,385.2285 132.2188,385.041 Q132.4844,384.6348 132.9531,384.6348 Q133.3281,384.6348 133.5625,384.9004 Q133.7969,385.1504 133.7969,385.7598 L133.7969,387.7285 Q133.7969,388.2754 133.6719,388.4629 Q133.4063,388.8535 132.9531,388.8535 Q132.4844,388.8535 132.2188,388.4473 Q132.0938,388.2598 132.0938,387.5879 L130.6094,387.5879 Z " fill="#000000"/><text fill="#000000" font-family="sans-serif" font-size="12" font-style="italic" lengthAdjust="spacing" textLength="84" x="150.25" y="382.4492">&#171;enumeration&#187;</text><text fill="#000000" font-family="sans-serif" font-size="14" lengthAdjust="spacing" textLength="68" x="158.25" y="400.5684">ParkingLot</text><line style="stroke:#181818;stroke-width:0.5;" x1="48.5" x2="303.5" y1="409.082" y2="409.082"/><text fill="#000000" font-family="sans-serif" font-size="14" lengthAdjust="spacing" textLength="38" x="53.5" y="428.1895">NONE</text><text fill="#000000" font-family="sans-serif" font-size="14" lengthAdjust="spacing" textLength="98" x="53.5" y="446.8105">BIKE_PARKING</text><text fill="#000000" font-family="sans-serif" font-size="14" lengthAdjust="spacing" textLength="97" x="53.5" y="465.4316">CAR_PARKING</text><text fill="#000000" font-family="sans-serif" font-size="14" lengthAdjust="spacing" textLength="126" x="53.5" y="484.0527">CAMPER_PARKING</text><line style="stroke:#181818;stroke-width:1.0;" x1="48.5" x2="303.5" y1="491.5664" y2="491.5664"/><text fill="#000000" font-family="sans-serif" font-size="14" lengthAdjust="spacing" textLength="84" x="53.5" y="510.6738">+size: Integer</text><text fill="#000000" font-family="sans-serif" font-size="14" lengthAdjust="spacing" textLength="83" x="53.5" y="529.2949">+label: String</text><line style="stroke:#181818;stroke-width:1.0;" x1="48.5" x2="303.5" y1="536.8086" y2="536.8086"/><text fill="#000000" font-family="sans-serif" font-size="14" lengthAdjust="spacing" textLength="245" x="53.5" y="555.916">+ParkingLot(size: Integer, label: String)</text></g><!--class PlotCatalog--><g id="elem_PlotCatalog"><rect codeLine="56" fill="#F1F1F1" height="58.6211" id="PlotCatalog" rx="2.5" ry="2.5" style="stroke:#181818;stroke-width:0.5;" width="228" x="3411" y="738"/><ellipse cx="3484.25" cy="754" fill="#B4A7E5" rx="11" ry="11" style="stroke:#181818;stroke-width:1.0;"/><path d="M3485.2031,750.6406 L3485.2031,757.2969 L3486.9219,757.2969 Q3487.5313,757.2969 3487.7969,757.5313 Q3488.0625,757.7656 3488.0625,758.1563 Q3488.0625,758.5313 3487.7969,758.7656 Q3487.5313,759 3486.9219,759 L3481.7813,759 Q3481.1719,759 3480.9063,758.7656 Q3480.6406,758.5313 3480.6406,758.1406 Q3480.6406,757.7656 3480.9063,757.5313 Q3481.1719,757.2969 3481.7813,757.2969 L3483.5,757.2969 L3483.5,750.6406 L3481.7813,750.6406 Q3481.1719,750.6406 3480.9063,750.4063 Q3480.6406,750.1719 3480.6406,749.7813 Q3480.6406,749.4063 3480.9063,749.1719 Q3481.1719,748.9375 3481.7813,748.9375 L3486.9219,748.9375 Q3487.5313,748.9375 3487.7969,749.1719 Q3488.0625,749.4063 3488.0625,749.7813 Q3488.0625,750.1719 3487.7969,750.4063 Q3487.5313,750.6406 3486.9219,750.6406 L3485.2031,750.6406 Z " fill="#000000"/><text fill="#000000" font-family="sans-serif" font-size="14" font-style="italic" lengthAdjust="spacing" textLength="73" x="3504.75" y="759.7969">PlotCatalog</text><line style="stroke:#181818;stroke-width:0.5;" x1="3412" x2="3638" y1="770" y2="770"/><text fill="#000000" font-family="sans-serif" font-size="14" lengthAdjust="spacing" textLength="216" x="3417" y="789.1074">+filter(query: SiteState): List&lt;Plot&gt;</text></g><!--class SiteState--><g id="elem_SiteState"><rect codeLine="59" fill="#F1F1F1" height="77.2422" id="SiteState" rx="2.5" ry="2.5" style="stroke:#181818;stroke-width:0.5;" width="181" x="3597.5" y="425.5"/><ellipse cx="3655.25" cy="441.5" fill="#B4A7E5" rx="11" ry="11" style="stroke:#181818;stroke-width:1.0;"/><path d="M3656.2031,438.1406 L3656.2031,444.7969 L3657.9219,444.7969 Q3658.5313,444.7969 3658.7969,445.0313 Q3659.0625,445.2656 3659.0625,445.6563 Q3659.0625,446.0313 3658.7969,446.2656 Q3658.5313,446.5 3657.9219,446.5 L3652.7813,446.5 Q3652.1719,446.5 3651.9063,446.2656 Q3651.6406,446.0313 3651.6406,445.6406 Q3651.6406,445.2656 3651.9063,445.0313 Q3652.1719,444.7969 3652.7813,444.7969 L3654.5,444.7969 L3654.5,438.1406 L3652.7813,438.1406 Q3652.1719,438.1406 3651.9063,437.9063 Q3651.6406,437.6719 3651.6406,437.2813 Q3651.6406,436.9063 3651.9063,436.6719 Q3652.1719,436.4375 3652.7813,436.4375 L3657.9219,436.4375 Q3658.5313,436.4375 3658.7969,436.6719 Q3659.0625,436.9063 3659.0625,437.2813 Q3659.0625,437.6719 3658.7969,437.9063 Q3658.5313,438.1406 3657.9219,438.1406 L3656.2031,438.1406 Z " fill="#000000"/><text fill="#000000" font-family="sans-serif" font-size="14" font-style="italic" lengthAdjust="spacing" textLength="57" x="3675.75" y="447.2969">SiteState</text><line style="stroke:#181818;stroke-width:0.5;" x1="3598.5" x2="3777.5" y1="457.5" y2="457.5"/><text fill="#000000" font-family="sans-serif" font-size="14" lengthAdjust="spacing" textLength="150" x="3603.5" y="476.6074">+getArrival(): LocalDate</text><text fill="#000000" font-family="sans-serif" font-size="14" lengthAdjust="spacing" textLength="169" x="3603.5" y="495.2285">+getDepature(): LocalDate</text></g><!--class PlotCatalogAvailabilityTable--><g id="elem_PlotCatalogAvailabilityTable"><rect codeLine="63" fill="#F1F1F1" height="196.9688" id="PlotCatalogAvailabilityTable" rx="2.5" ry="2.5" style="stroke:#181818;stroke-width:0.5;" width="745" x="1708.5" y="669"/><ellipse cx="1989.25" cy="685" fill="#ADD1B2" rx="11" ry="11" style="stroke:#181818;stroke-width:1.0;"/><path d="M1992.0156,680.875 Q1992.1719,680.6563 1992.3594,680.5469 Q1992.5469,680.4375 1992.7656,680.4375 Q1993.1406,680.4375 1993.375,680.7031 Q1993.6094,680.9531 1993.6094,681.5625 L1993.6094,683.0156 Q1993.6094,683.625 1993.375,683.8906 Q1993.1406,684.1563 1992.7656,684.1563 Q1992.4219,684.1563 1992.2188,683.9531 Q1992.0156,683.7656 1991.9063,683.25 Q1991.8594,682.8906 1991.6719,682.7031 Q1991.3438,682.3281 1990.7344,682.1094 Q1990.125,681.8906 1989.5,681.8906 Q1988.7344,681.8906 1988.0938,682.2188 Q1987.4688,682.5469 1986.9688,683.2969 Q1986.4844,684.0469 1986.4844,685.0781 L1986.4844,686.1719 Q1986.4844,687.4063 1987.375,688.2344 Q1988.2656,689.0469 1989.8594,689.0469 Q1990.7969,689.0469 1991.4531,688.7969 Q1991.8438,688.6406 1992.2656,688.2031 Q1992.5313,687.9375 1992.6719,687.8594 Q1992.8281,687.7813 1993.0313,687.7813 Q1993.3594,687.7813 1993.6094,688.0469 Q1993.875,688.2969 1993.875,688.6406 Q1993.875,688.9844 1993.5313,689.3906 Q1993.0313,689.9688 1992.2344,690.2969 Q1991.1563,690.75 1989.8594,690.75 Q1988.3438,690.75 1987.1406,690.125 Q1986.1563,689.625 1985.4688,688.5625 Q1984.7813,687.4844 1984.7813,686.2031 L1984.7813,685.0469 Q1984.7813,683.7188 1985.3906,682.5781 Q1986.0156,681.4219 1987.1094,680.8125 Q1988.2031,680.1875 1989.4375,680.1875 Q1990.1719,680.1875 1990.8125,680.3594 Q1991.4688,680.5156 1992.0156,680.875 Z " fill="#000000"/><text fill="#000000" font-family="sans-serif" font-size="14" lengthAdjust="spacing" textLength="175" x="2009.75" y="690.7969">PlotCatalogAvailabilityTable</text><line style="stroke:#181818;stroke-width:0.5;" x1="1709.5" x2="2452.5" y1="701" y2="701"/><text fill="#000000" font-family="sans-serif" font-size="14" lengthAdjust="spacing" textLength="128" x="1714.5" y="720.1074">+firstDay: LocalDate</text><text fill="#000000" font-family="sans-serif" font-size="14" lengthAdjust="spacing" textLength="127" x="1714.5" y="738.7285">+lastDay: LocalDate</text><text fill="#000000" font-family="sans-serif" font-size="14" lengthAdjust="spacing" textLength="99" x="1714.5" y="757.3496">+length: Integer</text><line style="stroke:#181818;stroke-width:0.5;" x1="1709.5" x2="2452.5" y1="764.8633" y2="764.8633"/><text fill="#000000" font-family="sans-serif" font-size="14" lengthAdjust="spacing" textLength="536" x="1714.5" y="783.9707">+PlotCatalogAvailabilityTable(LocalDate firstDay, LocalDate lastDay, List&lt;Plot&gt; plots)</text><text fill="#000000" font-family="sans-serif" font-size="14" lengthAdjust="spacing" textLength="733" x="1714.5" y="802.5918">+addReservations(Optional&lt;UserAccount&gt; user, List&lt;Reservation&lt;Plot&gt;&gt; reservations): PlotCatalogAvailabilityTable</text><text fill="#000000" font-family="sans-serif" font-size="14" lengthAdjust="spacing" textLength="620" x="1714.5" y="821.2129">+addHighlights(PlotCatalog.SiteState query, Set&lt;Plot&gt; reservedPlots): PlotCatalogAvailabilityTable</text><text fill="#000000" font-family="sans-serif" font-size="14" lengthAdjust="spacing" textLength="459" x="1714.5" y="839.834">+addSelections(Cart&lt;Plot&gt; reservationCart): PlotCatalogAvailabilityTable</text><text fill="#000000" font-family="sans-serif" font-size="14" lengthAdjust="spacing" textLength="229" x="1714.5" y="858.4551">+collapse(): Map&lt;Plot, List&lt;Fields&gt;&gt;</text></g><!--class FieldType--><g id="elem_FieldType"><rect codeLine="73" fill="#F1F1F1" height="242.2109" id="FieldType" rx="2.5" ry="2.5" style="stroke:#181818;stroke-width:0.5;" width="347" x="1521.5" y="343"/><ellipse cx="1659.25" cy="359" fill="#EB937F" rx="11" ry="11" style="stroke:#181818;stroke-width:1.0;"/><path d="M1658.1094,359.7969 L1658.1094,362.2969 L1662.4375,362.2969 L1662.4375,361.375 Q1662.4375,360.7656 1662.6719,360.5 Q1662.9219,360.2344 1663.2969,360.2344 Q1663.6719,360.2344 1663.9063,360.5 Q1664.1406,360.7656 1664.1406,361.375 L1664.1406,364 L1656.1406,364 Q1655.5156,364 1655.25,363.7656 Q1655,363.5313 1655,363.1406 Q1655,362.7656 1655.2656,362.5313 Q1655.5313,362.2969 1656.1406,362.2969 L1656.4063,362.2969 L1656.4063,355.6406 L1656.1406,355.6406 Q1655.5156,355.6406 1655.25,355.4063 Q1655,355.1719 1655,354.7813 Q1655,354.4063 1655.25,354.1719 Q1655.5156,353.9375 1656.1406,353.9375 L1663.7656,353.9375 L1663.7656,356.5313 Q1663.7656,357.1406 1663.5313,357.4063 Q1663.3125,357.6563 1662.9219,357.6563 Q1662.5469,357.6563 1662.3125,357.4063 Q1662.0781,357.1406 1662.0781,356.5313 L1662.0781,355.6406 L1658.1094,355.6406 L1658.1094,358.0938 L1659.5938,358.0938 Q1659.5938,357.4375 1659.7188,357.25 Q1659.9844,356.8438 1660.4531,356.8438 Q1660.8281,356.8438 1661.0625,357.1094 Q1661.2969,357.3594 1661.2969,357.9688 L1661.2969,359.9375 Q1661.2969,360.4844 1661.1719,360.6719 Q1660.9063,361.0625 1660.4531,361.0625 Q1659.9844,361.0625 1659.7188,360.6563 Q1659.5938,360.4688 1659.5938,359.7969 L1658.1094,359.7969 Z " fill="#000000"/><text fill="#000000" font-family="sans-serif" font-size="14" lengthAdjust="spacing" textLength="63" x="1679.75" y="364.7969">FieldType</text><line style="stroke:#181818;stroke-width:0.5;" x1="1522.5" x2="1867.5" y1="375" y2="375"/><text fill="#000000" font-family="sans-serif" font-size="14" lengthAdjust="spacing" textLength="138" x="1527.5" y="394.1074">FREE_COMPLETELY</text><text fill="#000000" font-family="sans-serif" font-size="14" lengthAdjust="spacing" textLength="136" x="1527.5" y="412.7285">FREE_HIGHLIGHTED</text><text fill="#000000" font-family="sans-serif" font-size="14" lengthAdjust="spacing" textLength="118" x="1527.5" y="431.3496">FREE_SELECTED</text><text fill="#000000" font-family="sans-serif" font-size="14" lengthAdjust="spacing" textLength="131" x="1527.5" y="449.9707">RESERVED_OTHER</text><text fill="#000000" font-family="sans-serif" font-size="14" lengthAdjust="spacing" textLength="118" x="1527.5" y="468.5918">RESERVED_SELF</text><line style="stroke:#181818;stroke-width:1.0;" x1="1522.5" x2="1867.5" y1="476.1055" y2="476.1055"/><text fill="#000000" font-family="sans-serif" font-size="14" lengthAdjust="spacing" textLength="116" x="1527.5" y="495.2129">+clickability: String</text><text fill="#000000" font-family="sans-serif" font-size="14" lengthAdjust="spacing" textLength="94" x="1527.5" y="513.834">+value: Integer</text><text fill="#000000" font-family="sans-serif" font-size="14" lengthAdjust="spacing" textLength="74" x="1527.5" y="532.4551">+css: String</text><text fill="#000000" font-family="sans-serif" font-size="14" lengthAdjust="spacing" textLength="83" x="1527.5" y="551.0762">+label: String</text><line style="stroke:#181818;stroke-width:1.0;" x1="1522.5" x2="1867.5" y1="558.5898" y2="558.5898"/><text fill="#000000" font-family="sans-serif" font-size="14" lengthAdjust="spacing" textLength="335" x="1527.5" y="577.6973">+FieldType(Integer size, String arg, String clickability)</text></g><!--class Fields--><g id="elem_Fields"><rect codeLine="87" fill="#F1F1F1" height="234.2109" id="Fields" rx="2.5" ry="2.5" style="stroke:#181818;stroke-width:0.5;" width="354" x="1904" y="347"/><ellipse cx="2057.75" cy="363" fill="#ADD1B2" rx="11" ry="11" style="stroke:#181818;stroke-width:1.0;"/><path d="M2060.5156,358.875 Q2060.6719,358.6563 2060.8594,358.5469 Q2061.0469,358.4375 2061.2656,358.4375 Q2061.6406,358.4375 2061.875,358.7031 Q2062.1094,358.9531 2062.1094,359.5625 L2062.1094,361.0156 Q2062.1094,361.625 2061.875,361.8906 Q2061.6406,362.1563 2061.2656,362.1563 Q2060.9219,362.1563 2060.7188,361.9531 Q2060.5156,361.7656 2060.4063,361.25 Q2060.3594,360.8906 2060.1719,360.7031 Q2059.8438,360.3281 2059.2344,360.1094 Q2058.625,359.8906 2058,359.8906 Q2057.2344,359.8906 2056.5938,360.2188 Q2055.9688,360.5469 2055.4688,361.2969 Q2054.9844,362.0469 2054.9844,363.0781 L2054.9844,364.1719 Q2054.9844,365.4063 2055.875,366.2344 Q2056.7656,367.0469 2058.3594,367.0469 Q2059.2969,367.0469 2059.9531,366.7969 Q2060.3438,366.6406 2060.7656,366.2031 Q2061.0313,365.9375 2061.1719,365.8594 Q2061.3281,365.7813 2061.5313,365.7813 Q2061.8594,365.7813 2062.1094,366.0469 Q2062.375,366.2969 2062.375,366.6406 Q2062.375,366.9844 2062.0313,367.3906 Q2061.5313,367.9688 2060.7344,368.2969 Q2059.6563,368.75 2058.3594,368.75 Q2056.8438,368.75 2055.6406,368.125 Q2054.6563,367.625 2053.9688,366.5625 Q2053.2813,365.4844 2053.2813,364.2031 L2053.2813,363.0469 Q2053.2813,361.7188 2053.8906,360.5781 Q2054.5156,359.4219 2055.6094,358.8125 Q2056.7031,358.1875 2057.9375,358.1875 Q2058.6719,358.1875 2059.3125,358.3594 Q2059.9688,358.5156 2060.5156,358.875 Z " fill="#000000"/><text fill="#000000" font-family="sans-serif" font-size="14" lengthAdjust="spacing" textLength="38" x="2078.25" y="368.7969">Fields</text><line style="stroke:#181818;stroke-width:0.5;" x1="1905" x2="2257" y1="379" y2="379"/><text fill="#000000" font-family="sans-serif" font-size="14" lengthAdjust="spacing" textLength="106" x="1910" y="398.1074">+type: FieldType</text><text fill="#000000" font-family="sans-serif" font-size="14" lengthAdjust="spacing" textLength="93" x="1910" y="416.7285">+index: Integer</text><text fill="#000000" font-family="sans-serif" font-size="14" lengthAdjust="spacing" textLength="107" x="1910" y="435.3496">+amount: Integer</text><line style="stroke:#181818;stroke-width:0.5;" x1="1905" x2="2257" y1="442.8633" y2="442.8633"/><text fill="#000000" font-family="sans-serif" font-size="14" lengthAdjust="spacing" textLength="342" x="1910" y="461.9707">+Fields(FieldType type, Integer index, Integer amount)</text><text fill="#000000" font-family="sans-serif" font-size="14" lengthAdjust="spacing" textLength="141" x="1910" y="480.5918">+getType(): FieldType</text><text fill="#000000" font-family="sans-serif" font-size="14" lengthAdjust="spacing" textLength="204" x="1910" y="499.2129">+setType(FieldType value): void</text><text fill="#000000" font-family="sans-serif" font-size="14" lengthAdjust="spacing" textLength="123" x="1910" y="517.834">+getIndex(): Integer</text><text fill="#000000" font-family="sans-serif" font-size="14" lengthAdjust="spacing" textLength="186" x="1910" y="536.4551">+setIndex(Integer value): void</text><text fill="#000000" font-family="sans-serif" font-size="14" lengthAdjust="spacing" textLength="138" x="1910" y="555.0762">+getAmount(): Integer</text><text fill="#000000" font-family="sans-serif" font-size="14" lengthAdjust="spacing" textLength="201" x="1910" y="573.6973">+setAmount(Integer value): void</text></g><!--class PlotCatalogController--><g id="elem_PlotCatalogController"><rect codeLine="99" fill="#F1F1F1" height="265.4141" id="PlotCatalogController" rx="2.5" ry="2.5" style="stroke:#181818;stroke-width:0.5;" width="835" x="2293.5" y="331.5"/><ellipse cx="2639.25" cy="353.791" fill="#ADD1B2" rx="11" ry="11" style="stroke:#181818;stroke-width:1.0;"/><path d="M2642.0156,349.666 Q2642.1719,349.4473 2642.3594,349.3379 Q2642.5469,349.2285 2642.7656,349.2285 Q2643.1406,349.2285 2643.375,349.4941 Q2643.6094,349.7441 2643.6094,350.3535 L2643.6094,351.8066 Q2643.6094,352.416 2643.375,352.6816 Q2643.1406,352.9473 2642.7656,352.9473 Q2642.4219,352.9473 2642.2188,352.7441 Q2642.0156,352.5566 2641.9063,352.041 Q2641.8594,351.6816 2641.6719,351.4941 Q2641.3438,351.1191 2640.7344,350.9004 Q2640.125,350.6816 2639.5,350.6816 Q2638.7344,350.6816 2638.0938,351.0098 Q2637.4688,351.3379 2636.9688,352.0879 Q2636.4844,352.8379 2636.4844,353.8691 L2636.4844,354.9629 Q2636.4844,356.1973 2637.375,357.0254 Q2638.2656,357.8379 2639.8594,357.8379 Q2640.7969,357.8379 2641.4531,357.5879 Q2641.8438,357.4316 2642.2656,356.9941 Q2642.5313,356.7285 2642.6719,356.6504 Q2642.8281,356.5723 2643.0313,356.5723 Q2643.3594,356.5723 2643.6094,356.8379 Q2643.875,357.0879 2643.875,357.4316 Q2643.875,357.7754 2643.5313,358.1816 Q2643.0313,358.7598 2642.2344,359.0879 Q2641.1563,359.541 2639.8594,359.541 Q2638.3438,359.541 2637.1406,358.916 Q2636.1563,358.416 2635.4688,357.3535 Q2634.7813,356.2754 2634.7813,354.9941 L2634.7813,353.8379 Q2634.7813,352.5098 2635.3906,351.3691 Q2636.0156,350.2129 2637.1094,349.6035 Q2638.2031,348.9785 2639.4375,348.9785 Q2640.1719,348.9785 2640.8125,349.1504 Q2641.4688,349.3066 2642.0156,349.666 Z " fill="#000000"/><text fill="#000000" font-family="sans-serif" font-size="12" font-style="italic" lengthAdjust="spacing" textLength="68" x="2693.25" y="349.4492">&#171;Controller&#187;</text><text fill="#000000" font-family="sans-serif" font-size="14" lengthAdjust="spacing" textLength="135" x="2659.75" y="367.5684">PlotCatalogController</text><line style="stroke:#181818;stroke-width:0.5;" x1="2294.5" x2="3127.5" y1="376.082" y2="376.082"/><text fill="#000000" font-family="sans-serif" font-size="14" lengthAdjust="spacing" textLength="161" x="2299.5" y="395.1895">+plotCatalog: PlotCatalog</text><text fill="#000000" font-family="sans-serif" font-size="14" lengthAdjust="spacing" textLength="339" x="2299.5" y="413.8105">+reservationRepository: ReservationRepository&lt;Plot&gt;</text><line style="stroke:#181818;stroke-width:0.5;" x1="2294.5" x2="3127.5" y1="421.3242" y2="421.3242"/><text fill="#000000" font-family="sans-serif" font-size="14" lengthAdjust="spacing" textLength="637" x="2299.5" y="440.4316">+PlotCatalogController(PlotCatalog plotCatalog, ReservationRepository&lt;Plot&gt; reservationRepository)</text><text fill="#000000" font-family="sans-serif" font-size="14" lengthAdjust="spacing" textLength="169" x="2299.5" y="459.0527">+initializeCart(): Cart&lt;Plot&gt;</text><text fill="#000000" font-family="sans-serif" font-size="14" lengthAdjust="spacing" textLength="775" x="2299.5" y="477.6738">+setupCatalog(Model model, Optional&lt;UserAccount&gt; user, PlotCatalog.SiteState query, Cart&lt;Plot&gt; reservationCart): String</text><text fill="#000000" font-family="sans-serif" font-size="14" lengthAdjust="spacing" textLength="718" x="2299.5" y="496.2949">+filter(Model model, Optional&lt;UserAccount&gt; user, PlotCatalog.SiteState query, Cart&lt;Plot&gt; reservationCart): String</text><text fill="#000000" font-family="sans-serif" font-size="14" lengthAdjust="spacing" textLength="753" x="2299.5" y="514.916">+nextWeek(Model model, Optional&lt;UserAccount&gt; user, PlotCatalog.SiteState query, Cart&lt;Plot&gt; reservationCart): String</text><text fill="#000000" font-family="sans-serif" font-size="14" lengthAdjust="spacing" textLength="755" x="2299.5" y="533.5371">+prevWeek(Model model, Optional&lt;UserAccount&gt; user, PlotCatalog.SiteState query, Cart&lt;Plot&gt; reservationCart): String</text><text fill="#000000" font-family="sans-serif" font-size="14" lengthAdjust="spacing" textLength="823" x="2299.5" y="552.1582">+addReservationRange(Model model, UserAccount user, PlotCatalog.SiteState query, Plot plot, Cart&lt;Plot&gt; reservationCart): String</text><text fill="#000000" font-family="sans-serif" font-size="14" lengthAdjust="spacing" textLength="806" x="2299.5" y="570.7793">+addReservationDay(Model model, UserAccount user, PlotCatalog.SiteState query, Plot plot, Cart&lt;Plot&gt; reservationCart): String</text><text fill="#000000" font-family="sans-serif" font-size="14" lengthAdjust="spacing" textLength="173" x="2299.5" y="589.4004">+plots(Model model): String</text></g><!--class PlotCatalogDataInitializer--><g id="elem_PlotCatalogDataInitializer"><rect codeLine="112" fill="#F1F1F1" height="116.4453" id="PlotCatalogDataInitializer" rx="2.5" ry="2.5" style="stroke:#181818;stroke-width:0.5;" width="336" x="4870" y="116"/><ellipse cx="4955.25" cy="138.291" fill="#ADD1B2" rx="11" ry="11" style="stroke:#181818;stroke-width:1.0;"/><path d="M4958.0156,134.166 Q4958.1719,133.9473 4958.3594,133.8379 Q4958.5469,133.7285 4958.7656,133.7285 Q4959.1406,133.7285 4959.375,133.9941 Q4959.6094,134.2441 4959.6094,134.8535 L4959.6094,136.3066 Q4959.6094,136.916 4959.375,137.1816 Q4959.1406,137.4473 4958.7656,137.4473 Q4958.4219,137.4473 4958.2188,137.2441 Q4958.0156,137.0566 4957.9063,136.541 Q4957.8594,136.1816 4957.6719,135.9941 Q4957.3438,135.6191 4956.7344,135.4004 Q4956.125,135.1816 4955.5,135.1816 Q4954.7344,135.1816 4954.0938,135.5098 Q4953.4688,135.8379 4952.9688,136.5879 Q4952.4844,137.3379 4952.4844,138.3691 L4952.4844,139.4629 Q4952.4844,140.6973 4953.375,141.5254 Q4954.2656,142.3379 4955.8594,142.3379 Q4956.7969,142.3379 4957.4531,142.0879 Q4957.8438,141.9316 4958.2656,141.4941 Q4958.5313,141.2285 4958.6719,141.1504 Q4958.8281,141.0723 4959.0313,141.0723 Q4959.3594,141.0723 4959.6094,141.3379 Q4959.875,141.5879 4959.875,141.9316 Q4959.875,142.2754 4959.5313,142.6816 Q4959.0313,143.2598 4958.2344,143.5879 Q4957.1563,144.041 4955.8594,144.041 Q4954.3438,144.041 4953.1406,143.416 Q4952.1563,142.916 4951.4688,141.8535 Q4950.7813,140.7754 4950.7813,139.4941 L4950.7813,138.3379 Q4950.7813,137.0098 4951.3906,135.8691 Q4952.0156,134.7129 4953.1094,134.1035 Q4954.2031,133.4785 4955.4375,133.4785 Q4956.1719,133.4785 4956.8125,133.6504 Q4957.4688,133.8066 4958.0156,134.166 Z " fill="#000000"/><text fill="#000000" font-family="sans-serif" font-size="12" font-style="italic" lengthAdjust="spacing" textLength="79" x="5014.75" y="133.9492">&#171;Component&#187;</text><text fill="#000000" font-family="sans-serif" font-size="14" lengthAdjust="spacing" textLength="157" x="4975.75" y="152.0684">PlotCatalogDataInitializer</text><line style="stroke:#181818;stroke-width:0.5;" x1="4871" x2="5205" y1="160.582" y2="160.582"/><text fill="#000000" font-family="sans-serif" font-size="14" lengthAdjust="spacing" textLength="154" x="4876" y="179.6895">-plotCatalog PlotCatalog</text><line style="stroke:#181818;stroke-width:0.5;" x1="4871" x2="5205" y1="187.2031" y2="187.2031"/><text fill="#000000" font-family="sans-serif" font-size="14" lengthAdjust="spacing" textLength="324" x="4876" y="206.3105">+PlotCatalogDataInitializer(PlotCatalog plotCatalog)</text><text fill="#000000" font-family="sans-serif" font-size="14" lengthAdjust="spacing" textLength="101" x="4876" y="224.9316">+initialize(): void</text></g><!--class SeasonalPlots--><g id="elem_SeasonalPlots"><rect codeLine="117" fill="#F1F1F1" height="290.0742" id="SeasonalPlots" rx="2.5" ry="2.5" style="stroke:#181818;stroke-width:0.5;" width="1146" x="340" y="319"/><ellipse cx="863.75" cy="335" fill="#ADD1B2" rx="11" ry="11" style="stroke:#181818;stroke-width:1.0;"/><path d="M866.5156,330.875 Q866.6719,330.6563 866.8594,330.5469 Q867.0469,330.4375 867.2656,330.4375 Q867.6406,330.4375 867.875,330.7031 Q868.1094,330.9531 868.1094,331.5625 L868.1094,333.0156 Q868.1094,333.625 867.875,333.8906 Q867.6406,334.1563 867.2656,334.1563 Q866.9219,334.1563 866.7188,333.9531 Q866.5156,333.7656 866.4063,333.25 Q866.3594,332.8906 866.1719,332.7031 Q865.8438,332.3281 865.2344,332.1094 Q864.625,331.8906 864,331.8906 Q863.2344,331.8906 862.5938,332.2188 Q861.9688,332.5469 861.4688,333.2969 Q860.9844,334.0469 860.9844,335.0781 L860.9844,336.1719 Q860.9844,337.4063 861.875,338.2344 Q862.7656,339.0469 864.3594,339.0469 Q865.2969,339.0469 865.9531,338.7969 Q866.3438,338.6406 866.7656,338.2031 Q867.0313,337.9375 867.1719,337.8594 Q867.3281,337.7813 867.5313,337.7813 Q867.8594,337.7813 868.1094,338.0469 Q868.375,338.2969 868.375,338.6406 Q868.375,338.9844 868.0313,339.3906 Q867.5313,339.9688 866.7344,340.2969 Q865.6563,340.75 864.3594,340.75 Q862.8438,340.75 861.6406,340.125 Q860.6563,339.625 859.9688,338.5625 Q859.2813,337.4844 859.2813,336.2031 L859.2813,335.0469 Q859.2813,333.7188 859.8906,332.5781 Q860.5156,331.4219 861.6094,330.8125 Q862.7031,330.1875 863.9375,330.1875 Q864.6719,330.1875 865.3125,330.3594 Q865.9688,330.5156 866.5156,330.875 Z " fill="#000000"/><text fill="#000000" font-family="sans-serif" font-size="14" lengthAdjust="spacing" textLength="90" x="884.25" y="340.7969">SeasonalPlots</text><line style="stroke:#181818;stroke-width:0.5;" x1="341" x2="1485" y1="351" y2="351"/><text fill="#000000" font-family="sans-serif" font-size="14" lengthAdjust="spacing" textLength="151" x="346" y="370.1074">-electricityMeter: double</text><text fill="#000000" font-family="sans-serif" font-size="14" lengthAdjust="spacing" textLength="126" x="346" y="388.7285">-waterMeter: double</text><text fill="#000000" font-family="sans-serif" font-size="14" lengthAdjust="spacing" textLength="168" x="346" y="407.3496">-permanentCamper: String</text><text fill="#000000" font-family="sans-serif" font-size="14" lengthAdjust="spacing" textLength="216" x="346" y="425.9707">-paymentMethod: PaymentMethod</text><line style="stroke:#181818;stroke-width:0.5;" x1="341" x2="1485" y1="433.4844" y2="433.4844"/><text fill="#000000" font-family="sans-serif" font-size="14" lengthAdjust="spacing" textLength="1134" x="346" y="452.5918">+SeasonalPlots(String name, Double size, Money price, ParkingLot parking, double electricityMeter, double waterMeter, String permanentCamper, PaymentMethod paymentMethod)</text><text fill="#000000" font-family="sans-serif" font-size="14" lengthAdjust="spacing" textLength="326" x="346" y="471.2129">+setElectricityMeter(double electricityMeter): double</text><text fill="#000000" font-family="sans-serif" font-size="14" lengthAdjust="spacing" textLength="185" x="346" y="489.834">+getElectricityMeter(): double</text><text fill="#000000" font-family="sans-serif" font-size="14" lengthAdjust="spacing" textLength="279" x="346" y="508.4551">+setWaterMeter(double waterMeter): double</text><text fill="#000000" font-family="sans-serif" font-size="14" lengthAdjust="spacing" textLength="163" x="346" y="527.0762">+getWaterMeter(): double</text><text fill="#000000" font-family="sans-serif" font-size="14" lengthAdjust="spacing" textLength="202" x="346" y="545.6973">+getPermanentCamper(): String</text><text fill="#000000" font-family="sans-serif" font-size="14" lengthAdjust="spacing" textLength="265" x="346" y="564.3184">+setPermanentCamper(String value): void</text><text fill="#000000" font-family="sans-serif" font-size="14" lengthAdjust="spacing" textLength="250" x="346" y="582.9395">+getPaymentMethod(): PaymentMethod</text><text fill="#000000" font-family="sans-serif" font-size="14" lengthAdjust="spacing" textLength="313" x="346" y="601.5605">+setPaymentMethod(PaymentMethod value): void</text></g><!--class PaymentMethod--><g id="elem_PaymentMethod"><rect codeLine="132" fill="#F1F1F1" height="95.8633" id="PaymentMethod" rx="2.5" ry="2.5" style="stroke:#181818;stroke-width:0.5;" width="134" x="846" y="126"/><ellipse cx="861" cy="142" fill="#EB937F" rx="11" ry="11" style="stroke:#181818;stroke-width:1.0;"/><path d="M859.8594,142.7969 L859.8594,145.2969 L864.1875,145.2969 L864.1875,144.375 Q864.1875,143.7656 864.4219,143.5 Q864.6719,143.2344 865.0469,143.2344 Q865.4219,143.2344 865.6563,143.5 Q865.8906,143.7656 865.8906,144.375 L865.8906,147 L857.8906,147 Q857.2656,147 857,146.7656 Q856.75,146.5313 856.75,146.1406 Q856.75,145.7656 857.0156,145.5313 Q857.2813,145.2969 857.8906,145.2969 L858.1563,145.2969 L858.1563,138.6406 L857.8906,138.6406 Q857.2656,138.6406 857,138.4063 Q856.75,138.1719 856.75,137.7813 Q856.75,137.4063 857,137.1719 Q857.2656,136.9375 857.8906,136.9375 L865.5156,136.9375 L865.5156,139.5313 Q865.5156,140.1406 865.2813,140.4063 Q865.0625,140.6563 864.6719,140.6563 Q864.2969,140.6563 864.0625,140.4063 Q863.8281,140.1406 863.8281,139.5313 L863.8281,138.6406 L859.8594,138.6406 L859.8594,141.0938 L861.3438,141.0938 Q861.3438,140.4375 861.4688,140.25 Q861.7344,139.8438 862.2031,139.8438 Q862.5781,139.8438 862.8125,140.1094 Q863.0469,140.3594 863.0469,140.9688 L863.0469,142.9375 Q863.0469,143.4844 862.9219,143.6719 Q862.6563,144.0625 862.2031,144.0625 Q861.7344,144.0625 861.4688,143.6563 Q861.3438,143.4688 861.3438,142.7969 L859.8594,142.7969 Z " fill="#000000"/><text fill="#000000" font-family="sans-serif" font-size="14" lengthAdjust="spacing" textLength="102" x="875" y="147.7969">PaymentMethod</text><line style="stroke:#181818;stroke-width:0.5;" x1="847" x2="979" y1="158" y2="158"/><text fill="#000000" font-family="sans-serif" font-size="14" lengthAdjust="spacing" textLength="38" x="852" y="177.1074">NONE</text><text fill="#000000" font-family="sans-serif" font-size="14" lengthAdjust="spacing" textLength="66" x="852" y="195.7285">MONTHLY</text><text fill="#000000" font-family="sans-serif" font-size="14" lengthAdjust="spacing" textLength="73" x="852" y="214.3496">SEASONAL</text></g><!--class PlotDashboardController--><g id="elem_PlotDashboardController"><rect codeLine="137" fill="#F1F1F1" height="172.3086" id="PlotDashboardController" rx="2.5" ry="2.5" style="stroke:#181818;stroke-width:0.5;" width="398" x="3164" y="378"/><ellipse cx="3280.75" cy="400.291" fill="#ADD1B2" rx="11" ry="11" style="stroke:#181818;stroke-width:1.0;"/><path d="M3283.5156,396.166 Q3283.6719,395.9473 3283.8594,395.8379 Q3284.0469,395.7285 3284.2656,395.7285 Q3284.6406,395.7285 3284.875,395.9941 Q3285.1094,396.2441 3285.1094,396.8535 L3285.1094,398.3066 Q3285.1094,398.916 3284.875,399.1816 Q3284.6406,399.4473 3284.2656,399.4473 Q3283.9219,399.4473 3283.7188,399.2441 Q3283.5156,399.0566 3283.4063,398.541 Q3283.3594,398.1816 3283.1719,397.9941 Q3282.8438,397.6191 3282.2344,397.4004 Q3281.625,397.1816 3281,397.1816 Q3280.2344,397.1816 3279.5938,397.5098 Q3278.9688,397.8379 3278.4688,398.5879 Q3277.9844,399.3379 3277.9844,400.3691 L3277.9844,401.4629 Q3277.9844,402.6973 3278.875,403.5254 Q3279.7656,404.3379 3281.3594,404.3379 Q3282.2969,404.3379 3282.9531,404.0879 Q3283.3438,403.9316 3283.7656,403.4941 Q3284.0313,403.2285 3284.1719,403.1504 Q3284.3281,403.0723 3284.5313,403.0723 Q3284.8594,403.0723 3285.1094,403.3379 Q3285.375,403.5879 3285.375,403.9316 Q3285.375,404.2754 3285.0313,404.6816 Q3284.5313,405.2598 3283.7344,405.5879 Q3282.6563,406.041 3281.3594,406.041 Q3279.8438,406.041 3278.6406,405.416 Q3277.6563,404.916 3276.9688,403.8535 Q3276.2813,402.7754 3276.2813,401.4941 L3276.2813,400.3379 Q3276.2813,399.0098 3276.8906,397.8691 Q3277.5156,396.7129 3278.6094,396.1035 Q3279.7031,395.4785 3280.9375,395.4785 Q3281.6719,395.4785 3282.3125,395.6504 Q3282.9688,395.8066 3283.5156,396.166 Z " fill="#000000"/><text fill="#000000" font-family="sans-serif" font-size="12" font-style="italic" lengthAdjust="spacing" textLength="68" x="3345.25" y="395.9492">&#171;Controller&#187;</text><text fill="#000000" font-family="sans-serif" font-size="14" lengthAdjust="spacing" textLength="156" x="3301.25" y="414.0684">PlotDashboardController</text><line style="stroke:#181818;stroke-width:0.5;" x1="3165" x2="3561" y1="422.582" y2="422.582"/><text fill="#000000" font-family="sans-serif" font-size="14" lengthAdjust="spacing" textLength="161" x="3170" y="441.6895">+plotCatalog: PlotCatalog</text><line style="stroke:#181818;stroke-width:0.5;" x1="3165" x2="3561" y1="449.2031" y2="449.2031"/><text fill="#000000" font-family="sans-serif" font-size="14" lengthAdjust="spacing" textLength="323" x="3170" y="468.3105">+PlotDashboardController(PlotCatalog plotCatalog)</text><text fill="#000000" font-family="sans-serif" font-size="14" lengthAdjust="spacing" textLength="173" x="3170" y="486.9316">+plots(Model model): String</text><text fill="#000000" font-family="sans-serif" font-size="14" lengthAdjust="spacing" textLength="386" x="3170" y="505.5527">+changePlotDetails(Model model, PlotInformation info): String</text><text fill="#000000" font-family="sans-serif" font-size="14" lengthAdjust="spacing" textLength="336" x="3170" y="524.1738">+createPlot(Model model, PlotInformation info): String</text><text fill="#000000" font-family="sans-serif" font-size="14" lengthAdjust="spacing" textLength="335" x="3170" y="542.7949">+deletePlot(Model model, PlotInformation info): String</text></g><!--class PlotInformation--><g id="elem_PlotInformation"><rect codeLine="145" fill="#F1F1F1" height="170.3477" id="PlotInformation" rx="2.5" ry="2.5" style="stroke:#181818;stroke-width:0.5;" width="251" x="3237.5" y="89"/><ellipse cx="3311.25" cy="105" fill="#B4A7E5" rx="11" ry="11" style="stroke:#181818;stroke-width:1.0;"/><path d="M3312.2031,101.6406 L3312.2031,108.2969 L3313.9219,108.2969 Q3314.5313,108.2969 3314.7969,108.5313 Q3315.0625,108.7656 3315.0625,109.1563 Q3315.0625,109.5313 3314.7969,109.7656 Q3314.5313,110 3313.9219,110 L3308.7813,110 Q3308.1719,110 3307.9063,109.7656 Q3307.6406,109.5313 3307.6406,109.1406 Q3307.6406,108.7656 3307.9063,108.5313 Q3308.1719,108.2969 3308.7813,108.2969 L3310.5,108.2969 L3310.5,101.6406 L3308.7813,101.6406 Q3308.1719,101.6406 3307.9063,101.4063 Q3307.6406,101.1719 3307.6406,100.7813 Q3307.6406,100.4063 3307.9063,100.1719 Q3308.1719,99.9375 3308.7813,99.9375 L3313.9219,99.9375 Q3314.5313,99.9375 3314.7969,100.1719 Q3315.0625,100.4063 3315.0625,100.7813 Q3315.0625,101.1719 3314.7969,101.4063 Q3314.5313,101.6406 3313.9219,101.6406 L3312.2031,101.6406 Z " fill="#000000"/><text fill="#000000" font-family="sans-serif" font-size="14" font-style="italic" lengthAdjust="spacing" textLength="95" x="3331.75" y="110.7969">PlotInformation</text><line style="stroke:#181818;stroke-width:0.5;" x1="3238.5" x2="3487.5" y1="121" y2="121"/><text fill="#000000" font-family="sans-serif" font-size="14" lengthAdjust="spacing" textLength="239" x="3243.5" y="140.1074">+getPlotID(): Product.ProductIdentifier</text><text fill="#000000" font-family="sans-serif" font-size="14" lengthAdjust="spacing" textLength="119" x="3243.5" y="158.7285">+getName(): String</text><text fill="#000000" font-family="sans-serif" font-size="14" lengthAdjust="spacing" textLength="117" x="3243.5" y="177.3496">+getSize(): Double</text><text fill="#000000" font-family="sans-serif" font-size="14" lengthAdjust="spacing" textLength="174" x="3243.5" y="195.9707">+getParkingValue(): Integer</text><text fill="#000000" font-family="sans-serif" font-size="14" lengthAdjust="spacing" textLength="123" x="3243.5" y="214.5918">+getPrice(): Double</text><text fill="#000000" font-family="sans-serif" font-size="14" lengthAdjust="spacing" textLength="154" x="3243.5" y="233.2129">+getDescription(): String</text><text fill="#000000" font-family="sans-serif" font-size="14" lengthAdjust="spacing" textLength="127" x="3243.5" y="251.834">+getPicture(): String</text></g><!--class PlotCart--><g id="elem_PlotCart"><rect codeLine="20" fill="#F1F1F1" height="32" id="PlotCart" rx="2.5" ry="2.5" style="stroke:#181818;stroke-width:0.5;" width="83" x="4119.5" y="158"/><ellipse cx="4134.5" cy="174" fill="#ADD1B2" rx="11" ry="11" style="stroke:#181818;stroke-width:1.0;"/><path d="M4137.2656,169.875 Q4137.4219,169.6563 4137.6094,169.5469 Q4137.7969,169.4375 4138.0156,169.4375 Q4138.3906,169.4375 4138.625,169.7031 Q4138.8594,169.9531 4138.8594,170.5625 L4138.8594,172.0156 Q4138.8594,172.625 4138.625,172.8906 Q4138.3906,173.1563 4138.0156,173.1563 Q4137.6719,173.1563 4137.4688,172.9531 Q4137.2656,172.7656 4137.1563,172.25 Q4137.1094,171.8906 4136.9219,171.7031 Q4136.5938,171.3281 4135.9844,171.1094 Q4135.375,170.8906 4134.75,170.8906 Q4133.9844,170.8906 4133.3438,171.2188 Q4132.7188,171.5469 4132.2188,172.2969 Q4131.7344,173.0469 4131.7344,174.0781 L4131.7344,175.1719 Q4131.7344,176.4063 4132.625,177.2344 Q4133.5156,178.0469 4135.1094,178.0469 Q4136.0469,178.0469 4136.7031,177.7969 Q4137.0938,177.6406 4137.5156,177.2031 Q4137.7813,176.9375 4137.9219,176.8594 Q4138.0781,176.7813 4138.2813,176.7813 Q4138.6094,176.7813 4138.8594,177.0469 Q4139.125,177.2969 4139.125,177.6406 Q4139.125,177.9844 4138.7813,178.3906 Q4138.2813,178.9688 4137.4844,179.2969 Q4136.4063,179.75 4135.1094,179.75 Q4133.5938,179.75 4132.3906,179.125 Q4131.4063,178.625 4130.7188,177.5625 Q4130.0313,176.4844 4130.0313,175.2031 L4130.0313,174.0469 Q4130.0313,172.7188 4130.6406,171.5781 Q4131.2656,170.4219 4132.3594,169.8125 Q4133.4531,169.1875 4134.6875,169.1875 Q4135.4219,169.1875 4136.0625,169.3594 Q4136.7188,169.5156 4137.2656,169.875 Z " fill="#000000"/><text fill="#000000" font-family="sans-serif" font-size="14" lengthAdjust="spacing" textLength="51" x="4148.5" y="179.7969">PlotCart</text></g><!--class PlotReservation--><g id="elem_PlotReservation"><rect codeLine="22" fill="#F1F1F1" height="89.8242" id="PlotReservation" rx="2.5" ry="2.5" style="stroke:#181818;stroke-width:0.5;" width="667" x="3813.5" y="419"/><ellipse cx="4092.75" cy="441.291" fill="#ADD1B2" rx="11" ry="11" style="stroke:#181818;stroke-width:1.0;"/><path d="M4095.5156,437.166 Q4095.6719,436.9473 4095.8594,436.8379 Q4096.0469,436.7285 4096.2656,436.7285 Q4096.6406,436.7285 4096.875,436.9941 Q4097.1094,437.2441 4097.1094,437.8535 L4097.1094,439.3066 Q4097.1094,439.916 4096.875,440.1816 Q4096.6406,440.4473 4096.2656,440.4473 Q4095.9219,440.4473 4095.7188,440.2441 Q4095.5156,440.0566 4095.4063,439.541 Q4095.3594,439.1816 4095.1719,438.9941 Q4094.8438,438.6191 4094.2344,438.4004 Q4093.625,438.1816 4093,438.1816 Q4092.2344,438.1816 4091.5938,438.5098 Q4090.9688,438.8379 4090.4688,439.5879 Q4089.9844,440.3379 4089.9844,441.3691 L4089.9844,442.4629 Q4089.9844,443.6973 4090.875,444.5254 Q4091.7656,445.3379 4093.3594,445.3379 Q4094.2969,445.3379 4094.9531,445.0879 Q4095.3438,444.9316 4095.7656,444.4941 Q4096.0313,444.2285 4096.1719,444.1504 Q4096.3281,444.0723 4096.5313,444.0723 Q4096.8594,444.0723 4097.1094,444.3379 Q4097.375,444.5879 4097.375,444.9316 Q4097.375,445.2754 4097.0313,445.6816 Q4096.5313,446.2598 4095.7344,446.5879 Q4094.6563,447.041 4093.3594,447.041 Q4091.8438,447.041 4090.6406,446.416 Q4089.6563,445.916 4088.9688,444.8535 Q4088.2813,443.7754 4088.2813,442.4941 L4088.2813,441.3379 Q4088.2813,440.0098 4088.8906,438.8691 Q4089.5156,437.7129 4090.6094,437.1035 Q4091.7031,436.4785 4092.9375,436.4785 Q4093.6719,436.4785 4094.3125,436.6504 Q4094.9688,436.8066 4095.5156,437.166 Z " fill="#000000"/><text fill="#000000" font-family="sans-serif" font-size="12" font-style="italic" lengthAdjust="spacing" textLength="44" x="4141.25" y="436.9492">&#171;Entity&#187;</text><text fill="#000000" font-family="sans-serif" font-size="14" lengthAdjust="spacing" textLength="100" x="4113.25" y="455.0684">PlotReservation</text><line style="stroke:#181818;stroke-width:0.5;" x1="3814.5" x2="4479.5" y1="463.582" y2="463.582"/><text fill="#000000" font-family="sans-serif" font-size="14" lengthAdjust="spacing" textLength="655" x="3819.5" y="482.6895">+PlotReservation(UserAccount userAccount, Plot plot, LocalDateTime arrival, LocalDateTime departure)</text><text fill="#000000" font-family="sans-serif" font-size="14" lengthAdjust="spacing" textLength="187" x="3819.5" y="501.3105">+getIntervalUnit(): ChronoUnit</text></g><!--class PlotReservationRepository--><g id="elem_PlotReservationRepository"><rect codeLine="26" fill="#F1F1F1" height="32" id="PlotReservationRepository" rx="2.5" ry="2.5" style="stroke:#181818;stroke-width:0.5;" width="199" x="4265.5" y="158"/><ellipse cx="4280.5" cy="174" fill="#B4A7E5" rx="11" ry="11" style="stroke:#181818;stroke-width:1.0;"/><path d="M4281.4531,170.6406 L4281.4531,177.2969 L4283.1719,177.2969 Q4283.7813,177.2969 4284.0469,177.5313 Q4284.3125,177.7656 4284.3125,178.1563 Q4284.3125,178.5313 4284.0469,178.7656 Q4283.7813,179 4283.1719,179 L4278.0313,179 Q4277.4219,179 4277.1563,178.7656 Q4276.8906,178.5313 4276.8906,178.1406 Q4276.8906,177.7656 4277.1563,177.5313 Q4277.4219,177.2969 4278.0313,177.2969 L4279.75,177.2969 L4279.75,170.6406 L4278.0313,170.6406 Q4277.4219,170.6406 4277.1563,170.4063 Q4276.8906,170.1719 4276.8906,169.7813 Q4276.8906,169.4063 4277.1563,169.1719 Q4277.4219,168.9375 4278.0313,168.9375 L4283.1719,168.9375 Q4283.7813,168.9375 4284.0469,169.1719 Q4284.3125,169.4063 4284.3125,169.7813 Q4284.3125,170.1719 4284.0469,170.4063 Q4283.7813,170.6406 4283.1719,170.6406 L4281.4531,170.6406 Z " fill="#000000"/><text fill="#000000" font-family="sans-serif" font-size="14" font-style="italic" lengthAdjust="spacing" textLength="167" x="4294.5" y="179.7969">PlotReservationRepository</text></g><!--class DataInitializer--><g id="elem_DataInitializer"><rect codeLine="10" fill="#F1F1F1" height="32" id="DataInitializer" rx="2.5" ry="2.5" style="stroke:#181818;stroke-width:0.5;" width="116" x="6405" y="1033"/><ellipse cx="6420" cy="1049" fill="#ADD1B2" rx="11" ry="11" style="stroke:#181818;stroke-width:1.0;"/><path d="M6422.7656,1044.875 Q6422.9219,1044.6563 6423.1094,1044.5469 Q6423.2969,1044.4375 6423.5156,1044.4375 Q6423.8906,1044.4375 6424.125,1044.7031 Q6424.3594,1044.9531 6424.3594,1045.5625 L6424.3594,1047.0156 Q6424.3594,1047.625 6424.125,1047.8906 Q6423.8906,1048.1563 6423.5156,1048.1563 Q6423.1719,1048.1563 6422.9688,1047.9531 Q6422.7656,1047.7656 6422.6563,1047.25 Q6422.6094,1046.8906 6422.4219,1046.7031 Q6422.0938,1046.3281 6421.4844,1046.1094 Q6420.875,1045.8906 6420.25,1045.8906 Q6419.4844,1045.8906 6418.8438,1046.2188 Q6418.2188,1046.5469 6417.7188,1047.2969 Q6417.2344,1048.0469 6417.2344,1049.0781 L6417.2344,1050.1719 Q6417.2344,1051.4063 6418.125,1052.2344 Q6419.0156,1053.0469 6420.6094,1053.0469 Q6421.5469,1053.0469 6422.2031,1052.7969 Q6422.5938,1052.6406 6423.0156,1052.2031 Q6423.2813,1051.9375 6423.4219,1051.8594 Q6423.5781,1051.7813 6423.7813,1051.7813 Q6424.1094,1051.7813 6424.3594,1052.0469 Q6424.625,1052.2969 6424.625,1052.6406 Q6424.625,1052.9844 6424.2813,1053.3906 Q6423.7813,1053.9688 6422.9844,1054.2969 Q6421.9063,1054.75 6420.6094,1054.75 Q6419.0938,1054.75 6417.8906,1054.125 Q6416.9063,1053.625 6416.2188,1052.5625 Q6415.5313,1051.4844 6415.5313,1050.2031 L6415.5313,1049.0469 Q6415.5313,1047.7188 6416.1406,1046.5781 Q6416.7656,1045.4219 6417.8594,1044.8125 Q6418.9531,1044.1875 6420.1875,1044.1875 Q6420.9219,1044.1875 6421.5625,1044.3594 Q6422.2188,1044.5156 6422.7656,1044.875 Z " fill="#000000"/><text fill="#000000" font-family="sans-serif" font-size="14" lengthAdjust="spacing" textLength="84" x="6434" y="1054.7969">DataInitializer</text></g><!--class Catalog--><g id="elem_Catalog"><rect codeLine="11" fill="#F1F1F1" height="32" id="Catalog" rx="2.5" ry="2.5" style="stroke:#181818;stroke-width:0.5;" width="183" x="6165.5" y="1033"/><ellipse cx="6180.5" cy="1049" fill="#B4A7E5" rx="11" ry="11" style="stroke:#181818;stroke-width:1.0;"/><path d="M6181.4531,1045.6406 L6181.4531,1052.2969 L6183.1719,1052.2969 Q6183.7813,1052.2969 6184.0469,1052.5313 Q6184.3125,1052.7656 6184.3125,1053.1563 Q6184.3125,1053.5313 6184.0469,1053.7656 Q6183.7813,1054 6183.1719,1054 L6178.0313,1054 Q6177.4219,1054 6177.1563,1053.7656 Q6176.8906,1053.5313 6176.8906,1053.1406 Q6176.8906,1052.7656 6177.1563,1052.5313 Q6177.4219,1052.2969 6178.0313,1052.2969 L6179.75,1052.2969 L6179.75,1045.6406 L6178.0313,1045.6406 Q6177.4219,1045.6406 6177.1563,1045.4063 Q6176.8906,1045.1719 6176.8906,1044.7813 Q6176.8906,1044.4063 6177.1563,1044.1719 Q6177.4219,1043.9375 6178.0313,1043.9375 L6183.1719,1043.9375 Q6183.7813,1043.9375 6184.0469,1044.1719 Q6184.3125,1044.4063 6184.3125,1044.7813 Q6184.3125,1045.1719 6184.0469,1045.4063 Q6183.7813,1045.6406 6183.1719,1045.6406 L6181.4531,1045.6406 Z " fill="#000000"/><text fill="#000000" font-family="sans-serif" font-size="14" font-style="italic" lengthAdjust="spacing" textLength="49" x="6194.5" y="1054.7969">Catalog</text><rect fill="#FEFEFE" height="17.9609" style="stroke:#181818;stroke-width:1.0;stroke-dasharray:2.0,2.0;" width="100" x="6251.5" y="1030"/><text fill="#000000" font-family="sans-serif" font-size="12" font-style="italic" lengthAdjust="spacing" textLength="98" x="6252.5" y="1043.9492">T extends Product</text></g><!--link Plot to DetailedProduct--><g id="link_Plot_DetailedProduct"><path codeLine="156" d="M590,863.2 C590,925.36 590,982.63 590,1014.97 " fill="none" id="Plot-to-DetailedProduct" style="stroke:#181818;stroke-width:1.0;"/><polygon fill="none" points="590,1032.97,596,1014.97,584,1014.97,590,1032.97" style="stroke:#181818;stroke-width:1.0;"/></g><!--link ParkingLot to Plot--><g id="link_ParkingLot_Plot"><path codeLine="157" d="M176,563.54 C176,652.2 176,768 176,768 C176,768 255.18,768 354.27,768 " fill="none" id="ParkingLot-to-Plot" style="stroke:#181818;stroke-width:1.0;"/><ellipse cx="362.27" cy="768" fill="#FEFEFE" rx="8" ry="8" style="stroke:#181818;stroke-width:1.0;"/><line style="stroke:#181818;stroke-width:1.0;" x1="354.27" x2="370.27" y1="768" y2="768"/><line style="stroke:#181818;stroke-width:1.0;" x1="362.27" x2="362.27" y1="760" y2="776"/></g><!--link PlotCatalog to Catalog--><g id="link_PlotCatalog_Catalog"><path codeLine="159" d="M3639.34,791 C4157.13,791 6257,791 6257,791 C6257,791 6257,958.38 6257,1014.86 " fill="none" id="PlotCatalog-to-Catalog" style="stroke:#181818;stroke-width:1.0;"/><polygon fill="none" points="6257,1032.86,6263,1014.86,6251,1014.86,6257,1032.86" style="stroke:#181818;stroke-width:1.0;"/><text fill="#000000" font-family="sans-serif" font-size="13" lengthAdjust="spacing" textLength="102" x="4966.1" y="787.0283">&lt;&lt;bind T-&gt;Plot&gt;&gt;</text></g><!--link SiteState to PlotCatalog--><g id="link_SiteState_PlotCatalog"><path codeLine="160" d="M3618.25,502.75 C3618.25,564.11 3618.25,666.35 3618.25,721.64 " fill="none" id="SiteState-to-PlotCatalog" style="stroke:#181818;stroke-width:1.0;"/><ellipse cx="3618.25" cy="729.64" fill="#FEFEFE" rx="8" ry="8" style="stroke:#181818;stroke-width:1.0;"/><line style="stroke:#181818;stroke-width:1.0;" x1="3618.25" x2="3618.25" y1="721.64" y2="737.64"/><line style="stroke:#181818;stroke-width:1.0;" x1="3626.25" x2="3610.25" y1="729.64" y2="729.64"/></g><!--link FieldType to PlotCatalogAvailabilityTable--><g id="link_FieldType_PlotCatalogAvailabilityTable"><path codeLine="162" d="M1788.5,585.26 C1788.5,613 1788.5,626.15 1788.5,652.81 " fill="none" id="FieldType-to-PlotCatalogAvailabilityTable" style="stroke:#181818;stroke-width:1.0;"/><ellipse cx="1788.5" cy="660.81" fill="#FEFEFE" rx="8" ry="8" style="stroke:#181818;stroke-width:1.0;"/><line style="stroke:#181818;stroke-width:1.0;" x1="1788.5" x2="1788.5" y1="652.81" y2="668.81"/><line style="stroke:#181818;stroke-width:1.0;" x1="1796.5" x2="1780.5" y1="660.81" y2="660.81"/></g><!--link Fields to PlotCatalogAvailabilityTable--><g id="link_Fields_PlotCatalogAvailabilityTable"><path codeLine="163" d="M2081,581.34 C2081,610.2 2081,624.81 2081,652.69 " fill="none" id="Fields-to-PlotCatalogAvailabilityTable" style="stroke:#181818;stroke-width:1.0;"/><ellipse cx="2081" cy="660.69" fill="#FEFEFE" rx="8" ry="8" style="stroke:#181818;stroke-width:1.0;"/><line style="stroke:#181818;stroke-width:1.0;" x1="2081" x2="2081" y1="652.69" y2="668.69"/><line style="stroke:#181818;stroke-width:1.0;" x1="2089" x2="2073" y1="660.69" y2="660.69"/></g><!--link PlotCatalogDataInitializer to DataInitializer--><g id="link_PlotCatalogDataInitializer_DataInitializer"><path codeLine="166" d="M5206.01,174 C5582.89,174 6463,174 6463,174 C6463,174 6463,894.9 6463,1014.69 " fill="none" id="PlotCatalogDataInitializer-to-DataInitializer" style="stroke:#181818;stroke-width:1.0;"/><polygon fill="none" points="6463,1032.69,6469,1014.69,6457,1014.69,6463,1032.69" style="stroke:#181818;stroke-width:1.0;"/></g><!--link SeasonalPlots to Plot--><g id="link_SeasonalPlots_Plot"><path codeLine="168" d="M590,609.08 C590,630.42 590,633.93 590,653.93 " fill="none" id="SeasonalPlots-to-Plot" style="stroke:#181818;stroke-width:1.0;"/><polygon fill="none" points="590,671.93,596,653.93,584,653.93,590,671.93" style="stroke:#181818;stroke-width:1.0;"/></g><!--link PaymentMethod to SeasonalPlots--><g id="link_PaymentMethod_SeasonalPlots"><path codeLine="170" d="M913,222.21 C913,249.03 913,267.97 913,302.92 " fill="none" id="PaymentMethod-to-SeasonalPlots" style="stroke:#181818;stroke-width:1.0;"/><ellipse cx="913" cy="310.92" fill="#FEFEFE" rx="8" ry="8" style="stroke:#181818;stroke-width:1.0;"/><line style="stroke:#181818;stroke-width:1.0;" x1="913" x2="913" y1="302.92" y2="318.92"/><line style="stroke:#181818;stroke-width:1.0;" x1="921" x2="905" y1="310.92" y2="310.92"/></g><!--link Cart to Reservation--><!--link ReservationRepository to Reservation--><!--link PlotCart to PlotReservation--><!--link PlotReservationRepository to PlotReservation--><!--link PlotCart to Cart--><g id="link_PlotCart_Cart"><path codeLine="178" d="M4174.83,190.09 C4174.83,223.85 4174.83,299 4174.83,299 C4174.83,299 5418,299 5418,299 C5418,299 5418,388.36 5418,429.88 " fill="none" id="PlotCart-to-Cart" style="stroke:#181818;stroke-width:1.0;"/><polygon fill="none" points="5418,447.88,5424,429.88,5412,429.88,5418,447.88" style="stroke:#181818;stroke-width:1.0;"/><text fill="#000000" font-family="sans-serif" font-size="13" lengthAdjust="spacing" textLength="221" x="4594.4" y="295.0283">&lt;&lt;bind T-&gt;Plot, U-&gt;PlotReservation&gt;&gt;</text></g><!--link PlotReservation to Reservation--><g id="link_PlotReservation_Reservation"><path codeLine="179" d="M4480.67,495 C4846.73,495 5383,495 5383,495 C5383,495 5383,674.61 5383,733.27 " fill="none" id="PlotReservation-to-Reservation" style="stroke:#181818;stroke-width:1.0;"/><polygon fill="none" points="5383,751.27,5389,733.27,5377,733.27,5383,751.27" style="stroke:#181818;stroke-width:1.0;"/></g><!--link PlotReservationRepository to ReservationRepository--><g id="link_PlotReservationRepository_ReservationRepository"><path codeLine="180" d="M4398.17,190.41 C4398.17,219.94 4398.17,279 4398.17,279 C4398.17,279 5823,279 5823,279 C5823,279 5823,384.9 5823,429.91 " fill="none" id="PlotReservationRepository-to-ReservationRepository" style="stroke:#181818;stroke-width:1.0;"/><polygon fill="none" points="5823,447.91,5829,429.91,5817,429.91,5823,447.91" style="stroke:#181818;stroke-width:1.0;"/><text fill="#000000" font-family="sans-serif" font-size="13" lengthAdjust="spacing" textLength="221" x="4928.74" y="275.0283">&lt;&lt;bind T-&gt;Plot, U-&gt;PlotReservation&gt;&gt;</text></g><!--link PlotCatalogController to PlotCatalogAvailabilityTable--><g id="link_PlotCatalogController_PlotCatalogAvailabilityTable"><path codeLine="182" d="M2373.5,596.68 C2373.5,620.92 2373.5,639.83 2373.5,662.86 " fill="none" id="PlotCatalogController-to-PlotCatalogAvailabilityTable" style="stroke:#181818;stroke-width:1.0;stroke-dasharray:7.0,7.0;"/><polygon fill="#181818" points="2373.5,668.86,2377.5,659.86,2373.5,663.86,2369.5,659.86,2373.5,668.86" style="stroke:#181818;stroke-width:1.0;"/><text fill="#000000" font-family="sans-serif" font-size="13" lengthAdjust="spacing" textLength="35" x="2337.5" y="628.7983">&#171;use&#187;</text></g><!--link PlotInformation to PlotDashboardController--><g id="link_PlotInformation_PlotDashboardController"><path codeLine="184" d="M3363,259.05 C3363,296.49 3363,324.4 3363,361.95 " fill="none" id="PlotInformation-to-PlotDashboardController" style="stroke:#181818;stroke-width:1.0;"/><ellipse cx="3363" cy="369.95" fill="#FEFEFE" rx="8" ry="8" style="stroke:#181818;stroke-width:1.0;"/><line style="stroke:#181818;stroke-width:1.0;" x1="3363" x2="3363" y1="361.95" y2="377.95"/><line style="stroke:#181818;stroke-width:1.0;" x1="3371" x2="3355" y1="369.95" y2="369.95"/></g><!--link PlotDashboardController to PlotCatalog--><g id="link_PlotDashboardController_PlotCatalog"><path codeLine="185" d="M3511.67,550.16 C3511.67,613.07 3511.67,688.61 3511.67,731.73 " fill="none" id="PlotDashboardController-to-PlotCatalog" style="stroke:#181818;stroke-width:1.0;stroke-dasharray:7.0,7.0;"/><polygon fill="#181818" points="3511.67,737.73,3515.67,728.73,3511.67,732.73,3507.67,728.73,3511.67,737.73" style="stroke:#181818;stroke-width:1.0;"/><text fill="#000000" font-family="sans-serif" font-size="13" lengthAdjust="spacing" textLength="35" x="3475.67" y="639.9683">&#171;use&#187;</text></g><!--link PlotCatalogController to PlotCatalog--><g id="link_PlotCatalogController_PlotCatalog"><path codeLine="186" d="M3128.68,574 C3301.07,574 3461.33,574 3461.33,574 C3461.33,574 3461.33,677.41 3461.33,731.69 " fill="none" id="PlotCatalogController-to-PlotCatalog" style="stroke:#181818;stroke-width:1.0;stroke-dasharray:7.0,7.0;"/><polygon fill="#181818" points="3461.33,737.69,3465.33,728.69,3461.33,732.69,3457.33,728.69,3461.33,737.69" style="stroke:#181818;stroke-width:1.0;"/><text fill="#000000" font-family="sans-serif" font-size="13" lengthAdjust="spacing" textLength="35" x="3340.85" y="570.0283">&#171;use&#187;</text></g><!--SRC=[nHZRRjisz5rVGM0l3Y8RHO4zBF0CkBRI6BKJmtPR3CDGC18j4v55ZQIJkbt_VOUaBYGbEsa7T2dII8VdpdFLZYO4aNqXZsXBIPQ8ODT0zaJk68340yqBpF4UnHaMOYmbf_S7IMOnozVq2q6lB9ICvaGU2u8O1shhu0sE7rBE3daoOHdZw9VhIFqBS9QnfptzJFFKmYu06wTaBOyPGTS08K6WfQCOxml0BJ8ilmmEacPYC2KIqumaIywIGonBHCRJWS0P4GMZkTmg7a-CFmnYnibWYYMUvLHId845F00CmhSu9gV9W29ZwM1Y_WutY7oM94y4AiMEEZNaH13-Y2LbEP1osQOBqViQj6gmXvlHw3c63dfRdyQebt1OaO89AXa_Vf-EGL1UbYkbo9WKw6k0uAT2K32BN9XJzMCCNSAvSb83_zQ1OIimZ799vN4qQaWkFPpUUtWSnp64daI7vZdKpBHE8Pgp66SG56H3zmHXpkaZpdnmGY0uvO6JYqPOIkHCkHdGtqCyzIwkq6J7MSxKMuSPpPruQZRk3neAO_I4vLkQ6WlxNuK4_FWR8Xc98HDZC7_21FZwT_HgyFgtAvImmtr6FEmdC89NUAy7lxfubnKUc1DvV9L9NQYY0zNWjLG33e-C9YrH7skbpWYna4hsZIqsOzjZohT-RFG5PFeLcbhUWUk4YfDUeQLvc3DpPJg4UZca_XLQWo5v6YAREaG5M0Ul2vQJ8xor-PWGKU6nLAY6YxBIF3MdXaAT-4h0gIglwiXIkW9tSZG-8FbXRt4R3XM0S1rcbJTkxsuZ_V1czYxwj1oltirktsh0PBpotXVBo0Nr-qOLunCL_odKK0tAy3t979qgv4QXdaCN8eVcmZB4JPQoyXhzBxSqWyFUtmV2Zq1B9NW4uWByCQT23XN1g9DLZVgrzkVOvBjoPftnzU4KibubVVlKZxXImV4ZT2DyJpC8lWs6Uwirva9EyR4b11XqmqcUoftdu7E2UZK3L0cpQXWgvOIMXtJv4sMmuYIngtFlhb1_SJQqAkX8bz2IXLs9DRiHifgBoivpsjP2RsYwo-0NCjp27zGNXVGbXsXDAgsD5EZuMliNYbdhigGjqvtOPgKLLj0NCOjPbk52w91Ou49pAbrohSUeqSXFHmtVm61aWk5w5KMV9dUBvJpQHFC_6jZDxEtD77utqRG1hgDvDAaWgsWThJv4qqztcvjevO80yTf9kZYZq7gD0MxjWNW_-CaR2-4YdSxcsfvUoK4NoB14XGwQri-s3XUjn34EArD4JOvNZQyCaEO9-UnfYlSg63sWOTMhoP5Y5rOuIFDfNWsBfavhOovQqaLvqd3LddDQcXu2WBaYTpGIrK4bj9Dsh3Nf8YvFJbAVg40mC4WECKhuSDWyLwN_icWmdMWtfxnh9hb2tPDYKsOlE-NR2OqikU4vVgXJXOig6ggfNQMhdhVgPAxzTYXAERq5IqY6zkh_49qhQ6ShpzbwOITCsPL-ijGSPlEFX3pyRBa59u__XrotKQrmdX9N1N_aVqQmjGZye0xGLd-w1hfrsrAxPi5MRV0sNrKWzWMCiN17rQ1ivMcxF9ncTIhNMudRErN2rWGB5JcwhPVAMBl4Wa1kkVkDNWKwu0NXUwoCci1EgWxj5bRWunwE5lhxXfgxhLUZgwD8h-nZQXy8or6yx7Pw_ZVBG6XDtDL24ABsGgILhGyQ_UjswQaUkleXH_cBkk95deJU2SdUdfLsK7eerGhci6tqRZEqiDk7IzSwVoCIROpIBPsTqt6DsQ5QTobyDDUV9tfgkKDPcDxUjBYxtToKaziw6g_lRiVpphoROh6xPvWd_wahd-3qJCuzKo8kuvsgdPgt_eOct2Ac3cRvbi65g1e44zIM-HmuWUlM-_BtaW8U-J7IhktGecWMEtqmrO5XFcGDoh-p1EwLRcarQm7kBQHtnu9-OWKla_s3YfxMv5Pj_HrqKo9YJdM7xFeQGEDgrNJC_HO4kaFq-_-CaF-vqwex_VwbTeP1h-92KzMXDHpUmoICDlsHMTc2fXbLv5Na1StGwnsr5oCpV3-FvwZcTP3IFk_RRE1KOuDJ6kbaiXBje0Q1wfge_-UE9d3VVoLzU-eChES6vz3ldamhjJr-taUym7jt-9x-u6VnDbV5fNzFC56O1ui3t5rBdg8_er0Zj8Lg3_ilaXrqJlneC1YTZG357IQYYe6TwLNmT1Iwu0JS5zTmVv5sbZB_0W00]--></g></svg>