<?xml version="1.0" encoding="us-ascii" standalone="no"?><svg xmlns="http://www.w3.org/2000/svg" xmlns:xlink="http://www.w3.org/1999/xlink" contentStyleType="text/css" height="1087px" preserveAspectRatio="none" style="width:1948px;height:1087px;background:#FEFEFE;" version="1.1" viewBox="0 0 1948 1087" width="1948px" zoomAndPan="magnify"><defs/><g><rect fill="#FEFEFE" height="1087" style="stroke:none;stroke-width:1.0;" width="1948" x="0" y="0"/><!--cluster campingplatz--><g id="cluster_campingplatz"><rect fill="none" height="1074" rx="2.5" ry="2.5" style="stroke:#000000;stroke-width:1.5;" width="1383" x="7" y="7"/><path d="M109,7 L109,18.6211 L99,28.6211 L7,28.6211 " fill="none" style="stroke:#000000;stroke-width:1.5;"/><text fill="#000000" font-family="sans-serif" font-size="14" font-weight="bold" lengthAdjust="spacing" textLength="92" x="10" y="23.1074">campingplatz</text></g><!--cluster customer--><g id="cluster_customer"><rect fill="none" height="1005" rx="2.5" ry="2.5" style="stroke:#000000;stroke-width:1.5;" width="1335" x="31" y="52"/><path d="M107,52 L107,63.6211 L97,73.6211 L31,73.6211 " fill="none" style="stroke:#000000;stroke-width:1.5;"/><text fill="#000000" font-family="sans-serif" font-size="14" font-weight="bold" lengthAdjust="spacing" textLength="66" x="34" y="68.1074">customer</text></g><!--cluster org--><g id="cluster_org"><rect fill="none" height="292" rx="2.5" ry="2.5" style="stroke:#000000;stroke-width:1.5;" width="528" x="1414" y="767"/><path d="M1448,767 L1448,778.6211 L1438,788.6211 L1414,788.6211 " fill="none" style="stroke:#000000;stroke-width:1.5;"/><text fill="#000000" font-family="sans-serif" font-size="14" font-weight="bold" lengthAdjust="spacing" textLength="24" x="1417" y="783.1074">org</text></g><!--cluster salespointframework--><g id="cluster_salespointframework"><rect fill="none" height="154" rx="2.5" ry="2.5" style="stroke:#000000;stroke-width:1.5;" width="196" x="1438" y="857"/><path d="M1595,857 L1595,868.6211 L1585,878.6211 L1438,878.6211 " fill="none" style="stroke:#000000;stroke-width:1.5;"/><text fill="#000000" font-family="sans-serif" font-size="14" font-weight="bold" lengthAdjust="spacing" textLength="147" x="1441" y="873.1074">salespointframework</text></g><!--cluster core--><g id="cluster_core"><rect fill="none" height="85" rx="2.5" ry="2.5" style="stroke:#000000;stroke-width:1.5;" width="148" x="1462" y="902"/><path d="M1504,902 L1504,913.6211 L1494,923.6211 L1462,923.6211 " fill="none" style="stroke:#000000;stroke-width:1.5;"/><text fill="#000000" font-family="sans-serif" font-size="14" font-weight="bold" lengthAdjust="spacing" textLength="32" x="1465" y="918.1074">core</text></g><!--cluster springframework--><g id="cluster_springframework"><rect fill="none" height="223" rx="2.5" ry="2.5" style="stroke:#000000;stroke-width:1.5;" width="260" x="1658" y="812"/><path d="M1787,812 L1787,823.6211 L1777,833.6211 L1658,833.6211 " fill="none" style="stroke:#000000;stroke-width:1.5;"/><text fill="#000000" font-family="sans-serif" font-size="14" font-weight="bold" lengthAdjust="spacing" textLength="119" x="1661" y="828.1074">springframework</text></g><!--cluster data--><g id="cluster_data"><rect fill="none" height="154" rx="2.5" ry="2.5" style="stroke:#000000;stroke-width:1.5;" width="212" x="1682" y="857"/><path d="M1722,857 L1722,868.6211 L1712,878.6211 L1682,878.6211 " fill="none" style="stroke:#000000;stroke-width:1.5;"/><text fill="#000000" font-family="sans-serif" font-size="14" font-weight="bold" lengthAdjust="spacing" textLength="30" x="1685" y="873.1074">data</text></g><!--cluster repository--><g id="cluster_repository"><rect fill="none" height="85" rx="2.5" ry="2.5" style="stroke:#000000;stroke-width:1.5;" width="164" x="1706" y="902"/><path d="M1788,902 L1788,913.6211 L1778,923.6211 L1706,923.6211 " fill="none" style="stroke:#000000;stroke-width:1.5;"/><text fill="#000000" font-family="sans-serif" font-size="14" font-weight="bold" lengthAdjust="spacing" textLength="72" x="1709" y="918.1074">repository</text></g><!--class Customer--><g id="elem_Customer"><rect codeLine="11" fill="#F1F1F1" height="246.793" id="Customer" rx="2.5" ry="2.5" style="stroke:#181818;stroke-width:0.5;" width="254" x="1096" y="89"/><ellipse cx="1188.25" cy="111.291" fill="#ADD1B2" rx="11" ry="11" style="stroke:#181818;stroke-width:1.0;"/><path d="M1191.0156,107.166 Q1191.1719,106.9473 1191.3594,106.8379 Q1191.5469,106.7285 1191.7656,106.7285 Q1192.1406,106.7285 1192.375,106.9941 Q1192.6094,107.2441 1192.6094,107.8535 L1192.6094,109.3066 Q1192.6094,109.916 1192.375,110.1816 Q1192.1406,110.4473 1191.7656,110.4473 Q1191.4219,110.4473 1191.2188,110.2441 Q1191.0156,110.0566 1190.9063,109.541 Q1190.8594,109.1816 1190.6719,108.9941 Q1190.3438,108.6191 1189.7344,108.4004 Q1189.125,108.1816 1188.5,108.1816 Q1187.7344,108.1816 1187.0938,108.5098 Q1186.4688,108.8379 1185.9688,109.5879 Q1185.4844,110.3379 1185.4844,111.3691 L1185.4844,112.4629 Q1185.4844,113.6973 1186.375,114.5254 Q1187.2656,115.3379 1188.8594,115.3379 Q1189.7969,115.3379 1190.4531,115.0879 Q1190.8438,114.9316 1191.2656,114.4941 Q1191.5313,114.2285 1191.6719,114.1504 Q1191.8281,114.0723 1192.0313,114.0723 Q1192.3594,114.0723 1192.6094,114.3379 Q1192.875,114.5879 1192.875,114.9316 Q1192.875,115.2754 1192.5313,115.6816 Q1192.0313,116.2598 1191.2344,116.5879 Q1190.1563,117.041 1188.8594,117.041 Q1187.3438,117.041 1186.1406,116.416 Q1185.1563,115.916 1184.4688,114.8535 Q1183.7813,113.7754 1183.7813,112.4941 L1183.7813,111.3379 Q1183.7813,110.0098 1184.3906,108.8691 Q1185.0156,107.7129 1186.1094,107.1035 Q1187.2031,106.4785 1188.4375,106.4785 Q1189.1719,106.4785 1189.8125,106.6504 Q1190.4688,106.8066 1191.0156,107.166 Z " fill="#000000"/><text fill="#000000" font-family="sans-serif" font-size="12" font-style="italic" lengthAdjust="spacing" textLength="44" x="1217.25" y="106.9492">&#171;Entity&#187;</text><text fill="#000000" font-family="sans-serif" font-size="14" lengthAdjust="spacing" textLength="61" x="1208.75" y="125.0684">Customer</text><line style="stroke:#181818;stroke-width:0.5;" x1="1097" x2="1349" y1="133.582" y2="133.582"/><text fill="#000000" font-family="sans-serif" font-size="14" lengthAdjust="spacing" textLength="55" x="1102" y="152.6895">-id: UUID</text><text fill="#000000" font-family="sans-serif" font-size="14" lengthAdjust="spacing" textLength="172" x="1102" y="171.3105">-userAccount: UserAccount</text><line style="stroke:#181818;stroke-width:0.5;" x1="1097" x2="1349" y1="178.8242" y2="178.8242"/><text fill="#000000" font-family="sans-serif" font-size="14" lengthAdjust="spacing" textLength="242" x="1102" y="197.9316">+Customer(UserAccount userAccount)</text><text fill="#000000" font-family="sans-serif" font-size="14" lengthAdjust="spacing" textLength="88" x="1102" y="216.5527">+getId(): UUID</text><text fill="#000000" font-family="sans-serif" font-size="14" lengthAdjust="spacing" textLength="147" x="1102" y="235.1738">+getUsername(): String</text><text fill="#000000" font-family="sans-serif" font-size="14" lengthAdjust="spacing" textLength="147" x="1102" y="253.7949">+getFirstName(): String</text><text fill="#000000" font-family="sans-serif" font-size="14" lengthAdjust="spacing" textLength="146" x="1102" y="272.416">+getLastName(): String</text><text fill="#000000" font-family="sans-serif" font-size="14" lengthAdjust="spacing" textLength="206" x="1102" y="291.0371">+getUserAccount(): UserAccount</text><text fill="#000000" font-family="sans-serif" font-size="14" lengthAdjust="spacing" textLength="104" x="1102" y="309.6582">+getRole(): Role</text><text fill="#000000" font-family="sans-serif" font-size="14" lengthAdjust="spacing" textLength="138" x="1102" y="328.2793">+setRole(Role r): void</text></g><!--class Roles--><g id="elem_Roles"><rect codeLine="24" fill="#F1F1F1" height="215.5898" id="Roles" rx="2.5" ry="2.5" style="stroke:#181818;stroke-width:0.5;" width="195" x="865.5" y="104.5"/><ellipse cx="940.75" cy="120.5" fill="#EB937F" rx="11" ry="11" style="stroke:#181818;stroke-width:1.0;"/><path d="M939.6094,121.2969 L939.6094,123.7969 L943.9375,123.7969 L943.9375,122.875 Q943.9375,122.2656 944.1719,122 Q944.4219,121.7344 944.7969,121.7344 Q945.1719,121.7344 945.4063,122 Q945.6406,122.2656 945.6406,122.875 L945.6406,125.5 L937.6406,125.5 Q937.0156,125.5 936.75,125.2656 Q936.5,125.0313 936.5,124.6406 Q936.5,124.2656 936.7656,124.0313 Q937.0313,123.7969 937.6406,123.7969 L937.9063,123.7969 L937.9063,117.1406 L937.6406,117.1406 Q937.0156,117.1406 936.75,116.9063 Q936.5,116.6719 936.5,116.2813 Q936.5,115.9063 936.75,115.6719 Q937.0156,115.4375 937.6406,115.4375 L945.2656,115.4375 L945.2656,118.0313 Q945.2656,118.6406 945.0313,118.9063 Q944.8125,119.1563 944.4219,119.1563 Q944.0469,119.1563 943.8125,118.9063 Q943.5781,118.6406 943.5781,118.0313 L943.5781,117.1406 L939.6094,117.1406 L939.6094,119.5938 L941.0938,119.5938 Q941.0938,118.9375 941.2188,118.75 Q941.4844,118.3438 941.9531,118.3438 Q942.3281,118.3438 942.5625,118.6094 Q942.7969,118.8594 942.7969,119.4688 L942.7969,121.4375 Q942.7969,121.9844 942.6719,122.1719 Q942.4063,122.5625 941.9531,122.5625 Q941.4844,122.5625 941.2188,122.1563 Q941.0938,121.9688 941.0938,121.2969 L939.6094,121.2969 Z " fill="#000000"/><text fill="#000000" font-family="sans-serif" font-size="14" lengthAdjust="spacing" textLength="36" x="961.25" y="126.2969">Roles</text><line style="stroke:#181818;stroke-width:0.5;" x1="866.5" x2="1059.5" y1="136.5" y2="136.5"/><text fill="#000000" font-family="sans-serif" font-size="14" lengthAdjust="spacing" textLength="38" x="871.5" y="155.6074">NONE</text><text fill="#000000" font-family="sans-serif" font-size="14" lengthAdjust="spacing" textLength="78" x="871.5" y="174.2285">CUSTOMER</text><text fill="#000000" font-family="sans-serif" font-size="14" lengthAdjust="spacing" textLength="75" x="871.5" y="192.8496">EMPLOYEE</text><text fill="#000000" font-family="sans-serif" font-size="14" lengthAdjust="spacing" textLength="38" x="871.5" y="211.4707">BOSS</text><text fill="#000000" font-family="sans-serif" font-size="14" lengthAdjust="spacing" textLength="4" x="871.5" y="230.0918">&#160;</text><text fill="#000000" font-family="sans-serif" font-size="14" lengthAdjust="spacing" textLength="66" x="871.5" y="248.7129">-role: Role</text><line style="stroke:#181818;stroke-width:0.5;" x1="866.5" x2="1059.5" y1="256.2266" y2="256.2266"/><text fill="#000000" font-family="sans-serif" font-size="14" lengthAdjust="spacing" textLength="111" x="871.5" y="275.334">+Roles(Role role)</text><text fill="#000000" font-family="sans-serif" font-size="14" lengthAdjust="spacing" textLength="111" x="871.5" y="293.9551">+getValue(): Role</text><text fill="#000000" font-family="sans-serif" font-size="14" lengthAdjust="spacing" text-decoration="underline" textLength="183" x="871.5" y="312.5762">+fromNumber(Integer i): Role</text></g><!--class CustomerController--><g id="elem_CustomerController"><rect codeLine="35" fill="#F1F1F1" height="153.6875" id="CustomerController" rx="2.5" ry="2.5" style="stroke:#181818;stroke-width:0.5;" width="464" x="366" y="135.5"/><ellipse cx="532.25" cy="157.791" fill="#ADD1B2" rx="11" ry="11" style="stroke:#181818;stroke-width:1.0;"/><path d="M535.0156,153.666 Q535.1719,153.4473 535.3594,153.3379 Q535.5469,153.2285 535.7656,153.2285 Q536.1406,153.2285 536.375,153.4941 Q536.6094,153.7441 536.6094,154.3535 L536.6094,155.8066 Q536.6094,156.416 536.375,156.6816 Q536.1406,156.9473 535.7656,156.9473 Q535.4219,156.9473 535.2188,156.7441 Q535.0156,156.5566 534.9063,156.041 Q534.8594,155.6816 534.6719,155.4941 Q534.3438,155.1191 533.7344,154.9004 Q533.125,154.6816 532.5,154.6816 Q531.7344,154.6816 531.0938,155.0098 Q530.4688,155.3379 529.9688,156.0879 Q529.4844,156.8379 529.4844,157.8691 L529.4844,158.9629 Q529.4844,160.1973 530.375,161.0254 Q531.2656,161.8379 532.8594,161.8379 Q533.7969,161.8379 534.4531,161.5879 Q534.8438,161.4316 535.2656,160.9941 Q535.5313,160.7285 535.6719,160.6504 Q535.8281,160.5723 536.0313,160.5723 Q536.3594,160.5723 536.6094,160.8379 Q536.875,161.0879 536.875,161.4316 Q536.875,161.7754 536.5313,162.1816 Q536.0313,162.7598 535.2344,163.0879 Q534.1563,163.541 532.8594,163.541 Q531.3438,163.541 530.1406,162.916 Q529.1563,162.416 528.4688,161.3535 Q527.7813,160.2754 527.7813,158.9941 L527.7813,157.8379 Q527.7813,156.5098 528.3906,155.3691 Q529.0156,154.2129 530.1094,153.6035 Q531.2031,152.9785 532.4375,152.9785 Q533.1719,152.9785 533.8125,153.1504 Q534.4688,153.3066 535.0156,153.666 Z " fill="#000000"/><text fill="#000000" font-family="sans-serif" font-size="12" font-style="italic" lengthAdjust="spacing" textLength="68" x="580.25" y="153.4492">&#171;Controller&#187;</text><text fill="#000000" font-family="sans-serif" font-size="14" lengthAdjust="spacing" textLength="123" x="552.75" y="171.5684">CustomerController</text><line style="stroke:#181818;stroke-width:0.5;" x1="367" x2="829" y1="180.082" y2="180.082"/><text fill="#000000" font-family="sans-serif" font-size="14" lengthAdjust="spacing" textLength="296" x="372" y="199.1895">-customerManagement: CustomerManagement</text><line style="stroke:#181818;stroke-width:0.5;" x1="367" x2="829" y1="206.7031" y2="206.7031"/><text fill="#000000" font-family="sans-serif" font-size="14" lengthAdjust="spacing" textLength="428" x="372" y="225.8105">+CustomerController(CustomerManagement customerManagement)</text><text fill="#000000" font-family="sans-serif" font-size="14" lengthAdjust="spacing" textLength="452" x="372" y="244.4316">+registerNew(RegistrationForm form, Errors result, Model model): String</text><text fill="#000000" font-family="sans-serif" font-size="14" lengthAdjust="spacing" textLength="340" x="372" y="263.0527">+register(Model model, RegistrationForm form): String</text><text fill="#000000" font-family="sans-serif" font-size="14" lengthAdjust="spacing" textLength="247" x="372" y="281.6738">+faildloginredirect(Model model): String</text></g><!--class CustomerDashboardController--><g id="elem_CustomerDashboardController"><rect codeLine="42" fill="#F1F1F1" height="135.0664" id="CustomerDashboardController" rx="2.5" ry="2.5" style="stroke:#181818;stroke-width:0.5;" width="510" x="579" y="396"/><ellipse cx="733.25" cy="418.291" fill="#ADD1B2" rx="11" ry="11" style="stroke:#181818;stroke-width:1.0;"/><path d="M736.0156,414.166 Q736.1719,413.9473 736.3594,413.8379 Q736.5469,413.7285 736.7656,413.7285 Q737.1406,413.7285 737.375,413.9941 Q737.6094,414.2441 737.6094,414.8535 L737.6094,416.3066 Q737.6094,416.916 737.375,417.1816 Q737.1406,417.4473 736.7656,417.4473 Q736.4219,417.4473 736.2188,417.2441 Q736.0156,417.0566 735.9063,416.541 Q735.8594,416.1816 735.6719,415.9941 Q735.3438,415.6191 734.7344,415.4004 Q734.125,415.1816 733.5,415.1816 Q732.7344,415.1816 732.0938,415.5098 Q731.4688,415.8379 730.9688,416.5879 Q730.4844,417.3379 730.4844,418.3691 L730.4844,419.4629 Q730.4844,420.6973 731.375,421.5254 Q732.2656,422.3379 733.8594,422.3379 Q734.7969,422.3379 735.4531,422.0879 Q735.8438,421.9316 736.2656,421.4941 Q736.5313,421.2285 736.6719,421.1504 Q736.8281,421.0723 737.0313,421.0723 Q737.3594,421.0723 737.6094,421.3379 Q737.875,421.5879 737.875,421.9316 Q737.875,422.2754 737.5313,422.6816 Q737.0313,423.2598 736.2344,423.5879 Q735.1563,424.041 733.8594,424.041 Q732.3438,424.041 731.1406,423.416 Q730.1563,422.916 729.4688,421.8535 Q728.7813,420.7754 728.7813,419.4941 L728.7813,418.3379 Q728.7813,417.0098 729.3906,415.8691 Q730.0156,414.7129 731.1094,414.1035 Q732.2031,413.4785 733.4375,413.4785 Q734.1719,413.4785 734.8125,413.6504 Q735.4688,413.8066 736.0156,414.166 Z " fill="#000000"/><text fill="#000000" font-family="sans-serif" font-size="12" font-style="italic" lengthAdjust="spacing" textLength="68" x="816.25" y="413.9492">&#171;Controller&#187;</text><text fill="#000000" font-family="sans-serif" font-size="14" lengthAdjust="spacing" textLength="193" x="753.75" y="432.0684">CustomerDashboardController</text><line style="stroke:#181818;stroke-width:0.5;" x1="580" x2="1088" y1="440.582" y2="440.582"/><text fill="#000000" font-family="sans-serif" font-size="14" lengthAdjust="spacing" textLength="296" x="585" y="459.6895">-customerManagement: CustomerManagement</text><line style="stroke:#181818;stroke-width:0.5;" x1="580" x2="1088" y1="467.2031" y2="467.2031"/><text fill="#000000" font-family="sans-serif" font-size="14" lengthAdjust="spacing" textLength="498" x="585" y="486.3105">+CustomerDashboardController(CustomerManagement customerManagement)</text><text fill="#000000" font-family="sans-serif" font-size="14" lengthAdjust="spacing" textLength="201" x="585" y="504.9316">+customer(Model model): String</text><text fill="#000000" font-family="sans-serif" font-size="14" lengthAdjust="spacing" textLength="403" x="585" y="523.5527">+changeRole(Model model, RoleChangeInformation info): String</text></g><!--class RoleChangeInformation--><g id="elem_RoleChangeInformation"><rect codeLine="48" fill="#F1F1F1" height="77.2422" id="RoleChangeInformation" rx="2.5" ry="2.5" style="stroke:#181818;stroke-width:0.5;" width="182" x="362" y="425"/><ellipse cx="377" cy="441" fill="#B4A7E5" rx="11" ry="11" style="stroke:#181818;stroke-width:1.0;"/><path d="M377.9531,437.6406 L377.9531,444.2969 L379.6719,444.2969 Q380.2813,444.2969 380.5469,444.5313 Q380.8125,444.7656 380.8125,445.1563 Q380.8125,445.5313 380.5469,445.7656 Q380.2813,446 379.6719,446 L374.5313,446 Q373.9219,446 373.6563,445.7656 Q373.3906,445.5313 373.3906,445.1406 Q373.3906,444.7656 373.6563,444.5313 Q373.9219,444.2969 374.5313,444.2969 L376.25,444.2969 L376.25,437.6406 L374.5313,437.6406 Q373.9219,437.6406 373.6563,437.4063 Q373.3906,437.1719 373.3906,436.7813 Q373.3906,436.4063 373.6563,436.1719 Q373.9219,435.9375 374.5313,435.9375 L379.6719,435.9375 Q380.2813,435.9375 380.5469,436.1719 Q380.8125,436.4063 380.8125,436.7813 Q380.8125,437.1719 380.5469,437.4063 Q380.2813,437.6406 379.6719,437.6406 L377.9531,437.6406 Z " fill="#000000"/><text fill="#000000" font-family="sans-serif" font-size="14" font-style="italic" lengthAdjust="spacing" textLength="150" x="391" y="446.7969">RoleChangeInformation</text><line style="stroke:#181818;stroke-width:0.5;" x1="363" x2="543" y1="457" y2="457"/><text fill="#000000" font-family="sans-serif" font-size="14" lengthAdjust="spacing" textLength="169" x="368" y="476.1074">+getCustomerUUID(): UUID</text><text fill="#000000" font-family="sans-serif" font-size="14" lengthAdjust="spacing" textLength="155" x="368" y="494.7285">+getRoleValue(): Integer</text></g><!--class CustomerDataInitializer--><g id="elem_CustomerDataInitializer"><rect codeLine="52" fill="#F1F1F1" height="153.6875" id="CustomerDataInitializer" rx="2.5" ry="2.5" style="stroke:#181818;stroke-width:0.5;" width="790" x="560" y="594"/><ellipse cx="878.25" cy="616.291" fill="#ADD1B2" rx="11" ry="11" style="stroke:#181818;stroke-width:1.0;"/><path d="M881.0156,612.166 Q881.1719,611.9473 881.3594,611.8379 Q881.5469,611.7285 881.7656,611.7285 Q882.1406,611.7285 882.375,611.9941 Q882.6094,612.2441 882.6094,612.8535 L882.6094,614.3066 Q882.6094,614.916 882.375,615.1816 Q882.1406,615.4473 881.7656,615.4473 Q881.4219,615.4473 881.2188,615.2441 Q881.0156,615.0566 880.9063,614.541 Q880.8594,614.1816 880.6719,613.9941 Q880.3438,613.6191 879.7344,613.4004 Q879.125,613.1816 878.5,613.1816 Q877.7344,613.1816 877.0938,613.5098 Q876.4688,613.8379 875.9688,614.5879 Q875.4844,615.3379 875.4844,616.3691 L875.4844,617.4629 Q875.4844,618.6973 876.375,619.5254 Q877.2656,620.3379 878.8594,620.3379 Q879.7969,620.3379 880.4531,620.0879 Q880.8438,619.9316 881.2656,619.4941 Q881.5313,619.2285 881.6719,619.1504 Q881.8281,619.0723 882.0313,619.0723 Q882.3594,619.0723 882.6094,619.3379 Q882.875,619.5879 882.875,619.9316 Q882.875,620.2754 882.5313,620.6816 Q882.0313,621.2598 881.2344,621.5879 Q880.1563,622.041 878.8594,622.041 Q877.3438,622.041 876.1406,621.416 Q875.1563,620.916 874.4688,619.8535 Q873.7813,618.7754 873.7813,617.4941 L873.7813,616.3379 Q873.7813,615.0098 874.3906,613.8691 Q875.0156,612.7129 876.1094,612.1035 Q877.2031,611.4785 878.4375,611.4785 Q879.1719,611.4785 879.8125,611.6504 Q880.4688,611.8066 881.0156,612.166 Z " fill="#000000"/><text fill="#000000" font-family="sans-serif" font-size="12" font-style="italic" lengthAdjust="spacing" textLength="79" x="931.75" y="611.9492">&#171;Component&#187;</text><text fill="#000000" font-family="sans-serif" font-size="14" lengthAdjust="spacing" textLength="145" x="898.75" y="630.0684">CustomerDataInitializer</text><line style="stroke:#181818;stroke-width:0.5;" x1="561" x2="1349" y1="638.582" y2="638.582"/><text fill="#000000" font-family="sans-serif" font-size="14" lengthAdjust="spacing" text-decoration="underline" textLength="88" x="566" y="657.6895">-LOG: Logger</text><text fill="#000000" font-family="sans-serif" font-size="14" lengthAdjust="spacing" textLength="336" x="566" y="676.3105">-userAccountManagement: UserAccountManagement</text><text fill="#000000" font-family="sans-serif" font-size="14" lengthAdjust="spacing" textLength="296" x="566" y="694.9316">-customerManagement: CustomerManagement</text><line style="stroke:#181818;stroke-width:0.5;" x1="561" x2="1349" y1="702.4453" y2="702.4453"/><text fill="#000000" font-family="sans-serif" font-size="14" lengthAdjust="spacing" textLength="778" x="566" y="721.5527">+CustomerDataInitializer(UerAccountManagement userAccountManagement, CustomerManagement customerManagement)</text><text fill="#000000" font-family="sans-serif" font-size="14" lengthAdjust="spacing" textLength="101" x="566" y="740.1738">+initialize(): void</text></g><!--class CustomerManagement--><g id="elem_CustomerManagement"><rect codeLine="59" fill="#F1F1F1" height="172.3086" id="CustomerManagement" rx="2.5" ry="2.5" style="stroke:#181818;stroke-width:0.5;" width="711" x="323.5" y="869"/><ellipse cx="603.25" cy="891.291" fill="#ADD1B2" rx="11" ry="11" style="stroke:#181818;stroke-width:1.0;"/><path d="M606.0156,887.166 Q606.1719,886.9473 606.3594,886.8379 Q606.5469,886.7285 606.7656,886.7285 Q607.1406,886.7285 607.375,886.9941 Q607.6094,887.2441 607.6094,887.8535 L607.6094,889.3066 Q607.6094,889.916 607.375,890.1816 Q607.1406,890.4473 606.7656,890.4473 Q606.4219,890.4473 606.2188,890.2441 Q606.0156,890.0566 605.9063,889.541 Q605.8594,889.1816 605.6719,888.9941 Q605.3438,888.6191 604.7344,888.4004 Q604.125,888.1816 603.5,888.1816 Q602.7344,888.1816 602.0938,888.5098 Q601.4688,888.8379 600.9688,889.5879 Q600.4844,890.3379 600.4844,891.3691 L600.4844,892.4629 Q600.4844,893.6973 601.375,894.5254 Q602.2656,895.3379 603.8594,895.3379 Q604.7969,895.3379 605.4531,895.0879 Q605.8438,894.9316 606.2656,894.4941 Q606.5313,894.2285 606.6719,894.1504 Q606.8281,894.0723 607.0313,894.0723 Q607.3594,894.0723 607.6094,894.3379 Q607.875,894.5879 607.875,894.9316 Q607.875,895.2754 607.5313,895.6816 Q607.0313,896.2598 606.2344,896.5879 Q605.1563,897.041 603.8594,897.041 Q602.3438,897.041 601.1406,896.416 Q600.1563,895.916 599.4688,894.8535 Q598.7813,893.7754 598.7813,892.4941 L598.7813,891.3379 Q598.7813,890.0098 599.3906,888.8691 Q600.0156,887.7129 601.1094,887.1035 Q602.2031,886.4785 603.4375,886.4785 Q604.1719,886.4785 604.8125,886.6504 Q605.4688,886.8066 606.0156,887.166 Z " fill="#000000"/><text fill="#000000" font-family="sans-serif" font-size="12" font-style="italic" lengthAdjust="spacing" textLength="55" x="667.75" y="886.9492">&#171;Service&#187;</text><text fill="#000000" font-family="sans-serif" font-size="14" lengthAdjust="spacing" textLength="143" x="623.75" y="905.0684">CustomerManagement</text><line style="stroke:#181818;stroke-width:0.5;" x1="324.5" x2="1033.5" y1="913.582" y2="913.582"/><text fill="#000000" font-family="sans-serif" font-size="14" lengthAdjust="spacing" textLength="207" x="329.5" y="932.6895">-customers: CustomerRepository</text><text fill="#000000" font-family="sans-serif" font-size="14" lengthAdjust="spacing" textLength="261" x="329.5" y="951.3105">-userAccounts: UserAccountManagement</text><line style="stroke:#181818;stroke-width:0.5;" x1="324.5" x2="1033.5" y1="958.8242" y2="958.8242"/><text fill="#000000" font-family="sans-serif" font-size="14" lengthAdjust="spacing" textLength="619" x="329.5" y="977.9316">+CustomerManagement(CustomerRepository customers, UserAccountManagement userAccounts)</text><text fill="#000000" font-family="sans-serif" font-size="14" lengthAdjust="spacing" textLength="699" x="329.5" y="996.5527">+create(String email, UnencryptedPassword password, Role roles, String firstname, String lastname): Customer</text><text fill="#000000" font-family="sans-serif" font-size="14" lengthAdjust="spacing" textLength="213" x="329.5" y="1015.1738">+findAll(): Streamable&lt;Customer&gt;</text><text fill="#000000" font-family="sans-serif" font-size="14" lengthAdjust="spacing" textLength="272" x="329.5" y="1033.7949">+findByUUID(UUID id): Optional&lt;Customer&gt;</text></g><!--class CustomerRepository--><g id="elem_CustomerRepository"><rect codeLine="67" fill="#F1F1F1" height="58.6211" id="CustomerRepository" rx="2.5" ry="2.5" style="stroke:#181818;stroke-width:0.5;" width="225" x="1124.5" y="434"/><ellipse cx="1168.3" cy="450" fill="#B4A7E5" rx="11" ry="11" style="stroke:#181818;stroke-width:1.0;"/><path d="M1169.2531,446.6406 L1169.2531,453.2969 L1170.9719,453.2969 Q1171.5813,453.2969 1171.8469,453.5313 Q1172.1125,453.7656 1172.1125,454.1563 Q1172.1125,454.5313 1171.8469,454.7656 Q1171.5813,455 1170.9719,455 L1165.8313,455 Q1165.2219,455 1164.9563,454.7656 Q1164.6906,454.5313 1164.6906,454.1406 Q1164.6906,453.7656 1164.9563,453.5313 Q1165.2219,453.2969 1165.8313,453.2969 L1167.55,453.2969 L1167.55,446.6406 L1165.8313,446.6406 Q1165.2219,446.6406 1164.9563,446.4063 Q1164.6906,446.1719 1164.6906,445.7813 Q1164.6906,445.4063 1164.9563,445.1719 Q1165.2219,444.9375 1165.8313,444.9375 L1170.9719,444.9375 Q1171.5813,444.9375 1171.8469,445.1719 Q1172.1125,445.4063 1172.1125,445.7813 Q1172.1125,446.1719 1171.8469,446.4063 Q1171.5813,446.6406 1170.9719,446.6406 L1169.2531,446.6406 Z " fill="#000000"/><text fill="#000000" font-family="sans-serif" font-size="14" font-style="italic" lengthAdjust="spacing" textLength="129" x="1188.7" y="455.7969">CustomerRepository</text><line style="stroke:#181818;stroke-width:0.5;" x1="1125.5" x2="1348.5" y1="466" y2="466"/><text fill="#000000" font-family="sans-serif" font-size="14" lengthAdjust="spacing" textLength="213" x="1130.5" y="485.1074">+findAll(): Streamable&lt;Customer&gt;</text></g><!--class RegistrationForm--><g id="elem_RegistrationForm"><rect codeLine="70" fill="#F1F1F1" height="159.7266" id="RegistrationForm" rx="2.5" ry="2.5" style="stroke:#181818;stroke-width:0.5;" width="477" x="47.5" y="591"/><ellipse cx="227.25" cy="607" fill="#ADD1B2" rx="11" ry="11" style="stroke:#181818;stroke-width:1.0;"/><path d="M230.0156,602.875 Q230.1719,602.6563 230.3594,602.5469 Q230.5469,602.4375 230.7656,602.4375 Q231.1406,602.4375 231.375,602.7031 Q231.6094,602.9531 231.6094,603.5625 L231.6094,605.0156 Q231.6094,605.625 231.375,605.8906 Q231.1406,606.1563 230.7656,606.1563 Q230.4219,606.1563 230.2188,605.9531 Q230.0156,605.7656 229.9063,605.25 Q229.8594,604.8906 229.6719,604.7031 Q229.3438,604.3281 228.7344,604.1094 Q228.125,603.8906 227.5,603.8906 Q226.7344,603.8906 226.0938,604.2188 Q225.4688,604.5469 224.9688,605.2969 Q224.4844,606.0469 224.4844,607.0781 L224.4844,608.1719 Q224.4844,609.4063 225.375,610.2344 Q226.2656,611.0469 227.8594,611.0469 Q228.7969,611.0469 229.4531,610.7969 Q229.8438,610.6406 230.2656,610.2031 Q230.5313,609.9375 230.6719,609.8594 Q230.8281,609.7813 231.0313,609.7813 Q231.3594,609.7813 231.6094,610.0469 Q231.875,610.2969 231.875,610.6406 Q231.875,610.9844 231.5313,611.3906 Q231.0313,611.9688 230.2344,612.2969 Q229.1563,612.75 227.8594,612.75 Q226.3438,612.75 225.1406,612.125 Q224.1563,611.625 223.4688,610.5625 Q222.7813,609.4844 222.7813,608.2031 L222.7813,607.0469 Q222.7813,605.7188 223.3906,604.5781 Q224.0156,603.4219 225.1094,602.8125 Q226.2031,602.1875 227.4375,602.1875 Q228.1719,602.1875 228.8125,602.3594 Q229.4688,602.5156 230.0156,602.875 Z " fill="#000000"/><text fill="#000000" font-family="sans-serif" font-size="14" lengthAdjust="spacing" textLength="109" x="247.75" y="612.7969">RegistrationForm</text><line style="stroke:#181818;stroke-width:0.5;" x1="48.5" x2="523.5" y1="623" y2="623"/><text fill="#000000" font-family="sans-serif" font-size="14" lengthAdjust="spacing" textLength="85" x="53.5" y="642.1074">-name: String</text><text fill="#000000" font-family="sans-serif" font-size="14" lengthAdjust="spacing" textLength="72" x="53.5" y="660.7285">-last: String</text><text fill="#000000" font-family="sans-serif" font-size="14" lengthAdjust="spacing" textLength="110" x="53.5" y="679.3496">-password: String</text><text fill="#000000" font-family="sans-serif" font-size="14" lengthAdjust="spacing" textLength="83" x="53.5" y="697.9707">-email: String</text><line style="stroke:#181818;stroke-width:0.5;" x1="48.5" x2="523.5" y1="705.4844" y2="705.4844"/><text fill="#000000" font-family="sans-serif" font-size="14" lengthAdjust="spacing" textLength="465" x="53.5" y="724.5918">+RegistrationForm(String name, String last, String password, String email)</text><text fill="#000000" font-family="sans-serif" font-size="14" lengthAdjust="spacing" textLength="182" x="53.5" y="743.2129">+validate(Errors errors): void</text></g><!--class DataInitializer--><g id="elem_DataInitializer"><rect fill="#F1F1F1" height="32" id="DataInitializer" rx="2.5" ry="2.5" style="stroke:#181818;stroke-width:0.5;" width="116" x="1478" y="939"/><ellipse cx="1493" cy="955" fill="#ADD1B2" rx="11" ry="11" style="stroke:#181818;stroke-width:1.0;"/><path d="M1495.7656,950.875 Q1495.9219,950.6563 1496.1094,950.5469 Q1496.2969,950.4375 1496.5156,950.4375 Q1496.8906,950.4375 1497.125,950.7031 Q1497.3594,950.9531 1497.3594,951.5625 L1497.3594,953.0156 Q1497.3594,953.625 1497.125,953.8906 Q1496.8906,954.1563 1496.5156,954.1563 Q1496.1719,954.1563 1495.9688,953.9531 Q1495.7656,953.7656 1495.6563,953.25 Q1495.6094,952.8906 1495.4219,952.7031 Q1495.0938,952.3281 1494.4844,952.1094 Q1493.875,951.8906 1493.25,951.8906 Q1492.4844,951.8906 1491.8438,952.2188 Q1491.2188,952.5469 1490.7188,953.2969 Q1490.2344,954.0469 1490.2344,955.0781 L1490.2344,956.1719 Q1490.2344,957.4063 1491.125,958.2344 Q1492.0156,959.0469 1493.6094,959.0469 Q1494.5469,959.0469 1495.2031,958.7969 Q1495.5938,958.6406 1496.0156,958.2031 Q1496.2813,957.9375 1496.4219,957.8594 Q1496.5781,957.7813 1496.7813,957.7813 Q1497.1094,957.7813 1497.3594,958.0469 Q1497.625,958.2969 1497.625,958.6406 Q1497.625,958.9844 1497.2813,959.3906 Q1496.7813,959.9688 1495.9844,960.2969 Q1494.9063,960.75 1493.6094,960.75 Q1492.0938,960.75 1490.8906,960.125 Q1489.9063,959.625 1489.2188,958.5625 Q1488.5313,957.4844 1488.5313,956.2031 L1488.5313,955.0469 Q1488.5313,953.7188 1489.1406,952.5781 Q1489.7656,951.4219 1490.8594,950.8125 Q1491.9531,950.1875 1493.1875,950.1875 Q1493.9219,950.1875 1494.5625,950.3594 Q1495.2188,950.5156 1495.7656,950.875 Z " fill="#000000"/><text fill="#000000" font-family="sans-serif" font-size="14" lengthAdjust="spacing" textLength="84" x="1507" y="960.7969">DataInitializer</text></g><!--class CrudRepository--><g id="elem_CrudRepository"><rect fill="#F1F1F1" height="32" id="CrudRepository" rx="2.5" ry="2.5" style="stroke:#181818;stroke-width:0.5;" width="131" x="1722.5" y="939"/><ellipse cx="1737.5" cy="955" fill="#ADD1B2" rx="11" ry="11" style="stroke:#181818;stroke-width:1.0;"/><path d="M1740.2656,950.875 Q1740.4219,950.6563 1740.6094,950.5469 Q1740.7969,950.4375 1741.0156,950.4375 Q1741.3906,950.4375 1741.625,950.7031 Q1741.8594,950.9531 1741.8594,951.5625 L1741.8594,953.0156 Q1741.8594,953.625 1741.625,953.8906 Q1741.3906,954.1563 1741.0156,954.1563 Q1740.6719,954.1563 1740.4688,953.9531 Q1740.2656,953.7656 1740.1563,953.25 Q1740.1094,952.8906 1739.9219,952.7031 Q1739.5938,952.3281 1738.9844,952.1094 Q1738.375,951.8906 1737.75,951.8906 Q1736.9844,951.8906 1736.3438,952.2188 Q1735.7188,952.5469 1735.2188,953.2969 Q1734.7344,954.0469 1734.7344,955.0781 L1734.7344,956.1719 Q1734.7344,957.4063 1735.625,958.2344 Q1736.5156,959.0469 1738.1094,959.0469 Q1739.0469,959.0469 1739.7031,958.7969 Q1740.0938,958.6406 1740.5156,958.2031 Q1740.7813,957.9375 1740.9219,957.8594 Q1741.0781,957.7813 1741.2813,957.7813 Q1741.6094,957.7813 1741.8594,958.0469 Q1742.125,958.2969 1742.125,958.6406 Q1742.125,958.9844 1741.7813,959.3906 Q1741.2813,959.9688 1740.4844,960.2969 Q1739.4063,960.75 1738.1094,960.75 Q1736.5938,960.75 1735.3906,960.125 Q1734.4063,959.625 1733.7188,958.5625 Q1733.0313,957.4844 1733.0313,956.2031 L1733.0313,955.0469 Q1733.0313,953.7188 1733.6406,952.5781 Q1734.2656,951.4219 1735.3594,950.8125 Q1736.4531,950.1875 1737.6875,950.1875 Q1738.4219,950.1875 1739.0625,950.3594 Q1739.7188,950.5156 1740.2656,950.875 Z " fill="#000000"/><text fill="#000000" font-family="sans-serif" font-size="14" lengthAdjust="spacing" textLength="99" x="1751.5" y="960.7969">CrudRepository</text></g><!--link CustomerController to CustomerDashboardController--><!--link RoleChangeInformation to CustomerDashboardController--><g id="link_RoleChangeInformation_CustomerDashboardController"><path codeLine="81" d="M544.26,464 C555.27,464 550.89,464 562.9,464 " fill="none" id="RoleChangeInformation-to-CustomerDashboardController" style="stroke:#181818;stroke-width:1.0;"/><ellipse cx="570.9" cy="464" fill="#FEFEFE" rx="8" ry="8" style="stroke:#181818;stroke-width:1.0;"/><line style="stroke:#181818;stroke-width:1.0;" x1="562.9" x2="578.9" y1="464" y2="464"/><line style="stroke:#181818;stroke-width:1.0;" x1="570.9" x2="570.9" y1="456" y2="472"/></g><!--link Roles to Customer--><g id="link_Roles_Customer"><path codeLine="82" d="M1060.55,213 C1072.08,213 1067.97,213 1079.83,213 " fill="none" id="Roles-to-Customer" style="stroke:#181818;stroke-width:1.0;"/><ellipse cx="1087.83" cy="213" fill="#FEFEFE" rx="8" ry="8" style="stroke:#181818;stroke-width:1.0;"/><line style="stroke:#181818;stroke-width:1.0;" x1="1079.83" x2="1095.83" y1="213" y2="213"/><line style="stroke:#181818;stroke-width:1.0;" x1="1087.83" x2="1087.83" y1="205" y2="221"/></g><!--link CustomerDashboardController to CustomerDataInitializer--><!--link CustomerDataInitializer to CustomerManagement--><!--link CustomerDataInitializer to DataInitializer--><g id="link_CustomerDataInitializer_DataInitializer"><path codeLine="85" d="M1350.17,671 C1453.23,671 1536,671 1536,671 C1536,671 1536,860.84 1536,920.92 " fill="none" id="CustomerDataInitializer-to-DataInitializer" style="stroke:#181818;stroke-width:1.0;"/><polygon fill="none" points="1536,938.92,1542,920.92,1530,920.92,1536,938.92" style="stroke:#181818;stroke-width:1.0;"/></g><!--link CustomerDashboardController to CustomerRepository--><!--link CustomerRepository to CrudRepository--><g id="link_CustomerRepository_CrudRepository"><path codeLine="87" d="M1349.83,464 C1511.03,464 1788,464 1788,464 C1788,464 1788,836.32 1788,920.94 " fill="none" id="CustomerRepository-to-CrudRepository" style="stroke:#181818;stroke-width:1.0;"/><polygon fill="none" points="1788,938.94,1794,920.94,1782,920.94,1788,938.94" style="stroke:#181818;stroke-width:1.0;"/></g><!--link RegistrationForm to CustomerManagement--><!--SRC=[jLPRQ-Cu57xthn3iYqlYiCz3ABIPT0cqoT1i5fPb7rJxn16L9IF9xMQw-UzxvCQM72df5cOSSEoZJ-VodOkyOmKGg6gp9ri6lD39paagC3k98ltCH4qLhKZEgTOtnYZsr1XOv5AisNSWlteGpWIOVGr4AjpjBTpI_BbKiX75J7Afo2ztS_jBAEVojMB_C55ww1hHj8IrsNCWToY193dAI4wh6j4rf-RxMqBmwbSQRMG5wbrghzPZCZlAfzEvCCpihwyTmbuPOSKNijailfw86mtg9i_HQuFhxcK06_NwKm_YxxqQuaimYoAzYbYqIrQ7m80jO8rK8o-da3kcj5bUnjpJ3o6Ujwqtv-93wAFahIRxFrpKnqLx8meXBv8LIOyvz4yWcghThntvozLoth_CDklVLm_pnrumV_Xsl_fpxX2tg_NQgSuKAZjnQTGQE3g3DyUyZU8FofimZD6RDjIm_42sIbRBfdh2J2w4WH8KOQVemvdQcabXq2AtLUQU_KhBkl9ye0AhjG9RLBD0vlmALQSXd8HQlQ0Lb4mRK4juJH_RPuMXId4dLKMsU1kJkL9IQQ90DzoCoOCiW9FAtiFAwVMb7cnCefeZkxUKyOBBaWa51LEGc_IYkNDSVwLwzoIfAduYwH4RdsQ_MxmSvIZVKL52sqL3Mb4oQzSMmZBQyaiOFb-YYc7bgYtD8Rx_RT0HNKHs4WKJgMlylcsEJV4_ycFeGZ33ACVpeSrDLKk1v0nIq_NT_UgtB-HUbhxgp1kVVkesCV6FoFR0utGJiKAYBet9Pwk2zNRIRbn-HAZJCvskGRsm7A95hbsqZr1BpOnK-oYd-YCgHw7jDDJTHwh7SNq-QTfl3GNKGFfUnVZ1WPC1DM29v6fV6oY-OVYlKXLujhy_lBT3EzJHrd7VrXw4zh3i9KXRAxXoJ7ZpXudYXlFZaGYqeaySfXtkUWYytRTDOM_uUO1RLhNj7yeZ6sBT5vBrzdbFJWlYTD9wDM2Z3iP2Pla8fHsfuKgRYN14dThj4XTmtx-ulFavzYhW1LkWi3LmF82W_Ojtn24v9E5fIBA_y7Er0F5taLqw6vBu8CrKDlfmcnx2aZC3mxdIN7ObCYpYMmVgpvlD_ht6J-roeYdwMaiilwtzMaRcdoUvL30vhobmpdcYijWSYRI_ir_R93lRc5awKJrmCbDDuQaAlXXYgNGS_GS0]--></g></svg>