<?xml version="1.0" encoding="us-ascii" standalone="no"?><svg xmlns="http://www.w3.org/2000/svg" xmlns:xlink="http://www.w3.org/1999/xlink" contentStyleType="text/css" height="544px" preserveAspectRatio="none" style="width:2432px;height:544px;background:#FEFEFE;" version="1.1" viewBox="0 0 2432 544" width="2432px" zoomAndPan="magnify"><defs/><g><rect fill="#FEFEFE" height="544" style="stroke:none;stroke-width:1.0;" width="2432" x="0" y="0"/><!--cluster campingplatz--><g id="cluster_campingplatz"><rect fill="none" height="504.5" rx="2.5" ry="2.5" style="stroke:#000000;stroke-width:1.5;" width="1783" x="7" y="7"/><path d="M109,7 L109,18.6211 L99,28.6211 L7,28.6211 " fill="none" style="stroke:#000000;stroke-width:1.5;"/><text fill="#000000" font-family="sans-serif" font-size="14" font-weight="bold" lengthAdjust="spacing" textLength="92" x="10" y="23.1074">campingplatz</text></g><!--cluster utils--><g id="cluster_utils"><rect fill="none" height="435.5" rx="2.5" ry="2.5" style="stroke:#000000;stroke-width:1.5;" width="1603" x="31" y="52"/><path d="M71,52 L71,63.6211 L61,73.6211 L31,73.6211 " fill="none" style="stroke:#000000;stroke-width:1.5;"/><text fill="#000000" font-family="sans-serif" font-size="14" font-weight="bold" lengthAdjust="spacing" textLength="30" x="34" y="68.1074">utils</text></g><!--cluster org--><g id="cluster_org"><rect fill="none" height="255" rx="2.5" ry="2.5" style="stroke:#000000;stroke-width:1.5;" width="420" x="1814" y="283"/><path d="M1848,283 L1848,294.6211 L1838,304.6211 L1814,304.6211 " fill="none" style="stroke:#000000;stroke-width:1.5;"/><text fill="#000000" font-family="sans-serif" font-size="14" font-weight="bold" lengthAdjust="spacing" textLength="24" x="1817" y="299.1074">org</text></g><!--cluster salespointframework--><g id="cluster_salespointframework"><rect fill="none" height="170" rx="2.5" ry="2.5" style="stroke:#000000;stroke-width:1.5;" width="186" x="1846" y="336"/><path d="M2003,336 L2003,347.6211 L1993,357.6211 L1846,357.6211 " fill="none" style="stroke:#000000;stroke-width:1.5;"/><text fill="#000000" font-family="sans-serif" font-size="14" font-weight="bold" lengthAdjust="spacing" textLength="147" x="1849" y="352.1074">salespointframework</text></g><!--cluster catalog--><g id="cluster_catalog"><rect fill="none" height="85" rx="2.5" ry="2.5" style="stroke:#000000;stroke-width:1.5;" width="114" x="1886" y="389"/><path d="M1947,389 L1947,400.6211 L1937,410.6211 L1886,410.6211 " fill="none" style="stroke:#000000;stroke-width:1.5;"/><text fill="#000000" font-family="sans-serif" font-size="14" font-weight="bold" lengthAdjust="spacing" textLength="51" x="1889" y="405.1074">catalog</text></g><!--cluster java--><g id="cluster_java"><rect fill="none" height="154" rx="2.5" ry="2.5" style="stroke:#000000;stroke-width:1.5;" width="168" x="2258" y="344"/><path d="M2297,344 L2297,355.6211 L2287,365.6211 L2258,365.6211 " fill="none" style="stroke:#000000;stroke-width:1.5;"/><text fill="#000000" font-family="sans-serif" font-size="14" font-weight="bold" lengthAdjust="spacing" textLength="29" x="2261" y="360.1074">java</text></g><!--cluster util--><g id="cluster_util"><rect fill="none" height="85" rx="2.5" ry="2.5" style="stroke:#000000;stroke-width:1.5;" width="120" x="2282" y="389"/><path d="M2314,389 L2314,400.6211 L2304,410.6211 L2282,410.6211 " fill="none" style="stroke:#000000;stroke-width:1.5;"/><text fill="#000000" font-family="sans-serif" font-size="14" font-weight="bold" lengthAdjust="spacing" textLength="22" x="2285" y="405.1074">util</text></g><!--entity reservation--><g id="elem_reservation"><path d="M1652.5,421 L1747.5,421 A3.75,3.75 0 0 1 1750,423.5 L1757,445.6211 L1771.5,445.6211 A2.5,2.5 0 0 1 1774,448.1211 L1774,460.1211 A2.5,2.5 0 0 1 1771.5,462.6211 L1652.5,462.6211 A2.5,2.5 0 0 1 1650,460.1211 L1650,423.5 A2.5,2.5 0 0 1 1652.5,421 " fill="#F1F1F1" style="stroke:#181818;stroke-width:0.5;"/><line style="stroke:#181818;stroke-width:0.5;" x1="1650" x2="1757" y1="445.6211" y2="445.6211"/><text fill="#000000" font-family="sans-serif" font-size="14" font-weight="bold" lengthAdjust="spacing" textLength="82" x="1660" y="439.1074">reservation</text></g><!--class DetailedProduct--><g id="elem_DetailedProduct"><rect codeLine="22" fill="#F1F1F1" height="178.3477" id="DetailedProduct" rx="2.5" ry="2.5" style="stroke:#181818;stroke-width:0.5;" width="526" x="797" y="89"/><ellipse cx="1005.25" cy="105" fill="#ADD1B2" rx="11" ry="11" style="stroke:#181818;stroke-width:1.0;"/><path d="M1008.0156,100.875 Q1008.1719,100.6563 1008.3594,100.5469 Q1008.5469,100.4375 1008.7656,100.4375 Q1009.1406,100.4375 1009.375,100.7031 Q1009.6094,100.9531 1009.6094,101.5625 L1009.6094,103.0156 Q1009.6094,103.625 1009.375,103.8906 Q1009.1406,104.1563 1008.7656,104.1563 Q1008.4219,104.1563 1008.2188,103.9531 Q1008.0156,103.7656 1007.9063,103.25 Q1007.8594,102.8906 1007.6719,102.7031 Q1007.3438,102.3281 1006.7344,102.1094 Q1006.125,101.8906 1005.5,101.8906 Q1004.7344,101.8906 1004.0938,102.2188 Q1003.4688,102.5469 1002.9688,103.2969 Q1002.4844,104.0469 1002.4844,105.0781 L1002.4844,106.1719 Q1002.4844,107.4063 1003.375,108.2344 Q1004.2656,109.0469 1005.8594,109.0469 Q1006.7969,109.0469 1007.4531,108.7969 Q1007.8438,108.6406 1008.2656,108.2031 Q1008.5313,107.9375 1008.6719,107.8594 Q1008.8281,107.7813 1009.0313,107.7813 Q1009.3594,107.7813 1009.6094,108.0469 Q1009.875,108.2969 1009.875,108.6406 Q1009.875,108.9844 1009.5313,109.3906 Q1009.0313,109.9688 1008.2344,110.2969 Q1007.1563,110.75 1005.8594,110.75 Q1004.3438,110.75 1003.1406,110.125 Q1002.1563,109.625 1001.4688,108.5625 Q1000.7813,107.4844 1000.7813,106.2031 L1000.7813,105.0469 Q1000.7813,103.7188 1001.3906,102.5781 Q1002.0156,101.4219 1003.1094,100.8125 Q1004.2031,100.1875 1005.4375,100.1875 Q1006.1719,100.1875 1006.8125,100.3594 Q1007.4688,100.5156 1008.0156,100.875 Z " fill="#000000"/><text fill="#000000" font-family="sans-serif" font-size="14" lengthAdjust="spacing" textLength="101" x="1025.75" y="110.7969">DetailedProduct</text><line style="stroke:#181818;stroke-width:0.5;" x1="798" x2="1322" y1="121" y2="121"/><text fill="#000000" font-family="sans-serif" font-size="14" lengthAdjust="spacing" textLength="117" x="803" y="140.1074">-imagePath: String</text><text fill="#000000" font-family="sans-serif" font-size="14" lengthAdjust="spacing" textLength="80" x="803" y="158.7285">-desc: String</text><line style="stroke:#181818;stroke-width:0.5;" x1="798" x2="1322" y1="166.2422" y2="166.2422"/><text fill="#000000" font-family="sans-serif" font-size="14" lengthAdjust="spacing" textLength="514" x="803" y="185.3496">+DetailedProduct(String name, Money price, String imagePath, String description)</text><text fill="#000000" font-family="sans-serif" font-size="14" lengthAdjust="spacing" textLength="150" x="803" y="203.9707">+getImagePath(): String</text><text fill="#000000" font-family="sans-serif" font-size="14" lengthAdjust="spacing" textLength="213" x="803" y="222.5918">+setImagePath(String value): void</text><text fill="#000000" font-family="sans-serif" font-size="14" lengthAdjust="spacing" textLength="115" x="803" y="241.2129">+getDesc(): String</text><text fill="#000000" font-family="sans-serif" font-size="14" lengthAdjust="spacing" textLength="178" x="803" y="259.834">+setDesc(String value): void</text></g><!--class Cart--><g id="elem_Cart"><rect codeLine="31" fill="#F1F1F1" height="159.7266" id="Cart" rx="2.5" ry="2.5" style="stroke:#181818;stroke-width:0.5;" width="429" x="47.5" y="98"/><ellipse cx="193.25" cy="114" fill="#ADD1B2" rx="11" ry="11" style="stroke:#181818;stroke-width:1.0;"/><path d="M196.0156,109.875 Q196.1719,109.6563 196.3594,109.5469 Q196.5469,109.4375 196.7656,109.4375 Q197.1406,109.4375 197.375,109.7031 Q197.6094,109.9531 197.6094,110.5625 L197.6094,112.0156 Q197.6094,112.625 197.375,112.8906 Q197.1406,113.1563 196.7656,113.1563 Q196.4219,113.1563 196.2188,112.9531 Q196.0156,112.7656 195.9063,112.25 Q195.8594,111.8906 195.6719,111.7031 Q195.3438,111.3281 194.7344,111.1094 Q194.125,110.8906 193.5,110.8906 Q192.7344,110.8906 192.0938,111.2188 Q191.4688,111.5469 190.9688,112.2969 Q190.4844,113.0469 190.4844,114.0781 L190.4844,115.1719 Q190.4844,116.4063 191.375,117.2344 Q192.2656,118.0469 193.8594,118.0469 Q194.7969,118.0469 195.4531,117.7969 Q195.8438,117.6406 196.2656,117.2031 Q196.5313,116.9375 196.6719,116.8594 Q196.8281,116.7813 197.0313,116.7813 Q197.3594,116.7813 197.6094,117.0469 Q197.875,117.2969 197.875,117.6406 Q197.875,117.9844 197.5313,118.3906 Q197.0313,118.9688 196.2344,119.2969 Q195.1563,119.75 193.8594,119.75 Q192.3438,119.75 191.1406,119.125 Q190.1563,118.625 189.4688,117.5625 Q188.7813,116.4844 188.7813,115.2031 L188.7813,114.0469 Q188.7813,112.7188 189.3906,111.5781 Q190.0156,110.4219 191.1094,109.8125 Q192.2031,109.1875 193.4375,109.1875 Q194.1719,109.1875 194.8125,109.3594 Q195.4688,109.5156 196.0156,109.875 Z " fill="#000000"/><text fill="#000000" font-family="sans-serif" font-size="14" lengthAdjust="spacing" textLength="27" x="213.75" y="119.7969">Cart</text><rect fill="#FEFEFE" height="17.9609" style="stroke:#181818;stroke-width:1.0;stroke-dasharray:2.0,2.0;" width="100" x="379.5" y="95"/><text fill="#000000" font-family="sans-serif" font-size="12" font-style="italic" lengthAdjust="spacing" textLength="98" x="380.5" y="108.9492">T extends Product</text><line style="stroke:#181818;stroke-width:0.5;" x1="48.5" x2="475.5" y1="130" y2="130"/><text fill="#000000" font-family="sans-serif" font-size="14" lengthAdjust="spacing" textLength="336" x="53.5" y="149.1074">+reservationType: Class&lt;? extends Reservation&lt;T&gt;&gt;</text><line style="stroke:#181818;stroke-width:0.5;" x1="48.5" x2="475.5" y1="156.6211" y2="156.6211"/><text fill="#000000" font-family="sans-serif" font-size="14" lengthAdjust="spacing" textLength="417" x="53.5" y="175.7285">+getReservationOfUser(UserAccount user): List&lt;Reservation&lt;T&gt;&gt;</text><text fill="#000000" font-family="sans-serif" font-size="14" lengthAdjust="spacing" textLength="277" x="53.5" y="194.3496">+add(Reservation&lt;T&gt; reservation): boolean</text><text fill="#000000" font-family="sans-serif" font-size="14" lengthAdjust="spacing" textLength="266" x="53.5" y="212.9707">+iterator(): Iterator&lt;ReservationEntry&lt;T&gt;&gt;</text><text fill="#000000" font-family="sans-serif" font-size="14" lengthAdjust="spacing" textLength="65" x="53.5" y="231.5918">+size(): int</text><text fill="#000000" font-family="sans-serif" font-size="14" lengthAdjust="spacing" textLength="185" x="53.5" y="250.2129">+getPrice(): MonetaryAmount</text></g><!--class Priced--><g id="elem_Priced"><rect codeLine="39" fill="#F1F1F1" height="58.6211" id="Priced" rx="2.5" ry="2.5" style="stroke:#181818;stroke-width:0.5;" width="206" x="159" y="412.5"/><ellipse cx="237.75" cy="428.5" fill="#B4A7E5" rx="11" ry="11" style="stroke:#181818;stroke-width:1.0;"/><path d="M238.7031,425.1406 L238.7031,431.7969 L240.4219,431.7969 Q241.0313,431.7969 241.2969,432.0313 Q241.5625,432.2656 241.5625,432.6563 Q241.5625,433.0313 241.2969,433.2656 Q241.0313,433.5 240.4219,433.5 L235.2813,433.5 Q234.6719,433.5 234.4063,433.2656 Q234.1406,433.0313 234.1406,432.6406 Q234.1406,432.2656 234.4063,432.0313 Q234.6719,431.7969 235.2813,431.7969 L237,431.7969 L237,425.1406 L235.2813,425.1406 Q234.6719,425.1406 234.4063,424.9063 Q234.1406,424.6719 234.1406,424.2813 Q234.1406,423.9063 234.4063,423.6719 Q234.6719,423.4375 235.2813,423.4375 L240.4219,423.4375 Q241.0313,423.4375 241.2969,423.6719 Q241.5625,423.9063 241.5625,424.2813 Q241.5625,424.6719 241.2969,424.9063 Q241.0313,425.1406 240.4219,425.1406 L238.7031,425.1406 Z " fill="#000000"/><text fill="#000000" font-family="sans-serif" font-size="14" font-style="italic" lengthAdjust="spacing" textLength="40" x="258.25" y="434.2969">Priced</text><line style="stroke:#181818;stroke-width:0.5;" x1="160" x2="364" y1="444.5" y2="444.5"/><text fill="#000000" font-family="sans-serif" font-size="14" lengthAdjust="spacing" textLength="194" x="165" y="463.6074">+gerPriced(): MonetaryAmount</text></g><!--class Utils--><g id="elem_Utils"><rect codeLine="42" fill="#F1F1F1" height="77.2422" id="Utils" rx="2.5" ry="2.5" style="stroke:#181818;stroke-width:0.5;" width="250" x="512" y="139.5"/><ellipse cx="619.75" cy="155.5" fill="#ADD1B2" rx="11" ry="11" style="stroke:#181818;stroke-width:1.0;"/><path d="M622.5156,151.375 Q622.6719,151.1563 622.8594,151.0469 Q623.0469,150.9375 623.2656,150.9375 Q623.6406,150.9375 623.875,151.2031 Q624.1094,151.4531 624.1094,152.0625 L624.1094,153.5156 Q624.1094,154.125 623.875,154.3906 Q623.6406,154.6563 623.2656,154.6563 Q622.9219,154.6563 622.7188,154.4531 Q622.5156,154.2656 622.4063,153.75 Q622.3594,153.3906 622.1719,153.2031 Q621.8438,152.8281 621.2344,152.6094 Q620.625,152.3906 620,152.3906 Q619.2344,152.3906 618.5938,152.7188 Q617.9688,153.0469 617.4688,153.7969 Q616.9844,154.5469 616.9844,155.5781 L616.9844,156.6719 Q616.9844,157.9063 617.875,158.7344 Q618.7656,159.5469 620.3594,159.5469 Q621.2969,159.5469 621.9531,159.2969 Q622.3438,159.1406 622.7656,158.7031 Q623.0313,158.4375 623.1719,158.3594 Q623.3281,158.2813 623.5313,158.2813 Q623.8594,158.2813 624.1094,158.5469 Q624.375,158.7969 624.375,159.1406 Q624.375,159.4844 624.0313,159.8906 Q623.5313,160.4688 622.7344,160.7969 Q621.6563,161.25 620.3594,161.25 Q618.8438,161.25 617.6406,160.625 Q616.6563,160.125 615.9688,159.0625 Q615.2813,157.9844 615.2813,156.7031 L615.2813,155.5469 Q615.2813,154.2188 615.8906,153.0781 Q616.5156,151.9219 617.6094,151.3125 Q618.7031,150.6875 619.9375,150.6875 Q620.6719,150.6875 621.3125,150.8594 Q621.9688,151.0156 622.5156,151.375 Z " fill="#000000"/><text fill="#000000" font-family="sans-serif" font-size="14" lengthAdjust="spacing" textLength="26" x="640.25" y="161.2969">Utils</text><line style="stroke:#181818;stroke-width:0.5;" x1="513" x2="761" y1="171.5" y2="171.5"/><text fill="#000000" font-family="sans-serif" font-size="14" lengthAdjust="spacing" textLength="41" x="518" y="190.6074">-Utils()</text><text fill="#000000" font-family="sans-serif" font-size="14" lengthAdjust="spacing" text-decoration="underline" textLength="238" x="518" y="209.2285">+createInstance(Class&lt;T&gt; cls): &lt;T&gt; T</text></g><!--class DashboardController--><g id="elem_DashboardController"><rect codeLine="46" fill="#F1F1F1" height="58.6211" id="DashboardController" rx="2.5" ry="2.5" style="stroke:#181818;stroke-width:0.5;" width="260" x="1358" y="148.5"/><ellipse cx="1417.75" cy="164.5" fill="#ADD1B2" rx="11" ry="11" style="stroke:#181818;stroke-width:1.0;"/><path d="M1420.5156,160.375 Q1420.6719,160.1563 1420.8594,160.0469 Q1421.0469,159.9375 1421.2656,159.9375 Q1421.6406,159.9375 1421.875,160.2031 Q1422.1094,160.4531 1422.1094,161.0625 L1422.1094,162.5156 Q1422.1094,163.125 1421.875,163.3906 Q1421.6406,163.6563 1421.2656,163.6563 Q1420.9219,163.6563 1420.7188,163.4531 Q1420.5156,163.2656 1420.4063,162.75 Q1420.3594,162.3906 1420.1719,162.2031 Q1419.8438,161.8281 1419.2344,161.6094 Q1418.625,161.3906 1418,161.3906 Q1417.2344,161.3906 1416.5938,161.7188 Q1415.9688,162.0469 1415.4688,162.7969 Q1414.9844,163.5469 1414.9844,164.5781 L1414.9844,165.6719 Q1414.9844,166.9063 1415.875,167.7344 Q1416.7656,168.5469 1418.3594,168.5469 Q1419.2969,168.5469 1419.9531,168.2969 Q1420.3438,168.1406 1420.7656,167.7031 Q1421.0313,167.4375 1421.1719,167.3594 Q1421.3281,167.2813 1421.5313,167.2813 Q1421.8594,167.2813 1422.1094,167.5469 Q1422.375,167.7969 1422.375,168.1406 Q1422.375,168.4844 1422.0313,168.8906 Q1421.5313,169.4688 1420.7344,169.7969 Q1419.6563,170.25 1418.3594,170.25 Q1416.8438,170.25 1415.6406,169.625 Q1414.6563,169.125 1413.9688,168.0625 Q1413.2813,166.9844 1413.2813,165.7031 L1413.2813,164.5469 Q1413.2813,163.2188 1413.8906,162.0781 Q1414.5156,160.9219 1415.6094,160.3125 Q1416.7031,159.6875 1417.9375,159.6875 Q1418.6719,159.6875 1419.3125,159.8594 Q1419.9688,160.0156 1420.5156,160.375 Z " fill="#000000"/><text fill="#000000" font-family="sans-serif" font-size="14" lengthAdjust="spacing" textLength="132" x="1438.25" y="170.2969">DashboardController</text><line style="stroke:#181818;stroke-width:0.5;" x1="1359" x2="1617" y1="180.5" y2="180.5"/><text fill="#000000" font-family="sans-serif" font-size="14" lengthAdjust="spacing" textLength="248" x="1364" y="199.6074">+sportsequipment(Model model): String</text></g><!--entity springframework--><g id="elem_springframework"><path d="M2059,421 L2191,421 A3.75,3.75 0 0 1 2193.5,423.5 L2200.5,445.6211 L2215,445.6211 A2.5,2.5 0 0 1 2217.5,448.1211 L2217.5,460.1211 A2.5,2.5 0 0 1 2215,462.6211 L2059,462.6211 A2.5,2.5 0 0 1 2056.5,460.1211 L2056.5,423.5 A2.5,2.5 0 0 1 2059,421 " fill="#F1F1F1" style="stroke:#181818;stroke-width:0.5;"/><line style="stroke:#181818;stroke-width:0.5;" x1="2056.5" x2="2200.5" y1="445.6211" y2="445.6211"/><text fill="#000000" font-family="sans-serif" font-size="14" font-weight="bold" lengthAdjust="spacing" textLength="119" x="2066.5" y="439.1074">springframework</text></g><!--class Product--><g id="elem_Product"><rect codeLine="17" fill="#F1F1F1" height="32" id="Product" rx="2.5" ry="2.5" style="stroke:#181818;stroke-width:0.5;" width="81" x="1902.5" y="426"/><ellipse cx="1917.5" cy="442" fill="#ADD1B2" rx="11" ry="11" style="stroke:#181818;stroke-width:1.0;"/><path d="M1920.2656,437.875 Q1920.4219,437.6563 1920.6094,437.5469 Q1920.7969,437.4375 1921.0156,437.4375 Q1921.3906,437.4375 1921.625,437.7031 Q1921.8594,437.9531 1921.8594,438.5625 L1921.8594,440.0156 Q1921.8594,440.625 1921.625,440.8906 Q1921.3906,441.1563 1921.0156,441.1563 Q1920.6719,441.1563 1920.4688,440.9531 Q1920.2656,440.7656 1920.1563,440.25 Q1920.1094,439.8906 1919.9219,439.7031 Q1919.5938,439.3281 1918.9844,439.1094 Q1918.375,438.8906 1917.75,438.8906 Q1916.9844,438.8906 1916.3438,439.2188 Q1915.7188,439.5469 1915.2188,440.2969 Q1914.7344,441.0469 1914.7344,442.0781 L1914.7344,443.1719 Q1914.7344,444.4063 1915.625,445.2344 Q1916.5156,446.0469 1918.1094,446.0469 Q1919.0469,446.0469 1919.7031,445.7969 Q1920.0938,445.6406 1920.5156,445.2031 Q1920.7813,444.9375 1920.9219,444.8594 Q1921.0781,444.7813 1921.2813,444.7813 Q1921.6094,444.7813 1921.8594,445.0469 Q1922.125,445.2969 1922.125,445.6406 Q1922.125,445.9844 1921.7813,446.3906 Q1921.2813,446.9688 1920.4844,447.2969 Q1919.4063,447.75 1918.1094,447.75 Q1916.5938,447.75 1915.3906,447.125 Q1914.4063,446.625 1913.7188,445.5625 Q1913.0313,444.4844 1913.0313,443.2031 L1913.0313,442.0469 Q1913.0313,440.7188 1913.6406,439.5781 Q1914.2656,438.4219 1915.3594,437.8125 Q1916.4531,437.1875 1917.6875,437.1875 Q1918.4219,437.1875 1919.0625,437.3594 Q1919.7188,437.5156 1920.2656,437.875 Z " fill="#000000"/><text fill="#000000" font-family="sans-serif" font-size="14" lengthAdjust="spacing" textLength="49" x="1931.5" y="447.7969">Product</text></g><!--class ArrayList--><g id="elem_ArrayList"><rect fill="#F1F1F1" height="32" id="ArrayList" rx="2.5" ry="2.5" style="stroke:#181818;stroke-width:0.5;" width="88" x="2298" y="426"/><ellipse cx="2313" cy="442" fill="#ADD1B2" rx="11" ry="11" style="stroke:#181818;stroke-width:1.0;"/><path d="M2315.7656,437.875 Q2315.9219,437.6563 2316.1094,437.5469 Q2316.2969,437.4375 2316.5156,437.4375 Q2316.8906,437.4375 2317.125,437.7031 Q2317.3594,437.9531 2317.3594,438.5625 L2317.3594,440.0156 Q2317.3594,440.625 2317.125,440.8906 Q2316.8906,441.1563 2316.5156,441.1563 Q2316.1719,441.1563 2315.9688,440.9531 Q2315.7656,440.7656 2315.6563,440.25 Q2315.6094,439.8906 2315.4219,439.7031 Q2315.0938,439.3281 2314.4844,439.1094 Q2313.875,438.8906 2313.25,438.8906 Q2312.4844,438.8906 2311.8438,439.2188 Q2311.2188,439.5469 2310.7188,440.2969 Q2310.2344,441.0469 2310.2344,442.0781 L2310.2344,443.1719 Q2310.2344,444.4063 2311.125,445.2344 Q2312.0156,446.0469 2313.6094,446.0469 Q2314.5469,446.0469 2315.2031,445.7969 Q2315.5938,445.6406 2316.0156,445.2031 Q2316.2813,444.9375 2316.4219,444.8594 Q2316.5781,444.7813 2316.7813,444.7813 Q2317.1094,444.7813 2317.3594,445.0469 Q2317.625,445.2969 2317.625,445.6406 Q2317.625,445.9844 2317.2813,446.3906 Q2316.7813,446.9688 2315.9844,447.2969 Q2314.9063,447.75 2313.6094,447.75 Q2312.0938,447.75 2310.8906,447.125 Q2309.9063,446.625 2309.2188,445.5625 Q2308.5313,444.4844 2308.5313,443.2031 L2308.5313,442.0469 Q2308.5313,440.7188 2309.1406,439.5781 Q2309.7656,438.4219 2310.8594,437.8125 Q2311.9531,437.1875 2313.1875,437.1875 Q2313.9219,437.1875 2314.5625,437.3594 Q2315.2188,437.5156 2315.7656,437.875 Z " fill="#000000"/><text fill="#000000" font-family="sans-serif" font-size="14" lengthAdjust="spacing" textLength="56" x="2327" y="447.7969">ArrayList</text></g><!--link Cart to ArrayList--><g id="link_Cart_ArrayList"><path codeLine="52" d="M448.62,258.28 C448.62,288.63 448.62,316 448.62,316 C448.62,316 2342,316 2342,316 C2342,316 2342,373.76 2342,407.79 " fill="none" id="Cart-to-ArrayList" style="stroke:#181818;stroke-width:1.0;"/><polygon fill="none" points="2342,425.79,2348,407.79,2336,407.79,2342,425.79" style="stroke:#181818;stroke-width:1.0;"/></g><!--link Cart to Priced--><g id="link_Cart_Priced"><path codeLine="53" d="M262,258.28 C262,310.47 262,357.46 262,394.5 " fill="none" id="Cart-to-Priced" style="stroke:#181818;stroke-width:1.0;stroke-dasharray:7.0,7.0;"/><polygon fill="none" points="262,412.5,268,394.5,256,394.5,262,412.5" style="stroke:#181818;stroke-width:1.0;"/></g><!--link Cart to salespointframework--><g id="link_Cart_salespointframework"><path codeLine="54" d="M420.75,258.23 C420.75,308.57 420.75,364 420.75,364 C420.75,364 779.0625,364 1137.375,364 C1316.5313,364 1495.6875,364 1630.0547,364 C1697.2383,364 1753.2246,364 1792.415,364 C1812.0103,364 1827.4065,364 1837.9039,364 C1840.5283,364 1836.8465,364 1838.8475,364 " fill="none" id="Cart-to-salespointframework" style="stroke:#181818;stroke-width:1.0;stroke-dasharray:7.0,7.0;"/><polygon fill="#181818" points="1844.8475,364,1835.8475,360,1839.8475,364,1835.8475,368,1844.8475,364" style="stroke:#181818;stroke-width:1.0;"/><text fill="#000000" font-family="sans-serif" font-size="13" lengthAdjust="spacing" textLength="35" x="1087.24" y="360.0283">&#171;use&#187;</text></g><!--link Cart to reservation--><g id="link_Cart_reservation"><path codeLine="55" d="M392.88,258.28 C392.88,335.95 392.88,442 392.88,442 C392.88,442 1382.23,442 1643.7,442 " fill="none" id="Cart-to-reservation" style="stroke:#181818;stroke-width:1.0;stroke-dasharray:7.0,7.0;"/><polygon fill="#181818" points="1649.7,442,1640.7,438,1644.7,442,1640.7,446,1649.7,442" style="stroke:#181818;stroke-width:1.0;"/><text fill="#000000" font-family="sans-serif" font-size="13" lengthAdjust="spacing" textLength="35" x="893.43" y="438.0283">&#171;use&#187;</text></g><!--link DashboardController to springframework--><g id="link_DashboardController_springframework"><path codeLine="57" d="M1618.16,178 C1807.62,178 2137,178 2137,178 C2137,178 2137,352.2 2137,414.84 " fill="none" id="DashboardController-to-springframework" style="stroke:#181818;stroke-width:1.0;stroke-dasharray:7.0,7.0;"/><polygon fill="#181818" points="2137,420.84,2141,411.84,2137,415.84,2133,411.84,2137,420.84" style="stroke:#181818;stroke-width:1.0;"/><text fill="#000000" font-family="sans-serif" font-size="13" lengthAdjust="spacing" textLength="35" x="1963" y="174.0283">&#171;use&#187;</text></g><!--link DetailedProduct to Product--><g id="link_DetailedProduct_Product"><path codeLine="59" d="M1323.14,238 C1583.37,238 1943,238 1943,238 C1943,238 1943,359.9 1943,407.99 " fill="none" id="DetailedProduct-to-Product" style="stroke:#181818;stroke-width:1.0;"/><polygon fill="none" points="1943,425.99,1949,407.99,1937,407.99,1943,425.99" style="stroke:#181818;stroke-width:1.0;"/></g><!--SRC=[VLJRRjim37ttLmZOIuekmPwB84FM2n1WnOer_G1MPX8jikHHT5gtox-FYXn7thB5WI6JvnmVKQGtfaI5LSsjMXcqPIWsfqY5lF4I2blZQY2ebBOGmfoPp7F3kD3UFPetL9yoY3KEkQrHUH9sblW2UhictxZosbjFwiFTRRmAiDQ_LERLk7M6hWKDQtpargAwamWMHHTJ6gfQqBK5VdilbFoE6SA0j0CstXNxuiJmj1u2GqsYi8gwBvwsmnnO3BKtZljy8XzsBszdi7uzUI1VDfeFcNryspbxauQD3Ihdto23iLXs_9GQcqge3y2RA_N8qLiAbnZq87Bv1tsKSig9qu_gtZjibUnDoqENwPNxI1GbKySgNIJHDVBY21jT35yOybodi0FReE1stfIzmet8dY4Vml_YxRF2N0FnTAdmbT6LGNKRdAK2NMP7kvJskbBNaJJztEE_dm3JvMpMsyhYtrPFiXx5srnhQKLMZQp5q5SJU7fM0SfoD4paNIRKP-yjWajemqZ0dc8T5jqwrxrrJEr9FCZqHAZqMk_t8PvU3CR3PA1sNaMdMRa4ZRG2ZUg0BT-FN4hF_oMdMZ_5jknQxx0UTPtm7bYCwhtIX20ZxkJPYPzKRTcyja7aushvb-eDXCsp1v89btrwQv4wRp9Fn05_DgQkqF7etfTeLHNlmuwHEP9_R0Kr7l-QgH-mWyCGJUP4qCPpIjd9HB9flyV0xDpeYjUf7B9Kl4TbvtVA5cVC9ytXfo9d34Sn6Jv-5du3]--></g></svg>