<?xml version="1.0" encoding="us-ascii" standalone="no"?><svg xmlns="http://www.w3.org/2000/svg" xmlns:xlink="http://www.w3.org/1999/xlink" contentStyleType="text/css" height="1258px" preserveAspectRatio="none" style="width:4109px;height:1258px;background:#FEFEFE;" version="1.1" viewBox="0 0 4109 1258" width="4109px" zoomAndPan="magnify"><defs/><g><rect fill="#FEFEFE" height="1258" style="stroke:none;stroke-width:1.0;" width="4109" x="0" y="0"/><!--cluster campingplatz--><g id="cluster_campingplatz"><rect fill="none" height="1245" rx="2.5" ry="2.5" style="stroke:#000000;stroke-width:1.5;" width="3638" x="7" y="7"/><path d="M109,7 L109,18.6211 L99,28.6211 L7,28.6211 " fill="none" style="stroke:#000000;stroke-width:1.5;"/><text fill="#000000" font-family="sans-serif" font-size="14" font-weight="bold" lengthAdjust="spacing" textLength="92" x="10" y="23.1074">campingplatz</text></g><!--cluster utils--><g id="cluster_utils"><rect fill="none" height="85" rx="2.5" ry="2.5" style="stroke:#000000;stroke-width:1.5;" width="104" x="275" y="1143"/><path d="M315,1143 L315,1154.6211 L305,1164.6211 L275,1164.6211 " fill="none" style="stroke:#000000;stroke-width:1.5;"/><text fill="#000000" font-family="sans-serif" font-size="14" font-weight="bold" lengthAdjust="spacing" textLength="30" x="278" y="1159.1074">utils</text></g><!--cluster reservation--><g id="cluster_reservation"><rect fill="none" height="1022" rx="2.5" ry="2.5" style="stroke:#000000;stroke-width:1.5;" width="3590" x="31" y="52"/><path d="M123,52 L123,63.6211 L113,73.6211 L31,73.6211 " fill="none" style="stroke:#000000;stroke-width:1.5;"/><text fill="#000000" font-family="sans-serif" font-size="14" font-weight="bold" lengthAdjust="spacing" textLength="82" x="34" y="68.1074">reservation</text></g><!--cluster org--><g id="cluster_org"><rect fill="none" height="292" rx="2.5" ry="2.5" style="stroke:#000000;stroke-width:1.5;" width="308" x="3669" y="585.5"/><path d="M3703,585.5 L3703,597.1211 L3693,607.1211 L3669,607.1211 " fill="none" style="stroke:#000000;stroke-width:1.5;"/><text fill="#000000" font-family="sans-serif" font-size="14" font-weight="bold" lengthAdjust="spacing" textLength="24" x="3672" y="601.6074">org</text></g><!--cluster springframework--><g id="cluster_springframework"><rect fill="none" height="223" rx="2.5" ry="2.5" style="stroke:#000000;stroke-width:1.5;" width="260" x="3693" y="630.5"/><path d="M3822,630.5 L3822,642.1211 L3812,652.1211 L3693,652.1211 " fill="none" style="stroke:#000000;stroke-width:1.5;"/><text fill="#000000" font-family="sans-serif" font-size="14" font-weight="bold" lengthAdjust="spacing" textLength="119" x="3696" y="646.6074">springframework</text></g><!--cluster data--><g id="cluster_data"><rect fill="none" height="154" rx="2.5" ry="2.5" style="stroke:#000000;stroke-width:1.5;" width="212" x="3717" y="675.5"/><path d="M3757,675.5 L3757,687.1211 L3747,697.1211 L3717,697.1211 " fill="none" style="stroke:#000000;stroke-width:1.5;"/><text fill="#000000" font-family="sans-serif" font-size="14" font-weight="bold" lengthAdjust="spacing" textLength="30" x="3720" y="691.6074">data</text></g><!--cluster repository--><g id="cluster_repository"><rect fill="none" height="85" rx="2.5" ry="2.5" style="stroke:#000000;stroke-width:1.5;" width="164" x="3741" y="720.5"/><path d="M3823,720.5 L3823,732.1211 L3813,742.1211 L3741,742.1211 " fill="none" style="stroke:#000000;stroke-width:1.5;"/><text fill="#000000" font-family="sans-serif" font-size="14" font-weight="bold" lengthAdjust="spacing" textLength="72" x="3744" y="736.6074">repository</text></g><!--cluster java--><g id="cluster_java"><rect fill="none" height="154" rx="2.5" ry="2.5" style="stroke:#000000;stroke-width:1.5;" width="164" x="3669" y="1098"/><path d="M3708,1098 L3708,1109.6211 L3698,1119.6211 L3669,1119.6211 " fill="none" style="stroke:#000000;stroke-width:1.5;"/><text fill="#000000" font-family="sans-serif" font-size="14" font-weight="bold" lengthAdjust="spacing" textLength="29" x="3672" y="1114.1074">java</text></g><!--cluster util--><g id="cluster_util"><rect fill="none" height="85" rx="2.5" ry="2.5" style="stroke:#000000;stroke-width:1.5;" width="116" x="3693" y="1143"/><path d="M3725,1143 L3725,1154.6211 L3715,1164.6211 L3693,1164.6211 " fill="none" style="stroke:#000000;stroke-width:1.5;"/><text fill="#000000" font-family="sans-serif" font-size="14" font-weight="bold" lengthAdjust="spacing" textLength="22" x="3696" y="1159.1074">util</text></g><!--class Priced--><g id="elem_Priced"><rect codeLine="9" fill="#F1F1F1" height="32" id="Priced" rx="2.5" ry="2.5" style="stroke:#181818;stroke-width:0.5;" width="72" x="291" y="1180"/><ellipse cx="306" cy="1196" fill="#B4A7E5" rx="11" ry="11" style="stroke:#181818;stroke-width:1.0;"/><path d="M306.9531,1192.6406 L306.9531,1199.2969 L308.6719,1199.2969 Q309.2813,1199.2969 309.5469,1199.5313 Q309.8125,1199.7656 309.8125,1200.1563 Q309.8125,1200.5313 309.5469,1200.7656 Q309.2813,1201 308.6719,1201 L303.5313,1201 Q302.9219,1201 302.6563,1200.7656 Q302.3906,1200.5313 302.3906,1200.1406 Q302.3906,1199.7656 302.6563,1199.5313 Q302.9219,1199.2969 303.5313,1199.2969 L305.25,1199.2969 L305.25,1192.6406 L303.5313,1192.6406 Q302.9219,1192.6406 302.6563,1192.4063 Q302.3906,1192.1719 302.3906,1191.7813 Q302.3906,1191.4063 302.6563,1191.1719 Q302.9219,1190.9375 303.5313,1190.9375 L308.6719,1190.9375 Q309.2813,1190.9375 309.5469,1191.1719 Q309.8125,1191.4063 309.8125,1191.7813 Q309.8125,1192.1719 309.5469,1192.4063 Q309.2813,1192.6406 308.6719,1192.6406 L306.9531,1192.6406 Z " fill="#000000"/><text fill="#000000" font-family="sans-serif" font-size="14" font-style="italic" lengthAdjust="spacing" textLength="40" x="320" y="1201.7969">Priced</text></g><!--class Reservation--><g id="elem_Reservation"><rect codeLine="14" fill="#F1F1F1" height="569.3906" id="Reservation" rx="2.5" ry="2.5" style="stroke:#181818;stroke-width:0.5;" width="560" x="47" y="489"/><ellipse cx="234.25" cy="505" fill="#A9DCDF" rx="11" ry="11" style="stroke:#181818;stroke-width:1.0;"/><path d="M236.4375,506.7656 L232.2969,506.7656 L231.875,507.7969 L232.2969,507.7969 Q232.9063,507.7969 233.1719,508.0313 Q233.4375,508.2656 233.4375,508.6563 Q233.4375,509.0313 233.1719,509.2656 Q232.9063,509.5 232.2969,509.5 L230,509.5 Q229.3906,509.5 229.1406,509.2656 Q228.875,509.0313 228.875,508.6406 Q228.875,508.2656 229.1563,508.0313 Q229.4219,507.7813 230.0469,507.7969 L232.7188,501.1406 L231.6094,501.1406 Q231,501.1406 230.7344,500.9063 Q230.4688,500.6719 230.4688,500.2813 Q230.4688,499.9063 230.7344,499.6719 Q231,499.4375 231.6094,499.4375 L235.2813,499.4375 L238.6719,507.7969 Q239.2656,507.7969 239.4531,507.9375 Q239.8438,508.2031 239.8438,508.6563 Q239.8438,509.0313 239.5781,509.2656 Q239.3281,509.5 238.7188,509.5 L236.4219,509.5 Q235.8125,509.5 235.5469,509.2656 Q235.2813,509.0313 235.2813,508.6406 Q235.2813,508.2656 235.5469,508.0313 Q235.8125,507.7969 236.4219,507.7969 L236.8438,507.7969 L236.4375,506.7656 Z M235.7188,505.0625 L234.3594,501.6875 L232.9844,505.0625 L235.7188,505.0625 Z " fill="#000000"/><text fill="#000000" font-family="sans-serif" font-size="14" font-style="italic" lengthAdjust="spacing" textLength="75" x="254.75" y="510.7969">Reservation</text><rect fill="#FEFEFE" height="17.9609" style="stroke:#181818;stroke-width:1.0;stroke-dasharray:2.0,2.0;" width="100" x="510" y="486"/><text fill="#000000" font-family="sans-serif" font-size="12" font-style="italic" lengthAdjust="spacing" textLength="98" x="511" y="499.9492">T extends Product</text><line style="stroke:#181818;stroke-width:0.5;" x1="48" x2="606" y1="521" y2="521"/><text fill="#000000" font-family="sans-serif" font-size="14" lengthAdjust="spacing" textLength="58" x="53" y="540.1074">+id: UUID</text><text fill="#000000" font-family="sans-serif" font-size="14" lengthAdjust="spacing" textLength="109" x="53" y="558.7285">-discount: double</text><text fill="#000000" font-family="sans-serif" font-size="14" lengthAdjust="spacing" textLength="121" x="53" y="577.3496">-user: UserAccount</text><text fill="#000000" font-family="sans-serif" font-size="14" lengthAdjust="spacing" textLength="70" x="53" y="595.9707">-product: T</text><text fill="#000000" font-family="sans-serif" font-size="14" lengthAdjust="spacing" textLength="143" x="53" y="614.5918">-begin: LocalDateTime</text><text fill="#000000" font-family="sans-serif" font-size="14" lengthAdjust="spacing" textLength="132" x="53" y="633.2129">-end: LocalDateTime</text><text fill="#000000" font-family="sans-serif" font-size="14" lengthAdjust="spacing" textLength="77" x="53" y="651.834">-state: State</text><line style="stroke:#181818;stroke-width:0.5;" x1="48" x2="606" y1="659.3477" y2="659.3477"/><text fill="#000000" font-family="sans-serif" font-size="14" lengthAdjust="spacing" textLength="548" x="53" y="678.4551">+Reservation(UserAccount user, T product, LocalDateTime begin, LocalDateTime end)</text><text fill="#000000" font-family="sans-serif" font-size="14" lengthAdjust="spacing" textLength="245" x="53" y="697.0762">+Reservation(Reservation&lt;T&gt; original)</text><text fill="#000000" font-family="sans-serif" font-size="14" lengthAdjust="spacing" textLength="226" x="53" y="715.6973">+setDiscount(double discount): void</text><text fill="#000000" font-family="sans-serif" font-size="14" lengthAdjust="spacing" textLength="262" x="53" y="734.3184">+getPreDiscountPrice(): MonetaryAmount</text><text fill="#000000" font-family="sans-serif" font-size="14" lengthAdjust="spacing" textLength="185" x="53" y="752.9395">+getPrice(): MonetaryAmount</text><text fill="#000000" font-family="sans-serif" font-size="14" lengthAdjust="spacing" textLength="156" x="53" y="771.5605">+hasDiscount(): Boolean</text><text fill="#000000" font-family="sans-serif" font-size="14" font-style="italic" lengthAdjust="spacing" textLength="189" x="53" y="790.1816">+getIntervalUnit(): ChronoUnit</text><text fill="#000000" font-family="sans-serif" font-size="14" lengthAdjust="spacing" textLength="248" x="53" y="808.8027">+getIntervalAmount(): TemporalAmount</text><text fill="#000000" font-family="sans-serif" font-size="14" lengthAdjust="spacing" textLength="105" x="53" y="827.4238">+duration(): long</text><text fill="#000000" font-family="sans-serif" font-size="14" lengthAdjust="spacing" textLength="88" x="53" y="846.0449">+getId(): UUID</text><text fill="#000000" font-family="sans-serif" font-size="14" lengthAdjust="spacing" textLength="144" x="53" y="864.666">+getDiscount(): double</text><text fill="#000000" font-family="sans-serif" font-size="14" lengthAdjust="spacing" textLength="155" x="53" y="883.2871">+getUser(): UserAccount</text><text fill="#000000" font-family="sans-serif" font-size="14" lengthAdjust="spacing" textLength="218" x="53" y="901.9082">+setUser(UserAccount value): void</text><text fill="#000000" font-family="sans-serif" font-size="14" lengthAdjust="spacing" textLength="104" x="53" y="920.5293">+getProduct(): T</text><text fill="#000000" font-family="sans-serif" font-size="14" lengthAdjust="spacing" textLength="167" x="53" y="939.1504">+setProduct(T value): void</text><text fill="#000000" font-family="sans-serif" font-size="14" lengthAdjust="spacing" textLength="177" x="53" y="957.7715">+getBegin(): LocalDateTime</text><text fill="#000000" font-family="sans-serif" font-size="14" lengthAdjust="spacing" textLength="240" x="53" y="976.3926">+setBegin(LocalDateTime value): void</text><text fill="#000000" font-family="sans-serif" font-size="14" lengthAdjust="spacing" textLength="166" x="53" y="995.0137">+getEnd(): LocalDateTime</text><text fill="#000000" font-family="sans-serif" font-size="14" lengthAdjust="spacing" textLength="229" x="53" y="1013.6348">+setEnd(LocalDateTime value): void</text><text fill="#000000" font-family="sans-serif" font-size="14" lengthAdjust="spacing" textLength="112" x="53" y="1032.2559">+getState(): State</text><text fill="#000000" font-family="sans-serif" font-size="14" lengthAdjust="spacing" textLength="175" x="53" y="1050.877">+setState(State value): void</text></g><!--class State--><g id="elem_State"><rect codeLine="44" fill="#F1F1F1" height="178.3477" id="State" rx="2.5" ry="2.5" style="stroke:#181818;stroke-width:0.5;" width="199" x="47.5" y="170"/><ellipse cx="126.25" cy="186" fill="#EB937F" rx="11" ry="11" style="stroke:#181818;stroke-width:1.0;"/><path d="M125.1094,186.7969 L125.1094,189.2969 L129.4375,189.2969 L129.4375,188.375 Q129.4375,187.7656 129.6719,187.5 Q129.9219,187.2344 130.2969,187.2344 Q130.6719,187.2344 130.9063,187.5 Q131.1406,187.7656 131.1406,188.375 L131.1406,191 L123.1406,191 Q122.5156,191 122.25,190.7656 Q122,190.5313 122,190.1406 Q122,189.7656 122.2656,189.5313 Q122.5313,189.2969 123.1406,189.2969 L123.4063,189.2969 L123.4063,182.6406 L123.1406,182.6406 Q122.5156,182.6406 122.25,182.4063 Q122,182.1719 122,181.7813 Q122,181.4063 122.25,181.1719 Q122.5156,180.9375 123.1406,180.9375 L130.7656,180.9375 L130.7656,183.5313 Q130.7656,184.1406 130.5313,184.4063 Q130.3125,184.6563 129.9219,184.6563 Q129.5469,184.6563 129.3125,184.4063 Q129.0781,184.1406 129.0781,183.5313 L129.0781,182.6406 L125.1094,182.6406 L125.1094,185.0938 L126.5938,185.0938 Q126.5938,184.4375 126.7188,184.25 Q126.9844,183.8438 127.4531,183.8438 Q127.8281,183.8438 128.0625,184.1094 Q128.2969,184.3594 128.2969,184.9688 L128.2969,186.9375 Q128.2969,187.4844 128.1719,187.6719 Q127.9063,188.0625 127.4531,188.0625 Q126.9844,188.0625 126.7188,187.6563 Q126.5938,187.4688 126.5938,186.7969 L125.1094,186.7969 Z " fill="#000000"/><text fill="#000000" font-family="sans-serif" font-size="14" lengthAdjust="spacing" textLength="33" x="146.75" y="191.7969">State</text><line style="stroke:#181818;stroke-width:0.5;" x1="48.5" x2="245.5" y1="202" y2="202"/><text fill="#000000" font-family="sans-serif" font-size="14" lengthAdjust="spacing" textLength="86" x="53.5" y="221.1074">NOT_TAKEN,</text><text fill="#000000" font-family="sans-serif" font-size="14" lengthAdjust="spacing" textLength="49" x="53.5" y="239.7285">TAKEN,</text><text fill="#000000" font-family="sans-serif" font-size="14" lengthAdjust="spacing" textLength="46" x="53.5" y="258.3496">PAYED</text><text fill="#000000" font-family="sans-serif" font-size="14" lengthAdjust="spacing" textLength="91" x="53.5" y="276.9707">-value: Integer</text><line style="stroke:#181818;stroke-width:0.5;" x1="48.5" x2="245.5" y1="284.4844" y2="284.4844"/><text fill="#000000" font-family="sans-serif" font-size="14" lengthAdjust="spacing" textLength="133" x="53.5" y="303.5918">+State(Integer value)</text><text fill="#000000" font-family="sans-serif" font-size="14" lengthAdjust="spacing" textLength="126" x="53.5" y="322.2129">+getValue(): Integer</text><text fill="#000000" font-family="sans-serif" font-size="14" lengthAdjust="spacing" text-decoration="underline" textLength="187" x="53.5" y="340.834">+fromNumber(Integer i): State</text></g><!--class ReservationController--><g id="elem_ReservationController"><rect codeLine="53" fill="#F1F1F1" height="339.8984" id="ReservationController" rx="2.5" ry="2.5" style="stroke:#181818;stroke-width:0.5;" width="1860" x="1376" y="89"/><ellipse cx="2232.75" cy="111.291" fill="#ADD1B2" rx="11" ry="11" style="stroke:#181818;stroke-width:1.0;"/><path d="M2235.5156,107.166 Q2235.6719,106.9473 2235.8594,106.8379 Q2236.0469,106.7285 2236.2656,106.7285 Q2236.6406,106.7285 2236.875,106.9941 Q2237.1094,107.2441 2237.1094,107.8535 L2237.1094,109.3066 Q2237.1094,109.916 2236.875,110.1816 Q2236.6406,110.4473 2236.2656,110.4473 Q2235.9219,110.4473 2235.7188,110.2441 Q2235.5156,110.0566 2235.4063,109.541 Q2235.3594,109.1816 2235.1719,108.9941 Q2234.8438,108.6191 2234.2344,108.4004 Q2233.625,108.1816 2233,108.1816 Q2232.2344,108.1816 2231.5938,108.5098 Q2230.9688,108.8379 2230.4688,109.5879 Q2229.9844,110.3379 2229.9844,111.3691 L2229.9844,112.4629 Q2229.9844,113.6973 2230.875,114.5254 Q2231.7656,115.3379 2233.3594,115.3379 Q2234.2969,115.3379 2234.9531,115.0879 Q2235.3438,114.9316 2235.7656,114.4941 Q2236.0313,114.2285 2236.1719,114.1504 Q2236.3281,114.0723 2236.5313,114.0723 Q2236.8594,114.0723 2237.1094,114.3379 Q2237.375,114.5879 2237.375,114.9316 Q2237.375,115.2754 2237.0313,115.6816 Q2236.5313,116.2598 2235.7344,116.5879 Q2234.6563,117.041 2233.3594,117.041 Q2231.8438,117.041 2230.6406,116.416 Q2229.6563,115.916 2228.9688,114.8535 Q2228.2813,113.7754 2228.2813,112.4941 L2228.2813,111.3379 Q2228.2813,110.0098 2228.8906,108.8691 Q2229.5156,107.7129 2230.6094,107.1035 Q2231.7031,106.4785 2232.9375,106.4785 Q2233.6719,106.4785 2234.3125,106.6504 Q2234.9688,106.8066 2235.5156,107.166 Z " fill="#000000"/><text fill="#000000" font-family="sans-serif" font-size="12" font-style="italic" lengthAdjust="spacing" textLength="68" x="2288.25" y="106.9492">&#171;Controller&#187;</text><text fill="#000000" font-family="sans-serif" font-size="14" lengthAdjust="spacing" textLength="138" x="2253.25" y="125.0684">ReservationController</text><line style="stroke:#181818;stroke-width:0.5;" x1="1377" x2="3235" y1="133.582" y2="133.582"/><text fill="#000000" font-family="sans-serif" font-size="14" lengthAdjust="spacing" textLength="348" x="1382" y="152.6895">-plotReservationRepository: PlotReservationRepository</text><text fill="#000000" font-family="sans-serif" font-size="14" lengthAdjust="spacing" textLength="419" x="1382" y="171.3105">-sportItemReservationRepository: SportItemReservationRepository</text><text fill="#000000" font-family="sans-serif" font-size="14" lengthAdjust="spacing" textLength="465" x="1382" y="189.9316">-seasonalPlotReservationRepository: SeasonalPlotReservationRepository</text><text fill="#000000" font-family="sans-serif" font-size="14" lengthAdjust="spacing" textLength="458" x="1382" y="208.5527">-plotReservationDiscountRepository: PlotReservationDiscountRepository</text><line style="stroke:#181818;stroke-width:0.5;" x1="1377" x2="3235" y1="216.0664" y2="216.0664"/><text fill="#000000" font-family="sans-serif" font-size="14" lengthAdjust="spacing" textLength="494" x="1382" y="235.1738">+ReservationController(PlotReservationRepository plotReservationRepository,</text><text fill="#000000" font-family="sans-serif" font-size="14" lengthAdjust="spacing" textLength="1336" x="1894" y="235.1738">SportItemReservationRepository sportItemReservationRepository, SeasonalPlotReservationRepository seasonalPlotReservationRepository, PlotReservationDiscountRepository plotReservationDiscountRepository)</text><text fill="#000000" font-family="sans-serif" font-size="14" lengthAdjust="spacing" textLength="153" x="1382" y="253.7949">+initializeCart(): PlotCart</text><text fill="#000000" font-family="sans-serif" font-size="14" lengthAdjust="spacing" textLength="223" x="1382" y="272.416">+initializeSportCart(): SportItemCart</text><text fill="#000000" font-family="sans-serif" font-size="14" lengthAdjust="spacing" textLength="271" x="1382" y="291.0371">+initializeSeasonalCart(): SeasonalPlotCart</text><text fill="#000000" font-family="sans-serif" font-size="14" lengthAdjust="spacing" textLength="913" x="1382" y="309.6582">+cart(Model model, UserAccount userAccount, PlotCart reservationCart, SeasonalPlotCart seasonalPlotCart, SportItemCart sportItemCart): String</text><text fill="#000000" font-family="sans-serif" font-size="14" lengthAdjust="spacing" textLength="1121" x="1382" y="328.2793">+removeCartItem(Model model, UserAccount userAccount, int index String type, PlotCart reservationCart, SeasonalPlotCart seasonalPlotCart, SportItemCart sportItemCart): String</text><text fill="#000000" font-family="sans-serif" font-size="14" lengthAdjust="spacing" textLength="938" x="1382" y="346.9004">+reservate(Model model, UserAccount userAccount, PlotCart reservationCart, SeasonalPlotCart seasonPlotCart, SportItemCart sportItemCart): String</text><text fill="#000000" font-family="sans-serif" font-size="14" lengthAdjust="spacing" textLength="304" x="1382" y="365.5215">+orders(Model model, UserAccount user): String</text><text fill="#000000" font-family="sans-serif" font-size="14" lengthAdjust="spacing" textLength="247" x="1382" y="384.1426">+periodicallyDeleteReservatinos(): void</text><text fill="#000000" font-family="sans-serif" font-size="14" lengthAdjust="spacing" textLength="493" x="1382" y="402.7637">+validatePlotReservations(List&lt;PlotReservation&gt; input): List&lt;PlotReservation&gt;</text><text fill="#000000" font-family="sans-serif" font-size="14" lengthAdjust="spacing" textLength="601" x="1382" y="421.3848">+validateSportItemReservations(List&lt;SportItemReservation&gt; input): List&lt;SportItemReservation&gt;</text></g><!--class ReservationDiscounter--><g id="elem_ReservationDiscounter"><rect codeLine="70" fill="#F1F1F1" height="77.2422" id="ReservationDiscounter" rx="2.5" ry="2.5" style="stroke:#181818;stroke-width:0.5;" width="428" x="913" y="220.5"/><ellipse cx="928" cy="236.5" fill="#A9DCDF" rx="11" ry="11" style="stroke:#181818;stroke-width:1.0;"/><path d="M930.1875,238.2656 L926.0469,238.2656 L925.625,239.2969 L926.0469,239.2969 Q926.6563,239.2969 926.9219,239.5313 Q927.1875,239.7656 927.1875,240.1563 Q927.1875,240.5313 926.9219,240.7656 Q926.6563,241 926.0469,241 L923.75,241 Q923.1406,241 922.8906,240.7656 Q922.625,240.5313 922.625,240.1406 Q922.625,239.7656 922.9063,239.5313 Q923.1719,239.2813 923.7969,239.2969 L926.4688,232.6406 L925.3594,232.6406 Q924.75,232.6406 924.4844,232.4063 Q924.2188,232.1719 924.2188,231.7813 Q924.2188,231.4063 924.4844,231.1719 Q924.75,230.9375 925.3594,230.9375 L929.0313,230.9375 L932.4219,239.2969 Q933.0156,239.2969 933.2031,239.4375 Q933.5938,239.7031 933.5938,240.1563 Q933.5938,240.5313 933.3281,240.7656 Q933.0781,241 932.4688,241 L930.1719,241 Q929.5625,241 929.2969,240.7656 Q929.0313,240.5313 929.0313,240.1406 Q929.0313,239.7656 929.2969,239.5313 Q929.5625,239.2969 930.1719,239.2969 L930.5938,239.2969 L930.1875,238.2656 Z M929.4688,236.5625 L928.1094,233.1875 L926.7344,236.5625 L929.4688,236.5625 Z " fill="#000000"/><text fill="#000000" font-family="sans-serif" font-size="14" font-style="italic" lengthAdjust="spacing" textLength="143" x="942" y="242.2969">ReservationDiscounter</text><rect fill="#FEFEFE" height="17.9609" style="stroke:#181818;stroke-width:1.0;stroke-dasharray:2.0,2.0;" width="251" x="1093" y="217.5"/><text fill="#000000" font-family="sans-serif" font-size="12" font-style="italic" lengthAdjust="spacing" textLength="249" x="1094" y="231.4492">T extends Product, U extends Reservation&lt;T&gt;</text><line style="stroke:#181818;stroke-width:0.5;" x1="914" x2="1340" y1="252.5" y2="252.5"/><text fill="#000000" font-family="sans-serif" font-size="14" font-style="italic" lengthAdjust="spacing" textLength="224" x="919" y="271.6074">+applyDiscount(U reservation): void</text><text fill="#000000" font-family="sans-serif" font-size="14" lengthAdjust="spacing" textLength="156" x="919" y="290.2285">+applyDiscountToAll(List</text><text fill="#000000" font-family="sans-serif" font-size="14" lengthAdjust="spacing" text-decoration="underline" textLength="117" x="1079" y="290.2285">reservations): void</text></g><!--class ReservationRepository--><g id="elem_ReservationRepository"><rect codeLine="75" fill="#F1F1F1" height="201.5508" id="ReservationRepository" rx="2.5" ry="2.5" style="stroke:#181818;stroke-width:0.5;" width="596" x="282" y="158"/><ellipse cx="377.75" cy="180.291" fill="#B4A7E5" rx="11" ry="11" style="stroke:#181818;stroke-width:1.0;"/><path d="M378.7031,176.9316 L378.7031,183.5879 L380.4219,183.5879 Q381.0313,183.5879 381.2969,183.8223 Q381.5625,184.0566 381.5625,184.4473 Q381.5625,184.8223 381.2969,185.0566 Q381.0313,185.291 380.4219,185.291 L375.2813,185.291 Q374.6719,185.291 374.4063,185.0566 Q374.1406,184.8223 374.1406,184.4316 Q374.1406,184.0566 374.4063,183.8223 Q374.6719,183.5879 375.2813,183.5879 L377,183.5879 L377,176.9316 L375.2813,176.9316 Q374.6719,176.9316 374.4063,176.6973 Q374.1406,176.4629 374.1406,176.0723 Q374.1406,175.6973 374.4063,175.4629 Q374.6719,175.2285 375.2813,175.2285 L380.4219,175.2285 Q381.0313,175.2285 381.2969,175.4629 Q381.5625,175.6973 381.5625,176.0723 Q381.5625,176.4629 381.2969,176.6973 Q381.0313,176.9316 380.4219,176.9316 L378.7031,176.9316 Z " fill="#000000"/><text fill="#000000" font-family="sans-serif" font-size="12" font-style="italic" lengthAdjust="spacing" textLength="118" x="410.75" y="175.9492">&#171;NoRepositoryBean&#187;</text><text fill="#000000" font-family="sans-serif" font-size="14" font-style="italic" lengthAdjust="spacing" textLength="143" x="398.25" y="194.0684">ReservationRepository</text><rect fill="#FEFEFE" height="17.9609" style="stroke:#181818;stroke-width:1.0;stroke-dasharray:2.0,2.0;" width="251" x="630" y="155"/><text fill="#000000" font-family="sans-serif" font-size="12" font-style="italic" lengthAdjust="spacing" textLength="249" x="631" y="168.9492">T extends Product, U extends Reservation&lt;T&gt;</text><line style="stroke:#181818;stroke-width:0.5;" x1="283" x2="877" y1="202.582" y2="202.582"/><text fill="#000000" font-family="sans-serif" font-size="14" lengthAdjust="spacing" textLength="111" x="288" y="221.6895">+findAll(): List&lt;U&gt;</text><text fill="#000000" font-family="sans-serif" font-size="14" lengthAdjust="spacing" textLength="385" x="288" y="240.3105">+findByUserId(UserAccount.UserAccountIdentifier id): List&lt;U&gt;</text><text fill="#000000" font-family="sans-serif" font-size="14" lengthAdjust="spacing" textLength="141" x="288" y="258.9316">+findPlotsAll(): Set&lt;T&gt;</text><text fill="#000000" font-family="sans-serif" font-size="14" lengthAdjust="spacing" textLength="540" x="288" y="277.5527">+findReservationsBetween(LocalDateTime arrival, LocalDateTime departure): List&lt;U&gt;</text><text fill="#000000" font-family="sans-serif" font-size="14" lengthAdjust="spacing" textLength="548" x="288" y="296.1738">+findPlotsReservedBetween(LocalDateTime arrival, LocalDateTime departure): Set&lt;T&gt;</text><text fill="#000000" font-family="sans-serif" font-size="14" lengthAdjust="spacing" textLength="584" x="288" y="314.7949">+productIsReservedIn(T product, LocalDateTime arrival, LocalDateTime departure): Boolean</text><text fill="#000000" font-family="sans-serif" font-size="14" lengthAdjust="spacing" textLength="327" x="288" y="333.416">+findUsersOfProduct(T product): Set&lt;UserAccount&gt;</text><text fill="#000000" font-family="sans-serif" font-size="14" lengthAdjust="spacing" textLength="291" x="288" y="352.0371">+deleteBeforeThan(LocalDateTime time): void</text></g><!--class Cart--><g id="elem_Cart"><rect codeLine="85" fill="#F1F1F1" height="252.832" id="Cart" rx="2.5" ry="2.5" style="stroke:#181818;stroke-width:0.5;" width="369" x="3235.5" y="647"/><ellipse cx="3276.15" cy="663" fill="#A9DCDF" rx="11" ry="11" style="stroke:#181818;stroke-width:1.0;"/><path d="M3278.3375,664.7656 L3274.1969,664.7656 L3273.775,665.7969 L3274.1969,665.7969 Q3274.8063,665.7969 3275.0719,666.0313 Q3275.3375,666.2656 3275.3375,666.6563 Q3275.3375,667.0313 3275.0719,667.2656 Q3274.8063,667.5 3274.1969,667.5 L3271.9,667.5 Q3271.2906,667.5 3271.0406,667.2656 Q3270.775,667.0313 3270.775,666.6406 Q3270.775,666.2656 3271.0563,666.0313 Q3271.3219,665.7813 3271.9469,665.7969 L3274.6188,659.1406 L3273.5094,659.1406 Q3272.9,659.1406 3272.6344,658.9063 Q3272.3688,658.6719 3272.3688,658.2813 Q3272.3688,657.9063 3272.6344,657.6719 Q3272.9,657.4375 3273.5094,657.4375 L3277.1813,657.4375 L3280.5719,665.7969 Q3281.1656,665.7969 3281.3531,665.9375 Q3281.7438,666.2031 3281.7438,666.6563 Q3281.7438,667.0313 3281.4781,667.2656 Q3281.2281,667.5 3280.6188,667.5 L3278.3219,667.5 Q3277.7125,667.5 3277.4469,667.2656 Q3277.1813,667.0313 3277.1813,666.6406 Q3277.1813,666.2656 3277.4469,666.0313 Q3277.7125,665.7969 3278.3219,665.7969 L3278.7438,665.7969 L3278.3375,664.7656 Z M3277.6188,663.0625 L3276.2594,659.6875 L3274.8844,663.0625 L3277.6188,663.0625 Z " fill="#000000"/><text fill="#000000" font-family="sans-serif" font-size="14" font-style="italic" lengthAdjust="spacing" textLength="27" x="3295.85" y="668.7969">Cart</text><rect fill="#FEFEFE" height="17.9609" style="stroke:#181818;stroke-width:1.0;stroke-dasharray:2.0,2.0;" width="251" x="3356.5" y="644"/><text fill="#000000" font-family="sans-serif" font-size="12" font-style="italic" lengthAdjust="spacing" textLength="249" x="3357.5" y="657.9492">T extends Product, U extends Reservation&lt;T&gt;</text><line style="stroke:#181818;stroke-width:0.5;" x1="3236.5" x2="3603.5" y1="679" y2="679"/><text fill="#000000" font-family="sans-serif" font-size="14" lengthAdjust="spacing" textLength="124" x="3241.5" y="698.1074">+user: UserAccount</text><text fill="#000000" font-family="sans-serif" font-size="14" lengthAdjust="spacing" textLength="179" x="3241.5" y="716.7285">+reservationType: Class&lt;U&gt;</text><line style="stroke:#181818;stroke-width:0.5;" x1="3236.5" x2="3603.5" y1="724.2422" y2="724.2422"/><text fill="#000000" font-family="sans-serif" font-size="14" lengthAdjust="spacing" textLength="216" x="3241.5" y="743.3496">+Cart(Class&lt;U &gt; reservationType)</text><text fill="#000000" font-family="sans-serif" font-size="14" lengthAdjust="spacing" textLength="303" x="3241.5" y="761.9707">+addEntry(T product, LocalDateTime time): void</text><text fill="#000000" font-family="sans-serif" font-size="14" lengthAdjust="spacing" textLength="326" x="3241.5" y="780.5918">+removeEntry(T product, LocalDateTime time): void</text><text fill="#000000" font-family="sans-serif" font-size="14" lengthAdjust="spacing" textLength="357" x="3241.5" y="799.2129">+containsEntry(T product, LocalDateTime time): boolean</text><text fill="#000000" font-family="sans-serif" font-size="14" lengthAdjust="spacing" textLength="343" x="3241.5" y="817.834">+getReservations(UserAccount user): ListOfPriced&lt;U&gt;</text><text fill="#000000" font-family="sans-serif" font-size="14" lengthAdjust="spacing" textLength="325" x="3241.5" y="836.4551">+getReservationOfUser(UserAccount user): List&lt;U&gt;</text><text fill="#000000" font-family="sans-serif" font-size="14" lengthAdjust="spacing" textLength="185" x="3241.5" y="855.0762">+add(U reservation): boolean</text><text fill="#000000" font-family="sans-serif" font-size="14" lengthAdjust="spacing" textLength="208" x="3241.5" y="873.6973">+remove(U reservation): boolean</text><text fill="#000000" font-family="sans-serif" font-size="14" lengthAdjust="spacing" textLength="214" x="3241.5" y="892.3184">+contains(U reservation): boolean</text></g><!--class ReservationEntry--><g id="elem_ReservationEntry"><rect codeLine="98" fill="#F1F1F1" height="196.9688" id="ReservationEntry" rx="2.5" ry="2.5" style="stroke:#181818;stroke-width:0.5;" width="333" x="3271.5" y="160.5"/><ellipse cx="3379.25" cy="176.5" fill="#ADD1B2" rx="11" ry="11" style="stroke:#181818;stroke-width:1.0;"/><path d="M3382.0156,172.375 Q3382.1719,172.1563 3382.3594,172.0469 Q3382.5469,171.9375 3382.7656,171.9375 Q3383.1406,171.9375 3383.375,172.2031 Q3383.6094,172.4531 3383.6094,173.0625 L3383.6094,174.5156 Q3383.6094,175.125 3383.375,175.3906 Q3383.1406,175.6563 3382.7656,175.6563 Q3382.4219,175.6563 3382.2188,175.4531 Q3382.0156,175.2656 3381.9063,174.75 Q3381.8594,174.3906 3381.6719,174.2031 Q3381.3438,173.8281 3380.7344,173.6094 Q3380.125,173.3906 3379.5,173.3906 Q3378.7344,173.3906 3378.0938,173.7188 Q3377.4688,174.0469 3376.9688,174.7969 Q3376.4844,175.5469 3376.4844,176.5781 L3376.4844,177.6719 Q3376.4844,178.9063 3377.375,179.7344 Q3378.2656,180.5469 3379.8594,180.5469 Q3380.7969,180.5469 3381.4531,180.2969 Q3381.8438,180.1406 3382.2656,179.7031 Q3382.5313,179.4375 3382.6719,179.3594 Q3382.8281,179.2813 3383.0313,179.2813 Q3383.3594,179.2813 3383.6094,179.5469 Q3383.875,179.7969 3383.875,180.1406 Q3383.875,180.4844 3383.5313,180.8906 Q3383.0313,181.4688 3382.2344,181.7969 Q3381.1563,182.25 3379.8594,182.25 Q3378.3438,182.25 3377.1406,181.625 Q3376.1563,181.125 3375.4688,180.0625 Q3374.7813,178.9844 3374.7813,177.7031 L3374.7813,176.5469 Q3374.7813,175.2188 3375.3906,174.0781 Q3376.0156,172.9219 3377.1094,172.3125 Q3378.2031,171.6875 3379.4375,171.6875 Q3380.1719,171.6875 3380.8125,171.8594 Q3381.4688,172.0156 3382.0156,172.375 Z " fill="#000000"/><text fill="#000000" font-family="sans-serif" font-size="14" lengthAdjust="spacing" textLength="109" x="3399.75" y="182.2969">ReservationEntry</text><line style="stroke:#181818;stroke-width:0.5;" x1="3272.5" x2="3603.5" y1="192.5" y2="192.5"/><text fill="#000000" font-family="sans-serif" font-size="14" lengthAdjust="spacing" textLength="70" x="3277.5" y="211.6074">-product: T</text><text fill="#000000" font-family="sans-serif" font-size="14" lengthAdjust="spacing" textLength="134" x="3277.5" y="230.2285">-time: LocalDateTime</text><line style="stroke:#181818;stroke-width:0.5;" x1="3272.5" x2="3603.5" y1="237.7422" y2="237.7422"/><text fill="#000000" font-family="sans-serif" font-size="14" lengthAdjust="spacing" textLength="321" x="3277.5" y="256.8496">+ReservationEntry(T product, LocalDateTime time)</text><text fill="#000000" font-family="sans-serif" font-size="14" lengthAdjust="spacing" textLength="272" x="3277.5" y="275.4707">+compareTo(ReservationEntry second): int</text><text fill="#000000" font-family="sans-serif" font-size="14" lengthAdjust="spacing" textLength="104" x="3277.5" y="294.0918">+getProduct(): T</text><text fill="#000000" font-family="sans-serif" font-size="14" lengthAdjust="spacing" textLength="167" x="3277.5" y="312.7129">+setProduct(T value): void</text><text fill="#000000" font-family="sans-serif" font-size="14" lengthAdjust="spacing" textLength="172" x="3277.5" y="331.334">+getTime(): LocalDateTime</text><text fill="#000000" font-family="sans-serif" font-size="14" lengthAdjust="spacing" textLength="235" x="3277.5" y="349.9551">+setTime(LocalDateTime value): void</text></g><!--class CrudRepository--><g id="elem_CrudRepository"><rect codeLine="11" fill="#F1F1F1" height="32" id="CrudRepository" rx="2.5" ry="2.5" style="stroke:#181818;stroke-width:0.5;" width="131" x="3757.5" y="757.5"/><ellipse cx="3772.5" cy="773.5" fill="#B4A7E5" rx="11" ry="11" style="stroke:#181818;stroke-width:1.0;"/><path d="M3773.4531,770.1406 L3773.4531,776.7969 L3775.1719,776.7969 Q3775.7813,776.7969 3776.0469,777.0313 Q3776.3125,777.2656 3776.3125,777.6563 Q3776.3125,778.0313 3776.0469,778.2656 Q3775.7813,778.5 3775.1719,778.5 L3770.0313,778.5 Q3769.4219,778.5 3769.1563,778.2656 Q3768.8906,778.0313 3768.8906,777.6406 Q3768.8906,777.2656 3769.1563,777.0313 Q3769.4219,776.7969 3770.0313,776.7969 L3771.75,776.7969 L3771.75,770.1406 L3770.0313,770.1406 Q3769.4219,770.1406 3769.1563,769.9063 Q3768.8906,769.6719 3768.8906,769.2813 Q3768.8906,768.9063 3769.1563,768.6719 Q3769.4219,768.4375 3770.0313,768.4375 L3775.1719,768.4375 Q3775.7813,768.4375 3776.0469,768.6719 Q3776.3125,768.9063 3776.3125,769.2813 Q3776.3125,769.6719 3776.0469,769.9063 Q3775.7813,770.1406 3775.1719,770.1406 L3773.4531,770.1406 Z " fill="#000000"/><text fill="#000000" font-family="sans-serif" font-size="14" font-style="italic" lengthAdjust="spacing" textLength="99" x="3786.5" y="779.2969">CrudRepository</text></g><!--class TreeSet--><g id="elem_TreeSet"><rect fill="#F1F1F1" height="32" id="TreeSet" rx="2.5" ry="2.5" style="stroke:#181818;stroke-width:0.5;" width="83" x="3709.5" y="1180"/><ellipse cx="3724.5" cy="1196" fill="#ADD1B2" rx="11" ry="11" style="stroke:#181818;stroke-width:1.0;"/><path d="M3727.2656,1191.875 Q3727.4219,1191.6563 3727.6094,1191.5469 Q3727.7969,1191.4375 3728.0156,1191.4375 Q3728.3906,1191.4375 3728.625,1191.7031 Q3728.8594,1191.9531 3728.8594,1192.5625 L3728.8594,1194.0156 Q3728.8594,1194.625 3728.625,1194.8906 Q3728.3906,1195.1563 3728.0156,1195.1563 Q3727.6719,1195.1563 3727.4688,1194.9531 Q3727.2656,1194.7656 3727.1563,1194.25 Q3727.1094,1193.8906 3726.9219,1193.7031 Q3726.5938,1193.3281 3725.9844,1193.1094 Q3725.375,1192.8906 3724.75,1192.8906 Q3723.9844,1192.8906 3723.3438,1193.2188 Q3722.7188,1193.5469 3722.2188,1194.2969 Q3721.7344,1195.0469 3721.7344,1196.0781 L3721.7344,1197.1719 Q3721.7344,1198.4063 3722.625,1199.2344 Q3723.5156,1200.0469 3725.1094,1200.0469 Q3726.0469,1200.0469 3726.7031,1199.7969 Q3727.0938,1199.6406 3727.5156,1199.2031 Q3727.7813,1198.9375 3727.9219,1198.8594 Q3728.0781,1198.7813 3728.2813,1198.7813 Q3728.6094,1198.7813 3728.8594,1199.0469 Q3729.125,1199.2969 3729.125,1199.6406 Q3729.125,1199.9844 3728.7813,1200.3906 Q3728.2813,1200.9688 3727.4844,1201.2969 Q3726.4063,1201.75 3725.1094,1201.75 Q3723.5938,1201.75 3722.3906,1201.125 Q3721.4063,1200.625 3720.7188,1199.5625 Q3720.0313,1198.4844 3720.0313,1197.2031 L3720.0313,1196.0469 Q3720.0313,1194.7188 3720.6406,1193.5781 Q3721.2656,1192.4219 3722.3594,1191.8125 Q3723.4531,1191.1875 3724.6875,1191.1875 Q3725.4219,1191.1875 3726.0625,1191.3594 Q3726.7188,1191.5156 3727.2656,1191.875 Z " fill="#000000"/><text fill="#000000" font-family="sans-serif" font-size="14" lengthAdjust="spacing" textLength="51" x="3738.5" y="1201.7969">TreeSet</text></g><!--class Comparable--><g id="elem_Comparable"><rect codeLine="10" fill="#F1F1F1" height="32" id="Comparable" rx="2.5" ry="2.5" style="stroke:#181818;stroke-width:0.5;" width="109" x="3993.5" y="757.5"/><ellipse cx="4008.5" cy="773.5" fill="#B4A7E5" rx="11" ry="11" style="stroke:#181818;stroke-width:1.0;"/><path d="M4009.4531,770.1406 L4009.4531,776.7969 L4011.1719,776.7969 Q4011.7813,776.7969 4012.0469,777.0313 Q4012.3125,777.2656 4012.3125,777.6563 Q4012.3125,778.0313 4012.0469,778.2656 Q4011.7813,778.5 4011.1719,778.5 L4006.0313,778.5 Q4005.4219,778.5 4005.1563,778.2656 Q4004.8906,778.0313 4004.8906,777.6406 Q4004.8906,777.2656 4005.1563,777.0313 Q4005.4219,776.7969 4006.0313,776.7969 L4007.75,776.7969 L4007.75,770.1406 L4006.0313,770.1406 Q4005.4219,770.1406 4005.1563,769.9063 Q4004.8906,769.6719 4004.8906,769.2813 Q4004.8906,768.9063 4005.1563,768.6719 Q4005.4219,768.4375 4006.0313,768.4375 L4011.1719,768.4375 Q4011.7813,768.4375 4012.0469,768.6719 Q4012.3125,768.9063 4012.3125,769.2813 Q4012.3125,769.6719 4012.0469,769.9063 Q4011.7813,770.1406 4011.1719,770.1406 L4009.4531,770.1406 Z " fill="#000000"/><text fill="#000000" font-family="sans-serif" font-size="14" font-style="italic" lengthAdjust="spacing" textLength="77" x="4022.5" y="779.2969">Comparable</text></g><!--link Cart to TreeSet--><g id="link_Cart_TreeSet"><path codeLine="109" d="M3604.63,845 C3672.69,845 3733.5,845 3733.5,845 C3733.5,845 3733.5,1092.15 3733.5,1161.54 " fill="none" id="Cart-to-TreeSet" style="stroke:#181818;stroke-width:1.0;"/><polygon fill="none" points="3733.5,1179.54,3739.5,1161.54,3727.5,1161.54,3733.5,1179.54" style="stroke:#181818;stroke-width:1.0;"/><text fill="#000000" font-family="sans-serif" font-size="13" lengthAdjust="spacing" textLength="229" x="3503.5" y="943.8683">&lt;bind T-&gt;Cart&lt;T, U&gt;.ReservationEntry&gt;</text></g><!--link ReservationEntry to Comparable--><g id="link_ReservationEntry_Comparable"><path codeLine="110" d="M3604.69,259 C3785.29,259 4048,259 4048,259 C4048,259 4048,651.8 4048,739.25 " fill="none" id="ReservationEntry-to-Comparable" style="stroke:#181818;stroke-width:1.0;stroke-dasharray:7.0,7.0;"/><polygon fill="none" points="4048,757.25,4054,739.25,4042,739.25,4048,757.25" style="stroke:#181818;stroke-width:1.0;"/><text fill="#000000" font-family="sans-serif" font-size="13" lengthAdjust="spacing" textLength="229" x="3818" y="282.4983">&lt;bind T-&gt;Cart&lt;T, U&gt;.ReservationEntry&gt;</text></g><!--link ReservationEntry to Cart--><g id="link_ReservationEntry_Cart"><path codeLine="111" d="M3438,357.59 C3438,439.88 3438,541.69 3438,630.93 " fill="none" id="ReservationEntry-to-Cart" style="stroke:#181818;stroke-width:1.0;"/><ellipse cx="3438" cy="638.93" fill="#FEFEFE" rx="8" ry="8" style="stroke:#181818;stroke-width:1.0;"/><line style="stroke:#181818;stroke-width:1.0;" x1="3438" x2="3438" y1="630.93" y2="646.93"/><line style="stroke:#181818;stroke-width:1.0;" x1="3446" x2="3430" y1="638.93" y2="638.93"/></g><!--link Reservation to Priced--><g id="link_Reservation_Priced"><path codeLine="113" d="M327,1058.24 C327,1110.9 327,1138.59 327,1161.78 " fill="none" id="Reservation-to-Priced" style="stroke:#181818;stroke-width:1.0;stroke-dasharray:7.0,7.0;"/><polygon fill="none" points="327,1179.78,333,1161.78,321,1161.78,327,1179.78" style="stroke:#181818;stroke-width:1.0;"/></g><!--link State to Reservation--><g id="link_State_Reservation"><path codeLine="114" d="M147,348.03 C147,388.01 147,421.64 147,472.73 " fill="none" id="State-to-Reservation" style="stroke:#181818;stroke-width:1.0;"/><ellipse cx="147" cy="480.73" fill="#FEFEFE" rx="8" ry="8" style="stroke:#181818;stroke-width:1.0;"/><line style="stroke:#181818;stroke-width:1.0;" x1="147" x2="147" y1="472.73" y2="488.73"/><line style="stroke:#181818;stroke-width:1.0;" x1="155" x2="139" y1="480.73" y2="480.73"/></g><!--link ReservationRepository to CrudRepository--><g id="link_ReservationRepository_CrudRepository"><path codeLine="116" d="M742.5,360.17 C742.5,409.78 742.5,459 742.5,459 C742.5,459 3823,459 3823,459 C3823,459 3823,675.38 3823,739.47 " fill="none" id="ReservationRepository-to-CrudRepository" style="stroke:#181818;stroke-width:1.0;"/><polygon fill="none" points="3823,757.47,3829,739.47,3817,739.47,3823,757.47" style="stroke:#181818;stroke-width:1.0;"/><text fill="#000000" font-family="sans-serif" font-size="13" lengthAdjust="spacing" textLength="134" x="2247.57" y="455.0283">&lt;bind T-&gt;U, ID-&gt;UUID&gt;</text></g><!--SRC=[lHXTRzisy7d-5GJsugAsiMV3C10dAM2iJOD67h2dWHRF3bT952WghPlbl- -Ef2Jgoqu3R0qgY_V5- -PHZr80WpGt9tQGa8XYyjX0KZ2F2a75LvdbNFEKnGalYYjZjDoN1hQnoXxa3s2_1II9pC2SSc1A8tU0sF3uwr6hCXFNAb6Q_VhXblucF4dKjrH-bzaneCwHcX_XmPmIO1yG0fE9p0pe0u-1nJpDaJvFkFcnA8rCYiMzbZ68WEPQfIHgdq00LFguA7ADl0UI-Ktfhml13Lzeo5KXZTAdnRKknPTwEPbuLTgRQYX0Ft4ZLVOyOVYFxmkZUMoSZzYN1h-A67mta8c2tMibojYi7SjxAPPijzlUsDLSo296zvWb4weajIsqH3b8XS-hsA8TE7UIbYnowpqSPRPa7rNCanjk89Af5u0R3y8BWyibUw0VfqwWypJOa94ACnOnl-UiBOtPhRj0tFLTNshBAskCXaHMddZA0ioDzy7KkO1LFdctP4zA2aTt17EleIArWPyYmIU5cSVrwIgjtUH8p-0VUL5lYIGRfHBWcSCzLo5zOIXcIpdqn9DT9YtfzQDMcQ9LlLD5uZOWeWWBIUaAuWX5gPqp49yeJFgQNH2epWS2XRe5IK4e2f2bxsG6UT7YmWYYKYNqVMZ3QVMiMIjWDCopeLWJHp-XYDkXsvamAESs4-DI2FaA6JPpIKgGmaK5jiy-tujzGbQcZiiLujtdwA_ewlVRkvbT1g_tLt_U-lAqifQCWdm4xRPpUtcGtwtMxmzQadujbcUgEnc_i8DMwLsPxZ5KbG3PCiRfscidroepMYK9qgzMpMBjcyeyJvG9o9jEjcJtOoZV4J1NpTP0EiB-S1RlPG0l59Rq_RWM3vT81kseIk6CFNsINWTg_3KTtPwDUd3sotaNiFCUd5qsdLtqt-oorUoYwtoIIknUaYTuX5zpRHi1oQRtBjxQNH7LJXYaz0RKn8513NrCs4zAGC9IUivOzy3nxxDQ9HOSkRIUzKItdET9GbMRyD3ArXfD0auZ3QbwiduWWbVgXeC5_XVmtOjYDFdyZoexwV1VUV8jIYajG1VdDUgmvA2b4X8RVdAwWGGCrCcRgMBQwllOOoKERD0fWcBwKHPcrO6kCJXvIHeEOjiIXqhRYnr2TMGFaWHjV7myhAeJT7zGHDVLeFRiL8sGmP32ynpzLqqCkp3ABHUsw29rbIJEojqwP2dQnwRzQURemTRqK_glLdUgOTtWr5NRTC2I8gqgt-xM3NnpecJ2KId8gKNmlXMG6Obt6JnDnP00IeB2Ity0Wweqk33o6p3V0Bh33DTQOi9qfrq1UDKmfORH7Pre46yM6-hg1_5jBNMRJKV7yrV8Reszf38vjFXyQ8P1Bzlh4VZRQoHisMxWe3H4Zxnhdy57Vmphr0GraxUKmF0DwNsGon5sPPpOQPSwClPyyY3ModoYzWSa5-8M1uRJk7Uxblbpv6Uvy2PjkCoAr_7jmtZXfDdgM0FDbbAIeaatvDe1RRxFXzwb8M2kcT0XlSxIqiQPVvwcClOirSZqQntqF7m79kyCtYcw_1SSN6b9tmyWKjCkEvwEQ09r5zcwP_xyTOhs7By7MUo5Yz3Bv6LYp-Jv_9yr-vi_SVizP15fm54CVRFQOpspQBvsvONbj5vq3LfFUYOk5YYk-OJoPZdp-NjRs9CGvQIFVyHnbpTY3PXQ4e9XrnhU_cQph9NTpTZs1d_mKhsU_0i0]--></g></svg>