<?xml version="1.0" encoding="us-ascii" standalone="no"?><svg xmlns="http://www.w3.org/2000/svg" xmlns:xlink="http://www.w3.org/1999/xlink" contentStyleType="text/css" height="1282px" preserveAspectRatio="none" style="width:2022px;height:1282px;background:#FEFEFE;" version="1.1" viewBox="0 0 2022 1282" width="2022px" zoomAndPan="magnify"><defs/><g><rect fill="#FEFEFE" height="1282" style="stroke:none;stroke-width:1.0;" width="2022" x="0" y="0"/><!--cluster org--><g id="cluster_org"><rect fill="none" height="292" rx="2.5" ry="2.5" style="stroke:#000000;stroke-width:1.5;" width="528" x="1488" y="925"/><path d="M1522,925 L1522,936.6211 L1512,946.6211 L1488,946.6211 " fill="none" style="stroke:#000000;stroke-width:1.5;"/><text fill="#000000" font-family="sans-serif" font-size="14" font-weight="bold" lengthAdjust="spacing" textLength="24" x="1491" y="941.1074">org</text></g><!--cluster springframework--><g id="cluster_springframework"><rect fill="none" height="223" rx="2.5" ry="2.5" style="stroke:#000000;stroke-width:1.5;" width="260" x="1512" y="970"/><path d="M1641,970 L1641,981.6211 L1631,991.6211 L1512,991.6211 " fill="none" style="stroke:#000000;stroke-width:1.5;"/><text fill="#000000" font-family="sans-serif" font-size="14" font-weight="bold" lengthAdjust="spacing" textLength="119" x="1515" y="986.1074">springframework</text></g><!--cluster data--><g id="cluster_data"><rect fill="none" height="154" rx="2.5" ry="2.5" style="stroke:#000000;stroke-width:1.5;" width="212" x="1536" y="1015"/><path d="M1576,1015 L1576,1026.6211 L1566,1036.6211 L1536,1036.6211 " fill="none" style="stroke:#000000;stroke-width:1.5;"/><text fill="#000000" font-family="sans-serif" font-size="14" font-weight="bold" lengthAdjust="spacing" textLength="30" x="1539" y="1031.1074">data</text></g><!--cluster repository--><g id="cluster_repository"><rect fill="none" height="85" rx="2.5" ry="2.5" style="stroke:#000000;stroke-width:1.5;" width="164" x="1560" y="1060"/><path d="M1642,1060 L1642,1071.6211 L1632,1081.6211 L1560,1081.6211 " fill="none" style="stroke:#000000;stroke-width:1.5;"/><text fill="#000000" font-family="sans-serif" font-size="14" font-weight="bold" lengthAdjust="spacing" textLength="72" x="1563" y="1076.1074">repository</text></g><!--cluster salespointframework--><g id="cluster_salespointframework"><rect fill="none" height="154" rx="2.5" ry="2.5" style="stroke:#000000;stroke-width:1.5;" width="196" x="1796" y="1015"/><path d="M1953,1015 L1953,1026.6211 L1943,1036.6211 L1796,1036.6211 " fill="none" style="stroke:#000000;stroke-width:1.5;"/><text fill="#000000" font-family="sans-serif" font-size="14" font-weight="bold" lengthAdjust="spacing" textLength="147" x="1799" y="1031.1074">salespointframework</text></g><!--cluster core--><g id="cluster_core"><rect fill="none" height="85" rx="2.5" ry="2.5" style="stroke:#000000;stroke-width:1.5;" width="148" x="1820" y="1060"/><path d="M1862,1060 L1862,1071.6211 L1852,1081.6211 L1820,1081.6211 " fill="none" style="stroke:#000000;stroke-width:1.5;"/><text fill="#000000" font-family="sans-serif" font-size="14" font-weight="bold" lengthAdjust="spacing" textLength="32" x="1823" y="1076.1074">core</text></g><!--cluster campingplatz--><g id="cluster_campingplatz"><rect fill="none" height="1269.5" rx="2.5" ry="2.5" style="stroke:#000000;stroke-width:1.5;" width="1457" x="7" y="7"/><path d="M109,7 L109,18.6211 L99,28.6211 L7,28.6211 " fill="none" style="stroke:#000000;stroke-width:1.5;"/><text fill="#000000" font-family="sans-serif" font-size="14" font-weight="bold" lengthAdjust="spacing" textLength="92" x="10" y="23.1074">campingplatz</text></g><!--cluster customer--><g id="cluster_customer"><rect fill="none" height="1200.5" rx="2.5" ry="2.5" style="stroke:#000000;stroke-width:1.5;" width="1409" x="31" y="52"/><path d="M107,52 L107,63.6211 L97,73.6211 L31,73.6211 " fill="none" style="stroke:#000000;stroke-width:1.5;"/><text fill="#000000" font-family="sans-serif" font-size="14" font-weight="bold" lengthAdjust="spacing" textLength="66" x="34" y="68.1074">customer</text></g><!--class CrudRepository--><g id="elem_CrudRepository"><rect codeLine="9" fill="#F1F1F1" height="32" id="CrudRepository" rx="2.5" ry="2.5" style="stroke:#181818;stroke-width:0.5;" width="131" x="1576.5" y="1097"/><ellipse cx="1591.5" cy="1113" fill="#B4A7E5" rx="11" ry="11" style="stroke:#181818;stroke-width:1.0;"/><path d="M1592.4531,1109.6406 L1592.4531,1116.2969 L1594.1719,1116.2969 Q1594.7813,1116.2969 1595.0469,1116.5313 Q1595.3125,1116.7656 1595.3125,1117.1563 Q1595.3125,1117.5313 1595.0469,1117.7656 Q1594.7813,1118 1594.1719,1118 L1589.0313,1118 Q1588.4219,1118 1588.1563,1117.7656 Q1587.8906,1117.5313 1587.8906,1117.1406 Q1587.8906,1116.7656 1588.1563,1116.5313 Q1588.4219,1116.2969 1589.0313,1116.2969 L1590.75,1116.2969 L1590.75,1109.6406 L1589.0313,1109.6406 Q1588.4219,1109.6406 1588.1563,1109.4063 Q1587.8906,1109.1719 1587.8906,1108.7813 Q1587.8906,1108.4063 1588.1563,1108.1719 Q1588.4219,1107.9375 1589.0313,1107.9375 L1594.1719,1107.9375 Q1594.7813,1107.9375 1595.0469,1108.1719 Q1595.3125,1108.4063 1595.3125,1108.7813 Q1595.3125,1109.1719 1595.0469,1109.4063 Q1594.7813,1109.6406 1594.1719,1109.6406 L1592.4531,1109.6406 Z " fill="#000000"/><text fill="#000000" font-family="sans-serif" font-size="14" font-style="italic" lengthAdjust="spacing" textLength="99" x="1605.5" y="1118.7969">CrudRepository</text></g><!--class DataInitializer--><g id="elem_DataInitializer"><rect fill="#F1F1F1" height="32" id="DataInitializer" rx="2.5" ry="2.5" style="stroke:#181818;stroke-width:0.5;" width="116" x="1836" y="1097"/><ellipse cx="1851" cy="1113" fill="#ADD1B2" rx="11" ry="11" style="stroke:#181818;stroke-width:1.0;"/><path d="M1853.7656,1108.875 Q1853.9219,1108.6563 1854.1094,1108.5469 Q1854.2969,1108.4375 1854.5156,1108.4375 Q1854.8906,1108.4375 1855.125,1108.7031 Q1855.3594,1108.9531 1855.3594,1109.5625 L1855.3594,1111.0156 Q1855.3594,1111.625 1855.125,1111.8906 Q1854.8906,1112.1563 1854.5156,1112.1563 Q1854.1719,1112.1563 1853.9688,1111.9531 Q1853.7656,1111.7656 1853.6563,1111.25 Q1853.6094,1110.8906 1853.4219,1110.7031 Q1853.0938,1110.3281 1852.4844,1110.1094 Q1851.875,1109.8906 1851.25,1109.8906 Q1850.4844,1109.8906 1849.8438,1110.2188 Q1849.2188,1110.5469 1848.7188,1111.2969 Q1848.2344,1112.0469 1848.2344,1113.0781 L1848.2344,1114.1719 Q1848.2344,1115.4063 1849.125,1116.2344 Q1850.0156,1117.0469 1851.6094,1117.0469 Q1852.5469,1117.0469 1853.2031,1116.7969 Q1853.5938,1116.6406 1854.0156,1116.2031 Q1854.2813,1115.9375 1854.4219,1115.8594 Q1854.5781,1115.7813 1854.7813,1115.7813 Q1855.1094,1115.7813 1855.3594,1116.0469 Q1855.625,1116.2969 1855.625,1116.6406 Q1855.625,1116.9844 1855.2813,1117.3906 Q1854.7813,1117.9688 1853.9844,1118.2969 Q1852.9063,1118.75 1851.6094,1118.75 Q1850.0938,1118.75 1848.8906,1118.125 Q1847.9063,1117.625 1847.2188,1116.5625 Q1846.5313,1115.4844 1846.5313,1114.2031 L1846.5313,1113.0469 Q1846.5313,1111.7188 1847.1406,1110.5781 Q1847.7656,1109.4219 1848.8594,1108.8125 Q1849.9531,1108.1875 1851.1875,1108.1875 Q1851.9219,1108.1875 1852.5625,1108.3594 Q1853.2188,1108.5156 1853.7656,1108.875 Z " fill="#000000"/><text fill="#000000" font-family="sans-serif" font-size="14" lengthAdjust="spacing" textLength="84" x="1865" y="1118.7969">DataInitializer</text></g><!--class Customer--><g id="elem_Customer"><rect codeLine="13" fill="#F1F1F1" height="246.793" id="Customer" rx="2.5" ry="2.5" style="stroke:#181818;stroke-width:0.5;" width="254" x="523" y="989.5"/><ellipse cx="615.25" cy="1011.791" fill="#ADD1B2" rx="11" ry="11" style="stroke:#181818;stroke-width:1.0;"/><path d="M618.0156,1007.666 Q618.1719,1007.4473 618.3594,1007.3379 Q618.5469,1007.2285 618.7656,1007.2285 Q619.1406,1007.2285 619.375,1007.4941 Q619.6094,1007.7441 619.6094,1008.3535 L619.6094,1009.8066 Q619.6094,1010.416 619.375,1010.6816 Q619.1406,1010.9473 618.7656,1010.9473 Q618.4219,1010.9473 618.2188,1010.7441 Q618.0156,1010.5566 617.9063,1010.041 Q617.8594,1009.6816 617.6719,1009.4941 Q617.3438,1009.1191 616.7344,1008.9004 Q616.125,1008.6816 615.5,1008.6816 Q614.7344,1008.6816 614.0938,1009.0098 Q613.4688,1009.3379 612.9688,1010.0879 Q612.4844,1010.8379 612.4844,1011.8691 L612.4844,1012.9629 Q612.4844,1014.1973 613.375,1015.0254 Q614.2656,1015.8379 615.8594,1015.8379 Q616.7969,1015.8379 617.4531,1015.5879 Q617.8438,1015.4316 618.2656,1014.9941 Q618.5313,1014.7285 618.6719,1014.6504 Q618.8281,1014.5723 619.0313,1014.5723 Q619.3594,1014.5723 619.6094,1014.8379 Q619.875,1015.0879 619.875,1015.4316 Q619.875,1015.7754 619.5313,1016.1816 Q619.0313,1016.7598 618.2344,1017.0879 Q617.1563,1017.541 615.8594,1017.541 Q614.3438,1017.541 613.1406,1016.916 Q612.1563,1016.416 611.4688,1015.3535 Q610.7813,1014.2754 610.7813,1012.9941 L610.7813,1011.8379 Q610.7813,1010.5098 611.3906,1009.3691 Q612.0156,1008.2129 613.1094,1007.6035 Q614.2031,1006.9785 615.4375,1006.9785 Q616.1719,1006.9785 616.8125,1007.1504 Q617.4688,1007.3066 618.0156,1007.666 Z " fill="#000000"/><text fill="#000000" font-family="sans-serif" font-size="12" font-style="italic" lengthAdjust="spacing" textLength="44" x="644.25" y="1007.4492">&#171;Entity&#187;</text><text fill="#000000" font-family="sans-serif" font-size="14" lengthAdjust="spacing" textLength="61" x="635.75" y="1025.5684">Customer</text><line style="stroke:#181818;stroke-width:0.5;" x1="524" x2="776" y1="1034.082" y2="1034.082"/><text fill="#000000" font-family="sans-serif" font-size="14" lengthAdjust="spacing" textLength="55" x="529" y="1053.1895">-id: UUID</text><text fill="#000000" font-family="sans-serif" font-size="14" lengthAdjust="spacing" textLength="172" x="529" y="1071.8105">-userAccount: UserAccount</text><line style="stroke:#181818;stroke-width:0.5;" x1="524" x2="776" y1="1079.3242" y2="1079.3242"/><text fill="#000000" font-family="sans-serif" font-size="14" lengthAdjust="spacing" textLength="242" x="529" y="1098.4316">+Customer(UserAccount userAccount)</text><text fill="#000000" font-family="sans-serif" font-size="14" lengthAdjust="spacing" textLength="88" x="529" y="1117.0527">+getId(): UUID</text><text fill="#000000" font-family="sans-serif" font-size="14" lengthAdjust="spacing" textLength="147" x="529" y="1135.6738">+getUsername(): String</text><text fill="#000000" font-family="sans-serif" font-size="14" lengthAdjust="spacing" textLength="147" x="529" y="1154.2949">+getFirstName(): String</text><text fill="#000000" font-family="sans-serif" font-size="14" lengthAdjust="spacing" textLength="146" x="529" y="1172.916">+getLastName(): String</text><text fill="#000000" font-family="sans-serif" font-size="14" lengthAdjust="spacing" textLength="206" x="529" y="1191.5371">+getUserAccount(): UserAccount</text><text fill="#000000" font-family="sans-serif" font-size="14" lengthAdjust="spacing" textLength="104" x="529" y="1210.1582">+getRole(): Role</text><text fill="#000000" font-family="sans-serif" font-size="14" lengthAdjust="spacing" textLength="138" x="529" y="1228.7793">+setRole(Role r): void</text></g><!--class Roles--><g id="elem_Roles"><rect codeLine="26" fill="#F1F1F1" height="215.5898" id="Roles" rx="2.5" ry="2.5" style="stroke:#181818;stroke-width:0.5;" width="195" x="292.5" y="1005"/><ellipse cx="367.75" cy="1021" fill="#EB937F" rx="11" ry="11" style="stroke:#181818;stroke-width:1.0;"/><path d="M366.6094,1021.7969 L366.6094,1024.2969 L370.9375,1024.2969 L370.9375,1023.375 Q370.9375,1022.7656 371.1719,1022.5 Q371.4219,1022.2344 371.7969,1022.2344 Q372.1719,1022.2344 372.4063,1022.5 Q372.6406,1022.7656 372.6406,1023.375 L372.6406,1026 L364.6406,1026 Q364.0156,1026 363.75,1025.7656 Q363.5,1025.5313 363.5,1025.1406 Q363.5,1024.7656 363.7656,1024.5313 Q364.0313,1024.2969 364.6406,1024.2969 L364.9063,1024.2969 L364.9063,1017.6406 L364.6406,1017.6406 Q364.0156,1017.6406 363.75,1017.4063 Q363.5,1017.1719 363.5,1016.7813 Q363.5,1016.4063 363.75,1016.1719 Q364.0156,1015.9375 364.6406,1015.9375 L372.2656,1015.9375 L372.2656,1018.5313 Q372.2656,1019.1406 372.0313,1019.4063 Q371.8125,1019.6563 371.4219,1019.6563 Q371.0469,1019.6563 370.8125,1019.4063 Q370.5781,1019.1406 370.5781,1018.5313 L370.5781,1017.6406 L366.6094,1017.6406 L366.6094,1020.0938 L368.0938,1020.0938 Q368.0938,1019.4375 368.2188,1019.25 Q368.4844,1018.8438 368.9531,1018.8438 Q369.3281,1018.8438 369.5625,1019.1094 Q369.7969,1019.3594 369.7969,1019.9688 L369.7969,1021.9375 Q369.7969,1022.4844 369.6719,1022.6719 Q369.4063,1023.0625 368.9531,1023.0625 Q368.4844,1023.0625 368.2188,1022.6563 Q368.0938,1022.4688 368.0938,1021.7969 L366.6094,1021.7969 Z " fill="#000000"/><text fill="#000000" font-family="sans-serif" font-size="14" lengthAdjust="spacing" textLength="36" x="388.25" y="1026.7969">Roles</text><line style="stroke:#181818;stroke-width:0.5;" x1="293.5" x2="486.5" y1="1037" y2="1037"/><text fill="#000000" font-family="sans-serif" font-size="14" lengthAdjust="spacing" textLength="38" x="298.5" y="1056.1074">NONE</text><text fill="#000000" font-family="sans-serif" font-size="14" lengthAdjust="spacing" textLength="78" x="298.5" y="1074.7285">CUSTOMER</text><text fill="#000000" font-family="sans-serif" font-size="14" lengthAdjust="spacing" textLength="75" x="298.5" y="1093.3496">EMPLOYEE</text><text fill="#000000" font-family="sans-serif" font-size="14" lengthAdjust="spacing" textLength="38" x="298.5" y="1111.9707">BOSS</text><text fill="#000000" font-family="sans-serif" font-size="14" lengthAdjust="spacing" textLength="4" x="298.5" y="1130.5918">&#160;</text><text fill="#000000" font-family="sans-serif" font-size="14" lengthAdjust="spacing" textLength="66" x="298.5" y="1149.2129">-role: Role</text><line style="stroke:#181818;stroke-width:0.5;" x1="293.5" x2="486.5" y1="1156.7266" y2="1156.7266"/><text fill="#000000" font-family="sans-serif" font-size="14" lengthAdjust="spacing" textLength="111" x="298.5" y="1175.834">+Roles(Role role)</text><text fill="#000000" font-family="sans-serif" font-size="14" lengthAdjust="spacing" textLength="111" x="298.5" y="1194.4551">+getValue(): Role</text><text fill="#000000" font-family="sans-serif" font-size="14" lengthAdjust="spacing" text-decoration="underline" textLength="183" x="298.5" y="1213.0762">+fromNumber(Integer i): Role</text></g><!--class CustomerController--><g id="elem_CustomerController"><rect codeLine="37" fill="#F1F1F1" height="153.6875" id="CustomerController" rx="2.5" ry="2.5" style="stroke:#181818;stroke-width:0.5;" width="464" x="329" y="89"/><ellipse cx="495.25" cy="111.291" fill="#ADD1B2" rx="11" ry="11" style="stroke:#181818;stroke-width:1.0;"/><path d="M498.0156,107.166 Q498.1719,106.9473 498.3594,106.8379 Q498.5469,106.7285 498.7656,106.7285 Q499.1406,106.7285 499.375,106.9941 Q499.6094,107.2441 499.6094,107.8535 L499.6094,109.3066 Q499.6094,109.916 499.375,110.1816 Q499.1406,110.4473 498.7656,110.4473 Q498.4219,110.4473 498.2188,110.2441 Q498.0156,110.0566 497.9063,109.541 Q497.8594,109.1816 497.6719,108.9941 Q497.3438,108.6191 496.7344,108.4004 Q496.125,108.1816 495.5,108.1816 Q494.7344,108.1816 494.0938,108.5098 Q493.4688,108.8379 492.9688,109.5879 Q492.4844,110.3379 492.4844,111.3691 L492.4844,112.4629 Q492.4844,113.6973 493.375,114.5254 Q494.2656,115.3379 495.8594,115.3379 Q496.7969,115.3379 497.4531,115.0879 Q497.8438,114.9316 498.2656,114.4941 Q498.5313,114.2285 498.6719,114.1504 Q498.8281,114.0723 499.0313,114.0723 Q499.3594,114.0723 499.6094,114.3379 Q499.875,114.5879 499.875,114.9316 Q499.875,115.2754 499.5313,115.6816 Q499.0313,116.2598 498.2344,116.5879 Q497.1563,117.041 495.8594,117.041 Q494.3438,117.041 493.1406,116.416 Q492.1563,115.916 491.4688,114.8535 Q490.7813,113.7754 490.7813,112.4941 L490.7813,111.3379 Q490.7813,110.0098 491.3906,108.8691 Q492.0156,107.7129 493.1094,107.1035 Q494.2031,106.4785 495.4375,106.4785 Q496.1719,106.4785 496.8125,106.6504 Q497.4688,106.8066 498.0156,107.166 Z " fill="#000000"/><text fill="#000000" font-family="sans-serif" font-size="12" font-style="italic" lengthAdjust="spacing" textLength="68" x="543.25" y="106.9492">&#171;Controller&#187;</text><text fill="#000000" font-family="sans-serif" font-size="14" lengthAdjust="spacing" textLength="123" x="515.75" y="125.0684">CustomerController</text><line style="stroke:#181818;stroke-width:0.5;" x1="330" x2="792" y1="133.582" y2="133.582"/><text fill="#000000" font-family="sans-serif" font-size="14" lengthAdjust="spacing" textLength="296" x="335" y="152.6895">-customerManagement: CustomerManagement</text><line style="stroke:#181818;stroke-width:0.5;" x1="330" x2="792" y1="160.2031" y2="160.2031"/><text fill="#000000" font-family="sans-serif" font-size="14" lengthAdjust="spacing" textLength="428" x="335" y="179.3105">+CustomerController(CustomerManagement customerManagement)</text><text fill="#000000" font-family="sans-serif" font-size="14" lengthAdjust="spacing" textLength="452" x="335" y="197.9316">+registerNew(RegistrationForm form, Errors result, Model model): String</text><text fill="#000000" font-family="sans-serif" font-size="14" lengthAdjust="spacing" textLength="340" x="335" y="216.5527">+register(Model model, RegistrationForm form): String</text><text fill="#000000" font-family="sans-serif" font-size="14" lengthAdjust="spacing" textLength="247" x="335" y="235.1738">+faildloginredirect(Model model): String</text></g><!--class CustomerDashboardController--><g id="elem_CustomerDashboardController"><rect codeLine="44" fill="#F1F1F1" height="135.0664" id="CustomerDashboardController" rx="2.5" ry="2.5" style="stroke:#181818;stroke-width:0.5;" width="510" x="597" y="303"/><ellipse cx="751.25" cy="325.291" fill="#ADD1B2" rx="11" ry="11" style="stroke:#181818;stroke-width:1.0;"/><path d="M754.0156,321.166 Q754.1719,320.9473 754.3594,320.8379 Q754.5469,320.7285 754.7656,320.7285 Q755.1406,320.7285 755.375,320.9941 Q755.6094,321.2441 755.6094,321.8535 L755.6094,323.3066 Q755.6094,323.916 755.375,324.1816 Q755.1406,324.4473 754.7656,324.4473 Q754.4219,324.4473 754.2188,324.2441 Q754.0156,324.0566 753.9063,323.541 Q753.8594,323.1816 753.6719,322.9941 Q753.3438,322.6191 752.7344,322.4004 Q752.125,322.1816 751.5,322.1816 Q750.7344,322.1816 750.0938,322.5098 Q749.4688,322.8379 748.9688,323.5879 Q748.4844,324.3379 748.4844,325.3691 L748.4844,326.4629 Q748.4844,327.6973 749.375,328.5254 Q750.2656,329.3379 751.8594,329.3379 Q752.7969,329.3379 753.4531,329.0879 Q753.8438,328.9316 754.2656,328.4941 Q754.5313,328.2285 754.6719,328.1504 Q754.8281,328.0723 755.0313,328.0723 Q755.3594,328.0723 755.6094,328.3379 Q755.875,328.5879 755.875,328.9316 Q755.875,329.2754 755.5313,329.6816 Q755.0313,330.2598 754.2344,330.5879 Q753.1563,331.041 751.8594,331.041 Q750.3438,331.041 749.1406,330.416 Q748.1563,329.916 747.4688,328.8535 Q746.7813,327.7754 746.7813,326.4941 L746.7813,325.3379 Q746.7813,324.0098 747.3906,322.8691 Q748.0156,321.7129 749.1094,321.1035 Q750.2031,320.4785 751.4375,320.4785 Q752.1719,320.4785 752.8125,320.6504 Q753.4688,320.8066 754.0156,321.166 Z " fill="#000000"/><text fill="#000000" font-family="sans-serif" font-size="12" font-style="italic" lengthAdjust="spacing" textLength="68" x="834.25" y="320.9492">&#171;Controller&#187;</text><text fill="#000000" font-family="sans-serif" font-size="14" lengthAdjust="spacing" textLength="193" x="771.75" y="339.0684">CustomerDashboardController</text><line style="stroke:#181818;stroke-width:0.5;" x1="598" x2="1106" y1="347.582" y2="347.582"/><text fill="#000000" font-family="sans-serif" font-size="14" lengthAdjust="spacing" textLength="296" x="603" y="366.6895">-customerManagement: CustomerManagement</text><line style="stroke:#181818;stroke-width:0.5;" x1="598" x2="1106" y1="374.2031" y2="374.2031"/><text fill="#000000" font-family="sans-serif" font-size="14" lengthAdjust="spacing" textLength="498" x="603" y="393.3105">+CustomerDashboardController(CustomerManagement customerManagement)</text><text fill="#000000" font-family="sans-serif" font-size="14" lengthAdjust="spacing" textLength="201" x="603" y="411.9316">+customer(Model model): String</text><text fill="#000000" font-family="sans-serif" font-size="14" lengthAdjust="spacing" textLength="403" x="603" y="430.5527">+changeRole(Model model, RoleChangeInformation info): String</text></g><!--class RoleChangeInformation--><g id="elem_RoleChangeInformation"><rect codeLine="50" fill="#F1F1F1" height="77.2422" id="RoleChangeInformation" rx="2.5" ry="2.5" style="stroke:#181818;stroke-width:0.5;" width="182" x="343" y="332"/><ellipse cx="358" cy="348" fill="#B4A7E5" rx="11" ry="11" style="stroke:#181818;stroke-width:1.0;"/><path d="M358.9531,344.6406 L358.9531,351.2969 L360.6719,351.2969 Q361.2813,351.2969 361.5469,351.5313 Q361.8125,351.7656 361.8125,352.1563 Q361.8125,352.5313 361.5469,352.7656 Q361.2813,353 360.6719,353 L355.5313,353 Q354.9219,353 354.6563,352.7656 Q354.3906,352.5313 354.3906,352.1406 Q354.3906,351.7656 354.6563,351.5313 Q354.9219,351.2969 355.5313,351.2969 L357.25,351.2969 L357.25,344.6406 L355.5313,344.6406 Q354.9219,344.6406 354.6563,344.4063 Q354.3906,344.1719 354.3906,343.7813 Q354.3906,343.4063 354.6563,343.1719 Q354.9219,342.9375 355.5313,342.9375 L360.6719,342.9375 Q361.2813,342.9375 361.5469,343.1719 Q361.8125,343.4063 361.8125,343.7813 Q361.8125,344.1719 361.5469,344.4063 Q361.2813,344.6406 360.6719,344.6406 L358.9531,344.6406 Z " fill="#000000"/><text fill="#000000" font-family="sans-serif" font-size="14" font-style="italic" lengthAdjust="spacing" textLength="150" x="372" y="353.7969">RoleChangeInformation</text><line style="stroke:#181818;stroke-width:0.5;" x1="344" x2="524" y1="364" y2="364"/><text fill="#000000" font-family="sans-serif" font-size="14" lengthAdjust="spacing" textLength="169" x="349" y="383.1074">+getCustomerUUID(): UUID</text><text fill="#000000" font-family="sans-serif" font-size="14" lengthAdjust="spacing" textLength="155" x="349" y="401.7285">+getRoleValue(): Integer</text></g><!--class CustomerDataInitializer--><g id="elem_CustomerDataInitializer"><rect codeLine="54" fill="#F1F1F1" height="153.6875" id="CustomerDataInitializer" rx="2.5" ry="2.5" style="stroke:#181818;stroke-width:0.5;" width="790" x="634" y="501"/><ellipse cx="952.25" cy="523.291" fill="#ADD1B2" rx="11" ry="11" style="stroke:#181818;stroke-width:1.0;"/><path d="M955.0156,519.166 Q955.1719,518.9473 955.3594,518.8379 Q955.5469,518.7285 955.7656,518.7285 Q956.1406,518.7285 956.375,518.9941 Q956.6094,519.2441 956.6094,519.8535 L956.6094,521.3066 Q956.6094,521.916 956.375,522.1816 Q956.1406,522.4473 955.7656,522.4473 Q955.4219,522.4473 955.2188,522.2441 Q955.0156,522.0566 954.9063,521.541 Q954.8594,521.1816 954.6719,520.9941 Q954.3438,520.6191 953.7344,520.4004 Q953.125,520.1816 952.5,520.1816 Q951.7344,520.1816 951.0938,520.5098 Q950.4688,520.8379 949.9688,521.5879 Q949.4844,522.3379 949.4844,523.3691 L949.4844,524.4629 Q949.4844,525.6973 950.375,526.5254 Q951.2656,527.3379 952.8594,527.3379 Q953.7969,527.3379 954.4531,527.0879 Q954.8438,526.9316 955.2656,526.4941 Q955.5313,526.2285 955.6719,526.1504 Q955.8281,526.0723 956.0313,526.0723 Q956.3594,526.0723 956.6094,526.3379 Q956.875,526.5879 956.875,526.9316 Q956.875,527.2754 956.5313,527.6816 Q956.0313,528.2598 955.2344,528.5879 Q954.1563,529.041 952.8594,529.041 Q951.3438,529.041 950.1406,528.416 Q949.1563,527.916 948.4688,526.8535 Q947.7813,525.7754 947.7813,524.4941 L947.7813,523.3379 Q947.7813,522.0098 948.3906,520.8691 Q949.0156,519.7129 950.1094,519.1035 Q951.2031,518.4785 952.4375,518.4785 Q953.1719,518.4785 953.8125,518.6504 Q954.4688,518.8066 955.0156,519.166 Z " fill="#000000"/><text fill="#000000" font-family="sans-serif" font-size="12" font-style="italic" lengthAdjust="spacing" textLength="79" x="1005.75" y="518.9492">&#171;Component&#187;</text><text fill="#000000" font-family="sans-serif" font-size="14" lengthAdjust="spacing" textLength="145" x="972.75" y="537.0684">CustomerDataInitializer</text><line style="stroke:#181818;stroke-width:0.5;" x1="635" x2="1423" y1="545.582" y2="545.582"/><text fill="#000000" font-family="sans-serif" font-size="14" lengthAdjust="spacing" text-decoration="underline" textLength="88" x="640" y="564.6895">-LOG: Logger</text><text fill="#000000" font-family="sans-serif" font-size="14" lengthAdjust="spacing" textLength="336" x="640" y="583.3105">-userAccountManagement: UserAccountManagement</text><text fill="#000000" font-family="sans-serif" font-size="14" lengthAdjust="spacing" textLength="296" x="640" y="601.9316">-customerManagement: CustomerManagement</text><line style="stroke:#181818;stroke-width:0.5;" x1="635" x2="1423" y1="609.4453" y2="609.4453"/><text fill="#000000" font-family="sans-serif" font-size="14" lengthAdjust="spacing" textLength="778" x="640" y="628.5527">+CustomerDataInitializer(UerAccountManagement userAccountManagement, CustomerManagement customerManagement)</text><text fill="#000000" font-family="sans-serif" font-size="14" lengthAdjust="spacing" textLength="101" x="640" y="647.1738">+initialize(): void</text></g><!--class CustomerManagement--><g id="elem_CustomerManagement"><rect codeLine="61" fill="#F1F1F1" height="190.9297" id="CustomerManagement" rx="2.5" ry="2.5" style="stroke:#181818;stroke-width:0.5;" width="711" x="294.5" y="718"/><ellipse cx="574.25" cy="740.291" fill="#ADD1B2" rx="11" ry="11" style="stroke:#181818;stroke-width:1.0;"/><path d="M577.0156,736.166 Q577.1719,735.9473 577.3594,735.8379 Q577.5469,735.7285 577.7656,735.7285 Q578.1406,735.7285 578.375,735.9941 Q578.6094,736.2441 578.6094,736.8535 L578.6094,738.3066 Q578.6094,738.916 578.375,739.1816 Q578.1406,739.4473 577.7656,739.4473 Q577.4219,739.4473 577.2188,739.2441 Q577.0156,739.0566 576.9063,738.541 Q576.8594,738.1816 576.6719,737.9941 Q576.3438,737.6191 575.7344,737.4004 Q575.125,737.1816 574.5,737.1816 Q573.7344,737.1816 573.0938,737.5098 Q572.4688,737.8379 571.9688,738.5879 Q571.4844,739.3379 571.4844,740.3691 L571.4844,741.4629 Q571.4844,742.6973 572.375,743.5254 Q573.2656,744.3379 574.8594,744.3379 Q575.7969,744.3379 576.4531,744.0879 Q576.8438,743.9316 577.2656,743.4941 Q577.5313,743.2285 577.6719,743.1504 Q577.8281,743.0723 578.0313,743.0723 Q578.3594,743.0723 578.6094,743.3379 Q578.875,743.5879 578.875,743.9316 Q578.875,744.2754 578.5313,744.6816 Q578.0313,745.2598 577.2344,745.5879 Q576.1563,746.041 574.8594,746.041 Q573.3438,746.041 572.1406,745.416 Q571.1563,744.916 570.4688,743.8535 Q569.7813,742.7754 569.7813,741.4941 L569.7813,740.3379 Q569.7813,739.0098 570.3906,737.8691 Q571.0156,736.7129 572.1094,736.1035 Q573.2031,735.4785 574.4375,735.4785 Q575.1719,735.4785 575.8125,735.6504 Q576.4688,735.8066 577.0156,736.166 Z " fill="#000000"/><text fill="#000000" font-family="sans-serif" font-size="12" font-style="italic" lengthAdjust="spacing" textLength="55" x="638.75" y="735.9492">&#171;Service&#187;</text><text fill="#000000" font-family="sans-serif" font-size="14" lengthAdjust="spacing" textLength="143" x="594.75" y="754.0684">CustomerManagement</text><line style="stroke:#181818;stroke-width:0.5;" x1="295.5" x2="1004.5" y1="762.582" y2="762.582"/><text fill="#000000" font-family="sans-serif" font-size="14" lengthAdjust="spacing" textLength="207" x="300.5" y="781.6895">-customers: CustomerRepository</text><text fill="#000000" font-family="sans-serif" font-size="14" lengthAdjust="spacing" textLength="261" x="300.5" y="800.3105">-userAccounts: UserAccountManagement</text><line style="stroke:#181818;stroke-width:0.5;" x1="295.5" x2="1004.5" y1="807.8242" y2="807.8242"/><text fill="#000000" font-family="sans-serif" font-size="14" lengthAdjust="spacing" textLength="619" x="300.5" y="826.9316">+CustomerManagement(CustomerRepository customers, UserAccountManagement userAccounts)</text><text fill="#000000" font-family="sans-serif" font-size="14" lengthAdjust="spacing" textLength="699" x="300.5" y="845.5527">+create(String email, UnencryptedPassword password, Role roles, String firstname, String lastname): Customer</text><text fill="#000000" font-family="sans-serif" font-size="14" lengthAdjust="spacing" textLength="205" x="300.5" y="864.1738">+save(Customer customer): void</text><text fill="#000000" font-family="sans-serif" font-size="14" lengthAdjust="spacing" textLength="213" x="300.5" y="882.7949">+findAll(): Streamable&lt;Customer&gt;</text><text fill="#000000" font-family="sans-serif" font-size="14" lengthAdjust="spacing" textLength="272" x="300.5" y="901.416">+findByUUID(UUID id): Optional&lt;Customer&gt;</text></g><!--class CustomerRepository--><g id="elem_CustomerRepository"><rect codeLine="70" fill="#F1F1F1" height="58.6211" id="CustomerRepository" rx="2.5" ry="2.5" style="stroke:#181818;stroke-width:0.5;" width="225" x="1145.5" y="784"/><ellipse cx="1189.3" cy="800" fill="#B4A7E5" rx="11" ry="11" style="stroke:#181818;stroke-width:1.0;"/><path d="M1190.2531,796.6406 L1190.2531,803.2969 L1191.9719,803.2969 Q1192.5813,803.2969 1192.8469,803.5313 Q1193.1125,803.7656 1193.1125,804.1563 Q1193.1125,804.5313 1192.8469,804.7656 Q1192.5813,805 1191.9719,805 L1186.8313,805 Q1186.2219,805 1185.9563,804.7656 Q1185.6906,804.5313 1185.6906,804.1406 Q1185.6906,803.7656 1185.9563,803.5313 Q1186.2219,803.2969 1186.8313,803.2969 L1188.55,803.2969 L1188.55,796.6406 L1186.8313,796.6406 Q1186.2219,796.6406 1185.9563,796.4063 Q1185.6906,796.1719 1185.6906,795.7813 Q1185.6906,795.4063 1185.9563,795.1719 Q1186.2219,794.9375 1186.8313,794.9375 L1191.9719,794.9375 Q1192.5813,794.9375 1192.8469,795.1719 Q1193.1125,795.4063 1193.1125,795.7813 Q1193.1125,796.1719 1192.8469,796.4063 Q1192.5813,796.6406 1191.9719,796.6406 L1190.2531,796.6406 Z " fill="#000000"/><text fill="#000000" font-family="sans-serif" font-size="14" font-style="italic" lengthAdjust="spacing" textLength="129" x="1209.7" y="805.7969">CustomerRepository</text><line style="stroke:#181818;stroke-width:0.5;" x1="1146.5" x2="1369.5" y1="816" y2="816"/><text fill="#000000" font-family="sans-serif" font-size="14" lengthAdjust="spacing" textLength="213" x="1151.5" y="835.1074">+findAll(): Streamable&lt;Customer&gt;</text></g><!--class RegistrationForm--><g id="elem_RegistrationForm"><rect codeLine="73" fill="#F1F1F1" height="159.7266" id="RegistrationForm" rx="2.5" ry="2.5" style="stroke:#181818;stroke-width:0.5;" width="477" x="47.5" y="498"/><ellipse cx="227.25" cy="514" fill="#ADD1B2" rx="11" ry="11" style="stroke:#181818;stroke-width:1.0;"/><path d="M230.0156,509.875 Q230.1719,509.6563 230.3594,509.5469 Q230.5469,509.4375 230.7656,509.4375 Q231.1406,509.4375 231.375,509.7031 Q231.6094,509.9531 231.6094,510.5625 L231.6094,512.0156 Q231.6094,512.625 231.375,512.8906 Q231.1406,513.1563 230.7656,513.1563 Q230.4219,513.1563 230.2188,512.9531 Q230.0156,512.7656 229.9063,512.25 Q229.8594,511.8906 229.6719,511.7031 Q229.3438,511.3281 228.7344,511.1094 Q228.125,510.8906 227.5,510.8906 Q226.7344,510.8906 226.0938,511.2188 Q225.4688,511.5469 224.9688,512.2969 Q224.4844,513.0469 224.4844,514.0781 L224.4844,515.1719 Q224.4844,516.4063 225.375,517.2344 Q226.2656,518.0469 227.8594,518.0469 Q228.7969,518.0469 229.4531,517.7969 Q229.8438,517.6406 230.2656,517.2031 Q230.5313,516.9375 230.6719,516.8594 Q230.8281,516.7813 231.0313,516.7813 Q231.3594,516.7813 231.6094,517.0469 Q231.875,517.2969 231.875,517.6406 Q231.875,517.9844 231.5313,518.3906 Q231.0313,518.9688 230.2344,519.2969 Q229.1563,519.75 227.8594,519.75 Q226.3438,519.75 225.1406,519.125 Q224.1563,518.625 223.4688,517.5625 Q222.7813,516.4844 222.7813,515.2031 L222.7813,514.0469 Q222.7813,512.7188 223.3906,511.5781 Q224.0156,510.4219 225.1094,509.8125 Q226.2031,509.1875 227.4375,509.1875 Q228.1719,509.1875 228.8125,509.3594 Q229.4688,509.5156 230.0156,509.875 Z " fill="#000000"/><text fill="#000000" font-family="sans-serif" font-size="14" lengthAdjust="spacing" textLength="109" x="247.75" y="519.7969">RegistrationForm</text><line style="stroke:#181818;stroke-width:0.5;" x1="48.5" x2="523.5" y1="530" y2="530"/><text fill="#000000" font-family="sans-serif" font-size="14" lengthAdjust="spacing" textLength="85" x="53.5" y="549.1074">-name: String</text><text fill="#000000" font-family="sans-serif" font-size="14" lengthAdjust="spacing" textLength="72" x="53.5" y="567.7285">-last: String</text><text fill="#000000" font-family="sans-serif" font-size="14" lengthAdjust="spacing" textLength="110" x="53.5" y="586.3496">-password: String</text><text fill="#000000" font-family="sans-serif" font-size="14" lengthAdjust="spacing" textLength="83" x="53.5" y="604.9707">-email: String</text><line style="stroke:#181818;stroke-width:0.5;" x1="48.5" x2="523.5" y1="612.4844" y2="612.4844"/><text fill="#000000" font-family="sans-serif" font-size="14" lengthAdjust="spacing" textLength="465" x="53.5" y="631.5918">+RegistrationForm(String name, String last, String password, String email)</text><text fill="#000000" font-family="sans-serif" font-size="14" lengthAdjust="spacing" textLength="182" x="53.5" y="650.2129">+validate(Errors errors): void</text></g><!--link CustomerController to CustomerDashboardController--><!--link RoleChangeInformation to CustomerDashboardController--><g id="link_RoleChangeInformation_CustomerDashboardController"><path codeLine="84" d="M525.22,370.5 C547.08,370.5 555.49,370.5 580.85,370.5 " fill="none" id="RoleChangeInformation-to-CustomerDashboardController" style="stroke:#181818;stroke-width:1.0;"/><ellipse cx="588.85" cy="370.5" fill="#FEFEFE" rx="8" ry="8" style="stroke:#181818;stroke-width:1.0;"/><line style="stroke:#181818;stroke-width:1.0;" x1="580.85" x2="596.85" y1="370.5" y2="370.5"/><line style="stroke:#181818;stroke-width:1.0;" x1="588.85" x2="588.85" y1="362.5" y2="378.5"/></g><!--link Roles to Customer--><g id="link_Roles_Customer"><path codeLine="85" d="M487.55,1113.5 C499.08,1113.5 494.97,1113.5 506.83,1113.5 " fill="none" id="Roles-to-Customer" style="stroke:#181818;stroke-width:1.0;"/><ellipse cx="514.83" cy="1113.5" fill="#FEFEFE" rx="8" ry="8" style="stroke:#181818;stroke-width:1.0;"/><line style="stroke:#181818;stroke-width:1.0;" x1="506.83" x2="522.83" y1="1113.5" y2="1113.5"/><line style="stroke:#181818;stroke-width:1.0;" x1="514.83" x2="514.83" y1="1105.5" y2="1121.5"/></g><!--link CustomerDashboardController to CustomerDataInitializer--><!--link CustomerDataInitializer to CustomerManagement--><!--link CustomerDataInitializer to CustomerManagement--><g id="link_CustomerDataInitializer_CustomerManagement"><path codeLine="93" d="M757.83,655.11 C757.83,675.1 757.83,690.87 757.83,711.69 " fill="none" id="CustomerDataInitializer-to-CustomerManagement" style="stroke:#181818;stroke-width:1.0;stroke-dasharray:7.0,7.0;"/><polygon fill="#181818" points="757.83,717.69,761.83,708.69,757.83,712.69,753.83,708.69,757.83,717.69" style="stroke:#181818;stroke-width:1.0;"/><text fill="#000000" font-family="sans-serif" font-size="13" lengthAdjust="spacing" textLength="35" x="721.83" y="682.4283">&#171;use&#187;</text></g><!--link CustomerDataInitializer to DataInitializer--><g id="link_CustomerDataInitializer_DataInitializer"><path codeLine="88" d="M1424.16,578.5 C1652.11,578.5 1894,578.5 1894,578.5 C1894,578.5 1894,989.13 1894,1078.71 " fill="none" id="CustomerDataInitializer-to-DataInitializer" style="stroke:#181818;stroke-width:1.0;"/><polygon fill="none" points="1894,1096.71,1900,1078.71,1888,1078.71,1894,1096.71" style="stroke:#181818;stroke-width:1.0;"/></g><!--link CustomerRepository to CrudRepository--><g id="link_CustomerRepository_CrudRepository"><path codeLine="90" d="M1370.62,813.5 C1483.93,813.5 1642,813.5 1642,813.5 C1642,813.5 1642,1016.69 1642,1078.9 " fill="none" id="CustomerRepository-to-CrudRepository" style="stroke:#181818;stroke-width:1.0;"/><polygon fill="none" points="1642,1096.9,1648,1078.9,1636,1078.9,1642,1096.9" style="stroke:#181818;stroke-width:1.0;"/><text fill="#000000" font-family="sans-serif" font-size="13" lengthAdjust="spacing" textLength="197" x="1444" y="815.5383">&lt;&lt;bind T-&gt;Customer, ID-&gt;UUID&gt;&gt;</text></g><!--link RegistrationForm to CustomerManagement--><!--link CustomerController to RegistrationForm--><g id="link_CustomerController_RegistrationForm"><path codeLine="92" d="M336,243.01 C336,315.68 336,418.18 336,491.85 " fill="none" id="CustomerController-to-RegistrationForm" style="stroke:#181818;stroke-width:1.0;stroke-dasharray:7.0,7.0;"/><polygon fill="#181818" points="336,497.85,340,488.85,336,492.85,332,488.85,336,497.85" style="stroke:#181818;stroke-width:1.0;"/><text fill="#000000" font-family="sans-serif" font-size="13" lengthAdjust="spacing" textLength="35" x="300" y="366.4583">&#171;use&#187;</text></g><!--link CustomerDashboardController to CustomerManagement--><g id="link_CustomerDashboardController_CustomerManagement"><path codeLine="94" d="M615.5,438.26 C615.5,512.92 615.5,627.54 615.5,711.81 " fill="none" id="CustomerDashboardController-to-CustomerManagement" style="stroke:#181818;stroke-width:1.0;stroke-dasharray:7.0,7.0;"/><polygon fill="#181818" points="615.5,717.81,619.5,708.81,615.5,712.81,611.5,708.81,615.5,717.81" style="stroke:#181818;stroke-width:1.0;"/><text fill="#000000" font-family="sans-serif" font-size="13" lengthAdjust="spacing" textLength="35" x="579.5" y="574.0683">&#171;use&#187;</text></g><!--link CustomerManagement to CustomerRepository--><g id="link_CustomerManagement_CustomerRepository"><path codeLine="95" d="M1005.87,813.5 C1056.22,813.5 1098.61,813.5 1139.3,813.5 " fill="none" id="CustomerManagement-to-CustomerRepository" style="stroke:#181818;stroke-width:1.0;stroke-dasharray:7.0,7.0;"/><polygon fill="#181818" points="1145.3,813.5,1136.3,809.5,1140.3,813.5,1136.3,817.5,1145.3,813.5" style="stroke:#181818;stroke-width:1.0;"/><text fill="#000000" font-family="sans-serif" font-size="13" lengthAdjust="spacing" textLength="35" x="1039.59" y="809.5283">&#171;use&#187;</text></g><!--link CustomerManagement to Customer--><g id="link_CustomerManagement_Customer"><path codeLine="96" d="M650,909.09 C650,934.59 650,956.53 650,983.31 " fill="none" id="CustomerManagement-to-Customer" style="stroke:#181818;stroke-width:1.0;stroke-dasharray:7.0,7.0;"/><polygon fill="#181818" points="650,989.31,654,980.31,650,984.31,646,980.31,650,989.31" style="stroke:#181818;stroke-width:1.0;"/><text fill="#000000" font-family="sans-serif" font-size="13" lengthAdjust="spacing" textLength="35" x="614" y="945.2283">&#171;use&#187;</text></g><!--link CustomerController to CustomerManagement--><g id="link_CustomerController_CustomerManagement"><path codeLine="97" d="M561,243.14 C561,361.85 561,583.06 561,711.99 " fill="none" id="CustomerController-to-CustomerManagement" style="stroke:#181818;stroke-width:1.0;stroke-dasharray:7.0,7.0;"/><polygon fill="#181818" points="561,717.99,565,708.99,561,712.99,557,708.99,561,717.99" style="stroke:#181818;stroke-width:1.0;"/><text fill="#000000" font-family="sans-serif" font-size="13" lengthAdjust="spacing" textLength="35" x="525" y="476.5983">&#171;use&#187;</text></g><!--SRC=[jLRTR-es57_FNs5fBwaWQCyLGcefdP1Qk2gNITEq1vCSWbN7Zcod7RVh_xxZG1876tgHjY05v_Xy_iw7lMCP42XAioTR1ZpJqQwZ561s4adwbOcIAbgGb5EjxunHR5CPcATIhDWF8BywB9m9CFiIY5GexMpSq_GrLx8IsLHogSWlZpFxYoZdyhrWVpEHEzmbSjCSLcRFWJmY1QA82GDgIrEhEn_fKg78rcwzI_KwogYX8mMbrCn8jHzDLPMzj9zHTDH8KbgKA5XoQdvyH0IVTgVIHXQW3bJxrF6IwP4-7i-4OMO_cNGSzaa8osx9UZr_E25N6jHTccBC1lUxZnxReDKVEookx4sVFmSpp-ARW4MxPNK8nCGoh8o5o6DvP4gRnMMU9_ebY-DjxSsv-93rHV9Qa_tlR-hZfdqHXInlacLHo_FPha1KHIslE_0NoyMi_PYkLz-NpxENbZ1x_lQq_6FMSTmlLwjETQ9GsObBWzh0qHbyTSZRA7wdlFB367neGmrBFybMoM9H5HlCv1nBDGT5s2dtvvdQcafXq2AtLTQjtKfBcl9yfWAhjG1RL5EFrldbguvzTk9hTO9Ma3EDJRU0z_YbNYiCLOf7gGgonTUGp9IIIXC5kk9cI9vb1fmKzkrNJgilTjY69AWv8BsbZ6TSvameo9Y2rCGNpPt3-e7gtKPIbVsFe0TiN8r-itavoa6weoA7kelwi29bMk_DXKMqnfSmN5-2gXkoGVcFNaSq4Tb9v4safl7RjZasnK_anz2vO8PHZgTBdPkYb0B1wQMcwRkdvM-tv4dchkh46PzkwjOXyd-HxPx7yJfWXGHT6f9hguArTk9cN7u5QATdF5w1UcCf18jSTz4w9sS8K_qLb0FVTkphRYFLmx0-5pJjjeO2QY0-L35ULt0oe0OiaLJjImFPDmmVRmKPdks7nQ4Twg6EjevoMtiGsiEofI1iDU6cGw8pgkaRj46qhfycOR1b8hlZ_7Xo0YteXiEuaPlq6U_tTU_O5zuYK6HPsZQZF20GQb8Vqu_hFJcjczE1x9IA1SUR7ec5pQSssFixTSByINPgjyclbwBseqklMmfEeRnXfsIsL8xd5DH_uSRvZ3uZ_z0aoPzu9yv0_9KbbuwGA3nl4vKClXJJVRRep5pfNAakknAOAM7HdlhpPfD_9eSxDqLVIudbrzsxKwbWTAef2lHwf-Mgc_ij6OytMCZaUp9fj0x9_26PsAQPJ2Bl-X1Ac3EY0YaUZIR-BSGQnl635ixXOiK2K8S4lHpzlB2pELAEa0FjPI579i1vZKl_0W00]--></g></svg>