<?xml version="1.0" encoding="us-ascii" standalone="no"?><svg xmlns="http://www.w3.org/2000/svg" xmlns:xlink="http://www.w3.org/1999/xlink" contentStyleType="text/css" height="609px" preserveAspectRatio="none" style="width:2528px;height:609px;background:#FEFEFE;" version="1.1" viewBox="0 0 2528 609" width="2528px" zoomAndPan="magnify"><defs/><g><rect fill="#FEFEFE" height="609" style="stroke:none;stroke-width:1.0;" width="2528" x="0" y="0"/><!--cluster org--><g id="cluster_org"><rect fill="none" height="223" rx="2.5" ry="2.5" style="stroke:#000000;stroke-width:1.5;" width="274" x="2248" y="221"/><path d="M2282,221 L2282,232.6211 L2272,242.6211 L2248,242.6211 " fill="none" style="stroke:#000000;stroke-width:1.5;"/><text fill="#000000" font-family="sans-serif" font-size="14" font-weight="bold" lengthAdjust="spacing" textLength="24" x="2251" y="237.1074">org</text></g><!--cluster salespointframework--><g id="cluster_salespointframework"><rect fill="none" height="154" rx="2.5" ry="2.5" style="stroke:#000000;stroke-width:1.5;" width="226" x="2272" y="266"/><path d="M2429,266 L2429,277.6211 L2419,287.6211 L2272,287.6211 " fill="none" style="stroke:#000000;stroke-width:1.5;"/><text fill="#000000" font-family="sans-serif" font-size="14" font-weight="bold" lengthAdjust="spacing" textLength="147" x="2275" y="282.1074">salespointframework</text></g><!--cluster accountancy--><g id="cluster_accountancy"><rect fill="none" height="85" rx="2.5" ry="2.5" style="stroke:#000000;stroke-width:1.5;" width="178" x="2296" y="311"/><path d="M2394,311 L2394,322.6211 L2384,332.6211 L2296,332.6211 " fill="none" style="stroke:#000000;stroke-width:1.5;"/><text fill="#000000" font-family="sans-serif" font-size="14" font-weight="bold" lengthAdjust="spacing" textLength="88" x="2299" y="327.1074">accountancy</text></g><!--cluster campingplatz--><g id="cluster_campingplatz"><rect fill="none" height="596" rx="2.5" ry="2.5" style="stroke:#000000;stroke-width:1.5;" width="2217" x="7" y="7"/><path d="M109,7 L109,18.6211 L99,28.6211 L7,28.6211 " fill="none" style="stroke:#000000;stroke-width:1.5;"/><text fill="#000000" font-family="sans-serif" font-size="14" font-weight="bold" lengthAdjust="spacing" textLength="92" x="10" y="23.1074">campingplatz</text></g><!--cluster accounting--><g id="cluster_accounting"><rect fill="none" height="527" rx="2.5" ry="2.5" style="stroke:#000000;stroke-width:1.5;" width="2169" x="31" y="52"/><path d="M119,52 L119,63.6211 L109,73.6211 L31,73.6211 " fill="none" style="stroke:#000000;stroke-width:1.5;"/><text fill="#000000" font-family="sans-serif" font-size="14" font-weight="bold" lengthAdjust="spacing" textLength="78" x="34" y="68.1074">accounting</text></g><!--class AccountancyEntry--><g id="elem_AccountancyEntry"><rect codeLine="9" fill="#F1F1F1" height="32" id="AccountancyEntry" rx="2.5" ry="2.5" style="stroke:#181818;stroke-width:0.5;" width="146" x="2312" y="348"/><ellipse cx="2327" cy="364" fill="#ADD1B2" rx="11" ry="11" style="stroke:#181818;stroke-width:1.0;"/><path d="M2329.7656,359.875 Q2329.9219,359.6563 2330.1094,359.5469 Q2330.2969,359.4375 2330.5156,359.4375 Q2330.8906,359.4375 2331.125,359.7031 Q2331.3594,359.9531 2331.3594,360.5625 L2331.3594,362.0156 Q2331.3594,362.625 2331.125,362.8906 Q2330.8906,363.1563 2330.5156,363.1563 Q2330.1719,363.1563 2329.9688,362.9531 Q2329.7656,362.7656 2329.6563,362.25 Q2329.6094,361.8906 2329.4219,361.7031 Q2329.0938,361.3281 2328.4844,361.1094 Q2327.875,360.8906 2327.25,360.8906 Q2326.4844,360.8906 2325.8438,361.2188 Q2325.2188,361.5469 2324.7188,362.2969 Q2324.2344,363.0469 2324.2344,364.0781 L2324.2344,365.1719 Q2324.2344,366.4063 2325.125,367.2344 Q2326.0156,368.0469 2327.6094,368.0469 Q2328.5469,368.0469 2329.2031,367.7969 Q2329.5938,367.6406 2330.0156,367.2031 Q2330.2813,366.9375 2330.4219,366.8594 Q2330.5781,366.7813 2330.7813,366.7813 Q2331.1094,366.7813 2331.3594,367.0469 Q2331.625,367.2969 2331.625,367.6406 Q2331.625,367.9844 2331.2813,368.3906 Q2330.7813,368.9688 2329.9844,369.2969 Q2328.9063,369.75 2327.6094,369.75 Q2326.0938,369.75 2324.8906,369.125 Q2323.9063,368.625 2323.2188,367.5625 Q2322.5313,366.4844 2322.5313,365.2031 L2322.5313,364.0469 Q2322.5313,362.7188 2323.1406,361.5781 Q2323.7656,360.4219 2324.8594,359.8125 Q2325.9531,359.1875 2327.1875,359.1875 Q2327.9219,359.1875 2328.5625,359.3594 Q2329.2188,359.5156 2329.7656,359.875 Z " fill="#000000"/><text fill="#000000" font-family="sans-serif" font-size="14" lengthAdjust="spacing" textLength="114" x="2341" y="369.7969">AccountancyEntry</text></g><!--class AccountancyDashboardController--><g id="elem_AccountancyDashboardController"><rect codeLine="12" fill="#F1F1F1" height="116.4453" id="AccountancyDashboardController" rx="2.5" ry="2.5" style="stroke:#181818;stroke-width:0.5;" width="408" x="1776" y="89"/><ellipse cx="1869.25" cy="111.291" fill="#ADD1B2" rx="11" ry="11" style="stroke:#181818;stroke-width:1.0;"/><path d="M1872.0156,107.166 Q1872.1719,106.9473 1872.3594,106.8379 Q1872.5469,106.7285 1872.7656,106.7285 Q1873.1406,106.7285 1873.375,106.9941 Q1873.6094,107.2441 1873.6094,107.8535 L1873.6094,109.3066 Q1873.6094,109.916 1873.375,110.1816 Q1873.1406,110.4473 1872.7656,110.4473 Q1872.4219,110.4473 1872.2188,110.2441 Q1872.0156,110.0566 1871.9063,109.541 Q1871.8594,109.1816 1871.6719,108.9941 Q1871.3438,108.6191 1870.7344,108.4004 Q1870.125,108.1816 1869.5,108.1816 Q1868.7344,108.1816 1868.0938,108.5098 Q1867.4688,108.8379 1866.9688,109.5879 Q1866.4844,110.3379 1866.4844,111.3691 L1866.4844,112.4629 Q1866.4844,113.6973 1867.375,114.5254 Q1868.2656,115.3379 1869.8594,115.3379 Q1870.7969,115.3379 1871.4531,115.0879 Q1871.8438,114.9316 1872.2656,114.4941 Q1872.5313,114.2285 1872.6719,114.1504 Q1872.8281,114.0723 1873.0313,114.0723 Q1873.3594,114.0723 1873.6094,114.3379 Q1873.875,114.5879 1873.875,114.9316 Q1873.875,115.2754 1873.5313,115.6816 Q1873.0313,116.2598 1872.2344,116.5879 Q1871.1563,117.041 1869.8594,117.041 Q1868.3438,117.041 1867.1406,116.416 Q1866.1563,115.916 1865.4688,114.8535 Q1864.7813,113.7754 1864.7813,112.4941 L1864.7813,111.3379 Q1864.7813,110.0098 1865.3906,108.8691 Q1866.0156,107.7129 1867.1094,107.1035 Q1868.2031,106.4785 1869.4375,106.4785 Q1870.1719,106.4785 1870.8125,106.6504 Q1871.4688,106.8066 1872.0156,107.166 Z " fill="#000000"/><text fill="#000000" font-family="sans-serif" font-size="12" font-style="italic" lengthAdjust="spacing" textLength="68" x="1962.25" y="106.9492">&#171;Controller&#187;</text><text fill="#000000" font-family="sans-serif" font-size="14" lengthAdjust="spacing" textLength="213" x="1889.75" y="125.0684">AccountancyDashboardController</text><line style="stroke:#181818;stroke-width:0.5;" x1="1777" x2="2183" y1="133.582" y2="133.582"/><text fill="#000000" font-family="sans-serif" font-size="14" lengthAdjust="spacing" textLength="177" x="1782" y="152.6895">+accountancy: Accountancy</text><line style="stroke:#181818;stroke-width:0.5;" x1="1777" x2="2183" y1="160.2031" y2="160.2031"/><text fill="#000000" font-family="sans-serif" font-size="14" lengthAdjust="spacing" textLength="396" x="1782" y="179.3105">+AccountancyDashboardController(Accountancy accountancy)</text><text fill="#000000" font-family="sans-serif" font-size="14" lengthAdjust="spacing" textLength="222" x="1782" y="197.9316">+accountyncy(Model model): String</text></g><!--class ExtendedAccountancyEntry--><g id="elem_ExtendedAccountancyEntry"><rect codeLine="17" fill="#F1F1F1" height="97.8242" id="ExtendedAccountancyEntry" rx="2.5" ry="2.5" style="stroke:#181818;stroke-width:0.5;" width="511" x="1672.5" y="315"/><ellipse cx="1837.25" cy="337.291" fill="#ADD1B2" rx="11" ry="11" style="stroke:#181818;stroke-width:1.0;"/><path d="M1840.0156,333.166 Q1840.1719,332.9473 1840.3594,332.8379 Q1840.5469,332.7285 1840.7656,332.7285 Q1841.1406,332.7285 1841.375,332.9941 Q1841.6094,333.2441 1841.6094,333.8535 L1841.6094,335.3066 Q1841.6094,335.916 1841.375,336.1816 Q1841.1406,336.4473 1840.7656,336.4473 Q1840.4219,336.4473 1840.2188,336.2441 Q1840.0156,336.0566 1839.9063,335.541 Q1839.8594,335.1816 1839.6719,334.9941 Q1839.3438,334.6191 1838.7344,334.4004 Q1838.125,334.1816 1837.5,334.1816 Q1836.7344,334.1816 1836.0938,334.5098 Q1835.4688,334.8379 1834.9688,335.5879 Q1834.4844,336.3379 1834.4844,337.3691 L1834.4844,338.4629 Q1834.4844,339.6973 1835.375,340.5254 Q1836.2656,341.3379 1837.8594,341.3379 Q1838.7969,341.3379 1839.4531,341.0879 Q1839.8438,340.9316 1840.2656,340.4941 Q1840.5313,340.2285 1840.6719,340.1504 Q1840.8281,340.0723 1841.0313,340.0723 Q1841.3594,340.0723 1841.6094,340.3379 Q1841.875,340.5879 1841.875,340.9316 Q1841.875,341.2754 1841.5313,341.6816 Q1841.0313,342.2598 1840.2344,342.5879 Q1839.1563,343.041 1837.8594,343.041 Q1836.3438,343.041 1835.1406,342.416 Q1834.1563,341.916 1833.4688,340.8535 Q1832.7813,339.7754 1832.7813,338.4941 L1832.7813,337.3379 Q1832.7813,336.0098 1833.3906,334.8691 Q1834.0156,333.7129 1835.1094,333.1035 Q1836.2031,332.4785 1837.4375,332.4785 Q1838.1719,332.4785 1838.8125,332.6504 Q1839.4688,332.8066 1840.0156,333.166 Z " fill="#000000"/><text fill="#000000" font-family="sans-serif" font-size="12" font-style="italic" lengthAdjust="spacing" textLength="44" x="1922.25" y="332.9492">&#171;Entity&#187;</text><text fill="#000000" font-family="sans-serif" font-size="14" lengthAdjust="spacing" textLength="173" x="1857.75" y="351.0684">ExtendedAccountancyEntry</text><line style="stroke:#181818;stroke-width:0.5;" x1="1673.5" x2="2182.5" y1="359.582" y2="359.582"/><text fill="#000000" font-family="sans-serif" font-size="14" lengthAdjust="spacing" textLength="164" x="1678.5" y="378.6895">-descriptions: List&lt;String&gt;</text><line style="stroke:#181818;stroke-width:0.5;" x1="1673.5" x2="2182.5" y1="386.2031" y2="386.2031"/><text fill="#000000" font-family="sans-serif" font-size="14" lengthAdjust="spacing" textLength="499" x="1678.5" y="405.3105">+ExtendedAccountancyEntry(MonetaryAmount value, List&lt;String&gt; descriptions)</text></g><!--class PlotRepairAccountancyEntry--><g id="elem_PlotRepairAccountancyEntry"><rect codeLine="21" fill="#F1F1F1" height="89.8242" id="PlotRepairAccountancyEntry" rx="2.5" ry="2.5" style="stroke:#181818;stroke-width:0.5;" width="344" x="1397" y="102"/><ellipse cx="1474.75" cy="124.291" fill="#ADD1B2" rx="11" ry="11" style="stroke:#181818;stroke-width:1.0;"/><path d="M1477.5156,120.166 Q1477.6719,119.9473 1477.8594,119.8379 Q1478.0469,119.7285 1478.2656,119.7285 Q1478.6406,119.7285 1478.875,119.9941 Q1479.1094,120.2441 1479.1094,120.8535 L1479.1094,122.3066 Q1479.1094,122.916 1478.875,123.1816 Q1478.6406,123.4473 1478.2656,123.4473 Q1477.9219,123.4473 1477.7188,123.2441 Q1477.5156,123.0566 1477.4063,122.541 Q1477.3594,122.1816 1477.1719,121.9941 Q1476.8438,121.6191 1476.2344,121.4004 Q1475.625,121.1816 1475,121.1816 Q1474.2344,121.1816 1473.5938,121.5098 Q1472.9688,121.8379 1472.4688,122.5879 Q1471.9844,123.3379 1471.9844,124.3691 L1471.9844,125.4629 Q1471.9844,126.6973 1472.875,127.5254 Q1473.7656,128.3379 1475.3594,128.3379 Q1476.2969,128.3379 1476.9531,128.0879 Q1477.3438,127.9316 1477.7656,127.4941 Q1478.0313,127.2285 1478.1719,127.1504 Q1478.3281,127.0723 1478.5313,127.0723 Q1478.8594,127.0723 1479.1094,127.3379 Q1479.375,127.5879 1479.375,127.9316 Q1479.375,128.2754 1479.0313,128.6816 Q1478.5313,129.2598 1477.7344,129.5879 Q1476.6563,130.041 1475.3594,130.041 Q1473.8438,130.041 1472.6406,129.416 Q1471.6563,128.916 1470.9688,127.8535 Q1470.2813,126.7754 1470.2813,125.4941 L1470.2813,124.3379 Q1470.2813,123.0098 1470.8906,121.8691 Q1471.5156,120.7129 1472.6094,120.1035 Q1473.7031,119.4785 1474.9375,119.4785 Q1475.6719,119.4785 1476.3125,119.6504 Q1476.9688,119.8066 1477.5156,120.166 Z " fill="#000000"/><text fill="#000000" font-family="sans-serif" font-size="12" font-style="italic" lengthAdjust="spacing" textLength="44" x="1563.25" y="119.9492">&#171;Entity&#187;</text><text fill="#000000" font-family="sans-serif" font-size="14" lengthAdjust="spacing" textLength="180" x="1495.25" y="138.0684">PlotRepairAccountancyEntry</text><line style="stroke:#181818;stroke-width:0.5;" x1="1398" x2="1740" y1="146.582" y2="146.582"/><text fill="#000000" font-family="sans-serif" font-size="14" lengthAdjust="spacing" text-decoration="underline" textLength="225" x="1403" y="165.6895">-descriptions(Plot plot): List&lt;String&gt;</text><text fill="#000000" font-family="sans-serif" font-size="14" lengthAdjust="spacing" textLength="332" x="1403" y="184.3105">+PlotRepairAccountancyEntry(Double cost, Plot plot)</text></g><!--class PlotReservationAccountancyEntry--><g id="elem_PlotReservationAccountancyEntry"><rect codeLine="25" fill="#F1F1F1" height="89.8242" id="PlotReservationAccountancyEntry" rx="2.5" ry="2.5" style="stroke:#181818;stroke-width:0.5;" width="419" x="942.5" y="102"/><ellipse cx="1040.75" cy="124.291" fill="#ADD1B2" rx="11" ry="11" style="stroke:#181818;stroke-width:1.0;"/><path d="M1043.5156,120.166 Q1043.6719,119.9473 1043.8594,119.8379 Q1044.0469,119.7285 1044.2656,119.7285 Q1044.6406,119.7285 1044.875,119.9941 Q1045.1094,120.2441 1045.1094,120.8535 L1045.1094,122.3066 Q1045.1094,122.916 1044.875,123.1816 Q1044.6406,123.4473 1044.2656,123.4473 Q1043.9219,123.4473 1043.7188,123.2441 Q1043.5156,123.0566 1043.4063,122.541 Q1043.3594,122.1816 1043.1719,121.9941 Q1042.8438,121.6191 1042.2344,121.4004 Q1041.625,121.1816 1041,121.1816 Q1040.2344,121.1816 1039.5938,121.5098 Q1038.9688,121.8379 1038.4688,122.5879 Q1037.9844,123.3379 1037.9844,124.3691 L1037.9844,125.4629 Q1037.9844,126.6973 1038.875,127.5254 Q1039.7656,128.3379 1041.3594,128.3379 Q1042.2969,128.3379 1042.9531,128.0879 Q1043.3438,127.9316 1043.7656,127.4941 Q1044.0313,127.2285 1044.1719,127.1504 Q1044.3281,127.0723 1044.5313,127.0723 Q1044.8594,127.0723 1045.1094,127.3379 Q1045.375,127.5879 1045.375,127.9316 Q1045.375,128.2754 1045.0313,128.6816 Q1044.5313,129.2598 1043.7344,129.5879 Q1042.6563,130.041 1041.3594,130.041 Q1039.8438,130.041 1038.6406,129.416 Q1037.6563,128.916 1036.9688,127.8535 Q1036.2813,126.7754 1036.2813,125.4941 L1036.2813,124.3379 Q1036.2813,123.0098 1036.8906,121.8691 Q1037.5156,120.7129 1038.6094,120.1035 Q1039.7031,119.4785 1040.9375,119.4785 Q1041.6719,119.4785 1042.3125,119.6504 Q1042.9688,119.8066 1043.5156,120.166 Z " fill="#000000"/><text fill="#000000" font-family="sans-serif" font-size="12" font-style="italic" lengthAdjust="spacing" textLength="44" x="1146.25" y="119.9492">&#171;Entity&#187;</text><text fill="#000000" font-family="sans-serif" font-size="14" lengthAdjust="spacing" textLength="214" x="1061.25" y="138.0684">PlotReservationAccountancyEntry</text><line style="stroke:#181818;stroke-width:0.5;" x1="943.5" x2="1360.5" y1="146.582" y2="146.582"/><text fill="#000000" font-family="sans-serif" font-size="14" lengthAdjust="spacing" text-decoration="underline" textLength="349" x="948.5" y="165.6895">-descriptions(PlotReservation reservation): List&lt;String&gt;</text><text fill="#000000" font-family="sans-serif" font-size="14" lengthAdjust="spacing" textLength="407" x="948.5" y="184.3105">+PlotReservationAccountancyEntry(PlotReservation reservation)</text></g><!--class PlotReservationDeductionEntry--><g id="elem_PlotReservationDeductionEntry"><rect codeLine="29" fill="#F1F1F1" height="89.8242" id="PlotReservationDeductionEntry" rx="2.5" ry="2.5" style="stroke:#181818;stroke-width:0.5;" width="402" x="505" y="102"/><ellipse cx="603.25" cy="124.291" fill="#ADD1B2" rx="11" ry="11" style="stroke:#181818;stroke-width:1.0;"/><path d="M606.0156,120.166 Q606.1719,119.9473 606.3594,119.8379 Q606.5469,119.7285 606.7656,119.7285 Q607.1406,119.7285 607.375,119.9941 Q607.6094,120.2441 607.6094,120.8535 L607.6094,122.3066 Q607.6094,122.916 607.375,123.1816 Q607.1406,123.4473 606.7656,123.4473 Q606.4219,123.4473 606.2188,123.2441 Q606.0156,123.0566 605.9063,122.541 Q605.8594,122.1816 605.6719,121.9941 Q605.3438,121.6191 604.7344,121.4004 Q604.125,121.1816 603.5,121.1816 Q602.7344,121.1816 602.0938,121.5098 Q601.4688,121.8379 600.9688,122.5879 Q600.4844,123.3379 600.4844,124.3691 L600.4844,125.4629 Q600.4844,126.6973 601.375,127.5254 Q602.2656,128.3379 603.8594,128.3379 Q604.7969,128.3379 605.4531,128.0879 Q605.8438,127.9316 606.2656,127.4941 Q606.5313,127.2285 606.6719,127.1504 Q606.8281,127.0723 607.0313,127.0723 Q607.3594,127.0723 607.6094,127.3379 Q607.875,127.5879 607.875,127.9316 Q607.875,128.2754 607.5313,128.6816 Q607.0313,129.2598 606.2344,129.5879 Q605.1563,130.041 603.8594,130.041 Q602.3438,130.041 601.1406,129.416 Q600.1563,128.916 599.4688,127.8535 Q598.7813,126.7754 598.7813,125.4941 L598.7813,124.3379 Q598.7813,123.0098 599.3906,121.8691 Q600.0156,120.7129 601.1094,120.1035 Q602.2031,119.4785 603.4375,119.4785 Q604.1719,119.4785 604.8125,119.6504 Q605.4688,119.8066 606.0156,120.166 Z " fill="#000000"/><text fill="#000000" font-family="sans-serif" font-size="12" font-style="italic" lengthAdjust="spacing" textLength="44" x="700.25" y="119.9492">&#171;Entity&#187;</text><text fill="#000000" font-family="sans-serif" font-size="14" lengthAdjust="spacing" textLength="197" x="623.75" y="138.0684">PlotReservationDeductionEntry</text><line style="stroke:#181818;stroke-width:0.5;" x1="506" x2="906" y1="146.582" y2="146.582"/><text fill="#000000" font-family="sans-serif" font-size="14" lengthAdjust="spacing" text-decoration="underline" textLength="349" x="511" y="165.6895">-descriptions(PlotReservation reservation): List&lt;String&gt;</text><text fill="#000000" font-family="sans-serif" font-size="14" lengthAdjust="spacing" textLength="390" x="511" y="184.3105">+PlotReservationDeductionEntry(PlotReservation reservation)</text></g><!--class SeasonalPlotRepairAccountancyEntry--><g id="elem_SeasonalPlotRepairAccountancyEntry"><rect codeLine="33" fill="#F1F1F1" height="89.8242" id="SeasonalPlotRepairAccountancyEntry" rx="2.5" ry="2.5" style="stroke:#181818;stroke-width:0.5;" width="462" x="1175" y="319"/><ellipse cx="1282.25" cy="341.291" fill="#ADD1B2" rx="11" ry="11" style="stroke:#181818;stroke-width:1.0;"/><path d="M1285.0156,337.166 Q1285.1719,336.9473 1285.3594,336.8379 Q1285.5469,336.7285 1285.7656,336.7285 Q1286.1406,336.7285 1286.375,336.9941 Q1286.6094,337.2441 1286.6094,337.8535 L1286.6094,339.3066 Q1286.6094,339.916 1286.375,340.1816 Q1286.1406,340.4473 1285.7656,340.4473 Q1285.4219,340.4473 1285.2188,340.2441 Q1285.0156,340.0566 1284.9063,339.541 Q1284.8594,339.1816 1284.6719,338.9941 Q1284.3438,338.6191 1283.7344,338.4004 Q1283.125,338.1816 1282.5,338.1816 Q1281.7344,338.1816 1281.0938,338.5098 Q1280.4688,338.8379 1279.9688,339.5879 Q1279.4844,340.3379 1279.4844,341.3691 L1279.4844,342.4629 Q1279.4844,343.6973 1280.375,344.5254 Q1281.2656,345.3379 1282.8594,345.3379 Q1283.7969,345.3379 1284.4531,345.0879 Q1284.8438,344.9316 1285.2656,344.4941 Q1285.5313,344.2285 1285.6719,344.1504 Q1285.8281,344.0723 1286.0313,344.0723 Q1286.3594,344.0723 1286.6094,344.3379 Q1286.875,344.5879 1286.875,344.9316 Q1286.875,345.2754 1286.5313,345.6816 Q1286.0313,346.2598 1285.2344,346.5879 Q1284.1563,347.041 1282.8594,347.041 Q1281.3438,347.041 1280.1406,346.416 Q1279.1563,345.916 1278.4688,344.8535 Q1277.7813,343.7754 1277.7813,342.4941 L1277.7813,341.3379 Q1277.7813,340.0098 1278.3906,338.8691 Q1279.0156,337.7129 1280.1094,337.1035 Q1281.2031,336.4785 1282.4375,336.4785 Q1283.1719,336.4785 1283.8125,336.6504 Q1284.4688,336.8066 1285.0156,337.166 Z " fill="#000000"/><text fill="#000000" font-family="sans-serif" font-size="12" font-style="italic" lengthAdjust="spacing" textLength="44" x="1400.25" y="336.9492">&#171;Entity&#187;</text><text fill="#000000" font-family="sans-serif" font-size="14" lengthAdjust="spacing" textLength="239" x="1302.75" y="355.0684">SeasonalPlotRepairAccountancyEntry</text><line style="stroke:#181818;stroke-width:0.5;" x1="1176" x2="1636" y1="363.582" y2="363.582"/><text fill="#000000" font-family="sans-serif" font-size="14" lengthAdjust="spacing" text-decoration="underline" textLength="284" x="1181" y="382.6895">-descriptions(SeasonalPlot plot): List&lt;String&gt;</text><text fill="#000000" font-family="sans-serif" font-size="14" lengthAdjust="spacing" textLength="450" x="1181" y="401.3105">+SeasonalPlotRepairAccountancyEntry(Double cost, SeasonalPlot plot)</text></g><!--class SeasonalPlotReservationAccountancyEntry--><g id="elem_SeasonalPlotReservationAccountancyEntry"><rect codeLine="37" fill="#F1F1F1" height="89.8242" id="SeasonalPlotReservationAccountancyEntry" rx="2.5" ry="2.5" style="stroke:#181818;stroke-width:0.5;" width="537" x="602.5" y="319"/><ellipse cx="730.25" cy="341.291" fill="#ADD1B2" rx="11" ry="11" style="stroke:#181818;stroke-width:1.0;"/><path d="M733.0156,337.166 Q733.1719,336.9473 733.3594,336.8379 Q733.5469,336.7285 733.7656,336.7285 Q734.1406,336.7285 734.375,336.9941 Q734.6094,337.2441 734.6094,337.8535 L734.6094,339.3066 Q734.6094,339.916 734.375,340.1816 Q734.1406,340.4473 733.7656,340.4473 Q733.4219,340.4473 733.2188,340.2441 Q733.0156,340.0566 732.9063,339.541 Q732.8594,339.1816 732.6719,338.9941 Q732.3438,338.6191 731.7344,338.4004 Q731.125,338.1816 730.5,338.1816 Q729.7344,338.1816 729.0938,338.5098 Q728.4688,338.8379 727.9688,339.5879 Q727.4844,340.3379 727.4844,341.3691 L727.4844,342.4629 Q727.4844,343.6973 728.375,344.5254 Q729.2656,345.3379 730.8594,345.3379 Q731.7969,345.3379 732.4531,345.0879 Q732.8438,344.9316 733.2656,344.4941 Q733.5313,344.2285 733.6719,344.1504 Q733.8281,344.0723 734.0313,344.0723 Q734.3594,344.0723 734.6094,344.3379 Q734.875,344.5879 734.875,344.9316 Q734.875,345.2754 734.5313,345.6816 Q734.0313,346.2598 733.2344,346.5879 Q732.1563,347.041 730.8594,347.041 Q729.3438,347.041 728.1406,346.416 Q727.1563,345.916 726.4688,344.8535 Q725.7813,343.7754 725.7813,342.4941 L725.7813,341.3379 Q725.7813,340.0098 726.3906,338.8691 Q727.0156,337.7129 728.1094,337.1035 Q729.2031,336.4785 730.4375,336.4785 Q731.1719,336.4785 731.8125,336.6504 Q732.4688,336.8066 733.0156,337.166 Z " fill="#000000"/><text fill="#000000" font-family="sans-serif" font-size="12" font-style="italic" lengthAdjust="spacing" textLength="44" x="865.25" y="336.9492">&#171;Entity&#187;</text><text fill="#000000" font-family="sans-serif" font-size="14" lengthAdjust="spacing" textLength="273" x="750.75" y="355.0684">SeasonalPlotReservationAccountancyEntry</text><line style="stroke:#181818;stroke-width:0.5;" x1="603.5" x2="1138.5" y1="363.582" y2="363.582"/><text fill="#000000" font-family="sans-serif" font-size="14" lengthAdjust="spacing" text-decoration="underline" textLength="408" x="608.5" y="382.6895">-descriptions(SeasonalPlotReservation reservation): List&lt;String&gt;</text><text fill="#000000" font-family="sans-serif" font-size="14" lengthAdjust="spacing" textLength="525" x="608.5" y="401.3105">+SeasonalPlotReservationAccountancyEntry(SeasonalPlotReservation reservation)</text></g><!--class SeasonalPlotReservationDeductionEntry--><g id="elem_SeasonalPlotReservationDeductionEntry"><rect codeLine="41" fill="#F1F1F1" height="89.8242" id="SeasonalPlotReservationDeductionEntry" rx="2.5" ry="2.5" style="stroke:#181818;stroke-width:0.5;" width="520" x="47" y="319"/><ellipse cx="174.75" cy="341.291" fill="#ADD1B2" rx="11" ry="11" style="stroke:#181818;stroke-width:1.0;"/><path d="M177.5156,337.166 Q177.6719,336.9473 177.8594,336.8379 Q178.0469,336.7285 178.2656,336.7285 Q178.6406,336.7285 178.875,336.9941 Q179.1094,337.2441 179.1094,337.8535 L179.1094,339.3066 Q179.1094,339.916 178.875,340.1816 Q178.6406,340.4473 178.2656,340.4473 Q177.9219,340.4473 177.7188,340.2441 Q177.5156,340.0566 177.4063,339.541 Q177.3594,339.1816 177.1719,338.9941 Q176.8438,338.6191 176.2344,338.4004 Q175.625,338.1816 175,338.1816 Q174.2344,338.1816 173.5938,338.5098 Q172.9688,338.8379 172.4688,339.5879 Q171.9844,340.3379 171.9844,341.3691 L171.9844,342.4629 Q171.9844,343.6973 172.875,344.5254 Q173.7656,345.3379 175.3594,345.3379 Q176.2969,345.3379 176.9531,345.0879 Q177.3438,344.9316 177.7656,344.4941 Q178.0313,344.2285 178.1719,344.1504 Q178.3281,344.0723 178.5313,344.0723 Q178.8594,344.0723 179.1094,344.3379 Q179.375,344.5879 179.375,344.9316 Q179.375,345.2754 179.0313,345.6816 Q178.5313,346.2598 177.7344,346.5879 Q176.6563,347.041 175.3594,347.041 Q173.8438,347.041 172.6406,346.416 Q171.6563,345.916 170.9688,344.8535 Q170.2813,343.7754 170.2813,342.4941 L170.2813,341.3379 Q170.2813,340.0098 170.8906,338.8691 Q171.5156,337.7129 172.6094,337.1035 Q173.7031,336.4785 174.9375,336.4785 Q175.6719,336.4785 176.3125,336.6504 Q176.9688,336.8066 177.5156,337.166 Z " fill="#000000"/><text fill="#000000" font-family="sans-serif" font-size="12" font-style="italic" lengthAdjust="spacing" textLength="44" x="301.25" y="336.9492">&#171;Entity&#187;</text><text fill="#000000" font-family="sans-serif" font-size="14" lengthAdjust="spacing" textLength="256" x="195.25" y="355.0684">SeasonalPlotReservationDeductionEntry</text><line style="stroke:#181818;stroke-width:0.5;" x1="48" x2="566" y1="363.582" y2="363.582"/><text fill="#000000" font-family="sans-serif" font-size="14" lengthAdjust="spacing" text-decoration="underline" textLength="408" x="53" y="382.6895">-descriptions(SeasonalPlotReservation reservation): List&lt;String&gt;</text><text fill="#000000" font-family="sans-serif" font-size="14" lengthAdjust="spacing" textLength="508" x="53" y="401.3105">+SeasonalPlotReservationDeductionEntry(SeasonalPlotReservation reservation)</text></g><!--class SportsItemAccountancyEntry--><g id="elem_SportsItemAccountancyEntry"><rect codeLine="45" fill="#F1F1F1" height="89.8242" id="SportsItemAccountancyEntry" rx="2.5" ry="2.5" style="stroke:#181818;stroke-width:0.5;" width="422" x="1294" y="473"/><ellipse cx="1410.25" cy="495.291" fill="#ADD1B2" rx="11" ry="11" style="stroke:#181818;stroke-width:1.0;"/><path d="M1413.0156,491.166 Q1413.1719,490.9473 1413.3594,490.8379 Q1413.5469,490.7285 1413.7656,490.7285 Q1414.1406,490.7285 1414.375,490.9941 Q1414.6094,491.2441 1414.6094,491.8535 L1414.6094,493.3066 Q1414.6094,493.916 1414.375,494.1816 Q1414.1406,494.4473 1413.7656,494.4473 Q1413.4219,494.4473 1413.2188,494.2441 Q1413.0156,494.0566 1412.9063,493.541 Q1412.8594,493.1816 1412.6719,492.9941 Q1412.3438,492.6191 1411.7344,492.4004 Q1411.125,492.1816 1410.5,492.1816 Q1409.7344,492.1816 1409.0938,492.5098 Q1408.4688,492.8379 1407.9688,493.5879 Q1407.4844,494.3379 1407.4844,495.3691 L1407.4844,496.4629 Q1407.4844,497.6973 1408.375,498.5254 Q1409.2656,499.3379 1410.8594,499.3379 Q1411.7969,499.3379 1412.4531,499.0879 Q1412.8438,498.9316 1413.2656,498.4941 Q1413.5313,498.2285 1413.6719,498.1504 Q1413.8281,498.0723 1414.0313,498.0723 Q1414.3594,498.0723 1414.6094,498.3379 Q1414.875,498.5879 1414.875,498.9316 Q1414.875,499.2754 1414.5313,499.6816 Q1414.0313,500.2598 1413.2344,500.5879 Q1412.1563,501.041 1410.8594,501.041 Q1409.3438,501.041 1408.1406,500.416 Q1407.1563,499.916 1406.4688,498.8535 Q1405.7813,497.7754 1405.7813,496.4941 L1405.7813,495.3379 Q1405.7813,494.0098 1406.3906,492.8691 Q1407.0156,491.7129 1408.1094,491.1035 Q1409.2031,490.4785 1410.4375,490.4785 Q1411.1719,490.4785 1411.8125,490.6504 Q1412.4688,490.8066 1413.0156,491.166 Z " fill="#000000"/><text fill="#000000" font-family="sans-serif" font-size="12" font-style="italic" lengthAdjust="spacing" textLength="44" x="1499.25" y="490.9492">&#171;Entity&#187;</text><text fill="#000000" font-family="sans-serif" font-size="14" lengthAdjust="spacing" textLength="181" x="1430.75" y="509.0684">SportsItemAccountancyEntry</text><line style="stroke:#181818;stroke-width:0.5;" x1="1295" x2="1715" y1="517.582" y2="517.582"/><text fill="#000000" font-family="sans-serif" font-size="14" lengthAdjust="spacing" text-decoration="underline" textLength="385" x="1300" y="536.6895">-descriptions(SportItemReservation reservation): List&lt;String&gt;</text><text fill="#000000" font-family="sans-serif" font-size="14" lengthAdjust="spacing" textLength="410" x="1300" y="555.3105">+SportsItemAccountancyEntry(SportItemReservation reservation)</text></g><!--class SportsItemDeductionEntry--><g id="elem_SportsItemDeductionEntry"><rect codeLine="49" fill="#F1F1F1" height="89.8242" id="SportsItemDeductionEntry" rx="2.5" ry="2.5" style="stroke:#181818;stroke-width:0.5;" width="405" x="1751.5" y="473"/><ellipse cx="1867.75" cy="495.291" fill="#ADD1B2" rx="11" ry="11" style="stroke:#181818;stroke-width:1.0;"/><path d="M1870.5156,491.166 Q1870.6719,490.9473 1870.8594,490.8379 Q1871.0469,490.7285 1871.2656,490.7285 Q1871.6406,490.7285 1871.875,490.9941 Q1872.1094,491.2441 1872.1094,491.8535 L1872.1094,493.3066 Q1872.1094,493.916 1871.875,494.1816 Q1871.6406,494.4473 1871.2656,494.4473 Q1870.9219,494.4473 1870.7188,494.2441 Q1870.5156,494.0566 1870.4063,493.541 Q1870.3594,493.1816 1870.1719,492.9941 Q1869.8438,492.6191 1869.2344,492.4004 Q1868.625,492.1816 1868,492.1816 Q1867.2344,492.1816 1866.5938,492.5098 Q1865.9688,492.8379 1865.4688,493.5879 Q1864.9844,494.3379 1864.9844,495.3691 L1864.9844,496.4629 Q1864.9844,497.6973 1865.875,498.5254 Q1866.7656,499.3379 1868.3594,499.3379 Q1869.2969,499.3379 1869.9531,499.0879 Q1870.3438,498.9316 1870.7656,498.4941 Q1871.0313,498.2285 1871.1719,498.1504 Q1871.3281,498.0723 1871.5313,498.0723 Q1871.8594,498.0723 1872.1094,498.3379 Q1872.375,498.5879 1872.375,498.9316 Q1872.375,499.2754 1872.0313,499.6816 Q1871.5313,500.2598 1870.7344,500.5879 Q1869.6563,501.041 1868.3594,501.041 Q1866.8438,501.041 1865.6406,500.416 Q1864.6563,499.916 1863.9688,498.8535 Q1863.2813,497.7754 1863.2813,496.4941 L1863.2813,495.3379 Q1863.2813,494.0098 1863.8906,492.8691 Q1864.5156,491.7129 1865.6094,491.1035 Q1866.7031,490.4785 1867.9375,490.4785 Q1868.6719,490.4785 1869.3125,490.6504 Q1869.9688,490.8066 1870.5156,491.166 Z " fill="#000000"/><text fill="#000000" font-family="sans-serif" font-size="12" font-style="italic" lengthAdjust="spacing" textLength="44" x="1948.25" y="490.9492">&#171;Entity&#187;</text><text fill="#000000" font-family="sans-serif" font-size="14" lengthAdjust="spacing" textLength="164" x="1888.25" y="509.0684">SportsItemDeductionEntry</text><line style="stroke:#181818;stroke-width:0.5;" x1="1752.5" x2="2155.5" y1="517.582" y2="517.582"/><text fill="#000000" font-family="sans-serif" font-size="14" lengthAdjust="spacing" text-decoration="underline" textLength="385" x="1757.5" y="536.6895">-descriptions(SportItemReservation reservation): List&lt;String&gt;</text><text fill="#000000" font-family="sans-serif" font-size="14" lengthAdjust="spacing" textLength="393" x="1757.5" y="555.3105">+SportsItemDeductionEntry(SportItemReservation reservation)</text></g><!--link AccountancyDashboardController to AccountancyEntry--><g id="link_AccountancyDashboardController_AccountancyEntry"><path codeLine="56" d="M2184.28,147 C2284.93,147 2385,147 2385,147 C2385,147 2385,291.22 2385,341.69 " fill="none" id="AccountancyDashboardController-to-AccountancyEntry" style="stroke:#181818;stroke-width:1.0;stroke-dasharray:7.0,7.0;"/><polygon fill="#181818" points="2385,347.69,2389,338.69,2385,342.69,2381,338.69,2385,347.69" style="stroke:#181818;stroke-width:1.0;"/><text fill="#000000" font-family="sans-serif" font-size="13" lengthAdjust="spacing" textLength="35" x="2348.98" y="143.0283">&#171;use&#187;</text></g><!--link ExtendedAccountancyEntry to AccountancyEntry--><g id="link_ExtendedAccountancyEntry_AccountancyEntry"><path codeLine="58" d="M2183.56,364 C2230.52,364 2257.94,364 2293.73,364 " fill="none" id="ExtendedAccountancyEntry-to-AccountancyEntry" style="stroke:#181818;stroke-width:1.0;"/><polygon fill="none" points="2311.73,364,2293.73,358,2293.73,370,2311.73,364" style="stroke:#181818;stroke-width:1.0;"/></g><!--link PlotRepairAccountancyEntry to ExtendedAccountancyEntry--><g id="link_PlotRepairAccountancyEntry_ExtendedAccountancyEntry"><path codeLine="59" d="M1729.58,192.23 C1729.58,228 1729.58,259.88 1729.58,296.67 " fill="none" id="PlotRepairAccountancyEntry-to-ExtendedAccountancyEntry" style="stroke:#181818;stroke-width:1.0;"/><polygon fill="none" points="1729.58,314.67,1735.58,296.67,1723.58,296.67,1729.58,314.67" style="stroke:#181818;stroke-width:1.0;"/></g><!--link PlotReservationAccountancyEntry to ExtendedAccountancyEntry--><g id="link_PlotReservationAccountancyEntry_ExtendedAccountancyEntry"><path codeLine="60" d="M1268.25,192.02 C1268.25,195.09 1268.25,197 1268.25,197 C1268.25,197 1718.17,197 1718.17,197 C1718.17,197 1718.17,247.54 1718.17,296.8 " fill="none" id="PlotReservationAccountancyEntry-to-ExtendedAccountancyEntry" style="stroke:#181818;stroke-width:1.0;"/><polygon fill="none" points="1718.17,314.8,1724.17,296.8,1712.17,296.8,1718.17,314.8" style="stroke:#181818;stroke-width:1.0;"/></g><!--link PlotReservationDeductionEntry to ExtendedAccountancyEntry--><g id="link_PlotReservationDeductionEntry_ExtendedAccountancyEntry"><path codeLine="61" d="M754.75,192.08 C754.75,197.41 754.75,201 754.75,201 C754.75,201 1706.75,201 1706.75,201 C1706.75,201 1706.75,248.68 1706.75,296.65 " fill="none" id="PlotReservationDeductionEntry-to-ExtendedAccountancyEntry" style="stroke:#181818;stroke-width:1.0;"/><polygon fill="none" points="1706.75,314.65,1712.75,296.65,1700.75,296.65,1706.75,314.65" style="stroke:#181818;stroke-width:1.0;"/></g><!--link SeasonalPlotRepairAccountancyEntry to ExtendedAccountancyEntry--><g id="link_SeasonalPlotRepairAccountancyEntry_ExtendedAccountancyEntry"><path codeLine="62" d="M1637.24,364 C1648.83,364 1642.5,364 1654.15,364 " fill="none" id="SeasonalPlotRepairAccountancyEntry-to-ExtendedAccountancyEntry" style="stroke:#181818;stroke-width:1.0;"/><polygon fill="none" points="1672.15,364,1654.15,358,1654.15,370,1672.15,364" style="stroke:#181818;stroke-width:1.0;"/></g><!--link SeasonalPlotReservationAccountancyEntry to ExtendedAccountancyEntry--><g id="link_SeasonalPlotReservationAccountancyEntry_ExtendedAccountancyEntry"><path codeLine="63" d="M1041,318.51 C1041,298.3 1041,279 1041,279 C1041,279 1683.92,279 1683.92,279 C1683.92,279 1683.92,277.86 1683.92,296.56 " fill="none" id="SeasonalPlotReservationAccountancyEntry-to-ExtendedAccountancyEntry" style="stroke:#181818;stroke-width:1.0;"/><polygon fill="none" points="1683.92,314.56,1689.92,296.56,1677.92,296.56,1683.92,314.56" style="stroke:#181818;stroke-width:1.0;"/></g><!--link SeasonalPlotReservationDeductionEntry to ExtendedAccountancyEntry--><g id="link_SeasonalPlotReservationDeductionEntry_ExtendedAccountancyEntry"><path codeLine="64" d="M536,318.92 C536,284.17 536,242 536,242 C536,242 1695.33,242 1695.33,242 C1695.33,242 1695.33,262.87 1695.33,296.73 " fill="none" id="SeasonalPlotReservationDeductionEntry-to-ExtendedAccountancyEntry" style="stroke:#181818;stroke-width:1.0;"/><polygon fill="none" points="1695.33,314.73,1701.33,296.73,1689.33,296.73,1695.33,314.73" style="stroke:#181818;stroke-width:1.0;"/></g><!--reverse link ExtendedAccountancyEntry to SportsItemAccountancyEntry--><g id="link_ExtendedAccountancyEntry_SportsItemAccountancyEntry"><path codeLine="65" d="M1694.25,431.15 C1694.25,450.34 1694.25,454.2 1694.25,472.97 " fill="none" id="ExtendedAccountancyEntry-backto-SportsItemAccountancyEntry" style="stroke:#181818;stroke-width:1.0;"/><polygon fill="none" points="1694.25,413.15,1688.25,431.15,1700.25,431.15,1694.25,413.15" style="stroke:#181818;stroke-width:1.0;"/></g><!--reverse link ExtendedAccountancyEntry to SportsItemDeductionEntry--><g id="link_ExtendedAccountancyEntry_SportsItemDeductionEntry"><path codeLine="66" d="M1954,431.15 C1954,450.34 1954,454.2 1954,472.97 " fill="none" id="ExtendedAccountancyEntry-backto-SportsItemDeductionEntry" style="stroke:#181818;stroke-width:1.0;"/><polygon fill="none" points="1954,413.15,1948,431.15,1960,431.15,1954,413.15" style="stroke:#181818;stroke-width:1.0;"/></g><!--SRC=[lPLTRzem58Rl_IiixGP4GRr6A18hLAhKITFu1SOv1Gl7jcodRShwttUyiSQaTJxeD84IV-HzpdkEdNWlSg1G65_H1m4oTsHVZnJWzng7t44emomhA9VCkQNtLcnB3tTSguru0NeTFIA50byPeDgYEfhuolXXPtMfyXijjQLVRjVXHvYK-gaGpqBjegSDFirsiF6L17gB8q38x-Z8tSqSa-2C5ie_XAadRGypnZd2FLEycYthzbfvMn5oub7E2eEHZ6J-vQy4-ySJF1AkcDjlDRDe5n5QIh1qiQWxMNOaaoZeF1QJIJjf54tJ239-GrRO6ttJEKXQXEjuJZTOTopIwydh-jc3oY5l9eikyIvy5HnESt3S2kE5LcvExuNpYp-SZ4nI18oBYyXijIp2E7raieIhCp6DkUCtJz-bzZ_0C67RNHsTPrxmrvWo2c9gy39k6arZHojTRd6BSEty5Qq93KSEx2CBKIwq5H6ehTi9eybehQoKvHNa9G-D_s3uF5O_knjWJYicFxNsCUJZFT0Tvdmll2Sc77zcRoH8hINl6RqNkokbmNld7oRKs4l3qZ5uVBWx3yKbYnB4GTixWMIqRjO7beSN_NB3pIBti1l-7UVSR9RHPYdcc4Zf8Ci8IPuyqv_lTQJbkp3DWoA58rtlvp1vOrawn3s-QbCxWD2InKMOPZOTaFJxD2rxAfiHstM_0000]--></g></svg>