<?xml version="1.0" encoding="us-ascii" standalone="no"?><svg xmlns="http://www.w3.org/2000/svg" xmlns:xlink="http://www.w3.org/1999/xlink" contentStyleType="text/css" height="929px" preserveAspectRatio="none" style="width:3313px;height:929px;background:#FEFEFE;" version="1.1" viewBox="0 0 3313 929" width="3313px" zoomAndPan="magnify"><defs/><g><rect fill="#FEFEFE" height="929" style="stroke:none;stroke-width:1.0;" width="3313" x="0" y="0"/><!--cluster campingplatz--><g id="cluster_campingplatz"><rect fill="none" height="916.5" rx="2.5" ry="2.5" style="stroke:#000000;stroke-width:1.5;" width="2752" x="7" y="7"/><path d="M109,7 L109,18.6211 L99,28.6211 L7,28.6211 " fill="none" style="stroke:#000000;stroke-width:1.5;"/><text fill="#000000" font-family="sans-serif" font-size="14" font-weight="bold" lengthAdjust="spacing" textLength="92" x="10" y="23.1074">campingplatz</text></g><!--cluster utils--><g id="cluster_utils"><rect fill="none" height="85" rx="2.5" ry="2.5" style="stroke:#000000;stroke-width:1.5;" width="166" x="2553" y="338"/><path d="M2593,338 L2593,349.6211 L2583,359.6211 L2553,359.6211 " fill="none" style="stroke:#000000;stroke-width:1.5;"/><text fill="#000000" font-family="sans-serif" font-size="14" font-weight="bold" lengthAdjust="spacing" textLength="30" x="2556" y="354.1074">utils</text></g><!--cluster reservation--><g id="cluster_reservation"><rect fill="none" height="345.5" rx="2.5" ry="2.5" style="stroke:#000000;stroke-width:1.5;" width="807" x="1722" y="338"/><path d="M1814,338 L1814,349.6211 L1804,359.6211 L1722,359.6211 " fill="none" style="stroke:#000000;stroke-width:1.5;"/><text fill="#000000" font-family="sans-serif" font-size="14" font-weight="bold" lengthAdjust="spacing" textLength="82" x="1725" y="354.1074">reservation</text></g><!--cluster equip--><g id="cluster_equip"><rect fill="none" height="831.5" rx="2.5" ry="2.5" style="stroke:#000000;stroke-width:1.5;" width="1659" x="39" y="60"/><path d="M89,60 L89,71.6211 L79,81.6211 L39,81.6211 " fill="none" style="stroke:#000000;stroke-width:1.5;"/><text fill="#000000" font-family="sans-serif" font-size="14" font-weight="bold" lengthAdjust="spacing" textLength="40" x="42" y="76.1074">equip</text></g><!--cluster sportItemReservations--><g id="cluster_sportItemReservations"><rect fill="none" height="347" rx="2.5" ry="2.5" style="stroke:#000000;stroke-width:1.5;" width="806" x="63" y="105"/><path d="M234,105 L234,116.6211 L224,126.6211 L63,126.6211 " fill="none" style="stroke:#000000;stroke-width:1.5;"/><text fill="#000000" font-family="sans-serif" font-size="14" font-weight="bold" lengthAdjust="spacing" textLength="161" x="66" y="121.1074">sportItemReservations</text></g><!--cluster org--><g id="cluster_org"><rect fill="none" height="239" rx="2.5" ry="2.5" style="stroke:#000000;stroke-width:1.5;" width="508" x="2799" y="240"/><path d="M2833,240 L2833,251.6211 L2823,261.6211 L2799,261.6211 " fill="none" style="stroke:#000000;stroke-width:1.5;"/><text fill="#000000" font-family="sans-serif" font-size="14" font-weight="bold" lengthAdjust="spacing" textLength="24" x="2802" y="256.1074">org</text></g><!--cluster salespointframework--><g id="cluster_salespointframework"><rect fill="none" height="154" rx="2.5" ry="2.5" style="stroke:#000000;stroke-width:1.5;" width="436" x="2831" y="293"/><path d="M2988,293 L2988,304.6211 L2978,314.6211 L2831,314.6211 " fill="none" style="stroke:#000000;stroke-width:1.5;"/><text fill="#000000" font-family="sans-serif" font-size="14" font-weight="bold" lengthAdjust="spacing" textLength="147" x="2834" y="309.1074">salespointframework</text></g><!--cluster catalog--><g id="cluster_catalog"><rect fill="none" height="85" rx="2.5" ry="2.5" style="stroke:#000000;stroke-width:1.5;" width="216" x="3027" y="338"/><path d="M3088,338 L3088,349.6211 L3078,359.6211 L3027,359.6211 " fill="none" style="stroke:#000000;stroke-width:1.5;"/><text fill="#000000" font-family="sans-serif" font-size="14" font-weight="bold" lengthAdjust="spacing" textLength="51" x="3030" y="354.1074">catalog</text></g><!--cluster core--><g id="cluster_core"><rect fill="none" height="85" rx="2.5" ry="2.5" style="stroke:#000000;stroke-width:1.5;" width="148" x="2855" y="338"/><path d="M2897,338 L2897,349.6211 L2887,359.6211 L2855,359.6211 " fill="none" style="stroke:#000000;stroke-width:1.5;"/><text fill="#000000" font-family="sans-serif" font-size="14" font-weight="bold" lengthAdjust="spacing" textLength="32" x="2858" y="354.1074">core</text></g><!--class DetailedProduct--><g id="elem_DetailedProduct"><rect codeLine="9" fill="#F1F1F1" height="32" id="DetailedProduct" rx="2.5" ry="2.5" style="stroke:#181818;stroke-width:0.5;" width="133" x="2569.5" y="375"/><ellipse cx="2584.5" cy="391" fill="#ADD1B2" rx="11" ry="11" style="stroke:#181818;stroke-width:1.0;"/><path d="M2587.2656,386.875 Q2587.4219,386.6563 2587.6094,386.5469 Q2587.7969,386.4375 2588.0156,386.4375 Q2588.3906,386.4375 2588.625,386.7031 Q2588.8594,386.9531 2588.8594,387.5625 L2588.8594,389.0156 Q2588.8594,389.625 2588.625,389.8906 Q2588.3906,390.1563 2588.0156,390.1563 Q2587.6719,390.1563 2587.4688,389.9531 Q2587.2656,389.7656 2587.1563,389.25 Q2587.1094,388.8906 2586.9219,388.7031 Q2586.5938,388.3281 2585.9844,388.1094 Q2585.375,387.8906 2584.75,387.8906 Q2583.9844,387.8906 2583.3438,388.2188 Q2582.7188,388.5469 2582.2188,389.2969 Q2581.7344,390.0469 2581.7344,391.0781 L2581.7344,392.1719 Q2581.7344,393.4063 2582.625,394.2344 Q2583.5156,395.0469 2585.1094,395.0469 Q2586.0469,395.0469 2586.7031,394.7969 Q2587.0938,394.6406 2587.5156,394.2031 Q2587.7813,393.9375 2587.9219,393.8594 Q2588.0781,393.7813 2588.2813,393.7813 Q2588.6094,393.7813 2588.8594,394.0469 Q2589.125,394.2969 2589.125,394.6406 Q2589.125,394.9844 2588.7813,395.3906 Q2588.2813,395.9688 2587.4844,396.2969 Q2586.4063,396.75 2585.1094,396.75 Q2583.5938,396.75 2582.3906,396.125 Q2581.4063,395.625 2580.7188,394.5625 Q2580.0313,393.4844 2580.0313,392.2031 L2580.0313,391.0469 Q2580.0313,389.7188 2580.6406,388.5781 Q2581.2656,387.4219 2582.3594,386.8125 Q2583.4531,386.1875 2584.6875,386.1875 Q2585.4219,386.1875 2586.0625,386.3594 Q2586.7188,386.5156 2587.2656,386.875 Z " fill="#000000"/><text fill="#000000" font-family="sans-serif" font-size="14" lengthAdjust="spacing" textLength="101" x="2598.5" y="396.7969">DetailedProduct</text></g><!--class Cart--><g id="elem_Cart"><rect codeLine="10" fill="#F1F1F1" height="32" id="Cart" rx="2.5" ry="2.5" style="stroke:#181818;stroke-width:0.5;" width="312" x="1738" y="375"/><ellipse cx="1753" cy="391" fill="#ADD1B2" rx="11" ry="11" style="stroke:#181818;stroke-width:1.0;"/><path d="M1755.7656,386.875 Q1755.9219,386.6563 1756.1094,386.5469 Q1756.2969,386.4375 1756.5156,386.4375 Q1756.8906,386.4375 1757.125,386.7031 Q1757.3594,386.9531 1757.3594,387.5625 L1757.3594,389.0156 Q1757.3594,389.625 1757.125,389.8906 Q1756.8906,390.1563 1756.5156,390.1563 Q1756.1719,390.1563 1755.9688,389.9531 Q1755.7656,389.7656 1755.6563,389.25 Q1755.6094,388.8906 1755.4219,388.7031 Q1755.0938,388.3281 1754.4844,388.1094 Q1753.875,387.8906 1753.25,387.8906 Q1752.4844,387.8906 1751.8438,388.2188 Q1751.2188,388.5469 1750.7188,389.2969 Q1750.2344,390.0469 1750.2344,391.0781 L1750.2344,392.1719 Q1750.2344,393.4063 1751.125,394.2344 Q1752.0156,395.0469 1753.6094,395.0469 Q1754.5469,395.0469 1755.2031,394.7969 Q1755.5938,394.6406 1756.0156,394.2031 Q1756.2813,393.9375 1756.4219,393.8594 Q1756.5781,393.7813 1756.7813,393.7813 Q1757.1094,393.7813 1757.3594,394.0469 Q1757.625,394.2969 1757.625,394.6406 Q1757.625,394.9844 1757.2813,395.3906 Q1756.7813,395.9688 1755.9844,396.2969 Q1754.9063,396.75 1753.6094,396.75 Q1752.0938,396.75 1750.8906,396.125 Q1749.9063,395.625 1749.2188,394.5625 Q1748.5313,393.4844 1748.5313,392.2031 L1748.5313,391.0469 Q1748.5313,389.7188 1749.1406,388.5781 Q1749.7656,387.4219 1750.8594,386.8125 Q1751.9531,386.1875 1753.1875,386.1875 Q1753.9219,386.1875 1754.5625,386.3594 Q1755.2188,386.5156 1755.7656,386.875 Z " fill="#000000"/><text fill="#000000" font-family="sans-serif" font-size="14" lengthAdjust="spacing" textLength="27" x="1767" y="396.7969">Cart</text><rect fill="#FEFEFE" height="17.9609" style="stroke:#181818;stroke-width:1.0;stroke-dasharray:2.0,2.0;" width="251" x="1802" y="372"/><text fill="#000000" font-family="sans-serif" font-size="12" font-style="italic" lengthAdjust="spacing" textLength="249" x="1803" y="385.9492">T extends Product, U extends Reservation&lt;T&gt;</text></g><!--class Reservation--><g id="elem_Reservation"><rect codeLine="11" fill="#F1F1F1" height="32" id="Reservation" rx="2.5" ry="2.5" style="stroke:#181818;stroke-width:0.5;" width="210" x="1789" y="635.5"/><ellipse cx="1804" cy="651.5" fill="#ADD1B2" rx="11" ry="11" style="stroke:#181818;stroke-width:1.0;"/><path d="M1806.7656,647.375 Q1806.9219,647.1563 1807.1094,647.0469 Q1807.2969,646.9375 1807.5156,646.9375 Q1807.8906,646.9375 1808.125,647.2031 Q1808.3594,647.4531 1808.3594,648.0625 L1808.3594,649.5156 Q1808.3594,650.125 1808.125,650.3906 Q1807.8906,650.6563 1807.5156,650.6563 Q1807.1719,650.6563 1806.9688,650.4531 Q1806.7656,650.2656 1806.6563,649.75 Q1806.6094,649.3906 1806.4219,649.2031 Q1806.0938,648.8281 1805.4844,648.6094 Q1804.875,648.3906 1804.25,648.3906 Q1803.4844,648.3906 1802.8438,648.7188 Q1802.2188,649.0469 1801.7188,649.7969 Q1801.2344,650.5469 1801.2344,651.5781 L1801.2344,652.6719 Q1801.2344,653.9063 1802.125,654.7344 Q1803.0156,655.5469 1804.6094,655.5469 Q1805.5469,655.5469 1806.2031,655.2969 Q1806.5938,655.1406 1807.0156,654.7031 Q1807.2813,654.4375 1807.4219,654.3594 Q1807.5781,654.2813 1807.7813,654.2813 Q1808.1094,654.2813 1808.3594,654.5469 Q1808.625,654.7969 1808.625,655.1406 Q1808.625,655.4844 1808.2813,655.8906 Q1807.7813,656.4688 1806.9844,656.7969 Q1805.9063,657.25 1804.6094,657.25 Q1803.0938,657.25 1801.8906,656.625 Q1800.9063,656.125 1800.2188,655.0625 Q1799.5313,653.9844 1799.5313,652.7031 L1799.5313,651.5469 Q1799.5313,650.2188 1800.1406,649.0781 Q1800.7656,647.9219 1801.8594,647.3125 Q1802.9531,646.6875 1804.1875,646.6875 Q1804.9219,646.6875 1805.5625,646.8594 Q1806.2188,647.0156 1806.7656,647.375 Z " fill="#000000"/><text fill="#000000" font-family="sans-serif" font-size="14" lengthAdjust="spacing" textLength="76" x="1818" y="657.2969">Reservation</text><rect fill="#FEFEFE" height="17.9609" style="stroke:#181818;stroke-width:1.0;stroke-dasharray:2.0,2.0;" width="100" x="1902" y="632.5"/><text fill="#000000" font-family="sans-serif" font-size="12" font-style="italic" lengthAdjust="spacing" textLength="98" x="1903" y="646.4492">T extends Product</text></g><!--class ReservationRepository--><g id="elem_ReservationRepository"><rect codeLine="12" fill="#F1F1F1" height="32" id="ReservationRepository" rx="2.5" ry="2.5" style="stroke:#181818;stroke-width:0.5;" width="428" x="2085" y="375"/><ellipse cx="2100" cy="391" fill="#B4A7E5" rx="11" ry="11" style="stroke:#181818;stroke-width:1.0;"/><path d="M2100.9531,387.6406 L2100.9531,394.2969 L2102.6719,394.2969 Q2103.2813,394.2969 2103.5469,394.5313 Q2103.8125,394.7656 2103.8125,395.1563 Q2103.8125,395.5313 2103.5469,395.7656 Q2103.2813,396 2102.6719,396 L2097.5313,396 Q2096.9219,396 2096.6563,395.7656 Q2096.3906,395.5313 2096.3906,395.1406 Q2096.3906,394.7656 2096.6563,394.5313 Q2096.9219,394.2969 2097.5313,394.2969 L2099.25,394.2969 L2099.25,387.6406 L2097.5313,387.6406 Q2096.9219,387.6406 2096.6563,387.4063 Q2096.3906,387.1719 2096.3906,386.7813 Q2096.3906,386.4063 2096.6563,386.1719 Q2096.9219,385.9375 2097.5313,385.9375 L2102.6719,385.9375 Q2103.2813,385.9375 2103.5469,386.1719 Q2103.8125,386.4063 2103.8125,386.7813 Q2103.8125,387.1719 2103.5469,387.4063 Q2103.2813,387.6406 2102.6719,387.6406 L2100.9531,387.6406 Z " fill="#000000"/><text fill="#000000" font-family="sans-serif" font-size="14" font-style="italic" lengthAdjust="spacing" textLength="143" x="2114" y="396.7969">ReservationRepository</text><rect fill="#FEFEFE" height="17.9609" style="stroke:#181818;stroke-width:1.0;stroke-dasharray:2.0,2.0;" width="251" x="2265" y="372"/><text fill="#000000" font-family="sans-serif" font-size="12" font-style="italic" lengthAdjust="spacing" textLength="249" x="2266" y="385.9492">T extends Product, U extends Reservation&lt;T&gt;</text></g><!--class SportItem--><g id="elem_SportItem"><rect codeLine="31" fill="#F1F1F1" height="190.9297" id="SportItem" rx="2.5" ry="2.5" style="stroke:#181818;stroke-width:0.5;" width="793" x="888.5" y="295.5"/><ellipse cx="1250.75" cy="317.791" fill="#ADD1B2" rx="11" ry="11" style="stroke:#181818;stroke-width:1.0;"/><path d="M1253.5156,313.666 Q1253.6719,313.4473 1253.8594,313.3379 Q1254.0469,313.2285 1254.2656,313.2285 Q1254.6406,313.2285 1254.875,313.4941 Q1255.1094,313.7441 1255.1094,314.3535 L1255.1094,315.8066 Q1255.1094,316.416 1254.875,316.6816 Q1254.6406,316.9473 1254.2656,316.9473 Q1253.9219,316.9473 1253.7188,316.7441 Q1253.5156,316.5566 1253.4063,316.041 Q1253.3594,315.6816 1253.1719,315.4941 Q1252.8438,315.1191 1252.2344,314.9004 Q1251.625,314.6816 1251,314.6816 Q1250.2344,314.6816 1249.5938,315.0098 Q1248.9688,315.3379 1248.4688,316.0879 Q1247.9844,316.8379 1247.9844,317.8691 L1247.9844,318.9629 Q1247.9844,320.1973 1248.875,321.0254 Q1249.7656,321.8379 1251.3594,321.8379 Q1252.2969,321.8379 1252.9531,321.5879 Q1253.3438,321.4316 1253.7656,320.9941 Q1254.0313,320.7285 1254.1719,320.6504 Q1254.3281,320.5723 1254.5313,320.5723 Q1254.8594,320.5723 1255.1094,320.8379 Q1255.375,321.0879 1255.375,321.4316 Q1255.375,321.7754 1255.0313,322.1816 Q1254.5313,322.7598 1253.7344,323.0879 Q1252.6563,323.541 1251.3594,323.541 Q1249.8438,323.541 1248.6406,322.916 Q1247.6563,322.416 1246.9688,321.3535 Q1246.2813,320.2754 1246.2813,318.9941 L1246.2813,317.8379 Q1246.2813,316.5098 1246.8906,315.3691 Q1247.5156,314.2129 1248.6094,313.6035 Q1249.7031,312.9785 1250.9375,312.9785 Q1251.6719,312.9785 1252.3125,313.1504 Q1252.9688,313.3066 1253.5156,313.666 Z " fill="#000000"/><text fill="#000000" font-family="sans-serif" font-size="12" font-style="italic" lengthAdjust="spacing" textLength="44" x="1279.25" y="313.4492">&#171;Entity&#187;</text><text fill="#000000" font-family="sans-serif" font-size="14" lengthAdjust="spacing" textLength="60" x="1271.25" y="331.5684">SportItem</text><line style="stroke:#181818;stroke-width:0.5;" x1="889.5" x2="1680.5" y1="340.082" y2="340.082"/><text fill="#000000" font-family="sans-serif" font-size="14" lengthAdjust="spacing" textLength="75" x="894.5" y="359.1895">-amount: int</text><text fill="#000000" font-family="sans-serif" font-size="14" lengthAdjust="spacing" textLength="101" x="894.5" y="377.8105">-deposit: Money</text><line style="stroke:#181818;stroke-width:0.5;" x1="889.5" x2="1680.5" y1="385.3242" y2="385.3242"/><text fill="#000000" font-family="sans-serif" font-size="14" lengthAdjust="spacing" textLength="781" x="894.5" y="404.4316">+SportItem(String name, Money rentalFee, Money deposit, String category, int amount, String imagePath, String description)</text><text fill="#000000" font-family="sans-serif" font-size="14" lengthAdjust="spacing" textLength="109" x="894.5" y="423.0527">+getAmount(): int</text><text fill="#000000" font-family="sans-serif" font-size="14" lengthAdjust="spacing" textLength="172" x="894.5" y="441.6738">+setAmount(int value): void</text><text fill="#000000" font-family="sans-serif" font-size="14" lengthAdjust="spacing" textLength="136" x="894.5" y="460.2949">+getDeposit(): Money</text><text fill="#000000" font-family="sans-serif" font-size="14" lengthAdjust="spacing" textLength="199" x="894.5" y="478.916">+setDeposit(Money value): void</text></g><!--class SportItemCatalog--><g id="elem_SportItemCatalog"><rect codeLine="40" fill="#F1F1F1" height="58.6211" id="SportItemCatalog" rx="2.5" ry="2.5" style="stroke:#181818;stroke-width:0.5;" width="388" x="1189" y="816.5"/><ellipse cx="1323.75" cy="832.5" fill="#B4A7E5" rx="11" ry="11" style="stroke:#181818;stroke-width:1.0;"/><path d="M1324.7031,829.1406 L1324.7031,835.7969 L1326.4219,835.7969 Q1327.0313,835.7969 1327.2969,836.0313 Q1327.5625,836.2656 1327.5625,836.6563 Q1327.5625,837.0313 1327.2969,837.2656 Q1327.0313,837.5 1326.4219,837.5 L1321.2813,837.5 Q1320.6719,837.5 1320.4063,837.2656 Q1320.1406,837.0313 1320.1406,836.6406 Q1320.1406,836.2656 1320.4063,836.0313 Q1320.6719,835.7969 1321.2813,835.7969 L1323,835.7969 L1323,829.1406 L1321.2813,829.1406 Q1320.6719,829.1406 1320.4063,828.9063 Q1320.1406,828.6719 1320.1406,828.2813 Q1320.1406,827.9063 1320.4063,827.6719 Q1320.6719,827.4375 1321.2813,827.4375 L1326.4219,827.4375 Q1327.0313,827.4375 1327.2969,827.6719 Q1327.5625,827.9063 1327.5625,828.2813 Q1327.5625,828.6719 1327.2969,828.9063 Q1327.0313,829.1406 1326.4219,829.1406 L1324.7031,829.1406 Z " fill="#000000"/><text fill="#000000" font-family="sans-serif" font-size="14" font-style="italic" lengthAdjust="spacing" textLength="110" x="1344.25" y="838.2969">SportItemCatalog</text><line style="stroke:#181818;stroke-width:0.5;" x1="1190" x2="1576" y1="848.5" y2="848.5"/><text fill="#000000" font-family="sans-serif" font-size="14" lengthAdjust="spacing" textLength="376" x="1195" y="867.6074">+findById(Product.ProductIdentifier id): Optional&lt;SportItem&gt;</text></g><!--class SportItemCatalogController--><g id="elem_SportItemCatalogController"><rect codeLine="43" fill="#F1F1F1" height="209.5508" id="SportItemCatalogController" rx="2.5" ry="2.5" style="stroke:#181818;stroke-width:0.5;" width="805" x="876.5" y="546.5"/><ellipse cx="1189.25" cy="568.791" fill="#ADD1B2" rx="11" ry="11" style="stroke:#181818;stroke-width:1.0;"/><path d="M1192.0156,564.666 Q1192.1719,564.4473 1192.3594,564.3379 Q1192.5469,564.2285 1192.7656,564.2285 Q1193.1406,564.2285 1193.375,564.4941 Q1193.6094,564.7441 1193.6094,565.3535 L1193.6094,566.8066 Q1193.6094,567.416 1193.375,567.6816 Q1193.1406,567.9473 1192.7656,567.9473 Q1192.4219,567.9473 1192.2188,567.7441 Q1192.0156,567.5566 1191.9063,567.041 Q1191.8594,566.6816 1191.6719,566.4941 Q1191.3438,566.1191 1190.7344,565.9004 Q1190.125,565.6816 1189.5,565.6816 Q1188.7344,565.6816 1188.0938,566.0098 Q1187.4688,566.3379 1186.9688,567.0879 Q1186.4844,567.8379 1186.4844,568.8691 L1186.4844,569.9629 Q1186.4844,571.1973 1187.375,572.0254 Q1188.2656,572.8379 1189.8594,572.8379 Q1190.7969,572.8379 1191.4531,572.5879 Q1191.8438,572.4316 1192.2656,571.9941 Q1192.5313,571.7285 1192.6719,571.6504 Q1192.8281,571.5723 1193.0313,571.5723 Q1193.3594,571.5723 1193.6094,571.8379 Q1193.875,572.0879 1193.875,572.4316 Q1193.875,572.7754 1193.5313,573.1816 Q1193.0313,573.7598 1192.2344,574.0879 Q1191.1563,574.541 1189.8594,574.541 Q1188.3438,574.541 1187.1406,573.916 Q1186.1563,573.416 1185.4688,572.3535 Q1184.7813,571.2754 1184.7813,569.9941 L1184.7813,568.8379 Q1184.7813,567.5098 1185.3906,566.3691 Q1186.0156,565.2129 1187.1094,564.6035 Q1188.2031,563.9785 1189.4375,563.9785 Q1190.1719,563.9785 1190.8125,564.1504 Q1191.4688,564.3066 1192.0156,564.666 Z " fill="#000000"/><text fill="#000000" font-family="sans-serif" font-size="12" font-style="italic" lengthAdjust="spacing" textLength="68" x="1261.25" y="564.4492">&#171;Controller&#187;</text><text fill="#000000" font-family="sans-serif" font-size="14" lengthAdjust="spacing" textLength="171" x="1209.75" y="582.5684">SportItemCatalogController</text><line style="stroke:#181818;stroke-width:0.5;" x1="877.5" x2="1680.5" y1="591.082" y2="591.082"/><text fill="#000000" font-family="sans-serif" font-size="14" lengthAdjust="spacing" textLength="197" x="882.5" y="610.1895">-itemCatalog: SportItemCatalog</text><line style="stroke:#181818;stroke-width:0.5;" x1="877.5" x2="1680.5" y1="617.7031" y2="617.7031"/><text fill="#000000" font-family="sans-serif" font-size="14" lengthAdjust="spacing" textLength="377" x="882.5" y="636.8105">+SportItemCatalogController(SportItemCatalog itemCatalog)</text><text fill="#000000" font-family="sans-serif" font-size="14" lengthAdjust="spacing" textLength="416" x="882.5" y="655.4316">+setupCatalog(Model model, Optional&lt;UserAccount&gt; user): String</text><text fill="#000000" font-family="sans-serif" font-size="14" lengthAdjust="spacing" textLength="178" x="882.5" y="674.0527">+setup(Model model): String</text><text fill="#000000" font-family="sans-serif" font-size="14" lengthAdjust="spacing" textLength="457" x="882.5" y="692.6738">+showSportItemDetails(Product.ProductIdentifier id, Model model): String</text><text fill="#000000" font-family="sans-serif" font-size="14" lengthAdjust="spacing" textLength="658" x="882.5" y="711.2949">+addSportItem(String name, double price, double deposit, int amount, String category, String imagePath,</text><text fill="#000000" font-family="sans-serif" font-size="14" lengthAdjust="spacing" textLength="121" x="1554.5" y="711.2949">String desc): String</text><text fill="#000000" font-family="sans-serif" font-size="14" lengthAdjust="spacing" textLength="532" x="882.5" y="729.916">+changeSportItemAmount(int amountItem, Product.ProductIdentifier equip_id): String</text><text fill="#000000" font-family="sans-serif" font-size="14" lengthAdjust="spacing" textLength="444" x="882.5" y="748.5371">+deleteSportItem(String itemName, Product.ProductIdentifier id): String</text></g><!--class SportItemCatalogDataInitializer--><g id="elem_SportItemCatalogDataInitializer"><rect codeLine="53" fill="#F1F1F1" height="116.4453" id="SportItemCatalogDataInitializer" rx="2.5" ry="2.5" style="stroke:#181818;stroke-width:0.5;" width="443" x="1150.5" y="100"/><ellipse cx="1271.25" cy="122.291" fill="#ADD1B2" rx="11" ry="11" style="stroke:#181818;stroke-width:1.0;"/><path d="M1274.0156,118.166 Q1274.1719,117.9473 1274.3594,117.8379 Q1274.5469,117.7285 1274.7656,117.7285 Q1275.1406,117.7285 1275.375,117.9941 Q1275.6094,118.2441 1275.6094,118.8535 L1275.6094,120.3066 Q1275.6094,120.916 1275.375,121.1816 Q1275.1406,121.4473 1274.7656,121.4473 Q1274.4219,121.4473 1274.2188,121.2441 Q1274.0156,121.0566 1273.9063,120.541 Q1273.8594,120.1816 1273.6719,119.9941 Q1273.3438,119.6191 1272.7344,119.4004 Q1272.125,119.1816 1271.5,119.1816 Q1270.7344,119.1816 1270.0938,119.5098 Q1269.4688,119.8379 1268.9688,120.5879 Q1268.4844,121.3379 1268.4844,122.3691 L1268.4844,123.4629 Q1268.4844,124.6973 1269.375,125.5254 Q1270.2656,126.3379 1271.8594,126.3379 Q1272.7969,126.3379 1273.4531,126.0879 Q1273.8438,125.9316 1274.2656,125.4941 Q1274.5313,125.2285 1274.6719,125.1504 Q1274.8281,125.0723 1275.0313,125.0723 Q1275.3594,125.0723 1275.6094,125.3379 Q1275.875,125.5879 1275.875,125.9316 Q1275.875,126.2754 1275.5313,126.6816 Q1275.0313,127.2598 1274.2344,127.5879 Q1273.1563,128.041 1271.8594,128.041 Q1270.3438,128.041 1269.1406,127.416 Q1268.1563,126.916 1267.4688,125.8535 Q1266.7813,124.7754 1266.7813,123.4941 L1266.7813,122.3379 Q1266.7813,121.0098 1267.3906,119.8691 Q1268.0156,118.7129 1269.1094,118.1035 Q1270.2031,117.4785 1271.4375,117.4785 Q1272.1719,117.4785 1272.8125,117.6504 Q1273.4688,117.8066 1274.0156,118.166 Z " fill="#000000"/><text fill="#000000" font-family="sans-serif" font-size="12" font-style="italic" lengthAdjust="spacing" textLength="79" x="1348.75" y="117.9492">&#171;Component&#187;</text><text fill="#000000" font-family="sans-serif" font-size="14" lengthAdjust="spacing" textLength="193" x="1291.75" y="136.0684">SportItemCatalogDataInitializer</text><line style="stroke:#181818;stroke-width:0.5;" x1="1151.5" x2="1592.5" y1="144.582" y2="144.582"/><text fill="#000000" font-family="sans-serif" font-size="14" lengthAdjust="spacing" textLength="229" x="1156.5" y="163.6895">-sportItemCatalog: SportItemCatalog</text><line style="stroke:#181818;stroke-width:0.5;" x1="1151.5" x2="1592.5" y1="171.2031" y2="171.2031"/><text fill="#000000" font-family="sans-serif" font-size="14" lengthAdjust="spacing" textLength="431" x="1156.5" y="190.3105">+SportItemCatalogDataInitializer(SportItemCatalog sportItemCatalog)</text><text fill="#000000" font-family="sans-serif" font-size="14" lengthAdjust="spacing" textLength="101" x="1156.5" y="208.9316">+initialize(): void</text></g><!--class SportItemCart--><g id="elem_SportItemCart"><rect codeLine="23" fill="#F1F1F1" height="32" id="SportItemCart" rx="2.5" ry="2.5" style="stroke:#181818;stroke-width:0.5;" width="119" x="420.5" y="142"/><ellipse cx="435.5" cy="158" fill="#ADD1B2" rx="11" ry="11" style="stroke:#181818;stroke-width:1.0;"/><path d="M438.2656,153.875 Q438.4219,153.6563 438.6094,153.5469 Q438.7969,153.4375 439.0156,153.4375 Q439.3906,153.4375 439.625,153.7031 Q439.8594,153.9531 439.8594,154.5625 L439.8594,156.0156 Q439.8594,156.625 439.625,156.8906 Q439.3906,157.1563 439.0156,157.1563 Q438.6719,157.1563 438.4688,156.9531 Q438.2656,156.7656 438.1563,156.25 Q438.1094,155.8906 437.9219,155.7031 Q437.5938,155.3281 436.9844,155.1094 Q436.375,154.8906 435.75,154.8906 Q434.9844,154.8906 434.3438,155.2188 Q433.7188,155.5469 433.2188,156.2969 Q432.7344,157.0469 432.7344,158.0781 L432.7344,159.1719 Q432.7344,160.4063 433.625,161.2344 Q434.5156,162.0469 436.1094,162.0469 Q437.0469,162.0469 437.7031,161.7969 Q438.0938,161.6406 438.5156,161.2031 Q438.7813,160.9375 438.9219,160.8594 Q439.0781,160.7813 439.2813,160.7813 Q439.6094,160.7813 439.8594,161.0469 Q440.125,161.2969 440.125,161.6406 Q440.125,161.9844 439.7813,162.3906 Q439.2813,162.9688 438.4844,163.2969 Q437.4063,163.75 436.1094,163.75 Q434.5938,163.75 433.3906,163.125 Q432.4063,162.625 431.7188,161.5625 Q431.0313,160.4844 431.0313,159.2031 L431.0313,158.0469 Q431.0313,156.7188 431.6406,155.5781 Q432.2656,154.4219 433.3594,153.8125 Q434.4531,153.1875 435.6875,153.1875 Q436.4219,153.1875 437.0625,153.3594 Q437.7188,153.5156 438.2656,153.875 Z " fill="#000000"/><text fill="#000000" font-family="sans-serif" font-size="14" lengthAdjust="spacing" textLength="87" x="449.5" y="163.7969">SportItemCart</text></g><!--class SportItemReservation--><g id="elem_SportItemReservation"><rect codeLine="25" fill="#F1F1F1" height="89.8242" id="SportItemReservation" rx="2.5" ry="2.5" style="stroke:#181818;stroke-width:0.5;" width="774" x="79" y="346"/><ellipse cx="393.75" cy="368.291" fill="#ADD1B2" rx="11" ry="11" style="stroke:#181818;stroke-width:1.0;"/><path d="M396.5156,364.166 Q396.6719,363.9473 396.8594,363.8379 Q397.0469,363.7285 397.2656,363.7285 Q397.6406,363.7285 397.875,363.9941 Q398.1094,364.2441 398.1094,364.8535 L398.1094,366.3066 Q398.1094,366.916 397.875,367.1816 Q397.6406,367.4473 397.2656,367.4473 Q396.9219,367.4473 396.7188,367.2441 Q396.5156,367.0566 396.4063,366.541 Q396.3594,366.1816 396.1719,365.9941 Q395.8438,365.6191 395.2344,365.4004 Q394.625,365.1816 394,365.1816 Q393.2344,365.1816 392.5938,365.5098 Q391.9688,365.8379 391.4688,366.5879 Q390.9844,367.3379 390.9844,368.3691 L390.9844,369.4629 Q390.9844,370.6973 391.875,371.5254 Q392.7656,372.3379 394.3594,372.3379 Q395.2969,372.3379 395.9531,372.0879 Q396.3438,371.9316 396.7656,371.4941 Q397.0313,371.2285 397.1719,371.1504 Q397.3281,371.0723 397.5313,371.0723 Q397.8594,371.0723 398.1094,371.3379 Q398.375,371.5879 398.375,371.9316 Q398.375,372.2754 398.0313,372.6816 Q397.5313,373.2598 396.7344,373.5879 Q395.6563,374.041 394.3594,374.041 Q392.8438,374.041 391.6406,373.416 Q390.6563,372.916 389.9688,371.8535 Q389.2813,370.7754 389.2813,369.4941 L389.2813,368.3379 Q389.2813,367.0098 389.8906,365.8691 Q390.5156,364.7129 391.6094,364.1035 Q392.7031,363.4785 393.9375,363.4785 Q394.6719,363.4785 395.3125,363.6504 Q395.9688,363.8066 396.5156,364.166 Z " fill="#000000"/><text fill="#000000" font-family="sans-serif" font-size="12" font-style="italic" lengthAdjust="spacing" textLength="44" x="460.25" y="363.9492">&#171;Entity&#187;</text><text fill="#000000" font-family="sans-serif" font-size="14" lengthAdjust="spacing" textLength="136" x="414.25" y="382.0684">SportItemReservation</text><line style="stroke:#181818;stroke-width:0.5;" x1="80" x2="852" y1="390.582" y2="390.582"/><text fill="#000000" font-family="sans-serif" font-size="14" lengthAdjust="spacing" textLength="762" x="85" y="409.6895">+SportItemReservation(UserAccount userAccount, SportItem sportItem, LocalDateTime arrival, LocalDateTime departure)</text><text fill="#000000" font-family="sans-serif" font-size="14" lengthAdjust="spacing" textLength="187" x="85" y="428.3105">+getIntervalUnit(): ChronoUnit</text></g><!--class SportItemReservationRepository--><g id="elem_SportItemReservationRepository"><rect codeLine="29" fill="#F1F1F1" height="32" id="SportItemReservationRepository" rx="2.5" ry="2.5" style="stroke:#181818;stroke-width:0.5;" width="236" x="603" y="142"/><ellipse cx="618" cy="158" fill="#B4A7E5" rx="11" ry="11" style="stroke:#181818;stroke-width:1.0;"/><path d="M618.9531,154.6406 L618.9531,161.2969 L620.6719,161.2969 Q621.2813,161.2969 621.5469,161.5313 Q621.8125,161.7656 621.8125,162.1563 Q621.8125,162.5313 621.5469,162.7656 Q621.2813,163 620.6719,163 L615.5313,163 Q614.9219,163 614.6563,162.7656 Q614.3906,162.5313 614.3906,162.1406 Q614.3906,161.7656 614.6563,161.5313 Q614.9219,161.2969 615.5313,161.2969 L617.25,161.2969 L617.25,154.6406 L615.5313,154.6406 Q614.9219,154.6406 614.6563,154.4063 Q614.3906,154.1719 614.3906,153.7813 Q614.3906,153.4063 614.6563,153.1719 Q614.9219,152.9375 615.5313,152.9375 L620.6719,152.9375 Q621.2813,152.9375 621.5469,153.1719 Q621.8125,153.4063 621.8125,153.7813 Q621.8125,154.1719 621.5469,154.4063 Q621.2813,154.6406 620.6719,154.6406 L618.9531,154.6406 Z " fill="#000000"/><text fill="#000000" font-family="sans-serif" font-size="14" font-style="italic" lengthAdjust="spacing" textLength="204" x="632" y="163.7969">SportItemReservationRepository</text></g><!--class Catalog--><g id="elem_Catalog"><rect codeLine="16" fill="#F1F1F1" height="32" id="Catalog" rx="2.5" ry="2.5" style="stroke:#181818;stroke-width:0.5;" width="183" x="3043.5" y="375"/><ellipse cx="3058.5" cy="391" fill="#B4A7E5" rx="11" ry="11" style="stroke:#181818;stroke-width:1.0;"/><path d="M3059.4531,387.6406 L3059.4531,394.2969 L3061.1719,394.2969 Q3061.7813,394.2969 3062.0469,394.5313 Q3062.3125,394.7656 3062.3125,395.1563 Q3062.3125,395.5313 3062.0469,395.7656 Q3061.7813,396 3061.1719,396 L3056.0313,396 Q3055.4219,396 3055.1563,395.7656 Q3054.8906,395.5313 3054.8906,395.1406 Q3054.8906,394.7656 3055.1563,394.5313 Q3055.4219,394.2969 3056.0313,394.2969 L3057.75,394.2969 L3057.75,387.6406 L3056.0313,387.6406 Q3055.4219,387.6406 3055.1563,387.4063 Q3054.8906,387.1719 3054.8906,386.7813 Q3054.8906,386.4063 3055.1563,386.1719 Q3055.4219,385.9375 3056.0313,385.9375 L3061.1719,385.9375 Q3061.7813,385.9375 3062.0469,386.1719 Q3062.3125,386.4063 3062.3125,386.7813 Q3062.3125,387.1719 3062.0469,387.4063 Q3061.7813,387.6406 3061.1719,387.6406 L3059.4531,387.6406 Z " fill="#000000"/><text fill="#000000" font-family="sans-serif" font-size="14" font-style="italic" lengthAdjust="spacing" textLength="49" x="3072.5" y="396.7969">Catalog</text><rect fill="#FEFEFE" height="17.9609" style="stroke:#181818;stroke-width:1.0;stroke-dasharray:2.0,2.0;" width="100" x="3129.5" y="372"/><text fill="#000000" font-family="sans-serif" font-size="12" font-style="italic" lengthAdjust="spacing" textLength="98" x="3130.5" y="385.9492">T extends Product</text></g><!--class DataInitializer--><g id="elem_DataInitializer"><rect codeLine="17" fill="#F1F1F1" height="32" id="DataInitializer" rx="2.5" ry="2.5" style="stroke:#181818;stroke-width:0.5;" width="116" x="2871" y="375"/><ellipse cx="2886" cy="391" fill="#ADD1B2" rx="11" ry="11" style="stroke:#181818;stroke-width:1.0;"/><path d="M2888.7656,386.875 Q2888.9219,386.6563 2889.1094,386.5469 Q2889.2969,386.4375 2889.5156,386.4375 Q2889.8906,386.4375 2890.125,386.7031 Q2890.3594,386.9531 2890.3594,387.5625 L2890.3594,389.0156 Q2890.3594,389.625 2890.125,389.8906 Q2889.8906,390.1563 2889.5156,390.1563 Q2889.1719,390.1563 2888.9688,389.9531 Q2888.7656,389.7656 2888.6563,389.25 Q2888.6094,388.8906 2888.4219,388.7031 Q2888.0938,388.3281 2887.4844,388.1094 Q2886.875,387.8906 2886.25,387.8906 Q2885.4844,387.8906 2884.8438,388.2188 Q2884.2188,388.5469 2883.7188,389.2969 Q2883.2344,390.0469 2883.2344,391.0781 L2883.2344,392.1719 Q2883.2344,393.4063 2884.125,394.2344 Q2885.0156,395.0469 2886.6094,395.0469 Q2887.5469,395.0469 2888.2031,394.7969 Q2888.5938,394.6406 2889.0156,394.2031 Q2889.2813,393.9375 2889.4219,393.8594 Q2889.5781,393.7813 2889.7813,393.7813 Q2890.1094,393.7813 2890.3594,394.0469 Q2890.625,394.2969 2890.625,394.6406 Q2890.625,394.9844 2890.2813,395.3906 Q2889.7813,395.9688 2888.9844,396.2969 Q2887.9063,396.75 2886.6094,396.75 Q2885.0938,396.75 2883.8906,396.125 Q2882.9063,395.625 2882.2188,394.5625 Q2881.5313,393.4844 2881.5313,392.2031 L2881.5313,391.0469 Q2881.5313,389.7188 2882.1406,388.5781 Q2882.7656,387.4219 2883.8594,386.8125 Q2884.9531,386.1875 2886.1875,386.1875 Q2886.9219,386.1875 2887.5625,386.3594 Q2888.2188,386.5156 2888.7656,386.875 Z " fill="#000000"/><text fill="#000000" font-family="sans-serif" font-size="14" lengthAdjust="spacing" textLength="84" x="2900" y="396.7969">DataInitializer</text></g><!--link SportItem to DetailedProduct--><g id="link_SportItem_DetailedProduct"><path codeLine="61" d="M1681.67,447.5 C2080.28,447.5 2636,447.5 2636,447.5 C2636,447.5 2636,441.74 2636,425.04 " fill="none" id="SportItem-to-DetailedProduct" style="stroke:#181818;stroke-width:1.0;"/><polygon fill="none" points="2636,407.04,2630,425.04,2642,425.04,2636,407.04" style="stroke:#181818;stroke-width:1.0;"/></g><!--link SportItemCatalogDataInitializer to SportItem--><!--link SportItemCatalog to Catalog--><g id="link_SportItemCatalog_Catalog"><path codeLine="63" d="M1577.19,846.5 C2033.34,846.5 3135,846.5 3135,846.5 C3135,846.5 3135,506.35 3135,425.21 " fill="none" id="SportItemCatalog-to-Catalog" style="stroke:#181818;stroke-width:1.0;"/><polygon fill="none" points="3135,407.21,3129,425.21,3141,425.21,3135,407.21" style="stroke:#181818;stroke-width:1.0;"/><text fill="#000000" font-family="sans-serif" font-size="13" lengthAdjust="spacing" textLength="135" x="2439.74" y="842.5283">&lt;&lt;bind T-&gt;SportItem&gt;&gt;</text></g><!--link SportItem to SportItemCatalogController--><!--link SportItemCatalogDataInitializer to DataInitializer--><g id="link_SportItemCatalogDataInitializer_DataInitializer"><path codeLine="67" d="M1593.84,187.5 C2023.87,187.5 2929,187.5 2929,187.5 C2929,187.5 2929,308.4 2929,356.69 " fill="none" id="SportItemCatalogDataInitializer-to-DataInitializer" style="stroke:#181818;stroke-width:1.0;"/><polygon fill="none" points="2929,374.69,2935,356.69,2923,356.69,2929,374.69" style="stroke:#181818;stroke-width:1.0;"/></g><!--link org to campingplatz--><!--link SportItemCatalogController to SportItemCatalog--><g id="link_SportItemCatalogController_SportItemCatalog"><path codeLine="71" d="M1383,756.72 C1383,778.56 1383,793.86 1383,810.18 " fill="none" id="SportItemCatalogController-to-SportItemCatalog" style="stroke:#181818;stroke-width:1.0;stroke-dasharray:7.0,7.0;"/><polygon fill="#181818" points="1383,816.18,1387,807.18,1383,811.18,1379,807.18,1383,816.18" style="stroke:#181818;stroke-width:1.0;"/><text fill="#000000" font-family="sans-serif" font-size="13" lengthAdjust="spacing" textLength="35" x="1347" y="782.4783">&#171;use&#187;</text></g><!--link SportItemCart to Cart--><g id="link_SportItemCart_Cart"><path codeLine="73" d="M499.83,174.45 C499.83,205.47 499.83,269.5 499.83,269.5 C499.83,269.5 1894,269.5 1894,269.5 C1894,269.5 1894,323.82 1894,356.87 " fill="none" id="SportItemCart-to-Cart" style="stroke:#181818;stroke-width:1.0;"/><polygon fill="none" points="1894,374.87,1900,356.87,1888,356.87,1894,374.87" style="stroke:#181818;stroke-width:1.0;"/><text fill="#000000" font-family="sans-serif" font-size="13" lengthAdjust="spacing" textLength="287" x="914.08" y="265.5283">&lt;&lt;bind T-&gt;SportItem, U-&gt;SportItemReservation&gt;&gt;</text></g><!--link SportItemReservation to Reservation--><g id="link_SportItemReservation_Reservation"><path codeLine="74" d="M466,436.31 C466,472.26 466,516.5 466,516.5 C466,516.5 1859,516.5 1859,516.5 C1859,516.5 1859,581.72 1859,617.48 " fill="none" id="SportItemReservation-to-Reservation" style="stroke:#181818;stroke-width:1.0;"/><polygon fill="none" points="1859,635.48,1865,617.48,1853,617.48,1859,635.48" style="stroke:#181818;stroke-width:1.0;"/></g><!--link SportItemReservationRepository to ReservationRepository--><g id="link_SportItemReservationRepository_ReservationRepository"><path codeLine="75" d="M760.33,174.29 C760.33,198.85 760.33,242.5 760.33,242.5 C760.33,242.5 2299,242.5 2299,242.5 C2299,242.5 2299,318.34 2299,356.83 " fill="none" id="SportItemReservationRepository-to-ReservationRepository" style="stroke:#181818;stroke-width:1.0;"/><polygon fill="none" points="2299,374.83,2305,356.83,2293,356.83,2299,374.83" style="stroke:#181818;stroke-width:1.0;"/><text fill="#000000" font-family="sans-serif" font-size="13" lengthAdjust="spacing" textLength="287" x="1273.73" y="238.5283">&lt;&lt;bind T-&gt;SportItem, U-&gt;SportItemReservation&gt;&gt;</text></g><!--link Cart to Reservation--><!--link ReservationRepository to Reservation--><!--link SportItemCart to SportItemReservation--><!--link SportItemReservationRepository to SportItemReservation--><!--SRC=[bLRRJkCm47rUVuMbVIdQjjfdL4M20bAblI1QdbQhbOc7riAniuu359P_tt6Sn6ukN894a_7CyPpZupWxmO52bjizlHKWUK5s8PA1tMaC5NT2vSomZAQI5SM9jKRSb1PMgLPhyGJqQvGYXGAxpu5gWzNHm2bBxxP6bueljTI6VhuuTt-4IQaVCl4er3RApZ6RRM5jznBe1KQ0a6fsch8inznSCliqBwsGnVmCB1CI-ANHl4pjKAA10imziqAh-P8PkzXGUBIWU47hgYczRaDN8NknIPAt00_IkxW94Sg2kMKfl0lX2d9T2AlD_cCzabeo57xxJ2XUJQ1W4efSOnktJiW7RUvyWhlYvYoJUeloLBz3J9gYMWzjO7w6sIibh60IhM2gb1Vo4jevu0n_Iv7JJdivMcLb8OiO5Jx5pxDk4jp2FTSp30p7YYpEbHLsdoG-_yjGqkGQRq_I53rfQHdkfm4oD3UbttJA9DA5ZSY0CcF4FPFTC0VqhoqD7Fbvjs1NJc5ClKQL9aV7TBapMcdt5549op3KQV34EFikvHdB79bZ1-q3tACSq-zQmRwZosIDkrfjgKA7J7q6DQ3G2XVG1ce45CWdesLWYrrDtIJKJzWEYWnNzvBPNHlXKAH6v8vHaEUagdB2D8r-ATgeWqNfIi3XUoruMtNcEt5b4PiY3FY6UxMZQjUkh-roAnG_tQ_ufBR-lFvTSPH4uAlIKC4HzsT5Xib5YvEChr0znL8hQxIKO1QBSDykcmYPnxtQpgBr42VT8Hh17RKYbNaTGfauI9gv_zF09jeOIRKpaAfVmmWYhksEx_H3sub_EnUlIkaCDWR6E1znATVb3HuFkH5fU6ezEc39uDUUHpz57kqqaEwOmgEewI6ofeVthuTnUjLBxq_bbnWMcOA57ZMtO3ygUczuBy9wpMwT5xJpN9RZvi2bRInNT4hUwxiETDzyNU3QWQAjcHpkJNTkX7VlpFnBQFTiZuP_uRSAQlAxdBr5clGwcyqGkwMxMDpWXgURMHBsSKB6jzdmt8IGD_hmqtQR8_4H6Q3bp1tbvBKsvlEaHzsnmIthlWWE3iw6ih63VF7J8dgApfvOY2ZiuQ80UVtWwkM7eG_tGpoVHYW-E-ZZeCbedORFqwv84UZGx2DQ3DbXP3wy_WC0]--></g></svg>