<?xml version="1.0" encoding="us-ascii" standalone="no"?><svg xmlns="http://www.w3.org/2000/svg" xmlns:xlink="http://www.w3.org/1999/xlink" contentStyleType="text/css" height="1106px" preserveAspectRatio="none" style="width:4658px;height:1106px;background:#FEFEFE;" version="1.1" viewBox="0 0 4658 1106" width="4658px" zoomAndPan="magnify"><defs/><g><rect fill="#FEFEFE" height="1106" style="stroke:none;stroke-width:1.0;" width="4658" x="0" y="0"/><!--cluster campingplatz--><g id="cluster_campingplatz"><rect fill="none" height="1069" rx="2.5" ry="2.5" style="stroke:#000000;stroke-width:1.5;" width="4074" x="68" y="7"/><path d="M170,7 L170,18.6211 L160,28.6211 L68,28.6211 " fill="none" style="stroke:#000000;stroke-width:1.5;"/><text fill="#000000" font-family="sans-serif" font-size="14" font-weight="bold" lengthAdjust="spacing" textLength="92" x="71" y="23.1074">campingplatz</text></g><!--cluster utils--><g id="cluster_utils"><rect fill="none" height="85" rx="2.5" ry="2.5" style="stroke:#000000;stroke-width:1.5;" width="166" x="3952" y="683"/><path d="M3992,683 L3992,694.6211 L3982,704.6211 L3952,704.6211 " fill="none" style="stroke:#000000;stroke-width:1.5;"/><text fill="#000000" font-family="sans-serif" font-size="14" font-weight="bold" lengthAdjust="spacing" textLength="30" x="3955" y="699.1074">utils</text></g><!--cluster reservation--><g id="cluster_reservation"><rect fill="none" height="85" rx="2.5" ry="2.5" style="stroke:#000000;stroke-width:1.5;" width="1052" x="206" y="967"/><path d="M298,967 L298,978.6211 L288,988.6211 L206,988.6211 " fill="none" style="stroke:#000000;stroke-width:1.5;"/><text fill="#000000" font-family="sans-serif" font-size="14" font-weight="bold" lengthAdjust="spacing" textLength="82" x="209" y="983.1074">reservation</text></g><!--cluster equip--><g id="cluster_equip"><rect fill="none" height="801" rx="2.5" ry="2.5" style="stroke:#000000;stroke-width:1.5;" width="3836" x="92" y="52"/><path d="M142,52 L142,63.6211 L132,73.6211 L92,73.6211 " fill="none" style="stroke:#000000;stroke-width:1.5;"/><text fill="#000000" font-family="sans-serif" font-size="14" font-weight="bold" lengthAdjust="spacing" textLength="40" x="95" y="68.1074">equip</text></g><!--cluster sportItemReservations--><g id="cluster_sportItemReservations"><rect fill="none" height="207" rx="2.5" ry="2.5" style="stroke:#000000;stroke-width:1.5;" width="2411" x="116" y="622"/><path d="M287,622 L287,633.6211 L277,643.6211 L116,643.6211 " fill="none" style="stroke:#000000;stroke-width:1.5;"/><text fill="#000000" font-family="sans-serif" font-size="14" font-weight="bold" lengthAdjust="spacing" textLength="161" x="119" y="638.1074">sportItemReservations</text></g><!--cluster org--><g id="cluster_org"><rect fill="none" height="223" rx="2.5" ry="2.5" style="stroke:#000000;stroke-width:1.5;" width="486" x="4166" y="877"/><path d="M4200,877 L4200,888.6211 L4190,898.6211 L4166,898.6211 " fill="none" style="stroke:#000000;stroke-width:1.5;"/><text fill="#000000" font-family="sans-serif" font-size="14" font-weight="bold" lengthAdjust="spacing" textLength="24" x="4169" y="893.1074">org</text></g><!--cluster salespointframework--><g id="cluster_salespointframework"><rect fill="none" height="154" rx="2.5" ry="2.5" style="stroke:#000000;stroke-width:1.5;" width="438" x="4190" y="922"/><path d="M4347,922 L4347,933.6211 L4337,943.6211 L4190,943.6211 " fill="none" style="stroke:#000000;stroke-width:1.5;"/><text fill="#000000" font-family="sans-serif" font-size="14" font-weight="bold" lengthAdjust="spacing" textLength="147" x="4193" y="938.1074">salespointframework</text></g><!--cluster catalog--><g id="cluster_catalog"><rect fill="none" height="85" rx="2.5" ry="2.5" style="stroke:#000000;stroke-width:1.5;" width="216" x="4214" y="967"/><path d="M4275,967 L4275,978.6211 L4265,988.6211 L4214,988.6211 " fill="none" style="stroke:#000000;stroke-width:1.5;"/><text fill="#000000" font-family="sans-serif" font-size="14" font-weight="bold" lengthAdjust="spacing" textLength="51" x="4217" y="983.1074">catalog</text></g><!--cluster core--><g id="cluster_core"><rect fill="none" height="85" rx="2.5" ry="2.5" style="stroke:#000000;stroke-width:1.5;" width="150" x="4454" y="967"/><path d="M4496,967 L4496,978.6211 L4486,988.6211 L4454,988.6211 " fill="none" style="stroke:#000000;stroke-width:1.5;"/><text fill="#000000" font-family="sans-serif" font-size="14" font-weight="bold" lengthAdjust="spacing" textLength="32" x="4457" y="983.1074">core</text></g><!--cluster java--><g id="cluster_java"><rect fill="none" height="154" rx="2.5" ry="2.5" style="stroke:#000000;stroke-width:1.5;" width="168" x="4166" y="638"/><path d="M4205,638 L4205,649.6211 L4195,659.6211 L4166,659.6211 " fill="none" style="stroke:#000000;stroke-width:1.5;"/><text fill="#000000" font-family="sans-serif" font-size="14" font-weight="bold" lengthAdjust="spacing" textLength="29" x="4169" y="654.1074">java</text></g><!--cluster util--><g id="cluster_util"><rect fill="none" height="85" rx="2.5" ry="2.5" style="stroke:#000000;stroke-width:1.5;" width="120" x="4190" y="683"/><path d="M4222,683 L4222,694.6211 L4212,704.6211 L4190,704.6211 " fill="none" style="stroke:#000000;stroke-width:1.5;"/><text fill="#000000" font-family="sans-serif" font-size="14" font-weight="bold" lengthAdjust="spacing" textLength="22" x="4193" y="699.1074">util</text></g><!--class DetailedProduct--><g id="elem_DetailedProduct"><rect codeLine="9" fill="#F1F1F1" height="32" id="DetailedProduct" rx="2.5" ry="2.5" style="stroke:#181818;stroke-width:0.5;" width="133" x="3968.5" y="720"/><ellipse cx="3983.5" cy="736" fill="#ADD1B2" rx="11" ry="11" style="stroke:#181818;stroke-width:1.0;"/><path d="M3986.2656,731.875 Q3986.4219,731.6563 3986.6094,731.5469 Q3986.7969,731.4375 3987.0156,731.4375 Q3987.3906,731.4375 3987.625,731.7031 Q3987.8594,731.9531 3987.8594,732.5625 L3987.8594,734.0156 Q3987.8594,734.625 3987.625,734.8906 Q3987.3906,735.1563 3987.0156,735.1563 Q3986.6719,735.1563 3986.4688,734.9531 Q3986.2656,734.7656 3986.1563,734.25 Q3986.1094,733.8906 3985.9219,733.7031 Q3985.5938,733.3281 3984.9844,733.1094 Q3984.375,732.8906 3983.75,732.8906 Q3982.9844,732.8906 3982.3438,733.2188 Q3981.7188,733.5469 3981.2188,734.2969 Q3980.7344,735.0469 3980.7344,736.0781 L3980.7344,737.1719 Q3980.7344,738.4063 3981.625,739.2344 Q3982.5156,740.0469 3984.1094,740.0469 Q3985.0469,740.0469 3985.7031,739.7969 Q3986.0938,739.6406 3986.5156,739.2031 Q3986.7813,738.9375 3986.9219,738.8594 Q3987.0781,738.7813 3987.2813,738.7813 Q3987.6094,738.7813 3987.8594,739.0469 Q3988.125,739.2969 3988.125,739.6406 Q3988.125,739.9844 3987.7813,740.3906 Q3987.2813,740.9688 3986.4844,741.2969 Q3985.4063,741.75 3984.1094,741.75 Q3982.5938,741.75 3981.3906,741.125 Q3980.4063,740.625 3979.7188,739.5625 Q3979.0313,738.4844 3979.0313,737.2031 L3979.0313,736.0469 Q3979.0313,734.7188 3979.6406,733.5781 Q3980.2656,732.4219 3981.3594,731.8125 Q3982.4531,731.1875 3983.6875,731.1875 Q3984.4219,731.1875 3985.0625,731.3594 Q3985.7188,731.5156 3986.2656,731.875 Z " fill="#000000"/><text fill="#000000" font-family="sans-serif" font-size="14" lengthAdjust="spacing" textLength="101" x="3997.5" y="741.7969">DetailedProduct</text></g><!--class Cart--><g id="elem_Cart"><rect codeLine="10" fill="#F1F1F1" height="32" id="Cart" rx="2.5" ry="2.5" style="stroke:#181818;stroke-width:0.5;" width="312" x="930" y="1004"/><ellipse cx="945" cy="1020" fill="#ADD1B2" rx="11" ry="11" style="stroke:#181818;stroke-width:1.0;"/><path d="M947.7656,1015.875 Q947.9219,1015.6563 948.1094,1015.5469 Q948.2969,1015.4375 948.5156,1015.4375 Q948.8906,1015.4375 949.125,1015.7031 Q949.3594,1015.9531 949.3594,1016.5625 L949.3594,1018.0156 Q949.3594,1018.625 949.125,1018.8906 Q948.8906,1019.1563 948.5156,1019.1563 Q948.1719,1019.1563 947.9688,1018.9531 Q947.7656,1018.7656 947.6563,1018.25 Q947.6094,1017.8906 947.4219,1017.7031 Q947.0938,1017.3281 946.4844,1017.1094 Q945.875,1016.8906 945.25,1016.8906 Q944.4844,1016.8906 943.8438,1017.2188 Q943.2188,1017.5469 942.7188,1018.2969 Q942.2344,1019.0469 942.2344,1020.0781 L942.2344,1021.1719 Q942.2344,1022.4063 943.125,1023.2344 Q944.0156,1024.0469 945.6094,1024.0469 Q946.5469,1024.0469 947.2031,1023.7969 Q947.5938,1023.6406 948.0156,1023.2031 Q948.2813,1022.9375 948.4219,1022.8594 Q948.5781,1022.7813 948.7813,1022.7813 Q949.1094,1022.7813 949.3594,1023.0469 Q949.625,1023.2969 949.625,1023.6406 Q949.625,1023.9844 949.2813,1024.3906 Q948.7813,1024.9688 947.9844,1025.2969 Q946.9063,1025.75 945.6094,1025.75 Q944.0938,1025.75 942.8906,1025.125 Q941.9063,1024.625 941.2188,1023.5625 Q940.5313,1022.4844 940.5313,1021.2031 L940.5313,1020.0469 Q940.5313,1018.7188 941.1406,1017.5781 Q941.7656,1016.4219 942.8594,1015.8125 Q943.9531,1015.1875 945.1875,1015.1875 Q945.9219,1015.1875 946.5625,1015.3594 Q947.2188,1015.5156 947.7656,1015.875 Z " fill="#000000"/><text fill="#000000" font-family="sans-serif" font-size="14" lengthAdjust="spacing" textLength="27" x="959" y="1025.7969">Cart</text><rect fill="#FEFEFE" height="17.9609" style="stroke:#181818;stroke-width:1.0;stroke-dasharray:2.0,2.0;" width="251" x="994" y="1001"/><text fill="#000000" font-family="sans-serif" font-size="12" font-style="italic" lengthAdjust="spacing" textLength="249" x="995" y="1014.9492">T extends Product, U extends Reservation&lt;T&gt;</text></g><!--class Reservation--><g id="elem_Reservation"><rect codeLine="11" fill="#F1F1F1" height="32" id="Reservation" rx="2.5" ry="2.5" style="stroke:#181818;stroke-width:0.5;" width="210" x="685" y="1004"/><ellipse cx="700" cy="1020" fill="#ADD1B2" rx="11" ry="11" style="stroke:#181818;stroke-width:1.0;"/><path d="M702.7656,1015.875 Q702.9219,1015.6563 703.1094,1015.5469 Q703.2969,1015.4375 703.5156,1015.4375 Q703.8906,1015.4375 704.125,1015.7031 Q704.3594,1015.9531 704.3594,1016.5625 L704.3594,1018.0156 Q704.3594,1018.625 704.125,1018.8906 Q703.8906,1019.1563 703.5156,1019.1563 Q703.1719,1019.1563 702.9688,1018.9531 Q702.7656,1018.7656 702.6563,1018.25 Q702.6094,1017.8906 702.4219,1017.7031 Q702.0938,1017.3281 701.4844,1017.1094 Q700.875,1016.8906 700.25,1016.8906 Q699.4844,1016.8906 698.8438,1017.2188 Q698.2188,1017.5469 697.7188,1018.2969 Q697.2344,1019.0469 697.2344,1020.0781 L697.2344,1021.1719 Q697.2344,1022.4063 698.125,1023.2344 Q699.0156,1024.0469 700.6094,1024.0469 Q701.5469,1024.0469 702.2031,1023.7969 Q702.5938,1023.6406 703.0156,1023.2031 Q703.2813,1022.9375 703.4219,1022.8594 Q703.5781,1022.7813 703.7813,1022.7813 Q704.1094,1022.7813 704.3594,1023.0469 Q704.625,1023.2969 704.625,1023.6406 Q704.625,1023.9844 704.2813,1024.3906 Q703.7813,1024.9688 702.9844,1025.2969 Q701.9063,1025.75 700.6094,1025.75 Q699.0938,1025.75 697.8906,1025.125 Q696.9063,1024.625 696.2188,1023.5625 Q695.5313,1022.4844 695.5313,1021.2031 L695.5313,1020.0469 Q695.5313,1018.7188 696.1406,1017.5781 Q696.7656,1016.4219 697.8594,1015.8125 Q698.9531,1015.1875 700.1875,1015.1875 Q700.9219,1015.1875 701.5625,1015.3594 Q702.2188,1015.5156 702.7656,1015.875 Z " fill="#000000"/><text fill="#000000" font-family="sans-serif" font-size="14" lengthAdjust="spacing" textLength="76" x="714" y="1025.7969">Reservation</text><rect fill="#FEFEFE" height="17.9609" style="stroke:#181818;stroke-width:1.0;stroke-dasharray:2.0,2.0;" width="100" x="798" y="1001"/><text fill="#000000" font-family="sans-serif" font-size="12" font-style="italic" lengthAdjust="spacing" textLength="98" x="799" y="1014.9492">T extends Product</text></g><!--class ReservationRepository--><g id="elem_ReservationRepository"><rect codeLine="12" fill="#F1F1F1" height="32" id="ReservationRepository" rx="2.5" ry="2.5" style="stroke:#181818;stroke-width:0.5;" width="428" x="222" y="1004"/><ellipse cx="237" cy="1020" fill="#B4A7E5" rx="11" ry="11" style="stroke:#181818;stroke-width:1.0;"/><path d="M237.9531,1016.6406 L237.9531,1023.2969 L239.6719,1023.2969 Q240.2813,1023.2969 240.5469,1023.5313 Q240.8125,1023.7656 240.8125,1024.1563 Q240.8125,1024.5313 240.5469,1024.7656 Q240.2813,1025 239.6719,1025 L234.5313,1025 Q233.9219,1025 233.6563,1024.7656 Q233.3906,1024.5313 233.3906,1024.1406 Q233.3906,1023.7656 233.6563,1023.5313 Q233.9219,1023.2969 234.5313,1023.2969 L236.25,1023.2969 L236.25,1016.6406 L234.5313,1016.6406 Q233.9219,1016.6406 233.6563,1016.4063 Q233.3906,1016.1719 233.3906,1015.7813 Q233.3906,1015.4063 233.6563,1015.1719 Q233.9219,1014.9375 234.5313,1014.9375 L239.6719,1014.9375 Q240.2813,1014.9375 240.5469,1015.1719 Q240.8125,1015.4063 240.8125,1015.7813 Q240.8125,1016.1719 240.5469,1016.4063 Q240.2813,1016.6406 239.6719,1016.6406 L237.9531,1016.6406 Z " fill="#000000"/><text fill="#000000" font-family="sans-serif" font-size="14" font-style="italic" lengthAdjust="spacing" textLength="143" x="251" y="1025.7969">ReservationRepository</text><rect fill="#FEFEFE" height="17.9609" style="stroke:#181818;stroke-width:1.0;stroke-dasharray:2.0,2.0;" width="251" x="402" y="1001"/><text fill="#000000" font-family="sans-serif" font-size="12" font-style="italic" lengthAdjust="spacing" textLength="249" x="403" y="1014.9492">T extends Product, U extends Reservation&lt;T&gt;</text></g><!--class SportItem--><g id="elem_SportItem"><rect codeLine="42" fill="#F1F1F1" height="190.9297" id="SportItem" rx="2.5" ry="2.5" style="stroke:#181818;stroke-width:0.5;" width="793" x="1852.5" y="395.5"/><ellipse cx="2214.75" cy="417.791" fill="#ADD1B2" rx="11" ry="11" style="stroke:#181818;stroke-width:1.0;"/><path d="M2217.5156,413.666 Q2217.6719,413.4473 2217.8594,413.3379 Q2218.0469,413.2285 2218.2656,413.2285 Q2218.6406,413.2285 2218.875,413.4941 Q2219.1094,413.7441 2219.1094,414.3535 L2219.1094,415.8066 Q2219.1094,416.416 2218.875,416.6816 Q2218.6406,416.9473 2218.2656,416.9473 Q2217.9219,416.9473 2217.7188,416.7441 Q2217.5156,416.5566 2217.4063,416.041 Q2217.3594,415.6816 2217.1719,415.4941 Q2216.8438,415.1191 2216.2344,414.9004 Q2215.625,414.6816 2215,414.6816 Q2214.2344,414.6816 2213.5938,415.0098 Q2212.9688,415.3379 2212.4688,416.0879 Q2211.9844,416.8379 2211.9844,417.8691 L2211.9844,418.9629 Q2211.9844,420.1973 2212.875,421.0254 Q2213.7656,421.8379 2215.3594,421.8379 Q2216.2969,421.8379 2216.9531,421.5879 Q2217.3438,421.4316 2217.7656,420.9941 Q2218.0313,420.7285 2218.1719,420.6504 Q2218.3281,420.5723 2218.5313,420.5723 Q2218.8594,420.5723 2219.1094,420.8379 Q2219.375,421.0879 2219.375,421.4316 Q2219.375,421.7754 2219.0313,422.1816 Q2218.5313,422.7598 2217.7344,423.0879 Q2216.6563,423.541 2215.3594,423.541 Q2213.8438,423.541 2212.6406,422.916 Q2211.6563,422.416 2210.9688,421.3535 Q2210.2813,420.2754 2210.2813,418.9941 L2210.2813,417.8379 Q2210.2813,416.5098 2210.8906,415.3691 Q2211.5156,414.2129 2212.6094,413.6035 Q2213.7031,412.9785 2214.9375,412.9785 Q2215.6719,412.9785 2216.3125,413.1504 Q2216.9688,413.3066 2217.5156,413.666 Z " fill="#000000"/><text fill="#000000" font-family="sans-serif" font-size="12" font-style="italic" lengthAdjust="spacing" textLength="44" x="2243.25" y="413.4492">&#171;Entity&#187;</text><text fill="#000000" font-family="sans-serif" font-size="14" lengthAdjust="spacing" textLength="60" x="2235.25" y="431.5684">SportItem</text><line style="stroke:#181818;stroke-width:0.5;" x1="1853.5" x2="2644.5" y1="440.082" y2="440.082"/><text fill="#000000" font-family="sans-serif" font-size="14" lengthAdjust="spacing" textLength="75" x="1858.5" y="459.1895">-amount: int</text><text fill="#000000" font-family="sans-serif" font-size="14" lengthAdjust="spacing" textLength="101" x="1858.5" y="477.8105">-deposit: Money</text><line style="stroke:#181818;stroke-width:0.5;" x1="1853.5" x2="2644.5" y1="485.3242" y2="485.3242"/><text fill="#000000" font-family="sans-serif" font-size="14" lengthAdjust="spacing" textLength="781" x="1858.5" y="504.4316">+SportItem(String name, Money rentalFee, Money deposit, String category, int amount, String imagePath, String description)</text><text fill="#000000" font-family="sans-serif" font-size="14" lengthAdjust="spacing" textLength="109" x="1858.5" y="523.0527">+getAmount(): int</text><text fill="#000000" font-family="sans-serif" font-size="14" lengthAdjust="spacing" textLength="172" x="1858.5" y="541.6738">+setAmount(int value): void</text><text fill="#000000" font-family="sans-serif" font-size="14" lengthAdjust="spacing" textLength="136" x="1858.5" y="560.2949">+getDeposit(): Money</text><text fill="#000000" font-family="sans-serif" font-size="14" lengthAdjust="spacing" textLength="199" x="1858.5" y="578.916">+setDeposit(Money value): void</text></g><!--class SportItemCatalog--><g id="elem_SportItemCatalog"><rect codeLine="51" fill="#F1F1F1" height="71.2031" id="SportItemCatalog" rx="2.5" ry="2.5" style="stroke:#181818;stroke-width:0.5;" width="388" x="2546" y="700.5"/><ellipse cx="2680.75" cy="722.791" fill="#B4A7E5" rx="11" ry="11" style="stroke:#181818;stroke-width:1.0;"/><path d="M2681.7031,719.4316 L2681.7031,726.0879 L2683.4219,726.0879 Q2684.0313,726.0879 2684.2969,726.3223 Q2684.5625,726.5566 2684.5625,726.9473 Q2684.5625,727.3223 2684.2969,727.5566 Q2684.0313,727.791 2683.4219,727.791 L2678.2813,727.791 Q2677.6719,727.791 2677.4063,727.5566 Q2677.1406,727.3223 2677.1406,726.9316 Q2677.1406,726.5566 2677.4063,726.3223 Q2677.6719,726.0879 2678.2813,726.0879 L2680,726.0879 L2680,719.4316 L2678.2813,719.4316 Q2677.6719,719.4316 2677.4063,719.1973 Q2677.1406,718.9629 2677.1406,718.5723 Q2677.1406,718.1973 2677.4063,717.9629 Q2677.6719,717.7285 2678.2813,717.7285 L2683.4219,717.7285 Q2684.0313,717.7285 2684.2969,717.9629 Q2684.5625,718.1973 2684.5625,718.5723 Q2684.5625,718.9629 2684.2969,719.1973 Q2684.0313,719.4316 2683.4219,719.4316 L2681.7031,719.4316 Z " fill="#000000"/><text fill="#000000" font-family="sans-serif" font-size="12" font-style="italic" lengthAdjust="spacing" textLength="73" x="2719.75" y="718.4492">&#171;Repository&#187;</text><text fill="#000000" font-family="sans-serif" font-size="14" font-style="italic" lengthAdjust="spacing" textLength="110" x="2701.25" y="736.5684">SportItemCatalog</text><line style="stroke:#181818;stroke-width:0.5;" x1="2547" x2="2933" y1="745.082" y2="745.082"/><text fill="#000000" font-family="sans-serif" font-size="14" lengthAdjust="spacing" textLength="376" x="2552" y="764.1895">+findById(Product.ProductIdentifier id): Optional&lt;SportItem&gt;</text></g><!--class SportItemCatalogController--><g id="elem_SportItemCatalogController"><rect codeLine="57" fill="#F1F1F1" height="209.5508" id="SportItemCatalogController" rx="2.5" ry="2.5" style="stroke:#181818;stroke-width:0.5;" width="920" x="108" y="386"/><ellipse cx="478.25" cy="408.291" fill="#ADD1B2" rx="11" ry="11" style="stroke:#181818;stroke-width:1.0;"/><path d="M481.0156,404.166 Q481.1719,403.9473 481.3594,403.8379 Q481.5469,403.7285 481.7656,403.7285 Q482.1406,403.7285 482.375,403.9941 Q482.6094,404.2441 482.6094,404.8535 L482.6094,406.3066 Q482.6094,406.916 482.375,407.1816 Q482.1406,407.4473 481.7656,407.4473 Q481.4219,407.4473 481.2188,407.2441 Q481.0156,407.0566 480.9063,406.541 Q480.8594,406.1816 480.6719,405.9941 Q480.3438,405.6191 479.7344,405.4004 Q479.125,405.1816 478.5,405.1816 Q477.7344,405.1816 477.0938,405.5098 Q476.4688,405.8379 475.9688,406.5879 Q475.4844,407.3379 475.4844,408.3691 L475.4844,409.4629 Q475.4844,410.6973 476.375,411.5254 Q477.2656,412.3379 478.8594,412.3379 Q479.7969,412.3379 480.4531,412.0879 Q480.8438,411.9316 481.2656,411.4941 Q481.5313,411.2285 481.6719,411.1504 Q481.8281,411.0723 482.0313,411.0723 Q482.3594,411.0723 482.6094,411.3379 Q482.875,411.5879 482.875,411.9316 Q482.875,412.2754 482.5313,412.6816 Q482.0313,413.2598 481.2344,413.5879 Q480.1563,414.041 478.8594,414.041 Q477.3438,414.041 476.1406,413.416 Q475.1563,412.916 474.4688,411.8535 Q473.7813,410.7754 473.7813,409.4941 L473.7813,408.3379 Q473.7813,407.0098 474.3906,405.8691 Q475.0156,404.7129 476.1094,404.1035 Q477.2031,403.4785 478.4375,403.4785 Q479.1719,403.4785 479.8125,403.6504 Q480.4688,403.8066 481.0156,404.166 Z " fill="#000000"/><text fill="#000000" font-family="sans-serif" font-size="12" font-style="italic" lengthAdjust="spacing" textLength="68" x="550.25" y="403.9492">&#171;Controller&#187;</text><text fill="#000000" font-family="sans-serif" font-size="14" lengthAdjust="spacing" textLength="171" x="498.75" y="422.0684">SportItemCatalogController</text><line style="stroke:#181818;stroke-width:0.5;" x1="109" x2="1027" y1="430.582" y2="430.582"/><text fill="#000000" font-family="sans-serif" font-size="14" lengthAdjust="spacing" textLength="197" x="114" y="449.6895">-itemCatalog: SportItemCatalog</text><text fill="#000000" font-family="sans-serif" font-size="14" lengthAdjust="spacing" textLength="356" x="114" y="468.3105">-reservationRepository: SportItemReservationRepository</text><line style="stroke:#181818;stroke-width:0.5;" x1="109" x2="1027" y1="475.8242" y2="475.8242"/><text fill="#000000" font-family="sans-serif" font-size="14" lengthAdjust="spacing" textLength="732" x="114" y="494.9316">+SportItemCatalogController(SportItemCatalog itemCatalog, SportItemReservationRepository reservationRepository)</text><text fill="#000000" font-family="sans-serif" font-size="14" lengthAdjust="spacing" textLength="189" x="114" y="513.5527">+initializeCart(): SportItemCart</text><text fill="#000000" font-family="sans-serif" font-size="14" lengthAdjust="spacing" textLength="227" x="114" y="532.1738">+setupCatalog(Model model): String</text><text fill="#000000" font-family="sans-serif" font-size="14" lengthAdjust="spacing" textLength="894" x="114" y="550.7949">+showSportItemDetails(Model model, Optional&lt;UserAccount&gt; user, SiteState state, SportItem sportItem, SportItemCart reservationCart): String</text><text fill="#000000" font-family="sans-serif" font-size="14" lengthAdjust="spacing" textLength="906" x="114" y="569.416">+updateSportItemDetails(Model model, Optional&lt;UserAccount&gt; user, SiteState state, SportItem sportItem, SportItemCart reservationCart): String</text><text fill="#000000" font-family="sans-serif" font-size="14" lengthAdjust="spacing" textLength="908" x="114" y="588.0371">+addReservationDay(Model model, UserAccount user, SiteState state,  SportItem sportItem, Integer index, SportItemCart reservationCart): String</text></g><!--class SiteState--><g id="elem_SiteState"><rect codeLine="67" fill="#F1F1F1" height="77.2422" id="SiteState" rx="2.5" ry="2.5" style="stroke:#181818;stroke-width:0.5;" width="208" x="464" y="167.5"/><ellipse cx="535.25" cy="183.5" fill="#B4A7E5" rx="11" ry="11" style="stroke:#181818;stroke-width:1.0;"/><path d="M536.2031,180.1406 L536.2031,186.7969 L537.9219,186.7969 Q538.5313,186.7969 538.7969,187.0313 Q539.0625,187.2656 539.0625,187.6563 Q539.0625,188.0313 538.7969,188.2656 Q538.5313,188.5 537.9219,188.5 L532.7813,188.5 Q532.1719,188.5 531.9063,188.2656 Q531.6406,188.0313 531.6406,187.6406 Q531.6406,187.2656 531.9063,187.0313 Q532.1719,186.7969 532.7813,186.7969 L534.5,186.7969 L534.5,180.1406 L532.7813,180.1406 Q532.1719,180.1406 531.9063,179.9063 Q531.6406,179.6719 531.6406,179.2813 Q531.6406,178.9063 531.9063,178.6719 Q532.1719,178.4375 532.7813,178.4375 L537.9219,178.4375 Q538.5313,178.4375 538.7969,178.6719 Q539.0625,178.9063 539.0625,179.2813 Q539.0625,179.6719 538.7969,179.9063 Q538.5313,180.1406 537.9219,180.1406 L536.2031,180.1406 Z " fill="#000000"/><text fill="#000000" font-family="sans-serif" font-size="14" font-style="italic" lengthAdjust="spacing" textLength="57" x="555.75" y="189.2969">SiteState</text><line style="stroke:#181818;stroke-width:0.5;" x1="465" x2="671" y1="199.5" y2="199.5"/><text fill="#000000" font-family="sans-serif" font-size="14" lengthAdjust="spacing" textLength="135" x="470" y="218.6074">+getDay(): LocalDate</text><text fill="#000000" font-family="sans-serif" font-size="14" lengthAdjust="spacing" textLength="196" x="470" y="237.2285">+getDefaultedDay(): LocalDate</text></g><!--class SportItemAvailabilityTable--><g id="elem_SportItemAvailabilityTable"><rect codeLine="71" fill="#F1F1F1" height="215.5898" id="SportItemAvailabilityTable" rx="2.5" ry="2.5" style="stroke:#181818;stroke-width:0.5;" width="752" x="2681" y="383"/><ellipse cx="2971.75" cy="399" fill="#ADD1B2" rx="11" ry="11" style="stroke:#181818;stroke-width:1.0;"/><path d="M2974.5156,394.875 Q2974.6719,394.6563 2974.8594,394.5469 Q2975.0469,394.4375 2975.2656,394.4375 Q2975.6406,394.4375 2975.875,394.7031 Q2976.1094,394.9531 2976.1094,395.5625 L2976.1094,397.0156 Q2976.1094,397.625 2975.875,397.8906 Q2975.6406,398.1563 2975.2656,398.1563 Q2974.9219,398.1563 2974.7188,397.9531 Q2974.5156,397.7656 2974.4063,397.25 Q2974.3594,396.8906 2974.1719,396.7031 Q2973.8438,396.3281 2973.2344,396.1094 Q2972.625,395.8906 2972,395.8906 Q2971.2344,395.8906 2970.5938,396.2188 Q2969.9688,396.5469 2969.4688,397.2969 Q2968.9844,398.0469 2968.9844,399.0781 L2968.9844,400.1719 Q2968.9844,401.4063 2969.875,402.2344 Q2970.7656,403.0469 2972.3594,403.0469 Q2973.2969,403.0469 2973.9531,402.7969 Q2974.3438,402.6406 2974.7656,402.2031 Q2975.0313,401.9375 2975.1719,401.8594 Q2975.3281,401.7813 2975.5313,401.7813 Q2975.8594,401.7813 2976.1094,402.0469 Q2976.375,402.2969 2976.375,402.6406 Q2976.375,402.9844 2976.0313,403.3906 Q2975.5313,403.9688 2974.7344,404.2969 Q2973.6563,404.75 2972.3594,404.75 Q2970.8438,404.75 2969.6406,404.125 Q2968.6563,403.625 2967.9688,402.5625 Q2967.2813,401.4844 2967.2813,400.2031 L2967.2813,399.0469 Q2967.2813,397.7188 2967.8906,396.5781 Q2968.5156,395.4219 2969.6094,394.8125 Q2970.7031,394.1875 2971.9375,394.1875 Q2972.6719,394.1875 2973.3125,394.3594 Q2973.9688,394.5156 2974.5156,394.875 Z " fill="#000000"/><text fill="#000000" font-family="sans-serif" font-size="14" lengthAdjust="spacing" textLength="162" x="2992.25" y="404.7969">SportItemAvailabilityTable</text><line style="stroke:#181818;stroke-width:0.5;" x1="2682" x2="3432" y1="415" y2="415"/><text fill="#000000" font-family="sans-serif" font-size="14" lengthAdjust="spacing" textLength="165" x="2687" y="434.1074">+firstTime: LocalDateTime</text><text fill="#000000" font-family="sans-serif" font-size="14" lengthAdjust="spacing" textLength="164" x="2687" y="452.7285">+lastTime: LocalDateTime</text><text fill="#000000" font-family="sans-serif" font-size="14" lengthAdjust="spacing" textLength="99" x="2687" y="471.3496">+length: Integer</text><text fill="#000000" font-family="sans-serif" font-size="14" lengthAdjust="spacing" textLength="147" x="2687" y="489.9707">+currentItem: SportItem</text><line style="stroke:#181818;stroke-width:0.5;" x1="2682" x2="3432" y1="497.4844" y2="497.4844"/><text fill="#000000" font-family="sans-serif" font-size="14" lengthAdjust="spacing" textLength="630" x="2687" y="516.5918">+SportItemAvailabilityTable(LocalDateTime firstTime, LocalDateTime lastDay, SportItem currentItem)</text><text fill="#000000" font-family="sans-serif" font-size="14" lengthAdjust="spacing" textLength="341" x="2687" y="535.2129">+addMaxAmount(Integer n): SportItemAvailabilityTable</text><text fill="#000000" font-family="sans-serif" font-size="14" lengthAdjust="spacing" textLength="740" x="2687" y="553.834">+addReservations(Optional&lt;UserAccount&gt; user, List&lt;SportItemReservation&gt; reservations): SportItemAvailabilityTable</text><text fill="#000000" font-family="sans-serif" font-size="14" lengthAdjust="spacing" textLength="466" x="2687" y="572.4551">+addSelections(SportItemCart reservationCart): SportItemAvailabilityTable</text><text fill="#000000" font-family="sans-serif" font-size="14" lengthAdjust="spacing" textLength="458" x="2687" y="591.0762">+addPastMarkings(LocalDateTime cutofTime): SportItemAvailabilityTable</text></g><!--class FieldType--><g id="elem_FieldType"><rect codeLine="82" fill="#F1F1F1" height="234.2109" id="FieldType" rx="2.5" ry="2.5" style="stroke:#181818;stroke-width:0.5;" width="427" x="3054.5" y="89"/><ellipse cx="3232.25" cy="105" fill="#EB937F" rx="11" ry="11" style="stroke:#181818;stroke-width:1.0;"/><path d="M3231.1094,105.7969 L3231.1094,108.2969 L3235.4375,108.2969 L3235.4375,107.375 Q3235.4375,106.7656 3235.6719,106.5 Q3235.9219,106.2344 3236.2969,106.2344 Q3236.6719,106.2344 3236.9063,106.5 Q3237.1406,106.7656 3237.1406,107.375 L3237.1406,110 L3229.1406,110 Q3228.5156,110 3228.25,109.7656 Q3228,109.5313 3228,109.1406 Q3228,108.7656 3228.2656,108.5313 Q3228.5313,108.2969 3229.1406,108.2969 L3229.4063,108.2969 L3229.4063,101.6406 L3229.1406,101.6406 Q3228.5156,101.6406 3228.25,101.4063 Q3228,101.1719 3228,100.7813 Q3228,100.4063 3228.25,100.1719 Q3228.5156,99.9375 3229.1406,99.9375 L3236.7656,99.9375 L3236.7656,102.5313 Q3236.7656,103.1406 3236.5313,103.4063 Q3236.3125,103.6563 3235.9219,103.6563 Q3235.5469,103.6563 3235.3125,103.4063 Q3235.0781,103.1406 3235.0781,102.5313 L3235.0781,101.6406 L3231.1094,101.6406 L3231.1094,104.0938 L3232.5938,104.0938 Q3232.5938,103.4375 3232.7188,103.25 Q3232.9844,102.8438 3233.4531,102.8438 Q3233.8281,102.8438 3234.0625,103.1094 Q3234.2969,103.3594 3234.2969,103.9688 L3234.2969,105.9375 Q3234.2969,106.4844 3234.1719,106.6719 Q3233.9063,107.0625 3233.4531,107.0625 Q3232.9844,107.0625 3232.7188,106.6563 Q3232.5938,106.4688 3232.5938,105.7969 L3231.1094,105.7969 Z " fill="#000000"/><text fill="#000000" font-family="sans-serif" font-size="14" lengthAdjust="spacing" textLength="63" x="3252.75" y="110.7969">FieldType</text><line style="stroke:#181818;stroke-width:0.5;" x1="3055.5" x2="3480.5" y1="121" y2="121"/><text fill="#000000" font-family="sans-serif" font-size="14" lengthAdjust="spacing" textLength="142" x="3060.5" y="140.1074">FREE_COMPLETELY,</text><text fill="#000000" font-family="sans-serif" font-size="14" lengthAdjust="spacing" textLength="122" x="3060.5" y="158.7285">FREE_SELECTED,</text><text fill="#000000" font-family="sans-serif" font-size="14" lengthAdjust="spacing" textLength="135" x="3060.5" y="177.3496">RESERVED_OTHER,</text><text fill="#000000" font-family="sans-serif" font-size="14" lengthAdjust="spacing" textLength="122" x="3060.5" y="195.9707">RESERVED_SELF,</text><text fill="#000000" font-family="sans-serif" font-size="14" lengthAdjust="spacing" textLength="97" x="3060.5" y="214.5918">BACK_IN_TIME</text><text fill="#000000" font-family="sans-serif" font-size="14" lengthAdjust="spacing" textLength="116" x="3060.5" y="233.2129">+clickability: String</text><text fill="#000000" font-family="sans-serif" font-size="14" lengthAdjust="spacing" textLength="94" x="3060.5" y="251.834">+value: Integer</text><text fill="#000000" font-family="sans-serif" font-size="14" lengthAdjust="spacing" textLength="83" x="3060.5" y="270.4551">+label: String</text><text fill="#000000" font-family="sans-serif" font-size="14" lengthAdjust="spacing" textLength="84" x="3060.5" y="289.0762">+color: String</text><line style="stroke:#181818;stroke-width:0.5;" x1="3055.5" x2="3480.5" y1="296.5898" y2="296.5898"/><text fill="#000000" font-family="sans-serif" font-size="14" lengthAdjust="spacing" textLength="415" x="3060.5" y="315.6973">+FieldType(Integer size, String arg, String clickability, String color)</text></g><!--class Field--><g id="elem_Field"><rect codeLine="94" fill="#F1F1F1" height="234.2109" id="Field" rx="2.5" ry="2.5" style="stroke:#181818;stroke-width:0.5;" width="347" x="2672.5" y="89"/><ellipse cx="2826.25" cy="105" fill="#ADD1B2" rx="11" ry="11" style="stroke:#181818;stroke-width:1.0;"/><path d="M2829.0156,100.875 Q2829.1719,100.6563 2829.3594,100.5469 Q2829.5469,100.4375 2829.7656,100.4375 Q2830.1406,100.4375 2830.375,100.7031 Q2830.6094,100.9531 2830.6094,101.5625 L2830.6094,103.0156 Q2830.6094,103.625 2830.375,103.8906 Q2830.1406,104.1563 2829.7656,104.1563 Q2829.4219,104.1563 2829.2188,103.9531 Q2829.0156,103.7656 2828.9063,103.25 Q2828.8594,102.8906 2828.6719,102.7031 Q2828.3438,102.3281 2827.7344,102.1094 Q2827.125,101.8906 2826.5,101.8906 Q2825.7344,101.8906 2825.0938,102.2188 Q2824.4688,102.5469 2823.9688,103.2969 Q2823.4844,104.0469 2823.4844,105.0781 L2823.4844,106.1719 Q2823.4844,107.4063 2824.375,108.2344 Q2825.2656,109.0469 2826.8594,109.0469 Q2827.7969,109.0469 2828.4531,108.7969 Q2828.8438,108.6406 2829.2656,108.2031 Q2829.5313,107.9375 2829.6719,107.8594 Q2829.8281,107.7813 2830.0313,107.7813 Q2830.3594,107.7813 2830.6094,108.0469 Q2830.875,108.2969 2830.875,108.6406 Q2830.875,108.9844 2830.5313,109.3906 Q2830.0313,109.9688 2829.2344,110.2969 Q2828.1563,110.75 2826.8594,110.75 Q2825.3438,110.75 2824.1406,110.125 Q2823.1563,109.625 2822.4688,108.5625 Q2821.7813,107.4844 2821.7813,106.2031 L2821.7813,105.0469 Q2821.7813,103.7188 2822.3906,102.5781 Q2823.0156,101.4219 2824.1094,100.8125 Q2825.2031,100.1875 2826.4375,100.1875 Q2827.1719,100.1875 2827.8125,100.3594 Q2828.4688,100.5156 2829.0156,100.875 Z " fill="#000000"/><text fill="#000000" font-family="sans-serif" font-size="14" lengthAdjust="spacing" textLength="31" x="2846.75" y="110.7969">Field</text><line style="stroke:#181818;stroke-width:0.5;" x1="2673.5" x2="3018.5" y1="121" y2="121"/><text fill="#000000" font-family="sans-serif" font-size="14" lengthAdjust="spacing" textLength="106" x="2678.5" y="140.1074">+type: FieldType</text><text fill="#000000" font-family="sans-serif" font-size="14" lengthAdjust="spacing" textLength="93" x="2678.5" y="158.7285">+index: Integer</text><text fill="#000000" font-family="sans-serif" font-size="14" lengthAdjust="spacing" textLength="107" x="2678.5" y="177.3496">+amount: Integer</text><line style="stroke:#181818;stroke-width:0.5;" x1="2673.5" x2="3018.5" y1="184.8633" y2="184.8633"/><text fill="#000000" font-family="sans-serif" font-size="14" lengthAdjust="spacing" textLength="335" x="2678.5" y="203.9707">+Field(FieldType type, Integer index, Integer amount)</text><text fill="#000000" font-family="sans-serif" font-size="14" lengthAdjust="spacing" textLength="172" x="2678.5" y="222.5918">+getFieldType(): FieldType</text><text fill="#000000" font-family="sans-serif" font-size="14" lengthAdjust="spacing" textLength="235" x="2678.5" y="241.2129">+setFieldType(FieldType value): void</text><text fill="#000000" font-family="sans-serif" font-size="14" lengthAdjust="spacing" textLength="123" x="2678.5" y="259.834">+getIndex(): Integer</text><text fill="#000000" font-family="sans-serif" font-size="14" lengthAdjust="spacing" textLength="186" x="2678.5" y="278.4551">+setIndex(Integer value): void</text><text fill="#000000" font-family="sans-serif" font-size="14" lengthAdjust="spacing" textLength="157" x="2678.5" y="297.0762">+getAmount(): FieldType</text><text fill="#000000" font-family="sans-serif" font-size="14" lengthAdjust="spacing" textLength="201" x="2678.5" y="315.6973">+setAmount(Integer value): void</text></g><!--class SportItemCatalogDataInitializer--><g id="elem_SportItemCatalogDataInitializer"><rect codeLine="107" fill="#F1F1F1" height="116.4453" id="SportItemCatalogDataInitializer" rx="2.5" ry="2.5" style="stroke:#181818;stroke-width:0.5;" width="443" x="3468.5" y="433"/><ellipse cx="3589.25" cy="455.291" fill="#ADD1B2" rx="11" ry="11" style="stroke:#181818;stroke-width:1.0;"/><path d="M3592.0156,451.166 Q3592.1719,450.9473 3592.3594,450.8379 Q3592.5469,450.7285 3592.7656,450.7285 Q3593.1406,450.7285 3593.375,450.9941 Q3593.6094,451.2441 3593.6094,451.8535 L3593.6094,453.3066 Q3593.6094,453.916 3593.375,454.1816 Q3593.1406,454.4473 3592.7656,454.4473 Q3592.4219,454.4473 3592.2188,454.2441 Q3592.0156,454.0566 3591.9063,453.541 Q3591.8594,453.1816 3591.6719,452.9941 Q3591.3438,452.6191 3590.7344,452.4004 Q3590.125,452.1816 3589.5,452.1816 Q3588.7344,452.1816 3588.0938,452.5098 Q3587.4688,452.8379 3586.9688,453.5879 Q3586.4844,454.3379 3586.4844,455.3691 L3586.4844,456.4629 Q3586.4844,457.6973 3587.375,458.5254 Q3588.2656,459.3379 3589.8594,459.3379 Q3590.7969,459.3379 3591.4531,459.0879 Q3591.8438,458.9316 3592.2656,458.4941 Q3592.5313,458.2285 3592.6719,458.1504 Q3592.8281,458.0723 3593.0313,458.0723 Q3593.3594,458.0723 3593.6094,458.3379 Q3593.875,458.5879 3593.875,458.9316 Q3593.875,459.2754 3593.5313,459.6816 Q3593.0313,460.2598 3592.2344,460.5879 Q3591.1563,461.041 3589.8594,461.041 Q3588.3438,461.041 3587.1406,460.416 Q3586.1563,459.916 3585.4688,458.8535 Q3584.7813,457.7754 3584.7813,456.4941 L3584.7813,455.3379 Q3584.7813,454.0098 3585.3906,452.8691 Q3586.0156,451.7129 3587.1094,451.1035 Q3588.2031,450.4785 3589.4375,450.4785 Q3590.1719,450.4785 3590.8125,450.6504 Q3591.4688,450.8066 3592.0156,451.166 Z " fill="#000000"/><text fill="#000000" font-family="sans-serif" font-size="12" font-style="italic" lengthAdjust="spacing" textLength="79" x="3666.75" y="450.9492">&#171;Component&#187;</text><text fill="#000000" font-family="sans-serif" font-size="14" lengthAdjust="spacing" textLength="193" x="3609.75" y="469.0684">SportItemCatalogDataInitializer</text><line style="stroke:#181818;stroke-width:0.5;" x1="3469.5" x2="3910.5" y1="477.582" y2="477.582"/><text fill="#000000" font-family="sans-serif" font-size="14" lengthAdjust="spacing" textLength="229" x="3474.5" y="496.6895">-sportItemCatalog: SportItemCatalog</text><line style="stroke:#181818;stroke-width:0.5;" x1="3469.5" x2="3910.5" y1="504.2031" y2="504.2031"/><text fill="#000000" font-family="sans-serif" font-size="14" lengthAdjust="spacing" textLength="431" x="3474.5" y="523.3105">+SportItemCatalogDataInitializer(SportItemCatalog sportItemCatalog)</text><text fill="#000000" font-family="sans-serif" font-size="14" lengthAdjust="spacing" textLength="101" x="3474.5" y="541.9316">+initialize(): void</text></g><!--class SportItemDashboardController--><g id="elem_SportItemDashboardController"><rect codeLine="113" fill="#F1F1F1" height="172.3086" id="SportItemDashboardController" rx="2.5" ry="2.5" style="stroke:#181818;stroke-width:0.5;" width="754" x="1063" y="405"/><ellipse cx="1339.75" cy="427.291" fill="#ADD1B2" rx="11" ry="11" style="stroke:#181818;stroke-width:1.0;"/><path d="M1342.5156,423.166 Q1342.6719,422.9473 1342.8594,422.8379 Q1343.0469,422.7285 1343.2656,422.7285 Q1343.6406,422.7285 1343.875,422.9941 Q1344.1094,423.2441 1344.1094,423.8535 L1344.1094,425.3066 Q1344.1094,425.916 1343.875,426.1816 Q1343.6406,426.4473 1343.2656,426.4473 Q1342.9219,426.4473 1342.7188,426.2441 Q1342.5156,426.0566 1342.4063,425.541 Q1342.3594,425.1816 1342.1719,424.9941 Q1341.8438,424.6191 1341.2344,424.4004 Q1340.625,424.1816 1340,424.1816 Q1339.2344,424.1816 1338.5938,424.5098 Q1337.9688,424.8379 1337.4688,425.5879 Q1336.9844,426.3379 1336.9844,427.3691 L1336.9844,428.4629 Q1336.9844,429.6973 1337.875,430.5254 Q1338.7656,431.3379 1340.3594,431.3379 Q1341.2969,431.3379 1341.9531,431.0879 Q1342.3438,430.9316 1342.7656,430.4941 Q1343.0313,430.2285 1343.1719,430.1504 Q1343.3281,430.0723 1343.5313,430.0723 Q1343.8594,430.0723 1344.1094,430.3379 Q1344.375,430.5879 1344.375,430.9316 Q1344.375,431.2754 1344.0313,431.6816 Q1343.5313,432.2598 1342.7344,432.5879 Q1341.6563,433.041 1340.3594,433.041 Q1338.8438,433.041 1337.6406,432.416 Q1336.6563,431.916 1335.9688,430.8535 Q1335.2813,429.7754 1335.2813,428.4941 L1335.2813,427.3379 Q1335.2813,426.0098 1335.8906,424.8691 Q1336.5156,423.7129 1337.6094,423.1035 Q1338.7031,422.4785 1339.9375,422.4785 Q1340.6719,422.4785 1341.3125,422.6504 Q1341.9688,422.8066 1342.5156,423.166 Z " fill="#000000"/><text fill="#000000" font-family="sans-serif" font-size="12" font-style="italic" lengthAdjust="spacing" textLength="68" x="1422.25" y="422.9492">&#171;Controller&#187;</text><text fill="#000000" font-family="sans-serif" font-size="14" lengthAdjust="spacing" textLength="192" x="1360.25" y="441.0684">SportItemDashboardController</text><line style="stroke:#181818;stroke-width:0.5;" x1="1064" x2="1816" y1="449.582" y2="449.582"/><text fill="#000000" font-family="sans-serif" font-size="14" lengthAdjust="spacing" textLength="197" x="1069" y="468.6895">-itemCatalog: SportItemCatalog</text><line style="stroke:#181818;stroke-width:0.5;" x1="1064" x2="1816" y1="476.2031" y2="476.2031"/><text fill="#000000" font-family="sans-serif" font-size="14" lengthAdjust="spacing" textLength="398" x="1069" y="495.3105">+SportItemDashboardController(SportItemCatalog itemCatalog)</text><text fill="#000000" font-family="sans-serif" font-size="14" lengthAdjust="spacing" textLength="178" x="1069" y="513.9316">+setup(Model model): String</text><text fill="#000000" font-family="sans-serif" font-size="14" lengthAdjust="spacing" textLength="742" x="1069" y="532.5527">+addSportItem(String name, double price, double deposit, int amount, String category, imagePath, String desc): String</text><text fill="#000000" font-family="sans-serif" font-size="14" lengthAdjust="spacing" textLength="532" x="1069" y="551.1738">+changeSportItemAmount(int amountItem, Product.ProductIdentifier equip_id): String</text><text fill="#000000" font-family="sans-serif" font-size="14" lengthAdjust="spacing" textLength="444" x="1069" y="569.7949">+deleteSportItem(String itemName, Product.ProductIdentifier id): String</text></g><!--class SportItemCart--><g id="elem_SportItemCart"><rect codeLine="23" fill="#F1F1F1" height="32" id="SportItemCart" rx="2.5" ry="2.5" style="stroke:#181818;stroke-width:0.5;" width="119" x="1212.5" y="720"/><ellipse cx="1227.5" cy="736" fill="#ADD1B2" rx="11" ry="11" style="stroke:#181818;stroke-width:1.0;"/><path d="M1230.2656,731.875 Q1230.4219,731.6563 1230.6094,731.5469 Q1230.7969,731.4375 1231.0156,731.4375 Q1231.3906,731.4375 1231.625,731.7031 Q1231.8594,731.9531 1231.8594,732.5625 L1231.8594,734.0156 Q1231.8594,734.625 1231.625,734.8906 Q1231.3906,735.1563 1231.0156,735.1563 Q1230.6719,735.1563 1230.4688,734.9531 Q1230.2656,734.7656 1230.1563,734.25 Q1230.1094,733.8906 1229.9219,733.7031 Q1229.5938,733.3281 1228.9844,733.1094 Q1228.375,732.8906 1227.75,732.8906 Q1226.9844,732.8906 1226.3438,733.2188 Q1225.7188,733.5469 1225.2188,734.2969 Q1224.7344,735.0469 1224.7344,736.0781 L1224.7344,737.1719 Q1224.7344,738.4063 1225.625,739.2344 Q1226.5156,740.0469 1228.1094,740.0469 Q1229.0469,740.0469 1229.7031,739.7969 Q1230.0938,739.6406 1230.5156,739.2031 Q1230.7813,738.9375 1230.9219,738.8594 Q1231.0781,738.7813 1231.2813,738.7813 Q1231.6094,738.7813 1231.8594,739.0469 Q1232.125,739.2969 1232.125,739.6406 Q1232.125,739.9844 1231.7813,740.3906 Q1231.2813,740.9688 1230.4844,741.2969 Q1229.4063,741.75 1228.1094,741.75 Q1226.5938,741.75 1225.3906,741.125 Q1224.4063,740.625 1223.7188,739.5625 Q1223.0313,738.4844 1223.0313,737.2031 L1223.0313,736.0469 Q1223.0313,734.7188 1223.6406,733.5781 Q1224.2656,732.4219 1225.3594,731.8125 Q1226.4531,731.1875 1227.6875,731.1875 Q1228.4219,731.1875 1229.0625,731.3594 Q1229.7188,731.5156 1230.2656,731.875 Z " fill="#000000"/><text fill="#000000" font-family="sans-serif" font-size="14" lengthAdjust="spacing" textLength="87" x="1241.5" y="741.7969">SportItemCart</text></g><!--class SportItemReservation--><g id="elem_SportItemReservation"><rect codeLine="24" fill="#F1F1F1" height="89.8242" id="SportItemReservation" rx="2.5" ry="2.5" style="stroke:#181818;stroke-width:0.5;" width="774" x="403" y="691"/><ellipse cx="717.75" cy="713.291" fill="#ADD1B2" rx="11" ry="11" style="stroke:#181818;stroke-width:1.0;"/><path d="M720.5156,709.166 Q720.6719,708.9473 720.8594,708.8379 Q721.0469,708.7285 721.2656,708.7285 Q721.6406,708.7285 721.875,708.9941 Q722.1094,709.2441 722.1094,709.8535 L722.1094,711.3066 Q722.1094,711.916 721.875,712.1816 Q721.6406,712.4473 721.2656,712.4473 Q720.9219,712.4473 720.7188,712.2441 Q720.5156,712.0566 720.4063,711.541 Q720.3594,711.1816 720.1719,710.9941 Q719.8438,710.6191 719.2344,710.4004 Q718.625,710.1816 718,710.1816 Q717.2344,710.1816 716.5938,710.5098 Q715.9688,710.8379 715.4688,711.5879 Q714.9844,712.3379 714.9844,713.3691 L714.9844,714.4629 Q714.9844,715.6973 715.875,716.5254 Q716.7656,717.3379 718.3594,717.3379 Q719.2969,717.3379 719.9531,717.0879 Q720.3438,716.9316 720.7656,716.4941 Q721.0313,716.2285 721.1719,716.1504 Q721.3281,716.0723 721.5313,716.0723 Q721.8594,716.0723 722.1094,716.3379 Q722.375,716.5879 722.375,716.9316 Q722.375,717.2754 722.0313,717.6816 Q721.5313,718.2598 720.7344,718.5879 Q719.6563,719.041 718.3594,719.041 Q716.8438,719.041 715.6406,718.416 Q714.6563,717.916 713.9688,716.8535 Q713.2813,715.7754 713.2813,714.4941 L713.2813,713.3379 Q713.2813,712.0098 713.8906,710.8691 Q714.5156,709.7129 715.6094,709.1035 Q716.7031,708.4785 717.9375,708.4785 Q718.6719,708.4785 719.3125,708.6504 Q719.9688,708.8066 720.5156,709.166 Z " fill="#000000"/><text fill="#000000" font-family="sans-serif" font-size="12" font-style="italic" lengthAdjust="spacing" textLength="44" x="784.25" y="708.9492">&#171;Entity&#187;</text><text fill="#000000" font-family="sans-serif" font-size="14" lengthAdjust="spacing" textLength="136" x="738.25" y="727.0684">SportItemReservation</text><line style="stroke:#181818;stroke-width:0.5;" x1="404" x2="1176" y1="735.582" y2="735.582"/><text fill="#000000" font-family="sans-serif" font-size="14" lengthAdjust="spacing" textLength="762" x="409" y="754.6895">+SportItemReservation(UserAccount userAccount, SportItem sportItem, LocalDateTime arrival, LocalDateTime departure)</text><text fill="#000000" font-family="sans-serif" font-size="14" lengthAdjust="spacing" textLength="187" x="409" y="773.3105">+getIntervalUnit(): ChronoUnit</text></g><!--class SportItemReservationRepository--><g id="elem_SportItemReservationRepository"><rect codeLine="28" fill="#F1F1F1" height="44.582" id="SportItemReservationRepository" rx="2.5" ry="2.5" style="stroke:#181818;stroke-width:0.5;" width="236" x="132" y="713.5"/><ellipse cx="147" cy="735.791" fill="#B4A7E5" rx="11" ry="11" style="stroke:#181818;stroke-width:1.0;"/><path d="M147.9531,732.4316 L147.9531,739.0879 L149.6719,739.0879 Q150.2813,739.0879 150.5469,739.3223 Q150.8125,739.5566 150.8125,739.9473 Q150.8125,740.3223 150.5469,740.5566 Q150.2813,740.791 149.6719,740.791 L144.5313,740.791 Q143.9219,740.791 143.6563,740.5566 Q143.3906,740.3223 143.3906,739.9316 Q143.3906,739.5566 143.6563,739.3223 Q143.9219,739.0879 144.5313,739.0879 L146.25,739.0879 L146.25,732.4316 L144.5313,732.4316 Q143.9219,732.4316 143.6563,732.1973 Q143.3906,731.9629 143.3906,731.5723 Q143.3906,731.1973 143.6563,730.9629 Q143.9219,730.7285 144.5313,730.7285 L149.6719,730.7285 Q150.2813,730.7285 150.5469,730.9629 Q150.8125,731.1973 150.8125,731.5723 Q150.8125,731.9629 150.5469,732.1973 Q150.2813,732.4316 149.6719,732.4316 L147.9531,732.4316 Z " fill="#000000"/><text fill="#000000" font-family="sans-serif" font-size="12" font-style="italic" lengthAdjust="spacing" textLength="73" x="226.5" y="731.4492">&#171;Repository&#187;</text><text fill="#000000" font-family="sans-serif" font-size="14" font-style="italic" lengthAdjust="spacing" textLength="204" x="161" y="749.5684">SportItemReservationRepository</text></g><!--class SportItemReservationDashboardController--><g id="elem_SportItemReservationDashboardController"><rect codeLine="29" fill="#F1F1F1" height="153.6875" id="SportItemReservationDashboardController" rx="2.5" ry="2.5" style="stroke:#181818;stroke-width:0.5;" width="820" x="1691" y="659"/><ellipse cx="1962.75" cy="681.291" fill="#ADD1B2" rx="11" ry="11" style="stroke:#181818;stroke-width:1.0;"/><path d="M1965.5156,677.166 Q1965.6719,676.9473 1965.8594,676.8379 Q1966.0469,676.7285 1966.2656,676.7285 Q1966.6406,676.7285 1966.875,676.9941 Q1967.1094,677.2441 1967.1094,677.8535 L1967.1094,679.3066 Q1967.1094,679.916 1966.875,680.1816 Q1966.6406,680.4473 1966.2656,680.4473 Q1965.9219,680.4473 1965.7188,680.2441 Q1965.5156,680.0566 1965.4063,679.541 Q1965.3594,679.1816 1965.1719,678.9941 Q1964.8438,678.6191 1964.2344,678.4004 Q1963.625,678.1816 1963,678.1816 Q1962.2344,678.1816 1961.5938,678.5098 Q1960.9688,678.8379 1960.4688,679.5879 Q1959.9844,680.3379 1959.9844,681.3691 L1959.9844,682.4629 Q1959.9844,683.6973 1960.875,684.5254 Q1961.7656,685.3379 1963.3594,685.3379 Q1964.2969,685.3379 1964.9531,685.0879 Q1965.3438,684.9316 1965.7656,684.4941 Q1966.0313,684.2285 1966.1719,684.1504 Q1966.3281,684.0723 1966.5313,684.0723 Q1966.8594,684.0723 1967.1094,684.3379 Q1967.375,684.5879 1967.375,684.9316 Q1967.375,685.2754 1967.0313,685.6816 Q1966.5313,686.2598 1965.7344,686.5879 Q1964.6563,687.041 1963.3594,687.041 Q1961.8438,687.041 1960.6406,686.416 Q1959.6563,685.916 1958.9688,684.8535 Q1958.2813,683.7754 1958.2813,682.4941 L1958.2813,681.3379 Q1958.2813,680.0098 1958.8906,678.8691 Q1959.5156,677.7129 1960.6094,677.1035 Q1961.7031,676.4785 1962.9375,676.4785 Q1963.6719,676.4785 1964.3125,676.6504 Q1964.9688,676.8066 1965.5156,677.166 Z " fill="#000000"/><text fill="#000000" font-family="sans-serif" font-size="12" font-style="italic" lengthAdjust="spacing" textLength="68" x="2083.25" y="676.9492">&#171;Controller&#187;</text><text fill="#000000" font-family="sans-serif" font-size="14" lengthAdjust="spacing" textLength="268" x="1983.25" y="695.0684">SportItemReservationDashboardController</text><line style="stroke:#181818;stroke-width:0.5;" x1="1692" x2="2510" y1="703.582" y2="703.582"/><text fill="#000000" font-family="sans-serif" font-size="14" lengthAdjust="spacing" textLength="361" x="1697" y="722.6895">+sportItemReservations: SportItemReservationRepository</text><text fill="#000000" font-family="sans-serif" font-size="14" lengthAdjust="spacing" textLength="177" x="1697" y="741.3105">+accountancy: Accountancy</text><line style="stroke:#181818;stroke-width:0.5;" x1="1692" x2="2510" y1="748.8242" y2="748.8242"/><text fill="#000000" font-family="sans-serif" font-size="14" lengthAdjust="spacing" textLength="808" x="1697" y="767.9316">+SportItemReservationDashboardController(SportItemReservationRepository sportItemReservations, Accountancy accountancy)</text><text fill="#000000" font-family="sans-serif" font-size="14" lengthAdjust="spacing" textLength="201" x="1697" y="786.5527">+customer(Model model): String</text><text fill="#000000" font-family="sans-serif" font-size="14" lengthAdjust="spacing" textLength="491" x="1697" y="805.1738">+returnSportItem(SportItemReservationChangeInformation information): String</text></g><!--class SportItemReservationChangeInformation--><g id="elem_SportItemReservationChangeInformation"><rect codeLine="36" fill="#F1F1F1" height="77.2422" id="SportItemReservationChangeInformation" rx="2.5" ry="2.5" style="stroke:#181818;stroke-width:0.5;" width="289" x="1366.5" y="697.5"/><ellipse cx="1381.5" cy="713.5" fill="#B4A7E5" rx="11" ry="11" style="stroke:#181818;stroke-width:1.0;"/><path d="M1382.4531,710.1406 L1382.4531,716.7969 L1384.1719,716.7969 Q1384.7813,716.7969 1385.0469,717.0313 Q1385.3125,717.2656 1385.3125,717.6563 Q1385.3125,718.0313 1385.0469,718.2656 Q1384.7813,718.5 1384.1719,718.5 L1379.0313,718.5 Q1378.4219,718.5 1378.1563,718.2656 Q1377.8906,718.0313 1377.8906,717.6406 Q1377.8906,717.2656 1378.1563,717.0313 Q1378.4219,716.7969 1379.0313,716.7969 L1380.75,716.7969 L1380.75,710.1406 L1379.0313,710.1406 Q1378.4219,710.1406 1378.1563,709.9063 Q1377.8906,709.6719 1377.8906,709.2813 Q1377.8906,708.9063 1378.1563,708.6719 Q1378.4219,708.4375 1379.0313,708.4375 L1384.1719,708.4375 Q1384.7813,708.4375 1385.0469,708.6719 Q1385.3125,708.9063 1385.3125,709.2813 Q1385.3125,709.6719 1385.0469,709.9063 Q1384.7813,710.1406 1384.1719,710.1406 L1382.4531,710.1406 Z " fill="#000000"/><text fill="#000000" font-family="sans-serif" font-size="14" font-style="italic" lengthAdjust="spacing" textLength="257" x="1395.5" y="719.2969">SportItemReservationChangeInformation</text><line style="stroke:#181818;stroke-width:0.5;" x1="1367.5" x2="1654.5" y1="729.5" y2="729.5"/><text fill="#000000" font-family="sans-serif" font-size="14" lengthAdjust="spacing" textLength="184" x="1372.5" y="748.6074">+getReservationUUID(): UUID</text><text fill="#000000" font-family="sans-serif" font-size="14" lengthAdjust="spacing" textLength="159" x="1372.5" y="767.2285">+getStateValue(): Integer</text></g><!--class Catalog--><g id="elem_Catalog"><rect codeLine="16" fill="#F1F1F1" height="32" id="Catalog" rx="2.5" ry="2.5" style="stroke:#181818;stroke-width:0.5;" width="183" x="4230.5" y="1004"/><ellipse cx="4245.5" cy="1020" fill="#B4A7E5" rx="11" ry="11" style="stroke:#181818;stroke-width:1.0;"/><path d="M4246.4531,1016.6406 L4246.4531,1023.2969 L4248.1719,1023.2969 Q4248.7813,1023.2969 4249.0469,1023.5313 Q4249.3125,1023.7656 4249.3125,1024.1563 Q4249.3125,1024.5313 4249.0469,1024.7656 Q4248.7813,1025 4248.1719,1025 L4243.0313,1025 Q4242.4219,1025 4242.1563,1024.7656 Q4241.8906,1024.5313 4241.8906,1024.1406 Q4241.8906,1023.7656 4242.1563,1023.5313 Q4242.4219,1023.2969 4243.0313,1023.2969 L4244.75,1023.2969 L4244.75,1016.6406 L4243.0313,1016.6406 Q4242.4219,1016.6406 4242.1563,1016.4063 Q4241.8906,1016.1719 4241.8906,1015.7813 Q4241.8906,1015.4063 4242.1563,1015.1719 Q4242.4219,1014.9375 4243.0313,1014.9375 L4248.1719,1014.9375 Q4248.7813,1014.9375 4249.0469,1015.1719 Q4249.3125,1015.4063 4249.3125,1015.7813 Q4249.3125,1016.1719 4249.0469,1016.4063 Q4248.7813,1016.6406 4248.1719,1016.6406 L4246.4531,1016.6406 Z " fill="#000000"/><text fill="#000000" font-family="sans-serif" font-size="14" font-style="italic" lengthAdjust="spacing" textLength="49" x="4259.5" y="1025.7969">Catalog</text><rect fill="#FEFEFE" height="17.9609" style="stroke:#181818;stroke-width:1.0;stroke-dasharray:2.0,2.0;" width="100" x="4316.5" y="1001"/><text fill="#000000" font-family="sans-serif" font-size="12" font-style="italic" lengthAdjust="spacing" textLength="98" x="4317.5" y="1014.9492">T extends Product</text></g><!--class DataInitializer--><g id="elem_DataInitializer"><rect codeLine="17" fill="#F1F1F1" height="32" id="DataInitializer" rx="2.5" ry="2.5" style="stroke:#181818;stroke-width:0.5;" width="118" x="4470" y="1004"/><ellipse cx="4485" cy="1020" fill="#B4A7E5" rx="11" ry="11" style="stroke:#181818;stroke-width:1.0;"/><path d="M4485.9531,1016.6406 L4485.9531,1023.2969 L4487.6719,1023.2969 Q4488.2813,1023.2969 4488.5469,1023.5313 Q4488.8125,1023.7656 4488.8125,1024.1563 Q4488.8125,1024.5313 4488.5469,1024.7656 Q4488.2813,1025 4487.6719,1025 L4482.5313,1025 Q4481.9219,1025 4481.6563,1024.7656 Q4481.3906,1024.5313 4481.3906,1024.1406 Q4481.3906,1023.7656 4481.6563,1023.5313 Q4481.9219,1023.2969 4482.5313,1023.2969 L4484.25,1023.2969 L4484.25,1016.6406 L4482.5313,1016.6406 Q4481.9219,1016.6406 4481.6563,1016.4063 Q4481.3906,1016.1719 4481.3906,1015.7813 Q4481.3906,1015.4063 4481.6563,1015.1719 Q4481.9219,1014.9375 4482.5313,1014.9375 L4487.6719,1014.9375 Q4488.2813,1014.9375 4488.5469,1015.1719 Q4488.8125,1015.4063 4488.8125,1015.7813 Q4488.8125,1016.1719 4488.5469,1016.4063 Q4488.2813,1016.6406 4487.6719,1016.6406 L4485.9531,1016.6406 Z " fill="#000000"/><text fill="#000000" font-family="sans-serif" font-size="14" font-style="italic" lengthAdjust="spacing" textLength="86" x="4499" y="1025.7969">DataInitializer</text></g><!--class ArrayList--><g id="elem_ArrayList"><rect fill="#F1F1F1" height="32" id="ArrayList" rx="2.5" ry="2.5" style="stroke:#181818;stroke-width:0.5;" width="88" x="4206" y="720"/><ellipse cx="4221" cy="736" fill="#ADD1B2" rx="11" ry="11" style="stroke:#181818;stroke-width:1.0;"/><path d="M4223.7656,731.875 Q4223.9219,731.6563 4224.1094,731.5469 Q4224.2969,731.4375 4224.5156,731.4375 Q4224.8906,731.4375 4225.125,731.7031 Q4225.3594,731.9531 4225.3594,732.5625 L4225.3594,734.0156 Q4225.3594,734.625 4225.125,734.8906 Q4224.8906,735.1563 4224.5156,735.1563 Q4224.1719,735.1563 4223.9688,734.9531 Q4223.7656,734.7656 4223.6563,734.25 Q4223.6094,733.8906 4223.4219,733.7031 Q4223.0938,733.3281 4222.4844,733.1094 Q4221.875,732.8906 4221.25,732.8906 Q4220.4844,732.8906 4219.8438,733.2188 Q4219.2188,733.5469 4218.7188,734.2969 Q4218.2344,735.0469 4218.2344,736.0781 L4218.2344,737.1719 Q4218.2344,738.4063 4219.125,739.2344 Q4220.0156,740.0469 4221.6094,740.0469 Q4222.5469,740.0469 4223.2031,739.7969 Q4223.5938,739.6406 4224.0156,739.2031 Q4224.2813,738.9375 4224.4219,738.8594 Q4224.5781,738.7813 4224.7813,738.7813 Q4225.1094,738.7813 4225.3594,739.0469 Q4225.625,739.2969 4225.625,739.6406 Q4225.625,739.9844 4225.2813,740.3906 Q4224.7813,740.9688 4223.9844,741.2969 Q4222.9063,741.75 4221.6094,741.75 Q4220.0938,741.75 4218.8906,741.125 Q4217.9063,740.625 4217.2188,739.5625 Q4216.5313,738.4844 4216.5313,737.2031 L4216.5313,736.0469 Q4216.5313,734.7188 4217.1406,733.5781 Q4217.7656,732.4219 4218.8594,731.8125 Q4219.9531,731.1875 4221.1875,731.1875 Q4221.9219,731.1875 4222.5625,731.3594 Q4223.2188,731.5156 4223.7656,731.875 Z " fill="#000000"/><text fill="#000000" font-family="sans-serif" font-size="14" lengthAdjust="spacing" textLength="56" x="4235" y="741.7969">ArrayList</text></g><!--link SportItem to DetailedProduct--><g id="link_SportItem_DetailedProduct"><path codeLine="124" d="M2625.6,586.85 C2625.6,610.39 2625.6,629 2625.6,629 C2625.6,629 4035,629 4035,629 C4035,629 4035,671.82 4035,701.75 " fill="none" id="SportItem-to-DetailedProduct" style="stroke:#181818;stroke-width:1.0;"/><polygon fill="none" points="4035,719.75,4041,701.75,4029,701.75,4035,719.75" style="stroke:#181818;stroke-width:1.0;"/></g><!--link SportItemCatalog to Catalog--><g id="link_SportItemCatalog_Catalog"><path codeLine="125" d="M2934.34,762 C3344.72,762 4262.25,762 4262.25,762 C4262.25,762 4262.25,929.38 4262.25,985.86 " fill="none" id="SportItemCatalog-to-Catalog" style="stroke:#181818;stroke-width:1.0;"/><polygon fill="none" points="4262.25,1003.86,4268.25,985.86,4256.25,985.86,4262.25,1003.86" style="stroke:#181818;stroke-width:1.0;"/><text fill="#000000" font-family="sans-serif" font-size="13" lengthAdjust="spacing" textLength="135" x="3583.23" y="758.0283">&lt;&lt;bind T-&gt;SportItem&gt;&gt;</text></g><!--link SportItemDashboardController to SportItemCatalog--><g id="link_SportItemDashboardController_SportItemCatalog"><path codeLine="127" d="M1754,577.37 C1754,584.48 1754,589 1754,589 C1754,589 2585.8,589 2585.8,589 C2585.8,589 2585.8,650.91 2585.8,694.42 " fill="none" id="SportItemDashboardController-to-SportItemCatalog" style="stroke:#181818;stroke-width:1.0;stroke-dasharray:7.0,7.0;"/><polygon fill="#181818" points="2585.8,700.42,2589.8,691.42,2585.8,695.42,2581.8,691.42,2585.8,700.42" style="stroke:#181818;stroke-width:1.0;"/><text fill="#000000" font-family="sans-serif" font-size="13" lengthAdjust="spacing" textLength="35" x="2183.79" y="604.0283">&#171;use&#187;</text></g><!--link SportItemCatalogDataInitializer to DataInitializer--><g id="link_SportItemCatalogDataInitializer_DataInitializer"><path codeLine="128" d="M3911.53,491 C4160.11,491 4529,491 4529,491 C4529,491 4529,897.22 4529,985.88 " fill="none" id="SportItemCatalogDataInitializer-to-DataInitializer" style="stroke:#181818;stroke-width:1.0;stroke-dasharray:7.0,7.0;"/><polygon fill="none" points="4529,1003.88,4535,985.88,4523,985.88,4529,1003.88" style="stroke:#181818;stroke-width:1.0;"/></g><!--link SportItemCatalogDataInitializer to SportItemCatalog--><g id="link_SportItemCatalogDataInitializer_SportItemCatalog"><path codeLine="129" d="M3690,549.09 C3690,614.27 3690,711 3690,711 C3690,711 3218.15,711 2940.25,711 " fill="none" id="SportItemCatalogDataInitializer-to-SportItemCatalog" style="stroke:#181818;stroke-width:1.0;stroke-dasharray:7.0,7.0;"/><polygon fill="#181818" points="2934.25,711,2943.25,715,2939.25,711,2943.25,707,2934.25,711" style="stroke:#181818;stroke-width:1.0;"/><text fill="#000000" font-family="sans-serif" font-size="13" lengthAdjust="spacing" textLength="35" x="3357.08" y="707.0283">&#171;use&#187;</text></g><!--link SportItemCatalogController to SportItemCatalog--><g id="link_SportItemCatalogController_SportItemCatalog"><path codeLine="130" d="M1028.24,592 C1618.22,592 2565.9,592 2565.9,592 C2565.9,592 2565.9,651.76 2565.9,694.4 " fill="none" id="SportItemCatalogController-to-SportItemCatalog" style="stroke:#181818;stroke-width:1.0;stroke-dasharray:7.0,7.0;"/><polygon fill="#181818" points="2565.9,700.4,2569.9,691.4,2565.9,695.4,2561.9,691.4,2565.9,700.4" style="stroke:#181818;stroke-width:1.0;"/><text fill="#000000" font-family="sans-serif" font-size="13" lengthAdjust="spacing" textLength="35" x="1815.27" y="607.0283">&#171;use&#187;</text></g><!--reverse link SportItem to SportItemCatalog--><g id="link_SportItem_SportItemCatalog"><path codeLine="131" d="M2605.7,592.78 C2605.7,632.64 2605.7,670.46 2605.7,700.25 " fill="none" id="SportItem-backto-SportItemCatalog" style="stroke:#181818;stroke-width:1.0;stroke-dasharray:7.0,7.0;"/><polygon fill="#181818" points="2605.7,586.78,2601.7,595.78,2605.7,591.78,2609.7,595.78,2605.7,586.78" style="stroke:#181818;stroke-width:1.0;"/><text fill="#000000" font-family="sans-serif" font-size="13" lengthAdjust="spacing" textLength="35" x="2569.7" y="639.5383">&#171;use&#187;</text></g><!--link SportItemCatalogController to SportItemCart--><g id="link_SportItemCatalogController_SportItemCart"><path codeLine="133" d="M1028.24,594 C1161.6,594 1272,594 1272,594 C1272,594 1272,676.85 1272,713.99 " fill="none" id="SportItemCatalogController-to-SportItemCart" style="stroke:#181818;stroke-width:1.0;stroke-dasharray:7.0,7.0;"/><polygon fill="#181818" points="1272,719.99,1276,710.99,1272,714.99,1268,710.99,1272,719.99" style="stroke:#181818;stroke-width:1.0;"/><text fill="#000000" font-family="sans-serif" font-size="13" lengthAdjust="spacing" textLength="35" x="1177.12" y="609.0283">&#171;use&#187;</text></g><!--link SportItemCatalogController to SportItemReservationRepository--><g id="link_SportItemCatalogController_SportItemReservationRepository"><path codeLine="134" d="M250,596.32 C250,639.9 250,680.44 250,707.28 " fill="none" id="SportItemCatalogController-to-SportItemReservationRepository" style="stroke:#181818;stroke-width:1.0;stroke-dasharray:7.0,7.0;"/><polygon fill="#181818" points="250,713.28,254,704.28,250,708.28,246,704.28,250,713.28" style="stroke:#181818;stroke-width:1.0;"/><text fill="#000000" font-family="sans-serif" font-size="13" lengthAdjust="spacing" textLength="35" x="214" y="650.8283">&#171;use&#187;</text></g><!--link SiteState to SportItemCatalogController--><g id="link_SiteState_SportItemCatalogController"><path codeLine="135" d="M568,244.73 C568,280.88 568,320.48 568,369.71 " fill="none" id="SiteState-to-SportItemCatalogController" style="stroke:#181818;stroke-width:1.0;"/><ellipse cx="568" cy="377.71" fill="#FEFEFE" rx="8" ry="8" style="stroke:#181818;stroke-width:1.0;"/><line style="stroke:#181818;stroke-width:1.0;" x1="568" x2="568" y1="369.71" y2="385.71"/><line style="stroke:#181818;stroke-width:1.0;" x1="576" x2="560" y1="377.71" y2="377.71"/></g><!--link SportItemAvailabilityTable to ArrayList--><g id="link_SportItemAvailabilityTable_ArrayList"><path codeLine="137" d="M3433.24,574 C3782.89,574 4250,574 4250,574 C4250,574 4250,660.9 4250,701.87 " fill="none" id="SportItemAvailabilityTable-to-ArrayList" style="stroke:#181818;stroke-width:1.0;"/><polygon fill="none" points="4250,719.87,4256,701.87,4244,701.87,4250,719.87" style="stroke:#181818;stroke-width:1.0;"/><text fill="#000000" font-family="sans-serif" font-size="13" lengthAdjust="spacing" textLength="259" x="3654.56" y="570.0283">&lt;&lt;bind T-&gt;SportItemAvailabilityTable.Field&gt;&gt;</text></g><!--link FieldType to SportItemAvailabilityTable--><g id="link_FieldType_SportItemAvailabilityTable"><path codeLine="139" d="M3243.75,323.15 C3243.75,342.96 3243.75,347.44 3243.75,367 " fill="none" id="FieldType-to-SportItemAvailabilityTable" style="stroke:#181818;stroke-width:1.0;"/><ellipse cx="3243.75" cy="375" fill="#FEFEFE" rx="8" ry="8" style="stroke:#181818;stroke-width:1.0;"/><line style="stroke:#181818;stroke-width:1.0;" x1="3243.75" x2="3243.75" y1="367" y2="383"/><line style="stroke:#181818;stroke-width:1.0;" x1="3251.75" x2="3235.75" y1="375" y2="375"/></g><!--link Field to SportItemAvailabilityTable--><g id="link_Field_SportItemAvailabilityTable"><path codeLine="140" d="M2850.25,323.15 C2850.25,342.96 2850.25,347.44 2850.25,367 " fill="none" id="Field-to-SportItemAvailabilityTable" style="stroke:#181818;stroke-width:1.0;"/><ellipse cx="2850.25" cy="375" fill="#FEFEFE" rx="8" ry="8" style="stroke:#181818;stroke-width:1.0;"/><line style="stroke:#181818;stroke-width:1.0;" x1="2850.25" x2="2850.25" y1="367" y2="383"/><line style="stroke:#181818;stroke-width:1.0;" x1="2858.25" x2="2842.25" y1="375" y2="375"/></g><!--link SportItemReservationRepository to ReservationRepository--><g id="link_SportItemReservationRepository_ReservationRepository"><path codeLine="142" d="M295,758.76 C295,814.31 295,937.76 295,985.77 " fill="none" id="SportItemReservationRepository-to-ReservationRepository" style="stroke:#181818;stroke-width:1.0;"/><polygon fill="none" points="295,1003.77,301,985.77,289,985.77,295,1003.77" style="stroke:#181818;stroke-width:1.0;"/><text fill="#000000" font-family="sans-serif" font-size="13" lengthAdjust="spacing" textLength="287" x="7" y="877.2983">&lt;&lt;bind T-&gt;SportItem, U-&gt;SportItemReservation&gt;&gt;</text></g><!--link SportItemReservation to Reservation--><g id="link_SportItemReservation_Reservation"><path codeLine="143" d="M790,781 C790,845.6 790,943.49 790,985.89 " fill="none" id="SportItemReservation-to-Reservation" style="stroke:#181818;stroke-width:1.0;"/><polygon fill="none" points="790,1003.89,796,985.89,784,985.89,790,1003.89" style="stroke:#181818;stroke-width:1.0;"/><text fill="#000000" font-family="sans-serif" font-size="13" lengthAdjust="spacing" textLength="135" x="654" y="888.4783">&lt;&lt;bind T-&gt;SportItem&gt;&gt;</text></g><!--link SportItemCart to Cart--><g id="link_SportItemCart_Cart"><path codeLine="144" d="M1227.25,752.08 C1227.25,801.95 1227.25,935.63 1227.25,985.74 " fill="none" id="SportItemCart-to-Cart" style="stroke:#181818;stroke-width:1.0;"/><polygon fill="none" points="1227.25,1003.74,1233.25,985.74,1221.25,985.74,1227.25,1003.74" style="stroke:#181818;stroke-width:1.0;"/><text fill="#000000" font-family="sans-serif" font-size="13" lengthAdjust="spacing" textLength="287" x="939.25" y="873.9383">&lt;&lt;bind T-&gt;SportItem, U-&gt;SportItemReservation&gt;&gt;</text></g><!--link SportItemReservationChangeInformation to SportItemReservationDashboardController--><g id="link_SportItemReservationChangeInformation_SportItemReservationDashboardController"><path codeLine="146" d="M1655.71,736 C1667.05,736 1662.8,736 1674.85,736 " fill="none" id="SportItemReservationChangeInformation-to-SportItemReservationDashboardController" style="stroke:#181818;stroke-width:1.0;"/><ellipse cx="1682.85" cy="736" fill="#FEFEFE" rx="8" ry="8" style="stroke:#181818;stroke-width:1.0;"/><line style="stroke:#181818;stroke-width:1.0;" x1="1674.85" x2="1690.85" y1="736" y2="736"/><line style="stroke:#181818;stroke-width:1.0;" x1="1682.85" x2="1682.85" y1="728" y2="744"/></g><!--SRC=[pLXRR-8u57xdLrZQ5we2scU48Z6GQj6sqwhGaVQfSXC3tZfnrdRQChFpt_SuJcmdSKaxJzjAGEnp-Npkpf6c196iK2UqfuIbSdHqAnbHHmvByfdc1HOuGmd3KYwL4lIfL6IJy7nBlnFqkqV2Q4xKgI282-3sDhxWvFaWU9cdAywuGBzTnVf_X1dZhnbze_d1eow06X_8LfqOGLUmGaQZIZjAS5O0RS6m-Zuh5MLojYOAKqRIEy7JCb4XGa4a4IzOKPxFLbYenGwHDqNoLAAQQu8UxDAzerxiecX8O8kyApSQqLmHiSS9-P24Ur9mIHKNfyzX7DKc0yCVVemG_3KB4ZCY2mumzjgGhrmy6mBzvuDJcF43cAVw3fqamCG5cQs1OvDJHJ63S10LsS_HJmUfTMxoJqaBr85OGBXi5CcyKqb3Oco_RGYqyqBhlZaMSQweEaMHaN0P8Xe_mCzbaa10AbIwtnCdqg6Qe6kUO0Rd93kQ4OI5e2-OTPTJ0i6hIa4kZDu3KHjjAI1z0FECB-PeTHGyv_gfjbBRd26aBY3GOk4UecZ036iiZqyS2yYtN0dE616BXVjjhHEq_Nm0Yc75ncOuJqvpj7GFxviz06eySEWWlecl3dauQjCdfLGy0-4tF2KCPVeJpB-5qWLrfY8H15oLM-L16AiZpWzaa- -voAe5y9NztPRt4LVsnFsmWU9HFJnirZfMzBVTtog8ic-ObKHlwR0ws4mpdw5mwAR256VQK7EDqooanj1pTCDpqdNSs9mFvL0s9eO22GA6PbV4BjGI9hKnT1qX1t3SH2j1Hg7Tf1ca-nrMHxkI4fa8MbG6jQTTLbpwf0tGIsbNjTWNRGdOVk4qjLnhWqIpUQUHRiC0xl6-wxgw57RohdRQdkRfbzCc7TVbSLP_RrAm48LsAX1DGSrjTJRC5bPir7Xi5AvmbTBpMJkbZdBUupKa8fHE7qlizy6CUyRna4o62bWGKkrsQZk8hl7QYVsYhvrP5hMsCxajZ_pLSflnGFha4-SLhmz4LIE0Gy2Hgdn3Kd- -qn9QwFoJwUSEdh98GT3_2H5EqrPPFhN1TBjZ048OGrsP89jIylOfIBqiR1Iw8gbX0fFjkbxcxt7954c353z3QRPy0HVW9ygWFExm4oCshOLKkftFsztTx8ACCviaFwXZkpf39nAwP6gLNaHtqgm7PjoUB2oexiYXyS2P_O3m55vONz_WjxfwDWxA_GJhwGy5YHoV2z5hAjKYbFwHxtRvCQrRmaXYT0v6qB2qEp3I3HPmkJZ8Zc6JKl6z_ZKioKGHoSiCNUcxqWvkEIPchkxZ-75rUtDt7U_YwxycRd4RNyUhNRmsI_VnDhx_5gyVRtT_nFUTDI2zCajVbgi_7pTV7tURcxYE8KPXJZQ0scbSzR9En05qmjfaYRvojPVi6Mn4I2YzjYrZSN0TtLFl5hN8Yrv-LMBhLDBtmBapLbFceJ1q43TJIMknuXjRRgIbzUfBysWak072dUwYXq3wsqv-SAJOQ3NTYKjBC1kD-Y2l6sBw03h961X9pem6dVkMdW-o0aORICPcF90TbdTcXCi1qVrktnNSQzxZuMC4BW7e5uUSotD2pyug5zv0SMQIqCKeF0wdl8JIW0f14_TaX-70xEiDni4fkACvgIuBhYYvuTV8DVts_U6pkcS_LYEeBnQEIBnHf3cJjipNwbm3usohO-jBlkiyq-c_4Ug-ZEdveA9glBfOF44cezqqSjDnvCaCXSfi5lM20GH16mBMWO06Pesnyy9YcEaJ6dyLAPgLFhcb-uG2eJwDAZYdEobsw9jEByzSKJoGlUPf7FutVi7LwxhPKWXyqjF270MytsEVLSLJsy6LwXQOVhUk28U8HWDNbGfrs3eXt30oUq_- -1C5DVNa1wMs7GdpJvqybQC_XM7qiTSRlitElxQ1o-j_]--></g></svg>