<?xml version="1.0" encoding="us-ascii" standalone="no"?><svg xmlns="http://www.w3.org/2000/svg" xmlns:xlink="http://www.w3.org/1999/xlink" contentStyleType="text/css" height="1046px" preserveAspectRatio="none" style="width:3562px;height:1046px;background:#FEFEFE;" version="1.1" viewBox="0 0 3562 1046" width="3562px" zoomAndPan="magnify"><defs/><g><rect fill="#FEFEFE" height="1046" style="stroke:none;stroke-width:1.0;" width="3562" x="0" y="0"/><!--cluster campingplatz--><g id="cluster_campingplatz"><rect fill="none" height="717" rx="2.5" ry="2.5" style="stroke:#000000;stroke-width:1.5;" width="3549" x="7" y="7"/><path d="M109,7 L109,18.6211 L99,28.6211 L7,28.6211 " fill="none" style="stroke:#000000;stroke-width:1.5;"/><text fill="#000000" font-family="sans-serif" font-size="14" font-weight="bold" lengthAdjust="spacing" textLength="92" x="10" y="23.1074">campingplatz</text></g><!--cluster utils--><g id="cluster_utils"><rect fill="none" height="85" rx="2.5" ry="2.5" style="stroke:#000000;stroke-width:1.5;" width="104" x="3428" y="555"/><path d="M3468,555 L3468,566.6211 L3458,576.6211 L3428,576.6211 " fill="none" style="stroke:#000000;stroke-width:1.5;"/><text fill="#000000" font-family="sans-serif" font-size="14" font-weight="bold" lengthAdjust="spacing" textLength="30" x="3431" y="571.1074">utils</text></g><!--cluster reservation--><g id="cluster_reservation"><rect fill="none" height="648" rx="2.5" ry="2.5" style="stroke:#000000;stroke-width:1.5;" width="3373" x="31" y="52"/><path d="M123,52 L123,63.6211 L113,73.6211 L31,73.6211 " fill="none" style="stroke:#000000;stroke-width:1.5;"/><text fill="#000000" font-family="sans-serif" font-size="14" font-weight="bold" lengthAdjust="spacing" textLength="82" x="34" y="68.1074">reservation</text></g><!--cluster org--><g id="cluster_org"><rect fill="none" height="292" rx="2.5" ry="2.5" style="stroke:#000000;stroke-width:1.5;" width="525" x="2670" y="748"/><path d="M2704,748 L2704,759.6211 L2694,769.6211 L2670,769.6211 " fill="none" style="stroke:#000000;stroke-width:1.5;"/><text fill="#000000" font-family="sans-serif" font-size="14" font-weight="bold" lengthAdjust="spacing" textLength="24" x="2673" y="764.1074">org</text></g><!--cluster salespointframework--><g id="cluster_salespointframework"><rect fill="none" height="85" rx="2.5" ry="2.5" style="stroke:#000000;stroke-width:1.5;" width="163" x="3008" y="883"/><path d="M3165,883 L3165,894.6211 L3155,904.6211 L3008,904.6211 " fill="none" style="stroke:#000000;stroke-width:1.5;"/><text fill="#000000" font-family="sans-serif" font-size="14" font-weight="bold" lengthAdjust="spacing" textLength="147" x="3011" y="899.1074">salespointframework</text></g><!--cluster springframework--><g id="cluster_springframework"><rect fill="none" height="223" rx="2.5" ry="2.5" style="stroke:#000000;stroke-width:1.5;" width="290" x="2694" y="793"/><path d="M2823,793 L2823,804.6211 L2813,814.6211 L2694,814.6211 " fill="none" style="stroke:#000000;stroke-width:1.5;"/><text fill="#000000" font-family="sans-serif" font-size="14" font-weight="bold" lengthAdjust="spacing" textLength="119" x="2697" y="809.1074">springframework</text></g><!--cluster data--><g id="cluster_data"><rect fill="none" height="154" rx="2.5" ry="2.5" style="stroke:#000000;stroke-width:1.5;" width="242" x="2718" y="838"/><path d="M2758,838 L2758,849.6211 L2748,859.6211 L2718,859.6211 " fill="none" style="stroke:#000000;stroke-width:1.5;"/><text fill="#000000" font-family="sans-serif" font-size="14" font-weight="bold" lengthAdjust="spacing" textLength="30" x="2721" y="854.1074">data</text></g><!--cluster repository--><g id="cluster_repository"><rect fill="none" height="85" rx="2.5" ry="2.5" style="stroke:#000000;stroke-width:1.5;" width="194" x="2742" y="883"/><path d="M2824,883 L2824,894.6211 L2814,904.6211 L2742,904.6211 " fill="none" style="stroke:#000000;stroke-width:1.5;"/><text fill="#000000" font-family="sans-serif" font-size="14" font-weight="bold" lengthAdjust="spacing" textLength="72" x="2745" y="899.1074">repository</text></g><!--class Priced--><g id="elem_Priced"><rect codeLine="9" fill="#F1F1F1" height="32" id="Priced" rx="2.5" ry="2.5" style="stroke:#181818;stroke-width:0.5;" width="72" x="3444" y="592"/><ellipse cx="3459" cy="608" fill="#B4A7E5" rx="11" ry="11" style="stroke:#181818;stroke-width:1.0;"/><path d="M3459.9531,604.6406 L3459.9531,611.2969 L3461.6719,611.2969 Q3462.2813,611.2969 3462.5469,611.5313 Q3462.8125,611.7656 3462.8125,612.1563 Q3462.8125,612.5313 3462.5469,612.7656 Q3462.2813,613 3461.6719,613 L3456.5313,613 Q3455.9219,613 3455.6563,612.7656 Q3455.3906,612.5313 3455.3906,612.1406 Q3455.3906,611.7656 3455.6563,611.5313 Q3455.9219,611.2969 3456.5313,611.2969 L3458.25,611.2969 L3458.25,604.6406 L3456.5313,604.6406 Q3455.9219,604.6406 3455.6563,604.4063 Q3455.3906,604.1719 3455.3906,603.7813 Q3455.3906,603.4063 3455.6563,603.1719 Q3455.9219,602.9375 3456.5313,602.9375 L3461.6719,602.9375 Q3462.2813,602.9375 3462.5469,603.1719 Q3462.8125,603.4063 3462.8125,603.7813 Q3462.8125,604.1719 3462.5469,604.4063 Q3462.2813,604.6406 3461.6719,604.6406 L3459.9531,604.6406 Z " fill="#000000"/><text fill="#000000" font-family="sans-serif" font-size="14" font-style="italic" lengthAdjust="spacing" textLength="40" x="3473" y="613.7969">Priced</text></g><!--class Cart--><g id="elem_Cart"><rect codeLine="10" fill="#F1F1F1" height="32" id="Cart" rx="2.5" ry="2.5" style="stroke:#181818;stroke-width:0.5;" width="59" x="1476.5" y="592"/><ellipse cx="1491.5" cy="608" fill="#ADD1B2" rx="11" ry="11" style="stroke:#181818;stroke-width:1.0;"/><path d="M1494.2656,603.875 Q1494.4219,603.6563 1494.6094,603.5469 Q1494.7969,603.4375 1495.0156,603.4375 Q1495.3906,603.4375 1495.625,603.7031 Q1495.8594,603.9531 1495.8594,604.5625 L1495.8594,606.0156 Q1495.8594,606.625 1495.625,606.8906 Q1495.3906,607.1563 1495.0156,607.1563 Q1494.6719,607.1563 1494.4688,606.9531 Q1494.2656,606.7656 1494.1563,606.25 Q1494.1094,605.8906 1493.9219,605.7031 Q1493.5938,605.3281 1492.9844,605.1094 Q1492.375,604.8906 1491.75,604.8906 Q1490.9844,604.8906 1490.3438,605.2188 Q1489.7188,605.5469 1489.2188,606.2969 Q1488.7344,607.0469 1488.7344,608.0781 L1488.7344,609.1719 Q1488.7344,610.4063 1489.625,611.2344 Q1490.5156,612.0469 1492.1094,612.0469 Q1493.0469,612.0469 1493.7031,611.7969 Q1494.0938,611.6406 1494.5156,611.2031 Q1494.7813,610.9375 1494.9219,610.8594 Q1495.0781,610.7813 1495.2813,610.7813 Q1495.6094,610.7813 1495.8594,611.0469 Q1496.125,611.2969 1496.125,611.6406 Q1496.125,611.9844 1495.7813,612.3906 Q1495.2813,612.9688 1494.4844,613.2969 Q1493.4063,613.75 1492.1094,613.75 Q1490.5938,613.75 1489.3906,613.125 Q1488.4063,612.625 1487.7188,611.5625 Q1487.0313,610.4844 1487.0313,609.2031 L1487.0313,608.0469 Q1487.0313,606.7188 1487.6406,605.5781 Q1488.2656,604.4219 1489.3594,603.8125 Q1490.4531,603.1875 1491.6875,603.1875 Q1492.4219,603.1875 1493.0625,603.3594 Q1493.7188,603.5156 1494.2656,603.875 Z " fill="#000000"/><text fill="#000000" font-family="sans-serif" font-size="14" lengthAdjust="spacing" textLength="27" x="1505.5" y="613.7969">Cart</text></g><!--class Reservation--><g id="elem_Reservation"><rect codeLine="24" fill="#F1F1F1" height="383.1797" id="Reservation" rx="2.5" ry="2.5" style="stroke:#181818;stroke-width:0.5;" width="560" x="1823" y="89"/><ellipse cx="2009.75" cy="105" fill="#ADD1B2" rx="11" ry="11" style="stroke:#181818;stroke-width:1.0;"/><path d="M2012.5156,100.875 Q2012.6719,100.6563 2012.8594,100.5469 Q2013.0469,100.4375 2013.2656,100.4375 Q2013.6406,100.4375 2013.875,100.7031 Q2014.1094,100.9531 2014.1094,101.5625 L2014.1094,103.0156 Q2014.1094,103.625 2013.875,103.8906 Q2013.6406,104.1563 2013.2656,104.1563 Q2012.9219,104.1563 2012.7188,103.9531 Q2012.5156,103.7656 2012.4063,103.25 Q2012.3594,102.8906 2012.1719,102.7031 Q2011.8438,102.3281 2011.2344,102.1094 Q2010.625,101.8906 2010,101.8906 Q2009.2344,101.8906 2008.5938,102.2188 Q2007.9688,102.5469 2007.4688,103.2969 Q2006.9844,104.0469 2006.9844,105.0781 L2006.9844,106.1719 Q2006.9844,107.4063 2007.875,108.2344 Q2008.7656,109.0469 2010.3594,109.0469 Q2011.2969,109.0469 2011.9531,108.7969 Q2012.3438,108.6406 2012.7656,108.2031 Q2013.0313,107.9375 2013.1719,107.8594 Q2013.3281,107.7813 2013.5313,107.7813 Q2013.8594,107.7813 2014.1094,108.0469 Q2014.375,108.2969 2014.375,108.6406 Q2014.375,108.9844 2014.0313,109.3906 Q2013.5313,109.9688 2012.7344,110.2969 Q2011.6563,110.75 2010.3594,110.75 Q2008.8438,110.75 2007.6406,110.125 Q2006.6563,109.625 2005.9688,108.5625 Q2005.2813,107.4844 2005.2813,106.2031 L2005.2813,105.0469 Q2005.2813,103.7188 2005.8906,102.5781 Q2006.5156,101.4219 2007.6094,100.8125 Q2008.7031,100.1875 2009.9375,100.1875 Q2010.6719,100.1875 2011.3125,100.3594 Q2011.9688,100.5156 2012.5156,100.875 Z " fill="#000000"/><text fill="#000000" font-family="sans-serif" font-size="14" lengthAdjust="spacing" textLength="76" x="2030.25" y="110.7969">Reservation</text><rect fill="#FEFEFE" height="17.9609" style="stroke:#181818;stroke-width:1.0;stroke-dasharray:2.0,2.0;" width="100" x="2286" y="86"/><text fill="#000000" font-family="sans-serif" font-size="12" font-style="italic" lengthAdjust="spacing" textLength="98" x="2287" y="99.9492">T extends Product</text><line style="stroke:#181818;stroke-width:0.5;" x1="1824" x2="2382" y1="121" y2="121"/><text fill="#000000" font-family="sans-serif" font-size="14" lengthAdjust="spacing" textLength="58" x="1829" y="140.1074">+id: UUID</text><text fill="#000000" font-family="sans-serif" font-size="14" lengthAdjust="spacing" textLength="121" x="1829" y="158.7285">-user: UserAccount</text><text fill="#000000" font-family="sans-serif" font-size="14" lengthAdjust="spacing" textLength="70" x="1829" y="177.3496">-product: T</text><text fill="#000000" font-family="sans-serif" font-size="14" lengthAdjust="spacing" textLength="143" x="1829" y="195.9707">-begin: LocalDateTime</text><text fill="#000000" font-family="sans-serif" font-size="14" lengthAdjust="spacing" textLength="132" x="1829" y="214.5918">-end: LocalDateTime</text><line style="stroke:#181818;stroke-width:0.5;" x1="1824" x2="2382" y1="222.1055" y2="222.1055"/><text fill="#000000" font-family="sans-serif" font-size="14" lengthAdjust="spacing" textLength="548" x="1829" y="241.2129">+Reservation(UserAccount user, T product, LocalDateTime begin, LocalDateTime end)</text><text fill="#000000" font-family="sans-serif" font-size="14" lengthAdjust="spacing" textLength="185" x="1829" y="259.834">+getPrice(): MonetaryAmount</text><text fill="#000000" font-family="sans-serif" font-size="14" lengthAdjust="spacing" textLength="187" x="1829" y="278.4551">+getIntervalUnit(): ChronoUnit</text><text fill="#000000" font-family="sans-serif" font-size="14" lengthAdjust="spacing" textLength="105" x="1829" y="297.0762">+duration(): long</text><text fill="#000000" font-family="sans-serif" font-size="14" lengthAdjust="spacing" textLength="88" x="1829" y="315.6973">+getId(): UUID</text><text fill="#000000" font-family="sans-serif" font-size="14" lengthAdjust="spacing" textLength="155" x="1829" y="334.3184">+getUser(): UserAccount</text><text fill="#000000" font-family="sans-serif" font-size="14" lengthAdjust="spacing" textLength="218" x="1829" y="352.9395">+setUser(UserAccount value): void</text><text fill="#000000" font-family="sans-serif" font-size="14" lengthAdjust="spacing" textLength="104" x="1829" y="371.5605">+getProduct(): T</text><text fill="#000000" font-family="sans-serif" font-size="14" lengthAdjust="spacing" textLength="167" x="1829" y="390.1816">+setProduct(T value): void</text><text fill="#000000" font-family="sans-serif" font-size="14" lengthAdjust="spacing" textLength="177" x="1829" y="408.8027">+getBegin(): LocalDateTime</text><text fill="#000000" font-family="sans-serif" font-size="14" lengthAdjust="spacing" textLength="240" x="1829" y="427.4238">+setBegin(LocalDateTime value): void</text><text fill="#000000" font-family="sans-serif" font-size="14" lengthAdjust="spacing" textLength="166" x="1829" y="446.0449">+getEnd(): LocalDateTime</text><text fill="#000000" font-family="sans-serif" font-size="14" lengthAdjust="spacing" textLength="229" x="1829" y="464.666">+setEnd(LocalDateTime value): void</text></g><!--class ReservationController--><g id="elem_ReservationController"><rect codeLine="44" fill="#F1F1F1" height="141.1055" id="ReservationController" rx="2.5" ry="2.5" style="stroke:#181818;stroke-width:0.5;" width="563" x="1224.5" y="210"/><ellipse cx="1432.75" cy="226" fill="#ADD1B2" rx="11" ry="11" style="stroke:#181818;stroke-width:1.0;"/><path d="M1435.5156,221.875 Q1435.6719,221.6563 1435.8594,221.5469 Q1436.0469,221.4375 1436.2656,221.4375 Q1436.6406,221.4375 1436.875,221.7031 Q1437.1094,221.9531 1437.1094,222.5625 L1437.1094,224.0156 Q1437.1094,224.625 1436.875,224.8906 Q1436.6406,225.1563 1436.2656,225.1563 Q1435.9219,225.1563 1435.7188,224.9531 Q1435.5156,224.7656 1435.4063,224.25 Q1435.3594,223.8906 1435.1719,223.7031 Q1434.8438,223.3281 1434.2344,223.1094 Q1433.625,222.8906 1433,222.8906 Q1432.2344,222.8906 1431.5938,223.2188 Q1430.9688,223.5469 1430.4688,224.2969 Q1429.9844,225.0469 1429.9844,226.0781 L1429.9844,227.1719 Q1429.9844,228.4063 1430.875,229.2344 Q1431.7656,230.0469 1433.3594,230.0469 Q1434.2969,230.0469 1434.9531,229.7969 Q1435.3438,229.6406 1435.7656,229.2031 Q1436.0313,228.9375 1436.1719,228.8594 Q1436.3281,228.7813 1436.5313,228.7813 Q1436.8594,228.7813 1437.1094,229.0469 Q1437.375,229.2969 1437.375,229.6406 Q1437.375,229.9844 1437.0313,230.3906 Q1436.5313,230.9688 1435.7344,231.2969 Q1434.6563,231.75 1433.3594,231.75 Q1431.8438,231.75 1430.6406,231.125 Q1429.6563,230.625 1428.9688,229.5625 Q1428.2813,228.4844 1428.2813,227.2031 L1428.2813,226.0469 Q1428.2813,224.7188 1428.8906,223.5781 Q1429.5156,222.4219 1430.6094,221.8125 Q1431.7031,221.1875 1432.9375,221.1875 Q1433.6719,221.1875 1434.3125,221.3594 Q1434.9688,221.5156 1435.5156,221.875 Z " fill="#000000"/><text fill="#000000" font-family="sans-serif" font-size="14" lengthAdjust="spacing" textLength="138" x="1453.25" y="231.7969">ReservationController</text><line style="stroke:#181818;stroke-width:0.5;" x1="1225.5" x2="1786.5" y1="242" y2="242"/><text fill="#000000" font-family="sans-serif" font-size="14" lengthAdjust="spacing" textLength="336" x="1230.5" y="261.1074">-reservationRepository: ReservationRepository&lt;Plot&gt;</text><line style="stroke:#181818;stroke-width:0.5;" x1="1225.5" x2="1786.5" y1="268.6211" y2="268.6211"/><text fill="#000000" font-family="sans-serif" font-size="14" lengthAdjust="spacing" textLength="169" x="1230.5" y="287.7285">+initializeCart(): Cart&lt;Plot&gt;</text><text fill="#000000" font-family="sans-serif" font-size="14" lengthAdjust="spacing" textLength="515" x="1230.5" y="306.3496">+cart(Model model, UserAccount userAccount, Cart&lt;Plot&gt; reservationCart): String</text><text fill="#000000" font-family="sans-serif" font-size="14" lengthAdjust="spacing" textLength="551" x="1230.5" y="324.9707">+reservate(Model model, UserAccount userAccount, Cart&lt;Plot&gt; reservationCart): String</text><text fill="#000000" font-family="sans-serif" font-size="14" lengthAdjust="spacing" textLength="304" x="1230.5" y="343.5918">+orders(Model model, UserAccount user): String</text></g><!--class ReservationDataInitializer--><g id="elem_ReservationDataInitializer"><rect codeLine="51" fill="#F1F1F1" height="141.1055" id="ReservationDataInitializer" rx="2.5" ry="2.5" style="stroke:#181818;stroke-width:0.5;" width="969" x="2418.5" y="210"/><ellipse cx="2818.75" cy="226" fill="#ADD1B2" rx="11" ry="11" style="stroke:#181818;stroke-width:1.0;"/><path d="M2821.5156,221.875 Q2821.6719,221.6563 2821.8594,221.5469 Q2822.0469,221.4375 2822.2656,221.4375 Q2822.6406,221.4375 2822.875,221.7031 Q2823.1094,221.9531 2823.1094,222.5625 L2823.1094,224.0156 Q2823.1094,224.625 2822.875,224.8906 Q2822.6406,225.1563 2822.2656,225.1563 Q2821.9219,225.1563 2821.7188,224.9531 Q2821.5156,224.7656 2821.4063,224.25 Q2821.3594,223.8906 2821.1719,223.7031 Q2820.8438,223.3281 2820.2344,223.1094 Q2819.625,222.8906 2819,222.8906 Q2818.2344,222.8906 2817.5938,223.2188 Q2816.9688,223.5469 2816.4688,224.2969 Q2815.9844,225.0469 2815.9844,226.0781 L2815.9844,227.1719 Q2815.9844,228.4063 2816.875,229.2344 Q2817.7656,230.0469 2819.3594,230.0469 Q2820.2969,230.0469 2820.9531,229.7969 Q2821.3438,229.6406 2821.7656,229.2031 Q2822.0313,228.9375 2822.1719,228.8594 Q2822.3281,228.7813 2822.5313,228.7813 Q2822.8594,228.7813 2823.1094,229.0469 Q2823.375,229.2969 2823.375,229.6406 Q2823.375,229.9844 2823.0313,230.3906 Q2822.5313,230.9688 2821.7344,231.2969 Q2820.6563,231.75 2819.3594,231.75 Q2817.8438,231.75 2816.6406,231.125 Q2815.6563,230.625 2814.9688,229.5625 Q2814.2813,228.4844 2814.2813,227.2031 L2814.2813,226.0469 Q2814.2813,224.7188 2814.8906,223.5781 Q2815.5156,222.4219 2816.6094,221.8125 Q2817.7031,221.1875 2818.9375,221.1875 Q2819.6719,221.1875 2820.3125,221.3594 Q2820.9688,221.5156 2821.5156,221.875 Z " fill="#000000"/><text fill="#000000" font-family="sans-serif" font-size="14" lengthAdjust="spacing" textLength="160" x="2839.25" y="231.7969">ReservationDataInitializer</text><line style="stroke:#181818;stroke-width:0.5;" x1="2419.5" x2="3386.5" y1="242" y2="242"/><text fill="#000000" font-family="sans-serif" font-size="14" lengthAdjust="spacing" textLength="336" x="2424.5" y="261.1074">-reservationRepository: ReservationRepository&lt;Plot&gt;</text><text fill="#000000" font-family="sans-serif" font-size="14" lengthAdjust="spacing" textLength="296" x="2424.5" y="279.7285">-customerManagement: CustomerManagement</text><text fill="#000000" font-family="sans-serif" font-size="14" lengthAdjust="spacing" textLength="158" x="2424.5" y="298.3496">-plotCatalog: PlotCatalog</text><line style="stroke:#181818;stroke-width:0.5;" x1="2419.5" x2="3386.5" y1="305.8633" y2="305.8633"/><text fill="#000000" font-family="sans-serif" font-size="14" lengthAdjust="spacing" textLength="957" x="2424.5" y="324.9707">+ReservationDataInitializer(ReservationRepository&lt;Plot&gt; reservationRepository, CustomerManagement customerManagement, PlotCatalog plotCatalog)</text><text fill="#000000" font-family="sans-serif" font-size="14" lengthAdjust="spacing" textLength="101" x="2424.5" y="343.5918">+initialize(): void</text></g><!--class ReservationEntry--><g id="elem_ReservationEntry"><rect codeLine="58" fill="#F1F1F1" height="196.9688" id="ReservationEntry" rx="2.5" ry="2.5" style="stroke:#181818;stroke-width:0.5;" width="333" x="856.5" y="182"/><ellipse cx="913.25" cy="198" fill="#ADD1B2" rx="11" ry="11" style="stroke:#181818;stroke-width:1.0;"/><path d="M916.0156,193.875 Q916.1719,193.6563 916.3594,193.5469 Q916.5469,193.4375 916.7656,193.4375 Q917.1406,193.4375 917.375,193.7031 Q917.6094,193.9531 917.6094,194.5625 L917.6094,196.0156 Q917.6094,196.625 917.375,196.8906 Q917.1406,197.1563 916.7656,197.1563 Q916.4219,197.1563 916.2188,196.9531 Q916.0156,196.7656 915.9063,196.25 Q915.8594,195.8906 915.6719,195.7031 Q915.3438,195.3281 914.7344,195.1094 Q914.125,194.8906 913.5,194.8906 Q912.7344,194.8906 912.0938,195.2188 Q911.4688,195.5469 910.9688,196.2969 Q910.4844,197.0469 910.4844,198.0781 L910.4844,199.1719 Q910.4844,200.4063 911.375,201.2344 Q912.2656,202.0469 913.8594,202.0469 Q914.7969,202.0469 915.4531,201.7969 Q915.8438,201.6406 916.2656,201.2031 Q916.5313,200.9375 916.6719,200.8594 Q916.8281,200.7813 917.0313,200.7813 Q917.3594,200.7813 917.6094,201.0469 Q917.875,201.2969 917.875,201.6406 Q917.875,201.9844 917.5313,202.3906 Q917.0313,202.9688 916.2344,203.2969 Q915.1563,203.75 913.8594,203.75 Q912.3438,203.75 911.1406,203.125 Q910.1563,202.625 909.4688,201.5625 Q908.7813,200.4844 908.7813,199.2031 L908.7813,198.0469 Q908.7813,196.7188 909.3906,195.5781 Q910.0156,194.4219 911.1094,193.8125 Q912.2031,193.1875 913.4375,193.1875 Q914.1719,193.1875 914.8125,193.3594 Q915.4688,193.5156 916.0156,193.875 Z " fill="#000000"/><text fill="#000000" font-family="sans-serif" font-size="14" lengthAdjust="spacing" textLength="109" x="933.75" y="203.7969">ReservationEntry</text><rect fill="#FEFEFE" height="17.9609" style="stroke:#181818;stroke-width:1.0;stroke-dasharray:2.0,2.0;" width="100" x="1092.5" y="179"/><text fill="#000000" font-family="sans-serif" font-size="12" font-style="italic" lengthAdjust="spacing" textLength="98" x="1093.5" y="192.9492">T extends Product</text><line style="stroke:#181818;stroke-width:0.5;" x1="857.5" x2="1188.5" y1="214" y2="214"/><text fill="#000000" font-family="sans-serif" font-size="14" lengthAdjust="spacing" textLength="70" x="862.5" y="233.1074">-product: T</text><text fill="#000000" font-family="sans-serif" font-size="14" lengthAdjust="spacing" textLength="134" x="862.5" y="251.7285">-time: LocalDateTime</text><line style="stroke:#181818;stroke-width:0.5;" x1="857.5" x2="1188.5" y1="259.2422" y2="259.2422"/><text fill="#000000" font-family="sans-serif" font-size="14" lengthAdjust="spacing" textLength="321" x="862.5" y="278.3496">+ReservationEntry(T product, LocalDateTime time)</text><text fill="#000000" font-family="sans-serif" font-size="14" lengthAdjust="spacing" textLength="297" x="862.5" y="296.9707">+compareTo(ReservationEntry&lt;T&gt; second): int</text><text fill="#000000" font-family="sans-serif" font-size="14" lengthAdjust="spacing" textLength="104" x="862.5" y="315.5918">+getProduct(): T</text><text fill="#000000" font-family="sans-serif" font-size="14" lengthAdjust="spacing" textLength="167" x="862.5" y="334.2129">+setProduct(T value): void</text><text fill="#000000" font-family="sans-serif" font-size="14" lengthAdjust="spacing" textLength="172" x="862.5" y="352.834">+getTime(): LocalDateTime</text><text fill="#000000" font-family="sans-serif" font-size="14" lengthAdjust="spacing" textLength="235" x="862.5" y="371.4551">+setTime(LocalDateTime value): void</text></g><!--class ReservationRepository--><g id="elem_ReservationRepository"><rect codeLine="68" fill="#F1F1F1" height="151.7266" id="ReservationRepository" rx="2.5" ry="2.5" style="stroke:#181818;stroke-width:0.5;" width="619" x="2169.5" y="532"/><ellipse cx="2351.25" cy="548" fill="#B4A7E5" rx="11" ry="11" style="stroke:#181818;stroke-width:1.0;"/><path d="M2352.2031,544.6406 L2352.2031,551.2969 L2353.9219,551.2969 Q2354.5313,551.2969 2354.7969,551.5313 Q2355.0625,551.7656 2355.0625,552.1563 Q2355.0625,552.5313 2354.7969,552.7656 Q2354.5313,553 2353.9219,553 L2348.7813,553 Q2348.1719,553 2347.9063,552.7656 Q2347.6406,552.5313 2347.6406,552.1406 Q2347.6406,551.7656 2347.9063,551.5313 Q2348.1719,551.2969 2348.7813,551.2969 L2350.5,551.2969 L2350.5,544.6406 L2348.7813,544.6406 Q2348.1719,544.6406 2347.9063,544.4063 Q2347.6406,544.1719 2347.6406,543.7813 Q2347.6406,543.4063 2347.9063,543.1719 Q2348.1719,542.9375 2348.7813,542.9375 L2353.9219,542.9375 Q2354.5313,542.9375 2354.7969,543.1719 Q2355.0625,543.4063 2355.0625,543.7813 Q2355.0625,544.1719 2354.7969,544.4063 Q2354.5313,544.6406 2353.9219,544.6406 L2352.2031,544.6406 Z " fill="#000000"/><text fill="#000000" font-family="sans-serif" font-size="14" font-style="italic" lengthAdjust="spacing" textLength="143" x="2371.75" y="553.7969">ReservationRepository</text><rect fill="#FEFEFE" height="17.9609" style="stroke:#181818;stroke-width:1.0;stroke-dasharray:2.0,2.0;" width="102" x="2689.5" y="529"/><text fill="#000000" font-family="sans-serif" font-size="12" font-style="italic" lengthAdjust="spacing" textLength="100" x="2690.5" y="542.9492">U extends Product</text><line style="stroke:#181818;stroke-width:0.5;" x1="2170.5" x2="2787.5" y1="564" y2="564"/><text fill="#000000" font-family="sans-serif" font-size="14" lengthAdjust="spacing" textLength="170" x="2175.5" y="583.1074">+findAll(): List&lt;Reservation</text><text fill="#000000" font-family="sans-serif" font-size="14" lengthAdjust="spacing" text-decoration="underline" textLength="8" x="2345.5" y="583.1074">&gt;</text><text fill="#000000" font-family="sans-serif" font-size="14" lengthAdjust="spacing" textLength="444" x="2175.5" y="601.7285">+findByUserId(UserAccount.UserAccountIdentifier id): List&lt;Reservation</text><text fill="#000000" font-family="sans-serif" font-size="14" lengthAdjust="spacing" text-decoration="underline" textLength="8" x="2619.5" y="601.7285">&gt;</text><text fill="#000000" font-family="sans-serif" font-size="14" lengthAdjust="spacing" textLength="599" x="2175.5" y="620.3496">+findReservationsBetween(LocalDateTime arrival, LocalDateTime departure): List&lt;Reservation</text><text fill="#000000" font-family="sans-serif" font-size="14" lengthAdjust="spacing" text-decoration="underline" textLength="8" x="2774.5" y="620.3496">&gt;</text><text fill="#000000" font-family="sans-serif" font-size="14" lengthAdjust="spacing" textLength="548" x="2175.5" y="638.9707">+findPlotsReservedBetween(LocalDateTime arrival, LocalDateTime departure): Set&lt;U&gt;</text><text fill="#000000" font-family="sans-serif" font-size="14" lengthAdjust="spacing" textLength="584" x="2175.5" y="657.5918">+productIsReservedIn(U product, LocalDateTime arrival, LocalDateTime departure): Boolean</text><text fill="#000000" font-family="sans-serif" font-size="14" lengthAdjust="spacing" textLength="580" x="2175.5" y="676.2129">+productIsAvailableIn(U product, LocalDateTime arrival, LocalDateTime departure): Boolean</text></g><!--class SportItemReservation--><g id="elem_SportItemReservation"><rect codeLine="76" fill="#F1F1F1" height="77.2422" id="SportItemReservation" rx="2.5" ry="2.5" style="stroke:#181818;stroke-width:0.5;" width="774" x="47" y="242"/><ellipse cx="361.75" cy="258" fill="#ADD1B2" rx="11" ry="11" style="stroke:#181818;stroke-width:1.0;"/><path d="M364.5156,253.875 Q364.6719,253.6563 364.8594,253.5469 Q365.0469,253.4375 365.2656,253.4375 Q365.6406,253.4375 365.875,253.7031 Q366.1094,253.9531 366.1094,254.5625 L366.1094,256.0156 Q366.1094,256.625 365.875,256.8906 Q365.6406,257.1563 365.2656,257.1563 Q364.9219,257.1563 364.7188,256.9531 Q364.5156,256.7656 364.4063,256.25 Q364.3594,255.8906 364.1719,255.7031 Q363.8438,255.3281 363.2344,255.1094 Q362.625,254.8906 362,254.8906 Q361.2344,254.8906 360.5938,255.2188 Q359.9688,255.5469 359.4688,256.2969 Q358.9844,257.0469 358.9844,258.0781 L358.9844,259.1719 Q358.9844,260.4063 359.875,261.2344 Q360.7656,262.0469 362.3594,262.0469 Q363.2969,262.0469 363.9531,261.7969 Q364.3438,261.6406 364.7656,261.2031 Q365.0313,260.9375 365.1719,260.8594 Q365.3281,260.7813 365.5313,260.7813 Q365.8594,260.7813 366.1094,261.0469 Q366.375,261.2969 366.375,261.6406 Q366.375,261.9844 366.0313,262.3906 Q365.5313,262.9688 364.7344,263.2969 Q363.6563,263.75 362.3594,263.75 Q360.8438,263.75 359.6406,263.125 Q358.6563,262.625 357.9688,261.5625 Q357.2813,260.4844 357.2813,259.2031 L357.2813,258.0469 Q357.2813,256.7188 357.8906,255.5781 Q358.5156,254.4219 359.6094,253.8125 Q360.7031,253.1875 361.9375,253.1875 Q362.6719,253.1875 363.3125,253.3594 Q363.9688,253.5156 364.5156,253.875 Z " fill="#000000"/><text fill="#000000" font-family="sans-serif" font-size="14" lengthAdjust="spacing" textLength="136" x="382.25" y="263.7969">SportItemReservation</text><line style="stroke:#181818;stroke-width:0.5;" x1="48" x2="820" y1="274" y2="274"/><text fill="#000000" font-family="sans-serif" font-size="14" lengthAdjust="spacing" textLength="762" x="53" y="293.1074">+SportItemReservation(UserAccount userAccount, SportItem sportItem, LocalDateTime arrival, LocalDateTime departure)</text><text fill="#000000" font-family="sans-serif" font-size="14" lengthAdjust="spacing" textLength="187" x="53" y="311.7285">+getIntervalUnit(): ChronoUnit</text></g><!--class DataInitializer--><g id="elem_DataInitializer"><rect codeLine="15" fill="#F1F1F1" height="32" id="DataInitializer" rx="2.5" ry="2.5" style="stroke:#181818;stroke-width:0.5;" width="116" x="3039" y="920"/><ellipse cx="3054" cy="936" fill="#ADD1B2" rx="11" ry="11" style="stroke:#181818;stroke-width:1.0;"/><path d="M3056.7656,931.875 Q3056.9219,931.6563 3057.1094,931.5469 Q3057.2969,931.4375 3057.5156,931.4375 Q3057.8906,931.4375 3058.125,931.7031 Q3058.3594,931.9531 3058.3594,932.5625 L3058.3594,934.0156 Q3058.3594,934.625 3058.125,934.8906 Q3057.8906,935.1563 3057.5156,935.1563 Q3057.1719,935.1563 3056.9688,934.9531 Q3056.7656,934.7656 3056.6563,934.25 Q3056.6094,933.8906 3056.4219,933.7031 Q3056.0938,933.3281 3055.4844,933.1094 Q3054.875,932.8906 3054.25,932.8906 Q3053.4844,932.8906 3052.8438,933.2188 Q3052.2188,933.5469 3051.7188,934.2969 Q3051.2344,935.0469 3051.2344,936.0781 L3051.2344,937.1719 Q3051.2344,938.4063 3052.125,939.2344 Q3053.0156,940.0469 3054.6094,940.0469 Q3055.5469,940.0469 3056.2031,939.7969 Q3056.5938,939.6406 3057.0156,939.2031 Q3057.2813,938.9375 3057.4219,938.8594 Q3057.5781,938.7813 3057.7813,938.7813 Q3058.1094,938.7813 3058.3594,939.0469 Q3058.625,939.2969 3058.625,939.6406 Q3058.625,939.9844 3058.2813,940.3906 Q3057.7813,940.9688 3056.9844,941.2969 Q3055.9063,941.75 3054.6094,941.75 Q3053.0938,941.75 3051.8906,941.125 Q3050.9063,940.625 3050.2188,939.5625 Q3049.5313,938.4844 3049.5313,937.2031 L3049.5313,936.0469 Q3049.5313,934.7188 3050.1406,933.5781 Q3050.7656,932.4219 3051.8594,931.8125 Q3052.9531,931.1875 3054.1875,931.1875 Q3054.9219,931.1875 3055.5625,931.3594 Q3056.2188,931.5156 3056.7656,931.875 Z " fill="#000000"/><text fill="#000000" font-family="sans-serif" font-size="14" lengthAdjust="spacing" textLength="84" x="3068" y="941.7969">DataInitializer</text></g><!--class CrudRepository--><g id="elem_CrudRepository"><rect codeLine="18" fill="#F1F1F1" height="32" id="CrudRepository" rx="2.5" ry="2.5" style="stroke:#181818;stroke-width:0.5;" width="161" x="2758.5" y="920"/><ellipse cx="2773.5" cy="936" fill="#B4A7E5" rx="11" ry="11" style="stroke:#181818;stroke-width:1.0;"/><path d="M2774.4531,932.6406 L2774.4531,939.2969 L2776.1719,939.2969 Q2776.7813,939.2969 2777.0469,939.5313 Q2777.3125,939.7656 2777.3125,940.1563 Q2777.3125,940.5313 2777.0469,940.7656 Q2776.7813,941 2776.1719,941 L2771.0313,941 Q2770.4219,941 2770.1563,940.7656 Q2769.8906,940.5313 2769.8906,940.1406 Q2769.8906,939.7656 2770.1563,939.5313 Q2770.4219,939.2969 2771.0313,939.2969 L2772.75,939.2969 L2772.75,932.6406 L2771.0313,932.6406 Q2770.4219,932.6406 2770.1563,932.4063 Q2769.8906,932.1719 2769.8906,931.7813 Q2769.8906,931.4063 2770.1563,931.1719 Q2770.4219,930.9375 2771.0313,930.9375 L2776.1719,930.9375 Q2776.7813,930.9375 2777.0469,931.1719 Q2777.3125,931.4063 2777.3125,931.7813 Q2777.3125,932.1719 2777.0469,932.4063 Q2776.7813,932.6406 2776.1719,932.6406 L2774.4531,932.6406 Z " fill="#000000"/><text fill="#000000" font-family="sans-serif" font-size="14" font-style="italic" lengthAdjust="spacing" textLength="99" x="2787.5" y="941.7969">CrudRepository</text><rect fill="#FEFEFE" height="17.9609" style="stroke:#181818;stroke-width:1.0;stroke-dasharray:2.0,2.0;" width="28" x="2894.5" y="917"/><text fill="#000000" font-family="sans-serif" font-size="12" font-style="italic" lengthAdjust="spacing" textLength="26" x="2895.5" y="930.9492">T, ID</text></g><!--link Reservation to Priced--><g id="link_Reservation_Priced"><path codeLine="81" d="M2383.32,412 C2785.93,412 3480,412 3480,412 C3480,412 3480,527.15 3480,573.96 " fill="none" id="Reservation-to-Priced" style="stroke:#181818;stroke-width:1.0;stroke-dasharray:7.0,7.0;"/><polygon fill="none" points="3480,591.96,3486,573.96,3474,573.96,3480,591.96" style="stroke:#181818;stroke-width:1.0;"/></g><!--link ReservationController to ReservationRepository--><g id="link_ReservationController_ReservationRepository"><path codeLine="83" d="M1661.5,351.17 C1661.5,434.56 1661.5,562 1661.5,562 C1661.5,562 1931.97,562 2163.36,562 " fill="none" id="ReservationController-to-ReservationRepository" style="stroke:#181818;stroke-width:1.0;stroke-dasharray:7.0,7.0;"/><polygon fill="#181818" points="2169.36,562,2160.36,558,2164.36,562,2160.36,566,2169.36,562" style="stroke:#181818;stroke-width:1.0;"/><text fill="#000000" font-family="sans-serif" font-size="13" lengthAdjust="spacing" textLength="104" x="1705.01" y="558.0283">&lt;&lt;bind U-&gt;Plot&gt;&gt;</text></g><!--link ReservationController to Cart--><g id="link_ReservationController_Cart"><path codeLine="84" d="M1506,351.16 C1506,429.01 1506,542.89 1506,585.93 " fill="none" id="ReservationController-to-Cart" style="stroke:#181818;stroke-width:1.0;stroke-dasharray:7.0,7.0;"/><polygon fill="#181818" points="1506,591.93,1510,582.93,1506,586.93,1502,582.93,1506,591.93" style="stroke:#181818;stroke-width:1.0;"/><text fill="#000000" font-family="sans-serif" font-size="13" lengthAdjust="spacing" textLength="102" x="1403" y="467.5683">&lt;&lt;bind T-&gt;Plot&gt;&gt;</text></g><!--link ReservationDataInitializer to DataInitializer--><g id="link_ReservationDataInitializer_DataInitializer"><path codeLine="86" d="M3097,351.27 C3097,500.91 3097,824.06 3097,901.96 " fill="none" id="ReservationDataInitializer-to-DataInitializer" style="stroke:#181818;stroke-width:1.0;stroke-dasharray:7.0,7.0;"/><polygon fill="none" points="3097,919.96,3103,901.96,3091,901.96,3097,919.96" style="stroke:#181818;stroke-width:1.0;"/></g><!--link ReservationRepository to CrudRepository--><g id="link_ReservationRepository_CrudRepository"><path codeLine="88" d="M2773.5,684.07 C2773.5,762.04 2773.5,859.66 2773.5,901.85 " fill="none" id="ReservationRepository-to-CrudRepository" style="stroke:#181818;stroke-width:1.0;stroke-dasharray:7.0,7.0;"/><polygon fill="none" points="2773.5,919.85,2779.5,901.85,2767.5,901.85,2773.5,919.85" style="stroke:#181818;stroke-width:1.0;"/></g><!--SRC=[hLRRJkCm47tFLuoqBqMKQf-hAb9RG8gqI8Yc7s3YeLWuTcGxG9VbttUSXCHD4s1PG6hhkPmv7i-CVIyu0kQ5syETGCbjTDz9SdJtcaJsGQY26PP39fcrI-UCk2qT9fbM6_4RuMTW8eL2joyGj27lGB5YsSFEw5BnjPRQm8_B2_yVCIdrKowUXTe5rWLPinrkt5uYN984eqWeX-QEPGWPomkoBoHplsUb4zBEhet8a4SLmqEzGOlcaJcXrMpDZ8kYg44dZhkN2EZlJM2PH5jeYdJdOpvfyr0RrBZdpB542IUOf7sRbzTAzte8KHWAtNFlg7E284g5ji9fiv-jJSblskKYdK9o7ZUmhntJiHszH06zcqw-I06V7IfkuTfeNcOkhfcS2Zw7xJOvhrPd9NdGcZwNMKQ7usfnKVlC8QtNjxWJQWw_TCOa9G5JGGTIQIZ4aFmqu389uC47d48AJOJfeIzKWVf2Yd5Ie-xGLGSzEPd3bQPAOsQ_p5lUNf_uL3yokQLpycRhUwELzglQX9UcPaKwgQdeMaVkHMrglCWJhuIz_9pQHXVkZ6AMICQFMl20RRLD3vAshc_2TDXdvNFWFGRIQj_KXnaQnBbGV1p5Ap_0U1qkhRLMpcWfgVxh4WZAiQlaUUWI5FYrr2vkAh7j9D-MrLdHTsYHUVcLvYWXzvzJw9TIytiQk4B0nqi9T-DyJzQORrhyRc1jE1hxFkgXoqY2-rFclx9ybfNMwHpD5LCqI79KrDNh8rdJzkIsfkXIx-PmtIsEMhf7SV8E2nWaFXtW0CTKfo4B2EYTz4jeyedAlQ32tOzEngEXvwWhFffj5UHaT9nvY8PgfdEwsZ3LasD6CLYaovJJ7aGmohuoF7pOyQwlj9zg- -x66ZxRxTZzSYSKNqfPSH3MBS9BQHl7dT5gxxk3fcxG9BFWTyAf00GzImm8_Y5QeB0hT4-8_Hd9Z16qsVuHSQHZSQN13qFuKhIr5lcNOspG4MoDsbHDqg8cT5cErT8di5TQIsIg1xvyP4AoMudVY1vssAQWjrxYCBy9toKLXo7LP7JKjjRqY6f-_JFDpxu3_Eig80MpsPyOcaTaD7ZRaKayt0npM2nkgK1WUnPNCoz-1y7V7Ar3sZf4uzErvjOJ7ZXqL6hRmqTbz1S0]--></g></svg>