<?xml version="1.0" encoding="us-ascii" standalone="no"?><svg xmlns="http://www.w3.org/2000/svg" xmlns:xlink="http://www.w3.org/1999/xlink" contentStyleType="text/css" height="1404px" preserveAspectRatio="none" style="width:4459px;height:1404px;background:#FEFEFE;" version="1.1" viewBox="0 0 4459 1404" width="4459px" zoomAndPan="magnify"><defs/><g><rect fill="#FEFEFE" height="1404" style="stroke:none;stroke-width:1.0;" width="4459" x="0" y="0"/><!--cluster campingplatz--><g id="cluster_campingplatz"><rect fill="none" height="1391.5" rx="2.5" ry="2.5" style="stroke:#000000;stroke-width:1.5;" width="3936" x="7" y="7"/><path d="M109,7 L109,18.6211 L99,28.6211 L7,28.6211 " fill="none" style="stroke:#000000;stroke-width:1.5;"/><text fill="#000000" font-family="sans-serif" font-size="14" font-weight="bold" lengthAdjust="spacing" textLength="92" x="10" y="23.1074">campingplatz</text></g><!--cluster plots--><g id="cluster_plots"><rect fill="none" height="85" rx="2.5" ry="2.5" style="stroke:#000000;stroke-width:1.5;" width="88" x="2667" y="1289.5"/><path d="M2712,1289.5 L2712,1301.1211 L2702,1311.1211 L2667,1311.1211 " fill="none" style="stroke:#000000;stroke-width:1.5;"/><text fill="#000000" font-family="sans-serif" font-size="14" font-weight="bold" lengthAdjust="spacing" textLength="35" x="2670" y="1305.6074">plots</text></g><!--cluster reservation--><g id="cluster_reservation"><rect fill="none" height="85" rx="2.5" ry="2.5" style="stroke:#000000;stroke-width:1.5;" width="447" x="680" y="1289.5"/><path d="M772,1289.5 L772,1301.1211 L762,1311.1211 L680,1311.1211 " fill="none" style="stroke:#000000;stroke-width:1.5;"/><text fill="#000000" font-family="sans-serif" font-size="14" font-weight="bold" lengthAdjust="spacing" textLength="82" x="683" y="1305.6074">reservation</text></g><!--cluster seasonalplots--><g id="cluster_seasonalplots"><rect fill="none" height="1213.5" rx="2.5" ry="2.5" style="stroke:#000000;stroke-width:1.5;" width="3874" x="45" y="52"/><path d="M153,52 L153,63.6211 L143,73.6211 L45,73.6211 " fill="none" style="stroke:#000000;stroke-width:1.5;"/><text fill="#000000" font-family="sans-serif" font-size="14" font-weight="bold" lengthAdjust="spacing" textLength="98" x="48" y="68.1074">seasonalplots</text></g><!--cluster seasonalPlotReservations--><g id="cluster_seasonalPlotReservations"><rect fill="none" height="1144.5" rx="2.5" ry="2.5" style="stroke:#000000;stroke-width:1.5;" width="1266" x="817" y="97"/><path d="M1011,97 L1011,108.6211 L1001,118.6211 L817,118.6211 " fill="none" style="stroke:#000000;stroke-width:1.5;"/><text fill="#000000" font-family="sans-serif" font-size="14" font-weight="bold" lengthAdjust="spacing" textLength="184" x="820" y="113.1074">seasonalPlotReservations</text></g><!--cluster org--><g id="cluster_org"><rect fill="none" height="223" rx="2.5" ry="2.5" style="stroke:#000000;stroke-width:1.5;" width="486" x="3967" y="950"/><path d="M4001,950 L4001,961.6211 L3991,971.6211 L3967,971.6211 " fill="none" style="stroke:#000000;stroke-width:1.5;"/><text fill="#000000" font-family="sans-serif" font-size="14" font-weight="bold" lengthAdjust="spacing" textLength="24" x="3970" y="966.1074">org</text></g><!--cluster salespointframework--><g id="cluster_salespointframework"><rect fill="none" height="154" rx="2.5" ry="2.5" style="stroke:#000000;stroke-width:1.5;" width="438" x="3991" y="995"/><path d="M4148,995 L4148,1006.6211 L4138,1016.6211 L3991,1016.6211 " fill="none" style="stroke:#000000;stroke-width:1.5;"/><text fill="#000000" font-family="sans-serif" font-size="14" font-weight="bold" lengthAdjust="spacing" textLength="147" x="3994" y="1011.1074">salespointframework</text></g><!--cluster catalog--><g id="cluster_catalog"><rect fill="none" height="85" rx="2.5" ry="2.5" style="stroke:#000000;stroke-width:1.5;" width="216" x="4015" y="1040"/><path d="M4076,1040 L4076,1051.6211 L4066,1061.6211 L4015,1061.6211 " fill="none" style="stroke:#000000;stroke-width:1.5;"/><text fill="#000000" font-family="sans-serif" font-size="14" font-weight="bold" lengthAdjust="spacing" textLength="51" x="4018" y="1056.1074">catalog</text></g><!--cluster core--><g id="cluster_core"><rect fill="none" height="85" rx="2.5" ry="2.5" style="stroke:#000000;stroke-width:1.5;" width="150" x="4255" y="1040"/><path d="M4297,1040 L4297,1051.6211 L4287,1061.6211 L4255,1061.6211 " fill="none" style="stroke:#000000;stroke-width:1.5;"/><text fill="#000000" font-family="sans-serif" font-size="14" font-weight="bold" lengthAdjust="spacing" textLength="32" x="4258" y="1056.1074">core</text></g><!--class Plot--><g id="elem_Plot"><rect codeLine="9" fill="#F1F1F1" height="32" id="Plot" rx="2.5" ry="2.5" style="stroke:#181818;stroke-width:0.5;" width="56" x="2683" y="1326.5"/><ellipse cx="2698" cy="1342.5" fill="#ADD1B2" rx="11" ry="11" style="stroke:#181818;stroke-width:1.0;"/><path d="M2700.7656,1338.375 Q2700.9219,1338.1563 2701.1094,1338.0469 Q2701.2969,1337.9375 2701.5156,1337.9375 Q2701.8906,1337.9375 2702.125,1338.2031 Q2702.3594,1338.4531 2702.3594,1339.0625 L2702.3594,1340.5156 Q2702.3594,1341.125 2702.125,1341.3906 Q2701.8906,1341.6563 2701.5156,1341.6563 Q2701.1719,1341.6563 2700.9688,1341.4531 Q2700.7656,1341.2656 2700.6563,1340.75 Q2700.6094,1340.3906 2700.4219,1340.2031 Q2700.0938,1339.8281 2699.4844,1339.6094 Q2698.875,1339.3906 2698.25,1339.3906 Q2697.4844,1339.3906 2696.8438,1339.7188 Q2696.2188,1340.0469 2695.7188,1340.7969 Q2695.2344,1341.5469 2695.2344,1342.5781 L2695.2344,1343.6719 Q2695.2344,1344.9063 2696.125,1345.7344 Q2697.0156,1346.5469 2698.6094,1346.5469 Q2699.5469,1346.5469 2700.2031,1346.2969 Q2700.5938,1346.1406 2701.0156,1345.7031 Q2701.2813,1345.4375 2701.4219,1345.3594 Q2701.5781,1345.2813 2701.7813,1345.2813 Q2702.1094,1345.2813 2702.3594,1345.5469 Q2702.625,1345.7969 2702.625,1346.1406 Q2702.625,1346.4844 2702.2813,1346.8906 Q2701.7813,1347.4688 2700.9844,1347.7969 Q2699.9063,1348.25 2698.6094,1348.25 Q2697.0938,1348.25 2695.8906,1347.625 Q2694.9063,1347.125 2694.2188,1346.0625 Q2693.5313,1344.9844 2693.5313,1343.7031 L2693.5313,1342.5469 Q2693.5313,1341.2188 2694.1406,1340.0781 Q2694.7656,1338.9219 2695.8594,1338.3125 Q2696.9531,1337.6875 2698.1875,1337.6875 Q2698.9219,1337.6875 2699.5625,1337.8594 Q2700.2188,1338.0156 2700.7656,1338.375 Z " fill="#000000"/><text fill="#000000" font-family="sans-serif" font-size="14" lengthAdjust="spacing" textLength="24" x="2712" y="1348.2969">Plot</text></g><!--class Cart--><g id="elem_Cart"><rect codeLine="10" fill="#F1F1F1" height="32" id="Cart" rx="2.5" ry="2.5" style="stroke:#181818;stroke-width:0.5;" width="59" x="696.5" y="1326.5"/><ellipse cx="711.5" cy="1342.5" fill="#ADD1B2" rx="11" ry="11" style="stroke:#181818;stroke-width:1.0;"/><path d="M714.2656,1338.375 Q714.4219,1338.1563 714.6094,1338.0469 Q714.7969,1337.9375 715.0156,1337.9375 Q715.3906,1337.9375 715.625,1338.2031 Q715.8594,1338.4531 715.8594,1339.0625 L715.8594,1340.5156 Q715.8594,1341.125 715.625,1341.3906 Q715.3906,1341.6563 715.0156,1341.6563 Q714.6719,1341.6563 714.4688,1341.4531 Q714.2656,1341.2656 714.1563,1340.75 Q714.1094,1340.3906 713.9219,1340.2031 Q713.5938,1339.8281 712.9844,1339.6094 Q712.375,1339.3906 711.75,1339.3906 Q710.9844,1339.3906 710.3438,1339.7188 Q709.7188,1340.0469 709.2188,1340.7969 Q708.7344,1341.5469 708.7344,1342.5781 L708.7344,1343.6719 Q708.7344,1344.9063 709.625,1345.7344 Q710.5156,1346.5469 712.1094,1346.5469 Q713.0469,1346.5469 713.7031,1346.2969 Q714.0938,1346.1406 714.5156,1345.7031 Q714.7813,1345.4375 714.9219,1345.3594 Q715.0781,1345.2813 715.2813,1345.2813 Q715.6094,1345.2813 715.8594,1345.5469 Q716.125,1345.7969 716.125,1346.1406 Q716.125,1346.4844 715.7813,1346.8906 Q715.2813,1347.4688 714.4844,1347.7969 Q713.4063,1348.25 712.1094,1348.25 Q710.5938,1348.25 709.3906,1347.625 Q708.4063,1347.125 707.7188,1346.0625 Q707.0313,1344.9844 707.0313,1343.7031 L707.0313,1342.5469 Q707.0313,1341.2188 707.6406,1340.0781 Q708.2656,1338.9219 709.3594,1338.3125 Q710.4531,1337.6875 711.6875,1337.6875 Q712.4219,1337.6875 713.0625,1337.8594 Q713.7188,1338.0156 714.2656,1338.375 Z " fill="#000000"/><text fill="#000000" font-family="sans-serif" font-size="14" lengthAdjust="spacing" textLength="27" x="725.5" y="1348.2969">Cart</text></g><!--class Reservation--><g id="elem_Reservation"><rect codeLine="11" fill="#F1F1F1" height="32" id="Reservation" rx="2.5" ry="2.5" style="stroke:#181818;stroke-width:0.5;" width="108" x="1003" y="1326.5"/><ellipse cx="1018" cy="1342.5" fill="#ADD1B2" rx="11" ry="11" style="stroke:#181818;stroke-width:1.0;"/><path d="M1020.7656,1338.375 Q1020.9219,1338.1563 1021.1094,1338.0469 Q1021.2969,1337.9375 1021.5156,1337.9375 Q1021.8906,1337.9375 1022.125,1338.2031 Q1022.3594,1338.4531 1022.3594,1339.0625 L1022.3594,1340.5156 Q1022.3594,1341.125 1022.125,1341.3906 Q1021.8906,1341.6563 1021.5156,1341.6563 Q1021.1719,1341.6563 1020.9688,1341.4531 Q1020.7656,1341.2656 1020.6563,1340.75 Q1020.6094,1340.3906 1020.4219,1340.2031 Q1020.0938,1339.8281 1019.4844,1339.6094 Q1018.875,1339.3906 1018.25,1339.3906 Q1017.4844,1339.3906 1016.8438,1339.7188 Q1016.2188,1340.0469 1015.7188,1340.7969 Q1015.2344,1341.5469 1015.2344,1342.5781 L1015.2344,1343.6719 Q1015.2344,1344.9063 1016.125,1345.7344 Q1017.0156,1346.5469 1018.6094,1346.5469 Q1019.5469,1346.5469 1020.2031,1346.2969 Q1020.5938,1346.1406 1021.0156,1345.7031 Q1021.2813,1345.4375 1021.4219,1345.3594 Q1021.5781,1345.2813 1021.7813,1345.2813 Q1022.1094,1345.2813 1022.3594,1345.5469 Q1022.625,1345.7969 1022.625,1346.1406 Q1022.625,1346.4844 1022.2813,1346.8906 Q1021.7813,1347.4688 1020.9844,1347.7969 Q1019.9063,1348.25 1018.6094,1348.25 Q1017.0938,1348.25 1015.8906,1347.625 Q1014.9063,1347.125 1014.2188,1346.0625 Q1013.5313,1344.9844 1013.5313,1343.7031 L1013.5313,1342.5469 Q1013.5313,1341.2188 1014.1406,1340.0781 Q1014.7656,1338.9219 1015.8594,1338.3125 Q1016.9531,1337.6875 1018.1875,1337.6875 Q1018.9219,1337.6875 1019.5625,1337.8594 Q1020.2188,1338.0156 1020.7656,1338.375 Z " fill="#000000"/><text fill="#000000" font-family="sans-serif" font-size="14" lengthAdjust="spacing" textLength="76" x="1032" y="1348.2969">Reservation</text></g><!--class ReservationRepository--><g id="elem_ReservationRepository"><rect codeLine="12" fill="#F1F1F1" height="32" id="ReservationRepository" rx="2.5" ry="2.5" style="stroke:#181818;stroke-width:0.5;" width="175" x="791.5" y="1326.5"/><ellipse cx="806.5" cy="1342.5" fill="#B4A7E5" rx="11" ry="11" style="stroke:#181818;stroke-width:1.0;"/><path d="M807.4531,1339.1406 L807.4531,1345.7969 L809.1719,1345.7969 Q809.7813,1345.7969 810.0469,1346.0313 Q810.3125,1346.2656 810.3125,1346.6563 Q810.3125,1347.0313 810.0469,1347.2656 Q809.7813,1347.5 809.1719,1347.5 L804.0313,1347.5 Q803.4219,1347.5 803.1563,1347.2656 Q802.8906,1347.0313 802.8906,1346.6406 Q802.8906,1346.2656 803.1563,1346.0313 Q803.4219,1345.7969 804.0313,1345.7969 L805.75,1345.7969 L805.75,1339.1406 L804.0313,1339.1406 Q803.4219,1339.1406 803.1563,1338.9063 Q802.8906,1338.6719 802.8906,1338.2813 Q802.8906,1337.9063 803.1563,1337.6719 Q803.4219,1337.4375 804.0313,1337.4375 L809.1719,1337.4375 Q809.7813,1337.4375 810.0469,1337.6719 Q810.3125,1337.9063 810.3125,1338.2813 Q810.3125,1338.6719 810.0469,1338.9063 Q809.7813,1339.1406 809.1719,1339.1406 L807.4531,1339.1406 Z " fill="#000000"/><text fill="#000000" font-family="sans-serif" font-size="14" font-style="italic" lengthAdjust="spacing" textLength="143" x="820.5" y="1348.2969">ReservationRepository</text></g><!--class Config--><g id="elem_Config"><rect codeLine="69" fill="#F1F1F1" height="159.7266" id="Config" rx="2.5" ry="2.5" style="stroke:#181818;stroke-width:0.5;" width="321" x="268.5" y="740.5"/><ellipse cx="404.25" cy="756.5" fill="#ADD1B2" rx="11" ry="11" style="stroke:#181818;stroke-width:1.0;"/><path d="M407.0156,752.375 Q407.1719,752.1563 407.3594,752.0469 Q407.5469,751.9375 407.7656,751.9375 Q408.1406,751.9375 408.375,752.2031 Q408.6094,752.4531 408.6094,753.0625 L408.6094,754.5156 Q408.6094,755.125 408.375,755.3906 Q408.1406,755.6563 407.7656,755.6563 Q407.4219,755.6563 407.2188,755.4531 Q407.0156,755.2656 406.9063,754.75 Q406.8594,754.3906 406.6719,754.2031 Q406.3438,753.8281 405.7344,753.6094 Q405.125,753.3906 404.5,753.3906 Q403.7344,753.3906 403.0938,753.7188 Q402.4688,754.0469 401.9688,754.7969 Q401.4844,755.5469 401.4844,756.5781 L401.4844,757.6719 Q401.4844,758.9063 402.375,759.7344 Q403.2656,760.5469 404.8594,760.5469 Q405.7969,760.5469 406.4531,760.2969 Q406.8438,760.1406 407.2656,759.7031 Q407.5313,759.4375 407.6719,759.3594 Q407.8281,759.2813 408.0313,759.2813 Q408.3594,759.2813 408.6094,759.5469 Q408.875,759.7969 408.875,760.1406 Q408.875,760.4844 408.5313,760.8906 Q408.0313,761.4688 407.2344,761.7969 Q406.1563,762.25 404.8594,762.25 Q403.3438,762.25 402.1406,761.625 Q401.1563,761.125 400.4688,760.0625 Q399.7813,758.9844 399.7813,757.7031 L399.7813,756.5469 Q399.7813,755.2188 400.3906,754.0781 Q401.0156,752.9219 402.1094,752.3125 Q403.2031,751.6875 404.4375,751.6875 Q405.1719,751.6875 405.8125,751.8594 Q406.4688,752.0156 407.0156,752.375 Z " fill="#000000"/><text fill="#000000" font-family="sans-serif" font-size="14" lengthAdjust="spacing" textLength="41" x="424.75" y="762.2969">Config</text><line style="stroke:#181818;stroke-width:0.5;" x1="269.5" x2="588.5" y1="772.5" y2="772.5"/><text fill="#000000" font-family="sans-serif" font-size="14" lengthAdjust="spacing" text-decoration="underline" textLength="195" x="274.5" y="791.6074">-electricityCosts = 0.29: double</text><text fill="#000000" font-family="sans-serif" font-size="14" lengthAdjust="spacing" text-decoration="underline" textLength="170" x="274.5" y="810.2285">-waterCosts = 2.59: double</text><line style="stroke:#181818;stroke-width:0.5;" x1="269.5" x2="588.5" y1="817.7422" y2="817.7422"/><text fill="#000000" font-family="sans-serif" font-size="14" lengthAdjust="spacing" text-decoration="underline" textLength="185" x="274.5" y="836.8496">+getElectricityCosts(): double</text><text fill="#000000" font-family="sans-serif" font-size="14" lengthAdjust="spacing" text-decoration="underline" textLength="309" x="274.5" y="855.4707">+setElectricityCosts(double electricityCosts): void</text><text fill="#000000" font-family="sans-serif" font-size="14" lengthAdjust="spacing" text-decoration="underline" textLength="163" x="274.5" y="874.0918">+getWaterCosts(): double</text><text fill="#000000" font-family="sans-serif" font-size="14" lengthAdjust="spacing" text-decoration="underline" textLength="262" x="274.5" y="892.7129">+setWaterCosts(double waterCosts): void</text></g><!--class SeasonalPlot--><g id="elem_SeasonalPlot"><rect codeLine="77" fill="#F1F1F1" height="190.9297" id="SeasonalPlot" rx="2.5" ry="2.5" style="stroke:#181818;stroke-width:0.5;" width="991" x="2215.5" y="997.5"/><ellipse cx="2665.25" cy="1019.791" fill="#ADD1B2" rx="11" ry="11" style="stroke:#181818;stroke-width:1.0;"/><path d="M2668.0156,1015.666 Q2668.1719,1015.4473 2668.3594,1015.3379 Q2668.5469,1015.2285 2668.7656,1015.2285 Q2669.1406,1015.2285 2669.375,1015.4941 Q2669.6094,1015.7441 2669.6094,1016.3535 L2669.6094,1017.8066 Q2669.6094,1018.416 2669.375,1018.6816 Q2669.1406,1018.9473 2668.7656,1018.9473 Q2668.4219,1018.9473 2668.2188,1018.7441 Q2668.0156,1018.5566 2667.9063,1018.041 Q2667.8594,1017.6816 2667.6719,1017.4941 Q2667.3438,1017.1191 2666.7344,1016.9004 Q2666.125,1016.6816 2665.5,1016.6816 Q2664.7344,1016.6816 2664.0938,1017.0098 Q2663.4688,1017.3379 2662.9688,1018.0879 Q2662.4844,1018.8379 2662.4844,1019.8691 L2662.4844,1020.9629 Q2662.4844,1022.1973 2663.375,1023.0254 Q2664.2656,1023.8379 2665.8594,1023.8379 Q2666.7969,1023.8379 2667.4531,1023.5879 Q2667.8438,1023.4316 2668.2656,1022.9941 Q2668.5313,1022.7285 2668.6719,1022.6504 Q2668.8281,1022.5723 2669.0313,1022.5723 Q2669.3594,1022.5723 2669.6094,1022.8379 Q2669.875,1023.0879 2669.875,1023.4316 Q2669.875,1023.7754 2669.5313,1024.1816 Q2669.0313,1024.7598 2668.2344,1025.0879 Q2667.1563,1025.541 2665.8594,1025.541 Q2664.3438,1025.541 2663.1406,1024.916 Q2662.1563,1024.416 2661.4688,1023.3535 Q2660.7813,1022.2754 2660.7813,1020.9941 L2660.7813,1019.8379 Q2660.7813,1018.5098 2661.3906,1017.3691 Q2662.0156,1016.2129 2663.1094,1015.6035 Q2664.2031,1014.9785 2665.4375,1014.9785 Q2666.1719,1014.9785 2666.8125,1015.1504 Q2667.4688,1015.3066 2668.0156,1015.666 Z " fill="#000000"/><text fill="#000000" font-family="sans-serif" font-size="12" font-style="italic" lengthAdjust="spacing" textLength="44" x="2705.25" y="1015.4492">&#171;Entity&#187;</text><text fill="#000000" font-family="sans-serif" font-size="14" lengthAdjust="spacing" textLength="83" x="2685.75" y="1033.5684">SeasonalPlot</text><line style="stroke:#181818;stroke-width:0.5;" x1="2216.5" x2="3205.5" y1="1042.082" y2="1042.082"/><text fill="#000000" font-family="sans-serif" font-size="14" lengthAdjust="spacing" textLength="151" x="2221.5" y="1061.1895">-electricityMeter: double</text><text fill="#000000" font-family="sans-serif" font-size="14" lengthAdjust="spacing" textLength="126" x="2221.5" y="1079.8105">-waterMeter: double</text><line style="stroke:#181818;stroke-width:0.5;" x1="2216.5" x2="3205.5" y1="1087.3242" y2="1087.3242"/><text fill="#000000" font-family="sans-serif" font-size="14" lengthAdjust="spacing" textLength="979" x="2221.5" y="1106.4316">+SeasonalPlot(String name, Double size, Money price, ParkingLot parking, double electricityMeter, double waterMeter, String imagePath, String description)</text><text fill="#000000" font-family="sans-serif" font-size="14" lengthAdjust="spacing" textLength="458" x="2221.5" y="1125.0527">+settlementElectricity(double electricityMeter, Double difference): Double</text><text fill="#000000" font-family="sans-serif" font-size="14" lengthAdjust="spacing" textLength="411" x="2221.5" y="1143.6738">+settlementWater(double waterMeter, Double difference): Double</text><text fill="#000000" font-family="sans-serif" font-size="14" lengthAdjust="spacing" text-decoration="underline" textLength="305" x="2221.5" y="1162.2949">+getArrival(LocalDateTime now): LocalDateTime</text><text fill="#000000" font-family="sans-serif" font-size="14" lengthAdjust="spacing" textLength="329" x="2221.5" y="1180.916">+getDeparture(LocalDateTime now): LocalDateTime</text></g><!--class SeasonalPlotCatalog--><g id="elem_SeasonalPlotCatalog"><rect codeLine="86" fill="#F1F1F1" height="71.2031" id="SeasonalPlotCatalog" rx="2.5" ry="2.5" style="stroke:#181818;stroke-width:0.5;" width="404" x="2509" y="785"/><ellipse cx="2640.75" cy="807.291" fill="#B4A7E5" rx="11" ry="11" style="stroke:#181818;stroke-width:1.0;"/><path d="M2641.7031,803.9316 L2641.7031,810.5879 L2643.4219,810.5879 Q2644.0313,810.5879 2644.2969,810.8223 Q2644.5625,811.0566 2644.5625,811.4473 Q2644.5625,811.8223 2644.2969,812.0566 Q2644.0313,812.291 2643.4219,812.291 L2638.2813,812.291 Q2637.6719,812.291 2637.4063,812.0566 Q2637.1406,811.8223 2637.1406,811.4316 Q2637.1406,811.0566 2637.4063,810.8223 Q2637.6719,810.5879 2638.2813,810.5879 L2640,810.5879 L2640,803.9316 L2638.2813,803.9316 Q2637.6719,803.9316 2637.4063,803.6973 Q2637.1406,803.4629 2637.1406,803.0723 Q2637.1406,802.6973 2637.4063,802.4629 Q2637.6719,802.2285 2638.2813,802.2285 L2643.4219,802.2285 Q2644.0313,802.2285 2644.2969,802.4629 Q2644.5625,802.6973 2644.5625,803.0723 Q2644.5625,803.4629 2644.2969,803.6973 Q2644.0313,803.9316 2643.4219,803.9316 L2641.7031,803.9316 Z " fill="#000000"/><text fill="#000000" font-family="sans-serif" font-size="12" font-style="italic" lengthAdjust="spacing" textLength="73" x="2690.75" y="802.9492">&#171;Repository&#187;</text><text fill="#000000" font-family="sans-serif" font-size="14" font-style="italic" lengthAdjust="spacing" textLength="132" x="2661.25" y="821.0684">SeasonalPlotCatalog</text><line style="stroke:#181818;stroke-width:0.5;" x1="2510" x2="2912" y1="829.582" y2="829.582"/><text fill="#000000" font-family="sans-serif" font-size="14" lengthAdjust="spacing" textLength="392" x="2515" y="848.6895">+seasonalFilter(SeasonalSiteState query): List&lt;SeasonalPlot&gt;</text></g><!--class SeasonalSiteState--><g id="elem_SeasonalSiteState"><rect codeLine="89" fill="#F1F1F1" height="133.1055" id="SeasonalSiteState" rx="2.5" ry="2.5" style="stroke:#181818;stroke-width:0.5;" width="160" x="2103" y="472"/><ellipse cx="2123.4" cy="488" fill="#B4A7E5" rx="11" ry="11" style="stroke:#181818;stroke-width:1.0;"/><path d="M2124.3531,484.6406 L2124.3531,491.2969 L2126.0719,491.2969 Q2126.6813,491.2969 2126.9469,491.5313 Q2127.2125,491.7656 2127.2125,492.1563 Q2127.2125,492.5313 2126.9469,492.7656 Q2126.6813,493 2126.0719,493 L2120.9313,493 Q2120.3219,493 2120.0563,492.7656 Q2119.7906,492.5313 2119.7906,492.1406 Q2119.7906,491.7656 2120.0563,491.5313 Q2120.3219,491.2969 2120.9313,491.2969 L2122.65,491.2969 L2122.65,484.6406 L2120.9313,484.6406 Q2120.3219,484.6406 2120.0563,484.4063 Q2119.7906,484.1719 2119.7906,483.7813 Q2119.7906,483.4063 2120.0563,483.1719 Q2120.3219,482.9375 2120.9313,482.9375 L2126.0719,482.9375 Q2126.6813,482.9375 2126.9469,483.1719 Q2127.2125,483.4063 2127.2125,483.7813 Q2127.2125,484.1719 2126.9469,484.4063 Q2126.6813,484.6406 2126.0719,484.6406 L2124.3531,484.6406 Z " fill="#000000"/><text fill="#000000" font-family="sans-serif" font-size="14" font-style="italic" lengthAdjust="spacing" textLength="116" x="2138.6" y="493.7969">SeasonalSiteState</text><line style="stroke:#181818;stroke-width:0.5;" x1="2104" x2="2262" y1="504" y2="504"/><text fill="#000000" font-family="sans-serif" font-size="14" lengthAdjust="spacing" textLength="139" x="2109" y="523.1074">+getSizeMin(): Double</text><text fill="#000000" font-family="sans-serif" font-size="14" lengthAdjust="spacing" textLength="142" x="2109" y="541.7285">+getSizeMax(): Double</text><text fill="#000000" font-family="sans-serif" font-size="14" lengthAdjust="spacing" textLength="148" x="2109" y="560.3496">+getPriceMax(): Double</text><text fill="#000000" font-family="sans-serif" font-size="14" lengthAdjust="spacing" textLength="145" x="2109" y="578.9707">+getPriceMin(): Double</text><text fill="#000000" font-family="sans-serif" font-size="14" lengthAdjust="spacing" textLength="138" x="2109" y="597.5918">+getParking(): Integer</text></g><!--class SeasonalPlotCatalogController--><g id="elem_SeasonalPlotCatalogController"><rect codeLine="96" fill="#F1F1F1" height="284.0352" id="SeasonalPlotCatalogController" rx="2.5" ry="2.5" style="stroke:#181818;stroke-width:0.5;" width="1055" x="2299.5" y="396.5"/><ellipse cx="2725.75" cy="418.791" fill="#ADD1B2" rx="11" ry="11" style="stroke:#181818;stroke-width:1.0;"/><path d="M2728.5156,414.666 Q2728.6719,414.4473 2728.8594,414.3379 Q2729.0469,414.2285 2729.2656,414.2285 Q2729.6406,414.2285 2729.875,414.4941 Q2730.1094,414.7441 2730.1094,415.3535 L2730.1094,416.8066 Q2730.1094,417.416 2729.875,417.6816 Q2729.6406,417.9473 2729.2656,417.9473 Q2728.9219,417.9473 2728.7188,417.7441 Q2728.5156,417.5566 2728.4063,417.041 Q2728.3594,416.6816 2728.1719,416.4941 Q2727.8438,416.1191 2727.2344,415.9004 Q2726.625,415.6816 2726,415.6816 Q2725.2344,415.6816 2724.5938,416.0098 Q2723.9688,416.3379 2723.4688,417.0879 Q2722.9844,417.8379 2722.9844,418.8691 L2722.9844,419.9629 Q2722.9844,421.1973 2723.875,422.0254 Q2724.7656,422.8379 2726.3594,422.8379 Q2727.2969,422.8379 2727.9531,422.5879 Q2728.3438,422.4316 2728.7656,421.9941 Q2729.0313,421.7285 2729.1719,421.6504 Q2729.3281,421.5723 2729.5313,421.5723 Q2729.8594,421.5723 2730.1094,421.8379 Q2730.375,422.0879 2730.375,422.4316 Q2730.375,422.7754 2730.0313,423.1816 Q2729.5313,423.7598 2728.7344,424.0879 Q2727.6563,424.541 2726.3594,424.541 Q2724.8438,424.541 2723.6406,423.916 Q2722.6563,423.416 2721.9688,422.3535 Q2721.2813,421.2754 2721.2813,419.9941 L2721.2813,418.8379 Q2721.2813,417.5098 2721.8906,416.3691 Q2722.5156,415.2129 2723.6094,414.6035 Q2724.7031,413.9785 2725.9375,413.9785 Q2726.6719,413.9785 2727.3125,414.1504 Q2727.9688,414.3066 2728.5156,414.666 Z " fill="#000000"/><text fill="#000000" font-family="sans-serif" font-size="12" font-style="italic" lengthAdjust="spacing" textLength="68" x="2809.25" y="414.4492">&#171;Controller&#187;</text><text fill="#000000" font-family="sans-serif" font-size="14" lengthAdjust="spacing" textLength="194" x="2746.25" y="432.5684">SeasonalPlotCatalogController</text><line style="stroke:#181818;stroke-width:0.5;" x1="2300.5" x2="3353.5" y1="441.082" y2="441.082"/><text fill="#000000" font-family="sans-serif" font-size="14" lengthAdjust="spacing" textLength="278" x="2305.5" y="460.1895">+seasonalPlotCatalog: SeasonalPlotCatalog</text><text fill="#000000" font-family="sans-serif" font-size="14" lengthAdjust="spacing" textLength="382" x="2305.5" y="478.8105">+reservationRepository: SeasonalPlotReservationRepository</text><text fill="#000000" font-family="sans-serif" font-size="14" lengthAdjust="spacing" textLength="385" x="2305.5" y="497.4316">+activReservationRepository: Set&lt;SeasonalPlotReservation&gt;</text><text fill="#000000" font-family="sans-serif" font-size="14" lengthAdjust="spacing" textLength="191" x="2305.5" y="516.0527">+businessTime: BusinessTime</text><line style="stroke:#181818;stroke-width:0.5;" x1="2300.5" x2="3353.5" y1="523.5664" y2="523.5664"/><text fill="#000000" font-family="sans-serif" font-size="14" lengthAdjust="spacing" textLength="1043" x="2305.5" y="542.6738">+SeasonalPlotCatalogController(SeasonalPlotCatalog seasonalPlotCatalog, SeasonalPlotReservationRepository reservationRepository, BusinessTime businessTime)</text><text fill="#000000" font-family="sans-serif" font-size="14" lengthAdjust="spacing" textLength="271" x="2305.5" y="561.2949">+initializeSeasonalCart(): SeasonalPlotCart</text><text fill="#000000" font-family="sans-serif" font-size="14" lengthAdjust="spacing" textLength="775" x="2305.5" y="579.916">+setupSeasonalCatalog(Model model, Optional&lt;UserAccount&gt; user, SeasonalPlotCatalog.SeasonalSiteState query): String</text><text fill="#000000" font-family="sans-serif" font-size="14" lengthAdjust="spacing" textLength="659" x="2305.5" y="598.5371">+filter(Model model, Optional&lt;UserAccount&gt; user, SeasonalPlotCatalog.SeasonalSiteState query): String</text><text fill="#000000" font-family="sans-serif" font-size="14" lengthAdjust="spacing" textLength="855" x="2305.5" y="617.1582">+reservate(Model model, UserAccount user, SeasonalPlot seasonalPlot, Integer payMethod, SeasonalPlotCart seasonalPlotCart): String</text><text fill="#000000" font-family="sans-serif" font-size="14" lengthAdjust="spacing" textLength="480" x="2305.5" y="635.7793">+cancel(Model model, UserAccount user, SeasonalPlot seasonalPlot): String</text><text fill="#000000" font-family="sans-serif" font-size="14" lengthAdjust="spacing" textLength="719" x="2305.5" y="654.4004">+showSeasonalPlotDetails(Model model, SeasonalPlotCatalog.SeasonalSiteState query, SeasonalPlot plot): String</text><text fill="#000000" font-family="sans-serif" font-size="14" lengthAdjust="spacing" textLength="693" x="2305.5" y="673.0215">+seasonalComment(Model model, SeasonalPlot plot, CommentInfo info, UserAccount currUserAccount): String</text></g><!--class CommentInfo--><g id="elem_CommentInfo"><rect codeLine="110" fill="#F1F1F1" height="77.2422" id="CommentInfo" rx="2.5" ry="2.5" style="stroke:#181818;stroke-width:0.5;" width="155" x="2749.5" y="175.5"/><ellipse cx="2782.05" cy="191.5" fill="#B4A7E5" rx="11" ry="11" style="stroke:#181818;stroke-width:1.0;"/><path d="M2783.0031,188.1406 L2783.0031,194.7969 L2784.7219,194.7969 Q2785.3313,194.7969 2785.5969,195.0313 Q2785.8625,195.2656 2785.8625,195.6563 Q2785.8625,196.0313 2785.5969,196.2656 Q2785.3313,196.5 2784.7219,196.5 L2779.5813,196.5 Q2778.9719,196.5 2778.7063,196.2656 Q2778.4406,196.0313 2778.4406,195.6406 Q2778.4406,195.2656 2778.7063,195.0313 Q2778.9719,194.7969 2779.5813,194.7969 L2781.3,194.7969 L2781.3,188.1406 L2779.5813,188.1406 Q2778.9719,188.1406 2778.7063,187.9063 Q2778.4406,187.6719 2778.4406,187.2813 Q2778.4406,186.9063 2778.7063,186.6719 Q2778.9719,186.4375 2779.5813,186.4375 L2784.7219,186.4375 Q2785.3313,186.4375 2785.5969,186.6719 Q2785.8625,186.9063 2785.8625,187.2813 Q2785.8625,187.6719 2785.5969,187.9063 Q2785.3313,188.1406 2784.7219,188.1406 L2783.0031,188.1406 Z " fill="#000000"/><text fill="#000000" font-family="sans-serif" font-size="14" font-style="italic" lengthAdjust="spacing" textLength="84" x="2799.95" y="197.2969">CommentInfo</text><line style="stroke:#181818;stroke-width:0.5;" x1="2750.5" x2="2903.5" y1="207.5" y2="207.5"/><text fill="#000000" font-family="sans-serif" font-size="14" lengthAdjust="spacing" textLength="143" x="2755.5" y="226.6074">+getComment(): String</text><text fill="#000000" font-family="sans-serif" font-size="14" lengthAdjust="spacing" textLength="102" x="2755.5" y="245.2285">+getRating(): int</text></g><!--class SeasonalPlotCatalogDataInitializer--><g id="elem_SeasonalPlotCatalogDataInitializer"><rect codeLine="114" fill="#F1F1F1" height="116.4453" id="SeasonalPlotCatalogDataInitializer" rx="2.5" ry="2.5" style="stroke:#181818;stroke-width:0.5;" width="512" x="3391" y="480.5"/><ellipse cx="3534.75" cy="502.791" fill="#ADD1B2" rx="11" ry="11" style="stroke:#181818;stroke-width:1.0;"/><path d="M3537.5156,498.666 Q3537.6719,498.4473 3537.8594,498.3379 Q3538.0469,498.2285 3538.2656,498.2285 Q3538.6406,498.2285 3538.875,498.4941 Q3539.1094,498.7441 3539.1094,499.3535 L3539.1094,500.8066 Q3539.1094,501.416 3538.875,501.6816 Q3538.6406,501.9473 3538.2656,501.9473 Q3537.9219,501.9473 3537.7188,501.7441 Q3537.5156,501.5566 3537.4063,501.041 Q3537.3594,500.6816 3537.1719,500.4941 Q3536.8438,500.1191 3536.2344,499.9004 Q3535.625,499.6816 3535,499.6816 Q3534.2344,499.6816 3533.5938,500.0098 Q3532.9688,500.3379 3532.4688,501.0879 Q3531.9844,501.8379 3531.9844,502.8691 L3531.9844,503.9629 Q3531.9844,505.1973 3532.875,506.0254 Q3533.7656,506.8379 3535.3594,506.8379 Q3536.2969,506.8379 3536.9531,506.5879 Q3537.3438,506.4316 3537.7656,505.9941 Q3538.0313,505.7285 3538.1719,505.6504 Q3538.3281,505.5723 3538.5313,505.5723 Q3538.8594,505.5723 3539.1094,505.8379 Q3539.375,506.0879 3539.375,506.4316 Q3539.375,506.7754 3539.0313,507.1816 Q3538.5313,507.7598 3537.7344,508.0879 Q3536.6563,508.541 3535.3594,508.541 Q3533.8438,508.541 3532.6406,507.916 Q3531.6563,507.416 3530.9688,506.3535 Q3530.2813,505.2754 3530.2813,503.9941 L3530.2813,502.8379 Q3530.2813,501.5098 3530.8906,500.3691 Q3531.5156,499.2129 3532.6094,498.6035 Q3533.7031,497.9785 3534.9375,497.9785 Q3535.6719,497.9785 3536.3125,498.1504 Q3536.9688,498.3066 3537.5156,498.666 Z " fill="#000000"/><text fill="#000000" font-family="sans-serif" font-size="12" font-style="italic" lengthAdjust="spacing" textLength="79" x="3623.75" y="498.4492">&#171;Component&#187;</text><text fill="#000000" font-family="sans-serif" font-size="14" lengthAdjust="spacing" textLength="216" x="3555.25" y="516.5684">SeasonalPlotCatalogDataInitializer</text><line style="stroke:#181818;stroke-width:0.5;" x1="3392" x2="3902" y1="525.082" y2="525.082"/><text fill="#000000" font-family="sans-serif" font-size="14" lengthAdjust="spacing" textLength="275" x="3397" y="544.1895">-seasonalPlotCatalog: SeasonalPlotCatalog</text><line style="stroke:#181818;stroke-width:0.5;" x1="3392" x2="3902" y1="551.7031" y2="551.7031"/><text fill="#000000" font-family="sans-serif" font-size="14" lengthAdjust="spacing" textLength="500" x="3397" y="570.8105">+SeasonalPlotCatalogDataInitializer(SeasonalPlotCatalog seasonalPlotCatalog)</text><text fill="#000000" font-family="sans-serif" font-size="14" lengthAdjust="spacing" textLength="101" x="3397" y="589.4316">+initialize(): void</text></g><!--class SeasonalPlotDashboardController--><g id="elem_SeasonalPlotDashboardController"><rect codeLine="119" fill="#F1F1F1" height="190.9297" id="SeasonalPlotDashboardController" rx="2.5" ry="2.5" style="stroke:#181818;stroke-width:0.5;" width="735" x="61.5" y="443"/><ellipse cx="317.25" cy="465.291" fill="#ADD1B2" rx="11" ry="11" style="stroke:#181818;stroke-width:1.0;"/><path d="M320.0156,461.166 Q320.1719,460.9473 320.3594,460.8379 Q320.5469,460.7285 320.7656,460.7285 Q321.1406,460.7285 321.375,460.9941 Q321.6094,461.2441 321.6094,461.8535 L321.6094,463.3066 Q321.6094,463.916 321.375,464.1816 Q321.1406,464.4473 320.7656,464.4473 Q320.4219,464.4473 320.2188,464.2441 Q320.0156,464.0566 319.9063,463.541 Q319.8594,463.1816 319.6719,462.9941 Q319.3438,462.6191 318.7344,462.4004 Q318.125,462.1816 317.5,462.1816 Q316.7344,462.1816 316.0938,462.5098 Q315.4688,462.8379 314.9688,463.5879 Q314.4844,464.3379 314.4844,465.3691 L314.4844,466.4629 Q314.4844,467.6973 315.375,468.5254 Q316.2656,469.3379 317.8594,469.3379 Q318.7969,469.3379 319.4531,469.0879 Q319.8438,468.9316 320.2656,468.4941 Q320.5313,468.2285 320.6719,468.1504 Q320.8281,468.0723 321.0313,468.0723 Q321.3594,468.0723 321.6094,468.3379 Q321.875,468.5879 321.875,468.9316 Q321.875,469.2754 321.5313,469.6816 Q321.0313,470.2598 320.2344,470.5879 Q319.1563,471.041 317.8594,471.041 Q316.3438,471.041 315.1406,470.416 Q314.1563,469.916 313.4688,468.8535 Q312.7813,467.7754 312.7813,466.4941 L312.7813,465.3379 Q312.7813,464.0098 313.3906,462.8691 Q314.0156,461.7129 315.1094,461.1035 Q316.2031,460.4785 317.4375,460.4785 Q318.1719,460.4785 318.8125,460.6504 Q319.4688,460.8066 320.0156,461.166 Z " fill="#000000"/><text fill="#000000" font-family="sans-serif" font-size="12" font-style="italic" lengthAdjust="spacing" textLength="68" x="411.25" y="460.9492">&#171;Controller&#187;</text><text fill="#000000" font-family="sans-serif" font-size="14" lengthAdjust="spacing" textLength="215" x="337.75" y="479.0684">SeasonalPlotDashboardController</text><line style="stroke:#181818;stroke-width:0.5;" x1="62.5" x2="795.5" y1="487.582" y2="487.582"/><text fill="#000000" font-family="sans-serif" font-size="14" lengthAdjust="spacing" textLength="278" x="67.5" y="506.6895">+seasonalPlotCatalog: SeasonalPlotCatalog</text><text fill="#000000" font-family="sans-serif" font-size="14" lengthAdjust="spacing" textLength="177" x="67.5" y="525.3105">+accountancy: Accountancy</text><line style="stroke:#181818;stroke-width:0.5;" x1="62.5" x2="795.5" y1="532.8242" y2="532.8242"/><text fill="#000000" font-family="sans-serif" font-size="14" lengthAdjust="spacing" textLength="614" x="67.5" y="551.9316">+SeasonalPlotDashboardController(SeasonalPlotCatalog plotCatalog, Accountancy accountancy)</text><text fill="#000000" font-family="sans-serif" font-size="14" lengthAdjust="spacing" textLength="231" x="67.5" y="570.5527">+seasonalPlots(Model model): String</text><text fill="#000000" font-family="sans-serif" font-size="14" lengthAdjust="spacing" textLength="723" x="67.5" y="589.1738">+changeSeasonalPlotDetails(Model model, SeasonalPlotDashboardController.SeasonalPlotInformation info): String</text><text fill="#000000" font-family="sans-serif" font-size="14" lengthAdjust="spacing" textLength="673" x="67.5" y="607.7949">+createSeasonalPlot(Model model, SeasonalPlotDashboardController.SeasonalPlotInformation info): String</text><text fill="#000000" font-family="sans-serif" font-size="14" lengthAdjust="spacing" textLength="572" x="67.5" y="626.416">+changeCosts(Model model, SeasonalPlotDashboardController.CostsInfo costsInfo): String</text></g><!--class SeasonalPlotInformation--><g id="elem_SeasonalPlotInformation"><rect codeLine="128" fill="#F1F1F1" height="244.832" id="SeasonalPlotInformation" rx="2.5" ry="2.5" style="stroke:#181818;stroke-width:0.5;" width="251" x="182.5" y="91.5"/><ellipse cx="226.75" cy="107.5" fill="#B4A7E5" rx="11" ry="11" style="stroke:#181818;stroke-width:1.0;"/><path d="M227.7031,104.1406 L227.7031,110.7969 L229.4219,110.7969 Q230.0313,110.7969 230.2969,111.0313 Q230.5625,111.2656 230.5625,111.6563 Q230.5625,112.0313 230.2969,112.2656 Q230.0313,112.5 229.4219,112.5 L224.2813,112.5 Q223.6719,112.5 223.4063,112.2656 Q223.1406,112.0313 223.1406,111.6406 Q223.1406,111.2656 223.4063,111.0313 Q223.6719,110.7969 224.2813,110.7969 L226,110.7969 L226,104.1406 L224.2813,104.1406 Q223.6719,104.1406 223.4063,103.9063 Q223.1406,103.6719 223.1406,103.2813 Q223.1406,102.9063 223.4063,102.6719 Q223.6719,102.4375 224.2813,102.4375 L229.4219,102.4375 Q230.0313,102.4375 230.2969,102.6719 Q230.5625,102.9063 230.5625,103.2813 Q230.5625,103.6719 230.2969,103.9063 Q230.0313,104.1406 229.4219,104.1406 L227.7031,104.1406 Z " fill="#000000"/><text fill="#000000" font-family="sans-serif" font-size="14" font-style="italic" lengthAdjust="spacing" textLength="154" x="247.25" y="113.2969">SeasonalPlotInformation</text><line style="stroke:#181818;stroke-width:0.5;" x1="183.5" x2="432.5" y1="123.5" y2="123.5"/><text fill="#000000" font-family="sans-serif" font-size="14" lengthAdjust="spacing" textLength="239" x="188.5" y="142.6074">+getPlotID(): Product.ProductIdentifier</text><text fill="#000000" font-family="sans-serif" font-size="14" lengthAdjust="spacing" textLength="119" x="188.5" y="161.2285">+getName(): String</text><text fill="#000000" font-family="sans-serif" font-size="14" lengthAdjust="spacing" textLength="117" x="188.5" y="179.8496">+getSize(): Double</text><text fill="#000000" font-family="sans-serif" font-size="14" lengthAdjust="spacing" textLength="174" x="188.5" y="198.4707">+getParkingValue(): Integer</text><text fill="#000000" font-family="sans-serif" font-size="14" lengthAdjust="spacing" textLength="187" x="188.5" y="217.0918">+getElectricityMeter(): Double</text><text fill="#000000" font-family="sans-serif" font-size="14" lengthAdjust="spacing" textLength="165" x="188.5" y="235.7129">+getWaterMeter(): Double</text><text fill="#000000" font-family="sans-serif" font-size="14" lengthAdjust="spacing" textLength="123" x="188.5" y="254.334">+getPrice(): Double</text><text fill="#000000" font-family="sans-serif" font-size="14" lengthAdjust="spacing" textLength="154" x="188.5" y="272.9551">+getDescription(): String</text><text fill="#000000" font-family="sans-serif" font-size="14" lengthAdjust="spacing" textLength="127" x="188.5" y="291.5762">+getPicture(): String</text><text fill="#000000" font-family="sans-serif" font-size="14" lengthAdjust="spacing" textLength="123" x="188.5" y="310.1973">+getState(): Integer</text><text fill="#000000" font-family="sans-serif" font-size="14" lengthAdjust="spacing" textLength="162" x="188.5" y="328.8184">+getRepairCost(): Double</text></g><!--class CostsInfo--><g id="elem_CostsInfo"><rect codeLine="141" fill="#F1F1F1" height="77.2422" id="CostsInfo" rx="2.5" ry="2.5" style="stroke:#181818;stroke-width:0.5;" width="199" x="469.5" y="175.5"/><ellipse cx="534.75" cy="191.5" fill="#B4A7E5" rx="11" ry="11" style="stroke:#181818;stroke-width:1.0;"/><path d="M535.7031,188.1406 L535.7031,194.7969 L537.4219,194.7969 Q538.0313,194.7969 538.2969,195.0313 Q538.5625,195.2656 538.5625,195.6563 Q538.5625,196.0313 538.2969,196.2656 Q538.0313,196.5 537.4219,196.5 L532.2813,196.5 Q531.6719,196.5 531.4063,196.2656 Q531.1406,196.0313 531.1406,195.6406 Q531.1406,195.2656 531.4063,195.0313 Q531.6719,194.7969 532.2813,194.7969 L534,194.7969 L534,188.1406 L532.2813,188.1406 Q531.6719,188.1406 531.4063,187.9063 Q531.1406,187.6719 531.1406,187.2813 Q531.1406,186.9063 531.4063,186.6719 Q531.6719,186.4375 532.2813,186.4375 L537.4219,186.4375 Q538.0313,186.4375 538.2969,186.6719 Q538.5625,186.9063 538.5625,187.2813 Q538.5625,187.6719 538.2969,187.9063 Q538.0313,188.1406 537.4219,188.1406 L535.7031,188.1406 Z " fill="#000000"/><text fill="#000000" font-family="sans-serif" font-size="14" font-style="italic" lengthAdjust="spacing" textLength="60" x="555.25" y="197.2969">CostsInfo</text><line style="stroke:#181818;stroke-width:0.5;" x1="470.5" x2="667.5" y1="207.5" y2="207.5"/><text fill="#000000" font-family="sans-serif" font-size="14" lengthAdjust="spacing" textLength="187" x="475.5" y="226.6074">+getElectricityCosts(): Double</text><text fill="#000000" font-family="sans-serif" font-size="14" lengthAdjust="spacing" textLength="165" x="475.5" y="245.2285">+getWaterCosts(): Double</text></g><!--class SeasonalPlotCart--><g id="elem_SeasonalPlotCart"><rect codeLine="18" fill="#F1F1F1" height="159.7266" id="SeasonalPlotCart" rx="2.5" ry="2.5" style="stroke:#181818;stroke-width:0.5;" width="494" x="833" y="134"/><ellipse cx="1020.75" cy="150" fill="#ADD1B2" rx="11" ry="11" style="stroke:#181818;stroke-width:1.0;"/><path d="M1023.5156,145.875 Q1023.6719,145.6563 1023.8594,145.5469 Q1024.0469,145.4375 1024.2656,145.4375 Q1024.6406,145.4375 1024.875,145.7031 Q1025.1094,145.9531 1025.1094,146.5625 L1025.1094,148.0156 Q1025.1094,148.625 1024.875,148.8906 Q1024.6406,149.1563 1024.2656,149.1563 Q1023.9219,149.1563 1023.7188,148.9531 Q1023.5156,148.7656 1023.4063,148.25 Q1023.3594,147.8906 1023.1719,147.7031 Q1022.8438,147.3281 1022.2344,147.1094 Q1021.625,146.8906 1021,146.8906 Q1020.2344,146.8906 1019.5938,147.2188 Q1018.9688,147.5469 1018.4688,148.2969 Q1017.9844,149.0469 1017.9844,150.0781 L1017.9844,151.1719 Q1017.9844,152.4063 1018.875,153.2344 Q1019.7656,154.0469 1021.3594,154.0469 Q1022.2969,154.0469 1022.9531,153.7969 Q1023.3438,153.6406 1023.7656,153.2031 Q1024.0313,152.9375 1024.1719,152.8594 Q1024.3281,152.7813 1024.5313,152.7813 Q1024.8594,152.7813 1025.1094,153.0469 Q1025.375,153.2969 1025.375,153.6406 Q1025.375,153.9844 1025.0313,154.3906 Q1024.5313,154.9688 1023.7344,155.2969 Q1022.6563,155.75 1021.3594,155.75 Q1019.8438,155.75 1018.6406,155.125 Q1017.6563,154.625 1016.9688,153.5625 Q1016.2813,152.4844 1016.2813,151.2031 L1016.2813,150.0469 Q1016.2813,148.7188 1016.8906,147.5781 Q1017.5156,146.4219 1018.6094,145.8125 Q1019.7031,145.1875 1020.9375,145.1875 Q1021.6719,145.1875 1022.3125,145.3594 Q1022.9688,145.5156 1023.5156,145.875 Z " fill="#000000"/><text fill="#000000" font-family="sans-serif" font-size="14" lengthAdjust="spacing" textLength="110" x="1041.25" y="155.7969">SeasonalPlotCart</text><line style="stroke:#181818;stroke-width:0.5;" x1="834" x2="1326" y1="166" y2="166"/><text fill="#000000" font-family="sans-serif" font-size="14" lengthAdjust="spacing" textLength="291" x="839" y="185.1074">+reservations: List&lt;SeasonalPlotReservation&gt;</text><line style="stroke:#181818;stroke-width:0.5;" x1="834" x2="1326" y1="192.6211" y2="192.6211"/><text fill="#000000" font-family="sans-serif" font-size="14" lengthAdjust="spacing" textLength="128" x="839" y="211.7285">+SeasonalPlotCart()</text><text fill="#000000" font-family="sans-serif" font-size="14" lengthAdjust="spacing" textLength="335" x="839" y="230.3496">+add(SeasonalPlotReservation reservation): boolean</text><text fill="#000000" font-family="sans-serif" font-size="14" lengthAdjust="spacing" textLength="482" x="839" y="248.9707">+getReservationsOfUser(UserAccount user): List&lt;SeasonalPlotReservation&gt;</text><text fill="#000000" font-family="sans-serif" font-size="14" lengthAdjust="spacing" textLength="83" x="839" y="267.5918">+clear(): void</text><text fill="#000000" font-family="sans-serif" font-size="14" lengthAdjust="spacing" textLength="358" x="839" y="286.2129">+remove(SeasonalPlotReservation reservation): boolean</text></g><!--class SeasonalPlotReservation--><g id="elem_SeasonalPlotReservation"><rect codeLine="26" fill="#F1F1F1" height="265.4141" id="SeasonalPlotReservation" rx="2.5" ry="2.5" style="stroke:#181818;stroke-width:0.5;" width="870" x="916" y="960.5"/><ellipse cx="1267.25" cy="982.791" fill="#ADD1B2" rx="11" ry="11" style="stroke:#181818;stroke-width:1.0;"/><path d="M1270.0156,978.666 Q1270.1719,978.4473 1270.3594,978.3379 Q1270.5469,978.2285 1270.7656,978.2285 Q1271.1406,978.2285 1271.375,978.4941 Q1271.6094,978.7441 1271.6094,979.3535 L1271.6094,980.8066 Q1271.6094,981.416 1271.375,981.6816 Q1271.1406,981.9473 1270.7656,981.9473 Q1270.4219,981.9473 1270.2188,981.7441 Q1270.0156,981.5566 1269.9063,981.041 Q1269.8594,980.6816 1269.6719,980.4941 Q1269.3438,980.1191 1268.7344,979.9004 Q1268.125,979.6816 1267.5,979.6816 Q1266.7344,979.6816 1266.0938,980.0098 Q1265.4688,980.3379 1264.9688,981.0879 Q1264.4844,981.8379 1264.4844,982.8691 L1264.4844,983.9629 Q1264.4844,985.1973 1265.375,986.0254 Q1266.2656,986.8379 1267.8594,986.8379 Q1268.7969,986.8379 1269.4531,986.5879 Q1269.8438,986.4316 1270.2656,985.9941 Q1270.5313,985.7285 1270.6719,985.6504 Q1270.8281,985.5723 1271.0313,985.5723 Q1271.3594,985.5723 1271.6094,985.8379 Q1271.875,986.0879 1271.875,986.4316 Q1271.875,986.7754 1271.5313,987.1816 Q1271.0313,987.7598 1270.2344,988.0879 Q1269.1563,988.541 1267.8594,988.541 Q1266.3438,988.541 1265.1406,987.916 Q1264.1563,987.416 1263.4688,986.3535 Q1262.7813,985.2754 1262.7813,983.9941 L1262.7813,982.8379 Q1262.7813,981.5098 1263.3906,980.3691 Q1264.0156,979.2129 1265.1094,978.6035 Q1266.2031,977.9785 1267.4375,977.9785 Q1268.1719,977.9785 1268.8125,978.1504 Q1269.4688,978.3066 1270.0156,978.666 Z " fill="#000000"/><text fill="#000000" font-family="sans-serif" font-size="12" font-style="italic" lengthAdjust="spacing" textLength="44" x="1345.25" y="978.4492">&#171;Entity&#187;</text><text fill="#000000" font-family="sans-serif" font-size="14" lengthAdjust="spacing" textLength="159" x="1287.75" y="996.5684">SeasonalPlotReservation</text><line style="stroke:#181818;stroke-width:0.5;" x1="917" x2="1785" y1="1005.082" y2="1005.082"/><text fill="#000000" font-family="sans-serif" font-size="14" lengthAdjust="spacing" textLength="121" x="922" y="1024.1895">-payed_months: int</text><text fill="#000000" font-family="sans-serif" font-size="14" lengthAdjust="spacing" textLength="294" x="922" y="1042.8105">-payMethod =  ayMethod.YEARLY: PayMethod</text><text fill="#000000" font-family="sans-serif" font-size="14" lengthAdjust="spacing" textLength="218" x="922" y="1061.4316">-electricityDifference = 0.0: Double</text><text fill="#000000" font-family="sans-serif" font-size="14" lengthAdjust="spacing" textLength="193" x="922" y="1080.0527">-waterDifference = 0.0: Double</text><line style="stroke:#181818;stroke-width:0.5;" x1="917" x2="1785" y1="1087.5664" y2="1087.5664"/><text fill="#000000" font-family="sans-serif" font-size="14" lengthAdjust="spacing" textLength="858" x="922" y="1106.6738">+SeasonalPlotReservation(UserAccount user, SeasonalPlot product, LocalDateTime begin, LocalDateTime end, PayMethod payMethod)</text><text fill="#000000" font-family="sans-serif" font-size="14" lengthAdjust="spacing" textLength="187" x="922" y="1125.2949">+getIntervalUnit(): ChronoUnit</text><text fill="#000000" font-family="sans-serif" font-size="14" lengthAdjust="spacing" textLength="185" x="922" y="1143.916">+getPrice(): MonetaryAmount</text><text fill="#000000" font-family="sans-serif" font-size="14" lengthAdjust="spacing" textLength="317" x="922" y="1162.5371">+isNextYearAvaible(LocalDateTime date): boolean</text><text fill="#000000" font-family="sans-serif" font-size="14" lengthAdjust="spacing" textLength="366" x="922" y="1181.1582">+setElectricityDifference(Double newElectricityMeter): void</text><text fill="#000000" font-family="sans-serif" font-size="14" lengthAdjust="spacing" textLength="322" x="922" y="1199.7793">+setWaterDifference(Double newWaterMeter): void</text><text fill="#000000" font-family="sans-serif" font-size="14" lengthAdjust="spacing" textLength="327" x="922" y="1218.4004">+updateMonthlyPayment(LocalDateTime date): void</text></g><!--class PayMethod--><g id="elem_PayMethod"><rect codeLine="39" fill="#F1F1F1" height="159.7266" id="PayMethod" rx="2.5" ry="2.5" style="stroke:#181818;stroke-width:0.5;" width="308" x="1280" y="740.5"/><ellipse cx="1394.25" cy="756.5" fill="#EB937F" rx="11" ry="11" style="stroke:#181818;stroke-width:1.0;"/><path d="M1393.1094,757.2969 L1393.1094,759.7969 L1397.4375,759.7969 L1397.4375,758.875 Q1397.4375,758.2656 1397.6719,758 Q1397.9219,757.7344 1398.2969,757.7344 Q1398.6719,757.7344 1398.9063,758 Q1399.1406,758.2656 1399.1406,758.875 L1399.1406,761.5 L1391.1406,761.5 Q1390.5156,761.5 1390.25,761.2656 Q1390,761.0313 1390,760.6406 Q1390,760.2656 1390.2656,760.0313 Q1390.5313,759.7969 1391.1406,759.7969 L1391.4063,759.7969 L1391.4063,753.1406 L1391.1406,753.1406 Q1390.5156,753.1406 1390.25,752.9063 Q1390,752.6719 1390,752.2813 Q1390,751.9063 1390.25,751.6719 Q1390.5156,751.4375 1391.1406,751.4375 L1398.7656,751.4375 L1398.7656,754.0313 Q1398.7656,754.6406 1398.5313,754.9063 Q1398.3125,755.1563 1397.9219,755.1563 Q1397.5469,755.1563 1397.3125,754.9063 Q1397.0781,754.6406 1397.0781,754.0313 L1397.0781,753.1406 L1393.1094,753.1406 L1393.1094,755.5938 L1394.5938,755.5938 Q1394.5938,754.9375 1394.7188,754.75 Q1394.9844,754.3438 1395.4531,754.3438 Q1395.8281,754.3438 1396.0625,754.6094 Q1396.2969,754.8594 1396.2969,755.4688 L1396.2969,757.4375 Q1396.2969,757.9844 1396.1719,758.1719 Q1395.9063,758.5625 1395.4531,758.5625 Q1394.9844,758.5625 1394.7188,758.1563 Q1394.5938,757.9688 1394.5938,757.2969 L1393.1094,757.2969 Z " fill="#000000"/><text fill="#000000" font-family="sans-serif" font-size="14" lengthAdjust="spacing" textLength="71" x="1414.75" y="762.2969">PayMethod</text><line style="stroke:#181818;stroke-width:0.5;" x1="1281" x2="1587" y1="772.5" y2="772.5"/><text fill="#000000" font-family="sans-serif" font-size="14" lengthAdjust="spacing" textLength="66" x="1286" y="791.6074">MONTHLY</text><text fill="#000000" font-family="sans-serif" font-size="14" lengthAdjust="spacing" textLength="54" x="1286" y="810.2285">YEARLY</text><text fill="#000000" font-family="sans-serif" font-size="14" lengthAdjust="spacing" textLength="93" x="1286" y="828.8496">+index: Integer</text><text fill="#000000" font-family="sans-serif" font-size="14" lengthAdjust="spacing" textLength="83" x="1286" y="847.4707">+label: String</text><line style="stroke:#181818;stroke-width:0.5;" x1="1281" x2="1587" y1="854.9844" y2="854.9844"/><text fill="#000000" font-family="sans-serif" font-size="14" lengthAdjust="spacing" textLength="249" x="1286" y="874.0918">+PayMethod(Integer index, String label)</text><text fill="#000000" font-family="sans-serif" font-size="14" lengthAdjust="spacing" text-decoration="underline" textLength="296" x="1286" y="892.7129">+fromNumberPayMethod(Integer i): PayMethod</text></g><!--class SeasonalPlotReservationDashboardController--><g id="elem_SeasonalPlotReservationDashboardController"><rect codeLine="47" fill="#F1F1F1" height="209.5508" id="SeasonalPlotReservationDashboardController" rx="2.5" ry="2.5" style="stroke:#181818;stroke-width:0.5;" width="1234" x="833" y="433.5"/><ellipse cx="1300.25" cy="455.791" fill="#ADD1B2" rx="11" ry="11" style="stroke:#181818;stroke-width:1.0;"/><path d="M1303.0156,451.666 Q1303.1719,451.4473 1303.3594,451.3379 Q1303.5469,451.2285 1303.7656,451.2285 Q1304.1406,451.2285 1304.375,451.4941 Q1304.6094,451.7441 1304.6094,452.3535 L1304.6094,453.8066 Q1304.6094,454.416 1304.375,454.6816 Q1304.1406,454.9473 1303.7656,454.9473 Q1303.4219,454.9473 1303.2188,454.7441 Q1303.0156,454.5566 1302.9063,454.041 Q1302.8594,453.6816 1302.6719,453.4941 Q1302.3438,453.1191 1301.7344,452.9004 Q1301.125,452.6816 1300.5,452.6816 Q1299.7344,452.6816 1299.0938,453.0098 Q1298.4688,453.3379 1297.9688,454.0879 Q1297.4844,454.8379 1297.4844,455.8691 L1297.4844,456.9629 Q1297.4844,458.1973 1298.375,459.0254 Q1299.2656,459.8379 1300.8594,459.8379 Q1301.7969,459.8379 1302.4531,459.5879 Q1302.8438,459.4316 1303.2656,458.9941 Q1303.5313,458.7285 1303.6719,458.6504 Q1303.8281,458.5723 1304.0313,458.5723 Q1304.3594,458.5723 1304.6094,458.8379 Q1304.875,459.0879 1304.875,459.4316 Q1304.875,459.7754 1304.5313,460.1816 Q1304.0313,460.7598 1303.2344,461.0879 Q1302.1563,461.541 1300.8594,461.541 Q1299.3438,461.541 1298.1406,460.916 Q1297.1563,460.416 1296.4688,459.3535 Q1295.7813,458.2754 1295.7813,456.9941 L1295.7813,455.8379 Q1295.7813,454.5098 1296.3906,453.3691 Q1297.0156,452.2129 1298.1094,451.6035 Q1299.2031,450.9785 1300.4375,450.9785 Q1301.1719,450.9785 1301.8125,451.1504 Q1302.4688,451.3066 1303.0156,451.666 Z " fill="#000000"/><text fill="#000000" font-family="sans-serif" font-size="12" font-style="italic" lengthAdjust="spacing" textLength="68" x="1432.25" y="451.4492">&#171;Controller&#187;</text><text fill="#000000" font-family="sans-serif" font-size="14" lengthAdjust="spacing" textLength="291" x="1320.75" y="469.5684">SeasonalPlotReservationDashboardController</text><line style="stroke:#181818;stroke-width:0.5;" x1="834" x2="2066" y1="478.082" y2="478.082"/><text fill="#000000" font-family="sans-serif" font-size="14" lengthAdjust="spacing" textLength="349" x="839" y="497.1895">+plotReservations: SeasonalPlotReservationRepository</text><text fill="#000000" font-family="sans-serif" font-size="14" lengthAdjust="spacing" textLength="177" x="839" y="515.8105">+accountancy: Accountancy</text><text fill="#000000" font-family="sans-serif" font-size="14" lengthAdjust="spacing" textLength="278" x="839" y="534.4316">+seasonalPlotCatalog: SeasonalPlotCatalog</text><text fill="#000000" font-family="sans-serif" font-size="14" lengthAdjust="spacing" textLength="191" x="839" y="553.0527">+businessTime: BusinessTime</text><line style="stroke:#181818;stroke-width:0.5;" x1="834" x2="2066" y1="560.5664" y2="560.5664"/><text fill="#000000" font-family="sans-serif" font-size="14" lengthAdjust="spacing" textLength="1222" x="839" y="579.6738">+SeasonalPlotReservationDashboardController(SeasonalPlotReservationRepository plotReservations, BusinessTime businessTime, Accountancy accountancy, SeasonalPlotCatalog plotCatalog)</text><text fill="#000000" font-family="sans-serif" font-size="14" lengthAdjust="spacing" textLength="221" x="839" y="598.2949">+reservations(Model model): String</text><text fill="#000000" font-family="sans-serif" font-size="14" lengthAdjust="spacing" textLength="501" x="839" y="616.916">+updateReservations(Model model, ReservationChangeInformation info): String</text><text fill="#000000" font-family="sans-serif" font-size="14" lengthAdjust="spacing" textLength="146" x="839" y="635.5371">+dayHasPassed(): void</text></g><!--class ReservationChangeInformation--><g id="elem_ReservationChangeInformation"><rect codeLine="57" fill="#F1F1F1" height="114.4844" id="ReservationChangeInformation" rx="2.5" ry="2.5" style="stroke:#181818;stroke-width:0.5;" width="228" x="1629" y="157"/><ellipse cx="1644" cy="173" fill="#B4A7E5" rx="11" ry="11" style="stroke:#181818;stroke-width:1.0;"/><path d="M1644.9531,169.6406 L1644.9531,176.2969 L1646.6719,176.2969 Q1647.2813,176.2969 1647.5469,176.5313 Q1647.8125,176.7656 1647.8125,177.1563 Q1647.8125,177.5313 1647.5469,177.7656 Q1647.2813,178 1646.6719,178 L1641.5313,178 Q1640.9219,178 1640.6563,177.7656 Q1640.3906,177.5313 1640.3906,177.1406 Q1640.3906,176.7656 1640.6563,176.5313 Q1640.9219,176.2969 1641.5313,176.2969 L1643.25,176.2969 L1643.25,169.6406 L1641.5313,169.6406 Q1640.9219,169.6406 1640.6563,169.4063 Q1640.3906,169.1719 1640.3906,168.7813 Q1640.3906,168.4063 1640.6563,168.1719 Q1640.9219,167.9375 1641.5313,167.9375 L1646.6719,167.9375 Q1647.2813,167.9375 1647.5469,168.1719 Q1647.8125,168.4063 1647.8125,168.7813 Q1647.8125,169.1719 1647.5469,169.4063 Q1647.2813,169.6406 1646.6719,169.6406 L1644.9531,169.6406 Z " fill="#000000"/><text fill="#000000" font-family="sans-serif" font-size="14" font-style="italic" lengthAdjust="spacing" textLength="196" x="1658" y="178.7969">ReservationChangeInformation</text><line style="stroke:#181818;stroke-width:0.5;" x1="1630" x2="1856" y1="189" y2="189"/><text fill="#000000" font-family="sans-serif" font-size="14" lengthAdjust="spacing" textLength="184" x="1635" y="208.1074">+getReservationUUID(): UUID</text><text fill="#000000" font-family="sans-serif" font-size="14" lengthAdjust="spacing" textLength="159" x="1635" y="226.7285">+getStateValue(): Integer</text><text fill="#000000" font-family="sans-serif" font-size="14" lengthAdjust="spacing" textLength="213" x="1635" y="245.3496">+getNewElectricityMeter(): Double</text><text fill="#000000" font-family="sans-serif" font-size="14" lengthAdjust="spacing" textLength="191" x="1635" y="263.9707">+getNewWaterMeter(): Double</text></g><!--class TimedEventListener--><g id="elem_TimedEventListener"><rect codeLine="63" fill="#F1F1F1" height="77.2422" id="TimedEventListener" rx="2.5" ry="2.5" style="stroke:#181818;stroke-width:0.5;" width="229" x="1363.5" y="175.5"/><ellipse cx="1410.75" cy="191.5" fill="#ADD1B2" rx="11" ry="11" style="stroke:#181818;stroke-width:1.0;"/><path d="M1413.5156,187.375 Q1413.6719,187.1563 1413.8594,187.0469 Q1414.0469,186.9375 1414.2656,186.9375 Q1414.6406,186.9375 1414.875,187.2031 Q1415.1094,187.4531 1415.1094,188.0625 L1415.1094,189.5156 Q1415.1094,190.125 1414.875,190.3906 Q1414.6406,190.6563 1414.2656,190.6563 Q1413.9219,190.6563 1413.7188,190.4531 Q1413.5156,190.2656 1413.4063,189.75 Q1413.3594,189.3906 1413.1719,189.2031 Q1412.8438,188.8281 1412.2344,188.6094 Q1411.625,188.3906 1411,188.3906 Q1410.2344,188.3906 1409.5938,188.7188 Q1408.9688,189.0469 1408.4688,189.7969 Q1407.9844,190.5469 1407.9844,191.5781 L1407.9844,192.6719 Q1407.9844,193.9063 1408.875,194.7344 Q1409.7656,195.5469 1411.3594,195.5469 Q1412.2969,195.5469 1412.9531,195.2969 Q1413.3438,195.1406 1413.7656,194.7031 Q1414.0313,194.4375 1414.1719,194.3594 Q1414.3281,194.2813 1414.5313,194.2813 Q1414.8594,194.2813 1415.1094,194.5469 Q1415.375,194.7969 1415.375,195.1406 Q1415.375,195.4844 1415.0313,195.8906 Q1414.5313,196.4688 1413.7344,196.7969 Q1412.6563,197.25 1411.3594,197.25 Q1409.8438,197.25 1408.6406,196.625 Q1407.6563,196.125 1406.9688,195.0625 Q1406.2813,193.9844 1406.2813,192.7031 L1406.2813,191.5469 Q1406.2813,190.2188 1406.8906,189.0781 Q1407.5156,187.9219 1408.6094,187.3125 Q1409.7031,186.6875 1410.9375,186.6875 Q1411.6719,186.6875 1412.3125,186.8594 Q1412.9688,187.0156 1413.5156,187.375 Z " fill="#000000"/><text fill="#000000" font-family="sans-serif" font-size="14" lengthAdjust="spacing" textLength="126" x="1431.25" y="197.2969">TimedEventListener</text><line style="stroke:#181818;stroke-width:0.5;" x1="1364.5" x2="1591.5" y1="207.5" y2="207.5"/><text fill="#000000" font-family="sans-serif" font-size="14" lengthAdjust="spacing" textLength="203" x="1369.5" y="226.6074">+on(DayHasPassed event): void</text><text fill="#000000" font-family="sans-serif" font-size="14" lengthAdjust="spacing" textLength="217" x="1369.5" y="245.2285">+on(MonthHasPassed event): void</text></g><!--class SeasonalPlotReservationRepository--><g id="elem_SeasonalPlotReservationRepository"><rect codeLine="67" fill="#F1F1F1" height="32" id="SeasonalPlotReservationRepository" rx="2.5" ry="2.5" style="stroke:#181818;stroke-width:0.5;" width="258" x="986" y="804.5"/><ellipse cx="1001" cy="820.5" fill="#B4A7E5" rx="11" ry="11" style="stroke:#181818;stroke-width:1.0;"/><path d="M1001.9531,817.1406 L1001.9531,823.7969 L1003.6719,823.7969 Q1004.2813,823.7969 1004.5469,824.0313 Q1004.8125,824.2656 1004.8125,824.6563 Q1004.8125,825.0313 1004.5469,825.2656 Q1004.2813,825.5 1003.6719,825.5 L998.5313,825.5 Q997.9219,825.5 997.6563,825.2656 Q997.3906,825.0313 997.3906,824.6406 Q997.3906,824.2656 997.6563,824.0313 Q997.9219,823.7969 998.5313,823.7969 L1000.25,823.7969 L1000.25,817.1406 L998.5313,817.1406 Q997.9219,817.1406 997.6563,816.9063 Q997.3906,816.6719 997.3906,816.2813 Q997.3906,815.9063 997.6563,815.6719 Q997.9219,815.4375 998.5313,815.4375 L1003.6719,815.4375 Q1004.2813,815.4375 1004.5469,815.6719 Q1004.8125,815.9063 1004.8125,816.2813 Q1004.8125,816.6719 1004.5469,816.9063 Q1004.2813,817.1406 1003.6719,817.1406 L1001.9531,817.1406 Z " fill="#000000"/><text fill="#000000" font-family="sans-serif" font-size="14" font-style="italic" lengthAdjust="spacing" textLength="226" x="1015" y="826.2969">SeasonalPlotReservationRepository</text></g><!--class Catalog--><g id="elem_Catalog"><rect codeLine="13" fill="#F1F1F1" height="32" id="Catalog" rx="2.5" ry="2.5" style="stroke:#181818;stroke-width:0.5;" width="183" x="4031.5" y="1077"/><ellipse cx="4046.5" cy="1093" fill="#B4A7E5" rx="11" ry="11" style="stroke:#181818;stroke-width:1.0;"/><path d="M4047.4531,1089.6406 L4047.4531,1096.2969 L4049.1719,1096.2969 Q4049.7813,1096.2969 4050.0469,1096.5313 Q4050.3125,1096.7656 4050.3125,1097.1563 Q4050.3125,1097.5313 4050.0469,1097.7656 Q4049.7813,1098 4049.1719,1098 L4044.0313,1098 Q4043.4219,1098 4043.1563,1097.7656 Q4042.8906,1097.5313 4042.8906,1097.1406 Q4042.8906,1096.7656 4043.1563,1096.5313 Q4043.4219,1096.2969 4044.0313,1096.2969 L4045.75,1096.2969 L4045.75,1089.6406 L4044.0313,1089.6406 Q4043.4219,1089.6406 4043.1563,1089.4063 Q4042.8906,1089.1719 4042.8906,1088.7813 Q4042.8906,1088.4063 4043.1563,1088.1719 Q4043.4219,1087.9375 4044.0313,1087.9375 L4049.1719,1087.9375 Q4049.7813,1087.9375 4050.0469,1088.1719 Q4050.3125,1088.4063 4050.3125,1088.7813 Q4050.3125,1089.1719 4050.0469,1089.4063 Q4049.7813,1089.6406 4049.1719,1089.6406 L4047.4531,1089.6406 Z " fill="#000000"/><text fill="#000000" font-family="sans-serif" font-size="14" font-style="italic" lengthAdjust="spacing" textLength="49" x="4060.5" y="1098.7969">Catalog</text><rect fill="#FEFEFE" height="17.9609" style="stroke:#181818;stroke-width:1.0;stroke-dasharray:2.0,2.0;" width="100" x="4117.5" y="1074"/><text fill="#000000" font-family="sans-serif" font-size="12" font-style="italic" lengthAdjust="spacing" textLength="98" x="4118.5" y="1087.9492">T extends Product</text></g><!--class DataInitializer--><g id="elem_DataInitializer"><rect codeLine="14" fill="#F1F1F1" height="32" id="DataInitializer" rx="2.5" ry="2.5" style="stroke:#181818;stroke-width:0.5;" width="118" x="4271" y="1077"/><ellipse cx="4286" cy="1093" fill="#B4A7E5" rx="11" ry="11" style="stroke:#181818;stroke-width:1.0;"/><path d="M4286.9531,1089.6406 L4286.9531,1096.2969 L4288.6719,1096.2969 Q4289.2813,1096.2969 4289.5469,1096.5313 Q4289.8125,1096.7656 4289.8125,1097.1563 Q4289.8125,1097.5313 4289.5469,1097.7656 Q4289.2813,1098 4288.6719,1098 L4283.5313,1098 Q4282.9219,1098 4282.6563,1097.7656 Q4282.3906,1097.5313 4282.3906,1097.1406 Q4282.3906,1096.7656 4282.6563,1096.5313 Q4282.9219,1096.2969 4283.5313,1096.2969 L4285.25,1096.2969 L4285.25,1089.6406 L4283.5313,1089.6406 Q4282.9219,1089.6406 4282.6563,1089.4063 Q4282.3906,1089.1719 4282.3906,1088.7813 Q4282.3906,1088.4063 4282.6563,1088.1719 Q4282.9219,1087.9375 4283.5313,1087.9375 L4288.6719,1087.9375 Q4289.2813,1087.9375 4289.5469,1088.1719 Q4289.8125,1088.4063 4289.8125,1088.7813 Q4289.8125,1089.1719 4289.5469,1089.4063 Q4289.2813,1089.6406 4288.6719,1089.6406 L4286.9531,1089.6406 Z " fill="#000000"/><text fill="#000000" font-family="sans-serif" font-size="14" font-style="italic" lengthAdjust="spacing" textLength="86" x="4300" y="1098.7969">DataInitializer</text></g><!--link SeasonalPlot to Plot--><g id="link_SeasonalPlot_Plot"><path codeLine="147" d="M2711,1188.75 C2711,1240.15 2711,1280.49 2711,1308.21 " fill="none" id="SeasonalPlot-to-Plot" style="stroke:#181818;stroke-width:1.0;"/><polygon fill="none" points="2711,1326.21,2717,1308.21,2705,1308.21,2711,1326.21" style="stroke:#181818;stroke-width:1.0;"/></g><!--link SeasonalPlotCatalog to Catalog--><g id="link_SeasonalPlotCatalog_Catalog"><path codeLine="148" d="M2913.31,832.5 C3303.74,832.5 4123,832.5 4123,832.5 C4123,832.5 4123,1001.67 4123,1058.7 " fill="none" id="SeasonalPlotCatalog-to-Catalog" style="stroke:#181818;stroke-width:1.0;"/><polygon fill="none" points="4123,1076.7,4129,1058.7,4117,1058.7,4123,1076.7" style="stroke:#181818;stroke-width:1.0;"/><text fill="#000000" font-family="sans-serif" font-size="13" lengthAdjust="spacing" textLength="156" x="3483.25" y="828.5283">&lt;&lt;bind T-&gt;SeasonalPlot&gt;&gt;</text></g><!--link SeasonalPlotDashboardController to SeasonalPlotCatalog--><g id="link_SeasonalPlotDashboardController_SeasonalPlotCatalog"><path codeLine="149" d="M773.5,634.06 C773.5,673.65 773.5,710.5 773.5,710.5 C773.5,710.5 2643.67,710.5 2643.67,710.5 C2643.67,710.5 2643.67,746.67 2643.67,778.79 " fill="none" id="SeasonalPlotDashboardController-to-SeasonalPlotCatalog" style="stroke:#181818;stroke-width:1.0;stroke-dasharray:7.0,7.0;"/><polygon fill="#181818" points="2643.67,784.79,2647.67,775.79,2643.67,779.79,2639.67,775.79,2643.67,784.79" style="stroke:#181818;stroke-width:1.0;"/><text fill="#000000" font-family="sans-serif" font-size="13" lengthAdjust="spacing" textLength="35" x="1671.5" y="706.5283">&#171;use&#187;</text></g><!--link SeasonalPlotDashboardController to Config--><g id="link_SeasonalPlotDashboardController_Config"><path codeLine="150" d="M429,634.37 C429,668.86 429,701.37 429,734.38 " fill="none" id="SeasonalPlotDashboardController-to-Config" style="stroke:#181818;stroke-width:1.0;stroke-dasharray:7.0,7.0;"/><polygon fill="#181818" points="429,740.38,433,731.38,429,735.38,425,731.38,429,740.38" style="stroke:#181818;stroke-width:1.0;"/><text fill="#000000" font-family="sans-serif" font-size="13" lengthAdjust="spacing" textLength="35" x="393" y="683.3983">&#171;use&#187;</text></g><!--link SeasonalPlotCatalogController to SeasonalPlotCatalog--><g id="link_SeasonalPlotCatalogController_SeasonalPlotCatalog"><path codeLine="151" d="M2778.33,680.74 C2778.33,719.48 2778.33,752.09 2778.33,778.88 " fill="none" id="SeasonalPlotCatalogController-to-SeasonalPlotCatalog" style="stroke:#181818;stroke-width:1.0;stroke-dasharray:7.0,7.0;"/><polygon fill="#181818" points="2778.33,784.88,2782.33,775.88,2778.33,779.88,2774.33,775.88,2778.33,784.88" style="stroke:#181818;stroke-width:1.0;"/><text fill="#000000" font-family="sans-serif" font-size="13" lengthAdjust="spacing" textLength="35" x="2742.33" y="728.8383">&#171;use&#187;</text></g><!--link SeasonalPlotCatalogDataInitializer to SeasonalPlotCatalog--><g id="link_SeasonalPlotCatalogDataInitializer_SeasonalPlotCatalog"><path codeLine="152" d="M3647,596.64 C3647,676.27 3647,809.5 3647,809.5 C3647,809.5 3194.42,809.5 2919.23,809.5 " fill="none" id="SeasonalPlotCatalogDataInitializer-to-SeasonalPlotCatalog" style="stroke:#181818;stroke-width:1.0;stroke-dasharray:7.0,7.0;"/><polygon fill="#181818" points="2913.23,809.5,2922.23,813.5,2918.23,809.5,2922.23,805.5,2913.23,809.5" style="stroke:#181818;stroke-width:1.0;"/><text fill="#000000" font-family="sans-serif" font-size="13" lengthAdjust="spacing" textLength="35" x="3350.55" y="805.5283">&#171;use&#187;</text></g><!--link SeasonalPlotCatalogDataInitializer to DataInitializer--><g id="link_SeasonalPlotCatalogDataInitializer_DataInitializer"><path codeLine="153" d="M3903.27,538.5 C4097.07,538.5 4330,538.5 4330,538.5 C4330,538.5 4330,967.11 4330,1058.71 " fill="none" id="SeasonalPlotCatalogDataInitializer-to-DataInitializer" style="stroke:#181818;stroke-width:1.0;stroke-dasharray:7.0,7.0;"/><polygon fill="none" points="4330,1076.71,4336,1058.71,4324,1058.71,4330,1076.71" style="stroke:#181818;stroke-width:1.0;"/></g><!--link SeasonalPlotCatalog to SeasonalPlot--><g id="link_SeasonalPlotCatalog_SeasonalPlot"><path codeLine="154" d="M2711,856.12 C2711,891.83 2711,942.37 2711,991.25 " fill="none" id="SeasonalPlotCatalog-to-SeasonalPlot" style="stroke:#181818;stroke-width:1.0;stroke-dasharray:7.0,7.0;"/><polygon fill="#181818" points="2711,997.25,2715,988.25,2711,992.25,2707,988.25,2711,997.25" style="stroke:#181818;stroke-width:1.0;"/><text fill="#000000" font-family="sans-serif" font-size="13" lengthAdjust="spacing" textLength="35" x="2675" y="922.7183">&#171;use&#187;</text></g><!--link SeasonalPlotCart to Cart--><g id="link_SeasonalPlotCart_Cart"><path codeLine="156" d="M832.98,273.5 C821.55,273.5 814.75,273.5 814.75,273.5 C814.75,273.5 814.75,662.5 814.75,662.5 C814.75,662.5 726,662.5 726,662.5 C726,662.5 726,1205.39 726,1308.36 " fill="none" id="SeasonalPlotCart-to-Cart" style="stroke:#181818;stroke-width:1.0;"/><polygon fill="none" points="726,1326.36,732,1308.36,720,1308.36,726,1326.36" style="stroke:#181818;stroke-width:1.0;"/><text fill="#000000" font-family="sans-serif" font-size="13" lengthAdjust="spacing" textLength="329" x="727" y="742.4683">&lt;&lt;bind T-&gt;SeasonalPlot, U-&gt;SeasonalPlotReservation&gt;&gt;</text></g><!--link SeasonalPlotReservation to Reservation--><g id="link_SeasonalPlotReservation_Reservation"><path codeLine="157" d="M1057,1225.79 C1057,1266.05 1057,1287.2 1057,1308.35 " fill="none" id="SeasonalPlotReservation-to-Reservation" style="stroke:#181818;stroke-width:1.0;"/><polygon fill="none" points="1057,1326.35,1063,1308.35,1051,1308.35,1057,1326.35" style="stroke:#181818;stroke-width:1.0;"/><text fill="#000000" font-family="sans-serif" font-size="13" lengthAdjust="spacing" textLength="156" x="900" y="1272.0983">&lt;&lt;bind T-&gt;SeasonalPlot&gt;&gt;</text></g><!--link SeasonalPlotReservationDashboardController to SeasonalPlotCatalog--><g id="link_SeasonalPlotReservationDashboardController_SeasonalPlotCatalog"><path codeLine="158" d="M1926.5,643.81 C1926.5,728.17 1926.5,832.5 1926.5,832.5 C1926.5,832.5 2270.53,832.5 2502.97,832.5 " fill="none" id="SeasonalPlotReservationDashboardController-to-SeasonalPlotCatalog" style="stroke:#181818;stroke-width:1.0;stroke-dasharray:7.0,7.0;"/><polygon fill="#181818" points="2508.97,832.5,2499.97,828.5,2503.97,832.5,2499.97,836.5,2508.97,832.5" style="stroke:#181818;stroke-width:1.0;"/><text fill="#000000" font-family="sans-serif" font-size="13" lengthAdjust="spacing" textLength="35" x="2087.39" y="828.5283">&#171;use&#187;</text></g><!--link SeasonalPlotReservationRepository to ReservationRepository--><g id="link_SeasonalPlotReservationRepository_ReservationRepository"><path codeLine="159" d="M985.95,820.5 C928.9,820.5 874.5,820.5 874.5,820.5 C874.5,820.5 874.5,1220.2 874.5,1308.31 " fill="none" id="SeasonalPlotReservationRepository-to-ReservationRepository" style="stroke:#181818;stroke-width:1.0;"/><polygon fill="none" points="874.5,1326.31,880.5,1308.31,868.5,1308.31,874.5,1326.31" style="stroke:#181818;stroke-width:1.0;"/><text fill="#000000" font-family="sans-serif" font-size="13" lengthAdjust="spacing" textLength="329" x="544.5" y="1013.7083">&lt;&lt;bind T-&gt;SeasonalPlot, U-&gt;SeasonalPlotReservation&gt;&gt;</text></g><!--link SeasonalPlotReservationDashboardController to SeasonalPlotReservationRepository--><g id="link_SeasonalPlotReservationDashboardController_SeasonalPlotReservationRepository"><path codeLine="161" d="M1115,643.51 C1115,703.64 1115,767.13 1115,798.12 " fill="none" id="SeasonalPlotReservationDashboardController-to-SeasonalPlotReservationRepository" style="stroke:#181818;stroke-width:1.0;stroke-dasharray:7.0,7.0;"/><polygon fill="#181818" points="1115,804.12,1119,795.12,1115,799.12,1111,795.12,1115,804.12" style="stroke:#181818;stroke-width:1.0;"/><text fill="#000000" font-family="sans-serif" font-size="13" lengthAdjust="spacing" textLength="35" x="1079" y="719.8383">&#171;use&#187;</text></g><!--link SeasonalPlotReservationRepository to SeasonalPlotReservation--><g id="link_SeasonalPlotReservationRepository_SeasonalPlotReservation"><path codeLine="163" d="M1115,836.73 C1115,861.54 1115,905.19 1115,954.23 " fill="none" id="SeasonalPlotReservationRepository-to-SeasonalPlotReservation" style="stroke:#181818;stroke-width:1.0;stroke-dasharray:7.0,7.0;"/><polygon fill="#181818" points="1115,960.23,1119,951.23,1115,955.23,1111,951.23,1115,960.23" style="stroke:#181818;stroke-width:1.0;"/><text fill="#000000" font-family="sans-serif" font-size="13" lengthAdjust="spacing" textLength="35" x="1079" y="894.5083">&#171;use&#187;</text></g><!--link PayMethod to SeasonalPlotReservation--><g id="link_PayMethod_SeasonalPlotReservation"><path codeLine="165" d="M1434,900.79 C1434,919.55 1434,924.02 1434,944.39 " fill="none" id="PayMethod-to-SeasonalPlotReservation" style="stroke:#181818;stroke-width:1.0;"/><ellipse cx="1434" cy="952.39" fill="#FEFEFE" rx="8" ry="8" style="stroke:#181818;stroke-width:1.0;"/><line style="stroke:#181818;stroke-width:1.0;" x1="1434" x2="1434" y1="944.39" y2="960.39"/><line style="stroke:#181818;stroke-width:1.0;" x1="1442" x2="1426" y1="952.39" y2="952.39"/></g><!--link ReservationChangeInformation to SeasonalPlotReservationDashboardController--><g id="link_ReservationChangeInformation_SeasonalPlotReservationDashboardController"><path codeLine="167" d="M1743,271.27 C1743,316.03 1743,363.47 1743,417.3 " fill="none" id="ReservationChangeInformation-to-SeasonalPlotReservationDashboardController" style="stroke:#181818;stroke-width:1.0;"/><ellipse cx="1743" cy="425.3" fill="#FEFEFE" rx="8" ry="8" style="stroke:#181818;stroke-width:1.0;"/><line style="stroke:#181818;stroke-width:1.0;" x1="1743" x2="1743" y1="417.3" y2="433.3"/><line style="stroke:#181818;stroke-width:1.0;" x1="1751" x2="1735" y1="425.3" y2="425.3"/></g><!--link TimedEventListener to SeasonalPlotReservationDashboardController--><g id="link_TimedEventListener_SeasonalPlotReservationDashboardController"><path codeLine="169" d="M1478,252.82 C1478,297.15 1478,355.52 1478,417.26 " fill="none" id="TimedEventListener-to-SeasonalPlotReservationDashboardController" style="stroke:#181818;stroke-width:1.0;"/><ellipse cx="1478" cy="425.26" fill="#FEFEFE" rx="8" ry="8" style="stroke:#181818;stroke-width:1.0;"/><line style="stroke:#181818;stroke-width:1.0;" x1="1478" x2="1478" y1="417.26" y2="433.26"/><line style="stroke:#181818;stroke-width:1.0;" x1="1486" x2="1470" y1="425.26" y2="425.26"/></g><!--link SeasonalSiteState to SeasonalPlotCatalog--><g id="link_SeasonalSiteState_SeasonalPlotCatalog"><path codeLine="171" d="M2239.25,605.14 C2239.25,685.38 2239.25,809.5 2239.25,809.5 C2239.25,809.5 2364.84,809.5 2492.88,809.5 " fill="none" id="SeasonalSiteState-to-SeasonalPlotCatalog" style="stroke:#181818;stroke-width:1.0;"/><ellipse cx="2500.88" cy="809.5" fill="#FEFEFE" rx="8" ry="8" style="stroke:#181818;stroke-width:1.0;"/><line style="stroke:#181818;stroke-width:1.0;" x1="2492.88" x2="2508.88" y1="809.5" y2="809.5"/><line style="stroke:#181818;stroke-width:1.0;" x1="2500.88" x2="2500.88" y1="801.5" y2="817.5"/></g><!--link CommentInfo to SeasonalPlotCatalogController--><g id="link_CommentInfo_SeasonalPlotCatalogController"><path codeLine="173" d="M2827,252.82 C2827,288.57 2827,327.85 2827,380.3 " fill="none" id="CommentInfo-to-SeasonalPlotCatalogController" style="stroke:#181818;stroke-width:1.0;"/><ellipse cx="2827" cy="388.3" fill="#FEFEFE" rx="8" ry="8" style="stroke:#181818;stroke-width:1.0;"/><line style="stroke:#181818;stroke-width:1.0;" x1="2827" x2="2827" y1="380.3" y2="396.3"/><line style="stroke:#181818;stroke-width:1.0;" x1="2835" x2="2819" y1="388.3" y2="388.3"/></g><!--link SeasonalPlotInformation to SeasonalPlotDashboardController--><g id="link_SeasonalPlotInformation_SeasonalPlotDashboardController"><path codeLine="175" d="M308,336.68 C308,371.86 308,393.68 308,426.96 " fill="none" id="SeasonalPlotInformation-to-SeasonalPlotDashboardController" style="stroke:#181818;stroke-width:1.0;"/><ellipse cx="308" cy="434.96" fill="#FEFEFE" rx="8" ry="8" style="stroke:#181818;stroke-width:1.0;"/><line style="stroke:#181818;stroke-width:1.0;" x1="308" x2="308" y1="426.96" y2="442.96"/><line style="stroke:#181818;stroke-width:1.0;" x1="316" x2="300" y1="434.96" y2="434.96"/></g><!--link CostsInfo to SeasonalPlotDashboardController--><g id="link_CostsInfo_SeasonalPlotDashboardController"><path codeLine="177" d="M569,252.82 C569,299.5 569,363.5 569,426.99 " fill="none" id="CostsInfo-to-SeasonalPlotDashboardController" style="stroke:#181818;stroke-width:1.0;"/><ellipse cx="569" cy="434.99" fill="#FEFEFE" rx="8" ry="8" style="stroke:#181818;stroke-width:1.0;"/><line style="stroke:#181818;stroke-width:1.0;" x1="569" x2="569" y1="426.99" y2="442.99"/><line style="stroke:#181818;stroke-width:1.0;" x1="577" x2="561" y1="434.99" y2="434.99"/></g><!--SRC=[lHZRRk8uz3rVOMbVWahHQAHzMCGWCQMZgTHsgjBkg4yhanp06YVEEeQMwVRVzzYvEOaJe7jf9J3skVjSlM4X48WIjISh1ZnClKsr4u7Q2DnAVx0ueP969E0qJMTAIRRSAhWAHBnWFu5yi40uYq7j4o128hPry9a6FzPIREFmGd0XoIzVBlM_HpaNpn5xOV7QWauGcgvXeVOSo1VS0Sypt4b0emHX4qxLpr72XKf7T_ZfEfMGWjnHnKGykg3o8CnzjVPOh42kQ017WTz38bAcXDnRY4AkHodba2O2DrTQYMSXVum2gYWNQnJ9V4yU2BmeYCEKt4aHRWCrFOQ8a32Q8uMhc2b6ETw3zBpSR7MPKw2fY2atnYAl7i6_0h0uqoQqz4apgCnU2mj6cp4xExDCaOx9DKlLPE6cDiqGcdJyGRPFmz3lm2GMay6OB8NWGECCRGqrYR-j7l67hpzcGO1-fiWMruEZH0kGhFGHTYTOMAWNYHsyGx2t3jDPs9F9PQoOsa-dcItF4xg7y8z8n6g3jiIBBhTlJ12IJuGKwz7JvUp- -cbCxegT31Wu11YP0TATizKA9CJeFv_8Xz67CPcBxP931lXCqRbwGSuwv6vPTrZJa2IP_mx9jGWeH- -41nO1MSAQnSrDTFXXfG8fLHsKjtkbWs17-IDwkBwRYuqKiT2_If0xr1VqsOt0j4FbVXPfsR9pbjvYO3tXpSvsbA5kVbs241TDfqf1NRhiw6VM8J4yM-SeiV6mociG_tlTl1QcEMdZR1CjoOs-VBv7YqGGAxUe9KxcOn1leyg4cIlTVBjz-7hzPDQPe-J6Y4Du6HDjqpLc2hF7wHBuc2nG6qo-PgkavkUGn20ESo1YKF8hUaqLUaNmHbPIHBVRQ0dIWJveEkeHyJ6dwMOfgCHI4IifE0SvcLJh8cpEaaRM6dSHjF9pbd8o7wPni1-JMVMZk4GxKPaaFMvaGREPGI-tATQyDDKNDIQVhL-ziUJGqJyeFMbgFAmn9BOiGrinOcayTEbYAEVhGJl1-pSY14uY_JcekqpcllSTm4DYdLniQBo6gtWbP9IbKORh1hsGxh_Iz0xT0qA_xVHLQUmb_Eeg4e-FLtDDKd-NvmlqOlYTygr99BK0mTFRTi1hC3jPPb1LS3VERN_Nzn9UxZ30TL6266Gk9-RMkQKt0GrJon88OL943qpJGCS5WoqV-kAAhVEYLCQtLLakH8ezXAuO7tyRaz2gAYMqAIy5tCVHhtMuCckiQvdMm6l3kK1J1sW6rnAjPZABrVTIg1uc5b1EljAbRUTs1ckLTMXuJjrYpwN7r2MoIVfvtesf3kYybAJOx0rDoSE4e2kWBgGIU-VrjIx2sN98sYOopCg3Yd-Ptbc4JU4TLPjo9uGqa2mnVKvPuXG7NQIiI_4xcUKoXsL1R4HFHSwOttS8TuY4TSypAHcs38to6OjdtGVQUsNepW4DfhOIZiJf2xAYevzK8LRMggAeV65SMQb-mHIO34J-t8BSkzhLQI_Vaa2LyVHGTiDYHvuo9_J5SM8wgRuZ9xtSxPg9ywrpUZ3swQhgvFKzzLUwCji9dO1Yk_ik4eVcXbDgVqjvtrM67ReF3-j2d4ReQGu6HLTO38y5Ysmm6xU6lZ9Ojqa5QiIhL_jl9bLGFh56XQbZLiYHHzrnOFS4gone_WTEXI6Xpkp0u6FVsh08XMgc6RRCsRXdgHfY1DYe0N-t30rgwKOysx1pd9KOR_Hf9zYiEVOvE1O-8Y8ppdHoCiX3aiFf3ixqX7LjWwsKrkywhsPYj4bLER4Gf26dxWynQh8KLipT1z9NuzL5vx0emMACxbSK_jCos64UnwQALbZxn_GjnuvRfsdLFsCTuEyV654wXvj1MzI-uIKmWyD9iU6GTcIV7nXl0WaOHxKUxpzZPPJB6jgJU1WK4q11iUgFkIwXglWp9sRuoXyvH_dtLOY1mrRCdhcmsNK4wYBtPtSFqZd17J6-TSvkjJUcnlwywemTmjwnm3IL3ZLq7dK9YeMRCZDjE2T8EyFbb_BgKhASSbnAkWxVl3VFg-Nay_E_fiIyghl2q9mMyJ-PB5aSaeVpQQrbdNe7V8oCHbDNxa22MDkEnC_6LITAgziwYQ4x2_yx9D1upNTxbvMRl4ecNgkNo2z4gexRm69Qtx0RsRhKzXEt8Mjj77VN_KzS9vdGtUesfB8RzdUf_q-aTylXl2ctCZq4ApBLA_dv-LaNkEVrleVrO3eKzRpsIzN99DhDOvD2qIzuTi_M0UIYt2mtJLIdM5LnEmRyRm00]--></g></svg>