<?xml version="1.0" encoding="us-ascii" standalone="no"?><svg xmlns="http://www.w3.org/2000/svg" xmlns:xlink="http://www.w3.org/1999/xlink" contentStyleType="text/css" height="1189px" preserveAspectRatio="none" style="width:2991px;height:1189px;background:#FEFEFE;" version="1.1" viewBox="0 0 2991 1189" width="2991px" zoomAndPan="magnify"><defs/><g><rect fill="#FEFEFE" height="1189" style="stroke:none;stroke-width:1.0;" width="2991" x="0" y="0"/><!--cluster campingplatz--><g id="cluster_campingplatz"><rect fill="none" height="897" rx="2.5" ry="2.5" style="stroke:#000000;stroke-width:1.5;" width="2854" x="7" y="7"/><path d="M109,7 L109,18.6211 L99,28.6211 L7,28.6211 " fill="none" style="stroke:#000000;stroke-width:1.5;"/><text fill="#000000" font-family="sans-serif" font-size="14" font-weight="bold" lengthAdjust="spacing" textLength="92" x="10" y="23.1074">campingplatz</text></g><!--cluster utils--><g id="cluster_utils"><rect fill="none" height="101" rx="2.5" ry="2.5" style="stroke:#000000;stroke-width:1.5;" width="201" x="1730" y="571"/><path d="M1770,571 L1770,582.6211 L1760,592.6211 L1730,592.6211 " fill="none" style="stroke:#000000;stroke-width:1.5;"/><text fill="#000000" font-family="sans-serif" font-size="14" font-weight="bold" lengthAdjust="spacing" textLength="30" x="1733" y="587.1074">utils</text></g><!--cluster reservation--><g id="cluster_reservation"><rect fill="none" height="361.5" rx="2.5" ry="2.5" style="stroke:#000000;stroke-width:1.5;" width="842" x="1971" y="310.5"/><path d="M2063,310.5 L2063,322.1211 L2053,332.1211 L1971,332.1211 " fill="none" style="stroke:#000000;stroke-width:1.5;"/><text fill="#000000" font-family="sans-serif" font-size="14" font-weight="bold" lengthAdjust="spacing" textLength="82" x="1974" y="326.6074">reservation</text></g><!--cluster equip--><g id="cluster_equip"><rect fill="none" height="812" rx="2.5" ry="2.5" style="stroke:#000000;stroke-width:1.5;" width="1659" x="39" y="60"/><path d="M89,60 L89,71.6211 L79,81.6211 L39,81.6211 " fill="none" style="stroke:#000000;stroke-width:1.5;"/><text fill="#000000" font-family="sans-serif" font-size="14" font-weight="bold" lengthAdjust="spacing" textLength="40" x="42" y="76.1074">equip</text></g><!--cluster sportItemReservations--><g id="cluster_sportItemReservations"><rect fill="none" height="327.5" rx="2.5" ry="2.5" style="stroke:#000000;stroke-width:1.5;" width="806" x="63" y="105"/><path d="M234,105 L234,116.6211 L224,126.6211 L63,126.6211 " fill="none" style="stroke:#000000;stroke-width:1.5;"/><text fill="#000000" font-family="sans-serif" font-size="14" font-weight="bold" lengthAdjust="spacing" textLength="161" x="66" y="121.1074">sportItemReservations</text></g><!--cluster org--><g id="cluster_org"><rect fill="none" height="239" rx="2.5" ry="2.5" style="stroke:#000000;stroke-width:1.5;" width="508" x="2477" y="944"/><path d="M2511,944 L2511,955.6211 L2501,965.6211 L2477,965.6211 " fill="none" style="stroke:#000000;stroke-width:1.5;"/><text fill="#000000" font-family="sans-serif" font-size="14" font-weight="bold" lengthAdjust="spacing" textLength="24" x="2480" y="960.1074">org</text></g><!--cluster salespointframework--><g id="cluster_salespointframework"><rect fill="none" height="154" rx="2.5" ry="2.5" style="stroke:#000000;stroke-width:1.5;" width="436" x="2517" y="997"/><path d="M2674,997 L2674,1008.6211 L2664,1018.6211 L2517,1018.6211 " fill="none" style="stroke:#000000;stroke-width:1.5;"/><text fill="#000000" font-family="sans-serif" font-size="14" font-weight="bold" lengthAdjust="spacing" textLength="147" x="2520" y="1013.1074">salespointframework</text></g><!--cluster catalog--><g id="cluster_catalog"><rect fill="none" height="85" rx="2.5" ry="2.5" style="stroke:#000000;stroke-width:1.5;" width="216" x="2541" y="1042"/><path d="M2602,1042 L2602,1053.6211 L2592,1063.6211 L2541,1063.6211 " fill="none" style="stroke:#000000;stroke-width:1.5;"/><text fill="#000000" font-family="sans-serif" font-size="14" font-weight="bold" lengthAdjust="spacing" textLength="51" x="2544" y="1058.1074">catalog</text></g><!--cluster core--><g id="cluster_core"><rect fill="none" height="85" rx="2.5" ry="2.5" style="stroke:#000000;stroke-width:1.5;" width="148" x="2781" y="1042"/><path d="M2823,1042 L2823,1053.6211 L2813,1063.6211 L2781,1063.6211 " fill="none" style="stroke:#000000;stroke-width:1.5;"/><text fill="#000000" font-family="sans-serif" font-size="14" font-weight="bold" lengthAdjust="spacing" textLength="32" x="2784" y="1058.1074">core</text></g><!--class DetailedProduct--><g id="elem_DetailedProduct"><rect codeLine="9" fill="#F1F1F1" height="32" id="DetailedProduct" rx="2.5" ry="2.5" style="stroke:#181818;stroke-width:0.5;" width="133" x="1754.5" y="616"/><ellipse cx="1769.5" cy="632" fill="#ADD1B2" rx="11" ry="11" style="stroke:#181818;stroke-width:1.0;"/><path d="M1772.2656,627.875 Q1772.4219,627.6563 1772.6094,627.5469 Q1772.7969,627.4375 1773.0156,627.4375 Q1773.3906,627.4375 1773.625,627.7031 Q1773.8594,627.9531 1773.8594,628.5625 L1773.8594,630.0156 Q1773.8594,630.625 1773.625,630.8906 Q1773.3906,631.1563 1773.0156,631.1563 Q1772.6719,631.1563 1772.4688,630.9531 Q1772.2656,630.7656 1772.1563,630.25 Q1772.1094,629.8906 1771.9219,629.7031 Q1771.5938,629.3281 1770.9844,629.1094 Q1770.375,628.8906 1769.75,628.8906 Q1768.9844,628.8906 1768.3438,629.2188 Q1767.7188,629.5469 1767.2188,630.2969 Q1766.7344,631.0469 1766.7344,632.0781 L1766.7344,633.1719 Q1766.7344,634.4063 1767.625,635.2344 Q1768.5156,636.0469 1770.1094,636.0469 Q1771.0469,636.0469 1771.7031,635.7969 Q1772.0938,635.6406 1772.5156,635.2031 Q1772.7813,634.9375 1772.9219,634.8594 Q1773.0781,634.7813 1773.2813,634.7813 Q1773.6094,634.7813 1773.8594,635.0469 Q1774.125,635.2969 1774.125,635.6406 Q1774.125,635.9844 1773.7813,636.3906 Q1773.2813,636.9688 1772.4844,637.2969 Q1771.4063,637.75 1770.1094,637.75 Q1768.5938,637.75 1767.3906,637.125 Q1766.4063,636.625 1765.7188,635.5625 Q1765.0313,634.4844 1765.0313,633.2031 L1765.0313,632.0469 Q1765.0313,630.7188 1765.6406,629.5781 Q1766.2656,628.4219 1767.3594,627.8125 Q1768.4531,627.1875 1769.6875,627.1875 Q1770.4219,627.1875 1771.0625,627.3594 Q1771.7188,627.5156 1772.2656,627.875 Z " fill="#000000"/><text fill="#000000" font-family="sans-serif" font-size="14" lengthAdjust="spacing" textLength="101" x="1783.5" y="637.7969">DetailedProduct</text></g><!--class Cart--><g id="elem_Cart"><rect codeLine="10" fill="#F1F1F1" height="32" id="Cart" rx="2.5" ry="2.5" style="stroke:#181818;stroke-width:0.5;" width="312" x="2014" y="355.5"/><ellipse cx="2029" cy="371.5" fill="#ADD1B2" rx="11" ry="11" style="stroke:#181818;stroke-width:1.0;"/><path d="M2031.7656,367.375 Q2031.9219,367.1563 2032.1094,367.0469 Q2032.2969,366.9375 2032.5156,366.9375 Q2032.8906,366.9375 2033.125,367.2031 Q2033.3594,367.4531 2033.3594,368.0625 L2033.3594,369.5156 Q2033.3594,370.125 2033.125,370.3906 Q2032.8906,370.6563 2032.5156,370.6563 Q2032.1719,370.6563 2031.9688,370.4531 Q2031.7656,370.2656 2031.6563,369.75 Q2031.6094,369.3906 2031.4219,369.2031 Q2031.0938,368.8281 2030.4844,368.6094 Q2029.875,368.3906 2029.25,368.3906 Q2028.4844,368.3906 2027.8438,368.7188 Q2027.2188,369.0469 2026.7188,369.7969 Q2026.2344,370.5469 2026.2344,371.5781 L2026.2344,372.6719 Q2026.2344,373.9063 2027.125,374.7344 Q2028.0156,375.5469 2029.6094,375.5469 Q2030.5469,375.5469 2031.2031,375.2969 Q2031.5938,375.1406 2032.0156,374.7031 Q2032.2813,374.4375 2032.4219,374.3594 Q2032.5781,374.2813 2032.7813,374.2813 Q2033.1094,374.2813 2033.3594,374.5469 Q2033.625,374.7969 2033.625,375.1406 Q2033.625,375.4844 2033.2813,375.8906 Q2032.7813,376.4688 2031.9844,376.7969 Q2030.9063,377.25 2029.6094,377.25 Q2028.0938,377.25 2026.8906,376.625 Q2025.9063,376.125 2025.2188,375.0625 Q2024.5313,373.9844 2024.5313,372.7031 L2024.5313,371.5469 Q2024.5313,370.2188 2025.1406,369.0781 Q2025.7656,367.9219 2026.8594,367.3125 Q2027.9531,366.6875 2029.1875,366.6875 Q2029.9219,366.6875 2030.5625,366.8594 Q2031.2188,367.0156 2031.7656,367.375 Z " fill="#000000"/><text fill="#000000" font-family="sans-serif" font-size="14" lengthAdjust="spacing" textLength="27" x="2043" y="377.2969">Cart</text><rect fill="#FEFEFE" height="17.9609" style="stroke:#181818;stroke-width:1.0;stroke-dasharray:2.0,2.0;" width="251" x="2078" y="352.5"/><text fill="#000000" font-family="sans-serif" font-size="12" font-style="italic" lengthAdjust="spacing" textLength="249" x="2079" y="366.4492">T extends Product, U extends Reservation&lt;T&gt;</text></g><!--class Reservation--><g id="elem_Reservation"><rect codeLine="11" fill="#F1F1F1" height="32" id="Reservation" rx="2.5" ry="2.5" style="stroke:#181818;stroke-width:0.5;" width="210" x="2065" y="616"/><ellipse cx="2080" cy="632" fill="#ADD1B2" rx="11" ry="11" style="stroke:#181818;stroke-width:1.0;"/><path d="M2082.7656,627.875 Q2082.9219,627.6563 2083.1094,627.5469 Q2083.2969,627.4375 2083.5156,627.4375 Q2083.8906,627.4375 2084.125,627.7031 Q2084.3594,627.9531 2084.3594,628.5625 L2084.3594,630.0156 Q2084.3594,630.625 2084.125,630.8906 Q2083.8906,631.1563 2083.5156,631.1563 Q2083.1719,631.1563 2082.9688,630.9531 Q2082.7656,630.7656 2082.6563,630.25 Q2082.6094,629.8906 2082.4219,629.7031 Q2082.0938,629.3281 2081.4844,629.1094 Q2080.875,628.8906 2080.25,628.8906 Q2079.4844,628.8906 2078.8438,629.2188 Q2078.2188,629.5469 2077.7188,630.2969 Q2077.2344,631.0469 2077.2344,632.0781 L2077.2344,633.1719 Q2077.2344,634.4063 2078.125,635.2344 Q2079.0156,636.0469 2080.6094,636.0469 Q2081.5469,636.0469 2082.2031,635.7969 Q2082.5938,635.6406 2083.0156,635.2031 Q2083.2813,634.9375 2083.4219,634.8594 Q2083.5781,634.7813 2083.7813,634.7813 Q2084.1094,634.7813 2084.3594,635.0469 Q2084.625,635.2969 2084.625,635.6406 Q2084.625,635.9844 2084.2813,636.3906 Q2083.7813,636.9688 2082.9844,637.2969 Q2081.9063,637.75 2080.6094,637.75 Q2079.0938,637.75 2077.8906,637.125 Q2076.9063,636.625 2076.2188,635.5625 Q2075.5313,634.4844 2075.5313,633.2031 L2075.5313,632.0469 Q2075.5313,630.7188 2076.1406,629.5781 Q2076.7656,628.4219 2077.8594,627.8125 Q2078.9531,627.1875 2080.1875,627.1875 Q2080.9219,627.1875 2081.5625,627.3594 Q2082.2188,627.5156 2082.7656,627.875 Z " fill="#000000"/><text fill="#000000" font-family="sans-serif" font-size="14" lengthAdjust="spacing" textLength="76" x="2094" y="637.7969">Reservation</text><rect fill="#FEFEFE" height="17.9609" style="stroke:#181818;stroke-width:1.0;stroke-dasharray:2.0,2.0;" width="100" x="2178" y="613"/><text fill="#000000" font-family="sans-serif" font-size="12" font-style="italic" lengthAdjust="spacing" textLength="98" x="2179" y="626.9492">T extends Product</text></g><!--class ReservationRepository--><g id="elem_ReservationRepository"><rect codeLine="12" fill="#F1F1F1" height="32" id="ReservationRepository" rx="2.5" ry="2.5" style="stroke:#181818;stroke-width:0.5;" width="428" x="2361" y="355.5"/><ellipse cx="2376" cy="371.5" fill="#B4A7E5" rx="11" ry="11" style="stroke:#181818;stroke-width:1.0;"/><path d="M2376.9531,368.1406 L2376.9531,374.7969 L2378.6719,374.7969 Q2379.2813,374.7969 2379.5469,375.0313 Q2379.8125,375.2656 2379.8125,375.6563 Q2379.8125,376.0313 2379.5469,376.2656 Q2379.2813,376.5 2378.6719,376.5 L2373.5313,376.5 Q2372.9219,376.5 2372.6563,376.2656 Q2372.3906,376.0313 2372.3906,375.6406 Q2372.3906,375.2656 2372.6563,375.0313 Q2372.9219,374.7969 2373.5313,374.7969 L2375.25,374.7969 L2375.25,368.1406 L2373.5313,368.1406 Q2372.9219,368.1406 2372.6563,367.9063 Q2372.3906,367.6719 2372.3906,367.2813 Q2372.3906,366.9063 2372.6563,366.6719 Q2372.9219,366.4375 2373.5313,366.4375 L2378.6719,366.4375 Q2379.2813,366.4375 2379.5469,366.6719 Q2379.8125,366.9063 2379.8125,367.2813 Q2379.8125,367.6719 2379.5469,367.9063 Q2379.2813,368.1406 2378.6719,368.1406 L2376.9531,368.1406 Z " fill="#000000"/><text fill="#000000" font-family="sans-serif" font-size="14" font-style="italic" lengthAdjust="spacing" textLength="143" x="2390" y="377.2969">ReservationRepository</text><rect fill="#FEFEFE" height="17.9609" style="stroke:#181818;stroke-width:1.0;stroke-dasharray:2.0,2.0;" width="251" x="2541" y="352.5"/><text fill="#000000" font-family="sans-serif" font-size="12" font-style="italic" lengthAdjust="spacing" textLength="249" x="2542" y="366.4492">T extends Product, U extends Reservation&lt;T&gt;</text></g><!--class SportItem--><g id="elem_SportItem"><rect codeLine="31" fill="#F1F1F1" height="190.9297" id="SportItem" rx="2.5" ry="2.5" style="stroke:#181818;stroke-width:0.5;" width="793" x="888.5" y="276"/><ellipse cx="1250.75" cy="298.291" fill="#ADD1B2" rx="11" ry="11" style="stroke:#181818;stroke-width:1.0;"/><path d="M1253.5156,294.166 Q1253.6719,293.9473 1253.8594,293.8379 Q1254.0469,293.7285 1254.2656,293.7285 Q1254.6406,293.7285 1254.875,293.9941 Q1255.1094,294.2441 1255.1094,294.8535 L1255.1094,296.3066 Q1255.1094,296.916 1254.875,297.1816 Q1254.6406,297.4473 1254.2656,297.4473 Q1253.9219,297.4473 1253.7188,297.2441 Q1253.5156,297.0566 1253.4063,296.541 Q1253.3594,296.1816 1253.1719,295.9941 Q1252.8438,295.6191 1252.2344,295.4004 Q1251.625,295.1816 1251,295.1816 Q1250.2344,295.1816 1249.5938,295.5098 Q1248.9688,295.8379 1248.4688,296.5879 Q1247.9844,297.3379 1247.9844,298.3691 L1247.9844,299.4629 Q1247.9844,300.6973 1248.875,301.5254 Q1249.7656,302.3379 1251.3594,302.3379 Q1252.2969,302.3379 1252.9531,302.0879 Q1253.3438,301.9316 1253.7656,301.4941 Q1254.0313,301.2285 1254.1719,301.1504 Q1254.3281,301.0723 1254.5313,301.0723 Q1254.8594,301.0723 1255.1094,301.3379 Q1255.375,301.5879 1255.375,301.9316 Q1255.375,302.2754 1255.0313,302.6816 Q1254.5313,303.2598 1253.7344,303.5879 Q1252.6563,304.041 1251.3594,304.041 Q1249.8438,304.041 1248.6406,303.416 Q1247.6563,302.916 1246.9688,301.8535 Q1246.2813,300.7754 1246.2813,299.4941 L1246.2813,298.3379 Q1246.2813,297.0098 1246.8906,295.8691 Q1247.5156,294.7129 1248.6094,294.1035 Q1249.7031,293.4785 1250.9375,293.4785 Q1251.6719,293.4785 1252.3125,293.6504 Q1252.9688,293.8066 1253.5156,294.166 Z " fill="#000000"/><text fill="#000000" font-family="sans-serif" font-size="12" font-style="italic" lengthAdjust="spacing" textLength="44" x="1279.25" y="293.9492">&#171;Entity&#187;</text><text fill="#000000" font-family="sans-serif" font-size="14" lengthAdjust="spacing" textLength="60" x="1271.25" y="312.0684">SportItem</text><line style="stroke:#181818;stroke-width:0.5;" x1="889.5" x2="1680.5" y1="320.582" y2="320.582"/><text fill="#000000" font-family="sans-serif" font-size="14" lengthAdjust="spacing" textLength="75" x="894.5" y="339.6895">-amount: int</text><text fill="#000000" font-family="sans-serif" font-size="14" lengthAdjust="spacing" textLength="101" x="894.5" y="358.3105">-deposit: Money</text><line style="stroke:#181818;stroke-width:0.5;" x1="889.5" x2="1680.5" y1="365.8242" y2="365.8242"/><text fill="#000000" font-family="sans-serif" font-size="14" lengthAdjust="spacing" textLength="781" x="894.5" y="384.9316">+SportItem(String name, Money rentalFee, Money deposit, String category, int amount, String imagePath, String description)</text><text fill="#000000" font-family="sans-serif" font-size="14" lengthAdjust="spacing" textLength="109" x="894.5" y="403.5527">+getAmount(): int</text><text fill="#000000" font-family="sans-serif" font-size="14" lengthAdjust="spacing" textLength="172" x="894.5" y="422.1738">+setAmount(int value): void</text><text fill="#000000" font-family="sans-serif" font-size="14" lengthAdjust="spacing" textLength="136" x="894.5" y="440.7949">+getDeposit(): Money</text><text fill="#000000" font-family="sans-serif" font-size="14" lengthAdjust="spacing" textLength="199" x="894.5" y="459.416">+setDeposit(Money value): void</text></g><!--class SportItemCatalog--><g id="elem_SportItemCatalog"><rect codeLine="40" fill="#F1F1F1" height="58.6211" id="SportItemCatalog" rx="2.5" ry="2.5" style="stroke:#181818;stroke-width:0.5;" width="388" x="1190" y="797"/><ellipse cx="1324.75" cy="813" fill="#B4A7E5" rx="11" ry="11" style="stroke:#181818;stroke-width:1.0;"/><path d="M1325.7031,809.6406 L1325.7031,816.2969 L1327.4219,816.2969 Q1328.0313,816.2969 1328.2969,816.5313 Q1328.5625,816.7656 1328.5625,817.1563 Q1328.5625,817.5313 1328.2969,817.7656 Q1328.0313,818 1327.4219,818 L1322.2813,818 Q1321.6719,818 1321.4063,817.7656 Q1321.1406,817.5313 1321.1406,817.1406 Q1321.1406,816.7656 1321.4063,816.5313 Q1321.6719,816.2969 1322.2813,816.2969 L1324,816.2969 L1324,809.6406 L1322.2813,809.6406 Q1321.6719,809.6406 1321.4063,809.4063 Q1321.1406,809.1719 1321.1406,808.7813 Q1321.1406,808.4063 1321.4063,808.1719 Q1321.6719,807.9375 1322.2813,807.9375 L1327.4219,807.9375 Q1328.0313,807.9375 1328.2969,808.1719 Q1328.5625,808.4063 1328.5625,808.7813 Q1328.5625,809.1719 1328.2969,809.4063 Q1328.0313,809.6406 1327.4219,809.6406 L1325.7031,809.6406 Z " fill="#000000"/><text fill="#000000" font-family="sans-serif" font-size="14" font-style="italic" lengthAdjust="spacing" textLength="110" x="1345.25" y="818.7969">SportItemCatalog</text><line style="stroke:#181818;stroke-width:0.5;" x1="1191" x2="1577" y1="829" y2="829"/><text fill="#000000" font-family="sans-serif" font-size="14" lengthAdjust="spacing" textLength="376" x="1196" y="848.1074">+findById(Product.ProductIdentifier id): Optional&lt;SportItem&gt;</text></g><!--class SportItemCatalogController--><g id="elem_SportItemCatalogController"><rect codeLine="43" fill="#F1F1F1" height="209.5508" id="SportItemCatalogController" rx="2.5" ry="2.5" style="stroke:#181818;stroke-width:0.5;" width="805" x="876.5" y="527"/><ellipse cx="1189.25" cy="549.291" fill="#ADD1B2" rx="11" ry="11" style="stroke:#181818;stroke-width:1.0;"/><path d="M1192.0156,545.166 Q1192.1719,544.9473 1192.3594,544.8379 Q1192.5469,544.7285 1192.7656,544.7285 Q1193.1406,544.7285 1193.375,544.9941 Q1193.6094,545.2441 1193.6094,545.8535 L1193.6094,547.3066 Q1193.6094,547.916 1193.375,548.1816 Q1193.1406,548.4473 1192.7656,548.4473 Q1192.4219,548.4473 1192.2188,548.2441 Q1192.0156,548.0566 1191.9063,547.541 Q1191.8594,547.1816 1191.6719,546.9941 Q1191.3438,546.6191 1190.7344,546.4004 Q1190.125,546.1816 1189.5,546.1816 Q1188.7344,546.1816 1188.0938,546.5098 Q1187.4688,546.8379 1186.9688,547.5879 Q1186.4844,548.3379 1186.4844,549.3691 L1186.4844,550.4629 Q1186.4844,551.6973 1187.375,552.5254 Q1188.2656,553.3379 1189.8594,553.3379 Q1190.7969,553.3379 1191.4531,553.0879 Q1191.8438,552.9316 1192.2656,552.4941 Q1192.5313,552.2285 1192.6719,552.1504 Q1192.8281,552.0723 1193.0313,552.0723 Q1193.3594,552.0723 1193.6094,552.3379 Q1193.875,552.5879 1193.875,552.9316 Q1193.875,553.2754 1193.5313,553.6816 Q1193.0313,554.2598 1192.2344,554.5879 Q1191.1563,555.041 1189.8594,555.041 Q1188.3438,555.041 1187.1406,554.416 Q1186.1563,553.916 1185.4688,552.8535 Q1184.7813,551.7754 1184.7813,550.4941 L1184.7813,549.3379 Q1184.7813,548.0098 1185.3906,546.8691 Q1186.0156,545.7129 1187.1094,545.1035 Q1188.2031,544.4785 1189.4375,544.4785 Q1190.1719,544.4785 1190.8125,544.6504 Q1191.4688,544.8066 1192.0156,545.166 Z " fill="#000000"/><text fill="#000000" font-family="sans-serif" font-size="12" font-style="italic" lengthAdjust="spacing" textLength="68" x="1261.25" y="544.9492">&#171;Controller&#187;</text><text fill="#000000" font-family="sans-serif" font-size="14" lengthAdjust="spacing" textLength="171" x="1209.75" y="563.0684">SportItemCatalogController</text><line style="stroke:#181818;stroke-width:0.5;" x1="877.5" x2="1680.5" y1="571.582" y2="571.582"/><text fill="#000000" font-family="sans-serif" font-size="14" lengthAdjust="spacing" textLength="197" x="882.5" y="590.6895">-itemCatalog: SportItemCatalog</text><line style="stroke:#181818;stroke-width:0.5;" x1="877.5" x2="1680.5" y1="598.2031" y2="598.2031"/><text fill="#000000" font-family="sans-serif" font-size="14" lengthAdjust="spacing" textLength="377" x="882.5" y="617.3105">+SportItemCatalogController(SportItemCatalog itemCatalog)</text><text fill="#000000" font-family="sans-serif" font-size="14" lengthAdjust="spacing" textLength="416" x="882.5" y="635.9316">+setupCatalog(Model model, Optional&lt;UserAccount&gt; user): String</text><text fill="#000000" font-family="sans-serif" font-size="14" lengthAdjust="spacing" textLength="178" x="882.5" y="654.5527">+setup(Model model): String</text><text fill="#000000" font-family="sans-serif" font-size="14" lengthAdjust="spacing" textLength="457" x="882.5" y="673.1738">+showSportItemDetails(Product.ProductIdentifier id, Model model): String</text><text fill="#000000" font-family="sans-serif" font-size="14" lengthAdjust="spacing" textLength="658" x="882.5" y="691.7949">+addSportItem(String name, double price, double deposit, int amount, String category, String imagePath,</text><text fill="#000000" font-family="sans-serif" font-size="14" lengthAdjust="spacing" textLength="121" x="1554.5" y="691.7949">String desc): String</text><text fill="#000000" font-family="sans-serif" font-size="14" lengthAdjust="spacing" textLength="532" x="882.5" y="710.416">+changeSportItemAmount(int amountItem, Product.ProductIdentifier equip_id): String</text><text fill="#000000" font-family="sans-serif" font-size="14" lengthAdjust="spacing" textLength="444" x="882.5" y="729.0371">+deleteSportItem(String itemName, Product.ProductIdentifier id): String</text></g><!--class SportItemCatalogDataInitializer--><g id="elem_SportItemCatalogDataInitializer"><rect codeLine="53" fill="#F1F1F1" height="116.4453" id="SportItemCatalogDataInitializer" rx="2.5" ry="2.5" style="stroke:#181818;stroke-width:0.5;" width="443" x="1150.5" y="100"/><ellipse cx="1271.25" cy="122.291" fill="#ADD1B2" rx="11" ry="11" style="stroke:#181818;stroke-width:1.0;"/><path d="M1274.0156,118.166 Q1274.1719,117.9473 1274.3594,117.8379 Q1274.5469,117.7285 1274.7656,117.7285 Q1275.1406,117.7285 1275.375,117.9941 Q1275.6094,118.2441 1275.6094,118.8535 L1275.6094,120.3066 Q1275.6094,120.916 1275.375,121.1816 Q1275.1406,121.4473 1274.7656,121.4473 Q1274.4219,121.4473 1274.2188,121.2441 Q1274.0156,121.0566 1273.9063,120.541 Q1273.8594,120.1816 1273.6719,119.9941 Q1273.3438,119.6191 1272.7344,119.4004 Q1272.125,119.1816 1271.5,119.1816 Q1270.7344,119.1816 1270.0938,119.5098 Q1269.4688,119.8379 1268.9688,120.5879 Q1268.4844,121.3379 1268.4844,122.3691 L1268.4844,123.4629 Q1268.4844,124.6973 1269.375,125.5254 Q1270.2656,126.3379 1271.8594,126.3379 Q1272.7969,126.3379 1273.4531,126.0879 Q1273.8438,125.9316 1274.2656,125.4941 Q1274.5313,125.2285 1274.6719,125.1504 Q1274.8281,125.0723 1275.0313,125.0723 Q1275.3594,125.0723 1275.6094,125.3379 Q1275.875,125.5879 1275.875,125.9316 Q1275.875,126.2754 1275.5313,126.6816 Q1275.0313,127.2598 1274.2344,127.5879 Q1273.1563,128.041 1271.8594,128.041 Q1270.3438,128.041 1269.1406,127.416 Q1268.1563,126.916 1267.4688,125.8535 Q1266.7813,124.7754 1266.7813,123.4941 L1266.7813,122.3379 Q1266.7813,121.0098 1267.3906,119.8691 Q1268.0156,118.7129 1269.1094,118.1035 Q1270.2031,117.4785 1271.4375,117.4785 Q1272.1719,117.4785 1272.8125,117.6504 Q1273.4688,117.8066 1274.0156,118.166 Z " fill="#000000"/><text fill="#000000" font-family="sans-serif" font-size="12" font-style="italic" lengthAdjust="spacing" textLength="79" x="1348.75" y="117.9492">&#171;Component&#187;</text><text fill="#000000" font-family="sans-serif" font-size="14" lengthAdjust="spacing" textLength="193" x="1291.75" y="136.0684">SportItemCatalogDataInitializer</text><line style="stroke:#181818;stroke-width:0.5;" x1="1151.5" x2="1592.5" y1="144.582" y2="144.582"/><text fill="#000000" font-family="sans-serif" font-size="14" lengthAdjust="spacing" textLength="229" x="1156.5" y="163.6895">-sportItemCatalog: SportItemCatalog</text><line style="stroke:#181818;stroke-width:0.5;" x1="1151.5" x2="1592.5" y1="171.2031" y2="171.2031"/><text fill="#000000" font-family="sans-serif" font-size="14" lengthAdjust="spacing" textLength="431" x="1156.5" y="190.3105">+SportItemCatalogDataInitializer(SportItemCatalog sportItemCatalog)</text><text fill="#000000" font-family="sans-serif" font-size="14" lengthAdjust="spacing" textLength="101" x="1156.5" y="208.9316">+initialize(): void</text></g><!--class SportItemCart--><g id="elem_SportItemCart"><rect codeLine="23" fill="#F1F1F1" height="32" id="SportItemCart" rx="2.5" ry="2.5" style="stroke:#181818;stroke-width:0.5;" width="119" x="420.5" y="142"/><ellipse cx="435.5" cy="158" fill="#ADD1B2" rx="11" ry="11" style="stroke:#181818;stroke-width:1.0;"/><path d="M438.2656,153.875 Q438.4219,153.6563 438.6094,153.5469 Q438.7969,153.4375 439.0156,153.4375 Q439.3906,153.4375 439.625,153.7031 Q439.8594,153.9531 439.8594,154.5625 L439.8594,156.0156 Q439.8594,156.625 439.625,156.8906 Q439.3906,157.1563 439.0156,157.1563 Q438.6719,157.1563 438.4688,156.9531 Q438.2656,156.7656 438.1563,156.25 Q438.1094,155.8906 437.9219,155.7031 Q437.5938,155.3281 436.9844,155.1094 Q436.375,154.8906 435.75,154.8906 Q434.9844,154.8906 434.3438,155.2188 Q433.7188,155.5469 433.2188,156.2969 Q432.7344,157.0469 432.7344,158.0781 L432.7344,159.1719 Q432.7344,160.4063 433.625,161.2344 Q434.5156,162.0469 436.1094,162.0469 Q437.0469,162.0469 437.7031,161.7969 Q438.0938,161.6406 438.5156,161.2031 Q438.7813,160.9375 438.9219,160.8594 Q439.0781,160.7813 439.2813,160.7813 Q439.6094,160.7813 439.8594,161.0469 Q440.125,161.2969 440.125,161.6406 Q440.125,161.9844 439.7813,162.3906 Q439.2813,162.9688 438.4844,163.2969 Q437.4063,163.75 436.1094,163.75 Q434.5938,163.75 433.3906,163.125 Q432.4063,162.625 431.7188,161.5625 Q431.0313,160.4844 431.0313,159.2031 L431.0313,158.0469 Q431.0313,156.7188 431.6406,155.5781 Q432.2656,154.4219 433.3594,153.8125 Q434.4531,153.1875 435.6875,153.1875 Q436.4219,153.1875 437.0625,153.3594 Q437.7188,153.5156 438.2656,153.875 Z " fill="#000000"/><text fill="#000000" font-family="sans-serif" font-size="14" lengthAdjust="spacing" textLength="87" x="449.5" y="163.7969">SportItemCart</text></g><!--class SportItemReservation--><g id="elem_SportItemReservation"><rect codeLine="25" fill="#F1F1F1" height="89.8242" id="SportItemReservation" rx="2.5" ry="2.5" style="stroke:#181818;stroke-width:0.5;" width="774" x="79" y="326.5"/><ellipse cx="393.75" cy="348.791" fill="#ADD1B2" rx="11" ry="11" style="stroke:#181818;stroke-width:1.0;"/><path d="M396.5156,344.666 Q396.6719,344.4473 396.8594,344.3379 Q397.0469,344.2285 397.2656,344.2285 Q397.6406,344.2285 397.875,344.4941 Q398.1094,344.7441 398.1094,345.3535 L398.1094,346.8066 Q398.1094,347.416 397.875,347.6816 Q397.6406,347.9473 397.2656,347.9473 Q396.9219,347.9473 396.7188,347.7441 Q396.5156,347.5566 396.4063,347.041 Q396.3594,346.6816 396.1719,346.4941 Q395.8438,346.1191 395.2344,345.9004 Q394.625,345.6816 394,345.6816 Q393.2344,345.6816 392.5938,346.0098 Q391.9688,346.3379 391.4688,347.0879 Q390.9844,347.8379 390.9844,348.8691 L390.9844,349.9629 Q390.9844,351.1973 391.875,352.0254 Q392.7656,352.8379 394.3594,352.8379 Q395.2969,352.8379 395.9531,352.5879 Q396.3438,352.4316 396.7656,351.9941 Q397.0313,351.7285 397.1719,351.6504 Q397.3281,351.5723 397.5313,351.5723 Q397.8594,351.5723 398.1094,351.8379 Q398.375,352.0879 398.375,352.4316 Q398.375,352.7754 398.0313,353.1816 Q397.5313,353.7598 396.7344,354.0879 Q395.6563,354.541 394.3594,354.541 Q392.8438,354.541 391.6406,353.916 Q390.6563,353.416 389.9688,352.3535 Q389.2813,351.2754 389.2813,349.9941 L389.2813,348.8379 Q389.2813,347.5098 389.8906,346.3691 Q390.5156,345.2129 391.6094,344.6035 Q392.7031,343.9785 393.9375,343.9785 Q394.6719,343.9785 395.3125,344.1504 Q395.9688,344.3066 396.5156,344.666 Z " fill="#000000"/><text fill="#000000" font-family="sans-serif" font-size="12" font-style="italic" lengthAdjust="spacing" textLength="44" x="460.25" y="344.4492">&#171;Entity&#187;</text><text fill="#000000" font-family="sans-serif" font-size="14" lengthAdjust="spacing" textLength="136" x="414.25" y="362.5684">SportItemReservation</text><line style="stroke:#181818;stroke-width:0.5;" x1="80" x2="852" y1="371.082" y2="371.082"/><text fill="#000000" font-family="sans-serif" font-size="14" lengthAdjust="spacing" textLength="762" x="85" y="390.1895">+SportItemReservation(UserAccount userAccount, SportItem sportItem, LocalDateTime arrival, LocalDateTime departure)</text><text fill="#000000" font-family="sans-serif" font-size="14" lengthAdjust="spacing" textLength="187" x="85" y="408.8105">+getIntervalUnit(): ChronoUnit</text></g><!--class SportItemReservationRepository--><g id="elem_SportItemReservationRepository"><rect codeLine="29" fill="#F1F1F1" height="32" id="SportItemReservationRepository" rx="2.5" ry="2.5" style="stroke:#181818;stroke-width:0.5;" width="236" x="603" y="142"/><ellipse cx="618" cy="158" fill="#B4A7E5" rx="11" ry="11" style="stroke:#181818;stroke-width:1.0;"/><path d="M618.9531,154.6406 L618.9531,161.2969 L620.6719,161.2969 Q621.2813,161.2969 621.5469,161.5313 Q621.8125,161.7656 621.8125,162.1563 Q621.8125,162.5313 621.5469,162.7656 Q621.2813,163 620.6719,163 L615.5313,163 Q614.9219,163 614.6563,162.7656 Q614.3906,162.5313 614.3906,162.1406 Q614.3906,161.7656 614.6563,161.5313 Q614.9219,161.2969 615.5313,161.2969 L617.25,161.2969 L617.25,154.6406 L615.5313,154.6406 Q614.9219,154.6406 614.6563,154.4063 Q614.3906,154.1719 614.3906,153.7813 Q614.3906,153.4063 614.6563,153.1719 Q614.9219,152.9375 615.5313,152.9375 L620.6719,152.9375 Q621.2813,152.9375 621.5469,153.1719 Q621.8125,153.4063 621.8125,153.7813 Q621.8125,154.1719 621.5469,154.4063 Q621.2813,154.6406 620.6719,154.6406 L618.9531,154.6406 Z " fill="#000000"/><text fill="#000000" font-family="sans-serif" font-size="14" font-style="italic" lengthAdjust="spacing" textLength="204" x="632" y="163.7969">SportItemReservationRepository</text></g><!--class Catalog--><g id="elem_Catalog"><rect codeLine="16" fill="#F1F1F1" height="32" id="Catalog" rx="2.5" ry="2.5" style="stroke:#181818;stroke-width:0.5;" width="183" x="2557.5" y="1079"/><ellipse cx="2572.5" cy="1095" fill="#B4A7E5" rx="11" ry="11" style="stroke:#181818;stroke-width:1.0;"/><path d="M2573.4531,1091.6406 L2573.4531,1098.2969 L2575.1719,1098.2969 Q2575.7813,1098.2969 2576.0469,1098.5313 Q2576.3125,1098.7656 2576.3125,1099.1563 Q2576.3125,1099.5313 2576.0469,1099.7656 Q2575.7813,1100 2575.1719,1100 L2570.0313,1100 Q2569.4219,1100 2569.1563,1099.7656 Q2568.8906,1099.5313 2568.8906,1099.1406 Q2568.8906,1098.7656 2569.1563,1098.5313 Q2569.4219,1098.2969 2570.0313,1098.2969 L2571.75,1098.2969 L2571.75,1091.6406 L2570.0313,1091.6406 Q2569.4219,1091.6406 2569.1563,1091.4063 Q2568.8906,1091.1719 2568.8906,1090.7813 Q2568.8906,1090.4063 2569.1563,1090.1719 Q2569.4219,1089.9375 2570.0313,1089.9375 L2575.1719,1089.9375 Q2575.7813,1089.9375 2576.0469,1090.1719 Q2576.3125,1090.4063 2576.3125,1090.7813 Q2576.3125,1091.1719 2576.0469,1091.4063 Q2575.7813,1091.6406 2575.1719,1091.6406 L2573.4531,1091.6406 Z " fill="#000000"/><text fill="#000000" font-family="sans-serif" font-size="14" font-style="italic" lengthAdjust="spacing" textLength="49" x="2586.5" y="1100.7969">Catalog</text><rect fill="#FEFEFE" height="17.9609" style="stroke:#181818;stroke-width:1.0;stroke-dasharray:2.0,2.0;" width="100" x="2643.5" y="1076"/><text fill="#000000" font-family="sans-serif" font-size="12" font-style="italic" lengthAdjust="spacing" textLength="98" x="2644.5" y="1089.9492">T extends Product</text></g><!--class DataInitializer--><g id="elem_DataInitializer"><rect codeLine="17" fill="#F1F1F1" height="32" id="DataInitializer" rx="2.5" ry="2.5" style="stroke:#181818;stroke-width:0.5;" width="116" x="2797" y="1079"/><ellipse cx="2812" cy="1095" fill="#ADD1B2" rx="11" ry="11" style="stroke:#181818;stroke-width:1.0;"/><path d="M2814.7656,1090.875 Q2814.9219,1090.6563 2815.1094,1090.5469 Q2815.2969,1090.4375 2815.5156,1090.4375 Q2815.8906,1090.4375 2816.125,1090.7031 Q2816.3594,1090.9531 2816.3594,1091.5625 L2816.3594,1093.0156 Q2816.3594,1093.625 2816.125,1093.8906 Q2815.8906,1094.1563 2815.5156,1094.1563 Q2815.1719,1094.1563 2814.9688,1093.9531 Q2814.7656,1093.7656 2814.6563,1093.25 Q2814.6094,1092.8906 2814.4219,1092.7031 Q2814.0938,1092.3281 2813.4844,1092.1094 Q2812.875,1091.8906 2812.25,1091.8906 Q2811.4844,1091.8906 2810.8438,1092.2188 Q2810.2188,1092.5469 2809.7188,1093.2969 Q2809.2344,1094.0469 2809.2344,1095.0781 L2809.2344,1096.1719 Q2809.2344,1097.4063 2810.125,1098.2344 Q2811.0156,1099.0469 2812.6094,1099.0469 Q2813.5469,1099.0469 2814.2031,1098.7969 Q2814.5938,1098.6406 2815.0156,1098.2031 Q2815.2813,1097.9375 2815.4219,1097.8594 Q2815.5781,1097.7813 2815.7813,1097.7813 Q2816.1094,1097.7813 2816.3594,1098.0469 Q2816.625,1098.2969 2816.625,1098.6406 Q2816.625,1098.9844 2816.2813,1099.3906 Q2815.7813,1099.9688 2814.9844,1100.2969 Q2813.9063,1100.75 2812.6094,1100.75 Q2811.0938,1100.75 2809.8906,1100.125 Q2808.9063,1099.625 2808.2188,1098.5625 Q2807.5313,1097.4844 2807.5313,1096.2031 L2807.5313,1095.0469 Q2807.5313,1093.7188 2808.1406,1092.5781 Q2808.7656,1091.4219 2809.8594,1090.8125 Q2810.9531,1090.1875 2812.1875,1090.1875 Q2812.9219,1090.1875 2813.5625,1090.3594 Q2814.2188,1090.5156 2814.7656,1090.875 Z " fill="#000000"/><text fill="#000000" font-family="sans-serif" font-size="14" lengthAdjust="spacing" textLength="84" x="2826" y="1100.7969">DataInitializer</text></g><!--link SportItem to DetailedProduct--><g id="link_SportItem_DetailedProduct"><path codeLine="61" d="M1681.57,441 C1761.21,441 1821,441 1821,441 C1821,441 1821,551.53 1821,597.72 " fill="none" id="SportItem-to-DetailedProduct" style="stroke:#181818;stroke-width:1.0;"/><polygon fill="none" points="1821,615.72,1827,597.72,1815,597.72,1821,615.72" style="stroke:#181818;stroke-width:1.0;"/></g><!--link SportItemCatalogDataInitializer to SportItem--><!--link SportItemCatalog to Catalog--><g id="link_SportItemCatalog_Catalog"><path codeLine="63" d="M1578.19,827 C1932.8,827 2649,827 2649,827 C2649,827 2649,1002.45 2649,1060.64 " fill="none" id="SportItemCatalog-to-Catalog" style="stroke:#181818;stroke-width:1.0;"/><polygon fill="none" points="2649,1078.64,2655,1060.64,2643,1060.64,2649,1078.64" style="stroke:#181818;stroke-width:1.0;"/><text fill="#000000" font-family="sans-serif" font-size="13" lengthAdjust="spacing" textLength="135" x="2103.42" y="823.0283">&lt;&lt;bind T-&gt;SportItem&gt;&gt;</text></g><!--link SportItem to SportItemCatalogController--><!--link SportItemCatalogDataInitializer to DataInitializer--><g id="link_SportItemCatalogDataInitializer_DataInitializer"><path codeLine="67" d="M1593.79,188 C2000.54,188 2824.5,188 2824.5,188 C2824.5,188 2824.5,939.18 2824.5,1060.87 " fill="none" id="SportItemCatalogDataInitializer-to-DataInitializer" style="stroke:#181818;stroke-width:1.0;"/><polygon fill="none" points="2824.5,1078.87,2830.5,1060.87,2818.5,1060.87,2824.5,1078.87" style="stroke:#181818;stroke-width:1.0;"/></g><!--link campingplatz to org--><!--link reservation to utils--><!--link SportItemCatalogController to SportItemCatalog--><g id="link_SportItemCatalogController_SportItemCatalog"><path codeLine="73" d="M1384,737.22 C1384,759.06 1384,774.36 1384,790.68 " fill="none" id="SportItemCatalogController-to-SportItemCatalog" style="stroke:#181818;stroke-width:1.0;stroke-dasharray:7.0,7.0;"/><polygon fill="#181818" points="1384,796.68,1388,787.68,1384,791.68,1380,787.68,1384,796.68" style="stroke:#181818;stroke-width:1.0;"/><text fill="#000000" font-family="sans-serif" font-size="13" lengthAdjust="spacing" textLength="35" x="1348" y="762.9783">&#171;use&#187;</text></g><!--link SportItemCart to Cart--><g id="link_SportItemCart_Cart"><path codeLine="75" d="M499.83,174.18 C499.83,202.02 499.83,256 499.83,256 C499.83,256 2170,256 2170,256 C2170,256 2170,305.7 2170,337.44 " fill="none" id="SportItemCart-to-Cart" style="stroke:#181818;stroke-width:1.0;"/><polygon fill="none" points="2170,355.44,2176,337.44,2164,337.44,2170,355.44" style="stroke:#181818;stroke-width:1.0;"/><text fill="#000000" font-family="sans-serif" font-size="13" lengthAdjust="spacing" textLength="287" x="1055.73" y="252.0283">&lt;&lt;bind T-&gt;SportItem, U-&gt;SportItemReservation&gt;&gt;</text></g><!--link SportItemReservation to Reservation--><g id="link_SportItemReservation_Reservation"><path codeLine="76" d="M466,416.81 C466,452.76 466,497 466,497 C466,497 2135,497 2135,497 C2135,497 2135,562.22 2135,597.98 " fill="none" id="SportItemReservation-to-Reservation" style="stroke:#181818;stroke-width:1.0;"/><polygon fill="none" points="2135,615.98,2141,597.98,2129,597.98,2135,615.98" style="stroke:#181818;stroke-width:1.0;"/></g><!--link SportItemReservationRepository to ReservationRepository--><g id="link_SportItemReservationRepository_ReservationRepository"><path codeLine="77" d="M760.33,174.16 C760.33,197.01 760.33,236 760.33,236 C760.33,236 2575,236 2575,236 C2575,236 2575,301.53 2575,337.42 " fill="none" id="SportItemReservationRepository-to-ReservationRepository" style="stroke:#181818;stroke-width:1.0;"/><polygon fill="none" points="2575,355.42,2581,337.42,2569,337.42,2575,355.42" style="stroke:#181818;stroke-width:1.0;"/><text fill="#000000" font-family="sans-serif" font-size="13" lengthAdjust="spacing" textLength="287" x="1408.46" y="232.0283">&lt;&lt;bind T-&gt;SportItem, U-&gt;SportItemReservation&gt;&gt;</text></g><!--link Cart to Reservation--><!--link ReservationRepository to Reservation--><!--link SportItemCart to SportItemReservation--><!--link SportItemReservationRepository to SportItemReservation--><!--SRC=[bLRRRk8m47rUVuMbVQ5QGFkCKAIMjXBINgf2drQhbHiFODMniuxJbdRxxpkEGsoI02r8a8ndpimS7rysWWE5BBTRkX8WUK4smPA1tMWq5Gz2vSomZAQI5SMvjKRSbnRcgLOByGBqQ-GYXGAxpO5gWz7Hm0LB7zP6buhFjDI6Vhw-Sb_2fDHFcNWMQXrvv-ZDrh2mMmdq6Yr0I9MTfYpBqJUNpBwCIojaCRu4ouG4VcCqBrFRvsYW0FF8hD1gF6F6JfSKdYqeNj0wQaZl6jDjy9uka-GKu9vx6pSXGbamAvR2kn1k8TU5iDfiFrOZgIb3ujUlXE9dPoYOX2BNMCRA4VcapODtS9-uECkaNYCzrNzV9xkWcWzjO7o9tdCbh60IfM0gbpVo5ihPwnd-bYAdhV9obChSGXPrL7WNdsUnSt0Jzrfdw1cE6PbUAIliDacy_vS-fy4TFfwdAMhIqZ8y3mDaA6v8l-cKIMmNbY83oemHZqospHnGlxOqSERphi7E7SFeUeSi3SucTBOnMcdt5hKIfg6lqg29mzstMnwnp3KpST3Um3tAX7xN2hOjNWOBNDLgJHKgPEWzg065KhY6nb0Z847U6IK3Qwngw99Gdx0P51dExWspcyR2eKYDo5r7WPxpAieHiolqIz5O7InILm8EFsh1cwXBNuaBYxefme0lk1DxaErQzRLSLaBnY-sS3shfZ-l_EKTA16wLXWgEk3-hPfYSDZZ9uHcgKyoqiaPB2MOw3S_Dj8dWEUd4jYQjWpXe3z48xgmXgSnh4zB4GTBC_Gv3Dz72IAgLWQtwEOmWujZs-4O_DPNutRauIgKJs24mnla1bN9TtkFna1kHXhT6epsI37hjQFHJfD5M0Uc6AJoATZL4qlJmVdiut5wrwVsfz1B3OgTWeTEQcx0VLNidj1TX7PDRQuDscijoN1mujJl95QsGz-gk1TqLNnkuLg1eOWRxQzET6s7l7Pb_2MsVxT7mBxoh82U_oz6ffacdij48iPjsfzDxNF1qEKh2Eax8uMNMdviGSg8EdxPT78cFo01jHkue9wIwu-nbZ6uEv5YLut7IOSOrYolQNHZspjKT8yRsqe4tZ-WjEffYdYApXuiCvFYvrl4FGn-kX_X-TeJnqLuTUqL6fFOVjssI8j2-x0Uuw5DBVxx_]--></g></svg>