<?xml version="1.0" encoding="us-ascii" standalone="no"?><svg xmlns="http://www.w3.org/2000/svg" xmlns:xlink="http://www.w3.org/1999/xlink" contentStyleType="text/css" height="1713px" preserveAspectRatio="none" style="width:2816px;height:1713px;background:#FEFEFE;" version="1.1" viewBox="0 0 2816 1713" width="2816px" zoomAndPan="magnify"><defs/><g><rect fill="#FEFEFE" height="1713" style="stroke:none;stroke-width:1.0;" width="2816" x="0" y="0"/><!--cluster campingplatz--><g id="cluster_campingplatz"><rect fill="none" height="1700" rx="2.5" ry="2.5" style="stroke:#000000;stroke-width:1.5;" width="2345" x="7" y="7"/><path d="M109,7 L109,18.6211 L99,28.6211 L7,28.6211 " fill="none" style="stroke:#000000;stroke-width:1.5;"/><text fill="#000000" font-family="sans-serif" font-size="14" font-weight="bold" lengthAdjust="spacing" textLength="92" x="10" y="23.1074">campingplatz</text></g><!--cluster utils--><g id="cluster_utils"><rect fill="none" height="85" rx="2.5" ry="2.5" style="stroke:#000000;stroke-width:1.5;" width="104" x="925" y="1598"/><path d="M965,1598 L965,1609.6211 L955,1619.6211 L925,1619.6211 " fill="none" style="stroke:#000000;stroke-width:1.5;"/><text fill="#000000" font-family="sans-serif" font-size="14" font-weight="bold" lengthAdjust="spacing" textLength="30" x="928" y="1614.1074">utils</text></g><!--cluster reservation--><g id="cluster_reservation"><rect fill="none" height="1522" rx="2.5" ry="2.5" style="stroke:#000000;stroke-width:1.5;" width="2297" x="31" y="52"/><path d="M123,52 L123,63.6211 L113,73.6211 L31,73.6211 " fill="none" style="stroke:#000000;stroke-width:1.5;"/><text fill="#000000" font-family="sans-serif" font-size="14" font-weight="bold" lengthAdjust="spacing" textLength="82" x="34" y="68.1074">reservation</text></g><!--cluster org--><g id="cluster_org"><rect fill="none" height="292" rx="2.5" ry="2.5" style="stroke:#000000;stroke-width:1.5;" width="308" x="2376" y="333"/><path d="M2410,333 L2410,344.6211 L2400,354.6211 L2376,354.6211 " fill="none" style="stroke:#000000;stroke-width:1.5;"/><text fill="#000000" font-family="sans-serif" font-size="14" font-weight="bold" lengthAdjust="spacing" textLength="24" x="2379" y="349.1074">org</text></g><!--cluster springframework--><g id="cluster_springframework"><rect fill="none" height="223" rx="2.5" ry="2.5" style="stroke:#000000;stroke-width:1.5;" width="260" x="2400" y="378"/><path d="M2529,378 L2529,389.6211 L2519,399.6211 L2400,399.6211 " fill="none" style="stroke:#000000;stroke-width:1.5;"/><text fill="#000000" font-family="sans-serif" font-size="14" font-weight="bold" lengthAdjust="spacing" textLength="119" x="2403" y="394.1074">springframework</text></g><!--cluster data--><g id="cluster_data"><rect fill="none" height="154" rx="2.5" ry="2.5" style="stroke:#000000;stroke-width:1.5;" width="212" x="2424" y="423"/><path d="M2464,423 L2464,434.6211 L2454,444.6211 L2424,444.6211 " fill="none" style="stroke:#000000;stroke-width:1.5;"/><text fill="#000000" font-family="sans-serif" font-size="14" font-weight="bold" lengthAdjust="spacing" textLength="30" x="2427" y="439.1074">data</text></g><!--cluster repository--><g id="cluster_repository"><rect fill="none" height="85" rx="2.5" ry="2.5" style="stroke:#000000;stroke-width:1.5;" width="164" x="2448" y="468"/><path d="M2530,468 L2530,479.6211 L2520,489.6211 L2448,489.6211 " fill="none" style="stroke:#000000;stroke-width:1.5;"/><text fill="#000000" font-family="sans-serif" font-size="14" font-weight="bold" lengthAdjust="spacing" textLength="72" x="2451" y="484.1074">repository</text></g><!--cluster java--><g id="cluster_java"><rect fill="none" height="154" rx="2.5" ry="2.5" style="stroke:#000000;stroke-width:1.5;" width="164" x="2376" y="742"/><path d="M2415,742 L2415,753.6211 L2405,763.6211 L2376,763.6211 " fill="none" style="stroke:#000000;stroke-width:1.5;"/><text fill="#000000" font-family="sans-serif" font-size="14" font-weight="bold" lengthAdjust="spacing" textLength="29" x="2379" y="758.1074">java</text></g><!--cluster util--><g id="cluster_util"><rect fill="none" height="85" rx="2.5" ry="2.5" style="stroke:#000000;stroke-width:1.5;" width="116" x="2400" y="787"/><path d="M2432,787 L2432,798.6211 L2422,808.6211 L2400,808.6211 " fill="none" style="stroke:#000000;stroke-width:1.5;"/><text fill="#000000" font-family="sans-serif" font-size="14" font-weight="bold" lengthAdjust="spacing" textLength="22" x="2403" y="803.1074">util</text></g><!--class Priced--><g id="elem_Priced"><rect codeLine="9" fill="#F1F1F1" height="32" id="Priced" rx="2.5" ry="2.5" style="stroke:#181818;stroke-width:0.5;" width="72" x="941" y="1635"/><ellipse cx="956" cy="1651" fill="#B4A7E5" rx="11" ry="11" style="stroke:#181818;stroke-width:1.0;"/><path d="M956.9531,1647.6406 L956.9531,1654.2969 L958.6719,1654.2969 Q959.2813,1654.2969 959.5469,1654.5313 Q959.8125,1654.7656 959.8125,1655.1563 Q959.8125,1655.5313 959.5469,1655.7656 Q959.2813,1656 958.6719,1656 L953.5313,1656 Q952.9219,1656 952.6563,1655.7656 Q952.3906,1655.5313 952.3906,1655.1406 Q952.3906,1654.7656 952.6563,1654.5313 Q952.9219,1654.2969 953.5313,1654.2969 L955.25,1654.2969 L955.25,1647.6406 L953.5313,1647.6406 Q952.9219,1647.6406 952.6563,1647.4063 Q952.3906,1647.1719 952.3906,1646.7813 Q952.3906,1646.4063 952.6563,1646.1719 Q952.9219,1645.9375 953.5313,1645.9375 L958.6719,1645.9375 Q959.2813,1645.9375 959.5469,1646.1719 Q959.8125,1646.4063 959.8125,1646.7813 Q959.8125,1647.1719 959.5469,1647.4063 Q959.2813,1647.6406 958.6719,1647.6406 L956.9531,1647.6406 Z " fill="#000000"/><text fill="#000000" font-family="sans-serif" font-size="14" font-style="italic" lengthAdjust="spacing" textLength="40" x="970" y="1656.7969">Priced</text></g><!--class Reservation--><g id="elem_Reservation"><rect codeLine="14" fill="#F1F1F1" height="569.3906" id="Reservation" rx="2.5" ry="2.5" style="stroke:#181818;stroke-width:0.5;" width="560" x="697" y="989"/><ellipse cx="884.25" cy="1005" fill="#A9DCDF" rx="11" ry="11" style="stroke:#181818;stroke-width:1.0;"/><path d="M886.4375,1006.7656 L882.2969,1006.7656 L881.875,1007.7969 L882.2969,1007.7969 Q882.9063,1007.7969 883.1719,1008.0313 Q883.4375,1008.2656 883.4375,1008.6563 Q883.4375,1009.0313 883.1719,1009.2656 Q882.9063,1009.5 882.2969,1009.5 L880,1009.5 Q879.3906,1009.5 879.1406,1009.2656 Q878.875,1009.0313 878.875,1008.6406 Q878.875,1008.2656 879.1563,1008.0313 Q879.4219,1007.7813 880.0469,1007.7969 L882.7188,1001.1406 L881.6094,1001.1406 Q881,1001.1406 880.7344,1000.9063 Q880.4688,1000.6719 880.4688,1000.2813 Q880.4688,999.9063 880.7344,999.6719 Q881,999.4375 881.6094,999.4375 L885.2813,999.4375 L888.6719,1007.7969 Q889.2656,1007.7969 889.4531,1007.9375 Q889.8438,1008.2031 889.8438,1008.6563 Q889.8438,1009.0313 889.5781,1009.2656 Q889.3281,1009.5 888.7188,1009.5 L886.4219,1009.5 Q885.8125,1009.5 885.5469,1009.2656 Q885.2813,1009.0313 885.2813,1008.6406 Q885.2813,1008.2656 885.5469,1008.0313 Q885.8125,1007.7969 886.4219,1007.7969 L886.8438,1007.7969 L886.4375,1006.7656 Z M885.7188,1005.0625 L884.3594,1001.6875 L882.9844,1005.0625 L885.7188,1005.0625 Z " fill="#000000"/><text fill="#000000" font-family="sans-serif" font-size="14" font-style="italic" lengthAdjust="spacing" textLength="75" x="904.75" y="1010.7969">Reservation</text><rect fill="#FEFEFE" height="17.9609" style="stroke:#181818;stroke-width:1.0;stroke-dasharray:2.0,2.0;" width="100" x="1160" y="986"/><text fill="#000000" font-family="sans-serif" font-size="12" font-style="italic" lengthAdjust="spacing" textLength="98" x="1161" y="999.9492">T extends Product</text><line style="stroke:#181818;stroke-width:0.5;" x1="698" x2="1256" y1="1021" y2="1021"/><text fill="#000000" font-family="sans-serif" font-size="14" lengthAdjust="spacing" textLength="58" x="703" y="1040.1074">+id: UUID</text><text fill="#000000" font-family="sans-serif" font-size="14" lengthAdjust="spacing" textLength="109" x="703" y="1058.7285">-discount: double</text><text fill="#000000" font-family="sans-serif" font-size="14" lengthAdjust="spacing" textLength="121" x="703" y="1077.3496">-user: UserAccount</text><text fill="#000000" font-family="sans-serif" font-size="14" lengthAdjust="spacing" textLength="70" x="703" y="1095.9707">-product: T</text><text fill="#000000" font-family="sans-serif" font-size="14" lengthAdjust="spacing" textLength="143" x="703" y="1114.5918">-begin: LocalDateTime</text><text fill="#000000" font-family="sans-serif" font-size="14" lengthAdjust="spacing" textLength="132" x="703" y="1133.2129">-end: LocalDateTime</text><text fill="#000000" font-family="sans-serif" font-size="14" lengthAdjust="spacing" textLength="77" x="703" y="1151.834">-state: State</text><line style="stroke:#181818;stroke-width:0.5;" x1="698" x2="1256" y1="1159.3477" y2="1159.3477"/><text fill="#000000" font-family="sans-serif" font-size="14" lengthAdjust="spacing" textLength="548" x="703" y="1178.4551">+Reservation(UserAccount user, T product, LocalDateTime begin, LocalDateTime end)</text><text fill="#000000" font-family="sans-serif" font-size="14" lengthAdjust="spacing" textLength="245" x="703" y="1197.0762">+Reservation(Reservation&lt;T&gt; original)</text><text fill="#000000" font-family="sans-serif" font-size="14" lengthAdjust="spacing" textLength="226" x="703" y="1215.6973">+setDiscount(double discount): void</text><text fill="#000000" font-family="sans-serif" font-size="14" lengthAdjust="spacing" textLength="262" x="703" y="1234.3184">+getPreDiscountPrice(): MonetaryAmount</text><text fill="#000000" font-family="sans-serif" font-size="14" lengthAdjust="spacing" textLength="185" x="703" y="1252.9395">+getPrice(): MonetaryAmount</text><text fill="#000000" font-family="sans-serif" font-size="14" lengthAdjust="spacing" textLength="156" x="703" y="1271.5605">+hasDiscount(): Boolean</text><text fill="#000000" font-family="sans-serif" font-size="14" font-style="italic" lengthAdjust="spacing" textLength="189" x="703" y="1290.1816">+getIntervalUnit(): ChronoUnit</text><text fill="#000000" font-family="sans-serif" font-size="14" lengthAdjust="spacing" textLength="248" x="703" y="1308.8027">+getIntervalAmount(): TemporalAmount</text><text fill="#000000" font-family="sans-serif" font-size="14" lengthAdjust="spacing" textLength="105" x="703" y="1327.4238">+duration(): long</text><text fill="#000000" font-family="sans-serif" font-size="14" lengthAdjust="spacing" textLength="88" x="703" y="1346.0449">+getId(): UUID</text><text fill="#000000" font-family="sans-serif" font-size="14" lengthAdjust="spacing" textLength="144" x="703" y="1364.666">+getDiscount(): double</text><text fill="#000000" font-family="sans-serif" font-size="14" lengthAdjust="spacing" textLength="155" x="703" y="1383.2871">+getUser(): UserAccount</text><text fill="#000000" font-family="sans-serif" font-size="14" lengthAdjust="spacing" textLength="218" x="703" y="1401.9082">+setUser(UserAccount value): void</text><text fill="#000000" font-family="sans-serif" font-size="14" lengthAdjust="spacing" textLength="104" x="703" y="1420.5293">+getProduct(): T</text><text fill="#000000" font-family="sans-serif" font-size="14" lengthAdjust="spacing" textLength="167" x="703" y="1439.1504">+setProduct(T value): void</text><text fill="#000000" font-family="sans-serif" font-size="14" lengthAdjust="spacing" textLength="177" x="703" y="1457.7715">+getBegin(): LocalDateTime</text><text fill="#000000" font-family="sans-serif" font-size="14" lengthAdjust="spacing" textLength="240" x="703" y="1476.3926">+setBegin(LocalDateTime value): void</text><text fill="#000000" font-family="sans-serif" font-size="14" lengthAdjust="spacing" textLength="166" x="703" y="1495.0137">+getEnd(): LocalDateTime</text><text fill="#000000" font-family="sans-serif" font-size="14" lengthAdjust="spacing" textLength="229" x="703" y="1513.6348">+setEnd(LocalDateTime value): void</text><text fill="#000000" font-family="sans-serif" font-size="14" lengthAdjust="spacing" textLength="112" x="703" y="1532.2559">+getState(): State</text><text fill="#000000" font-family="sans-serif" font-size="14" lengthAdjust="spacing" textLength="175" x="703" y="1550.877">+setState(State value): void</text></g><!--class State--><g id="elem_State"><rect codeLine="44" fill="#F1F1F1" height="178.3477" id="State" rx="2.5" ry="2.5" style="stroke:#181818;stroke-width:0.5;" width="199" x="877.5" y="751"/><ellipse cx="956.25" cy="767" fill="#EB937F" rx="11" ry="11" style="stroke:#181818;stroke-width:1.0;"/><path d="M955.1094,767.7969 L955.1094,770.2969 L959.4375,770.2969 L959.4375,769.375 Q959.4375,768.7656 959.6719,768.5 Q959.9219,768.2344 960.2969,768.2344 Q960.6719,768.2344 960.9063,768.5 Q961.1406,768.7656 961.1406,769.375 L961.1406,772 L953.1406,772 Q952.5156,772 952.25,771.7656 Q952,771.5313 952,771.1406 Q952,770.7656 952.2656,770.5313 Q952.5313,770.2969 953.1406,770.2969 L953.4063,770.2969 L953.4063,763.6406 L953.1406,763.6406 Q952.5156,763.6406 952.25,763.4063 Q952,763.1719 952,762.7813 Q952,762.4063 952.25,762.1719 Q952.5156,761.9375 953.1406,761.9375 L960.7656,761.9375 L960.7656,764.5313 Q960.7656,765.1406 960.5313,765.4063 Q960.3125,765.6563 959.9219,765.6563 Q959.5469,765.6563 959.3125,765.4063 Q959.0781,765.1406 959.0781,764.5313 L959.0781,763.6406 L955.1094,763.6406 L955.1094,766.0938 L956.5938,766.0938 Q956.5938,765.4375 956.7188,765.25 Q956.9844,764.8438 957.4531,764.8438 Q957.8281,764.8438 958.0625,765.1094 Q958.2969,765.3594 958.2969,765.9688 L958.2969,767.9375 Q958.2969,768.4844 958.1719,768.6719 Q957.9063,769.0625 957.4531,769.0625 Q956.9844,769.0625 956.7188,768.6563 Q956.5938,768.4688 956.5938,767.7969 L955.1094,767.7969 Z " fill="#000000"/><text fill="#000000" font-family="sans-serif" font-size="14" lengthAdjust="spacing" textLength="33" x="976.75" y="772.7969">State</text><line style="stroke:#181818;stroke-width:0.5;" x1="878.5" x2="1075.5" y1="783" y2="783"/><text fill="#000000" font-family="sans-serif" font-size="14" lengthAdjust="spacing" textLength="86" x="883.5" y="802.1074">NOT_TAKEN,</text><text fill="#000000" font-family="sans-serif" font-size="14" lengthAdjust="spacing" textLength="49" x="883.5" y="820.7285">TAKEN,</text><text fill="#000000" font-family="sans-serif" font-size="14" lengthAdjust="spacing" textLength="46" x="883.5" y="839.3496">PAYED</text><text fill="#000000" font-family="sans-serif" font-size="14" lengthAdjust="spacing" textLength="91" x="883.5" y="857.9707">-value: Integer</text><line style="stroke:#181818;stroke-width:0.5;" x1="878.5" x2="1075.5" y1="865.4844" y2="865.4844"/><text fill="#000000" font-family="sans-serif" font-size="14" lengthAdjust="spacing" textLength="133" x="883.5" y="884.5918">+State(Integer value)</text><text fill="#000000" font-family="sans-serif" font-size="14" lengthAdjust="spacing" textLength="126" x="883.5" y="903.2129">+getValue(): Integer</text><text fill="#000000" font-family="sans-serif" font-size="14" lengthAdjust="spacing" text-decoration="underline" textLength="187" x="883.5" y="921.834">+fromNumber(Integer i): State</text></g><!--class ReservationController--><g id="elem_ReservationController"><rect codeLine="53" fill="#F1F1F1" height="339.8984" id="ReservationController" rx="2.5" ry="2.5" style="stroke:#181818;stroke-width:0.5;" width="1860" x="47" y="351"/><ellipse cx="903.75" cy="373.291" fill="#ADD1B2" rx="11" ry="11" style="stroke:#181818;stroke-width:1.0;"/><path d="M906.5156,369.166 Q906.6719,368.9473 906.8594,368.8379 Q907.0469,368.7285 907.2656,368.7285 Q907.6406,368.7285 907.875,368.9941 Q908.1094,369.2441 908.1094,369.8535 L908.1094,371.3066 Q908.1094,371.916 907.875,372.1816 Q907.6406,372.4473 907.2656,372.4473 Q906.9219,372.4473 906.7188,372.2441 Q906.5156,372.0566 906.4063,371.541 Q906.3594,371.1816 906.1719,370.9941 Q905.8438,370.6191 905.2344,370.4004 Q904.625,370.1816 904,370.1816 Q903.2344,370.1816 902.5938,370.5098 Q901.9688,370.8379 901.4688,371.5879 Q900.9844,372.3379 900.9844,373.3691 L900.9844,374.4629 Q900.9844,375.6973 901.875,376.5254 Q902.7656,377.3379 904.3594,377.3379 Q905.2969,377.3379 905.9531,377.0879 Q906.3438,376.9316 906.7656,376.4941 Q907.0313,376.2285 907.1719,376.1504 Q907.3281,376.0723 907.5313,376.0723 Q907.8594,376.0723 908.1094,376.3379 Q908.375,376.5879 908.375,376.9316 Q908.375,377.2754 908.0313,377.6816 Q907.5313,378.2598 906.7344,378.5879 Q905.6563,379.041 904.3594,379.041 Q902.8438,379.041 901.6406,378.416 Q900.6563,377.916 899.9688,376.8535 Q899.2813,375.7754 899.2813,374.4941 L899.2813,373.3379 Q899.2813,372.0098 899.8906,370.8691 Q900.5156,369.7129 901.6094,369.1035 Q902.7031,368.4785 903.9375,368.4785 Q904.6719,368.4785 905.3125,368.6504 Q905.9688,368.8066 906.5156,369.166 Z " fill="#000000"/><text fill="#000000" font-family="sans-serif" font-size="12" font-style="italic" lengthAdjust="spacing" textLength="68" x="959.25" y="368.9492">&#171;Controller&#187;</text><text fill="#000000" font-family="sans-serif" font-size="14" lengthAdjust="spacing" textLength="138" x="924.25" y="387.0684">ReservationController</text><line style="stroke:#181818;stroke-width:0.5;" x1="48" x2="1906" y1="395.582" y2="395.582"/><text fill="#000000" font-family="sans-serif" font-size="14" lengthAdjust="spacing" textLength="348" x="53" y="414.6895">-plotReservationRepository: PlotReservationRepository</text><text fill="#000000" font-family="sans-serif" font-size="14" lengthAdjust="spacing" textLength="419" x="53" y="433.3105">-sportItemReservationRepository: SportItemReservationRepository</text><text fill="#000000" font-family="sans-serif" font-size="14" lengthAdjust="spacing" textLength="465" x="53" y="451.9316">-seasonalPlotReservationRepository: SeasonalPlotReservationRepository</text><text fill="#000000" font-family="sans-serif" font-size="14" lengthAdjust="spacing" textLength="458" x="53" y="470.5527">-plotReservationDiscountRepository: PlotReservationDiscountRepository</text><line style="stroke:#181818;stroke-width:0.5;" x1="48" x2="1906" y1="478.0664" y2="478.0664"/><text fill="#000000" font-family="sans-serif" font-size="14" lengthAdjust="spacing" textLength="494" x="53" y="497.1738">+ReservationController(PlotReservationRepository plotReservationRepository,</text><text fill="#000000" font-family="sans-serif" font-size="14" lengthAdjust="spacing" textLength="1336" x="565" y="497.1738">SportItemReservationRepository sportItemReservationRepository, SeasonalPlotReservationRepository seasonalPlotReservationRepository, PlotReservationDiscountRepository plotReservationDiscountRepository)</text><text fill="#000000" font-family="sans-serif" font-size="14" lengthAdjust="spacing" textLength="153" x="53" y="515.7949">+initializeCart(): PlotCart</text><text fill="#000000" font-family="sans-serif" font-size="14" lengthAdjust="spacing" textLength="223" x="53" y="534.416">+initializeSportCart(): SportItemCart</text><text fill="#000000" font-family="sans-serif" font-size="14" lengthAdjust="spacing" textLength="271" x="53" y="553.0371">+initializeSeasonalCart(): SeasonalPlotCart</text><text fill="#000000" font-family="sans-serif" font-size="14" lengthAdjust="spacing" textLength="913" x="53" y="571.6582">+cart(Model model, UserAccount userAccount, PlotCart reservationCart, SeasonalPlotCart seasonalPlotCart, SportItemCart sportItemCart): String</text><text fill="#000000" font-family="sans-serif" font-size="14" lengthAdjust="spacing" textLength="1121" x="53" y="590.2793">+removeCartItem(Model model, UserAccount userAccount, int index String type, PlotCart reservationCart, SeasonalPlotCart seasonalPlotCart, SportItemCart sportItemCart): String</text><text fill="#000000" font-family="sans-serif" font-size="14" lengthAdjust="spacing" textLength="938" x="53" y="608.9004">+reservate(Model model, UserAccount userAccount, PlotCart reservationCart, SeasonalPlotCart seasonPlotCart, SportItemCart sportItemCart): String</text><text fill="#000000" font-family="sans-serif" font-size="14" lengthAdjust="spacing" textLength="304" x="53" y="627.5215">+orders(Model model, UserAccount user): String</text><text fill="#000000" font-family="sans-serif" font-size="14" lengthAdjust="spacing" textLength="247" x="53" y="646.1426">+periodicallyDeleteReservatinos(): void</text><text fill="#000000" font-family="sans-serif" font-size="14" lengthAdjust="spacing" textLength="493" x="53" y="664.7637">+validatePlotReservations(List&lt;PlotReservation&gt; input): List&lt;PlotReservation&gt;</text><text fill="#000000" font-family="sans-serif" font-size="14" lengthAdjust="spacing" textLength="601" x="53" y="683.3848">+validateSportItemReservations(List&lt;SportItemReservation&gt; input): List&lt;SportItemReservation&gt;</text></g><!--class ReservationDiscounter--><g id="elem_ReservationDiscounter"><rect codeLine="70" fill="#F1F1F1" height="77.2422" id="ReservationDiscounter" rx="2.5" ry="2.5" style="stroke:#181818;stroke-width:0.5;" width="428" x="763" y="151.5"/><ellipse cx="778" cy="167.5" fill="#A9DCDF" rx="11" ry="11" style="stroke:#181818;stroke-width:1.0;"/><path d="M780.1875,169.2656 L776.0469,169.2656 L775.625,170.2969 L776.0469,170.2969 Q776.6563,170.2969 776.9219,170.5313 Q777.1875,170.7656 777.1875,171.1563 Q777.1875,171.5313 776.9219,171.7656 Q776.6563,172 776.0469,172 L773.75,172 Q773.1406,172 772.8906,171.7656 Q772.625,171.5313 772.625,171.1406 Q772.625,170.7656 772.9063,170.5313 Q773.1719,170.2813 773.7969,170.2969 L776.4688,163.6406 L775.3594,163.6406 Q774.75,163.6406 774.4844,163.4063 Q774.2188,163.1719 774.2188,162.7813 Q774.2188,162.4063 774.4844,162.1719 Q774.75,161.9375 775.3594,161.9375 L779.0313,161.9375 L782.4219,170.2969 Q783.0156,170.2969 783.2031,170.4375 Q783.5938,170.7031 783.5938,171.1563 Q783.5938,171.5313 783.3281,171.7656 Q783.0781,172 782.4688,172 L780.1719,172 Q779.5625,172 779.2969,171.7656 Q779.0313,171.5313 779.0313,171.1406 Q779.0313,170.7656 779.2969,170.5313 Q779.5625,170.2969 780.1719,170.2969 L780.5938,170.2969 L780.1875,169.2656 Z M779.4688,167.5625 L778.1094,164.1875 L776.7344,167.5625 L779.4688,167.5625 Z " fill="#000000"/><text fill="#000000" font-family="sans-serif" font-size="14" font-style="italic" lengthAdjust="spacing" textLength="143" x="792" y="173.2969">ReservationDiscounter</text><rect fill="#FEFEFE" height="17.9609" style="stroke:#181818;stroke-width:1.0;stroke-dasharray:2.0,2.0;" width="251" x="943" y="148.5"/><text fill="#000000" font-family="sans-serif" font-size="12" font-style="italic" lengthAdjust="spacing" textLength="249" x="944" y="162.4492">T extends Product, U extends Reservation&lt;T&gt;</text><line style="stroke:#181818;stroke-width:0.5;" x1="764" x2="1190" y1="183.5" y2="183.5"/><text fill="#000000" font-family="sans-serif" font-size="14" font-style="italic" lengthAdjust="spacing" textLength="224" x="769" y="202.6074">+applyDiscount(U reservation): void</text><text fill="#000000" font-family="sans-serif" font-size="14" lengthAdjust="spacing" textLength="156" x="769" y="221.2285">+applyDiscountToAll(List</text><text fill="#000000" font-family="sans-serif" font-size="14" lengthAdjust="spacing" text-decoration="underline" textLength="117" x="929" y="221.2285">reservations): void</text></g><!--class ReservationRepository--><g id="elem_ReservationRepository"><rect codeLine="75" fill="#F1F1F1" height="201.5508" id="ReservationRepository" rx="2.5" ry="2.5" style="stroke:#181818;stroke-width:0.5;" width="596" x="1347" y="89"/><ellipse cx="1442.75" cy="111.291" fill="#B4A7E5" rx="11" ry="11" style="stroke:#181818;stroke-width:1.0;"/><path d="M1443.7031,107.9316 L1443.7031,114.5879 L1445.4219,114.5879 Q1446.0313,114.5879 1446.2969,114.8223 Q1446.5625,115.0566 1446.5625,115.4473 Q1446.5625,115.8223 1446.2969,116.0566 Q1446.0313,116.291 1445.4219,116.291 L1440.2813,116.291 Q1439.6719,116.291 1439.4063,116.0566 Q1439.1406,115.8223 1439.1406,115.4316 Q1439.1406,115.0566 1439.4063,114.8223 Q1439.6719,114.5879 1440.2813,114.5879 L1442,114.5879 L1442,107.9316 L1440.2813,107.9316 Q1439.6719,107.9316 1439.4063,107.6973 Q1439.1406,107.4629 1439.1406,107.0723 Q1439.1406,106.6973 1439.4063,106.4629 Q1439.6719,106.2285 1440.2813,106.2285 L1445.4219,106.2285 Q1446.0313,106.2285 1446.2969,106.4629 Q1446.5625,106.6973 1446.5625,107.0723 Q1446.5625,107.4629 1446.2969,107.6973 Q1446.0313,107.9316 1445.4219,107.9316 L1443.7031,107.9316 Z " fill="#000000"/><text fill="#000000" font-family="sans-serif" font-size="12" font-style="italic" lengthAdjust="spacing" textLength="118" x="1475.75" y="106.9492">&#171;NoRepositoryBean&#187;</text><text fill="#000000" font-family="sans-serif" font-size="14" font-style="italic" lengthAdjust="spacing" textLength="143" x="1463.25" y="125.0684">ReservationRepository</text><rect fill="#FEFEFE" height="17.9609" style="stroke:#181818;stroke-width:1.0;stroke-dasharray:2.0,2.0;" width="251" x="1695" y="86"/><text fill="#000000" font-family="sans-serif" font-size="12" font-style="italic" lengthAdjust="spacing" textLength="249" x="1696" y="99.9492">T extends Product, U extends Reservation&lt;T&gt;</text><line style="stroke:#181818;stroke-width:0.5;" x1="1348" x2="1942" y1="133.582" y2="133.582"/><text fill="#000000" font-family="sans-serif" font-size="14" lengthAdjust="spacing" textLength="111" x="1353" y="152.6895">+findAll(): List&lt;U&gt;</text><text fill="#000000" font-family="sans-serif" font-size="14" lengthAdjust="spacing" textLength="385" x="1353" y="171.3105">+findByUserId(UserAccount.UserAccountIdentifier id): List&lt;U&gt;</text><text fill="#000000" font-family="sans-serif" font-size="14" lengthAdjust="spacing" textLength="141" x="1353" y="189.9316">+findPlotsAll(): Set&lt;T&gt;</text><text fill="#000000" font-family="sans-serif" font-size="14" lengthAdjust="spacing" textLength="540" x="1353" y="208.5527">+findReservationsBetween(LocalDateTime arrival, LocalDateTime departure): List&lt;U&gt;</text><text fill="#000000" font-family="sans-serif" font-size="14" lengthAdjust="spacing" textLength="548" x="1353" y="227.1738">+findPlotsReservedBetween(LocalDateTime arrival, LocalDateTime departure): Set&lt;T&gt;</text><text fill="#000000" font-family="sans-serif" font-size="14" lengthAdjust="spacing" textLength="584" x="1353" y="245.7949">+productIsReservedIn(T product, LocalDateTime arrival, LocalDateTime departure): Boolean</text><text fill="#000000" font-family="sans-serif" font-size="14" lengthAdjust="spacing" textLength="327" x="1353" y="264.416">+findUsersOfProduct(T product): Set&lt;UserAccount&gt;</text><text fill="#000000" font-family="sans-serif" font-size="14" lengthAdjust="spacing" textLength="291" x="1353" y="283.0371">+deleteBeforeThan(LocalDateTime time): void</text></g><!--class Cart--><g id="elem_Cart"><rect codeLine="85" fill="#F1F1F1" height="252.832" id="Cart" rx="2.5" ry="2.5" style="stroke:#181818;stroke-width:0.5;" width="369" x="1942.5" y="394.5"/><ellipse cx="1983.15" cy="410.5" fill="#A9DCDF" rx="11" ry="11" style="stroke:#181818;stroke-width:1.0;"/><path d="M1985.3375,412.2656 L1981.1969,412.2656 L1980.775,413.2969 L1981.1969,413.2969 Q1981.8063,413.2969 1982.0719,413.5313 Q1982.3375,413.7656 1982.3375,414.1563 Q1982.3375,414.5313 1982.0719,414.7656 Q1981.8063,415 1981.1969,415 L1978.9,415 Q1978.2906,415 1978.0406,414.7656 Q1977.775,414.5313 1977.775,414.1406 Q1977.775,413.7656 1978.0563,413.5313 Q1978.3219,413.2813 1978.9469,413.2969 L1981.6188,406.6406 L1980.5094,406.6406 Q1979.9,406.6406 1979.6344,406.4063 Q1979.3688,406.1719 1979.3688,405.7813 Q1979.3688,405.4063 1979.6344,405.1719 Q1979.9,404.9375 1980.5094,404.9375 L1984.1813,404.9375 L1987.5719,413.2969 Q1988.1656,413.2969 1988.3531,413.4375 Q1988.7438,413.7031 1988.7438,414.1563 Q1988.7438,414.5313 1988.4781,414.7656 Q1988.2281,415 1987.6188,415 L1985.3219,415 Q1984.7125,415 1984.4469,414.7656 Q1984.1813,414.5313 1984.1813,414.1406 Q1984.1813,413.7656 1984.4469,413.5313 Q1984.7125,413.2969 1985.3219,413.2969 L1985.7438,413.2969 L1985.3375,412.2656 Z M1984.6188,410.5625 L1983.2594,407.1875 L1981.8844,410.5625 L1984.6188,410.5625 Z " fill="#000000"/><text fill="#000000" font-family="sans-serif" font-size="14" font-style="italic" lengthAdjust="spacing" textLength="27" x="2002.85" y="416.2969">Cart</text><rect fill="#FEFEFE" height="17.9609" style="stroke:#181818;stroke-width:1.0;stroke-dasharray:2.0,2.0;" width="251" x="2063.5" y="391.5"/><text fill="#000000" font-family="sans-serif" font-size="12" font-style="italic" lengthAdjust="spacing" textLength="249" x="2064.5" y="405.4492">T extends Product, U extends Reservation&lt;T&gt;</text><line style="stroke:#181818;stroke-width:0.5;" x1="1943.5" x2="2310.5" y1="426.5" y2="426.5"/><text fill="#000000" font-family="sans-serif" font-size="14" lengthAdjust="spacing" textLength="124" x="1948.5" y="445.6074">+user: UserAccount</text><text fill="#000000" font-family="sans-serif" font-size="14" lengthAdjust="spacing" textLength="179" x="1948.5" y="464.2285">+reservationType: Class&lt;U&gt;</text><line style="stroke:#181818;stroke-width:0.5;" x1="1943.5" x2="2310.5" y1="471.7422" y2="471.7422"/><text fill="#000000" font-family="sans-serif" font-size="14" lengthAdjust="spacing" textLength="216" x="1948.5" y="490.8496">+Cart(Class&lt;U &gt; reservationType)</text><text fill="#000000" font-family="sans-serif" font-size="14" lengthAdjust="spacing" textLength="303" x="1948.5" y="509.4707">+addEntry(T product, LocalDateTime time): void</text><text fill="#000000" font-family="sans-serif" font-size="14" lengthAdjust="spacing" textLength="326" x="1948.5" y="528.0918">+removeEntry(T product, LocalDateTime time): void</text><text fill="#000000" font-family="sans-serif" font-size="14" lengthAdjust="spacing" textLength="357" x="1948.5" y="546.7129">+containsEntry(T product, LocalDateTime time): boolean</text><text fill="#000000" font-family="sans-serif" font-size="14" lengthAdjust="spacing" textLength="343" x="1948.5" y="565.334">+getReservations(UserAccount user): ListOfPriced&lt;U&gt;</text><text fill="#000000" font-family="sans-serif" font-size="14" lengthAdjust="spacing" textLength="325" x="1948.5" y="583.9551">+getReservationOfUser(UserAccount user): List&lt;U&gt;</text><text fill="#000000" font-family="sans-serif" font-size="14" lengthAdjust="spacing" textLength="185" x="1948.5" y="602.5762">+add(U reservation): boolean</text><text fill="#000000" font-family="sans-serif" font-size="14" lengthAdjust="spacing" textLength="208" x="1948.5" y="621.1973">+remove(U reservation): boolean</text><text fill="#000000" font-family="sans-serif" font-size="14" lengthAdjust="spacing" textLength="214" x="1948.5" y="639.8184">+contains(U reservation): boolean</text></g><!--class ReservationEntry--><g id="elem_ReservationEntry"><rect codeLine="98" fill="#F1F1F1" height="196.9688" id="ReservationEntry" rx="2.5" ry="2.5" style="stroke:#181818;stroke-width:0.5;" width="333" x="1978.5" y="91.5"/><ellipse cx="2086.25" cy="107.5" fill="#ADD1B2" rx="11" ry="11" style="stroke:#181818;stroke-width:1.0;"/><path d="M2089.0156,103.375 Q2089.1719,103.1563 2089.3594,103.0469 Q2089.5469,102.9375 2089.7656,102.9375 Q2090.1406,102.9375 2090.375,103.2031 Q2090.6094,103.4531 2090.6094,104.0625 L2090.6094,105.5156 Q2090.6094,106.125 2090.375,106.3906 Q2090.1406,106.6563 2089.7656,106.6563 Q2089.4219,106.6563 2089.2188,106.4531 Q2089.0156,106.2656 2088.9063,105.75 Q2088.8594,105.3906 2088.6719,105.2031 Q2088.3438,104.8281 2087.7344,104.6094 Q2087.125,104.3906 2086.5,104.3906 Q2085.7344,104.3906 2085.0938,104.7188 Q2084.4688,105.0469 2083.9688,105.7969 Q2083.4844,106.5469 2083.4844,107.5781 L2083.4844,108.6719 Q2083.4844,109.9063 2084.375,110.7344 Q2085.2656,111.5469 2086.8594,111.5469 Q2087.7969,111.5469 2088.4531,111.2969 Q2088.8438,111.1406 2089.2656,110.7031 Q2089.5313,110.4375 2089.6719,110.3594 Q2089.8281,110.2813 2090.0313,110.2813 Q2090.3594,110.2813 2090.6094,110.5469 Q2090.875,110.7969 2090.875,111.1406 Q2090.875,111.4844 2090.5313,111.8906 Q2090.0313,112.4688 2089.2344,112.7969 Q2088.1563,113.25 2086.8594,113.25 Q2085.3438,113.25 2084.1406,112.625 Q2083.1563,112.125 2082.4688,111.0625 Q2081.7813,109.9844 2081.7813,108.7031 L2081.7813,107.5469 Q2081.7813,106.2188 2082.3906,105.0781 Q2083.0156,103.9219 2084.1094,103.3125 Q2085.2031,102.6875 2086.4375,102.6875 Q2087.1719,102.6875 2087.8125,102.8594 Q2088.4688,103.0156 2089.0156,103.375 Z " fill="#000000"/><text fill="#000000" font-family="sans-serif" font-size="14" lengthAdjust="spacing" textLength="109" x="2106.75" y="113.2969">ReservationEntry</text><line style="stroke:#181818;stroke-width:0.5;" x1="1979.5" x2="2310.5" y1="123.5" y2="123.5"/><text fill="#000000" font-family="sans-serif" font-size="14" lengthAdjust="spacing" textLength="70" x="1984.5" y="142.6074">-product: T</text><text fill="#000000" font-family="sans-serif" font-size="14" lengthAdjust="spacing" textLength="134" x="1984.5" y="161.2285">-time: LocalDateTime</text><line style="stroke:#181818;stroke-width:0.5;" x1="1979.5" x2="2310.5" y1="168.7422" y2="168.7422"/><text fill="#000000" font-family="sans-serif" font-size="14" lengthAdjust="spacing" textLength="321" x="1984.5" y="187.8496">+ReservationEntry(T product, LocalDateTime time)</text><text fill="#000000" font-family="sans-serif" font-size="14" lengthAdjust="spacing" textLength="272" x="1984.5" y="206.4707">+compareTo(ReservationEntry second): int</text><text fill="#000000" font-family="sans-serif" font-size="14" lengthAdjust="spacing" textLength="104" x="1984.5" y="225.0918">+getProduct(): T</text><text fill="#000000" font-family="sans-serif" font-size="14" lengthAdjust="spacing" textLength="167" x="1984.5" y="243.7129">+setProduct(T value): void</text><text fill="#000000" font-family="sans-serif" font-size="14" lengthAdjust="spacing" textLength="172" x="1984.5" y="262.334">+getTime(): LocalDateTime</text><text fill="#000000" font-family="sans-serif" font-size="14" lengthAdjust="spacing" textLength="235" x="1984.5" y="280.9551">+setTime(LocalDateTime value): void</text></g><!--class CrudRepository--><g id="elem_CrudRepository"><rect codeLine="11" fill="#F1F1F1" height="32" id="CrudRepository" rx="2.5" ry="2.5" style="stroke:#181818;stroke-width:0.5;" width="131" x="2464.5" y="505"/><ellipse cx="2479.5" cy="521" fill="#B4A7E5" rx="11" ry="11" style="stroke:#181818;stroke-width:1.0;"/><path d="M2480.4531,517.6406 L2480.4531,524.2969 L2482.1719,524.2969 Q2482.7813,524.2969 2483.0469,524.5313 Q2483.3125,524.7656 2483.3125,525.1563 Q2483.3125,525.5313 2483.0469,525.7656 Q2482.7813,526 2482.1719,526 L2477.0313,526 Q2476.4219,526 2476.1563,525.7656 Q2475.8906,525.5313 2475.8906,525.1406 Q2475.8906,524.7656 2476.1563,524.5313 Q2476.4219,524.2969 2477.0313,524.2969 L2478.75,524.2969 L2478.75,517.6406 L2477.0313,517.6406 Q2476.4219,517.6406 2476.1563,517.4063 Q2475.8906,517.1719 2475.8906,516.7813 Q2475.8906,516.4063 2476.1563,516.1719 Q2476.4219,515.9375 2477.0313,515.9375 L2482.1719,515.9375 Q2482.7813,515.9375 2483.0469,516.1719 Q2483.3125,516.4063 2483.3125,516.7813 Q2483.3125,517.1719 2483.0469,517.4063 Q2482.7813,517.6406 2482.1719,517.6406 L2480.4531,517.6406 Z " fill="#000000"/><text fill="#000000" font-family="sans-serif" font-size="14" font-style="italic" lengthAdjust="spacing" textLength="99" x="2493.5" y="526.7969">CrudRepository</text></g><!--class TreeSet--><g id="elem_TreeSet"><rect fill="#F1F1F1" height="32" id="TreeSet" rx="2.5" ry="2.5" style="stroke:#181818;stroke-width:0.5;" width="83" x="2416.5" y="824"/><ellipse cx="2431.5" cy="840" fill="#ADD1B2" rx="11" ry="11" style="stroke:#181818;stroke-width:1.0;"/><path d="M2434.2656,835.875 Q2434.4219,835.6563 2434.6094,835.5469 Q2434.7969,835.4375 2435.0156,835.4375 Q2435.3906,835.4375 2435.625,835.7031 Q2435.8594,835.9531 2435.8594,836.5625 L2435.8594,838.0156 Q2435.8594,838.625 2435.625,838.8906 Q2435.3906,839.1563 2435.0156,839.1563 Q2434.6719,839.1563 2434.4688,838.9531 Q2434.2656,838.7656 2434.1563,838.25 Q2434.1094,837.8906 2433.9219,837.7031 Q2433.5938,837.3281 2432.9844,837.1094 Q2432.375,836.8906 2431.75,836.8906 Q2430.9844,836.8906 2430.3438,837.2188 Q2429.7188,837.5469 2429.2188,838.2969 Q2428.7344,839.0469 2428.7344,840.0781 L2428.7344,841.1719 Q2428.7344,842.4063 2429.625,843.2344 Q2430.5156,844.0469 2432.1094,844.0469 Q2433.0469,844.0469 2433.7031,843.7969 Q2434.0938,843.6406 2434.5156,843.2031 Q2434.7813,842.9375 2434.9219,842.8594 Q2435.0781,842.7813 2435.2813,842.7813 Q2435.6094,842.7813 2435.8594,843.0469 Q2436.125,843.2969 2436.125,843.6406 Q2436.125,843.9844 2435.7813,844.3906 Q2435.2813,844.9688 2434.4844,845.2969 Q2433.4063,845.75 2432.1094,845.75 Q2430.5938,845.75 2429.3906,845.125 Q2428.4063,844.625 2427.7188,843.5625 Q2427.0313,842.4844 2427.0313,841.2031 L2427.0313,840.0469 Q2427.0313,838.7188 2427.6406,837.5781 Q2428.2656,836.4219 2429.3594,835.8125 Q2430.4531,835.1875 2431.6875,835.1875 Q2432.4219,835.1875 2433.0625,835.3594 Q2433.7188,835.5156 2434.2656,835.875 Z " fill="#000000"/><text fill="#000000" font-family="sans-serif" font-size="14" lengthAdjust="spacing" textLength="51" x="2445.5" y="845.7969">TreeSet</text></g><!--class Comparable--><g id="elem_Comparable"><rect codeLine="10" fill="#F1F1F1" height="32" id="Comparable" rx="2.5" ry="2.5" style="stroke:#181818;stroke-width:0.5;" width="109" x="2700.5" y="505"/><ellipse cx="2715.5" cy="521" fill="#B4A7E5" rx="11" ry="11" style="stroke:#181818;stroke-width:1.0;"/><path d="M2716.4531,517.6406 L2716.4531,524.2969 L2718.1719,524.2969 Q2718.7813,524.2969 2719.0469,524.5313 Q2719.3125,524.7656 2719.3125,525.1563 Q2719.3125,525.5313 2719.0469,525.7656 Q2718.7813,526 2718.1719,526 L2713.0313,526 Q2712.4219,526 2712.1563,525.7656 Q2711.8906,525.5313 2711.8906,525.1406 Q2711.8906,524.7656 2712.1563,524.5313 Q2712.4219,524.2969 2713.0313,524.2969 L2714.75,524.2969 L2714.75,517.6406 L2713.0313,517.6406 Q2712.4219,517.6406 2712.1563,517.4063 Q2711.8906,517.1719 2711.8906,516.7813 Q2711.8906,516.4063 2712.1563,516.1719 Q2712.4219,515.9375 2713.0313,515.9375 L2718.1719,515.9375 Q2718.7813,515.9375 2719.0469,516.1719 Q2719.3125,516.4063 2719.3125,516.7813 Q2719.3125,517.1719 2719.0469,517.4063 Q2718.7813,517.6406 2718.1719,517.6406 L2716.4531,517.6406 Z " fill="#000000"/><text fill="#000000" font-family="sans-serif" font-size="14" font-style="italic" lengthAdjust="spacing" textLength="77" x="2729.5" y="526.7969">Comparable</text></g><!--link Cart to TreeSet--><g id="link_Cart_TreeSet"><path codeLine="109" d="M2311.63,593 C2379.69,593 2440.5,593 2440.5,593 C2440.5,593 2440.5,750.84 2440.5,805.79 " fill="none" id="Cart-to-TreeSet" style="stroke:#181818;stroke-width:1.0;"/><polygon fill="none" points="2440.5,823.79,2446.5,805.79,2434.5,805.79,2440.5,823.79" style="stroke:#181818;stroke-width:1.0;"/><text fill="#000000" font-family="sans-serif" font-size="13" lengthAdjust="spacing" textLength="229" x="2441.5" y="639.9883">&lt;bind T-&gt;Cart&lt;T, U&gt;.ReservationEntry&gt;</text></g><!--link ReservationEntry to Comparable--><g id="link_ReservationEntry_Comparable"><path codeLine="110" d="M2311.69,190 C2492.29,190 2755,190 2755,190 C2755,190 2755,419.8 2755,486.59 " fill="none" id="ReservationEntry-to-Comparable" style="stroke:#181818;stroke-width:1.0;stroke-dasharray:7.0,7.0;"/><polygon fill="none" points="2755,504.59,2761,486.59,2749,486.59,2755,504.59" style="stroke:#181818;stroke-width:1.0;"/><text fill="#000000" font-family="sans-serif" font-size="13" lengthAdjust="spacing" textLength="229" x="2460.64" y="186.0283">&lt;bind T-&gt;Cart&lt;T, U&gt;.ReservationEntry&gt;</text></g><!--link ReservationEntry to Cart--><g id="link_ReservationEntry_Cart"><path codeLine="111" d="M2145,288.86 C2145,322.01 2145,343.44 2145,378.41 " fill="none" id="ReservationEntry-to-Cart" style="stroke:#181818;stroke-width:1.0;"/><ellipse cx="2145" cy="386.41" fill="#FEFEFE" rx="8" ry="8" style="stroke:#181818;stroke-width:1.0;"/><line style="stroke:#181818;stroke-width:1.0;" x1="2145" x2="2145" y1="378.41" y2="394.41"/><line style="stroke:#181818;stroke-width:1.0;" x1="2153" x2="2137" y1="386.41" y2="386.41"/></g><!--link Reservation to Priced--><g id="link_Reservation_Priced"><path codeLine="113" d="M977,1558.17 C977,1590.91 977,1600.41 977,1616.78 " fill="none" id="Reservation-to-Priced" style="stroke:#181818;stroke-width:1.0;stroke-dasharray:7.0,7.0;"/><polygon fill="none" points="977,1634.78,983,1616.78,971,1616.78,977,1634.78" style="stroke:#181818;stroke-width:1.0;"/></g><!--link State to Reservation--><g id="link_State_Reservation"><path codeLine="114" d="M977,929.03 C977,947.37 977,951.6 977,972.8 " fill="none" id="State-to-Reservation" style="stroke:#181818;stroke-width:1.0;"/><ellipse cx="977" cy="980.8" fill="#FEFEFE" rx="8" ry="8" style="stroke:#181818;stroke-width:1.0;"/><line style="stroke:#181818;stroke-width:1.0;" x1="977" x2="977" y1="972.8" y2="988.8"/><line style="stroke:#181818;stroke-width:1.0;" x1="985" x2="969" y1="980.8" y2="980.8"/></g><!--link ReservationRepository to CrudRepository--><g id="link_ReservationRepository_CrudRepository"><path codeLine="116" d="M1924.75,291.27 C1924.75,308.52 1924.75,321 1924.75,321 C1924.75,321 2530,321 2530,321 C2530,321 2530,439.51 2530,486.97 " fill="none" id="ReservationRepository-to-CrudRepository" style="stroke:#181818;stroke-width:1.0;"/><polygon fill="none" points="2530,504.97,2536,486.97,2524,486.97,2530,504.97" style="stroke:#181818;stroke-width:1.0;"/><text fill="#000000" font-family="sans-serif" font-size="13" lengthAdjust="spacing" textLength="134" x="2169.5" y="317.0283">&lt;bind T-&gt;U, ID-&gt;UUID&gt;</text></g><!--link ReservationDiscounter to ReservationController--><!--link ReservationController to State--><!--SRC=[lHXhR-CsxFFoAmJiImwN1FiS106Ij0S4ksk3YpDW68P1iPX4gsqPijmsr_M_ZthObbz9Ms2xuXoBBv4KIP4-SGO4ubIToO53nBB1gOB4e4u2GTa3Jr8gQKp2Y6RPGYd9zxc2TIYIBVy1v1UF9E89g7CAH4ZazX1B6ZuSfSWJjXAHaEJdBxVwRq2ZI3p5_9adHuywHMfwXAqwHq2-80G60vuea0SQ0Wbfd29z6b7rOv8h7cMJZUGXC8zc9M8jQX-11nJoECbIYRm7BVD9o8S9eufE9AGYuqh8ysGbS_QzN0u6JfNwfX8oa8zKSP6y30Z-e_jCIHegwoFolSBF0WBF2XAMaOqKB0_LtB9yvcnAThlrZLcD6Sz2T8-Q4YPohRQ1vYW7gV2v20tQWbChQKe2kzx3aITJybM4DBgX2W8UEm6uSISyKxYSagt-iUfuEW-z3ObMOKG2ulOSrQKHitKJYBj-QakjUMMEfy6HbKQECWDrutmmj2uWXKy-JScZuCpI7K5j91Iavk27IF1DOEHHULx4fPiiwGNyYMRbbaYo5282cbZSIt6ahmJ5h7KCFT9ebt13kZf9aGYzAdSgIEm6cYZ0H1AoW5X2balh3CH70eE-P6SQLCQ31lcwUK6XKVg037qZChGN3Su_GLGgXxOFpN4QFKlM0XXqyoprMMkETa1fRekkHqAddDk4zKlHo3V8C96hfNWXd1LWyspplPed97bikMmYtjq7VmMBNs_lHcRflMuMlz-wz3IofaGVyX6atSxkvK1kjrA_t_HIwrTZUT5vnyDNSf0YlilZFHvL8O3NZB6wjih9IYHAYYX2-jciMinTKHcdaL0UULN9fcJJXt8L0MDLhHN4FUpRYtWd0sWcCAKt_Lfihv5qsb6amWLxsYIj2bJvQzYxFUdruEYdoouWbpqukcuwkUg_qNMhoLNNkI3bMBquZV0ANr5f2e6MhT-RU6DtGLGwePFI6L0IUmPLzA76VXCC8XBhvuWqBnptFYfL8jwLgzUZbkYQyno9hsfrF7fbSart0bOZ2R5uD7xG16_K3HiB_C_WsOaYklFv7rMsqk6_ykH7b1AIWSmkQzHWIK5omJWM_EXy0n4eA8Ct4TcmLlUnnd9isA2H1DdmAy_Kh06Tu-6akTQm4rkNs9NQJcmNgY6xayGhu_tjOP6T8DkD8hgk1DLxfwA5z9eKcgRelw9ZsFcdN7DXZIuGYoYoLkxcFajMlpRDJzL7TvQcT-a_czs9YdM9NLTfqm5JIcjL-7Oth-3BimucR9Myc9fuxsi6YU8uo-1johe4w238dFGjA5IbmladlmJr1D1iPgYK70EcsUqom553vH9wTxIYWNrOhA-hQyJNfTHrCknjpzyWkzRsQfMrGxFxGzKCEjbE3y_VJYDcqdO91o4XED6cVGeVxJQiaHEwc7ma1RedfCzUB0TObR5ZrxkK9sFk9mSYjSZNrEw2f8pTOiDmxlTkqp9tZxoN2oTfHNcIlOrlxvyNTfgrYjLHR7L8wjFK4tBfW3hV_Q4rD7ZC9HCwf5LPQjfOyo_J5CPUfEhfVes3NhfdOEsTpfcYoN_5mOMM-li116BOPCVR4KtGrONNviptZrDwp_uvo62l34AlWzU1kPF7ut_cv6_wICtta4aW0LinzCriZ_bCWl7SfXUcqtpID6W-Q9aucQ2uwXFAX-MCnvzDOWzyb9NU_n773c-QrMEgIV2QNMDu_PlDj5HsDoBh6_p1eNfU4r3TkcJynuapl3R-PEFkEMlGFNtvV7Pg-nS0]--></g></svg>