<?xml version="1.0" encoding="us-ascii" standalone="no"?><svg xmlns="http://www.w3.org/2000/svg" xmlns:xlink="http://www.w3.org/1999/xlink" contentStyleType="text/css" height="540px" preserveAspectRatio="none" style="width:2480px;height:540px;background:#FEFEFE;" version="1.1" viewBox="0 0 2480 540" width="2480px" zoomAndPan="magnify"><defs/><g><rect fill="#FEFEFE" height="540" style="stroke:none;stroke-width:1.0;" width="2480" x="0" y="0"/><!--cluster org--><g id="cluster_org"><rect fill="none" height="223" rx="2.5" ry="2.5" style="stroke:#000000;stroke-width:1.5;" width="274" x="2200" y="176"/><path d="M2234,176 L2234,187.6211 L2224,197.6211 L2200,197.6211 " fill="none" style="stroke:#000000;stroke-width:1.5;"/><text fill="#000000" font-family="sans-serif" font-size="14" font-weight="bold" lengthAdjust="spacing" textLength="24" x="2203" y="192.1074">org</text></g><!--cluster salespointframework--><g id="cluster_salespointframework"><rect fill="none" height="154" rx="2.5" ry="2.5" style="stroke:#000000;stroke-width:1.5;" width="226" x="2224" y="221"/><path d="M2381,221 L2381,232.6211 L2371,242.6211 L2224,242.6211 " fill="none" style="stroke:#000000;stroke-width:1.5;"/><text fill="#000000" font-family="sans-serif" font-size="14" font-weight="bold" lengthAdjust="spacing" textLength="147" x="2227" y="237.1074">salespointframework</text></g><!--cluster accountancy--><g id="cluster_accountancy"><rect fill="none" height="85" rx="2.5" ry="2.5" style="stroke:#000000;stroke-width:1.5;" width="178" x="2248" y="266"/><path d="M2346,266 L2346,277.6211 L2336,287.6211 L2248,287.6211 " fill="none" style="stroke:#000000;stroke-width:1.5;"/><text fill="#000000" font-family="sans-serif" font-size="14" font-weight="bold" lengthAdjust="spacing" textLength="88" x="2251" y="282.1074">accountancy</text></g><!--cluster accounting--><g id="cluster_accounting"><rect fill="none" height="527" rx="2.5" ry="2.5" style="stroke:#000000;stroke-width:1.5;" width="2169" x="7" y="7"/><path d="M95,7 L95,18.6211 L85,28.6211 L7,28.6211 " fill="none" style="stroke:#000000;stroke-width:1.5;"/><text fill="#000000" font-family="sans-serif" font-size="14" font-weight="bold" lengthAdjust="spacing" textLength="78" x="10" y="23.1074">accounting</text></g><!--class AccountancyEntry--><g id="elem_AccountancyEntry"><rect codeLine="9" fill="#F1F1F1" height="32" id="AccountancyEntry" rx="2.5" ry="2.5" style="stroke:#181818;stroke-width:0.5;" width="146" x="2264" y="303"/><ellipse cx="2279" cy="319" fill="#ADD1B2" rx="11" ry="11" style="stroke:#181818;stroke-width:1.0;"/><path d="M2281.7656,314.875 Q2281.9219,314.6563 2282.1094,314.5469 Q2282.2969,314.4375 2282.5156,314.4375 Q2282.8906,314.4375 2283.125,314.7031 Q2283.3594,314.9531 2283.3594,315.5625 L2283.3594,317.0156 Q2283.3594,317.625 2283.125,317.8906 Q2282.8906,318.1563 2282.5156,318.1563 Q2282.1719,318.1563 2281.9688,317.9531 Q2281.7656,317.7656 2281.6563,317.25 Q2281.6094,316.8906 2281.4219,316.7031 Q2281.0938,316.3281 2280.4844,316.1094 Q2279.875,315.8906 2279.25,315.8906 Q2278.4844,315.8906 2277.8438,316.2188 Q2277.2188,316.5469 2276.7188,317.2969 Q2276.2344,318.0469 2276.2344,319.0781 L2276.2344,320.1719 Q2276.2344,321.4063 2277.125,322.2344 Q2278.0156,323.0469 2279.6094,323.0469 Q2280.5469,323.0469 2281.2031,322.7969 Q2281.5938,322.6406 2282.0156,322.2031 Q2282.2813,321.9375 2282.4219,321.8594 Q2282.5781,321.7813 2282.7813,321.7813 Q2283.1094,321.7813 2283.3594,322.0469 Q2283.625,322.2969 2283.625,322.6406 Q2283.625,322.9844 2283.2813,323.3906 Q2282.7813,323.9688 2281.9844,324.2969 Q2280.9063,324.75 2279.6094,324.75 Q2278.0938,324.75 2276.8906,324.125 Q2275.9063,323.625 2275.2188,322.5625 Q2274.5313,321.4844 2274.5313,320.2031 L2274.5313,319.0469 Q2274.5313,317.7188 2275.1406,316.5781 Q2275.7656,315.4219 2276.8594,314.8125 Q2277.9531,314.1875 2279.1875,314.1875 Q2279.9219,314.1875 2280.5625,314.3594 Q2281.2188,314.5156 2281.7656,314.875 Z " fill="#000000"/><text fill="#000000" font-family="sans-serif" font-size="14" lengthAdjust="spacing" textLength="114" x="2293" y="324.7969">AccountancyEntry</text></g><!--class AccountancyDashboardController--><g id="elem_AccountancyDashboardController"><rect codeLine="12" fill="#F1F1F1" height="116.4453" id="AccountancyDashboardController" rx="2.5" ry="2.5" style="stroke:#181818;stroke-width:0.5;" width="408" x="1752" y="44"/><ellipse cx="1845.25" cy="66.291" fill="#ADD1B2" rx="11" ry="11" style="stroke:#181818;stroke-width:1.0;"/><path d="M1848.0156,62.166 Q1848.1719,61.9473 1848.3594,61.8379 Q1848.5469,61.7285 1848.7656,61.7285 Q1849.1406,61.7285 1849.375,61.9941 Q1849.6094,62.2441 1849.6094,62.8535 L1849.6094,64.3066 Q1849.6094,64.916 1849.375,65.1816 Q1849.1406,65.4473 1848.7656,65.4473 Q1848.4219,65.4473 1848.2188,65.2441 Q1848.0156,65.0566 1847.9063,64.541 Q1847.8594,64.1816 1847.6719,63.9941 Q1847.3438,63.6191 1846.7344,63.4004 Q1846.125,63.1816 1845.5,63.1816 Q1844.7344,63.1816 1844.0938,63.5098 Q1843.4688,63.8379 1842.9688,64.5879 Q1842.4844,65.3379 1842.4844,66.3691 L1842.4844,67.4629 Q1842.4844,68.6973 1843.375,69.5254 Q1844.2656,70.3379 1845.8594,70.3379 Q1846.7969,70.3379 1847.4531,70.0879 Q1847.8438,69.9316 1848.2656,69.4941 Q1848.5313,69.2285 1848.6719,69.1504 Q1848.8281,69.0723 1849.0313,69.0723 Q1849.3594,69.0723 1849.6094,69.3379 Q1849.875,69.5879 1849.875,69.9316 Q1849.875,70.2754 1849.5313,70.6816 Q1849.0313,71.2598 1848.2344,71.5879 Q1847.1563,72.041 1845.8594,72.041 Q1844.3438,72.041 1843.1406,71.416 Q1842.1563,70.916 1841.4688,69.8535 Q1840.7813,68.7754 1840.7813,67.4941 L1840.7813,66.3379 Q1840.7813,65.0098 1841.3906,63.8691 Q1842.0156,62.7129 1843.1094,62.1035 Q1844.2031,61.4785 1845.4375,61.4785 Q1846.1719,61.4785 1846.8125,61.6504 Q1847.4688,61.8066 1848.0156,62.166 Z " fill="#000000"/><text fill="#000000" font-family="sans-serif" font-size="12" font-style="italic" lengthAdjust="spacing" textLength="68" x="1938.25" y="61.9492">&#171;Controller&#187;</text><text fill="#000000" font-family="sans-serif" font-size="14" lengthAdjust="spacing" textLength="213" x="1865.75" y="80.0684">AccountancyDashboardController</text><line style="stroke:#181818;stroke-width:0.5;" x1="1753" x2="2159" y1="88.582" y2="88.582"/><text fill="#000000" font-family="sans-serif" font-size="14" lengthAdjust="spacing" textLength="177" x="1758" y="107.6895">+accountancy: Accountancy</text><line style="stroke:#181818;stroke-width:0.5;" x1="1753" x2="2159" y1="115.2031" y2="115.2031"/><text fill="#000000" font-family="sans-serif" font-size="14" lengthAdjust="spacing" textLength="396" x="1758" y="134.3105">+AccountancyDashboardController(Accountancy accountancy)</text><text fill="#000000" font-family="sans-serif" font-size="14" lengthAdjust="spacing" textLength="222" x="1758" y="152.9316">+accountyncy(Model model): String</text></g><!--class ExtendedAccountancyEntry--><g id="elem_ExtendedAccountancyEntry"><rect codeLine="17" fill="#F1F1F1" height="97.8242" id="ExtendedAccountancyEntry" rx="2.5" ry="2.5" style="stroke:#181818;stroke-width:0.5;" width="511" x="1648.5" y="270"/><ellipse cx="1813.25" cy="292.291" fill="#ADD1B2" rx="11" ry="11" style="stroke:#181818;stroke-width:1.0;"/><path d="M1816.0156,288.166 Q1816.1719,287.9473 1816.3594,287.8379 Q1816.5469,287.7285 1816.7656,287.7285 Q1817.1406,287.7285 1817.375,287.9941 Q1817.6094,288.2441 1817.6094,288.8535 L1817.6094,290.3066 Q1817.6094,290.916 1817.375,291.1816 Q1817.1406,291.4473 1816.7656,291.4473 Q1816.4219,291.4473 1816.2188,291.2441 Q1816.0156,291.0566 1815.9063,290.541 Q1815.8594,290.1816 1815.6719,289.9941 Q1815.3438,289.6191 1814.7344,289.4004 Q1814.125,289.1816 1813.5,289.1816 Q1812.7344,289.1816 1812.0938,289.5098 Q1811.4688,289.8379 1810.9688,290.5879 Q1810.4844,291.3379 1810.4844,292.3691 L1810.4844,293.4629 Q1810.4844,294.6973 1811.375,295.5254 Q1812.2656,296.3379 1813.8594,296.3379 Q1814.7969,296.3379 1815.4531,296.0879 Q1815.8438,295.9316 1816.2656,295.4941 Q1816.5313,295.2285 1816.6719,295.1504 Q1816.8281,295.0723 1817.0313,295.0723 Q1817.3594,295.0723 1817.6094,295.3379 Q1817.875,295.5879 1817.875,295.9316 Q1817.875,296.2754 1817.5313,296.6816 Q1817.0313,297.2598 1816.2344,297.5879 Q1815.1563,298.041 1813.8594,298.041 Q1812.3438,298.041 1811.1406,297.416 Q1810.1563,296.916 1809.4688,295.8535 Q1808.7813,294.7754 1808.7813,293.4941 L1808.7813,292.3379 Q1808.7813,291.0098 1809.3906,289.8691 Q1810.0156,288.7129 1811.1094,288.1035 Q1812.2031,287.4785 1813.4375,287.4785 Q1814.1719,287.4785 1814.8125,287.6504 Q1815.4688,287.8066 1816.0156,288.166 Z " fill="#000000"/><text fill="#000000" font-family="sans-serif" font-size="12" font-style="italic" lengthAdjust="spacing" textLength="44" x="1898.25" y="287.9492">&#171;Entity&#187;</text><text fill="#000000" font-family="sans-serif" font-size="14" lengthAdjust="spacing" textLength="173" x="1833.75" y="306.0684">ExtendedAccountancyEntry</text><line style="stroke:#181818;stroke-width:0.5;" x1="1649.5" x2="2158.5" y1="314.582" y2="314.582"/><text fill="#000000" font-family="sans-serif" font-size="14" lengthAdjust="spacing" textLength="164" x="1654.5" y="333.6895">-descriptions: List&lt;String&gt;</text><line style="stroke:#181818;stroke-width:0.5;" x1="1649.5" x2="2158.5" y1="341.2031" y2="341.2031"/><text fill="#000000" font-family="sans-serif" font-size="14" lengthAdjust="spacing" textLength="499" x="1654.5" y="360.3105">+ExtendedAccountancyEntry(MonetaryAmount value, List&lt;String&gt; descriptions)</text></g><!--class PlotRepairAccountancyEntry--><g id="elem_PlotRepairAccountancyEntry"><rect codeLine="21" fill="#F1F1F1" height="89.8242" id="PlotRepairAccountancyEntry" rx="2.5" ry="2.5" style="stroke:#181818;stroke-width:0.5;" width="344" x="1373" y="57"/><ellipse cx="1450.75" cy="79.291" fill="#ADD1B2" rx="11" ry="11" style="stroke:#181818;stroke-width:1.0;"/><path d="M1453.5156,75.166 Q1453.6719,74.9473 1453.8594,74.8379 Q1454.0469,74.7285 1454.2656,74.7285 Q1454.6406,74.7285 1454.875,74.9941 Q1455.1094,75.2441 1455.1094,75.8535 L1455.1094,77.3066 Q1455.1094,77.916 1454.875,78.1816 Q1454.6406,78.4473 1454.2656,78.4473 Q1453.9219,78.4473 1453.7188,78.2441 Q1453.5156,78.0566 1453.4063,77.541 Q1453.3594,77.1816 1453.1719,76.9941 Q1452.8438,76.6191 1452.2344,76.4004 Q1451.625,76.1816 1451,76.1816 Q1450.2344,76.1816 1449.5938,76.5098 Q1448.9688,76.8379 1448.4688,77.5879 Q1447.9844,78.3379 1447.9844,79.3691 L1447.9844,80.4629 Q1447.9844,81.6973 1448.875,82.5254 Q1449.7656,83.3379 1451.3594,83.3379 Q1452.2969,83.3379 1452.9531,83.0879 Q1453.3438,82.9316 1453.7656,82.4941 Q1454.0313,82.2285 1454.1719,82.1504 Q1454.3281,82.0723 1454.5313,82.0723 Q1454.8594,82.0723 1455.1094,82.3379 Q1455.375,82.5879 1455.375,82.9316 Q1455.375,83.2754 1455.0313,83.6816 Q1454.5313,84.2598 1453.7344,84.5879 Q1452.6563,85.041 1451.3594,85.041 Q1449.8438,85.041 1448.6406,84.416 Q1447.6563,83.916 1446.9688,82.8535 Q1446.2813,81.7754 1446.2813,80.4941 L1446.2813,79.3379 Q1446.2813,78.0098 1446.8906,76.8691 Q1447.5156,75.7129 1448.6094,75.1035 Q1449.7031,74.4785 1450.9375,74.4785 Q1451.6719,74.4785 1452.3125,74.6504 Q1452.9688,74.8066 1453.5156,75.166 Z " fill="#000000"/><text fill="#000000" font-family="sans-serif" font-size="12" font-style="italic" lengthAdjust="spacing" textLength="44" x="1539.25" y="74.9492">&#171;Entity&#187;</text><text fill="#000000" font-family="sans-serif" font-size="14" lengthAdjust="spacing" textLength="180" x="1471.25" y="93.0684">PlotRepairAccountancyEntry</text><line style="stroke:#181818;stroke-width:0.5;" x1="1374" x2="1716" y1="101.582" y2="101.582"/><text fill="#000000" font-family="sans-serif" font-size="14" lengthAdjust="spacing" text-decoration="underline" textLength="225" x="1379" y="120.6895">-descriptions(Plot plot): List&lt;String&gt;</text><text fill="#000000" font-family="sans-serif" font-size="14" lengthAdjust="spacing" textLength="332" x="1379" y="139.3105">+PlotRepairAccountancyEntry(Double cost, Plot plot)</text></g><!--class PlotReservationAccountancyEntry--><g id="elem_PlotReservationAccountancyEntry"><rect codeLine="25" fill="#F1F1F1" height="89.8242" id="PlotReservationAccountancyEntry" rx="2.5" ry="2.5" style="stroke:#181818;stroke-width:0.5;" width="419" x="918.5" y="57"/><ellipse cx="1016.75" cy="79.291" fill="#ADD1B2" rx="11" ry="11" style="stroke:#181818;stroke-width:1.0;"/><path d="M1019.5156,75.166 Q1019.6719,74.9473 1019.8594,74.8379 Q1020.0469,74.7285 1020.2656,74.7285 Q1020.6406,74.7285 1020.875,74.9941 Q1021.1094,75.2441 1021.1094,75.8535 L1021.1094,77.3066 Q1021.1094,77.916 1020.875,78.1816 Q1020.6406,78.4473 1020.2656,78.4473 Q1019.9219,78.4473 1019.7188,78.2441 Q1019.5156,78.0566 1019.4063,77.541 Q1019.3594,77.1816 1019.1719,76.9941 Q1018.8438,76.6191 1018.2344,76.4004 Q1017.625,76.1816 1017,76.1816 Q1016.2344,76.1816 1015.5938,76.5098 Q1014.9688,76.8379 1014.4688,77.5879 Q1013.9844,78.3379 1013.9844,79.3691 L1013.9844,80.4629 Q1013.9844,81.6973 1014.875,82.5254 Q1015.7656,83.3379 1017.3594,83.3379 Q1018.2969,83.3379 1018.9531,83.0879 Q1019.3438,82.9316 1019.7656,82.4941 Q1020.0313,82.2285 1020.1719,82.1504 Q1020.3281,82.0723 1020.5313,82.0723 Q1020.8594,82.0723 1021.1094,82.3379 Q1021.375,82.5879 1021.375,82.9316 Q1021.375,83.2754 1021.0313,83.6816 Q1020.5313,84.2598 1019.7344,84.5879 Q1018.6563,85.041 1017.3594,85.041 Q1015.8438,85.041 1014.6406,84.416 Q1013.6563,83.916 1012.9688,82.8535 Q1012.2813,81.7754 1012.2813,80.4941 L1012.2813,79.3379 Q1012.2813,78.0098 1012.8906,76.8691 Q1013.5156,75.7129 1014.6094,75.1035 Q1015.7031,74.4785 1016.9375,74.4785 Q1017.6719,74.4785 1018.3125,74.6504 Q1018.9688,74.8066 1019.5156,75.166 Z " fill="#000000"/><text fill="#000000" font-family="sans-serif" font-size="12" font-style="italic" lengthAdjust="spacing" textLength="44" x="1122.25" y="74.9492">&#171;Entity&#187;</text><text fill="#000000" font-family="sans-serif" font-size="14" lengthAdjust="spacing" textLength="214" x="1037.25" y="93.0684">PlotReservationAccountancyEntry</text><line style="stroke:#181818;stroke-width:0.5;" x1="919.5" x2="1336.5" y1="101.582" y2="101.582"/><text fill="#000000" font-family="sans-serif" font-size="14" lengthAdjust="spacing" text-decoration="underline" textLength="349" x="924.5" y="120.6895">-descriptions(PlotReservation reservation): List&lt;String&gt;</text><text fill="#000000" font-family="sans-serif" font-size="14" lengthAdjust="spacing" textLength="407" x="924.5" y="139.3105">+PlotReservationAccountancyEntry(PlotReservation reservation)</text></g><!--class PlotReservationDeductionEntry--><g id="elem_PlotReservationDeductionEntry"><rect codeLine="29" fill="#F1F1F1" height="89.8242" id="PlotReservationDeductionEntry" rx="2.5" ry="2.5" style="stroke:#181818;stroke-width:0.5;" width="402" x="481" y="57"/><ellipse cx="579.25" cy="79.291" fill="#ADD1B2" rx="11" ry="11" style="stroke:#181818;stroke-width:1.0;"/><path d="M582.0156,75.166 Q582.1719,74.9473 582.3594,74.8379 Q582.5469,74.7285 582.7656,74.7285 Q583.1406,74.7285 583.375,74.9941 Q583.6094,75.2441 583.6094,75.8535 L583.6094,77.3066 Q583.6094,77.916 583.375,78.1816 Q583.1406,78.4473 582.7656,78.4473 Q582.4219,78.4473 582.2188,78.2441 Q582.0156,78.0566 581.9063,77.541 Q581.8594,77.1816 581.6719,76.9941 Q581.3438,76.6191 580.7344,76.4004 Q580.125,76.1816 579.5,76.1816 Q578.7344,76.1816 578.0938,76.5098 Q577.4688,76.8379 576.9688,77.5879 Q576.4844,78.3379 576.4844,79.3691 L576.4844,80.4629 Q576.4844,81.6973 577.375,82.5254 Q578.2656,83.3379 579.8594,83.3379 Q580.7969,83.3379 581.4531,83.0879 Q581.8438,82.9316 582.2656,82.4941 Q582.5313,82.2285 582.6719,82.1504 Q582.8281,82.0723 583.0313,82.0723 Q583.3594,82.0723 583.6094,82.3379 Q583.875,82.5879 583.875,82.9316 Q583.875,83.2754 583.5313,83.6816 Q583.0313,84.2598 582.2344,84.5879 Q581.1563,85.041 579.8594,85.041 Q578.3438,85.041 577.1406,84.416 Q576.1563,83.916 575.4688,82.8535 Q574.7813,81.7754 574.7813,80.4941 L574.7813,79.3379 Q574.7813,78.0098 575.3906,76.8691 Q576.0156,75.7129 577.1094,75.1035 Q578.2031,74.4785 579.4375,74.4785 Q580.1719,74.4785 580.8125,74.6504 Q581.4688,74.8066 582.0156,75.166 Z " fill="#000000"/><text fill="#000000" font-family="sans-serif" font-size="12" font-style="italic" lengthAdjust="spacing" textLength="44" x="676.25" y="74.9492">&#171;Entity&#187;</text><text fill="#000000" font-family="sans-serif" font-size="14" lengthAdjust="spacing" textLength="197" x="599.75" y="93.0684">PlotReservationDeductionEntry</text><line style="stroke:#181818;stroke-width:0.5;" x1="482" x2="882" y1="101.582" y2="101.582"/><text fill="#000000" font-family="sans-serif" font-size="14" lengthAdjust="spacing" text-decoration="underline" textLength="349" x="487" y="120.6895">-descriptions(PlotReservation reservation): List&lt;String&gt;</text><text fill="#000000" font-family="sans-serif" font-size="14" lengthAdjust="spacing" textLength="390" x="487" y="139.3105">+PlotReservationDeductionEntry(PlotReservation reservation)</text></g><!--class SeasonalPlotRepairAccountancyEntry--><g id="elem_SeasonalPlotRepairAccountancyEntry"><rect codeLine="33" fill="#F1F1F1" height="89.8242" id="SeasonalPlotRepairAccountancyEntry" rx="2.5" ry="2.5" style="stroke:#181818;stroke-width:0.5;" width="462" x="1151" y="274"/><ellipse cx="1258.25" cy="296.291" fill="#ADD1B2" rx="11" ry="11" style="stroke:#181818;stroke-width:1.0;"/><path d="M1261.0156,292.166 Q1261.1719,291.9473 1261.3594,291.8379 Q1261.5469,291.7285 1261.7656,291.7285 Q1262.1406,291.7285 1262.375,291.9941 Q1262.6094,292.2441 1262.6094,292.8535 L1262.6094,294.3066 Q1262.6094,294.916 1262.375,295.1816 Q1262.1406,295.4473 1261.7656,295.4473 Q1261.4219,295.4473 1261.2188,295.2441 Q1261.0156,295.0566 1260.9063,294.541 Q1260.8594,294.1816 1260.6719,293.9941 Q1260.3438,293.6191 1259.7344,293.4004 Q1259.125,293.1816 1258.5,293.1816 Q1257.7344,293.1816 1257.0938,293.5098 Q1256.4688,293.8379 1255.9688,294.5879 Q1255.4844,295.3379 1255.4844,296.3691 L1255.4844,297.4629 Q1255.4844,298.6973 1256.375,299.5254 Q1257.2656,300.3379 1258.8594,300.3379 Q1259.7969,300.3379 1260.4531,300.0879 Q1260.8438,299.9316 1261.2656,299.4941 Q1261.5313,299.2285 1261.6719,299.1504 Q1261.8281,299.0723 1262.0313,299.0723 Q1262.3594,299.0723 1262.6094,299.3379 Q1262.875,299.5879 1262.875,299.9316 Q1262.875,300.2754 1262.5313,300.6816 Q1262.0313,301.2598 1261.2344,301.5879 Q1260.1563,302.041 1258.8594,302.041 Q1257.3438,302.041 1256.1406,301.416 Q1255.1563,300.916 1254.4688,299.8535 Q1253.7813,298.7754 1253.7813,297.4941 L1253.7813,296.3379 Q1253.7813,295.0098 1254.3906,293.8691 Q1255.0156,292.7129 1256.1094,292.1035 Q1257.2031,291.4785 1258.4375,291.4785 Q1259.1719,291.4785 1259.8125,291.6504 Q1260.4688,291.8066 1261.0156,292.166 Z " fill="#000000"/><text fill="#000000" font-family="sans-serif" font-size="12" font-style="italic" lengthAdjust="spacing" textLength="44" x="1376.25" y="291.9492">&#171;Entity&#187;</text><text fill="#000000" font-family="sans-serif" font-size="14" lengthAdjust="spacing" textLength="239" x="1278.75" y="310.0684">SeasonalPlotRepairAccountancyEntry</text><line style="stroke:#181818;stroke-width:0.5;" x1="1152" x2="1612" y1="318.582" y2="318.582"/><text fill="#000000" font-family="sans-serif" font-size="14" lengthAdjust="spacing" text-decoration="underline" textLength="284" x="1157" y="337.6895">-descriptions(SeasonalPlot plot): List&lt;String&gt;</text><text fill="#000000" font-family="sans-serif" font-size="14" lengthAdjust="spacing" textLength="450" x="1157" y="356.3105">+SeasonalPlotRepairAccountancyEntry(Double cost, SeasonalPlot plot)</text></g><!--class SeasonalPlotReservationAccountancyEntry--><g id="elem_SeasonalPlotReservationAccountancyEntry"><rect codeLine="37" fill="#F1F1F1" height="89.8242" id="SeasonalPlotReservationAccountancyEntry" rx="2.5" ry="2.5" style="stroke:#181818;stroke-width:0.5;" width="537" x="578.5" y="274"/><ellipse cx="706.25" cy="296.291" fill="#ADD1B2" rx="11" ry="11" style="stroke:#181818;stroke-width:1.0;"/><path d="M709.0156,292.166 Q709.1719,291.9473 709.3594,291.8379 Q709.5469,291.7285 709.7656,291.7285 Q710.1406,291.7285 710.375,291.9941 Q710.6094,292.2441 710.6094,292.8535 L710.6094,294.3066 Q710.6094,294.916 710.375,295.1816 Q710.1406,295.4473 709.7656,295.4473 Q709.4219,295.4473 709.2188,295.2441 Q709.0156,295.0566 708.9063,294.541 Q708.8594,294.1816 708.6719,293.9941 Q708.3438,293.6191 707.7344,293.4004 Q707.125,293.1816 706.5,293.1816 Q705.7344,293.1816 705.0938,293.5098 Q704.4688,293.8379 703.9688,294.5879 Q703.4844,295.3379 703.4844,296.3691 L703.4844,297.4629 Q703.4844,298.6973 704.375,299.5254 Q705.2656,300.3379 706.8594,300.3379 Q707.7969,300.3379 708.4531,300.0879 Q708.8438,299.9316 709.2656,299.4941 Q709.5313,299.2285 709.6719,299.1504 Q709.8281,299.0723 710.0313,299.0723 Q710.3594,299.0723 710.6094,299.3379 Q710.875,299.5879 710.875,299.9316 Q710.875,300.2754 710.5313,300.6816 Q710.0313,301.2598 709.2344,301.5879 Q708.1563,302.041 706.8594,302.041 Q705.3438,302.041 704.1406,301.416 Q703.1563,300.916 702.4688,299.8535 Q701.7813,298.7754 701.7813,297.4941 L701.7813,296.3379 Q701.7813,295.0098 702.3906,293.8691 Q703.0156,292.7129 704.1094,292.1035 Q705.2031,291.4785 706.4375,291.4785 Q707.1719,291.4785 707.8125,291.6504 Q708.4688,291.8066 709.0156,292.166 Z " fill="#000000"/><text fill="#000000" font-family="sans-serif" font-size="12" font-style="italic" lengthAdjust="spacing" textLength="44" x="841.25" y="291.9492">&#171;Entity&#187;</text><text fill="#000000" font-family="sans-serif" font-size="14" lengthAdjust="spacing" textLength="273" x="726.75" y="310.0684">SeasonalPlotReservationAccountancyEntry</text><line style="stroke:#181818;stroke-width:0.5;" x1="579.5" x2="1114.5" y1="318.582" y2="318.582"/><text fill="#000000" font-family="sans-serif" font-size="14" lengthAdjust="spacing" text-decoration="underline" textLength="408" x="584.5" y="337.6895">-descriptions(SeasonalPlotReservation reservation): List&lt;String&gt;</text><text fill="#000000" font-family="sans-serif" font-size="14" lengthAdjust="spacing" textLength="525" x="584.5" y="356.3105">+SeasonalPlotReservationAccountancyEntry(SeasonalPlotReservation reservation)</text></g><!--class SeasonalPlotReservationDeductionEntry--><g id="elem_SeasonalPlotReservationDeductionEntry"><rect codeLine="41" fill="#F1F1F1" height="89.8242" id="SeasonalPlotReservationDeductionEntry" rx="2.5" ry="2.5" style="stroke:#181818;stroke-width:0.5;" width="520" x="23" y="274"/><ellipse cx="150.75" cy="296.291" fill="#ADD1B2" rx="11" ry="11" style="stroke:#181818;stroke-width:1.0;"/><path d="M153.5156,292.166 Q153.6719,291.9473 153.8594,291.8379 Q154.0469,291.7285 154.2656,291.7285 Q154.6406,291.7285 154.875,291.9941 Q155.1094,292.2441 155.1094,292.8535 L155.1094,294.3066 Q155.1094,294.916 154.875,295.1816 Q154.6406,295.4473 154.2656,295.4473 Q153.9219,295.4473 153.7188,295.2441 Q153.5156,295.0566 153.4063,294.541 Q153.3594,294.1816 153.1719,293.9941 Q152.8438,293.6191 152.2344,293.4004 Q151.625,293.1816 151,293.1816 Q150.2344,293.1816 149.5938,293.5098 Q148.9688,293.8379 148.4688,294.5879 Q147.9844,295.3379 147.9844,296.3691 L147.9844,297.4629 Q147.9844,298.6973 148.875,299.5254 Q149.7656,300.3379 151.3594,300.3379 Q152.2969,300.3379 152.9531,300.0879 Q153.3438,299.9316 153.7656,299.4941 Q154.0313,299.2285 154.1719,299.1504 Q154.3281,299.0723 154.5313,299.0723 Q154.8594,299.0723 155.1094,299.3379 Q155.375,299.5879 155.375,299.9316 Q155.375,300.2754 155.0313,300.6816 Q154.5313,301.2598 153.7344,301.5879 Q152.6563,302.041 151.3594,302.041 Q149.8438,302.041 148.6406,301.416 Q147.6563,300.916 146.9688,299.8535 Q146.2813,298.7754 146.2813,297.4941 L146.2813,296.3379 Q146.2813,295.0098 146.8906,293.8691 Q147.5156,292.7129 148.6094,292.1035 Q149.7031,291.4785 150.9375,291.4785 Q151.6719,291.4785 152.3125,291.6504 Q152.9688,291.8066 153.5156,292.166 Z " fill="#000000"/><text fill="#000000" font-family="sans-serif" font-size="12" font-style="italic" lengthAdjust="spacing" textLength="44" x="277.25" y="291.9492">&#171;Entity&#187;</text><text fill="#000000" font-family="sans-serif" font-size="14" lengthAdjust="spacing" textLength="256" x="171.25" y="310.0684">SeasonalPlotReservationDeductionEntry</text><line style="stroke:#181818;stroke-width:0.5;" x1="24" x2="542" y1="318.582" y2="318.582"/><text fill="#000000" font-family="sans-serif" font-size="14" lengthAdjust="spacing" text-decoration="underline" textLength="408" x="29" y="337.6895">-descriptions(SeasonalPlotReservation reservation): List&lt;String&gt;</text><text fill="#000000" font-family="sans-serif" font-size="14" lengthAdjust="spacing" textLength="508" x="29" y="356.3105">+SeasonalPlotReservationDeductionEntry(SeasonalPlotReservation reservation)</text></g><!--class SportsItemAccountancyEntry--><g id="elem_SportsItemAccountancyEntry"><rect codeLine="45" fill="#F1F1F1" height="89.8242" id="SportsItemAccountancyEntry" rx="2.5" ry="2.5" style="stroke:#181818;stroke-width:0.5;" width="422" x="1270" y="428"/><ellipse cx="1386.25" cy="450.291" fill="#ADD1B2" rx="11" ry="11" style="stroke:#181818;stroke-width:1.0;"/><path d="M1389.0156,446.166 Q1389.1719,445.9473 1389.3594,445.8379 Q1389.5469,445.7285 1389.7656,445.7285 Q1390.1406,445.7285 1390.375,445.9941 Q1390.6094,446.2441 1390.6094,446.8535 L1390.6094,448.3066 Q1390.6094,448.916 1390.375,449.1816 Q1390.1406,449.4473 1389.7656,449.4473 Q1389.4219,449.4473 1389.2188,449.2441 Q1389.0156,449.0566 1388.9063,448.541 Q1388.8594,448.1816 1388.6719,447.9941 Q1388.3438,447.6191 1387.7344,447.4004 Q1387.125,447.1816 1386.5,447.1816 Q1385.7344,447.1816 1385.0938,447.5098 Q1384.4688,447.8379 1383.9688,448.5879 Q1383.4844,449.3379 1383.4844,450.3691 L1383.4844,451.4629 Q1383.4844,452.6973 1384.375,453.5254 Q1385.2656,454.3379 1386.8594,454.3379 Q1387.7969,454.3379 1388.4531,454.0879 Q1388.8438,453.9316 1389.2656,453.4941 Q1389.5313,453.2285 1389.6719,453.1504 Q1389.8281,453.0723 1390.0313,453.0723 Q1390.3594,453.0723 1390.6094,453.3379 Q1390.875,453.5879 1390.875,453.9316 Q1390.875,454.2754 1390.5313,454.6816 Q1390.0313,455.2598 1389.2344,455.5879 Q1388.1563,456.041 1386.8594,456.041 Q1385.3438,456.041 1384.1406,455.416 Q1383.1563,454.916 1382.4688,453.8535 Q1381.7813,452.7754 1381.7813,451.4941 L1381.7813,450.3379 Q1381.7813,449.0098 1382.3906,447.8691 Q1383.0156,446.7129 1384.1094,446.1035 Q1385.2031,445.4785 1386.4375,445.4785 Q1387.1719,445.4785 1387.8125,445.6504 Q1388.4688,445.8066 1389.0156,446.166 Z " fill="#000000"/><text fill="#000000" font-family="sans-serif" font-size="12" font-style="italic" lengthAdjust="spacing" textLength="44" x="1475.25" y="445.9492">&#171;Entity&#187;</text><text fill="#000000" font-family="sans-serif" font-size="14" lengthAdjust="spacing" textLength="181" x="1406.75" y="464.0684">SportsItemAccountancyEntry</text><line style="stroke:#181818;stroke-width:0.5;" x1="1271" x2="1691" y1="472.582" y2="472.582"/><text fill="#000000" font-family="sans-serif" font-size="14" lengthAdjust="spacing" text-decoration="underline" textLength="385" x="1276" y="491.6895">-descriptions(SportItemReservation reservation): List&lt;String&gt;</text><text fill="#000000" font-family="sans-serif" font-size="14" lengthAdjust="spacing" textLength="410" x="1276" y="510.3105">+SportsItemAccountancyEntry(SportItemReservation reservation)</text></g><!--class SportsItemDeductionEntry--><g id="elem_SportsItemDeductionEntry"><rect codeLine="49" fill="#F1F1F1" height="89.8242" id="SportsItemDeductionEntry" rx="2.5" ry="2.5" style="stroke:#181818;stroke-width:0.5;" width="405" x="1727.5" y="428"/><ellipse cx="1843.75" cy="450.291" fill="#ADD1B2" rx="11" ry="11" style="stroke:#181818;stroke-width:1.0;"/><path d="M1846.5156,446.166 Q1846.6719,445.9473 1846.8594,445.8379 Q1847.0469,445.7285 1847.2656,445.7285 Q1847.6406,445.7285 1847.875,445.9941 Q1848.1094,446.2441 1848.1094,446.8535 L1848.1094,448.3066 Q1848.1094,448.916 1847.875,449.1816 Q1847.6406,449.4473 1847.2656,449.4473 Q1846.9219,449.4473 1846.7188,449.2441 Q1846.5156,449.0566 1846.4063,448.541 Q1846.3594,448.1816 1846.1719,447.9941 Q1845.8438,447.6191 1845.2344,447.4004 Q1844.625,447.1816 1844,447.1816 Q1843.2344,447.1816 1842.5938,447.5098 Q1841.9688,447.8379 1841.4688,448.5879 Q1840.9844,449.3379 1840.9844,450.3691 L1840.9844,451.4629 Q1840.9844,452.6973 1841.875,453.5254 Q1842.7656,454.3379 1844.3594,454.3379 Q1845.2969,454.3379 1845.9531,454.0879 Q1846.3438,453.9316 1846.7656,453.4941 Q1847.0313,453.2285 1847.1719,453.1504 Q1847.3281,453.0723 1847.5313,453.0723 Q1847.8594,453.0723 1848.1094,453.3379 Q1848.375,453.5879 1848.375,453.9316 Q1848.375,454.2754 1848.0313,454.6816 Q1847.5313,455.2598 1846.7344,455.5879 Q1845.6563,456.041 1844.3594,456.041 Q1842.8438,456.041 1841.6406,455.416 Q1840.6563,454.916 1839.9688,453.8535 Q1839.2813,452.7754 1839.2813,451.4941 L1839.2813,450.3379 Q1839.2813,449.0098 1839.8906,447.8691 Q1840.5156,446.7129 1841.6094,446.1035 Q1842.7031,445.4785 1843.9375,445.4785 Q1844.6719,445.4785 1845.3125,445.6504 Q1845.9688,445.8066 1846.5156,446.166 Z " fill="#000000"/><text fill="#000000" font-family="sans-serif" font-size="12" font-style="italic" lengthAdjust="spacing" textLength="44" x="1924.25" y="445.9492">&#171;Entity&#187;</text><text fill="#000000" font-family="sans-serif" font-size="14" lengthAdjust="spacing" textLength="164" x="1864.25" y="464.0684">SportsItemDeductionEntry</text><line style="stroke:#181818;stroke-width:0.5;" x1="1728.5" x2="2131.5" y1="472.582" y2="472.582"/><text fill="#000000" font-family="sans-serif" font-size="14" lengthAdjust="spacing" text-decoration="underline" textLength="385" x="1733.5" y="491.6895">-descriptions(SportItemReservation reservation): List&lt;String&gt;</text><text fill="#000000" font-family="sans-serif" font-size="14" lengthAdjust="spacing" textLength="393" x="1733.5" y="510.3105">+SportsItemDeductionEntry(SportItemReservation reservation)</text></g><!--link AccountancyDashboardController to AccountancyEntry--><g id="link_AccountancyDashboardController_AccountancyEntry"><path codeLine="56" d="M2160.16,102 C2250.65,102 2337,102 2337,102 C2337,102 2337,246.22 2337,296.69 " fill="none" id="AccountancyDashboardController-to-AccountancyEntry" style="stroke:#181818;stroke-width:1.0;stroke-dasharray:7.0,7.0;"/><polygon fill="#181818" points="2337,302.69,2341,293.69,2337,297.69,2333,293.69,2337,302.69" style="stroke:#181818;stroke-width:1.0;"/><text fill="#000000" font-family="sans-serif" font-size="13" lengthAdjust="spacing" textLength="35" x="2301" y="109.9583">&#171;use&#187;</text></g><!--link ExtendedAccountancyEntry to AccountancyEntry--><g id="link_ExtendedAccountancyEntry_AccountancyEntry"><path codeLine="58" d="M2159.63,319 C2197.72,319 2216.13,319 2245.95,319 " fill="none" id="ExtendedAccountancyEntry-to-AccountancyEntry" style="stroke:#181818;stroke-width:1.0;"/><polygon fill="none" points="2263.95,319,2245.95,313,2245.95,325,2263.95,319" style="stroke:#181818;stroke-width:1.0;"/></g><!--link PlotRepairAccountancyEntry to ExtendedAccountancyEntry--><g id="link_PlotRepairAccountancyEntry_ExtendedAccountancyEntry"><path codeLine="59" d="M1705.58,147.23 C1705.58,183 1705.58,214.88 1705.58,251.67 " fill="none" id="PlotRepairAccountancyEntry-to-ExtendedAccountancyEntry" style="stroke:#181818;stroke-width:1.0;"/><polygon fill="none" points="1705.58,269.67,1711.58,251.67,1699.58,251.67,1705.58,269.67" style="stroke:#181818;stroke-width:1.0;"/></g><!--link PlotReservationAccountancyEntry to ExtendedAccountancyEntry--><g id="link_PlotReservationAccountancyEntry_ExtendedAccountancyEntry"><path codeLine="60" d="M1244.25,147.02 C1244.25,150.09 1244.25,152 1244.25,152 C1244.25,152 1694.17,152 1694.17,152 C1694.17,152 1694.17,202.54 1694.17,251.8 " fill="none" id="PlotReservationAccountancyEntry-to-ExtendedAccountancyEntry" style="stroke:#181818;stroke-width:1.0;"/><polygon fill="none" points="1694.17,269.8,1700.17,251.8,1688.17,251.8,1694.17,269.8" style="stroke:#181818;stroke-width:1.0;"/></g><!--link PlotReservationDeductionEntry to ExtendedAccountancyEntry--><g id="link_PlotReservationDeductionEntry_ExtendedAccountancyEntry"><path codeLine="61" d="M730.75,147.08 C730.75,152.41 730.75,156 730.75,156 C730.75,156 1682.75,156 1682.75,156 C1682.75,156 1682.75,203.68 1682.75,251.65 " fill="none" id="PlotReservationDeductionEntry-to-ExtendedAccountancyEntry" style="stroke:#181818;stroke-width:1.0;"/><polygon fill="none" points="1682.75,269.65,1688.75,251.65,1676.75,251.65,1682.75,269.65" style="stroke:#181818;stroke-width:1.0;"/></g><!--link SeasonalPlotRepairAccountancyEntry to ExtendedAccountancyEntry--><g id="link_SeasonalPlotRepairAccountancyEntry_ExtendedAccountancyEntry"><path codeLine="62" d="M1613.24,319 C1624.83,319 1618.5,319 1630.15,319 " fill="none" id="SeasonalPlotRepairAccountancyEntry-to-ExtendedAccountancyEntry" style="stroke:#181818;stroke-width:1.0;"/><polygon fill="none" points="1648.15,319,1630.15,313,1630.15,325,1648.15,319" style="stroke:#181818;stroke-width:1.0;"/></g><!--link SeasonalPlotReservationAccountancyEntry to ExtendedAccountancyEntry--><g id="link_SeasonalPlotReservationAccountancyEntry_ExtendedAccountancyEntry"><path codeLine="63" d="M1017,273.51 C1017,253.3 1017,234 1017,234 C1017,234 1659.92,234 1659.92,234 C1659.92,234 1659.92,232.86 1659.92,251.56 " fill="none" id="SeasonalPlotReservationAccountancyEntry-to-ExtendedAccountancyEntry" style="stroke:#181818;stroke-width:1.0;"/><polygon fill="none" points="1659.92,269.56,1665.92,251.56,1653.92,251.56,1659.92,269.56" style="stroke:#181818;stroke-width:1.0;"/></g><!--link SeasonalPlotReservationDeductionEntry to ExtendedAccountancyEntry--><g id="link_SeasonalPlotReservationDeductionEntry_ExtendedAccountancyEntry"><path codeLine="64" d="M512,273.92 C512,239.17 512,197 512,197 C512,197 1671.33,197 1671.33,197 C1671.33,197 1671.33,217.87 1671.33,251.73 " fill="none" id="SeasonalPlotReservationDeductionEntry-to-ExtendedAccountancyEntry" style="stroke:#181818;stroke-width:1.0;"/><polygon fill="none" points="1671.33,269.73,1677.33,251.73,1665.33,251.73,1671.33,269.73" style="stroke:#181818;stroke-width:1.0;"/></g><!--reverse link ExtendedAccountancyEntry to SportsItemAccountancyEntry--><g id="link_ExtendedAccountancyEntry_SportsItemAccountancyEntry"><path codeLine="65" d="M1670.25,386.15 C1670.25,405.34 1670.25,409.2 1670.25,427.97 " fill="none" id="ExtendedAccountancyEntry-backto-SportsItemAccountancyEntry" style="stroke:#181818;stroke-width:1.0;"/><polygon fill="none" points="1670.25,368.15,1664.25,386.15,1676.25,386.15,1670.25,368.15" style="stroke:#181818;stroke-width:1.0;"/></g><!--reverse link ExtendedAccountancyEntry to SportsItemDeductionEntry--><g id="link_ExtendedAccountancyEntry_SportsItemDeductionEntry"><path codeLine="66" d="M1930,386.15 C1930,405.34 1930,409.2 1930,427.97 " fill="none" id="ExtendedAccountancyEntry-backto-SportsItemDeductionEntry" style="stroke:#181818;stroke-width:1.0;"/><polygon fill="none" points="1930,368.15,1924,386.15,1936,386.15,1930,368.15" style="stroke:#181818;stroke-width:1.0;"/></g><!--SRC=[lPNVQjim5CRlzHI2tIIaDhiEmP0rAHHMACiJAF9f8Y9BHfBRUbdVVKTRg1Mtyf-qb0HRblJzpdUaOsilSg1GbAwc3m9aRic-wId0xJLssODG9JEie5moQvVE6R6j7DnohJRYDz3lmHGf5BYw1AeDgeE17umVTaPNAh_MKXlwxMRjVuH9gPyAyIpKBfXTucosWush9T0Rx052_aL7xYwrJ88jjL3kmGyzQND86US8TqpnEbqsxRLofYRanAEdMHZiUE85SrVCxhUQ6NI8AYqb6BfOD0zPTYIp8Cuy59DPDsaI3DC0Cdr5rlWqkTCvI5huwtHEDxZKk2ul9w_hPmSgXxoT7xh4kt2rTvZaOBaHfHDQsJdzAQnR_ETaP1OZO5pSDsRgPU7xwIEJ5LoTYMd8dRvwkfVQ_OAI2TFjwcWTSuA_X9I95zCIBzEsqJXsijBL5gk2Q-kkQ4DeER9W7fcFSg6jW41DquuOZKRhPCKiho2lk6zyWU7pMCFiRe1PhPZyqDw7aFThe3_CUIsy9KOSVwGs8gJE9HyOVH2xBwNHjVE92RLgQLmw9PuOzjP1SSccUB7N3auW6gsVzOxbyOj-kU7s8W-mw_yzvroQPhIz57DCfBAGPOH4JvxapriTwVWk9BbNn72ax_qS9szjIuzum5SjCIC87LbSX6bdqmE9lqz9DL3PZjYj-mi0]--></g></svg>