<?xml version="1.0" encoding="us-ascii" standalone="no"?><svg xmlns="http://www.w3.org/2000/svg" xmlns:xlink="http://www.w3.org/1999/xlink" contentStyleType="text/css" height="382px" preserveAspectRatio="none" style="width:727px;height:382px;background:#FEFEFE;" version="1.1" viewBox="0 0 727 382" width="727px" zoomAndPan="magnify"><defs/><g><rect fill="#FEFEFE" height="382" style="stroke:none;stroke-width:1.0;" width="727" x="0" y="0"/><!--cluster campingplatz--><g id="cluster_campingplatz"><rect fill="none" height="369" rx="2.5" ry="2.5" style="stroke:#000000;stroke-width:1.5;" width="439" x="7" y="7"/><path d="M109,7 L109,18.6211 L99,28.6211 L7,28.6211 " fill="none" style="stroke:#000000;stroke-width:1.5;"/><text fill="#000000" font-family="sans-serif" font-size="14" font-weight="bold" lengthAdjust="spacing" textLength="92" x="10" y="23.1074">campingplatz</text></g><!--cluster org--><g id="cluster_org"><rect fill="none" height="243" rx="2.5" ry="2.5" style="stroke:#000000;stroke-width:1.5;" width="235" x="486" y="133"/><path d="M520,133 L520,144.6211 L510,154.6211 L486,154.6211 " fill="none" style="stroke:#000000;stroke-width:1.5;"/><text fill="#000000" font-family="sans-serif" font-size="14" font-weight="bold" lengthAdjust="spacing" textLength="24" x="489" y="149.1074">org</text></g><rect fill="#F1F1F1" height="57.2422" rx="2.5" ry="2.5" style="stroke:#181818;stroke-width:0.5;" width="60" x="87" y="178"/><path d="M137,178 L137,189.6211 L127,199.6211 L87,199.6211 " fill="none" style="stroke:#181818;stroke-width:0.5;"/><text fill="#000000" font-family="sans-serif" font-size="14" font-weight="bold" lengthAdjust="spacing" textLength="40" x="90" y="194.1074">equip</text><rect fill="#F1F1F1" height="57.2422" rx="2.5" ry="2.5" style="stroke:#181818;stroke-width:0.5;" width="102" x="182" y="178"/><path d="M274,178 L274,189.6211 L264,199.6211 L182,199.6211 " fill="none" style="stroke:#181818;stroke-width:0.5;"/><text fill="#000000" font-family="sans-serif" font-size="14" font-weight="bold" lengthAdjust="spacing" textLength="82" x="185" y="194.1074">reservation</text><rect fill="#F1F1F1" height="57.2422" rx="2.5" ry="2.5" style="stroke:#181818;stroke-width:0.5;" width="86" x="317" y="52"/><path d="M393,52 L393,63.6211 L383,73.6211 L317,73.6211 " fill="none" style="stroke:#181818;stroke-width:0.5;"/><text fill="#000000" font-family="sans-serif" font-size="14" font-weight="bold" lengthAdjust="spacing" textLength="66" x="320" y="68.1074">customer</text><rect fill="#F1F1F1" height="57.2422" rx="2.5" ry="2.5" style="stroke:#181818;stroke-width:0.5;" width="55" x="319.5" y="178"/><path d="M364.5,178 L364.5,189.6211 L354.5,199.6211 L319.5,199.6211 " fill="none" style="stroke:#181818;stroke-width:0.5;"/><text fill="#000000" font-family="sans-serif" font-size="14" font-weight="bold" lengthAdjust="spacing" textLength="35" x="322.5" y="194.1074">plots</text><rect fill="#F1F1F1" height="57.2422" rx="2.5" ry="2.5" style="stroke:#181818;stroke-width:0.5;" width="50" x="208" y="295"/><path d="M248,295 L248,306.6211 L238,316.6211 L208,316.6211 " fill="none" style="stroke:#181818;stroke-width:0.5;"/><text fill="#000000" font-family="sans-serif" font-size="14" font-weight="bold" lengthAdjust="spacing" textLength="30" x="211" y="311.1074">utils</text><rect fill="#F1F1F1" height="57.2422" rx="2.5" ry="2.5" style="stroke:#181818;stroke-width:0.5;" width="98" x="184" y="52"/><path d="M272,52 L272,63.6211 L262,73.6211 L184,73.6211 " fill="none" style="stroke:#181818;stroke-width:0.5;"/><text fill="#000000" font-family="sans-serif" font-size="14" font-weight="bold" lengthAdjust="spacing" textLength="78" x="187" y="68.1074">accounting</text><rect fill="#F1F1F1" height="57.2422" rx="2.5" ry="2.5" style="stroke:#181818;stroke-width:0.5;" width="118" x="31" y="52"/><path d="M139,52 L139,63.6211 L129,73.6211 L31,73.6211 " fill="none" style="stroke:#181818;stroke-width:0.5;"/><text fill="#000000" font-family="sans-serif" font-size="14" font-weight="bold" lengthAdjust="spacing" textLength="98" x="34" y="68.1074">seasonalplots</text><rect fill="#F1F1F1" height="57.2422" rx="2.5" ry="2.5" style="stroke:#181818;stroke-width:0.5;" width="167" x="510.5" y="178"/><path d="M667.5,178 L667.5,189.6211 L657.5,199.6211 L510.5,199.6211 " fill="none" style="stroke:#181818;stroke-width:0.5;"/><text fill="#000000" font-family="sans-serif" font-size="14" font-weight="bold" lengthAdjust="spacing" textLength="147" x="513.5" y="194.1074">salespointframework</text><rect fill="#F1F1F1" height="57.2422" rx="2.5" ry="2.5" style="stroke:#181818;stroke-width:0.5;" width="139" x="517.5" y="295"/><path d="M646.5,295 L646.5,306.6211 L636.5,316.6211 L517.5,316.6211 " fill="none" style="stroke:#181818;stroke-width:0.5;"/><text fill="#000000" font-family="sans-serif" font-size="14" font-weight="bold" lengthAdjust="spacing" textLength="119" x="520.5" y="311.1074">springframework</text><!--entity jakarta--><g id="elem_jakarta"><path d="M573,59.5 L633,59.5 A3.75,3.75 0 0 1 635.5,62 L642.5,84.1211 L657,84.1211 A2.5,2.5 0 0 1 659.5,86.6211 L659.5,98.6211 A2.5,2.5 0 0 1 657,101.1211 L573,101.1211 A2.5,2.5 0 0 1 570.5,98.6211 L570.5,62 A2.5,2.5 0 0 1 573,59.5 " fill="#F1F1F1" style="stroke:#181818;stroke-width:0.5;"/><line style="stroke:#181818;stroke-width:0.5;" x1="570.5" x2="642.5" y1="84.1211" y2="84.1211"/><text fill="#000000" font-family="sans-serif" font-size="14" font-weight="bold" lengthAdjust="spacing" textLength="47" x="580.5" y="77.6074">jakarta</text></g><!--link customer to reservation--><g id="link_customer_reservation"><path codeLine="34" d="M316.76,81 C307.53,81 300.5,81 300.5,81 C300.5,81 300.5,197 300.5,197 C300.5,197 299.57,197 290.16,197 " fill="none" id="customer-to-reservation" style="stroke:#181818;stroke-width:1.0;stroke-dasharray:7.0,7.0;"/><polygon fill="#181818" points="284.16,197,293.16,201,289.16,197,293.16,193,284.16,197" style="stroke:#181818;stroke-width:1.0;"/></g><!--link equip to reservation--><g id="link_equip_reservation"><path codeLine="35" d="M147.17,216 C157.78,216 164.01,216 175.86,216 " fill="none" id="equip-to-reservation" style="stroke:#181818;stroke-width:1.0;stroke-dasharray:7.0,7.0;"/><polygon fill="#181818" points="181.86,216,172.86,212,176.86,216,172.86,220,181.86,216" style="stroke:#181818;stroke-width:1.0;"/></g><!--reverse link reservation to plots--><g id="link_reservation_plots"><path codeLine="36" d="M290.33,216 C302.39,216 308.78,216 319.34,216 " fill="none" id="reservation-backto-plots" style="stroke:#181818;stroke-width:1.0;stroke-dasharray:7.0,7.0;"/><polygon fill="#181818" points="284.33,216,293.33,220,289.33,216,293.33,212,284.33,216" style="stroke:#181818;stroke-width:1.0;"/></g><!--link reservation to utils--><g id="link_reservation_utils"><path codeLine="37" d="M233,235.12 C233,253.25 233,270.62 233,288.77 " fill="none" id="reservation-to-utils" style="stroke:#181818;stroke-width:1.0;stroke-dasharray:7.0,7.0;"/><polygon fill="#181818" points="233,294.77,237,285.77,233,289.77,229,285.77,233,294.77" style="stroke:#181818;stroke-width:1.0;"/></g><!--link accounting to reservation--><g id="link_accounting_reservation"><path codeLine="38" d="M233,109.09 C233,129.57 233,151.04 233,171.59 " fill="none" id="accounting-to-reservation" style="stroke:#181818;stroke-width:1.0;stroke-dasharray:7.0,7.0;"/><polygon fill="#181818" points="233,177.59,237,168.59,233,172.59,229,168.59,233,177.59" style="stroke:#181818;stroke-width:1.0;"/></g><!--link seasonalplots to reservation--><g id="link_seasonalplots_reservation"><path codeLine="39" d="M149.12,81 C158.67,81 165.5,81 165.5,81 C165.5,81 165.5,197 165.5,197 C165.5,197 166.43,197 175.84,197 " fill="none" id="seasonalplots-to-reservation" style="stroke:#181818;stroke-width:1.0;stroke-dasharray:7.0,7.0;"/><polygon fill="#181818" points="181.84,197,172.84,193,176.84,197,172.84,201,181.84,197" style="stroke:#181818;stroke-width:1.0;"/></g><!--link salespointframework to springframework--><!--link jakarta to org--><!--link campingplatz to springframework--><g id="link_campingplatz_springframework"><path codeLine="46" d="M446.3453,324 C446.89,324 447.4409,324 447.9978,324 C449.1117,324 450.2497,324 451.41,324 C469.975,324 488.26,324 511.14,324 " fill="none" id="campingplatz-to-springframework" style="stroke:#181818;stroke-width:1.0;stroke-dasharray:7.0,7.0;"/><polygon fill="#181818" points="517.14,324,508.14,320,512.14,324,508.14,328,517.14,324" style="stroke:#181818;stroke-width:1.0;"/></g><!--link campingplatz to salespointframework--><g id="link_campingplatz_salespointframework"><path codeLine="47" d="M446.0028,207 C446.1398,207 446.2783,207 446.4183,207 C446.6984,207 446.9846,207 447.2769,207 C448.4459,207 449.7115,207 451.0655,207 C453.7734,207 456.835,207 460.185,207 C473.585,207 485.6,207 504.06,207 " fill="none" id="campingplatz-to-salespointframework" style="stroke:#181818;stroke-width:1.0;stroke-dasharray:7.0,7.0;"/><polygon fill="#181818" points="510.06,207,501.06,203,505.06,207,501.06,211,510.06,207" style="stroke:#181818;stroke-width:1.0;"/></g><!--link campingplatz to jakarta--><g id="link_campingplatz_jakarta"><path codeLine="48" d="M446.3026,81 C446.4057,81 446.5097,81 446.6145,81 C446.8242,81 447.0372,81 447.2536,81 C448.9849,81 450.9311,81 453.0677,81 C461.6141,81 473.2081,81 486.2913,81 C512.4575,81 538.58,81 564.19,81 " fill="none" id="campingplatz-to-jakarta" style="stroke:#181818;stroke-width:1.0;stroke-dasharray:7.0,7.0;"/><polygon fill="#181818" points="570.19,81,561.19,77,565.19,81,561.19,85,570.19,81" style="stroke:#181818;stroke-width:1.0;"/></g><!--SRC=[TPB1JiCm38RlUGfBd1Vn00W949CuxuWucDJRGjCu90vZctXtihAjQJVKKpz_ZlExNTk6WBeWMrXQSarIwu5q96ikABNM1upOWN6OqeD8jEzPwCMmNzWTmMsbEEj9je60O-ck2ezesbNax9idTXpXPlvyU1GwnvlEVbk_gknGR5pHGhQEO5u8ANLaOB0BnGuEPRSVC7rc6_RgvmmY9OfVA9PzZKrEmXt5cWN7acgGnReHG6FAtQNChMaYJEpHdVk74iTYLYyweQCKs7fP7l9iEBRxiQzJY6N0g3m87zXY55Jg501qe-_hbAfV0UWumVtjGBi9xZF2dSvwX8Uae2STexWNLQMkP83PQ_cb6l9lUVRV6jGnsk0slLjEhB_rNx39-TUCAnCkhTCwVm40]--></g></svg>