<?xml version="1.0" encoding="us-ascii" standalone="no"?><svg xmlns="http://www.w3.org/2000/svg" xmlns:xlink="http://www.w3.org/1999/xlink" contentStyleType="text/css" height="373px" preserveAspectRatio="none" style="width:589px;height:373px;background:#FEFEFE;" version="1.1" viewBox="0 0 589 373" width="589px" zoomAndPan="magnify"><defs/><g><rect fill="#FEFEFE" height="373" style="stroke:none;stroke-width:1.0;" width="589" x="0" y="0"/><!--cluster campingplatz--><g id="cluster_campingplatz"><rect fill="none" height="360" rx="2.5" ry="2.5" style="stroke:#000000;stroke-width:1.5;" width="344" x="7" y="7"/><path d="M109,7 L109,18.6211 L99,28.6211 L7,28.6211 " fill="none" style="stroke:#000000;stroke-width:1.5;"/><text fill="#000000" font-family="sans-serif" font-size="14" font-weight="bold" lengthAdjust="spacing" textLength="92" x="10" y="23.1074">campingplatz</text></g><!--cluster org--><g id="cluster_org"><rect fill="none" height="227" rx="2.5" ry="2.5" style="stroke:#000000;stroke-width:1.5;" width="200" x="383" y="15"/><path d="M417,15 L417,26.6211 L407,36.6211 L383,36.6211 " fill="none" style="stroke:#000000;stroke-width:1.5;"/><text fill="#000000" font-family="sans-serif" font-size="14" font-weight="bold" lengthAdjust="spacing" textLength="24" x="386" y="31.1074">org</text></g><rect fill="#F1F1F1" height="57.2422" rx="2.5" ry="2.5" style="stroke:#181818;stroke-width:0.5;" width="60" x="31" y="169"/><path d="M81,169 L81,180.6211 L71,190.6211 L31,190.6211 " fill="none" style="stroke:#181818;stroke-width:0.5;"/><text fill="#000000" font-family="sans-serif" font-size="14" font-weight="bold" lengthAdjust="spacing" textLength="40" x="34" y="185.1074">equip</text><rect fill="#F1F1F1" height="57.2422" rx="2.5" ry="2.5" style="stroke:#181818;stroke-width:0.5;" width="102" x="126" y="169"/><path d="M218,169 L218,180.6211 L208,190.6211 L126,190.6211 " fill="none" style="stroke:#181818;stroke-width:0.5;"/><text fill="#000000" font-family="sans-serif" font-size="14" font-weight="bold" lengthAdjust="spacing" textLength="82" x="129" y="185.1074">reservation</text><rect fill="#F1F1F1" height="57.2422" rx="2.5" ry="2.5" style="stroke:#181818;stroke-width:0.5;" width="86" x="134" y="52"/><path d="M210,52 L210,63.6211 L200,73.6211 L134,73.6211 " fill="none" style="stroke:#181818;stroke-width:0.5;"/><text fill="#000000" font-family="sans-serif" font-size="14" font-weight="bold" lengthAdjust="spacing" textLength="66" x="137" y="68.1074">customer</text><rect fill="#F1F1F1" height="57.2422" rx="2.5" ry="2.5" style="stroke:#181818;stroke-width:0.5;" width="55" x="263.5" y="169"/><path d="M308.5,169 L308.5,180.6211 L298.5,190.6211 L263.5,190.6211 " fill="none" style="stroke:#181818;stroke-width:0.5;"/><text fill="#000000" font-family="sans-serif" font-size="14" font-weight="bold" lengthAdjust="spacing" textLength="35" x="266.5" y="185.1074">plots</text><rect fill="#F1F1F1" height="57.2422" rx="2.5" ry="2.5" style="stroke:#181818;stroke-width:0.5;" width="50" x="152" y="286"/><path d="M192,286 L192,297.6211 L182,307.6211 L152,307.6211 " fill="none" style="stroke:#181818;stroke-width:0.5;"/><text fill="#000000" font-family="sans-serif" font-size="14" font-weight="bold" lengthAdjust="spacing" textLength="30" x="155" y="302.1074">utils</text><rect fill="#F1F1F1" height="57.2422" rx="2.5" ry="2.5" style="stroke:#181818;stroke-width:0.5;" width="167" x="399.5" y="52"/><path d="M556.5,52 L556.5,63.6211 L546.5,73.6211 L399.5,73.6211 " fill="none" style="stroke:#181818;stroke-width:0.5;"/><text fill="#000000" font-family="sans-serif" font-size="14" font-weight="bold" lengthAdjust="spacing" textLength="147" x="402.5" y="68.1074">salespointframework</text><rect fill="#F1F1F1" height="57.2422" rx="2.5" ry="2.5" style="stroke:#181818;stroke-width:0.5;" width="139" x="406.5" y="169"/><path d="M535.5,169 L535.5,180.6211 L525.5,190.6211 L406.5,190.6211 " fill="none" style="stroke:#181818;stroke-width:0.5;"/><text fill="#000000" font-family="sans-serif" font-size="14" font-weight="bold" lengthAdjust="spacing" textLength="119" x="409.5" y="185.1074">springframework</text><!--link customer to reservation--><g id="link_customer_reservation"><path codeLine="29" d="M177,109.12 C177,127.25 177,144.62 177,162.77 " fill="none" id="customer-to-reservation" style="stroke:#181818;stroke-width:1.0;stroke-dasharray:7.0,7.0;"/><polygon fill="#181818" points="177,168.77,181,159.77,177,163.77,173,159.77,177,168.77" style="stroke:#181818;stroke-width:1.0;"/></g><!--link equip to reservation--><g id="link_equip_reservation"><path codeLine="30" d="M91.17,198 C101.78,198 108.01,198 119.86,198 " fill="none" id="equip-to-reservation" style="stroke:#181818;stroke-width:1.0;stroke-dasharray:7.0,7.0;"/><polygon fill="#181818" points="125.86,198,116.86,194,120.86,198,116.86,202,125.86,198" style="stroke:#181818;stroke-width:1.0;"/></g><!--reverse link reservation to plots--><g id="link_reservation_plots"><path codeLine="31" d="M234.33,198 C246.39,198 252.78,198 263.34,198 " fill="none" id="reservation-backto-plots" style="stroke:#181818;stroke-width:1.0;stroke-dasharray:7.0,7.0;"/><polygon fill="#181818" points="228.33,198,237.33,202,233.33,198,237.33,194,228.33,198" style="stroke:#181818;stroke-width:1.0;"/></g><!--link reservation to utils--><g id="link_reservation_utils"><path codeLine="32" d="M177,226.12 C177,244.25 177,261.62 177,279.77 " fill="none" id="reservation-to-utils" style="stroke:#181818;stroke-width:1.0;stroke-dasharray:7.0,7.0;"/><polygon fill="#181818" points="177,285.77,181,276.77,177,280.77,173,276.77,177,285.77" style="stroke:#181818;stroke-width:1.0;"/></g><!--link salespointframework to springframework--><!--link campingplatz to springframework--><g id="link_campingplatz_springframework"><path codeLine="37" d="M351.0254,198 C351.0894,198 351.1537,198 351.2184,198 C352.2527,198 353.372,198 354.5689,198 C356.9627,198 359.6669,198 362.6225,198 C374.445,198 384.29,198 400.38,198 " fill="none" id="campingplatz-to-springframework" style="stroke:#181818;stroke-width:1.0;stroke-dasharray:7.0,7.0;"/><polygon fill="#181818" points="406.38,198,397.38,194,401.38,198,397.38,202,406.38,198" style="stroke:#181818;stroke-width:1.0;"/></g><!--link campingplatz to salespointframework--><g id="link_campingplatz_salespointframework"><path codeLine="38" d="M351.1464,81 C352.0642,81 353.0499,81 354.0985,81 C356.1955,81 358.5441,81 361.1038,81 C371.3425,81 378.96,81 393.38,81 " fill="none" id="campingplatz-to-salespointframework" style="stroke:#181818;stroke-width:1.0;stroke-dasharray:7.0,7.0;"/><polygon fill="#181818" points="399.38,81,390.38,77,394.38,81,390.38,85,399.38,81" style="stroke:#181818;stroke-width:1.0;"/></g><!--SRC=[TP7FJiCm38VlUGfBd1Vn00W949CuxuWuXDPhexfnbZYChjgxavK_JQkXdFBv5_jBqjeQ0Nil0-mjKXrLEvCUfUMCOcUTDy7qK969yK4asFSa-5AnszaJmcqH8UjG1e_08Pyk2e-cwfh0oTLFJ1pWPljyMSeGyR6tdzOrHThdj6bm9mCXR3D1fNuOLARtEUt9o6cSCHwIzQCw_u604SE74Skkn5MAmZs6adbYYIL8Oca2C-BGZEL6HqCOFLid-ulWaKCtBlCw-f1D5-MpKhy6e6jzNsggwGwWmmfFUg1fXIT9kDD9Bx2wCXash_bdQtHlQVEVlCfcnTD-QwpwN4jSwVG5]--></g></svg>